<svg width="24" height="27" viewBox="0 0 24 27" fill="none" xmlns="http://www.w3.org/2000/svg">
<g clip-path="url(#clip0_102_85)">
<path d="M18.8993 26.8747C18.8358 26.9061 18.7696 26.9318 18.7016 26.9517C18.6298 26.9721 18.5562 26.9854 18.4818 26.9912C18.4087 26.9979 18.3351 26.9979 18.262 26.9912C18.1881 26.9857 18.1146 26.9747 18.0423 26.9582C17.9668 26.9384 17.8933 26.912 17.8225 26.8791C17.7515 26.8469 17.6838 26.8079 17.6203 26.7627C17.5592 26.7169 17.5019 26.6662 17.4489 26.6111C17.3948 26.5525 17.3469 26.4885 17.3061 26.4199L15.3107 23.1504L13.6207 25.1279C13.5447 25.2185 13.464 25.305 13.379 25.3872C13.2933 25.4685 13.2076 25.5432 13.1197 25.6069L13.1021 25.6201C13.0178 25.6854 12.9298 25.7455 12.8384 25.8003C12.751 25.8529 12.6599 25.8992 12.5659 25.9387C12.4948 25.9714 12.4213 25.9986 12.3461 26.02C12.2743 26.0421 12.2008 26.0583 12.1263 26.0683C12.0491 26.0789 11.9713 26.0841 11.8934 26.0837C11.8197 26.0808 11.7462 26.0727 11.6736 26.0596C11.5848 26.0427 11.498 26.0169 11.4143 25.9827C11.3323 25.9497 11.2541 25.9077 11.1814 25.8574C11.1086 25.807 11.0409 25.7496 10.9792 25.686C10.9181 25.6176 10.8629 25.5441 10.8144 25.4663L10.7902 25.4224L10.7704 25.3762L10.4869 24.6094V24.572L8.99036 9.50536C8.97595 9.40848 8.97595 9.31 8.99036 9.21312C9.00751 9.11725 9.03939 9.0246 9.08486 8.93846C9.15732 8.80169 9.2622 8.68475 9.39033 8.59789C9.45148 8.55559 9.518 8.5216 9.58811 8.49681C9.65896 8.47041 9.73275 8.4527 9.80787 8.44408C9.90238 8.43349 9.99795 8.43719 10.0914 8.45507C10.1871 8.47407 10.2796 8.50663 10.3661 8.55175L10.432 8.5869C13.4009 10.5293 16.1677 12.3354 18.9235 14.135L23.099 16.8574C23.1749 16.9063 23.2483 16.9591 23.3187 17.0156C23.3821 17.0653 23.4423 17.1188 23.4989 17.176L23.5121 17.1914C23.5685 17.2476 23.6206 17.3078 23.6681 17.3716C23.7154 17.4315 23.7573 17.4955 23.7934 17.5627C23.8388 17.6424 23.8764 17.7263 23.9055 17.8132C23.9337 17.8966 23.9528 17.9828 23.9626 18.0703C23.9725 18.1586 23.9725 18.2478 23.9626 18.3362C23.9538 18.4247 23.9369 18.5122 23.9121 18.5976C23.8659 18.7456 23.7962 18.8851 23.7055 19.0107C23.6616 19.0755 23.6123 19.1365 23.5583 19.1931C23.5025 19.2532 23.4422 19.309 23.3781 19.3601C23.2973 19.4266 23.2122 19.4876 23.1231 19.5425C23.0281 19.5994 22.9297 19.6508 22.8287 19.6963C22.7254 19.7424 22.6089 19.7864 22.5078 19.8237C22.3961 19.8616 22.2824 19.8931 22.1672 19.9182C21.5584 20.0369 20.9519 20.1841 20.3498 20.3291L19.6355 20.4983L21.6134 23.781C21.6539 23.8509 21.6878 23.9245 21.7145 24.0007C21.7943 24.2275 21.8057 24.4728 21.7474 24.706V24.728C21.7295 24.7989 21.7053 24.868 21.6749 24.9346C21.6428 25.0026 21.6053 25.068 21.5628 25.1301C21.5187 25.194 21.4687 25.2536 21.4134 25.3081C21.3578 25.3624 21.2975 25.4116 21.2332 25.4553L20.7937 25.7388C20.1858 26.1553 19.5532 26.5347 18.8993 26.8747ZM8.26955 4.27587C8.37464 4.47673 8.39805 4.71043 8.33488 4.92814C8.27171 5.14585 8.12685 5.33074 7.93056 5.44419C7.73427 5.55764 7.50173 5.59086 7.28151 5.53693C7.0613 5.483 6.87044 5.34608 6.74881 5.15477L4.99073 2.0786C4.89107 1.87848 4.87144 1.64791 4.93581 1.43382C5.00018 1.21973 5.14373 1.03821 5.33724 0.926215C5.53075 0.814216 5.75967 0.780154 5.9774 0.830961C6.19514 0.881768 6.38534 1.01362 6.50927 1.19969L8.28054 4.27587H8.26955ZM4.97315 14.5525C5.1733 14.4528 5.40391 14.4332 5.61803 14.4976C5.83215 14.5619 6.01369 14.7055 6.12571 14.8989C6.23772 15.0924 6.27179 15.3213 6.22098 15.539C6.17016 15.7567 6.03829 15.9469 5.85219 16.0708L2.77555 17.8418C2.57539 17.9414 2.34479 17.9611 2.13067 17.8967C1.91654 17.8323 1.735 17.6888 1.62299 17.4953C1.51097 17.3018 1.4769 17.073 1.52772 16.8553C1.57853 16.6376 1.71041 16.4474 1.89651 16.3235L4.97315 14.5525ZM4.51824 8.75389C4.73444 8.82187 4.91603 8.97072 5.02509 9.16935C5.13416 9.36799 5.16228 9.60107 5.10358 9.81994C5.04489 10.0388 4.90391 10.2266 4.71008 10.344C4.51625 10.4614 4.28455 10.4995 4.06334 10.4502L0.659257 9.52733C0.450305 9.45512 0.27624 9.30683 0.171753 9.11203C0.0672668 8.91723 0.040032 8.69021 0.0954767 8.47623C0.150921 8.26224 0.284974 8.07701 0.470918 7.95743C0.656861 7.83786 0.881041 7.79273 1.09878 7.83104L4.51165 8.75389H4.51824ZM18.0203 9.04613C17.8202 9.14577 17.5895 9.16541 17.3754 9.10104C17.1613 9.03668 16.9798 8.89315 16.8677 8.69967C16.7557 8.5062 16.7217 8.27731 16.7725 8.0596C16.8233 7.8419 16.9552 7.65174 17.1413 7.52782L20.2179 5.75682C20.4181 5.65718 20.6487 5.63755 20.8628 5.70191C21.0769 5.76628 21.2585 5.90981 21.3705 6.10328C21.4825 6.29676 21.5166 6.52564 21.4657 6.74335C21.4149 6.96105 21.283 7.15122 21.0969 7.27513L18.0203 9.04613ZM13.946 4.51976C13.923 4.63816 13.876 4.75057 13.8078 4.85001C13.7395 4.94944 13.6516 5.03378 13.5493 5.09776C13.4471 5.16174 13.3328 5.204 13.2135 5.22192C13.0942 5.23983 12.9725 5.23301 12.856 5.20188C12.7395 5.17075 12.6306 5.11598 12.5362 5.04097C12.4417 4.96597 12.3637 4.87233 12.3071 4.7659C12.2504 4.65946 12.2162 4.54249 12.2066 4.42228C12.1971 4.30206 12.2124 4.18117 12.2516 4.06713L13.157 0.659167C13.2292 0.450246 13.3775 0.276208 13.5724 0.171737C13.7672 0.0672668 13.9943 0.0400361 14.2083 0.0954724C14.4223 0.150909 14.6076 0.284941 14.7272 0.470856C14.8467 0.656772 14.8919 0.880917 14.8536 1.09862L13.946 4.51976ZM18.3785 25.6926L20.5036 24.405C19.7608 23.1702 18.5587 21.4277 17.9742 20.1929C17.9631 20.1673 17.9542 20.1408 17.9478 20.1138C17.9169 19.9774 17.9415 19.8344 18.0161 19.7161C18.0907 19.5979 18.2092 19.5141 18.3456 19.4831C19.5279 19.2129 20.7365 18.958 21.9101 18.6636C22.0455 18.6333 22.178 18.5907 22.3056 18.5361C22.4075 18.4918 22.5035 18.4349 22.5913 18.3669C22.6213 18.3414 22.6492 18.3134 22.6748 18.2834C22.6877 18.2676 22.6981 18.2498 22.7056 18.2307L22.6924 18.1912C22.6666 18.1474 22.634 18.1081 22.5957 18.0747C22.5392 18.0231 22.4782 17.9768 22.4133 17.9363L10.3419 10.0525C10.8056 14.7458 11.4846 19.7424 11.7593 24.4028C11.7666 24.477 11.7798 24.5505 11.7989 24.6225C11.8126 24.67 11.8318 24.7157 11.856 24.7588L11.8846 24.7895C11.9057 24.7926 11.9272 24.7926 11.9483 24.7895C11.9868 24.7808 12.0244 24.7683 12.0604 24.7522C12.1614 24.707 12.256 24.6486 12.3417 24.5786C12.4487 24.4897 12.5479 24.392 12.6384 24.2864C13.0625 23.7876 14.7481 21.6189 15.1436 21.3904C15.2633 21.3192 15.4061 21.2983 15.5412 21.332C15.6762 21.3658 15.7924 21.4515 15.8645 21.5705L18.3785 25.6904V25.6926Z" fill="white"/>
</g>
<defs>
<clipPath id="clip0_102_85">
<rect width="24" height="27" fill="white"/>
</clipPath>
</defs>
</svg>
