<svg width="77" height="33" viewBox="0 0 77 33" fill="none" xmlns="http://www.w3.org/2000/svg">
<path d="M23.0041 17.2116C21.2017 16.235 18.933 16.7798 16.2133 18.1265C13.4765 19.4816 10.2812 21.6488 6.64683 23.8943L21.8514 3.77081L26.7913 21.1392C25.2898 19.4359 23.9741 17.7372 23.0041 17.2116ZM21.8514 0.827618C20.6274 0.827618 19.8653 1.33069 19.1502 2.27912C14.3585 8.63321 0 27.6782 0 27.6782H3.76068C5.95695 27.6782 7.44397 26.8515 10.1113 24.9593C12.3254 23.3886 14.9395 21.3608 17.1519 19.974C20.0789 18.139 22.0812 17.7025 23.1716 19.355C26.2312 23.9914 26.5711 24.9368 28.4632 24.9368H31.2853L24.3509 0.827618H21.8514Z" fill="#D31C5B"/>
<path d="M43.5802 8.44747H38.8633C38.8633 8.44747 39.0439 7.20765 39.1051 6.79448C39.2644 5.71945 39.5952 4.92665 40.0929 4.41591C40.5898 3.90566 41.3893 3.64979 42.4917 3.64979H44.2656L45.6841 0.827694H42.6933C40.5426 0.827694 38.93 1.2914 37.8553 2.21864C36.7801 3.14589 36.1079 4.68662 35.7991 6.83485C35.7413 7.23834 35.5573 8.44747 35.5573 8.44747H32.7352L32.332 11.0681H35.2349L33.2996 24.9367H36.5653L38.5005 11.0681H43.2174L43.5802 8.44747Z" fill="#D31C5B"/>
<path d="M60.0296 8.44747C59.2248 8.44747 58.4697 8.93152 58.0944 9.7375L51.9261 22.4372L48.5798 8.44747H45.274L49.4265 24.8158C49.5335 25.2189 49.5878 25.6354 49.5878 26.0656C49.5878 26.7642 49.4598 27.4295 49.0435 28.0614C48.6265 28.6925 48.0418 29.2437 47.2897 29.6336C46.537 30.0229 45.5964 30.1779 44.6288 30.1779H43.1189L41.6641 33H44.7095C46.3221 33 47.5851 32.7915 48.4992 32.3752C49.4126 31.9582 50.1654 31.3402 50.7569 30.5205C51.3478 29.7004 52.0851 28.416 52.9743 26.6704C55.2967 22.1116 62.2873 8.44747 62.2873 8.44747H60.0296Z" fill="#D31C5B"/>
<path d="M69.6603 21.9333C68.7192 22.3768 67.8594 22.5985 67.0801 22.5985C66.3273 22.5985 65.6753 22.3906 65.1247 21.9736C64.5736 21.5571 64.2983 20.9727 64.2983 20.2199C64.2983 19.2523 64.5867 18.5536 65.165 18.1234C65.7427 17.6937 66.4886 17.4784 67.4027 17.4784H72.9354L72.5726 20.099C71.6856 20.8788 70.6007 21.4897 69.6603 21.9333ZM70.6374 8.44745H65.0334L63.7836 11.0681H70.1133C71.2421 11.0681 72.0686 11.2766 72.5927 11.6929C73.1167 12.1101 73.379 12.8155 73.379 13.8096C73.379 13.9709 73.3244 14.6092 73.2874 14.8578H67.4429C65.7225 14.8578 64.3045 15.2206 63.1896 15.9463C62.0739 16.6721 61.4087 17.8412 61.1938 19.4538C61.1398 19.8841 61.1133 20.1795 61.1133 20.3408C61.1133 21.8192 61.6103 23.0288 62.605 23.9692C63.5989 24.9103 64.876 25.3804 66.4351 25.3804C68.5579 25.3804 70.6638 24.3862 72.4113 22.397C72.4117 22.3963 72.4122 22.3958 72.4127 22.3953L72.5323 24.9368H75.1527C75.1527 24.9368 76.119 17.9808 76.4429 15.6476C76.5245 15.0611 76.6446 14.2042 76.6446 13.4468C76.6446 10.1143 74.642 8.44745 70.6374 8.44745Z" fill="#D31C5B"/>
</svg>
