<svg width="72" height="31" viewBox="0 0 72 31" fill="none" xmlns="http://www.w3.org/2000/svg">
<path d="M21.5741 15.3655C19.8837 14.4496 17.756 14.9605 15.2054 16.2235C12.6387 17.4943 9.64211 19.5269 6.23363 21.6327L20.493 2.76023L25.1258 19.049C23.7176 17.4515 22.4837 15.8584 21.5741 15.3655ZM20.493 -1.90735e-06C19.3451 -1.90735e-06 18.6303 0.471796 17.9597 1.36126C13.4659 7.32036 0 25.1814 0 25.1814H3.5269C5.58663 25.1814 6.98122 24.4061 9.48271 22.6315C11.5592 21.1584 14.0108 19.2567 16.0857 17.9561C18.8307 16.2352 20.7085 15.8258 21.7311 17.3756C24.6005 21.7238 24.9194 22.6104 26.6938 22.6104H29.3404L22.8371 -1.90735e-06H20.493Z" fill="white"/>
<path d="M40.8732 7.14614H36.4494C36.4494 7.14614 36.6189 5.98338 36.6763 5.5959C36.8257 4.5877 37.1359 3.84419 37.6027 3.36519C38.0687 2.88667 38.8184 2.6467 39.8523 2.6467H41.5159L42.8462 4.3869e-05H40.0414C38.0244 4.3869e-05 36.512 0.434921 35.5041 1.30452C34.4958 2.17413 33.8654 3.61908 33.5758 5.63376C33.5215 6.01217 33.349 7.14614 33.349 7.14614H30.7023L30.3242 9.60383H33.0466L31.2317 22.6103H34.2943L36.1092 9.60383H40.5329L40.8732 7.14614Z" fill="white"/>
<path d="M56.2981 7.14614C55.5433 7.14614 54.8351 7.60011 54.4832 8.35598L48.6983 20.2662L45.56 7.14614H42.4597L46.3541 22.4969C46.4545 22.875 46.5053 23.2656 46.5053 23.669C46.5053 24.3242 46.3854 24.9482 45.9949 25.5407C45.6038 26.1327 45.0555 26.6495 44.3502 27.0153C43.6442 27.3804 42.7621 27.5257 41.8546 27.5257H40.4386L39.0742 30.1724H41.9303C43.4427 30.1724 44.6272 29.9768 45.4845 29.5864C46.3411 29.1953 47.0471 28.6157 47.6018 27.847C48.156 27.0778 48.8474 25.8733 49.6814 24.2363C51.8594 19.9608 58.4154 7.14614 58.4154 7.14614H56.2981Z" fill="white"/>
<path d="M65.3282 19.7936C64.4456 20.2095 63.6392 20.4174 62.9084 20.4174C62.2024 20.4174 61.5909 20.2225 61.0745 19.8314C60.5577 19.4408 60.2996 18.8927 60.2996 18.1867C60.2996 17.2793 60.57 16.624 61.1124 16.2205C61.6541 15.8176 62.3537 15.6156 63.2109 15.6156H68.3997L68.0595 18.0733C67.2276 18.8046 66.2102 19.3776 65.3282 19.7936ZM66.2446 7.1461H60.9889L59.8168 9.60379H65.7531C66.8116 9.60379 67.5868 9.79933 68.0783 10.1898C68.5698 10.581 68.8157 11.2426 68.8157 12.1749C68.8157 12.3262 68.7645 12.9248 68.7298 13.1579H63.2486C61.6352 13.1579 60.3053 13.4982 59.2598 14.1788C58.2134 14.8594 57.5895 15.9558 57.3881 17.4682C57.3374 17.8718 57.3125 18.1489 57.3125 18.3001C57.3125 19.6866 57.7787 20.821 58.7115 21.703C59.6436 22.5856 60.8413 23.0264 62.3034 23.0264C64.2943 23.0264 66.2693 22.0941 67.9082 20.2285C67.9085 20.2278 67.909 20.2274 67.9095 20.2269L68.0216 22.6104H70.4792C70.4792 22.6104 71.3854 16.0868 71.6892 13.8986C71.7657 13.3486 71.8783 12.545 71.8783 11.8347C71.8783 8.70932 70.0002 7.1461 66.2446 7.1461Z" fill="white"/>
</svg>
