<svg width="44" height="44" viewBox="0 0 44 44" fill="none" xmlns="http://www.w3.org/2000/svg">
<circle cx="22" cy="22" r="21.5" fill="white" stroke="#D31C5B"/>
<path d="M27.3604 28.3672V30H17.123V28.5713L22.2471 22.8672C22.8773 22.1654 23.3643 21.571 23.708 21.084C24.0589 20.5898 24.3024 20.1494 24.4385 19.7627C24.5817 19.3688 24.6533 18.9678 24.6533 18.5596C24.6533 18.0439 24.5459 17.5785 24.3311 17.1631C24.1234 16.7406 23.8154 16.404 23.4072 16.1533C22.999 15.9027 22.5049 15.7773 21.9248 15.7773C21.2301 15.7773 20.6501 15.9134 20.1846 16.1855C19.7262 16.4505 19.3825 16.8229 19.1533 17.3027C18.9242 17.7826 18.8096 18.334 18.8096 18.957H16.8223C16.8223 18.0762 17.0156 17.2705 17.4023 16.54C17.7891 15.8096 18.362 15.2295 19.1211 14.7998C19.8802 14.363 20.8148 14.1445 21.9248 14.1445C22.9131 14.1445 23.7581 14.32 24.46 14.6709C25.1618 15.0146 25.6989 15.5016 26.0713 16.1318C26.4508 16.7549 26.6406 17.4854 26.6406 18.3232C26.6406 18.7816 26.5618 19.2471 26.4043 19.7197C26.2539 20.1852 26.0426 20.6507 25.7705 21.1162C25.5055 21.5817 25.194 22.04 24.8359 22.4912C24.485 22.9424 24.109 23.3864 23.708 23.8232L19.5186 28.3672H27.3604Z" fill="#D31C5B"/>
</svg>
