<svg width="100" height="100" viewBox="0 0 100 100" fill="none" xmlns="http://www.w3.org/2000/svg">
<mask id="mask0_2_2069" style="mask-type:luminance" maskUnits="userSpaceOnUse" x="3" y="15" width="95" height="69">
<path d="M98 15H3V84H98V15Z" fill="white"/>
</mask>
<g mask="url(#mask0_2_2069)">
<path d="M80.9478 16.2134L69.1774 21.0668L82.7189 57.2413L95.4553 51.773M24.946 16.2134L35.0257 23.7362L14.657 56.0926L4.20703 47.324M69.1291 21.714C65.6277 21.2546 62.0677 21.752 58.824 23.1538L55.6036 24.5613L35.9435 32.9902C36.2828 34.0212 36.8293 34.9712 37.5492 35.7813C38.269 36.5913 39.1468 37.2441 40.1281 37.6992C41.1095 38.1543 42.1734 38.4019 43.2539 38.4267C44.3345 38.4516 45.4086 38.2531 46.4096 37.8436L52.8503 35.1418L56.5214 41.4999C57.223 42.7768 58.1802 43.894 59.3326 44.7809C60.4851 45.6679 61.8078 46.3054 63.2175 46.6534C64.6273 47.0015 66.0935 47.0524 67.5238 46.8031C68.9541 46.5538 70.3175 46.0095 71.5282 45.2047M48.1969 78.8068L51.2723 81.0232C51.6997 81.3305 52.186 81.5454 52.7003 81.6543C53.2146 81.7632 53.7458 81.7636 54.2604 81.6557C54.7749 81.5477 55.2615 81.3337 55.6895 81.0271C56.1175 80.7206 56.4775 80.3281 56.7469 79.8746L56.8435 79.7289C57.4286 78.7964 57.6442 77.6772 57.4474 76.5927C57.2506 75.5082 56.6558 74.5375 55.7808 73.8724L45.9426 66.8188L60.7723 77.4802C61.1997 77.7875 61.686 78.0024 62.2004 78.1113C62.7147 78.2201 63.2459 78.2206 63.7604 78.1126C64.2749 78.0047 64.7616 77.7907 65.1895 77.4841C65.6175 77.1775 65.9776 76.7851 66.2469 76.3316L66.3435 76.186C66.9307 75.2526 67.1457 74.1311 66.9458 73.0454C66.7458 71.9597 66.1454 70.9897 65.2646 70.3294L48.7121 58.3737M53.3656 51.2877L71.2062 64.2302C72.0812 64.8953 72.6759 65.866 72.8727 66.9505C73.0695 68.035 72.8541 69.1542 72.2689 70.0867L72.1723 70.2323C71.903 70.6859 71.5429 71.0783 71.115 71.3849C70.687 71.6915 70.2003 71.9055 69.6858 72.0134C69.1713 72.1214 68.6401 72.1209 68.1258 72.0121C67.6114 71.9032 67.1252 71.6884 66.6977 71.381L48.7283 58.4385M15.2206 55.2028C16.2868 57.4918 17.7478 59.5731 19.5359 61.3505M72.3494 63.8581C72.9459 63.7969 73.5204 63.5987 74.0285 63.2789C74.5366 62.9591 74.9648 62.5263 75.2799 62.0138V61.8682C75.8688 60.9368 76.0864 59.8165 75.8894 58.731C75.6925 57.6454 75.0953 56.6744 74.2172 56.0117L65.4901 47.2269M45.846 28.6544L44.8156 27.9102C41.8355 25.7466 38.3206 24.4482 34.6554 24.1569M82.3807 56.5133C80.2513 59.3589 77.4135 61.5909 74.1528 62.9845M46.2003 81.0556L49.4206 76.2021C50.0463 75.2686 50.3024 74.1339 50.1385 73.0205C49.9747 71.9072 49.4029 70.8954 48.535 70.1838C48.1128 69.8494 47.6257 69.6072 47.105 69.4727C46.5843 69.3382 46.0414 69.3143 45.511 69.4026C44.9806 69.491 44.4743 69.6895 44.0246 69.9856C43.5749 70.2817 43.1918 70.6688 42.8994 71.1222L39.6791 75.9756C39.0534 76.9091 38.7973 78.0438 38.9611 79.1572C39.1249 80.2706 39.6969 81.2823 40.5647 81.9939C40.9909 82.3237 41.4807 82.5608 42.003 82.6902C42.5252 82.8196 43.0686 82.8386 43.5985 82.7458C44.1284 82.653 44.6333 82.4504 45.0812 82.1511C45.5291 81.8518 45.9102 81.4622 46.2003 81.007V81.0556ZM39.7596 75.9918L45.2502 67.9027C45.8851 66.9735 46.1482 65.8381 45.987 64.7227C45.8259 63.6073 45.2524 62.5939 44.3808 61.8844C43.9585 61.55 43.4715 61.3078 42.9507 61.1733C42.43 61.0388 41.8872 61.0149 41.3568 61.1032C40.8264 61.1915 40.3201 61.3901 39.8705 61.6862C39.4208 61.9822 39.0375 62.3694 38.7452 62.8228L33.2545 70.9118C32.6251 71.8442 32.3669 72.9798 32.5308 74.0943C32.6948 75.2087 33.2692 76.2207 34.1401 76.9301C34.564 77.2469 35.0482 77.4727 35.5626 77.5933C36.077 77.7139 36.6106 77.7267 37.1302 77.6311C37.6498 77.5355 38.1443 77.3334 38.5828 77.0375C39.0213 76.7415 39.3945 76.3581 39.6791 75.9109L39.7596 75.9918ZM33.3189 70.9118L41.0477 59.5871C41.6781 58.6523 41.9368 57.514 41.7729 56.3968C41.609 55.2797 41.0343 54.2649 40.1621 53.5526C39.7393 53.2217 39.2525 52.9828 38.7328 52.8511C38.2131 52.7193 37.6719 52.6976 37.1434 52.7874C36.6149 52.8772 36.1107 53.0764 35.663 53.3725C35.2153 53.6685 34.8338 54.0549 34.5427 54.5071L26.7978 65.8319C26.172 66.7654 25.9159 67.9001 26.0797 69.0134C26.2436 70.1268 26.8155 71.1385 27.6833 71.8502C28.1046 72.1583 28.5835 72.3776 29.0912 72.495C29.599 72.6123 30.1252 72.6253 30.6381 72.5331C31.151 72.4409 31.64 72.2455 32.0758 71.9585C32.5116 71.6716 32.8851 71.299 33.174 70.8633L33.3189 70.9118ZM26.8782 65.8319L32.3689 57.7428C33.0037 56.8136 33.2668 55.6782 33.1057 54.5628C32.9445 53.4474 32.371 52.434 31.4994 51.7245C31.0772 51.3901 30.5901 51.1479 30.0694 51.0134C29.5487 50.8789 29.0058 50.855 28.4754 50.9433C27.945 51.0316 27.4388 51.2302 26.9891 51.5263C26.5394 51.8223 26.1561 52.2095 25.8638 52.6628L20.3731 60.7519C19.74 61.683 19.4796 62.8197 19.6438 63.9352C19.8079 65.0507 20.3846 66.063 21.2588 66.7702C21.6761 67.0651 22.1476 67.2735 22.6459 67.3835C23.1443 67.4936 23.6594 67.5029 24.1614 67.4111C24.6633 67.3193 25.1421 67.1281 25.5698 66.8486C25.9975 66.5692 26.3656 66.2071 26.6528 65.7833L26.8782 65.8319Z" stroke="#454545" stroke-width="1.5" stroke-linecap="round" stroke-linejoin="round"/>
</g>
<path d="M89.2764 18.6656L74.0977 23.9169L82.8102 49.3402L97.9889 44.0889L89.2764 18.6656Z" fill="#D40054"/>
</svg>
