<svg width="80" height="80" viewBox="0 0 80 80" fill="none" xmlns="http://www.w3.org/2000/svg">
<g clip-path="url(#clip0_21_5219)">
<mask id="mask0_21_5219" style="mask-type:luminance" maskUnits="userSpaceOnUse" x="10" y="8" width="60" height="65">
<path d="M70 8H10V72.22H70V8Z" fill="white"/>
</mask>
<g mask="url(#mask0_21_5219)">
<path d="M69.15 72.2201H10.85C10.7388 72.2214 10.6285 72.2006 10.5255 72.159C10.4224 72.1174 10.3286 72.0557 10.2496 71.9776C10.1705 71.8995 10.1077 71.8064 10.0649 71.7039C10.022 71.6013 9.99999 71.4912 10 71.3801V33.6701C10.0228 33.4593 10.1228 33.2643 10.2806 33.1227C10.4384 32.981 10.6429 32.9027 10.855 32.9027C11.067 32.9027 11.2716 32.981 11.4294 33.1227C11.5873 33.2643 11.6872 33.4593 11.71 33.6701V70.5701H68.29V33.6701C68.2952 33.4455 68.3881 33.2318 68.5488 33.0749C68.7095 32.9179 68.9254 32.83 69.15 32.8301C69.3737 32.8301 69.5884 32.9183 69.7476 33.0755C69.9067 33.2328 69.9974 33.4464 70 33.6701V71.4101C70 71.5212 69.978 71.6313 69.9351 71.7339C69.8923 71.8364 69.8295 71.9295 69.7504 72.0076C69.6714 72.0857 69.5776 72.1474 69.4745 72.189C69.3715 72.2306 69.2612 72.2514 69.15 72.2501" fill="black"/>
<path d="M69.1555 72.22C68.9881 72.223 68.8239 72.1741 68.6854 72.08L40.0055 53.51L11.3255 72.08C11.2323 72.1419 11.1278 72.1849 11.018 72.2063C10.9082 72.2277 10.7953 72.2273 10.6856 72.205C10.576 72.1827 10.4719 72.139 10.3792 72.0764C10.2865 72.0137 10.2071 71.9334 10.1455 71.84C10.0845 71.7478 10.0425 71.6444 10.0221 71.5357C10.0017 71.4271 10.0032 71.3155 10.0264 71.2074C10.0497 71.0994 10.0944 70.9971 10.1577 70.9065C10.2211 70.8159 10.3019 70.7389 10.3955 70.68L39.5055 51.81C39.6465 51.7223 39.8093 51.6758 39.9754 51.6758C40.1415 51.6758 40.3044 51.7223 40.4455 51.81L69.6154 70.67C69.709 70.7289 69.7898 70.8059 69.8532 70.8965C69.9165 70.9871 69.9612 71.0894 69.9845 71.1974C70.0077 71.3055 70.0092 71.4171 69.9888 71.5257C69.9684 71.6344 69.9264 71.7378 69.8654 71.83C69.7871 71.9465 69.6815 72.042 69.5577 72.1082C69.4339 72.1745 69.2958 72.2094 69.1555 72.21" fill="#3F3F3F"/>
<path d="M31.5617 47.89C31.3981 47.888 31.2386 47.8394 31.1017 47.75L10.3917 34.34C10.2971 34.2821 10.2152 34.2055 10.151 34.115C10.0869 34.0245 10.0418 33.922 10.0184 33.8135C9.99503 33.7051 9.99391 33.593 10.0151 33.4841C10.0363 33.3752 10.0794 33.2718 10.1417 33.18C10.2033 33.0866 10.2827 33.0063 10.3754 32.9437C10.4681 32.881 10.5722 32.8373 10.6819 32.815C10.7915 32.7927 10.9045 32.7923 11.0142 32.8137C11.124 32.8352 11.2285 32.8781 11.3217 32.94L32.0317 46.35C32.1263 46.4079 32.2081 46.4845 32.2723 46.575C32.3365 46.6655 32.3816 46.768 32.4049 46.8765C32.4283 46.9849 32.4295 47.097 32.4083 47.2059C32.3871 47.3148 32.344 47.4182 32.2817 47.51C32.2024 47.6279 32.0952 47.7243 31.9695 47.7906C31.8439 47.8569 31.7037 47.8911 31.5617 47.89Z" fill="#3F3F3F"/>
<path d="M69.15 72.22H10.85C10.7388 72.2214 10.6285 72.2006 10.5255 72.159C10.4224 72.1174 10.3286 72.0557 10.2496 71.9776C10.1705 71.8994 10.1077 71.8064 10.0649 71.7038C10.022 71.6013 9.99999 71.4912 10 71.38V33.67C10.0016 33.5578 10.0254 33.447 10.07 33.3441C10.1146 33.2411 10.1792 33.1479 10.26 33.07L18.81 24.92C18.9706 24.7637 19.1858 24.6761 19.41 24.6761C19.6341 24.6761 19.8494 24.7637 20.01 24.92C20.0895 24.9974 20.1528 25.0899 20.1959 25.1921C20.2391 25.2943 20.2613 25.4041 20.2613 25.515C20.2613 25.626 20.2391 25.7358 20.1959 25.838C20.1528 25.9402 20.0895 26.0327 20.01 26.11L11.73 34.01V70.55H68.31V33.67C68.3152 33.4454 68.4081 33.2318 68.5688 33.0748C68.7296 32.9178 68.9453 32.83 69.17 32.83C69.3937 32.83 69.6084 32.9182 69.7675 33.0755C69.9266 33.2327 70.0174 33.4463 70.02 33.67V71.41C70.02 71.5212 69.998 71.6313 69.9551 71.7338C69.9123 71.8364 69.8495 71.9294 69.7704 72.0076C69.6914 72.0857 69.5976 72.1474 69.4945 72.189C69.3914 72.2306 69.2811 72.2514 69.17 72.25" fill="#3F3F3F"/>
<path d="M48.4398 47.8899C48.2978 47.891 48.1576 47.8569 48.032 47.7906C47.9063 47.7242 47.7991 47.6278 47.7198 47.5099C47.6575 47.4182 47.6144 47.3147 47.5932 47.2058C47.572 47.0969 47.5732 46.9849 47.5966 46.8764C47.6199 46.768 47.665 46.6654 47.7292 46.5749C47.7933 46.4844 47.8752 46.4079 47.9698 46.3499L67.6798 33.5799L57.9498 26.1599C57.8613 26.0932 57.7869 26.0095 57.7313 25.9136C57.6756 25.8177 57.6398 25.7116 57.6258 25.6016C57.6118 25.4916 57.62 25.3799 57.6499 25.2732C57.6798 25.1664 57.7307 25.0667 57.7998 24.9799C57.938 24.8027 58.1408 24.6874 58.3638 24.6593C58.5868 24.6312 58.8119 24.6925 58.9898 24.8299L69.6698 32.9799C69.7774 33.0589 69.8638 33.1632 69.9214 33.2835C69.979 33.4039 70.0059 33.5367 69.9998 33.6699C69.9926 33.8045 69.9534 33.9355 69.8856 34.052C69.8178 34.1685 69.7233 34.2672 69.6098 34.34L48.8998 47.7499C48.7629 47.8394 48.6033 47.888 48.4398 47.8899Z" fill="#3F3F3F"/>
<path d="M42.9218 22.72C42.9218 23.1155 42.8046 23.5022 42.5848 23.8311C42.365 24.16 42.0527 24.4164 41.6872 24.5677C41.3218 24.7191 40.9197 24.7587 40.5317 24.6815C40.1437 24.6044 39.7874 24.4139 39.5077 24.1342C39.228 23.8545 39.0375 23.4981 38.9603 23.1102C38.8831 22.7222 38.9228 22.3201 39.0741 21.9546C39.2255 21.5892 39.4818 21.2768 39.8107 21.057C40.1396 20.8373 40.5263 20.72 40.9218 20.72C41.4523 20.72 41.961 20.9307 42.3361 21.3058C42.7112 21.6808 42.9218 22.1895 42.9218 22.72Z" fill="#D40054"/>
<path d="M38.0703 22.72C38.0703 23.1155 37.953 23.5022 37.7332 23.8311C37.5134 24.16 37.2011 24.4164 36.8357 24.5677C36.4702 24.7191 36.0681 24.7587 35.6801 24.6815C35.2921 24.6044 34.9358 24.4139 34.6561 24.1342C34.3764 23.8545 34.1859 23.4981 34.1088 23.1102C34.0316 22.7222 34.0711 22.3201 34.2225 21.9546C34.3739 21.5892 34.6303 21.2768 34.9592 21.057C35.2881 20.8373 35.6747 20.72 36.0703 20.72C36.6007 20.72 37.1094 20.9307 37.4845 21.3058C37.8596 21.6808 38.0703 22.1895 38.0703 22.72Z" fill="#D40054"/>
<path d="M38.5747 17.1C34.7747 17.1 32.5047 19.4301 32.5047 23.3401C32.5047 27.6901 35.2347 31.2401 38.5747 31.2401C41.9147 31.2401 44.6447 27.6901 44.6447 23.3401C44.6447 19.4301 42.3747 17.1 38.5747 17.1ZM38.5747 32.91C34.2947 32.91 30.8047 28.6201 30.8047 23.3401C30.8047 18.5301 33.8547 15.4301 38.5747 15.4301C43.2947 15.4301 46.3547 18.5301 46.3547 23.3401C46.3547 28.6201 42.8647 32.91 38.5747 32.91Z" fill="#D40054"/>
<path d="M26.735 30.6701C26.4763 30.6684 26.2206 30.7251 25.9869 30.8359C25.7532 30.9467 25.5475 31.1088 25.385 31.3101C25.2137 31.5202 25.0948 31.7679 25.0381 32.0329C24.9814 32.298 24.9885 32.5727 25.0588 32.8345C25.1291 33.0962 25.2607 33.3375 25.4426 33.5384C25.6245 33.7393 25.8515 33.8942 26.105 33.9901C26.4921 34.1301 26.8341 34.3723 27.0947 34.6909C27.3553 35.0096 27.5247 35.3929 27.585 35.8001C27.6544 36.2356 27.8912 36.6268 28.245 36.8901C28.5068 37.0923 28.8209 37.2157 29.1503 37.2458C29.4797 37.2759 29.8109 37.2115 30.105 37.0601C30.4461 36.8943 30.7219 36.6191 30.8886 36.2785C31.0553 35.9378 31.1034 35.5512 31.0251 35.1801C30.9282 34.7573 30.9518 34.3157 31.0932 33.9057C31.2346 33.4956 31.4881 33.1333 31.825 32.8601L34.0251 31.1101C33.2763 30.4417 32.6472 29.6503 32.165 28.7701L29.925 30.5501C29.5757 30.8132 29.1619 30.9772 28.7271 31.0247C28.2924 31.0722 27.853 31.0015 27.455 30.8201C27.2272 30.7234 26.9825 30.6725 26.735 30.6701ZM29.325 38.9201C28.5563 38.9238 27.8078 38.6742 27.195 38.2101C26.5031 37.6829 26.0411 36.9093 25.9051 36.0501C25.8895 35.9397 25.844 35.8356 25.7735 35.7492C25.703 35.6628 25.6101 35.5974 25.505 35.5601C24.6869 35.2499 24.0157 34.6429 23.625 33.8601C23.3426 33.2759 23.2348 32.6226 23.3147 31.9787C23.3945 31.3348 23.6585 30.7276 24.075 30.2301C24.5584 29.6513 25.2175 29.2463 25.9522 29.0766C26.6869 28.9069 27.4569 28.9819 28.145 29.2901C28.2573 29.345 28.3821 29.3693 28.5067 29.3605C28.6314 29.3517 28.7515 29.3102 28.855 29.2401L31.935 26.8001C32.0368 26.7167 32.1571 26.6586 32.2857 26.6308C32.4144 26.603 32.5478 26.6062 32.675 26.6401C32.8034 26.6705 32.9228 26.7307 33.0235 26.8158C33.1243 26.9009 33.2036 27.0086 33.255 27.1301C33.7843 28.4532 34.6922 29.5907 35.865 30.4001C35.9764 30.4718 36.0691 30.5691 36.1352 30.6839C36.2013 30.7988 36.239 30.9277 36.245 31.0601C36.2525 31.1916 36.2283 31.3229 36.1743 31.443C36.1204 31.5631 36.0383 31.6684 35.935 31.7501L32.935 34.1601C32.8424 34.2441 32.7747 34.352 32.7394 34.472C32.7041 34.5919 32.7026 34.7193 32.735 34.8401C32.8881 35.5705 32.7945 36.3311 32.4687 37.0025C32.1429 37.674 31.6035 38.2183 30.935 38.5501C30.4483 38.7958 29.9102 38.9225 29.365 38.9201" fill="#D40054"/>
<path d="M45.0431 18.54C45.6211 19.4239 46.0093 20.4183 46.1831 21.46L47.1831 20.63C47.532 20.3624 47.9472 20.195 48.3842 20.1457C48.8211 20.0963 49.2632 20.167 49.663 20.35C50.0138 20.5032 50.4047 20.5392 50.7776 20.4528C51.1504 20.3663 51.4855 20.162 51.7331 19.87C51.9396 19.6173 52.07 19.311 52.1089 18.987C52.1479 18.6629 52.0938 18.3345 51.9531 18.04C51.7447 17.6339 51.3858 17.3253 50.9531 17.18C50.5666 17.0391 50.2251 16.7966 49.9647 16.4781C49.7043 16.1596 49.5344 15.7768 49.473 15.37C49.4007 14.9356 49.1645 14.5454 48.8131 14.28C48.5513 14.0778 48.2372 13.9544 47.9078 13.9243C47.5784 13.8942 47.2472 13.9586 46.9531 14.11C46.6132 14.2772 46.3384 14.5525 46.1718 14.8928C46.0053 15.2331 45.9566 15.619 46.0331 15.99C46.1323 16.4119 46.1108 16.8532 45.9711 17.2634C45.8314 17.6737 45.5791 18.0364 45.2431 18.31L45.0431 18.54ZM45.4931 23.92C45.3682 23.9246 45.2443 23.8971 45.1331 23.84C44.9879 23.7772 44.8636 23.6741 44.775 23.543C44.6865 23.4119 44.6372 23.2582 44.6331 23.1C44.6741 21.5926 44.1738 20.1204 43.223 18.95C43.1467 18.8666 43.0884 18.7683 43.0518 18.6613C43.0153 18.5543 43.0013 18.4408 43.0106 18.3281C43.02 18.2154 43.0526 18.1059 43.1064 18.0064C43.1602 17.9069 43.234 17.8196 43.3231 17.75L44.2631 17.01C44.3549 16.9256 44.4214 16.8172 44.4549 16.6971C44.4885 16.5769 44.4879 16.4498 44.4531 16.33C44.3017 15.5997 44.3962 14.8398 44.7218 14.1687C45.0473 13.4977 45.5857 12.9532 46.2531 12.62C46.8417 12.3251 47.501 12.2006 48.1566 12.2607C48.8122 12.3208 49.4379 12.563 49.9631 12.96C50.6504 13.4913 51.1112 14.263 51.2531 15.12C51.2652 15.2316 51.3094 15.3374 51.3804 15.4243C51.4514 15.5113 51.5462 15.5758 51.6531 15.61C52.4685 15.9206 53.1364 16.5278 53.5231 17.31C53.8055 17.8942 53.9132 18.5474 53.8334 19.1914C53.7536 19.8353 53.4896 20.4425 53.0731 20.94C52.5971 21.5254 51.9432 21.9398 51.2106 22.1202C50.478 22.3006 49.7065 22.2374 49.0131 21.94C48.9043 21.8748 48.7799 21.8403 48.6531 21.8403C48.5263 21.8403 48.4018 21.8748 48.2931 21.94L46.0231 23.75C45.8718 23.8681 45.685 23.9316 45.4931 23.93" fill="#D40054"/>
<path d="M43.1282 31.0999L45.3282 32.8499C45.6643 33.1236 45.9166 33.4863 46.0563 33.8965C46.196 34.3068 46.2174 34.7481 46.1182 35.1699C46.0428 35.5423 46.092 35.9291 46.2582 36.2707C46.4245 36.6123 46.6986 36.8897 47.0382 37.06C47.3342 37.2065 47.6652 37.2672 47.9939 37.2354C48.3226 37.2036 48.6359 37.0805 48.8982 36.8799C49.252 36.6166 49.4889 36.2255 49.5582 35.7899C49.6196 35.3831 49.7894 35.0004 50.0498 34.6818C50.3102 34.3633 50.6517 34.1209 51.0382 33.9799C51.294 33.8869 51.5238 33.7338 51.7081 33.5336C51.8925 33.3333 52.026 33.0917 52.0975 32.8291C52.1691 32.5664 52.1765 32.2905 52.1192 32.0244C52.0619 31.7583 51.9415 31.5099 51.7682 31.3C51.5229 31.005 51.1884 30.7977 50.8151 30.7093C50.4417 30.6209 50.0498 30.6563 49.6982 30.81C49.2984 30.993 48.8563 31.0636 48.4194 31.0143C47.9824 30.965 47.5671 30.7975 47.2182 30.5299L44.9882 28.7599C44.503 29.6382 43.8743 30.4291 43.1282 31.0999ZM47.8282 38.9099C47.2797 38.9136 46.7381 38.7868 46.2482 38.5399C45.5809 38.2068 45.0425 37.6623 44.7169 36.9912C44.3913 36.3202 44.2969 35.5603 44.4482 34.83C44.483 34.7102 44.4836 34.583 44.4501 34.4629C44.4165 34.3427 44.3501 34.2344 44.2582 34.15L41.2582 31.74C41.1538 31.6588 41.0702 31.5538 41.0145 31.4338C40.9589 31.3137 40.9327 31.1821 40.9382 31.05C40.9488 30.9187 40.9884 30.7914 41.0541 30.6772C41.1198 30.5631 41.21 30.465 41.3182 30.3899C42.4968 29.5842 43.4089 28.4459 43.9382 27.12C43.9919 27.0078 44.0701 26.9091 44.167 26.8312C44.2639 26.7533 44.3771 26.6982 44.4982 26.6699C44.627 26.636 44.762 26.6328 44.8923 26.6605C45.0225 26.6883 45.1445 26.7464 45.2482 26.8299L48.3182 29.27C48.4236 29.34 48.5454 29.3814 48.6716 29.3902C48.7978 29.3989 48.9241 29.3747 49.0382 29.3199C49.7267 29.0134 50.4962 28.9394 51.2305 29.1089C51.9648 29.2785 52.6239 29.6825 53.1082 30.2599C53.524 30.76 53.7866 31.3695 53.8647 32.0151C53.9427 32.6607 53.8328 33.3152 53.5482 33.9C53.1579 34.6772 52.4908 35.2801 51.6782 35.59C51.5725 35.6263 51.479 35.6914 51.4084 35.7779C51.3377 35.8645 51.2927 35.9691 51.2782 36.08C51.1422 36.9391 50.6801 37.7128 49.9882 38.24C49.3754 38.7041 48.6269 38.9536 47.8582 38.9499" fill="#D40054"/>
<path d="M28.5016 20.13C29.0246 20.1274 29.5327 20.3038 29.9416 20.63L30.9915 21.4601C31.1608 20.417 31.5493 19.4218 32.1316 18.54L31.8416 18.3101C31.5047 18.0368 31.2511 17.6746 31.1097 17.2645C30.9683 16.8544 30.9447 16.4129 31.0415 15.99C31.1199 15.619 31.0719 15.2323 30.9052 14.8917C30.7385 14.551 30.4626 14.2759 30.1216 14.11C29.8274 13.9586 29.4963 13.8942 29.1668 13.9243C28.8374 13.9544 28.5234 14.0778 28.2616 14.28C27.9101 14.5455 27.6739 14.9356 27.6015 15.3701C27.5412 15.7773 27.3718 16.1605 27.1112 16.4792C26.8507 16.7979 26.5087 17.0401 26.1216 17.1801C25.7091 17.3349 25.3724 17.643 25.1816 18.04C25.0359 18.3333 24.9791 18.6628 25.0182 18.9879C25.0572 19.313 25.1906 19.6197 25.4016 19.8701C25.6455 20.1639 25.9789 20.3698 26.3509 20.4565C26.7228 20.5431 27.1129 20.5058 27.4616 20.35C27.7781 20.2143 28.1174 20.1396 28.4616 20.13M31.6416 23.92C31.4468 23.92 31.2573 23.8569 31.1015 23.74L28.8316 21.9301C28.7243 21.8657 28.6016 21.8317 28.4765 21.8317C28.3515 21.8317 28.2288 21.8657 28.1216 21.9301C27.4266 22.2282 26.6535 22.2919 25.9192 22.1114C25.1848 21.931 24.5292 21.5163 24.0515 20.9301C23.635 20.4325 23.3711 19.8253 23.2912 19.1814C23.2114 18.5375 23.3191 17.8842 23.6015 17.3C23.9922 16.5172 24.6635 15.9102 25.4815 15.6C25.5866 15.5627 25.6795 15.4973 25.75 15.4109C25.8206 15.3246 25.8661 15.2205 25.8816 15.11C26.0196 14.2516 26.4812 13.4786 27.1715 12.95C27.6952 12.5539 28.3192 12.3122 28.9731 12.2521C29.6269 12.192 30.2845 12.316 30.8716 12.61C31.54 12.9418 32.0795 13.4862 32.4052 14.1576C32.731 14.829 32.8247 15.5896 32.6715 16.32C32.6391 16.4408 32.6407 16.5682 32.6759 16.6882C32.7112 16.8081 32.7789 16.916 32.8716 17L33.8015 17.74C33.8893 17.809 33.962 17.8951 34.0154 17.9931C34.0687 18.0911 34.1014 18.199 34.1115 18.3101C34.1225 18.4231 34.1105 18.5373 34.0761 18.6455C34.0418 18.7538 33.9857 18.854 33.9115 18.94C32.9572 20.1091 32.4534 21.5814 32.4915 23.0901C32.4871 23.2469 32.4389 23.3992 32.3523 23.53C32.2657 23.6608 32.1442 23.7648 32.0016 23.83C31.8897 23.8851 31.7662 23.9125 31.6416 23.91" fill="#D40054"/>
<path d="M58.5047 41.39C58.3936 41.3913 58.2832 41.3706 58.1802 41.329C58.0771 41.2874 57.9833 41.2257 57.9042 41.1476C57.8252 41.0694 57.7624 40.9763 57.7196 40.8738C57.6768 40.7712 57.6547 40.6612 57.6547 40.55V9.67001H20.2547V39.17C20.2547 39.3954 20.1651 39.6117 20.0057 39.7711C19.8463 39.9305 19.6302 40.02 19.4047 40.02C19.1793 40.02 18.9631 39.9305 18.8036 39.7711C18.6442 39.6117 18.5547 39.3954 18.5547 39.17V8.84003C18.5573 8.61633 18.6481 8.40267 18.8072 8.24542C18.9663 8.08817 19.181 7.99998 19.4047 8H58.5047C58.7284 7.99998 58.9431 8.08817 59.1022 8.24542C59.2614 8.40267 59.352 8.61633 59.3547 8.84003V40.55C59.3547 40.6612 59.3326 40.7712 59.2898 40.8738C59.247 40.9763 59.1842 41.0694 59.1052 41.1476C59.0261 41.2257 58.9323 41.2874 58.8292 41.329C58.7262 41.3706 58.6158 41.3913 58.5047 41.39Z" fill="#3F3F3F"/>
</g>
</g>
<defs>
<clipPath id="clip0_21_5219">
<rect width="60" height="64.22" fill="white" transform="translate(10 8)"/>
</clipPath>
</defs>
</svg>
