<svg width="100" height="100" viewBox="0 0 100 100" fill="none" xmlns="http://www.w3.org/2000/svg">
<g clip-path="url(#clip0_2_1437)">
<mask id="mask0_2_1437" style="mask-type:luminance" maskUnits="userSpaceOnUse" x="8" y="7" width="84" height="87">
<path d="M92 7H8V94H92V7Z" fill="white"/>
</mask>
<g mask="url(#mask0_2_1437)">
<path d="M36.8706 38.5788C37.554 38.6076 38.2304 38.4319 38.8126 38.0747C39.3948 37.7174 39.8561 37.1949 40.1372 36.5744C40.4183 35.9538 40.5063 35.2638 40.3897 34.593C40.2732 33.9223 39.9575 33.3017 39.4833 32.8112C39.0091 32.3206 38.3983 31.9825 37.7293 31.8406C37.0604 31.6986 36.3641 31.7593 35.73 32.0147C35.096 32.2701 34.5534 32.7085 34.172 33.2736C33.7907 33.8387 33.5881 34.5044 33.5904 35.1851C33.5749 36.0675 33.9113 36.9201 34.5261 37.5561C35.1409 38.1922 35.984 38.56 36.8706 38.5788Z" fill="#D40054"/>
<path d="M30.3103 52.5563C30.993 52.585 31.6688 52.4098 32.2507 52.0532C32.8326 51.6965 33.2939 51.1748 33.5754 50.5552C33.857 49.9355 33.9457 49.2462 33.8303 48.5759C33.715 47.9056 33.4008 47.285 32.9281 46.7938C32.4554 46.3027 31.8458 45.9636 31.1779 45.82C30.5099 45.6764 29.814 45.735 29.1797 45.9882C28.5455 46.2413 28.0019 46.6776 27.6188 47.2407C27.2357 47.8039 27.0307 48.4682 27.0301 49.1482C27.0205 49.5864 27.0977 50.0221 27.2574 50.4305C27.4171 50.839 27.6561 51.2121 27.9607 51.5286C28.2653 51.8451 28.6296 52.0987 29.0327 52.275C29.4359 52.4514 29.87 52.547 30.3103 52.5563Z" fill="#D40054"/>
<path d="M50.0073 38.5788C50.6907 38.6076 51.3671 38.4319 51.9493 38.0747C52.5315 37.7174 52.9929 37.1949 53.274 36.5744C53.5551 35.9538 53.6431 35.2638 53.5265 34.593C53.41 33.9223 53.0943 33.3017 52.6201 32.8112C52.146 32.3206 51.535 31.9825 50.866 31.8406C50.1971 31.6986 49.5008 31.7593 48.8668 32.0147C48.2327 32.2701 47.6901 32.7085 47.3087 33.2736C46.9274 33.8387 46.7248 34.5044 46.7271 35.1851C46.7116 36.0675 47.0481 36.9201 47.6629 37.5561C48.2776 38.1922 49.1207 38.56 50.0073 38.5788Z" fill="#D40054"/>
<path d="M43.4459 52.5563C44.1282 52.5821 44.8026 52.4044 45.3826 52.046C45.9627 51.6875 46.4219 51.1647 46.7011 50.5447C46.9804 49.9246 47.067 49.2357 46.9499 48.5663C46.8328 47.8969 46.5174 47.2776 46.044 46.7879C45.5707 46.2982 44.9609 45.9606 44.2933 45.8182C43.6257 45.6759 42.9305 45.7354 42.2971 45.9891C41.6637 46.2428 41.121 46.6792 40.7387 47.2421C40.3563 47.805 40.1517 48.4688 40.1512 49.1483C40.1416 49.5876 40.2194 50.0245 40.38 50.4338C40.5405 50.8432 40.7807 51.2169 41.0869 51.5336C41.393 51.8503 41.759 52.1037 42.1639 52.2792C42.5687 52.4547 43.0044 52.5489 43.4459 52.5563Z" fill="#D40054"/>
<path d="M36.8706 66.5338C37.5534 66.5625 38.2291 66.3873 38.811 66.0307C39.3929 65.6741 39.8542 65.1524 40.1357 64.5327C40.4172 63.913 40.5061 63.2237 40.3907 62.5535C40.2753 61.8832 39.961 61.2625 39.4883 60.7714C39.0156 60.2803 38.4061 59.9411 37.7381 59.7975C37.0702 59.6539 36.3744 59.7125 35.7401 59.9657C35.1058 60.2189 34.5622 60.6551 34.1791 61.2183C33.796 61.7814 33.591 62.4457 33.5904 63.1258C33.5748 64.0095 33.9109 64.8636 34.5253 65.502C35.1397 66.1403 35.9827 66.5112 36.8706 66.5338Z" fill="#D40054"/>
<path d="M63.1265 38.5788C63.8099 38.6076 64.4862 38.4319 65.0684 38.0747C65.6506 37.7174 66.112 37.1949 66.3931 36.5744C66.6742 35.9538 66.7621 35.2638 66.6456 34.593C66.529 33.9223 66.2133 33.3017 65.7392 32.8112C65.265 32.3206 64.6541 31.9825 63.9852 31.8406C63.3162 31.6986 62.6199 31.7593 61.9859 32.0147C61.3519 32.2701 60.8092 32.7085 60.4279 33.2736C60.0465 33.8387 59.8439 34.5044 59.8462 35.1851C59.8307 36.0675 60.1672 36.9201 60.782 37.5561C61.3968 38.1922 62.2398 38.56 63.1265 38.5788Z" fill="#D40054"/>
<path d="M56.6111 52.5563C57.2939 52.585 57.9697 52.4098 58.5516 52.0532C59.1335 51.6965 59.5948 51.1748 59.8763 50.5552C60.1578 49.9355 60.2466 49.2462 60.1312 48.5759C60.0158 47.9056 59.7016 47.285 59.2289 46.7938C58.7562 46.3027 58.1467 45.9636 57.4787 45.82C56.8108 45.6764 56.1149 45.735 55.4806 45.9882C54.8464 46.2413 54.3028 46.6776 53.9197 47.2407C53.5366 47.8039 53.3315 48.4682 53.3309 49.1482C53.3213 49.5864 53.3986 50.0221 53.5582 50.4305C53.7179 50.839 53.9569 51.2121 54.2615 51.5286C54.5662 51.8451 54.9304 52.0987 55.3336 52.275C55.7367 52.4514 56.1708 52.547 56.6111 52.5563Z" fill="#D40054"/>
<path d="M50.0057 66.5338C50.6884 66.5625 51.3642 66.3873 51.9461 66.0307C52.528 65.6741 52.9893 65.1524 53.2708 64.5327C53.5524 63.913 53.6411 63.2237 53.5257 62.5535C53.4104 61.8832 53.0962 61.2625 52.6235 60.7714C52.1508 60.2803 51.5412 59.9411 50.8733 59.7975C50.2053 59.6539 49.5094 59.7125 48.8751 59.9657C48.2409 60.2189 47.6973 60.6551 47.3142 61.2183C46.9311 61.7814 46.726 62.4457 46.7254 63.1258C46.7158 63.5639 46.7931 63.9996 46.9528 64.4081C47.1125 64.8165 47.3515 65.1896 47.6561 65.5061C47.9607 65.8226 48.325 66.0762 48.7281 66.2526C49.1313 66.4289 49.5654 66.5245 50.0057 66.5338Z" fill="#D40054"/>
<path d="M69.6872 52.5563C70.37 52.585 71.0458 52.4098 71.6277 52.0532C72.2095 51.6965 72.6709 51.1748 72.9524 50.5552C73.2339 49.9355 73.3227 49.2462 73.2073 48.5759C73.0919 47.9056 72.7777 47.285 72.305 46.7938C71.8323 46.3027 71.2228 45.9636 70.5548 45.82C69.8869 45.6764 69.1909 45.735 68.5567 45.9882C67.9224 46.2413 67.3789 46.6776 66.9958 47.2407C66.6127 47.8039 66.4077 48.4682 66.407 49.1482C66.3975 49.5864 66.4747 50.0221 66.6343 50.4305C66.794 50.839 67.033 51.2121 67.3376 51.5286C67.6422 51.8451 68.0065 52.0987 68.4097 52.275C68.8128 52.4514 69.2469 52.547 69.6872 52.5563Z" fill="#D40054"/>
<path d="M63.1268 66.5338C63.8095 66.5625 64.4853 66.3873 65.0672 66.0307C65.6491 65.6741 66.1104 65.1524 66.3919 64.5327C66.6734 63.913 66.7622 63.2237 66.6468 62.5535C66.5315 61.8832 66.2172 61.2625 65.7445 60.7714C65.2718 60.2803 64.6623 59.9411 63.9944 59.7975C63.3264 59.6539 62.6305 59.7125 61.9962 59.9657C61.362 60.2189 60.8183 60.6551 60.4352 61.2183C60.0521 61.7814 59.8471 62.4457 59.8465 63.1258C59.8369 63.5639 59.9142 63.9996 60.0739 64.4081C60.2335 64.8165 60.4725 65.1896 60.7771 65.5061C61.0817 65.8226 61.4461 66.0762 61.8492 66.2526C62.2524 66.4289 62.6865 66.5245 63.1268 66.5338Z" fill="#D40054"/>
<path d="M36.8716 61.3714C36.3276 61.3513 35.79 61.4935 35.3277 61.7797C34.8655 62.0658 34.4997 62.483 34.2774 62.9775C34.0551 63.472 33.9864 64.0213 34.0801 64.555C34.1738 65.0887 34.4255 65.5823 34.8031 65.9726C35.1807 66.3628 35.6669 66.6318 36.1993 66.7451C36.7317 66.8584 37.286 66.8108 37.7909 66.6084C38.2959 66.406 38.7285 66.058 39.0333 65.6091C39.3381 65.1603 39.5011 64.631 39.5015 64.0892C39.5092 63.7387 39.4472 63.39 39.319 63.0634C39.1907 62.7368 38.9989 62.4386 38.7545 62.186C38.5101 61.9334 38.218 61.7315 37.8948 61.5917C37.5717 61.4518 37.2239 61.377 36.8716 61.3714ZM36.8716 69.5249C35.7836 69.5651 34.7083 69.2807 33.7838 68.7083C32.8593 68.1359 32.1278 67.3017 31.6832 66.3126C31.2386 65.3236 31.1012 64.2249 31.2885 63.1576C31.4759 62.0903 31.9795 61.103 32.7347 60.3225C33.4899 59.542 34.4623 59.004 35.5271 58.7774C36.5918 58.5508 37.7003 58.6461 38.7102 59.0509C39.7201 59.4557 40.5854 60.1517 41.195 61.0494C41.8046 61.9471 42.1308 63.0057 42.1315 64.0892C42.1547 65.5031 41.6145 66.8687 40.6288 67.8873C39.6431 68.9059 38.2923 69.4947 36.8716 69.5249Z" fill="#3F3F3F"/>
<path d="M30.3106 47.7678C29.7632 47.7448 29.2215 47.8854 28.755 48.1713C28.2886 48.4572 27.9188 48.8754 27.6931 49.3722C27.4675 49.869 27.3964 50.4216 27.4889 50.959C27.5814 51.4963 27.8333 51.9939 28.2123 52.3876C28.5912 52.7813 29.0799 53.0531 29.6154 53.1682C30.1509 53.2833 30.7088 53.2363 31.2173 53.0334C31.7257 52.8304 32.1615 52.4807 32.4686 52.0292C32.7757 51.5777 32.9401 51.0452 32.9406 50.5C32.9482 50.1487 32.8863 49.7994 32.7583 49.4719C32.6302 49.1445 32.4387 48.8454 32.1944 48.5917C31.9502 48.3379 31.6581 48.1346 31.3348 47.9932C31.0116 47.8518 30.6636 47.7752 30.3106 47.7678ZM30.3106 55.9357C29.2186 55.9787 28.1387 55.6957 27.2096 55.1229C26.2806 54.5502 25.545 53.714 25.0975 52.7218C24.6499 51.7296 24.5109 50.6269 24.6983 49.5555C24.8857 48.484 25.3908 47.4929 26.1489 46.7095C26.9069 45.9261 27.8832 45.3863 28.952 45.1596C30.0208 44.9328 31.1334 45.0295 32.1466 45.4371C33.1598 45.8448 34.0272 46.5447 34.6374 47.4469C35.2476 48.3492 35.5726 49.4124 35.5706 50.5C35.5938 51.9139 35.0535 53.2795 34.0678 54.2981C33.0822 55.3167 31.7313 55.9055 30.3106 55.9357Z" fill="#3F3F3F"/>
<path d="M43.4462 47.7678C42.8983 47.7419 42.3553 47.8799 41.887 48.164C41.4187 48.4481 41.0466 48.8652 40.8187 49.3616C40.5909 49.858 40.5176 50.411 40.6084 50.9492C40.6992 51.4875 40.9499 51.9863 41.3282 52.3815C41.7065 52.7767 42.195 53.05 42.7308 53.1664C43.2666 53.2827 43.8252 53.2367 44.3345 53.0342C44.8438 52.8318 45.2805 52.4822 45.5883 52.0305C45.8962 51.5788 46.0611 51.0458 46.0617 50.5C46.0772 49.793 45.8108 49.1087 45.3206 48.5967C44.8305 48.0846 44.1565 47.7866 43.4462 47.7678ZM43.4462 55.9357C42.3537 55.9816 41.2724 55.7011 40.3415 55.1302C39.4106 54.5593 38.6729 53.7242 38.2231 52.7324C37.7733 51.7406 37.6322 50.6374 37.8178 49.5651C38.0035 48.4928 38.5074 47.5003 39.2648 46.7154C40.0222 45.9306 40.9983 45.3894 42.0675 45.1614C43.1366 44.9334 44.2499 45.0291 45.2639 45.4362C46.278 45.8433 47.1463 46.5431 47.7572 47.4456C48.3681 48.3481 48.6936 49.4119 48.6917 50.5C48.7149 51.9115 48.1766 53.2749 47.1941 54.2931C46.2115 55.3113 44.8643 55.9017 43.4462 55.9357Z" fill="#3F3F3F"/>
<path d="M56.6102 47.7678C56.0624 47.7419 55.5193 47.8799 55.0511 48.164C54.5828 48.4481 54.2108 48.8652 53.9829 49.3616C53.755 49.858 53.6817 50.411 53.7725 50.9492C53.8632 51.4875 54.114 51.9863 54.4922 52.3815C54.8705 52.7767 55.359 53.05 55.8949 53.1664C56.4307 53.2827 56.9892 53.2367 57.4986 53.0342C58.0079 52.8318 58.4446 52.4822 58.7525 52.0305C59.0603 51.5788 59.2251 51.0458 59.2257 50.5C59.2413 49.793 58.9748 49.1087 58.4847 48.5967C57.9946 48.0846 57.3206 47.7866 56.6102 47.7678ZM56.6102 55.9357C55.5178 55.9816 54.4365 55.7011 53.5057 55.1302C52.5748 54.5593 51.8369 53.7242 51.3871 52.7324C50.9374 51.7406 50.7962 50.6374 50.9819 49.5651C51.1675 48.4928 51.6715 47.5003 52.4288 46.7154C53.1862 45.9306 54.1623 45.3894 55.2315 45.1614C56.3007 44.9334 57.414 45.0291 58.428 45.4362C59.442 45.8433 60.3104 46.5431 60.9213 47.4456C61.5321 48.3481 61.8576 49.4119 61.8557 50.5C61.879 51.9115 61.3407 53.2749 60.3581 54.2931C59.3755 55.3113 58.0284 55.9017 56.6102 55.9357Z" fill="#3F3F3F"/>
<path d="M50.0071 61.3714C49.4626 61.3484 48.9237 61.4881 48.4596 61.7724C47.9955 62.0568 47.6275 62.4728 47.403 62.967C47.1784 63.4611 47.1076 64.0109 47.1996 64.5454C47.2915 65.08 47.5421 65.5749 47.919 65.9666C48.296 66.3583 48.7821 66.6288 49.3147 66.7434C49.8474 66.8579 50.4024 66.8112 50.9082 66.6093C51.414 66.4074 51.8475 66.0596 52.1531 65.6105C52.4586 65.1614 52.6221 64.6316 52.6226 64.0892C52.6343 63.3847 52.3661 62.7041 51.8764 62.1952C51.3866 61.6863 50.7149 61.3902 50.0071 61.3714ZM50.0071 69.5249C48.9186 69.568 47.842 69.2861 46.9157 68.7156C45.9894 68.145 45.2557 67.3119 44.8088 66.3232C44.3619 65.3345 44.2224 64.2355 44.408 63.1672C44.5937 62.099 45.096 61.1104 45.8506 60.3285C46.6052 59.5466 47.5775 59.007 48.6425 58.7792C49.7076 58.5514 50.8167 58.6457 51.8275 59.05C52.8383 59.4543 53.7044 60.1501 54.3148 61.0481C54.9251 61.9461 55.2517 63.0052 55.2526 64.0892C55.2759 65.5007 54.7376 66.8641 53.755 67.8823C52.7724 68.9005 51.4253 69.491 50.0071 69.5249Z" fill="#3F3F3F"/>
<path d="M63.1282 61.3714C62.5837 61.3484 62.0447 61.4881 61.5807 61.7724C61.1166 62.0568 60.7486 62.4728 60.5241 62.967C60.2995 63.4611 60.2286 64.0109 60.3206 64.5454C60.4125 65.08 60.6632 65.5749 61.0401 65.9666C61.4171 66.3583 61.9031 66.6288 62.4358 66.7434C62.9685 66.8579 63.5234 66.8112 64.0292 66.6093C64.535 66.4074 64.9686 66.0596 65.2741 65.6105C65.5797 65.1614 65.7432 64.6316 65.7437 64.0892C65.7554 63.3847 65.4872 62.7041 64.9975 62.1952C64.5077 61.6863 63.836 61.3902 63.1282 61.3714ZM63.1282 69.5249C62.0397 69.568 60.9631 69.2861 60.0368 68.7156C59.1105 68.145 58.3767 67.3119 57.9299 66.3232C57.483 65.3345 57.3435 64.2355 57.5291 63.1672C57.7148 62.099 58.2171 61.1104 58.9717 60.3285C59.7262 59.5466 60.6985 59.007 61.7635 58.7792C62.8286 58.5514 63.9378 58.6457 64.9486 59.05C65.9594 59.4543 66.8255 60.1501 67.4359 61.0481C68.0462 61.9461 68.3728 63.0052 68.3737 64.0892C68.4008 65.5018 67.8638 66.8674 66.8804 67.8864C65.897 68.9055 64.5476 69.4947 63.1282 69.5249Z" fill="#3F3F3F"/>
<path d="M36.8716 34.1785C36.3276 34.1584 35.79 34.3006 35.3277 34.5868C34.8655 34.873 34.4997 35.2901 34.2774 35.7846C34.0551 36.2792 33.9864 36.8285 34.0801 37.3622C34.1738 37.8959 34.4255 38.3895 34.8031 38.7797C35.1807 39.17 35.6669 39.439 36.1993 39.5523C36.7317 39.6656 37.286 39.6179 37.7909 39.4155C38.2959 39.2131 38.7285 38.8651 39.0333 38.4163C39.3381 37.9674 39.5011 37.4381 39.5015 36.8964C39.5092 36.5458 39.4472 36.1972 39.319 35.8706C39.1907 35.5439 38.9989 35.2458 38.7545 34.9932C38.5101 34.7406 38.218 34.5386 37.8948 34.3988C37.5717 34.259 37.2239 34.1841 36.8716 34.1785ZM36.8716 42.3321C35.7836 42.3722 34.7083 42.0878 33.7838 41.5155C32.8593 40.9431 32.1278 40.1088 31.6832 39.1198C31.2386 38.1308 31.1012 37.0321 31.2885 35.9647C31.4759 34.8974 31.9795 33.9101 32.7347 33.1297C33.4899 32.3492 34.4623 31.8111 35.5271 31.5846C36.5918 31.358 37.7003 31.4533 38.7102 31.8581C39.7201 32.2629 40.5854 32.9589 41.195 33.8566C41.8046 34.7543 42.1308 35.8129 42.1315 36.8964C42.1449 37.597 42.0195 38.2934 41.7624 38.9458C41.5053 39.5982 41.1216 40.1938 40.6331 40.6985C40.1446 41.2033 39.561 41.6074 38.9156 41.8877C38.2702 42.168 37.5757 42.319 36.8716 42.3321Z" fill="#3F3F3F"/>
<path d="M50.0071 34.1785C49.4626 34.1555 48.9237 34.2952 48.4596 34.5796C47.9955 34.8639 47.6275 35.2799 47.403 35.7741C47.1784 36.2682 47.1076 36.818 47.1996 37.3525C47.2915 37.8871 47.5421 38.382 47.919 38.7737C48.296 39.1654 48.7821 39.4359 49.3147 39.5504C49.8474 39.665 50.4024 39.6183 50.9082 39.4164C51.414 39.2145 51.8475 38.8667 52.1531 38.4176C52.4586 37.9685 52.6221 37.4387 52.6226 36.8963C52.6343 36.1918 52.3661 35.5112 51.8764 35.0023C51.3866 34.4934 50.7149 34.1973 50.0071 34.1785ZM50.0071 42.332C48.9186 42.3751 47.842 42.0932 46.9157 41.5227C45.9894 40.9521 45.2557 40.119 44.8088 39.1303C44.3619 38.1416 44.2224 37.0426 44.408 35.9743C44.5937 34.9061 45.096 33.9175 45.8506 33.1356C46.6052 32.3537 47.5775 31.8141 48.6425 31.5863C49.7076 31.3585 50.8167 31.4528 51.8275 31.8571C52.8383 32.2614 53.7044 32.9572 54.3148 33.8552C54.9251 34.7532 55.2517 35.8123 55.2526 36.8963C55.2797 38.3089 54.7427 39.6745 53.7593 40.6936C52.7759 41.7126 51.4265 42.3018 50.0071 42.332Z" fill="#3F3F3F"/>
<path d="M63.1282 34.1785C62.5837 34.1555 62.0447 34.2952 61.5807 34.5796C61.1166 34.8639 60.7486 35.2799 60.5241 35.7741C60.2995 36.2682 60.2286 36.818 60.3206 37.3525C60.4125 37.8871 60.6632 38.382 61.0401 38.7737C61.4171 39.1654 61.9031 39.4359 62.4358 39.5504C62.9685 39.665 63.5234 39.6183 64.0292 39.4164C64.535 39.2145 64.9686 38.8667 65.2741 38.4176C65.5797 37.9685 65.7432 37.4387 65.7437 36.8963C65.7554 36.1918 65.4872 35.5112 64.9975 35.0023C64.5077 34.4934 63.836 34.1973 63.1282 34.1785ZM63.1282 42.332C62.0397 42.3751 60.9631 42.0932 60.0368 41.5227C59.1105 40.9521 58.3767 40.119 57.9299 39.1303C57.483 38.1416 57.3435 37.0426 57.5291 35.9743C57.7148 34.9061 58.2171 33.9175 58.9717 33.1356C59.7262 32.3537 60.6985 31.8141 61.7635 31.5863C62.8286 31.3585 63.9378 31.4528 64.9486 31.8571C65.9594 32.2614 66.8255 32.9572 67.4359 33.8552C68.0462 34.7532 68.3728 35.8123 68.3737 36.8963C68.389 37.5963 68.2654 38.2924 68.0099 38.9447C67.7544 39.597 67.372 40.1927 66.8847 40.6977C66.3974 41.2027 65.8147 41.6069 65.1701 41.8874C64.5255 42.1679 63.8316 42.319 63.1282 42.332Z" fill="#3F3F3F"/>
<path d="M69.6884 47.7678C69.141 47.7448 68.5993 47.8854 68.1328 48.1713C67.6664 48.4572 67.2965 48.8754 67.0709 49.3722C66.8453 49.869 66.7741 50.4216 66.8666 50.959C66.9592 51.4963 67.2111 51.9939 67.59 52.3876C67.969 52.7813 68.4577 53.0531 68.9932 53.1682C69.5287 53.2833 70.0866 53.2363 70.595 53.0334C71.1035 52.8304 71.5393 52.4807 71.8464 52.0292C72.1535 51.5777 72.3178 51.0452 72.3183 50.5C72.326 50.1487 72.2641 49.7994 72.136 49.4719C72.008 49.1445 71.8164 48.8454 71.5722 48.5917C71.3279 48.3379 71.0358 48.1346 70.7126 47.9932C70.3894 47.8518 70.0413 47.7752 69.6884 47.7678ZM69.6884 55.9357C68.5959 55.9816 67.5146 55.7011 66.5838 55.1302C65.6529 54.5593 64.915 53.7242 64.4653 52.7324C64.0155 51.7406 63.8743 50.6374 64.06 49.5651C64.2456 48.4928 64.7496 47.5003 65.507 46.7154C66.2643 45.9306 67.2405 45.3894 68.3096 45.1614C69.3788 44.9334 70.4921 45.0291 71.5061 45.4362C72.5202 45.8433 73.3886 46.5431 73.9995 47.4456C74.6104 48.3481 74.9358 49.4119 74.9338 50.5C74.9571 51.9115 74.4188 53.2749 73.4362 54.2931C72.4537 55.3113 71.1065 55.9017 69.6884 55.9357Z" fill="#3F3F3F"/>
</g>
<path d="M38.1866 68.1732H35.5566V94H38.1866V68.1732Z" fill="#3F3F3F"/>
<path d="M64.4425 68.1732H61.8125V94H64.4425V68.1732Z" fill="#3F3F3F"/>
<path d="M51.3214 68.1732H48.6914V94H51.3214V68.1732Z" fill="#3F3F3F"/>
<path d="M64.4425 7H61.8125V32.8268H64.4425V7Z" fill="#3F3F3F"/>
<path d="M38.1866 7H35.5566V32.8268H38.1866V7Z" fill="#3F3F3F"/>
<path d="M51.3214 7H48.6914V32.8268H51.3214V7Z" fill="#3F3F3F"/>
<path d="M26.3809 49.1483H8V51.8661H26.3809V49.1483Z" fill="#3F3F3F"/>
<path d="M32.9413 35.5446H8V38.2625H32.9413V35.5446Z" fill="#3F3F3F"/>
<path d="M32.9413 62.7375H8V65.4554H32.9413V62.7375Z" fill="#3F3F3F"/>
<path d="M91.9999 35.5446H67.0586V38.2625H91.9999V35.5446Z" fill="#3F3F3F"/>
<path d="M91.9856 49.1483H73.6191V51.8661H91.9856V49.1483Z" fill="#3F3F3F"/>
<path d="M91.9999 62.7375H67.0586V65.4554H91.9999V62.7375Z" fill="#3F3F3F"/>
<path d="M10.63 42.3464H8V45.0643H10.63V42.3464Z" fill="#3F3F3F"/>
<path d="M15.8761 42.3464H13.2461V45.0643H15.8761V42.3464Z" fill="#3F3F3F"/>
<path d="M21.1358 42.3464H18.5059V45.0643H21.1358V42.3464Z" fill="#3F3F3F"/>
<path d="M10.63 55.9357H8V58.6535H10.63V55.9357Z" fill="#3F3F3F"/>
<path d="M15.8761 55.9357H13.2461V58.6535H15.8761V55.9357Z" fill="#3F3F3F"/>
<path d="M21.1358 55.9357H18.5059V58.6535H21.1358V55.9357Z" fill="#3F3F3F"/>
<path d="M81.4952 42.3464H78.8652V45.0643H81.4952V42.3464Z" fill="#3F3F3F"/>
<path d="M86.755 42.3464H84.125V45.0643H86.755V42.3464Z" fill="#3F3F3F"/>
<path d="M91.9991 42.3464H89.3691V45.0643H91.9991V42.3464Z" fill="#3F3F3F"/>
<path d="M81.4952 55.9357H78.8652V58.6535H81.4952V55.9357Z" fill="#3F3F3F"/>
<path d="M86.755 55.9357H84.125V58.6535H86.755V55.9357Z" fill="#3F3F3F"/>
<path d="M91.9991 55.9357H89.3691V58.6535H91.9991V55.9357Z" fill="#3F3F3F"/>
<path d="M44.7472 91.2822H42.1172V94H44.7472V91.2822Z" fill="#3F3F3F"/>
<path d="M44.7472 85.8464H42.1172V88.5643H44.7472V85.8464Z" fill="#3F3F3F"/>
<path d="M44.7472 80.4107H42.1172V83.1286H44.7472V80.4107Z" fill="#3F3F3F"/>
<path d="M44.7472 74.975H42.1172V77.6929H44.7472V74.975Z" fill="#3F3F3F"/>
<path d="M57.8819 91.2822H55.252V94H57.8819V91.2822Z" fill="#3F3F3F"/>
<path d="M57.8819 85.8464H55.252V88.5643H57.8819V85.8464Z" fill="#3F3F3F"/>
<path d="M57.8819 80.4107H55.252V83.1286H57.8819V80.4107Z" fill="#3F3F3F"/>
<path d="M57.8819 74.975H55.252V77.6929H57.8819V74.975Z" fill="#3F3F3F"/>
<path d="M44.7472 23.3071H42.1172V26.0249H44.7472V23.3071Z" fill="#3F3F3F"/>
<path d="M44.7472 17.8714H42.1172V20.5893H44.7472V17.8714Z" fill="#3F3F3F"/>
<path d="M44.7472 12.4357H42.1172V15.1536H44.7472V12.4357Z" fill="#3F3F3F"/>
<path d="M44.7472 7H42.1172V9.71785H44.7472V7Z" fill="#3F3F3F"/>
<path d="M57.8819 23.3071H55.252V26.0249H57.8819V23.3071Z" fill="#3F3F3F"/>
<path d="M57.8819 17.8714H55.252V20.5893H57.8819V17.8714Z" fill="#3F3F3F"/>
<path d="M57.8819 12.4357H55.252V15.1536H57.8819V12.4357Z" fill="#3F3F3F"/>
<path d="M57.8819 7H55.252V9.71785H57.8819V7Z" fill="#3F3F3F"/>
<mask id="mask1_2_1437" style="mask-type:luminance" maskUnits="userSpaceOnUse" x="8" y="7" width="84" height="87">
<path d="M92 7H8V94H92V7Z" fill="white"/>
</mask>
<g mask="url(#mask1_2_1437)">
<path d="M30.3114 94H27.7103V74.9607C27.7142 74.6084 27.5783 74.2689 27.332 74.0158C27.0858 73.7627 26.7493 73.6165 26.3954 73.6089H8V70.8911H26.3809C27.4439 70.9137 28.4544 71.3548 29.1912 72.1176C29.9279 72.8805 30.3307 73.9028 30.3114 74.9607V94Z" fill="#3F3F3F"/>
<path d="M26.3809 30.1089H8V27.3767H26.3809C26.7348 27.3692 27.0715 27.223 27.3177 26.9699C27.5639 26.7168 27.6997 26.3772 27.6959 26.025V7H30.3114V26.025C30.3308 27.0842 29.9284 28.1081 29.1921 28.8732C28.4557 29.6383 27.4452 30.0825 26.3809 30.1089Z" fill="#3F3F3F"/>
<path d="M72.3181 94H69.6882V74.9607C69.6688 73.9028 70.0716 72.8805 70.8084 72.1176C71.5451 71.3548 72.5558 70.9137 73.6187 70.8911H91.9995V73.6089H73.6187C73.4441 73.6127 73.272 73.6506 73.1121 73.7206C72.9522 73.7905 72.8078 73.8911 72.687 74.0167C72.5662 74.1422 72.4715 74.2902 72.4082 74.4521C72.3449 74.6141 72.3143 74.7869 72.3181 74.9607V94Z" fill="#3F3F3F"/>
<path d="M91.9995 30.1089H73.6187C72.5545 30.0825 71.5439 29.6383 70.8075 28.8732C70.0711 28.1081 69.6688 27.0842 69.6882 26.025V7H72.3181V26.025C72.3143 26.1987 72.3449 26.3715 72.4082 26.5335C72.4715 26.6954 72.5662 26.8435 72.687 26.969C72.8078 27.0945 72.9522 27.1951 73.1121 27.2651C73.272 27.335 73.4441 27.373 73.6187 27.3767H91.9995V30.1089Z" fill="#3F3F3F"/>
</g>
</g>
<defs>
<clipPath id="clip0_2_1437">
<rect width="84" height="87" fill="white" transform="translate(8 7)"/>
</clipPath>
</defs>
</svg>
