<svg width="80" height="80" viewBox="0 0 80 80" fill="none" xmlns="http://www.w3.org/2000/svg">
<path d="M14.7277 51.943H65.3283L71.54 49.9178L74.6534 40.1695L72.2201 33.459L65.7968 28.5471L64.0738 17.363L57.8773 9.33763L48.7033 6.22421L38.3202 9.60967L31.9724 15.2773L28.5114 16.8793L21.1813 18.6628L16.1484 24.7536L15.7253 27.9123L7.85103 33.459L5.58398 41.8925L10.1332 52.7441L12.899 53.2277L14.7277 51.943Z" fill="white"/>
<path d="M14.7277 51.943H65.3283L71.54 49.9178L74.6534 40.1695L72.2201 33.459L65.7968 28.5471L64.0739 17.363L57.8773 9.33763L48.7033 6.22421L38.3202 9.60967L31.9724 15.2773L28.5114 16.8793L21.1813 18.6628L16.1484 24.7536L15.7253 27.9123L7.85103 33.459L5.58398 41.8925L10.1332 52.7441L12.899 53.2277L14.7277 51.943Z" stroke="white" stroke-width="0.75" stroke-miterlimit="10"/>
<mask id="mask0_2_1253" style="mask-type:luminance" maskUnits="userSpaceOnUse" x="3" y="5" width="75" height="70">
<path d="M77.0569 5H3V74.81H77.0569V5Z" fill="white"/>
</mask>
<g mask="url(#mask0_2_1253)">
<path d="M14.4252 55.0413H14.1229C11.0373 54.3606 8.28834 52.6187 6.35506 50.1192C4.42178 47.6198 3.42672 44.5212 3.54339 41.3635C3.53412 38.2658 4.56176 35.2541 6.46262 32.8082C8.36348 30.3623 11.0282 28.6228 14.0323 27.867C14.1961 27.8238 14.3412 27.7279 14.445 27.594C14.5488 27.4601 14.6055 27.2958 14.6066 27.1264C14.6135 25.2876 15.0347 23.4739 15.8386 21.8201C16.6426 20.1663 17.8088 18.7149 19.2507 17.5736C20.6925 16.4324 22.3729 15.6306 24.1671 15.2278C25.9613 14.825 27.8231 14.8316 29.6145 15.2471H29.7958C29.9257 15.245 30.053 15.2108 30.1665 15.1475C30.2799 15.0842 30.3759 14.9938 30.4458 14.8843C32.7215 11.255 36.1137 8.46229 40.1127 6.9261C44.1116 5.38991 48.5011 5.19321 52.6214 6.36556C56.7417 7.53792 60.3701 10.016 62.9613 13.4273C65.5525 16.8386 66.9664 20.9988 66.9906 25.2825C66.9951 26.0048 66.9547 26.7266 66.8697 27.4438C66.8496 27.6141 66.888 27.7862 66.9786 27.9317C67.0692 28.0773 67.2068 28.1877 67.3684 28.2448C70.0286 29.2454 72.3211 31.0322 73.941 33.3675C75.5609 35.7029 76.4314 38.476 76.4366 41.3181C76.576 44.4488 75.5834 47.5249 73.6407 49.9838C71.698 52.4428 68.935 54.12 65.8571 54.7088H65.5699C65.159 54.7469 64.7499 54.6202 64.4324 54.3566C64.115 54.093 63.9153 53.7141 63.8772 53.3033C63.8391 52.8924 63.9658 52.4832 64.2294 52.1658C64.493 51.8483 64.8719 51.6486 65.2827 51.6106C67.6362 51.1387 69.7416 49.8365 71.2148 47.9415C72.6881 46.0466 73.4311 43.6851 73.3081 41.2879C73.297 38.7987 72.4304 36.389 70.8537 34.4628C69.277 32.5366 67.0859 31.211 64.6479 30.7083C64.4451 30.6714 64.2519 30.5933 64.0804 30.479C63.9089 30.3646 63.7626 30.2164 63.6504 30.0433C63.53 29.869 63.4475 29.6712 63.4085 29.4629C63.3694 29.2546 63.3746 29.0404 63.4237 28.8343C63.6936 27.6645 63.8305 26.4679 63.8318 25.2674C63.8576 21.4976 62.6013 17.8309 60.2691 14.8689C57.9368 11.907 54.6671 9.82566 50.9963 8.96641C47.3256 8.10715 43.4719 8.521 40.0674 10.1401C36.6628 11.7591 33.9095 14.4872 32.2593 17.8769C32.1336 18.1411 31.9339 18.3632 31.6844 18.5161C31.4349 18.6691 31.1463 18.7463 30.8538 18.7383C30.6508 18.742 30.4495 18.7007 30.2643 18.6174C28.8848 18.0419 27.3843 17.8164 25.8965 17.9609C24.4088 18.1053 22.9798 18.6154 21.7367 19.4456C20.4936 20.2758 19.4751 21.4004 18.7717 22.7194C18.0683 24.0383 17.7018 25.5107 17.7049 27.0055C17.701 27.574 17.7568 28.1414 17.8712 28.6982C17.9075 28.9111 17.9008 29.1291 17.8515 29.3394C17.8021 29.5497 17.7112 29.7479 17.584 29.9224C17.4558 30.0993 17.2908 30.2463 17.1003 30.3533C16.9098 30.4603 16.6984 30.5247 16.4807 30.5421C13.7907 30.7769 11.2869 32.013 9.46487 34.0058C7.64281 35.9986 6.63532 38.6028 6.64176 41.303C6.64176 46.6986 9.876 50.9607 14.6821 51.8826C15.093 51.9227 15.4711 52.1243 15.7333 52.4432C15.9955 52.762 16.1203 53.172 16.0802 53.5829C16.0402 53.9937 15.8384 54.3718 15.5196 54.634C15.2007 54.8962 14.7908 55.021 14.3799 54.9809" fill="#3F3F3F"/>
<path d="M14.4252 55.0413H14.1229C11.0373 54.3606 8.28834 52.6187 6.35506 50.1192C4.42178 47.6198 3.42672 44.5212 3.54339 41.3635C3.53412 38.2658 4.56176 35.2541 6.46262 32.8082C8.36348 30.3623 11.0282 28.6228 14.0323 27.867C14.1961 27.8238 14.3412 27.7279 14.445 27.594C14.5488 27.4601 14.6055 27.2958 14.6066 27.1264C14.6135 25.2876 15.0347 23.4739 15.8386 21.8201C16.6426 20.1663 17.8088 18.7149 19.2507 17.5736C20.6925 16.4324 22.3729 15.6306 24.1671 15.2278C25.9613 14.825 27.8231 14.8316 29.6145 15.2471H29.7958C29.9257 15.245 30.053 15.2108 30.1665 15.1475C30.2799 15.0842 30.3759 14.9938 30.4458 14.8843C32.7215 11.255 36.1137 8.46229 40.1127 6.9261C44.1116 5.38991 48.5011 5.19321 52.6214 6.36556C56.7417 7.53792 60.3701 10.016 62.9613 13.4273C65.5525 16.8386 66.9664 20.9988 66.9906 25.2825C66.9951 26.0048 66.9547 26.7266 66.8697 27.4438C66.8496 27.6141 66.888 27.7862 66.9786 27.9317C67.0692 28.0773 67.2068 28.1877 67.3684 28.2448C70.0286 29.2454 72.3211 31.0322 73.941 33.3675C75.5609 35.7029 76.4314 38.476 76.4366 41.3181C76.576 44.4488 75.5834 47.5249 73.6407 49.9838C71.698 52.4428 68.935 54.12 65.8571 54.7088H65.5699C65.159 54.7469 64.7499 54.6202 64.4324 54.3566C64.115 54.093 63.9153 53.7141 63.8772 53.3033C63.8391 52.8924 63.9658 52.4832 64.2294 52.1658C64.493 51.8483 64.8719 51.6486 65.2827 51.6106C67.6362 51.1387 69.7416 49.8365 71.2148 47.9415C72.6881 46.0466 73.4311 43.6851 73.3081 41.2879C73.297 38.7987 72.4304 36.389 70.8537 34.4628C69.277 32.5366 67.0859 31.211 64.6479 30.7083C64.4451 30.6714 64.2519 30.5933 64.0804 30.479C63.9089 30.3646 63.7626 30.2164 63.6504 30.0433C63.53 29.869 63.4475 29.6712 63.4085 29.4629C63.3694 29.2546 63.3746 29.0404 63.4237 28.8343C63.6936 27.6645 63.8305 26.4679 63.8318 25.2674C63.8576 21.4976 62.6013 17.8309 60.2691 14.8689C57.9368 11.907 54.6671 9.82566 50.9964 8.96641C47.3256 8.10715 43.4719 8.521 40.0674 10.1401C36.6628 11.7591 33.9095 14.4872 32.2593 17.8769C32.1336 18.1411 31.9339 18.3632 31.6844 18.5161C31.4349 18.6691 31.1463 18.7463 30.8538 18.7384C30.6508 18.742 30.4495 18.7007 30.2643 18.6174C28.8848 18.0419 27.3843 17.8164 25.8965 17.9609C24.4087 18.1053 22.9798 18.6154 21.7367 19.4456C20.4936 20.2758 19.4751 21.4004 18.7717 22.7194C18.0683 24.0383 17.7018 25.5107 17.7049 27.0055C17.701 27.574 17.7568 28.1414 17.8712 28.6982C17.9075 28.9111 17.9008 29.1291 17.8515 29.3394C17.8021 29.5497 17.7112 29.7479 17.584 29.9224C17.4558 30.0993 17.2908 30.2463 17.1003 30.3533C16.9098 30.4603 16.6984 30.5247 16.4807 30.5421C13.7907 30.7769 11.2869 32.013 9.46487 34.0058C7.64281 35.9986 6.63532 38.6028 6.64176 41.303C6.64176 46.6986 9.876 50.9607 14.6821 51.8826C15.093 51.9227 15.4711 52.1243 15.7333 52.4432C15.9955 52.762 16.1203 53.172 16.0802 53.5829C16.0402 53.9937 15.8384 54.3718 15.5196 54.634C15.2007 54.8962 14.7908 55.021 14.3799 54.9809L14.4252 55.0413Z" stroke="white" stroke-width="0.75" stroke-miterlimit="10"/>
<path d="M40.3606 74.81C44.7607 74.81 49.062 73.5052 52.7206 71.0606C56.3791 68.6161 59.2306 65.1415 60.9144 61.0763C62.5983 57.0112 63.0388 52.538 62.1804 48.2225C61.322 43.9069 59.2031 39.9428 56.0918 36.8314C52.9805 33.7201 49.0164 31.6013 44.7008 30.7429C40.3853 29.8844 35.9121 30.325 31.8469 32.0088C27.7818 33.6927 24.3072 36.5442 21.8626 40.2027C19.4181 43.8613 18.1133 48.1625 18.1133 52.5626C18.1133 58.463 20.4572 64.1217 24.6294 68.2939C28.8016 72.4661 34.4603 74.81 40.3606 74.81Z" fill="#D40054"/>
<path d="M45.0453 49.3435C45.0334 49.7688 44.8962 50.1812 44.6509 50.5288C44.4057 50.8765 44.0632 51.1441 43.6666 51.2979C43.2699 51.4518 42.8365 51.4852 42.421 51.3939C42.0054 51.3026 41.626 51.0906 41.3304 50.7846C41.0348 50.4785 40.8361 50.0921 40.7592 49.6736C40.6823 49.2551 40.7306 48.8233 40.8982 48.4321C41.0657 48.041 41.3449 47.708 41.7009 47.4749C42.0568 47.2418 42.4737 47.119 42.8992 47.1218C43.4778 47.1337 44.0281 47.374 44.4302 47.7902C44.8323 48.2065 45.0534 48.7649 45.0453 49.3435Z" fill="white"/>
<path d="M42.8991 51.5501C44.0843 51.5501 45.0452 50.5622 45.0452 49.3435C45.0452 48.1248 44.0843 47.1369 42.8991 47.1369C41.7138 47.1369 40.7529 48.1248 40.7529 49.3435C40.7529 50.5622 41.7138 51.5501 42.8991 51.5501Z" stroke="#D40054" stroke-width="0.25"/>
<path d="M39.8158 49.3435C39.8039 49.7688 39.6667 50.1812 39.4214 50.5288C39.1762 50.8765 38.8338 51.1441 38.4371 51.2979C38.0404 51.4518 37.6071 51.4852 37.1916 51.3939C36.776 51.3026 36.3965 51.0906 36.1009 50.7846C35.8053 50.4785 35.6066 50.0921 35.5297 49.6736C35.4528 49.2551 35.5011 48.8233 35.6687 48.4321C35.8362 48.041 36.1154 47.708 36.4714 47.4749C36.8273 47.2418 37.2442 47.119 37.6697 47.1218C38.2483 47.1337 38.7987 47.374 39.2008 47.7902C39.6029 48.2065 39.8239 48.7649 39.8158 49.3435Z" fill="white"/>
<path d="M37.6696 51.5501C38.8549 51.5501 39.8157 50.5622 39.8157 49.3435C39.8157 48.1248 38.8549 47.1369 37.6696 47.1369C36.4843 47.1369 35.5234 48.1248 35.5234 49.3435C35.5234 50.5622 36.4843 51.5501 37.6696 51.5501Z" stroke="#D40054" stroke-width="0.25"/>
<path d="M40.3608 43.0109C36.2499 43.0109 33.8166 45.6406 33.8166 50.0387C33.8166 54.9507 36.7486 58.9406 40.3608 58.9406C43.973 58.9406 46.905 54.9507 46.905 50.0387C46.905 45.6406 44.4566 43.0109 40.3608 43.0109ZM40.3608 60.8299C35.736 60.8299 31.9727 55.9935 31.9727 50.0387C31.9727 44.628 35.2675 41.1217 40.3608 41.1217C45.4541 41.1217 48.7337 44.628 48.7337 50.0387C48.7337 55.9935 44.9705 60.8299 40.3608 60.8299Z" fill="white"/>
<path d="M40.3608 43.0109C36.2499 43.0109 33.8166 45.6406 33.8166 50.0387C33.8166 54.9507 36.7486 58.9406 40.3608 58.9406C43.973 58.9406 46.905 54.9507 46.905 50.0387C46.9352 45.6406 44.4566 43.0109 40.3608 43.0109ZM40.3608 60.8299C35.736 60.8299 31.9727 55.9935 31.9727 50.0387C31.9727 44.628 35.2675 41.1217 40.3608 41.1217C45.4541 41.1217 48.7337 44.628 48.7337 50.0387C48.7337 55.9935 44.9705 60.8299 40.3608 60.8299Z" stroke="#D40054" stroke-width="0.25"/>
<path d="M27.5895 58.2908C27.2998 58.2843 27.0126 58.3451 26.7504 58.4683C26.4881 58.5916 26.258 58.774 26.0782 59.0011C25.849 59.2865 25.7047 59.6306 25.662 59.9941C25.6192 60.3576 25.6796 60.7259 25.8363 61.0566C25.9316 61.2793 26.0703 61.4808 26.2441 61.6494C26.418 61.818 26.6236 61.9505 26.849 62.039C27.2748 62.2037 27.6483 62.4801 27.9302 62.8392C28.2121 63.1982 28.3921 63.6267 28.451 64.0794C28.5217 64.5635 28.7761 65.0019 29.1613 65.3036C29.4395 65.5252 29.7758 65.6617 30.1298 65.6966C30.4838 65.7314 30.8403 65.6632 31.1563 65.5C31.532 65.3019 31.8327 64.9866 32.0128 64.6019C32.1928 64.2173 32.2423 63.7844 32.1538 63.369C32.0486 62.896 32.0732 62.4033 32.2248 61.9431C32.3765 61.4829 32.6495 61.0722 33.0153 60.7543L35.3881 58.7896C34.5735 58.0279 33.8939 57.1336 33.3781 56.1447L30.9599 58.1548C30.5911 58.4528 30.145 58.6396 29.6738 58.6931C29.2027 58.7467 28.7261 58.6648 28.2998 58.4571C28.0577 58.3472 27.7949 58.2905 27.529 58.2908M30.31 67.6008C29.4743 67.5947 28.6649 67.3072 28.0127 66.7847C27.2636 66.1762 26.7723 65.307 26.6374 64.3514C26.6204 64.2295 26.5706 64.1146 26.4934 64.0188C26.4162 63.9229 26.3145 63.8498 26.1991 63.8073C25.3055 63.4467 24.5818 62.7608 24.1738 61.8879C23.8721 61.2262 23.7576 60.4945 23.8429 59.7723C23.9281 59.0502 24.2099 58.3652 24.6575 57.7921C25.1615 57.147 25.8688 56.6914 26.6646 56.4993C27.4603 56.3073 28.2976 56.39 29.0404 56.7341C29.1559 56.8065 29.2895 56.8449 29.4258 56.8449C29.5621 56.8449 29.6957 56.8065 29.8112 56.7341L33.1362 53.9834C33.2454 53.8912 33.3752 53.8266 33.5146 53.795C33.654 53.7635 33.799 53.7659 33.9373 53.802C34.0753 53.844 34.2023 53.9159 34.3094 54.0125C34.4165 54.1092 34.501 54.2283 34.5569 54.3612C35.1099 55.8408 36.0879 57.1238 37.368 58.049C37.4814 58.1396 37.573 58.2546 37.6359 58.3854C37.6988 58.5162 37.7316 58.6595 37.7316 58.8047C37.7316 58.9498 37.6988 59.0932 37.6359 59.224C37.573 59.3548 37.4814 59.4697 37.368 59.5603L34.0884 62.2808C33.9873 62.3753 33.9141 62.4958 33.8768 62.629C33.8395 62.7623 33.8395 62.9033 33.8768 63.0365C34.0488 63.8496 33.9535 64.6966 33.6048 65.451C33.2562 66.2055 32.673 66.8271 31.9423 67.223C31.4335 67.47 30.8755 67.5991 30.31 67.6008Z" fill="white"/>
<path d="M27.5895 58.2908C27.2998 58.2843 27.0126 58.3451 26.7504 58.4683C26.4881 58.5916 26.258 58.774 26.0782 59.0011C25.849 59.2865 25.7047 59.6306 25.662 59.9941C25.6192 60.3576 25.6796 60.7259 25.8363 61.0566C25.9316 61.2793 26.0703 61.4808 26.2441 61.6494C26.418 61.818 26.6236 61.9505 26.849 62.039C27.2748 62.2037 27.6483 62.4801 27.9302 62.8392C28.2121 63.1982 28.3921 63.6267 28.451 64.0794C28.5217 64.5635 28.7761 65.0019 29.1613 65.3036C29.4395 65.5252 29.7758 65.6617 30.1298 65.6966C30.4838 65.7314 30.8403 65.6632 31.1563 65.5C31.532 65.3019 31.8327 64.9866 32.0128 64.6019C32.1928 64.2173 32.2423 63.7844 32.1538 63.369C32.0486 62.896 32.0732 62.4033 32.2248 61.9431C32.3765 61.4829 32.6495 61.0722 33.0153 60.7543L35.3881 58.7896C34.5735 58.0279 33.8939 57.1336 33.3781 56.1447L30.9599 58.1548C30.5911 58.4528 30.145 58.6396 29.6738 58.6931C29.2027 58.7467 28.7261 58.6648 28.2998 58.4571C28.0764 58.3553 27.835 58.2988 27.5895 58.2908ZM30.31 67.6008C29.4743 67.5947 28.6649 67.3072 28.0127 66.7847C27.2636 66.1762 26.7723 65.307 26.6374 64.3514C26.6204 64.2295 26.5706 64.1146 26.4934 64.0188C26.4162 63.9229 26.3145 63.8498 26.1991 63.8073C25.3055 63.4467 24.5818 62.7608 24.1738 61.8879C23.8721 61.2262 23.7576 60.4945 23.8429 59.7723C23.9281 59.0502 24.2099 58.3652 24.6575 57.7921C25.1615 57.147 25.8688 56.6914 26.6646 56.4993C27.4603 56.3073 28.2976 56.39 29.0404 56.7341C29.1559 56.8065 29.2895 56.8449 29.4258 56.8449C29.5621 56.8449 29.6957 56.8065 29.8112 56.7341L33.1362 53.9834C33.2454 53.8912 33.3752 53.8266 33.5146 53.795C33.654 53.7635 33.799 53.7659 33.9373 53.802C34.0753 53.844 34.2023 53.9159 34.3094 54.0125C34.4165 54.1092 34.501 54.2283 34.5569 54.3612C35.1099 55.8408 36.0879 57.1238 37.368 58.049C37.4814 58.1396 37.573 58.2546 37.6359 58.3854C37.6988 58.5162 37.7316 58.6595 37.7316 58.8047C37.7316 58.9498 37.6988 59.0932 37.6359 59.224C37.573 59.3548 37.4814 59.4697 37.368 59.5603L34.0884 62.2808C33.9873 62.3753 33.9141 62.4958 33.8768 62.629C33.8395 62.7623 33.8395 62.9033 33.8768 63.0365C34.0488 63.8496 33.9535 64.6966 33.6048 65.451C33.2562 66.2055 32.673 66.8271 31.9423 67.223C31.4335 67.47 30.8755 67.5991 30.31 67.6008Z" stroke="#D40054" stroke-width="0.25"/>
<path d="M47.3272 44.628C47.9531 45.6325 48.3695 46.7533 48.5514 47.9228L49.6849 46.9857C50.0538 46.6885 50.4989 46.5012 50.9693 46.445C51.4397 46.3889 51.9164 46.4663 52.3449 46.6684C52.7219 46.8438 53.1474 46.8854 53.5513 46.7865C53.9552 46.6876 54.3133 46.4541 54.5666 46.1243C54.7957 45.8389 54.94 45.4948 54.9828 45.1313C55.0255 44.7678 54.9651 44.3996 54.8084 44.0688C54.6112 43.6258 54.2474 43.2783 53.7958 43.1016C53.3717 42.9342 52.9999 42.657 52.7183 42.2984C52.4368 41.9399 52.2557 41.5128 52.1937 41.0612C52.1267 40.5716 51.872 40.1272 51.4834 39.8219C51.2055 39.599 50.868 39.463 50.5132 39.4308C50.1584 39.3985 49.802 39.4715 49.4884 39.6405C49.1139 39.8359 48.8138 40.1485 48.6336 40.5306C48.4535 40.9127 48.4034 41.3432 48.4909 41.7564C48.5978 42.2294 48.574 42.7226 48.4223 43.1831C48.2706 43.6437 47.9965 44.0543 47.6295 44.3711L47.3272 44.628ZM47.8108 50.6735C47.6746 50.6742 47.54 50.6432 47.4178 50.5828C47.2589 50.5059 47.1248 50.3856 47.0312 50.2359C46.9376 50.0862 46.8883 49.913 46.8888 49.7364C46.9367 48.0523 46.403 46.4031 45.3774 45.0663C45.2143 44.867 45.1333 44.613 45.1508 44.356C45.1725 44.1042 45.2918 43.871 45.4832 43.7061L46.4959 42.8749C46.5969 42.7771 46.6698 42.6539 46.707 42.5183C46.7442 42.3828 46.7443 42.2397 46.7074 42.1041C46.5339 41.293 46.6288 40.4475 46.9777 39.6951C47.3267 38.9427 47.9108 38.3241 48.642 37.9327C49.2745 37.6011 49.9896 37.4603 50.7006 37.5274C51.4116 37.5945 52.0879 37.8665 52.6472 38.3105C53.3906 38.9238 53.8805 39.7906 54.0225 40.7438C54.0369 40.8684 54.0855 40.9865 54.1628 41.0852C54.2402 41.1839 54.3433 41.2593 54.4608 41.303C55.35 41.6625 56.0726 42.3418 56.486 43.2073C56.7878 43.8689 56.9023 44.6007 56.817 45.3229C56.7317 46.045 56.4499 46.73 56.0024 47.3032C55.4987 47.9486 54.7923 48.4055 53.9971 48.6001C53.2019 48.7948 52.3643 48.7159 51.6194 48.3762C51.5052 48.3002 51.3711 48.2596 51.234 48.2596C51.0968 48.2596 50.9628 48.3002 50.8487 48.3762L48.4456 50.4921C48.2832 50.6249 48.081 50.6995 47.8712 50.7037" fill="white"/>
<path d="M47.3272 44.628C47.9531 45.6325 48.3695 46.7533 48.5514 47.9228L49.6849 46.9857C50.0538 46.6885 50.4989 46.5012 50.9693 46.445C51.4397 46.3889 51.9164 46.4663 52.3449 46.6684C52.7219 46.8438 53.1474 46.8854 53.5513 46.7865C53.9552 46.6876 54.3133 46.4541 54.5666 46.1243C54.7957 45.8389 54.94 45.4948 54.9828 45.1313C55.0255 44.7678 54.9651 44.3996 54.8084 44.0688C54.6112 43.6258 54.2474 43.2783 53.7958 43.1016C53.3717 42.9342 52.9999 42.657 52.7183 42.2984C52.4368 41.9399 52.2557 41.5128 52.1937 41.0612C52.1267 40.5716 51.872 40.1272 51.4834 39.8219C51.2055 39.599 50.868 39.463 50.5132 39.4308C50.1584 39.3985 49.802 39.4715 49.4884 39.6405C49.1139 39.8359 48.8138 40.1485 48.6336 40.5306C48.4535 40.9127 48.4034 41.3432 48.4909 41.7564C48.5978 42.2294 48.574 42.7226 48.4223 43.1831C48.2706 43.6437 47.9965 44.0543 47.6295 44.3711L47.3272 44.628ZM47.8108 50.6735C47.6746 50.6742 47.54 50.6432 47.4178 50.5828C47.2589 50.5059 47.1248 50.3856 47.0312 50.2359C46.9376 50.0862 46.8883 49.913 46.8888 49.7364C46.9367 48.0523 46.403 46.4031 45.3774 45.0663C45.2143 44.867 45.1333 44.613 45.1508 44.356C45.1725 44.1042 45.2918 43.871 45.4832 43.7061L46.4959 42.8749C46.5969 42.7771 46.6698 42.6539 46.707 42.5183C46.7442 42.3828 46.7443 42.2397 46.7074 42.1041C46.5339 41.293 46.6288 40.4475 46.9777 39.6951C47.3267 38.9427 47.9108 38.3241 48.642 37.9327C49.2745 37.6011 49.9896 37.4603 50.7006 37.5274C51.4116 37.5945 52.0879 37.8665 52.6472 38.3105C53.3906 38.9238 53.8805 39.7906 54.0225 40.7438C54.0369 40.8684 54.0855 40.9865 54.1628 41.0852C54.2402 41.1839 54.3433 41.2593 54.4608 41.303C55.35 41.6625 56.0726 42.3418 56.486 43.2073C56.7878 43.8689 56.9023 44.6007 56.817 45.3229C56.7317 46.045 56.4499 46.73 56.0024 47.3032C55.4987 47.9486 54.7923 48.4055 53.9971 48.6001C53.2019 48.7948 52.3643 48.7159 51.6194 48.3762C51.5052 48.3002 51.3711 48.2596 51.234 48.2596C51.0968 48.2596 50.9628 48.3002 50.8487 48.3762L48.4456 50.4921C48.2672 50.6384 48.0412 50.7137 47.8108 50.7037V50.6735Z" stroke="#D40054" stroke-width="0.25"/>
<path d="M45.2571 58.7895L47.63 60.7543C47.9957 61.0721 48.2688 61.4828 48.4204 61.9431C48.5721 62.4033 48.5967 62.896 48.4915 63.369C48.4029 63.7844 48.4525 64.2172 48.6325 64.6019C48.8126 64.9865 49.1133 65.3019 49.4889 65.5C49.805 65.6631 50.1615 65.7314 50.5155 65.6965C50.8694 65.6617 51.2058 65.5252 51.4839 65.3035C51.8692 65.0019 52.1235 64.5635 52.1942 64.0793C52.2532 63.6266 52.4331 63.1982 52.7151 62.8391C52.997 62.48 53.3705 62.2036 53.7963 62.039C54.0217 61.9504 54.2273 61.818 54.4011 61.6494C54.575 61.4807 54.7136 61.2792 54.809 61.0566C54.9657 60.7258 55.0261 60.3576 54.9833 59.9941C54.9406 59.6306 54.7963 59.2865 54.5671 59.0011C54.3104 58.6757 53.9523 58.4455 53.5498 58.3469C53.1473 58.2483 52.7234 58.2871 52.3454 58.457C51.9165 58.6643 51.4376 58.7458 50.9642 58.6923C50.4908 58.6388 50.0422 58.4525 49.6703 58.1547L47.2672 56.1446C46.7514 57.1335 46.0718 58.0278 45.2571 58.7895ZM50.3202 67.6008C49.7305 67.5948 49.1505 67.4499 48.6274 67.1776C47.8967 66.7817 47.3135 66.1601 46.9649 65.4056C46.6163 64.6512 46.5209 63.8043 46.6929 62.9911C46.7302 62.8579 46.7302 62.7169 46.6929 62.5836C46.6555 62.4504 46.5824 62.33 46.4813 62.2355L43.2017 59.515C43.0926 59.4188 43.0066 59.2993 42.95 59.1653C42.8935 59.0313 42.868 58.8863 42.8752 58.7411C42.8825 58.5958 42.9224 58.4541 42.992 58.3264C43.0616 58.1987 43.1591 58.0884 43.2772 58.0036C44.5574 57.0784 45.5354 55.7954 46.0884 54.3159C46.1443 54.1829 46.2288 54.0638 46.3359 53.9672C46.443 53.8705 46.57 53.7987 46.708 53.7567C46.8463 53.7205 46.9912 53.7181 47.1307 53.7497C47.2701 53.7812 47.3998 53.8458 47.509 53.938L50.8341 56.6887C50.9496 56.7611 51.0831 56.7996 51.2195 56.7996C51.3558 56.7996 51.4894 56.7611 51.6049 56.6887C52.3481 56.3474 53.1846 56.2661 53.9797 56.458C54.7747 56.6499 55.4821 57.1039 55.9878 57.7467C56.4353 58.3198 56.7171 59.0048 56.8024 59.7269C56.8877 60.4491 56.7732 61.1809 56.4714 61.8425C56.0635 62.7154 55.3397 63.4013 54.4462 63.7619C54.3307 63.8045 54.2291 63.8776 54.1519 63.9734C54.0747 64.0692 54.0249 64.1842 54.0079 64.306C53.873 65.2616 53.3817 66.1308 52.6326 66.7393C51.9763 67.265 51.1611 67.5527 50.3202 67.5554" fill="white"/>
<path d="M45.2571 58.7895L47.63 60.7543C47.9957 61.0721 48.2688 61.4828 48.4204 61.9431C48.5721 62.4033 48.5967 62.896 48.4915 63.369C48.4029 63.7844 48.4525 64.2172 48.6325 64.6019C48.8126 64.9865 49.1133 65.3019 49.4889 65.5C49.805 65.6631 50.1615 65.7314 50.5155 65.6965C50.8694 65.6617 51.2058 65.5252 51.4839 65.3035C51.8692 65.0019 52.1235 64.5635 52.1942 64.0793C52.2532 63.6266 52.4331 63.1982 52.7151 62.8391C52.997 62.48 53.3705 62.2036 53.7963 62.039C54.0217 61.9504 54.2273 61.818 54.4011 61.6494C54.575 61.4807 54.7136 61.2792 54.809 61.0566C54.9657 60.7258 55.0261 60.3576 54.9833 59.9941C54.9406 59.6306 54.7963 59.2865 54.5671 59.0011C54.3104 58.6757 53.9523 58.4455 53.5498 58.3469C53.1473 58.2483 52.7234 58.2871 52.3454 58.457C51.9165 58.6643 51.4376 58.7458 50.9642 58.6923C50.4908 58.6388 50.0422 58.4525 49.6703 58.1547L47.2672 56.1446C46.7514 57.1335 46.0718 58.0278 45.2571 58.7895ZM50.3202 67.6008C49.7305 67.5948 49.1505 67.4499 48.6274 67.1776C47.8967 66.7817 47.3135 66.1601 46.9649 65.4056C46.6163 64.6512 46.5209 63.8043 46.6929 62.9911C46.7302 62.8579 46.7302 62.7169 46.6929 62.5836C46.6555 62.4504 46.5824 62.33 46.4813 62.2355L43.2017 59.515C43.0926 59.4188 43.0066 59.2993 42.95 59.1653C42.8935 59.0313 42.868 58.8863 42.8752 58.7411C42.8825 58.5958 42.9224 58.4541 42.992 58.3264C43.0616 58.1987 43.1591 58.0884 43.2772 58.0036C44.5574 57.0784 45.5354 55.7954 46.0884 54.3159C46.1443 54.1829 46.2288 54.0638 46.3359 53.9672C46.443 53.8705 46.57 53.7987 46.708 53.7567C46.8463 53.7205 46.9912 53.7181 47.1307 53.7497C47.2701 53.7812 47.3998 53.8458 47.509 53.938L50.8341 56.6887C50.9496 56.7611 51.0831 56.7996 51.2195 56.7996C51.3558 56.7996 51.4894 56.7611 51.6049 56.6887C52.3481 56.3474 53.1846 56.2661 53.9797 56.458C54.7747 56.6499 55.4821 57.1039 55.9878 57.7467C56.4353 58.3198 56.7171 59.0048 56.8024 59.7269C56.8877 60.4491 56.7732 61.1809 56.4714 61.8425C56.0635 62.7154 55.3397 63.4013 54.4462 63.7619C54.3307 63.8045 54.2291 63.8776 54.1519 63.9734C54.0747 64.0692 54.0249 64.1842 54.0079 64.306C53.873 65.2616 53.3817 66.1308 52.6326 66.7393C51.9824 67.2813 51.1666 67.5852 50.3202 67.6008Z" stroke="#D40054" stroke-width="0.25"/>
<path d="M29.4631 46.4417C30.0158 46.451 30.5489 46.6482 30.9745 47.0009L32.108 47.9379C32.2899 46.7684 32.7063 45.6477 33.3322 44.6431L33.0299 44.3862C32.6629 44.0694 32.3888 43.6587 32.2371 43.1982C32.0853 42.7376 32.0616 42.2445 32.1684 41.7715C32.2534 41.3584 32.2022 40.9288 32.0223 40.5473C31.8425 40.1658 31.5437 39.853 31.171 39.6556C30.8574 39.4866 30.5009 39.4136 30.1461 39.4459C29.7913 39.4781 29.4539 39.6142 29.176 39.837C28.7874 40.1423 28.5327 40.5867 28.4657 41.0763C28.4037 41.528 28.2225 41.955 27.941 42.3135C27.6594 42.6721 27.2876 42.9492 26.8635 43.1166C26.4119 43.2933 26.0482 43.6409 25.8509 44.0839C25.6943 44.4147 25.6338 44.7829 25.6766 45.1464C25.7194 45.5099 25.8636 45.854 26.0928 46.1394C26.3461 46.4691 26.7042 46.7027 27.1081 46.8016C27.512 46.9006 27.9375 46.8589 28.3145 46.6835C28.6605 46.5244 29.0369 46.4419 29.4177 46.4417M32.8486 50.7188C32.6389 50.7145 32.4366 50.6401 32.2743 50.5072L29.8258 48.4669C29.7117 48.3908 29.5776 48.3503 29.4404 48.3503C29.3033 48.3503 29.1692 48.3908 29.055 48.4669C28.3102 48.8066 27.4726 48.8855 26.6774 48.6908C25.8822 48.4961 25.1758 48.0392 24.6721 47.3938C24.2246 46.8207 23.9428 46.1357 23.8575 45.4136C23.7722 44.6914 23.8867 43.9597 24.1885 43.298C24.6019 42.4325 25.3244 41.7532 26.2137 41.3937C26.3312 41.3499 26.4344 41.2745 26.5117 41.1759C26.5891 41.0772 26.6376 40.9591 26.652 40.8345C26.794 39.8813 27.2839 39.0145 28.0273 38.4012C28.5866 37.9572 29.2628 37.6851 29.9738 37.6181C30.6848 37.551 31.4 37.6918 32.0325 38.0233C32.762 38.4166 33.3447 39.0355 33.6934 39.7874C34.0421 40.5392 34.138 41.3838 33.967 42.1947C33.9301 42.3304 33.9303 42.4735 33.9675 42.609C34.0047 42.7446 34.0776 42.8677 34.1786 42.9655L35.1912 43.7968C35.3767 43.9663 35.4948 44.197 35.5237 44.4466C35.5413 44.7036 35.4602 44.9577 35.297 45.157C34.2715 46.4937 33.7377 48.143 33.7856 49.8271C33.7862 50.0037 33.7368 50.1768 33.6432 50.3266C33.5496 50.4763 33.4156 50.5966 33.2567 50.6735C33.1345 50.7338 33 50.7649 32.8637 50.7641" fill="white"/>
<path d="M29.4637 46.4417C30.0163 46.451 30.5494 46.6482 30.975 47.0009L32.1085 47.9379C32.2904 46.7684 32.7068 45.6477 33.3328 44.6431L33.0305 44.3862C32.6634 44.0694 32.3893 43.6587 32.2376 43.1982C32.0859 42.7376 32.0621 42.2445 32.169 41.7715C32.2539 41.3584 32.2027 40.9288 32.0229 40.5473C31.843 40.1658 31.5443 39.853 31.1715 39.6556C30.8579 39.4866 30.5014 39.4136 30.1467 39.4459C29.7919 39.4781 29.4545 39.6142 29.1765 39.837C28.7879 40.1423 28.5332 40.5867 28.4662 41.0763C28.4042 41.528 28.223 41.955 27.9415 42.3135C27.66 42.6721 27.2881 42.9492 26.8641 43.1166C26.4125 43.2933 26.0487 43.6409 25.8515 44.0839C25.6948 44.4147 25.6344 44.7829 25.6771 45.1464C25.7199 45.5099 25.8642 45.854 26.0933 46.1394C26.3466 46.4691 26.7047 46.7027 27.1086 46.8016C27.5125 46.9006 27.938 46.8589 28.315 46.6835C28.6749 46.5179 29.0675 46.4352 29.4637 46.4417ZM32.8945 50.7188C32.6848 50.7145 32.4825 50.6401 32.3202 50.5072L29.8718 48.4669C29.7576 48.3908 29.6235 48.3503 29.4864 48.3503C29.3492 48.3503 29.2151 48.3908 29.1009 48.4669C28.3561 48.8066 27.5185 48.8855 26.7233 48.6908C25.9281 48.4961 25.2216 48.0392 24.7179 47.3938C24.2704 46.8207 23.9887 46.1357 23.9034 45.4136C23.8181 44.6914 23.9325 43.9597 24.2343 43.298C24.6478 42.4325 25.3703 41.7532 26.2596 41.3937C26.3771 41.3499 26.4802 41.2745 26.5575 41.1759C26.6349 41.0772 26.6834 40.9591 26.6978 40.8345C26.8398 39.8813 27.3298 39.0145 28.0732 38.4012C28.6325 37.9572 29.3087 37.6851 30.0197 37.6181C30.7307 37.551 31.4458 37.6918 32.0783 38.0233C32.8078 38.4166 33.3905 39.0355 33.7392 39.7874C34.0879 40.5392 34.1839 41.3838 34.0129 42.1947C33.976 42.3304 33.9761 42.4735 34.0133 42.609C34.0506 42.7446 34.1235 42.8677 34.2245 42.9655L35.2371 43.7968C35.4226 43.9663 35.5406 44.197 35.5695 44.4466C35.5871 44.7036 35.5061 44.9577 35.3429 45.157C34.3174 46.4937 33.7836 48.143 33.8315 49.8271C33.8321 50.0037 33.7827 50.1768 33.6891 50.3266C33.5955 50.4763 33.4615 50.5966 33.3025 50.6735C33.1708 50.7156 33.031 50.726 32.8945 50.7037V50.7188Z" stroke="#D40054" stroke-width="0.25"/>
</g>
</svg>
