<svg width="76" height="77" viewBox="0 0 76 77" fill="none" xmlns="http://www.w3.org/2000/svg">
<g clip-path="url(#clip0_21_6050)">
<mask id="mask0_21_6050" style="mask-type:luminance" maskUnits="userSpaceOnUse" x="0" y="0" width="76" height="77">
<path d="M76 0H0V77H76V0Z" fill="white"/>
</mask>
<g mask="url(#mask0_21_6050)">
<path d="M0.774931 12.888C0.67388 12.8899 0.573446 12.8718 0.479511 12.8345C0.385577 12.7973 0.299999 12.7416 0.227841 12.671C0.155682 12.6003 0.0983334 12.516 0.0592113 12.4229C0.0200892 12.3298 -1.94171e-05 12.2299 1.40691e-08 12.129V0.759064C-1.94171e-05 0.658127 0.0200892 0.558196 0.0592113 0.465128C0.0983334 0.372059 0.155682 0.287693 0.227841 0.217017C0.299999 0.14634 0.385577 0.0907728 0.479511 0.0535172C0.573446 0.0162617 0.67388 -0.0019172 0.774931 6.19416e-05H12.3537C12.5258 0.0346127 12.6807 0.127604 12.7919 0.263251C12.9032 0.398898 12.964 0.568833 12.964 0.744167C12.964 0.919501 12.9032 1.08944 12.7919 1.22508C12.6807 1.36073 12.5258 1.45372 12.3537 1.48827H1.4902V12.0992C1.49022 12.2002 1.47011 12.3001 1.43098 12.3932C1.39186 12.4862 1.33451 12.5705 1.26236 12.6412C1.1902 12.7119 1.10462 12.7675 1.01068 12.8048C0.91675 12.842 0.816317 12.8602 0.715265 12.8582" fill="white"/>
<path d="M75.2242 77H63.6455C63.4733 76.9654 63.3185 76.8725 63.2072 76.7368C63.096 76.6012 63.0352 76.4312 63.0352 76.2559C63.0352 76.0806 63.096 75.9106 63.2072 75.775C63.3185 75.6393 63.4733 75.5463 63.6455 75.5118H74.509V64.9008C74.5089 64.7999 74.529 64.7 74.5682 64.6069C74.6073 64.5138 74.6646 64.4295 74.7368 64.3588C74.809 64.2882 74.8945 64.2326 74.9885 64.1953C75.0824 64.158 75.1828 64.1399 75.2839 64.1419C75.3849 64.1399 75.4854 64.158 75.5793 64.1953C75.6732 64.2326 75.7587 64.2882 75.8309 64.3588C75.903 64.4295 75.9604 64.5138 75.9995 64.6069C76.0386 64.7 76.0587 64.7999 76.0587 64.9008V76.2708C76.0587 76.3717 76.0386 76.4717 75.9995 76.5647C75.9604 76.6578 75.903 76.7421 75.8309 76.8128C75.7587 76.8835 75.6732 76.9391 75.5793 76.9763C75.4854 77.0136 75.3849 77.0318 75.2839 77.0298" fill="white"/>
<path d="M51.7697 47.6823C51.655 47.6811 51.5418 47.6568 51.4368 47.6107C51.3318 47.5647 51.2372 47.4979 51.1587 47.4144C51.0006 47.2416 50.9129 47.016 50.9129 46.7819C50.9129 46.5478 51.0006 46.3222 51.1587 46.1494L54.1391 42.9795L32.9783 20.6564L29.9979 23.8263C29.9238 23.9114 29.8322 23.9797 29.7293 24.0265C29.6265 24.0733 29.5148 24.0975 29.4018 24.0975C29.2888 24.0975 29.1771 24.0733 29.0743 24.0265C28.9714 23.9797 28.8799 23.9114 28.8058 23.8263C28.641 23.6568 28.5488 23.4299 28.5488 23.1938C28.5488 22.9576 28.641 22.7307 28.8058 22.5613L32.3971 18.7515C32.475 18.67 32.5687 18.6051 32.6724 18.5608C32.7762 18.5164 32.8879 18.4936 33.0007 18.4936C33.1135 18.4936 33.2251 18.5164 33.3288 18.5608C33.4326 18.6051 33.5262 18.67 33.6042 18.7515L55.9571 42.3842C56.1163 42.5594 56.2045 42.7876 56.2045 43.0242C56.2045 43.2608 56.1163 43.4889 55.9571 43.6641L52.3509 47.459C52.2764 47.5436 52.1847 47.6112 52.0819 47.6574C51.9791 47.7036 51.8675 47.7273 51.7547 47.7269" fill="white"/>
<path d="M38.0886 62.3114C37.8691 62.3067 37.6603 62.2158 37.5074 62.0584C37.3556 61.8913 37.2715 61.6738 37.2715 61.4482C37.2715 61.2226 37.3556 61.0051 37.5074 60.8381L40.2941 57.8616C40.3667 57.7817 40.4553 57.7179 40.5541 57.6742C40.6529 57.6305 40.7598 57.6079 40.8678 57.6079C40.9759 57.6079 41.0827 57.6305 41.1815 57.6742C41.2803 57.7179 41.3689 57.7817 41.4416 57.8616C41.5934 58.0287 41.6775 58.2462 41.6775 58.4718C41.6775 58.6974 41.5934 58.9149 41.4416 59.0819L38.6549 62.0584C38.5831 62.1372 38.4957 62.2004 38.3982 62.2439C38.3008 62.2875 38.1954 62.3104 38.0886 62.3114Z" fill="white"/>
<path d="M20.5341 73.726C18.3246 73.7157 16.1407 73.252 14.1181 72.3636C12.0955 71.4753 10.2774 70.1813 8.77643 68.5619C6.43678 66.0503 4.85217 62.9318 4.20388 59.5631C3.5556 56.1944 3.86978 52.7115 5.11051 49.5128C5.14824 49.4048 5.20786 49.3057 5.2856 49.2216C5.36334 49.1376 5.45753 49.0705 5.56238 49.0244C5.66722 48.9784 5.78045 48.9543 5.895 48.9539C6.00954 48.9534 6.12294 48.9765 6.22816 49.0217C6.44185 49.1164 6.60986 49.291 6.69621 49.5079C6.78256 49.7249 6.78038 49.9671 6.69012 50.1825C5.57824 53.0557 5.29606 56.183 5.87562 59.2085C6.45519 62.234 7.87326 65.0364 9.96857 67.2969C11.9797 69.4743 14.6165 70.9765 17.5169 71.5974C20.4172 72.2183 23.4389 71.9273 26.167 70.7644C26.2712 70.7194 26.3836 70.6964 26.4971 70.6971C26.6106 70.6977 26.7227 70.7219 26.8264 70.768C26.9301 70.8142 27.0231 70.8814 27.0994 70.9653C27.1757 71.0492 27.2337 71.148 27.2697 71.2555C27.3568 71.4734 27.3575 71.7162 27.2717 71.9347C27.1859 72.1531 27.02 72.3306 26.8078 72.4312C24.8245 73.2783 22.6911 73.7186 20.5341 73.726Z" fill="white"/>
<path d="M15.5124 38.4702C15.4032 38.4714 15.295 38.4494 15.1948 38.4058C15.0947 38.3622 15.0049 38.2979 14.9313 38.2172C14.7795 38.0502 14.6953 37.8327 14.6953 37.6071C14.6953 37.3815 14.7795 37.1639 14.9313 36.9969L17.718 34.0205C17.7906 33.9406 17.8791 33.8767 17.9779 33.833C18.0768 33.7893 18.1837 33.7668 18.2917 33.7668C18.3998 33.7668 18.5066 33.7893 18.6054 33.833C18.7042 33.8767 18.7928 33.9406 18.8654 34.0205C19.0238 34.1842 19.1124 34.403 19.1124 34.6306C19.1124 34.8583 19.0238 35.0771 18.8654 35.2408L16.0936 38.2172C16.0201 38.2979 15.9303 38.3622 15.8302 38.4058C15.73 38.4494 15.6217 38.4714 15.5124 38.4702Z" fill="white"/>
<path d="M39.5937 24.8531L50.1591 36.0147L66.9238 18.2901L56.3584 7.14339L39.5937 24.8531ZM50.1591 38.247C50.0441 38.2476 49.9304 38.2241 49.8251 38.1779C49.7198 38.1318 49.6255 38.0641 49.5482 37.9791L37.7905 25.5525C37.6252 25.3807 37.5343 25.1509 37.5372 24.9126C37.5374 24.675 37.6279 24.4462 37.7905 24.2727L55.7622 5.29803C55.839 5.21459 55.9323 5.14799 56.0362 5.10242C56.1401 5.05685 56.2524 5.03329 56.3658 5.03329C56.4793 5.03329 56.5915 5.05685 56.6953 5.10242C56.7992 5.14799 56.8925 5.21459 56.9693 5.29803L68.727 17.7246C68.8084 17.807 68.8727 17.9046 68.9162 18.0119C68.9596 18.1191 68.9814 18.2339 68.9803 18.3496C68.9825 18.4677 68.9614 18.5851 68.9179 18.695C68.8744 18.8048 68.8095 18.9049 68.727 18.9896L50.7552 37.9791C50.6796 38.0622 50.5876 38.1289 50.4851 38.175C50.3825 38.2211 50.2715 38.2456 50.1591 38.247Z" fill="white"/>
<path d="M47.4028 23.7072C47.2904 23.7058 47.1795 23.6812 47.0769 23.6352C46.9744 23.5891 46.8824 23.5224 46.8067 23.4393C46.6496 23.269 46.5625 23.0458 46.5625 22.8142C46.5625 22.5827 46.6496 22.3596 46.8067 22.1892L59.3244 9.01856C59.401 8.93748 59.4934 8.87291 59.5959 8.82876C59.6984 8.78462 59.8089 8.76182 59.9205 8.76182C60.0321 8.76182 60.1425 8.78462 60.245 8.82876C60.3475 8.87291 60.4399 8.93748 60.5165 9.01856L65.151 13.885C65.3091 14.0578 65.3969 14.2834 65.3969 14.5175C65.3969 14.7516 65.3091 14.9772 65.151 15.15L60.6804 19.7783C60.6037 19.8618 60.5105 19.9284 60.4066 19.9739C60.3027 20.0195 60.1904 20.043 60.077 20.043C59.9635 20.043 59.8512 20.0195 59.7473 19.9739C59.6434 19.9284 59.5502 19.8618 59.4734 19.7783C59.3153 19.6055 59.2276 19.3799 59.2276 19.1458C59.2276 18.9117 59.3153 18.6861 59.4734 18.5133L63.2735 14.525L59.8459 10.9086L47.9244 23.4393C47.847 23.5243 47.7527 23.592 47.6474 23.6382C47.5421 23.6843 47.4284 23.7078 47.3134 23.7072" fill="white"/>
<path d="M49.6837 31.1929C49.5723 31.1943 49.4617 31.1725 49.359 31.1289C49.2564 31.0854 49.164 31.021 49.0876 30.9399C48.9367 30.7666 48.8535 30.5446 48.8535 30.3148C48.8535 30.0851 48.9367 29.8631 49.0876 29.6898L54.9143 23.5286C54.9896 23.4479 55.0807 23.3836 55.1819 23.3396C55.2832 23.2956 55.3925 23.273 55.5029 23.273C55.6133 23.273 55.7226 23.2956 55.8239 23.3396C55.9252 23.3836 56.0163 23.4479 56.0916 23.5286C56.2487 23.699 56.3359 23.922 56.3359 24.1536C56.3359 24.3852 56.2487 24.6083 56.0916 24.7787L50.2649 30.9399C50.1913 31.0206 50.1015 31.0849 50.0014 31.1285C49.9012 31.1721 49.793 31.194 49.6837 31.1929Z" fill="white"/>
<path d="M34.4685 49.3342C34.2688 49.5521 34.0259 49.7261 33.7552 49.8452C33.4846 49.9642 33.1921 50.0257 32.8964 50.0257C32.6006 50.0257 32.3081 49.9642 32.0374 49.8452C31.7667 49.7261 31.5239 49.5521 31.3242 49.3342C30.9 48.8796 30.6641 48.2813 30.6641 47.6599C30.6641 47.0385 30.9 46.4403 31.3242 45.9857C31.5239 45.7678 31.7667 45.5938 32.0374 45.4747C32.3081 45.3557 32.6006 45.2942 32.8964 45.2942C33.1921 45.2942 33.4846 45.3557 33.7552 45.4747C34.0259 45.5938 34.2688 45.7678 34.4685 45.9857C34.8863 46.4435 35.1179 47.0405 35.1179 47.6599C35.1179 48.2793 34.8863 48.8764 34.4685 49.3342Z" fill="white"/>
<path d="M30.4143 45.0481C30.2147 45.266 29.9718 45.44 29.7011 45.5591C29.4305 45.6782 29.1379 45.7396 28.8422 45.7396C28.5464 45.7396 28.254 45.6782 27.9833 45.5591C27.7126 45.44 27.4697 45.266 27.27 45.0481C26.8468 44.596 26.6113 44.0002 26.6113 43.3813C26.6113 42.7624 26.8468 42.1666 27.27 41.7145C27.4697 41.4966 27.7126 41.3226 27.9833 41.2036C28.254 41.0845 28.5464 41.023 28.8422 41.023C29.1379 41.023 29.4305 41.0845 29.7011 41.2036C29.9718 41.3226 30.2147 41.4966 30.4143 41.7145C30.8375 42.1666 31.073 42.7624 31.073 43.3813C31.073 44.0002 30.8375 44.596 30.4143 45.0481Z" fill="white"/>
<path d="M30.684 38.0386C29.6553 38.0987 28.6498 38.3688 27.7297 38.8321C26.8095 39.2954 25.9942 39.9421 25.3341 40.7323C23.5543 42.5626 22.4102 44.9154 22.0706 47.4441C21.9016 48.4712 21.9622 49.5229 22.2482 50.5238C22.5342 51.5246 23.0384 52.4499 23.7247 53.2333C26.5411 56.2097 31.8462 55.4358 35.5419 51.5218C36.342 50.7731 36.9817 49.87 37.4222 48.8673C37.8628 47.8646 38.0951 46.783 38.1051 45.688C37.9959 43.7272 37.1623 41.8765 35.7655 40.4942C35.143 39.7565 34.3739 39.156 33.5068 38.7307C32.6398 38.3055 31.6937 38.0647 30.7286 38.0237M28.1655 56.8199C27.1145 56.844 26.0699 56.6502 25.0977 56.2506C24.1256 55.8509 23.2471 55.2543 22.5176 54.4982C21.6441 53.519 20.9998 52.358 20.6312 51.0993C20.2627 49.8406 20.1791 48.5158 20.3867 47.2209C20.7706 44.3032 22.0816 41.5856 24.1271 39.4673C28.1655 35.211 33.0682 35.1217 36.9576 39.2292C38.6769 40.93 39.693 43.2143 39.804 45.6285C39.8035 46.9589 39.5399 48.2761 39.0285 49.5045C38.517 50.7329 37.7677 51.8483 36.8236 52.7868C35.7386 54.0018 34.419 54.9853 32.944 55.6784C31.469 56.3714 29.869 56.7597 28.24 56.8199" fill="white"/>
<path d="M12.8748 41.5657H12.6662C12.2541 41.619 11.8652 41.7868 11.5438 42.0499C11.2224 42.313 10.9814 42.6608 10.8482 43.0539C10.6396 43.6003 10.6396 44.2042 10.8482 44.7505C11.0401 45.1903 11.1147 45.6722 11.0651 46.1494C11.0155 46.6266 10.8433 47.0828 10.565 47.4739C10.2395 47.9538 10.1016 48.5363 10.1776 49.111C10.2203 49.5332 10.3834 49.9343 10.6475 50.2666C10.9117 50.599 11.2658 50.8487 11.6678 50.9861C12.1241 51.1403 12.6194 51.1343 13.0719 50.9693C13.5244 50.8042 13.907 50.4899 14.1564 50.0783C14.3995 49.6504 14.7603 49.3011 15.1961 49.0716C15.6318 48.8422 16.1244 48.7422 16.6152 48.7836L20.0427 49.1705C19.9551 47.829 20.1117 46.4827 20.5046 45.197L17.0175 44.81C16.5266 44.7354 16.0661 44.5262 15.6872 44.2056C15.3084 43.885 15.026 43.4657 14.8716 42.9944C14.7289 42.5649 14.4554 42.1907 14.0894 41.9239C13.7234 41.6571 13.2832 41.511 12.8301 41.5062M12.3532 52.8612C11.9486 52.854 11.5472 52.7888 11.1611 52.6678C10.4472 52.4082 9.82034 51.9542 9.35153 51.3571C8.88273 50.7601 8.59074 50.0438 8.50857 49.2895C8.36328 48.2428 8.61869 47.1799 9.22383 46.3131C9.31749 46.1774 9.37481 46.02 9.39046 45.856C9.40611 45.6919 9.37956 45.5265 9.31324 45.3755C8.93348 44.4263 8.89138 43.3756 9.194 42.3991C9.42613 41.6831 9.85788 41.0481 10.4385 40.5683C11.0192 40.0886 11.7247 39.7841 12.4725 39.6906C13.3298 39.6175 14.187 39.8327 14.9078 40.3018C15.6287 40.771 16.172 41.4673 16.4512 42.2801C16.4986 42.4525 16.5936 42.6082 16.7254 42.7293C16.8572 42.8503 17.0203 42.9319 17.1963 42.9646L21.7563 43.4706C21.8871 43.489 22.0118 43.5376 22.1204 43.6126C22.2291 43.6875 22.3187 43.7867 22.3823 43.9022C22.4409 44.0281 22.4712 44.1652 22.4712 44.304C22.4712 44.4428 22.4409 44.58 22.3823 44.7059C21.6952 46.3563 21.4886 48.1669 21.7862 49.9295C21.8166 50.0657 21.8136 50.2073 21.7773 50.3421C21.7409 50.4769 21.6724 50.6008 21.5775 50.7034C21.4933 50.8086 21.383 50.89 21.2575 50.9396C21.1321 50.9892 20.9958 51.0053 20.8623 50.9861L16.3917 50.4801C16.2182 50.474 16.0465 50.5169 15.8962 50.6037C15.746 50.6906 15.6233 50.8179 15.5423 50.9712C15.2096 51.529 14.7386 51.9917 14.1748 52.315C13.6111 52.6382 12.9735 52.8109 12.3235 52.8166" fill="white"/>
<path d="M38.1642 51.254L39.9525 51.4623C40.4414 51.5316 40.9008 51.7375 41.2778 52.056C41.6547 52.3746 41.934 52.793 42.0834 53.2631C42.2188 53.696 42.4892 54.0745 42.8551 54.3432C43.221 54.6119 43.6633 54.7569 44.1175 54.7569C44.5717 54.7569 45.0141 54.6119 45.38 54.3432C45.7459 54.0745 46.0163 53.696 46.1516 53.2631C46.3524 52.7204 46.3524 52.124 46.1516 51.5814C45.9605 51.1422 45.8849 50.6615 45.9318 50.1849C45.9787 49.7083 46.1468 49.2515 46.42 48.8579C46.7588 48.3837 46.9028 47.7979 46.8222 47.2209C46.777 46.7978 46.6132 46.396 46.3496 46.0617C46.086 45.7273 45.7333 45.474 45.332 45.3309C44.8739 45.1808 44.3784 45.1903 43.9263 45.3579C43.4743 45.5255 43.0926 45.8413 42.8434 46.2536C42.6008 46.6775 42.2417 47.0232 41.8087 47.25C41.3756 47.4768 40.8867 47.5751 40.3995 47.5334H39.8332C39.5799 48.9167 39.0255 50.2274 38.209 51.373M44.1697 56.6264C43.3735 56.615 42.6001 56.3589 41.9548 55.8929C41.3095 55.4269 40.8237 54.7736 40.5634 54.022C40.518 53.8526 40.4252 53.6997 40.2959 53.5811C40.1666 53.4625 40.0061 53.3831 39.8332 53.3523L36.4654 52.9654C36.3049 52.9467 36.1534 52.8819 36.0291 52.7789C35.9047 52.6759 35.813 52.539 35.765 52.385C35.7077 52.2295 35.694 52.0614 35.7255 51.8987C35.7571 51.7361 35.8326 51.5852 35.9438 51.4623C37.2657 50.1184 38.0907 48.3656 38.2835 46.4917C38.2978 46.2526 38.4047 46.0285 38.5815 45.8667C38.6664 45.7924 38.766 45.7368 38.8738 45.7034C38.9817 45.6701 39.0953 45.6598 39.2074 45.6732L40.5932 45.822C40.7667 45.8281 40.9384 45.7852 41.0887 45.6984C41.2389 45.6115 41.3616 45.4842 41.4427 45.3309C41.8814 44.5819 42.5677 44.0089 43.3834 43.7102C44.1992 43.4115 45.0937 43.4057 45.9132 43.6938C46.6281 43.9519 47.2558 44.4055 47.7249 45.0029C48.1939 45.6002 48.4854 46.3173 48.5658 47.0721C48.6768 48.0954 48.4177 49.1247 47.8356 49.9741C47.7406 50.1092 47.6824 50.2667 47.6668 50.4311C47.6511 50.5954 47.6784 50.761 47.7462 50.9117C48.1463 51.8565 48.1887 52.9144 47.8654 53.8881C47.6425 54.6067 47.2154 55.2452 46.6361 55.726C46.0567 56.2068 45.3501 56.5093 44.6019 56.5966H44.2293" fill="white"/>
<path d="M27.4951 57.1026L27.8676 60.719C27.9175 61.2227 27.8302 61.7305 27.6151 62.1889C27.4001 62.6473 27.0652 63.0392 26.6457 63.3233C26.2425 63.6159 25.942 64.0279 25.7869 64.5008C25.6317 64.9737 25.6297 65.4834 25.7813 65.9575C25.8973 66.3622 26.1276 66.7248 26.4448 67.002C26.762 67.2792 27.1526 67.459 27.5696 67.5201C27.8342 67.5503 28.1022 67.5277 28.358 67.4536C28.6138 67.3795 28.8524 67.2554 29.0598 67.0885C29.4157 66.8026 29.846 66.6241 30.3 66.574C30.7541 66.5239 31.213 66.6043 31.6229 66.8057C31.875 66.9126 32.1462 66.9677 32.4202 66.9677C32.6941 66.9677 32.9652 66.9126 33.2174 66.8057C33.626 66.6609 33.9841 66.4013 34.2484 66.0581C34.5128 65.7149 34.6722 65.3027 34.7076 64.8711C34.7615 64.3822 34.6576 63.889 34.411 63.4633C34.1643 63.0376 33.7879 62.7018 33.3366 62.5048C32.8732 62.3172 32.4693 62.0079 32.1676 61.6097C31.8659 61.2114 31.6776 60.7391 31.6229 60.2427L31.2503 56.552C30.0429 56.9601 28.767 57.127 27.4951 57.0431M27.8378 69.2613H27.3609C26.6153 69.1472 25.9182 68.8213 25.3528 68.3226C24.7874 67.8239 24.3775 67.1734 24.1719 66.4486C23.904 65.6138 23.9037 64.7164 24.1708 63.8814C24.4379 63.0464 24.9592 62.3155 25.6621 61.7905C25.816 61.697 25.9408 61.5626 26.0224 61.4022C26.104 61.2419 26.1393 61.0619 26.1241 60.8827L25.6473 56.1204C25.6329 55.9842 25.6495 55.8465 25.6959 55.7176C25.7424 55.5888 25.8175 55.4721 25.9155 55.3763C26.0136 55.2835 26.1321 55.215 26.2615 55.1762C26.3909 55.1375 26.5275 55.1295 26.6606 55.1531C28.3296 55.4689 30.0559 55.2501 31.5931 54.528C31.71 54.4655 31.8405 54.4328 31.9731 54.4328C32.1057 54.4328 32.2363 54.4655 32.3531 54.528C32.4659 54.6027 32.5605 54.7016 32.6301 54.8174C32.6997 54.9333 32.7425 55.0632 32.7554 55.1977L33.2472 60.0195C33.2686 60.198 33.3402 60.3668 33.4536 60.5063C33.567 60.6459 33.7175 60.7506 33.888 60.8083C34.6295 61.1453 35.2565 61.6911 35.6921 62.3787C36.1276 63.0663 36.3529 63.8658 36.3402 64.6794C36.3276 65.4929 36.0776 66.2851 35.6209 66.9588C35.1641 67.6326 34.5204 68.1587 33.7687 68.4726C33.3124 68.6433 32.8261 68.7194 32.3393 68.6963C31.8525 68.6733 31.3756 68.5516 30.9374 68.3386C30.7963 68.2701 30.6383 68.2435 30.4825 68.2619C30.3266 68.2804 30.1794 68.3432 30.0582 68.4428C29.4085 68.9541 28.6054 69.2319 27.7782 69.2315" fill="white"/>
<path d="M24.4402 29.3624C24.1912 29.3674 23.9445 29.4127 23.7099 29.4963C23.3013 29.6411 22.9433 29.9008 22.679 30.244C22.4146 30.5872 22.2551 30.9994 22.2197 31.431C22.1658 31.9198 22.2698 32.4131 22.5164 32.8388C22.7631 33.2645 23.1395 33.6003 23.5908 33.7972C24.056 33.9821 24.4616 34.2906 24.7637 34.6894C25.0658 35.0882 25.2528 35.5619 25.3044 36.0593L25.4982 37.9494C26.5489 37.0919 27.791 36.4997 29.1193 36.223V35.6278C29.0754 35.1268 29.1654 34.6231 29.3801 34.1682C29.5948 33.7132 29.9265 33.3233 30.3413 33.0382C30.7432 32.7482 31.0432 32.3388 31.1984 31.8684C31.3536 31.3981 31.3561 30.8909 31.2057 30.419C31.0932 30.0136 30.8661 29.6492 30.5516 29.3694C30.2371 29.0897 29.8485 28.9064 29.4323 28.8415C28.8984 28.7871 28.3641 28.9418 27.9421 29.2731C27.5831 29.5586 27.1503 29.7368 26.694 29.7868C26.2378 29.8369 25.7767 29.7568 25.3641 29.5558C25.0947 29.4261 24.7989 29.3599 24.4998 29.3624M24.9468 40.5984C24.8486 40.6193 24.747 40.6193 24.6488 40.5984C24.4995 40.5398 24.37 40.4402 24.275 40.3112C24.1801 40.1821 24.1237 40.0289 24.1123 39.8692L23.7398 36.3123C23.7196 36.1356 23.6503 35.968 23.5397 35.8286C23.429 35.6892 23.2816 35.5836 23.1139 35.5236C22.3101 35.1766 21.6381 34.5824 21.1959 33.8276C20.7536 33.0727 20.5641 32.1966 20.655 31.3268C20.7146 30.569 20.9866 29.8433 21.4399 29.2327C21.8932 28.6221 22.5095 28.1513 23.2182 27.8741C23.6743 27.7045 24.1597 27.6277 24.6459 27.6482C25.1322 27.6686 25.6094 27.7859 26.0495 27.9932C26.1934 28.0613 26.3535 28.0876 26.5116 28.0692C26.6697 28.0507 26.8194 27.9883 26.9437 27.889C27.3279 27.5879 27.768 27.3657 28.2386 27.2355C28.7093 27.1052 29.201 27.0693 29.6856 27.13C30.4319 27.2424 31.1299 27.5677 31.6956 28.0666C32.2613 28.5656 32.6707 29.2171 32.8747 29.9428C33.1483 30.7748 33.1516 31.6719 32.8839 32.5059C32.6163 33.3398 32.0914 34.0679 31.3845 34.586C31.2329 34.6819 31.11 34.8168 31.0287 34.9766C30.9474 35.1363 30.9107 35.315 30.9225 35.4938L31.0715 36.982C31.0925 37.2215 31.0234 37.4603 30.8778 37.6517C30.8092 37.7426 30.7218 37.8176 30.6215 37.8715C30.5211 37.9255 30.4104 37.9571 30.2967 37.9643C28.479 38.1904 26.8055 39.0683 25.5876 40.4346C25.4347 40.592 25.226 40.683 25.0065 40.6877" fill="white"/>
</g>
</g>
<defs>
<clipPath id="clip0_21_6050">
<rect width="76" height="77" fill="white"/>
</clipPath>
</defs>
</svg>
