<svg width="100" height="100" viewBox="0 0 100 100" fill="none" xmlns="http://www.w3.org/2000/svg">
<path d="M5.93574 19.989C5.81746 19.9906 5.69997 19.9688 5.5901 19.9249C5.48024 19.8811 5.38014 19.816 5.29542 19.7334C5.21071 19.6508 5.14305 19.5524 5.09639 19.4437C5.04972 19.335 5.02494 19.2182 5.02344 19.0999V5.87789C5.02949 5.64102 5.12868 5.41609 5.29944 5.25181C5.4702 5.08754 5.69881 4.99719 5.93574 5.0003H19.5503C19.668 4.99723 19.7852 5.01755 19.895 5.06014C20.0048 5.10273 20.1051 5.16671 20.1899 5.24836C20.2748 5.33001 20.3426 5.42771 20.3894 5.53578C20.4362 5.64385 20.4611 5.76013 20.4625 5.87789C20.461 5.99618 20.4363 6.11303 20.3896 6.22174C20.3429 6.33044 20.2753 6.42888 20.1906 6.51145C20.1059 6.59402 20.0057 6.65908 19.8959 6.70294C19.786 6.7468 19.6686 6.76861 19.5503 6.76708H6.84798V19.0999C6.84799 19.2176 6.82459 19.3342 6.77919 19.4428C6.73378 19.5515 6.66725 19.65 6.58346 19.7327C6.49967 19.8155 6.40032 19.8807 6.29111 19.9247C6.18189 19.9687 6.06496 19.9906 5.94723 19.989" fill="#D40054"/>
<path d="M93.2578 94.5403H79.6779C79.5596 94.5418 79.4422 94.52 79.3323 94.4762C79.2224 94.4323 79.1223 94.3672 79.0375 94.2846C78.9528 94.2021 78.8852 94.1036 78.8386 93.9949C78.7919 93.8862 78.7671 93.7694 78.7656 93.6511C78.7671 93.5333 78.792 93.4171 78.8388 93.309C78.8856 93.2009 78.9534 93.1032 79.0382 93.0216C79.1231 92.9399 79.2233 92.8759 79.3331 92.8334C79.4429 92.7908 79.5601 92.7704 79.6779 92.7735H92.3802V80.4291C92.4054 80.2063 92.5117 80.0006 92.6789 79.8513C92.8461 79.7019 93.0625 79.6193 93.2867 79.6193C93.5109 79.6193 93.7272 79.7019 93.8944 79.8513C94.0616 80.0006 94.168 80.2063 94.1932 80.4291V93.6511C94.1901 93.888 94.0939 94.1141 93.9253 94.2805C93.7567 94.447 93.5293 94.5403 93.2924 94.5403" fill="#D40054"/>
<path d="M39.4011 73.2581C39.7012 73.2564 39.9935 73.3538 40.2325 73.5352C43.8831 76.0817 48.2547 77.3891 52.704 77.2651H52.8772C57.329 77.3819 61.7021 76.0752 65.3601 73.5352C65.5632 73.3778 65.8073 73.2822 66.0632 73.2597C66.3191 73.2372 66.5761 73.2887 66.8035 73.4082C70.7644 75.4406 74.2979 75.8332 77.2772 74.5629C79.3574 73.6143 81.1241 72.092 82.3697 70.1748C80.5268 71.1203 78.4694 71.5696 76.4001 71.4785C74.3307 71.3874 72.3208 70.759 70.5681 69.6552C70.2741 69.481 70.057 69.2019 69.9606 68.8741C69.8642 68.5462 69.8955 68.1941 70.0484 67.8884C70.8608 66.2264 71.4175 64.4511 71.6997 62.6227C71.7416 62.3314 71.8768 62.0614 72.0849 61.8532C72.2931 61.645 72.5631 61.5099 72.8545 61.468C77.9123 60.9021 81.4228 59.1584 83.2473 56.1445C84.4388 54.0934 84.9898 51.7328 84.8294 49.3661C83.751 51.5189 82.0616 53.3059 79.9727 54.5034C77.8838 55.7009 75.4881 56.2557 73.0854 56.0984C72.7659 56.089 72.4598 55.9686 72.2195 55.7578C71.9792 55.547 71.8199 55.2591 71.769 54.9436C71.5799 53.2858 71.2319 51.6501 70.7297 50.059C70.636 49.7621 70.6467 49.442 70.7602 49.1521C70.8736 48.8622 71.0829 48.6198 71.3533 48.4654C75.0023 46.3637 77.1271 43.7309 77.7507 40.6361C78.1063 38.4166 77.8384 36.1418 76.9769 34.0656C76.6881 36.2563 75.8061 38.3264 74.4262 40.0522C73.0464 41.778 71.2211 43.094 69.1477 43.8579C68.8566 43.9753 68.5337 43.9876 68.2344 43.8928C67.9352 43.7979 67.6784 43.6019 67.508 43.3383C65.6688 40.5149 63.3191 38.0595 60.5794 36.0979C60.3155 35.9277 60.1184 35.6715 60.0216 35.3727C59.9248 35.0739 59.9342 34.7508 60.0482 34.4582C60.9489 32.1487 61.0182 30.3472 60.233 29.1578C60.0304 28.8651 59.7852 28.6043 59.5055 28.3842C59.6356 29.1048 59.6167 29.8444 59.4499 30.5574C59.2831 31.2704 58.9719 31.9417 58.5355 32.5297C58.2684 32.8927 57.8933 33.1618 57.464 33.2987C57.0346 33.4355 56.573 33.4332 56.1451 33.2919C55.006 33.0496 53.8454 32.9219 52.6809 32.9108C51.5162 32.9202 50.3555 33.0479 49.2166 33.2919C48.7888 33.435 48.3266 33.4383 47.8969 33.3013C47.4672 33.1642 47.0922 32.8941 46.8262 32.5297C46.3874 31.943 46.0747 31.2718 45.9077 30.5584C45.7408 29.8449 45.7233 29.1047 45.8563 28.3842C45.5704 28.6057 45.3211 28.8707 45.1172 29.1694C44.3435 30.3242 44.4012 32.1371 45.3135 34.4582C45.4253 34.7511 45.4336 35.0734 45.337 35.3717C45.2403 35.67 45.0446 35.9262 44.7823 36.0979C42.0422 38.0591 39.6925 40.5146 37.8537 43.3383C37.6833 43.6019 37.4265 43.7979 37.1273 43.8928C36.8281 43.9876 36.5051 43.9753 36.214 43.8579C34.1442 43.0917 32.322 41.7765 30.9427 40.0534C29.5635 38.3304 28.6793 36.2645 28.3848 34.0771C27.5281 36.1588 27.2642 38.4369 27.6226 40.6592C28.2115 43.7424 30.371 46.3637 34.02 48.4654C34.2888 48.6214 34.4968 48.8639 34.6101 49.1533C34.7233 49.4427 34.7351 49.762 34.6435 50.059C34.1375 51.6497 33.7856 53.2855 33.5927 54.9436C33.5439 55.2601 33.3853 55.5493 33.1446 55.7604C32.9038 55.9716 32.5964 56.0912 32.2763 56.0984C29.9067 56.2281 27.5505 55.6649 25.4958 54.4776C23.441 53.2902 21.7765 51.5301 20.7056 49.4123C20.5466 51.7803 21.1017 54.1416 22.2992 56.1907C24.1583 59.1585 27.6573 60.9483 32.692 61.5026C32.9834 61.5445 33.2533 61.6797 33.4615 61.8878C33.6697 62.096 33.8049 62.366 33.8468 62.6574C34.1287 64.4843 34.6813 66.2591 35.4865 67.9231C35.6422 68.2282 35.6751 68.5813 35.5785 68.9099C35.4818 69.2385 35.2629 69.5176 34.9668 69.6899C33.2141 70.7937 31.2042 71.422 29.1349 71.5131C27.0656 71.6042 25.0082 71.1549 23.1652 70.2095C24.4138 72.1242 26.1795 73.6457 28.2577 74.5976C31.2485 75.8563 34.7705 75.4636 38.7314 73.4428C38.924 73.343 39.138 73.2915 39.355 73.2927M53.4315 80.048H52.7501C47.9617 80.1825 43.2456 78.8574 39.2279 76.2489C34.8052 78.339 30.752 78.6392 27.1838 77.1265C20.7633 74.4244 18.3961 66.8838 18.2921 66.572C18.2065 66.2876 18.2154 65.9831 18.3174 65.7041C18.4194 65.4252 18.6091 65.1867 18.858 65.0246C19.106 64.8609 19.401 64.7834 19.6974 64.8043C19.9939 64.8252 20.2752 64.9432 20.4978 65.1401C24.6202 68.7776 28.6619 69.7591 32.4957 67.9462C31.9919 66.715 31.6053 65.4392 31.341 64.1355C25.9367 63.3502 22.1029 61.1793 19.9088 57.6804C16.1212 51.6179 18.7541 43.9272 18.9157 43.6039C19.0149 43.3223 19.2037 43.0812 19.4532 42.9174C19.7027 42.7536 19.9991 42.6762 20.2968 42.6972C20.5945 42.7182 20.8772 42.8363 21.1012 43.0335C21.3253 43.2307 21.4783 43.496 21.537 43.7886C23.1075 51.2022 27.4147 53.1999 31.1446 53.4308C31.3171 52.3766 31.5446 51.332 31.8259 50.3015C28.0037 47.8765 25.7172 44.8164 25.0244 41.1904C23.7311 34.4235 28.4887 28.3033 28.7312 28.0493C28.9148 27.8152 29.1699 27.6475 29.4577 27.5721C29.7455 27.4966 30.0501 27.5173 30.325 27.6312C30.5998 27.7451 30.8299 27.9458 30.9799 28.2027C31.13 28.4596 31.1919 28.7585 31.1562 29.0539C30.4517 34.8277 32.1955 38.8462 36.3295 40.9133C38.0546 38.479 40.1284 36.3118 42.4843 34.4813C41.6067 31.733 41.7568 29.4581 42.9116 27.6913C44.8169 24.8044 48.6854 24.6312 48.8817 24.6196C49.1586 24.6137 49.4308 24.6908 49.6634 24.8411C49.8959 24.9913 50.0782 25.2078 50.1866 25.4626C50.2922 25.717 50.3189 25.9972 50.2633 26.2669C50.2077 26.5367 50.0724 26.7835 49.8748 26.9754C48.5584 28.234 48.2235 29.4581 48.8817 30.6128C51.4341 30.0892 54.0662 30.0892 56.6186 30.6128C57.2652 29.4581 56.9304 28.234 55.6255 26.9754C55.4223 26.7872 55.283 26.5402 55.2271 26.269C55.1711 25.9977 55.2014 25.7158 55.3137 25.4626C55.4226 25.2106 55.6034 24.9962 55.8334 24.8463C56.0634 24.6964 56.3325 24.6175 56.6071 24.6196C56.7803 24.6196 60.6718 24.8044 62.5771 27.6913C63.7319 29.4581 63.882 31.733 63.016 34.4813C65.3851 36.3128 67.4707 38.484 69.2054 40.9248C73.3395 38.8578 75.0831 34.8739 74.3787 29.0655C74.343 28.7701 74.4049 28.4711 74.5549 28.2142C74.705 27.9573 74.9351 27.7567 75.21 27.6428C75.4849 27.5289 75.7894 27.5081 76.0772 27.5836C76.365 27.6591 76.6202 27.8267 76.8038 28.0608C77.0001 28.3148 81.7923 34.4351 80.499 41.202C79.8062 44.8279 77.5197 47.888 73.709 50.313C73.992 51.3425 74.2156 52.3873 74.3787 53.4424C78.1202 53.2114 82.4621 51.2137 83.9863 43.8002C84.045 43.5075 84.1981 43.2422 84.4222 43.0451C84.6463 42.8479 84.9289 42.7297 85.2266 42.7087C85.5243 42.6877 85.8207 42.7651 86.0702 42.9289C86.3197 43.0927 86.5085 43.3339 86.6077 43.6154C86.7231 43.9387 89.4137 51.6294 85.6261 57.6919C83.432 61.1562 79.5983 63.3618 74.194 64.147C73.9296 65.4507 73.5429 66.7265 73.0393 67.9577C76.8846 69.7245 80.9147 68.7892 85.0372 65.1517C85.2602 64.9524 85.5425 64.832 85.8407 64.8091C86.1389 64.7861 86.4363 64.8619 86.6872 65.0248C86.938 65.1876 87.1283 65.4285 87.2287 65.7102C87.3291 65.9919 87.334 66.2988 87.2428 66.5836C87.1504 66.8953 84.7716 74.4359 78.3627 77.138C74.7829 78.6508 70.7413 78.3505 66.3186 76.2604C62.4988 78.7501 58.0371 80.0742 53.4776 80.0711" fill="#D40054"/>
</svg>
