<svg width="80" height="80" viewBox="0 0 80 80" fill="none" xmlns="http://www.w3.org/2000/svg">
<g clip-path="url(#clip0_21_5213)">
<mask id="mask0_21_5213" style="mask-type:luminance" maskUnits="userSpaceOnUse" x="5" y="5" width="71" height="71">
<path d="M75.9688 5H5V75.9688H75.9688V5Z" fill="white"/>
</mask>
<g mask="url(#mask0_21_5213)">
<path d="M47.7064 24.4336C45.8133 24.436 43.9634 24.9998 42.3909 26.0537C40.8183 27.1076 39.5937 28.6043 38.872 30.3544C38.1502 32.1044 37.9638 34.0293 38.3363 35.8854C38.7088 37.7414 39.6234 39.4453 40.9645 40.7814C42.3056 42.1175 44.0129 43.0258 45.8703 43.3914C47.7277 43.757 49.6518 43.5634 51.3992 42.8352C53.1466 42.107 54.6387 40.8768 55.6868 39.3004C56.7349 37.7239 57.2918 35.872 57.2871 33.9789C57.284 31.4431 56.2744 29.0123 54.4803 27.2203C52.6861 25.4283 50.2539 24.4218 47.7181 24.4218M47.7181 45.3221C45.4747 45.3221 43.2816 44.6568 41.4163 43.4104C39.5509 42.164 38.097 40.3924 37.2384 38.3198C36.3799 36.2471 36.1553 33.9663 36.593 31.766C37.0306 29.5656 38.111 27.5445 39.6973 25.9581C41.2837 24.3717 43.3048 23.2914 45.5052 22.8537C47.7056 22.416 49.9864 22.6406 52.059 23.4992C54.1317 24.3577 55.9033 25.8116 57.1497 27.677C58.3961 29.5424 59.0613 31.7355 59.0613 33.9789C59.0582 36.9864 57.8621 39.8697 55.7356 41.9963C53.609 44.1229 50.7256 45.319 47.7181 45.3221Z" fill="#D40054"/>
<path d="M47.7074 41.3951C47.4721 41.3951 47.2465 41.3017 47.0801 41.1353C46.9138 40.9689 46.8203 40.7433 46.8203 40.508C46.8203 40.2727 46.9138 40.0471 47.0801 39.8808C47.2465 39.7144 47.4721 39.6209 47.7074 39.6209C49.2006 39.6209 50.6326 39.0277 51.6885 37.9719C52.7444 36.916 53.3375 35.484 53.3375 33.9907C53.3375 33.7555 53.4311 33.5298 53.5974 33.3635C53.7638 33.1971 53.9894 33.1036 54.2247 33.1036C54.4599 33.1036 54.6856 33.1971 54.8519 33.3635C55.0183 33.5298 55.1118 33.7555 55.1118 33.9907C55.1086 35.9536 54.3275 37.8351 52.9396 39.223C51.5517 40.6109 49.6702 41.392 47.7074 41.3951Z" fill="#D40054"/>
<path d="M47.7055 29.9336C44.8134 29.9314 41.9576 29.2892 39.343 28.053C39.1297 27.951 38.9656 27.7685 38.8868 27.5456C38.8081 27.3227 38.8211 27.0776 38.9231 26.8642C39.025 26.6509 39.2076 26.4869 39.4305 26.4081C39.6535 26.3294 39.8985 26.3424 40.1118 26.4444C42.4829 27.5774 45.0776 28.1655 47.7055 28.1655C50.3334 28.1655 52.928 27.5774 55.2992 26.4444C55.4045 26.3928 55.5191 26.3629 55.6362 26.3564C55.7532 26.35 55.8704 26.3671 55.9807 26.4068C56.0911 26.4465 56.1923 26.508 56.2784 26.5876C56.3645 26.6672 56.4337 26.7633 56.482 26.8702C56.5837 27.0819 56.5972 27.3254 56.5196 27.5472C56.442 27.7689 56.2795 27.9508 56.0679 28.053C53.4533 29.2892 50.5976 29.9314 47.7055 29.9336Z" fill="#D40054"/>
<path d="M44.3605 24.9777C44.1741 24.9812 43.9917 24.9244 43.8403 24.8157C43.6889 24.7069 43.5768 24.5522 43.5206 24.3744L41.912 19.4539C41.8651 19.3412 41.8418 19.22 41.8439 19.0979C41.8459 18.9758 41.8732 18.8555 41.9239 18.7444C41.9746 18.6333 42.0477 18.5339 42.1386 18.4523C42.2295 18.3708 42.3362 18.3089 42.4521 18.2705C42.568 18.2321 42.6907 18.2181 42.8123 18.2293C42.9339 18.2405 43.0518 18.2767 43.1588 18.3356C43.2658 18.3945 43.3595 18.4749 43.4339 18.5717C43.5084 18.6684 43.562 18.7795 43.5916 18.898L45.2357 23.8185C45.2727 23.928 45.2877 24.0437 45.2798 24.159C45.2718 24.2743 45.2411 24.3869 45.1894 24.4903C45.1378 24.5936 45.0661 24.6858 44.9786 24.7613C44.8912 24.8368 44.7896 24.8943 44.6798 24.9304C44.586 24.9475 44.4898 24.9475 44.3959 24.9304" fill="#D40054"/>
<path d="M37.253 34.8779H31.4809C31.2456 34.8779 31.0199 34.7844 30.8536 34.618C30.6872 34.4517 30.5938 34.226 30.5938 33.9907C30.5938 33.7555 30.6872 33.5298 30.8536 33.3635C31.0199 33.1971 31.2456 33.1036 31.4809 33.1036H37.253C37.4883 33.1036 37.7139 33.1971 37.8803 33.3635C38.0466 33.5298 38.1401 33.7555 38.1401 33.9907C38.1401 34.226 38.0466 34.4517 37.8803 34.618C37.7139 34.7844 37.4883 34.8779 37.253 34.8779Z" fill="#D40054"/>
<path d="M37.9232 31.1993H37.6984L31.2639 29.4724C31.0743 29.4207 30.9069 29.3082 30.7872 29.1523C30.6676 28.9964 30.6024 28.8055 30.6016 28.6089V26.2433C30.6016 26.008 30.695 25.7824 30.8614 25.616C31.0278 25.4497 31.2534 25.3562 31.4887 25.3562C31.7239 25.3562 31.9496 25.4497 32.116 25.616C32.2823 25.7824 32.3758 26.008 32.3758 26.2433V27.9584L38.1598 29.4842C38.272 29.5131 38.3773 29.5639 38.4697 29.6338C38.5622 29.7037 38.6398 29.7913 38.6981 29.8914C38.7564 29.9915 38.7943 30.1022 38.8095 30.2171C38.8247 30.332 38.8169 30.4487 38.7866 30.5606C38.739 30.7502 38.6294 30.9185 38.475 31.0386C38.3207 31.1586 38.1306 31.2236 37.935 31.223" fill="#D40054"/>
<path d="M31.4809 42.2586C31.2476 42.2587 31.0238 42.1668 30.8578 42.003C30.6917 41.8392 30.5969 41.6166 30.5938 41.3834V39.3252C30.5952 39.1302 30.6609 38.9411 30.7806 38.7872C30.9003 38.6332 31.0675 38.523 31.2561 38.4736L37.7025 36.7704C37.8143 36.7401 37.9311 36.7324 38.046 36.7476C38.1608 36.7628 38.2715 36.8006 38.3716 36.8589C38.4717 36.9172 38.5593 36.9948 38.6292 37.0873C38.6991 37.1797 38.7499 37.2851 38.7788 37.3973C38.8092 37.5099 38.8172 37.6274 38.8021 37.7431C38.7871 37.8587 38.7493 37.9703 38.6911 38.0714C38.6328 38.1725 38.5552 38.2611 38.4627 38.3321C38.3702 38.4032 38.2646 38.4553 38.1519 38.4855L32.368 40.0113V41.3834C32.368 41.4993 32.345 41.6141 32.3003 41.7211C32.2555 41.828 32.19 41.9251 32.1074 42.0065C32.0249 42.0879 31.927 42.1521 31.8194 42.1954C31.7119 42.2387 31.5968 42.2602 31.4809 42.2586Z" fill="#D40054"/>
<path d="M51.0566 24.9777C50.9668 24.9956 50.8744 24.9956 50.7846 24.9777C50.6737 24.9429 50.5709 24.8863 50.4822 24.8113C50.3934 24.7362 50.3205 24.6443 50.2676 24.5408C50.2148 24.4373 50.1831 24.3243 50.1743 24.2084C50.1656 24.0926 50.1801 23.9761 50.2169 23.8659L51.8609 18.9454C51.8905 18.8269 51.9442 18.7158 52.0187 18.619C52.0931 18.5222 52.1868 18.4419 52.2938 18.383C52.4008 18.3241 52.5187 18.2879 52.6403 18.2767C52.7619 18.2655 52.8845 18.2795 53.0004 18.3179C53.1163 18.3562 53.2231 18.4182 53.314 18.4997C53.4049 18.5812 53.478 18.6806 53.5287 18.7917C53.5794 18.9028 53.6066 19.0232 53.6086 19.1453C53.6107 19.2674 53.5875 19.3886 53.5406 19.5013L51.8964 24.4218C51.8403 24.5995 51.7282 24.7543 51.5768 24.863C51.4255 24.9717 51.2429 25.0286 51.0566 25.025" fill="#D40054"/>
<path d="M63.9327 34.8779H58.1605C57.9253 34.8779 57.6996 34.7844 57.5333 34.618C57.3669 34.4517 57.2734 34.226 57.2734 33.9907C57.2734 33.7555 57.3669 33.5298 57.5333 33.3635C57.6996 33.1971 57.9253 33.1036 58.1605 33.1036H63.9327C64.168 33.1036 64.3936 33.1971 64.56 33.3635C64.7263 33.5298 64.8198 33.7555 64.8198 33.9907C64.8198 34.226 64.7263 34.4517 64.56 34.618C64.3936 34.7844 64.168 34.8779 63.9327 34.8779Z" fill="#D40054"/>
<path d="M57.4913 31.1993C57.2958 31.1998 57.1057 31.1349 56.9513 31.0149C56.797 30.8948 56.6873 30.7266 56.6398 30.5369C56.6095 30.425 56.6017 30.3083 56.6169 30.1934C56.6321 30.0786 56.6699 29.9679 56.7283 29.8677C56.7866 29.7676 56.8642 29.68 56.9566 29.6101C57.049 29.5402 57.1544 29.4894 57.2666 29.4605L63.0506 27.9347V26.2196C63.0506 25.9844 63.144 25.7587 63.3104 25.5923C63.4768 25.426 63.7024 25.3325 63.9377 25.3325C64.173 25.3325 64.3986 25.426 64.565 25.5923C64.7313 25.7587 64.8248 25.9844 64.8248 26.2196V28.5853C64.824 28.7818 64.7587 28.9726 64.6391 29.1286C64.5195 29.2845 64.352 29.397 64.1624 29.4487L57.7161 31.1519H57.4913" fill="#D40054"/>
<path d="M63.9378 42.2586C63.8219 42.2601 63.7068 42.2386 63.5992 42.1954C63.4917 42.1521 63.3938 42.0879 63.3112 42.0064C63.2287 41.925 63.1631 41.8279 63.1184 41.721C63.0737 41.614 63.0507 41.4992 63.0507 41.3833V40.0112L57.2904 38.5327C57.1777 38.5025 57.0721 38.4504 56.9796 38.3794C56.8871 38.3083 56.8095 38.2197 56.7513 38.1186C56.693 38.0176 56.6553 37.906 56.6402 37.7903C56.6252 37.6746 56.6331 37.5571 56.6635 37.4445C56.6923 37.3323 56.7432 37.2269 56.8131 37.1345C56.883 37.0421 56.9706 36.9645 57.0707 36.9062C57.1709 36.8478 57.2815 36.81 57.3964 36.7948C57.5113 36.7796 57.628 36.7873 57.7399 36.8176L64.1862 38.5209C64.3749 38.5703 64.542 38.6805 64.6618 38.8344C64.7815 38.9883 64.8472 39.1775 64.8486 39.3725V41.4306C64.8455 41.6638 64.7506 41.8864 64.5846 42.0502C64.4186 42.2141 64.1947 42.3059 63.9615 42.3059" fill="#D40054"/>
<path d="M47.7089 12.4162C42.8872 12.4166 38.2148 14.0889 34.4879 17.148C30.7609 20.2072 28.2099 24.464 27.2696 29.1931C26.3294 33.9222 27.0579 38.8311 29.3312 43.0833C31.6045 47.3354 35.2818 50.6678 39.7366 52.5127C44.1914 54.3575 49.148 54.6007 53.762 53.2007C58.376 51.8007 62.3618 48.8442 65.0403 44.8349C67.7188 40.8256 68.9243 36.0116 68.4514 31.2132C67.9784 26.4147 65.8564 21.9287 62.4467 18.5195C60.5132 16.5817 58.2158 15.0449 55.6867 13.9975C53.1575 12.9501 50.4464 12.4127 47.7089 12.4162ZM47.7089 55.8845C42.4767 55.8845 37.4064 54.0702 33.3619 50.7509C29.3174 47.4316 26.549 42.8126 25.5283 37.681C24.5076 32.5493 25.2978 27.2225 27.7643 22.6082C30.2308 17.9938 34.2209 14.3774 39.0548 12.3752C43.8887 10.373 49.2674 10.1088 54.2743 11.6277C59.2812 13.1466 63.6065 16.3545 66.5133 20.7049C69.4201 25.0554 70.7285 30.2791 70.2156 35.4861C69.7027 40.6931 67.4002 45.5611 63.7005 49.2608C61.6051 51.3672 59.1129 53.0371 56.368 54.174C53.623 55.311 50.68 55.8924 47.7089 55.8845Z" fill="#454545"/>
<path d="M47.7105 6.77422C41.5802 6.77193 35.6388 8.89543 30.8988 12.7829C26.1589 16.6704 22.9136 22.0812 21.716 28.0933C20.5185 34.1055 21.4428 40.3469 24.3314 45.7539C27.22 51.1609 31.8941 55.3989 37.5574 57.7458C43.2206 60.0926 49.5224 60.4031 55.3889 58.6242C61.2553 56.8453 66.3235 53.0872 69.7295 47.9903C73.1356 42.8933 74.6688 36.773 74.068 30.6723C73.4671 24.5716 70.7693 18.868 66.4343 14.5335C63.9815 12.0662 61.0637 10.11 57.8497 8.77816C54.6357 7.44627 51.1895 6.76516 47.7105 6.77422ZM47.7105 61.5266C41.1697 61.5293 34.8304 59.2638 29.7729 55.1162C24.7154 50.9686 21.2526 45.1955 19.9746 38.7808C18.6966 32.3662 19.6826 25.7068 22.7644 19.9376C25.8462 14.1684 30.8332 9.64642 36.8756 7.14219C42.9179 4.63796 49.6418 4.30646 55.9011 6.20422C62.1605 8.10198 67.5681 12.1115 71.2025 17.5496C74.8368 22.9877 76.473 29.5178 75.8321 36.0271C75.1913 42.5363 72.3131 48.622 67.6881 53.2469C65.0707 55.879 61.9574 57.9659 58.5283 59.3871C55.0992 60.8083 51.4224 61.5355 47.7105 61.5266Z" fill="#454545"/>
<path d="M24.347 49.1662L8.30807 65.2051C7.3243 66.1956 6.77216 67.535 6.77216 68.931C6.77216 70.327 7.3243 71.6664 8.30807 72.6569C9.29855 73.6406 10.6379 74.1927 12.0339 74.1927C13.4299 74.1927 14.7693 73.6406 15.7598 72.6569L31.7869 56.6179C30.3319 55.619 28.9701 54.4907 27.718 53.2469C26.4679 51.9963 25.3392 50.6299 24.347 49.1662ZM12.0339 75.9687C10.6534 75.9428 9.3104 75.5147 8.16953 74.7369C7.02867 73.9591 6.13943 72.8654 5.61086 71.5899C5.08229 70.3143 4.93736 68.9122 5.19373 67.5554C5.45011 66.1986 6.09671 64.9461 7.05429 63.9513L23.862 47.1436C23.9572 47.0503 24.0719 46.9794 24.1979 46.9359C24.3239 46.8924 24.458 46.8775 24.5904 46.8922C24.7229 46.9069 24.8504 46.9509 24.9638 47.021C25.0771 47.0911 25.1735 47.1855 25.2459 47.2974C27.3693 50.7139 30.2511 53.5955 33.6676 55.719C33.7795 55.7914 33.8739 55.8877 33.9439 56.0011C34.014 56.1145 34.0579 56.242 34.0726 56.3745C34.0874 56.5069 34.0724 56.641 34.029 56.767C33.9855 56.893 33.9145 57.0077 33.8213 57.1029L17.0727 73.9106C16.4189 74.5645 15.6425 75.0828 14.788 75.436C13.9335 75.7892 13.0176 75.9702 12.093 75.9687" fill="#454545"/>
<path d="M27.2569 63.289C27.1403 63.2896 27.0249 63.2668 26.9172 63.2222C26.8096 63.1775 26.7119 63.1117 26.63 63.0288L17.9363 54.3351C17.8526 54.2536 17.7862 54.1561 17.7407 54.0484C17.6953 53.9408 17.6719 53.8251 17.6719 53.7082C17.6719 53.5914 17.6953 53.4757 17.7407 53.368C17.7862 53.2604 17.8526 53.1629 17.9363 53.0813C18.1027 52.9152 18.3282 52.8219 18.5632 52.8219C18.7983 52.8219 19.0238 52.9152 19.1901 53.0813L27.8838 61.775C28.0499 61.9413 28.1432 62.1668 28.1432 62.4019C28.1432 62.637 28.0499 62.8624 27.8838 63.0288C27.8019 63.1117 27.7043 63.1775 27.5966 63.2222C27.489 63.2668 27.3734 63.2896 27.2569 63.289Z" fill="#454545"/>
</g>
</g>
<defs>
<clipPath id="clip0_21_5213">
<rect width="70.9688" height="70.9688" fill="white" transform="translate(5 5)"/>
</clipPath>
</defs>
</svg>
