<svg width="100" height="100" viewBox="0 0 100 100" fill="none" xmlns="http://www.w3.org/2000/svg">
<g clip-path="url(#clip0_2_1438)">
<mask id="mask0_2_1438" style="mask-type:luminance" maskUnits="userSpaceOnUse" x="5" y="6" width="90" height="87">
<path d="M94.0153 6H5V93H94.0153V6Z" fill="white"/>
</mask>
<g mask="url(#mask0_2_1438)">
<path d="M55.3781 27.3105C55.3781 38.0116 49.0047 46.7253 41.1217 46.7253C33.2387 46.7253 26.8652 38.0269 26.8652 27.3105C26.8652 16.5941 33.2539 7.91089 41.1217 7.91089C48.9894 7.91089 55.3781 16.5941 55.3781 27.3105Z" fill="white"/>
<path d="M55.3781 27.3105C55.3781 38.0116 49.0047 46.7253 41.1217 46.7253C33.2387 46.7253 26.8652 38.0269 26.8652 27.3105C26.8652 16.5941 33.2539 7.91089 41.1217 7.91089C48.9894 7.91089 55.3781 16.5941 55.3781 27.3105Z" stroke="white" stroke-width="0.25" stroke-miterlimit="10"/>
<path d="M28.7248 55.7142C25.2179 61.2788 20.8876 62.0432 16.7402 62.0432H14.8496C14.4212 62.046 13.9998 62.1515 13.6205 62.351C13.2411 62.5504 12.9149 62.838 12.6691 63.1897C9.45184 66.9963 8.7048 78.8439 9.04024 87.8329C9.0401 88.0547 9.12582 88.2679 9.27942 88.4276C9.43301 88.5873 9.64244 88.681 9.86358 88.6889H69.9694C70.1893 88.6773 70.3966 88.5825 70.5494 88.4236C70.7022 88.2647 70.7893 88.0536 70.7929 87.8329C71.1131 78.8439 70.3659 66.9963 67.1639 63.1897C66.9172 62.8389 66.5908 62.552 66.2117 62.3526C65.8326 62.1533 65.4116 62.0472 64.9835 62.0432H63.0928C58.9454 62.0432 54.6151 61.2788 51.1082 55.7142C50.9842 55.512 50.8965 55.2895 50.849 55.0569C47.9151 57.9084 43.9981 59.517 39.912 59.5483C35.8259 59.5796 31.8849 58.0313 28.9078 55.2251C28.8696 55.3958 28.808 55.5604 28.7248 55.7142Z" fill="#D40054"/>
<path d="M28.7248 55.7142C25.2179 61.2788 20.8876 62.0432 16.7402 62.0432H14.8496C14.4212 62.046 13.9998 62.1515 13.6205 62.351C13.2411 62.5504 12.9149 62.838 12.6691 63.1897C9.45184 66.9963 8.7048 78.8439 9.04024 87.8329C9.0401 88.0547 9.12582 88.2679 9.27942 88.4276C9.43301 88.5873 9.64244 88.681 9.86358 88.6889H69.9694C70.1893 88.6773 70.3966 88.5825 70.5494 88.4236C70.7022 88.2647 70.7893 88.0536 70.7929 87.8329C71.1131 78.8439 70.3659 66.9963 67.1639 63.1897C66.9172 62.8389 66.5908 62.552 66.2117 62.3526C65.8326 62.1533 65.4116 62.0472 64.9835 62.0432H63.0928C58.9454 62.0432 54.6151 61.2788 51.1082 55.7142C50.9842 55.512 50.8965 55.2895 50.849 55.0569C47.9151 57.9084 43.9981 59.517 39.912 59.5483C35.8259 59.5796 31.8849 58.0313 28.9078 55.2251C28.8696 55.3958 28.808 55.5604 28.7248 55.7142Z" stroke="white" stroke-width="0.75" stroke-miterlimit="10"/>
</g>
<path d="M52.6953 55.011H91.7443V74.3036L83.0837 87.466L73.5845 90.1565L61.3559 88.0316L53.168 76.8413L52.6953 55.011Z" fill="#D40054"/>
<path d="M52.6953 55.011H91.7443V74.3036L83.0837 87.466L73.5845 90.1565L61.3559 88.0316L53.168 76.8413L52.6953 55.011Z" stroke="white" stroke-width="0.25" stroke-miterlimit="10"/>
<mask id="mask1_2_1438" style="mask-type:luminance" maskUnits="userSpaceOnUse" x="5" y="6" width="90" height="87">
<path d="M94.0153 6H5V93H94.0153V6Z" fill="white"/>
</mask>
<g mask="url(#mask1_2_1438)">
<path d="M77.5173 68.5097C77.5385 69.6297 77.2266 70.7307 76.6214 71.6723C76.0162 72.614 75.1451 73.3536 74.1191 73.797C73.0931 74.2404 71.9586 74.3676 70.8602 74.1621C69.7619 73.9567 68.7494 73.4281 67.9519 72.6436C67.1543 71.8591 66.6077 70.8543 66.3818 69.7572C66.1559 68.6602 66.261 67.5205 66.6835 66.4835C67.106 65.4465 67.8269 64.5591 68.7544 63.9344C69.6818 63.3097 70.7737 62.9759 71.891 62.9757C72.6231 62.9677 73.3496 63.1045 74.0289 63.3784C74.7082 63.6524 75.327 64.058 75.8496 64.5721C76.3723 65.0862 76.7886 65.6986 77.0748 66.3743C77.361 67.05 77.5114 67.7757 77.5173 68.5097Z" fill="#3F3F3F"/>
<path d="M77.5173 68.5097C77.5385 69.6297 77.2266 70.7307 76.6214 71.6723C76.0162 72.614 75.1451 73.3536 74.1191 73.797C73.0931 74.2404 71.9586 74.3676 70.8602 74.1621C69.7619 73.9567 68.7494 73.4281 67.9519 72.6436C67.1543 71.8591 66.6077 70.8543 66.3818 69.7572C66.1559 68.6602 66.261 67.5205 66.6835 66.4835C67.106 65.4465 67.8269 64.5591 68.7544 63.9344C69.6818 63.3097 70.7737 62.9759 71.891 62.9757C72.6231 62.9677 73.3496 63.1045 74.0289 63.3784C74.7082 63.6524 75.327 64.058 75.8496 64.5721C76.3723 65.0862 76.7886 65.6986 77.0748 66.3743C77.361 67.05 77.5114 67.7757 77.5173 68.5097Z" stroke="white" stroke-width="0.25" stroke-miterlimit="10"/>
<path d="M41.1219 9.89823C35.5871 9.89823 28.9239 12.4359 28.9239 24.5587C28.9239 35.4892 34.4893 44.738 41.1219 44.738C47.7546 44.738 53.32 35.4892 53.32 24.5587C53.32 12.4359 46.7178 9.89823 41.1219 9.89823ZM41.1219 48.4375C32.2021 48.4375 25.2188 37.9504 25.2188 24.5587C25.2188 7.98732 36.3342 6.21399 41.1219 6.21399C45.9097 6.21399 57.0404 8.0026 57.0404 24.5587C57.0404 37.9504 50.0418 48.4375 41.1219 48.4375Z" fill="#3F3F3F"/>
<path d="M41.1219 9.89823C35.5871 9.89823 28.9239 12.4359 28.9239 24.5587C28.9239 35.4892 34.4893 44.738 41.1219 44.738C47.7546 44.738 53.32 35.4892 53.32 24.5587C53.2742 12.4359 46.6721 9.89823 41.1219 9.89823ZM41.1219 48.4375C32.2021 48.4375 25.2188 37.9504 25.2188 24.5587C25.2188 7.98732 36.3342 6.21399 41.1219 6.21399C45.9097 6.21399 57.0404 8.0026 57.0404 24.5587C57.0404 37.9504 50.0723 48.4681 41.1219 48.4681V48.4375Z" stroke="white" stroke-width="0.25" stroke-miterlimit="10"/>
<path d="M71.876 64.8255C71.1557 64.8406 70.4559 65.0684 69.8642 65.4806C69.2725 65.8928 68.8154 66.471 68.55 67.1426C68.2847 67.8142 68.2231 68.5493 68.3728 69.2559C68.5224 69.9625 68.8768 70.6091 69.3915 71.1146C69.9062 71.6201 70.5582 71.962 71.2659 72.0975C71.9736 72.233 72.7055 72.156 73.3697 71.8762C74.034 71.5964 74.6011 71.1263 74.9999 70.5247C75.3987 69.9231 75.6116 69.2168 75.6117 68.4945C75.5997 67.5119 75.1997 66.5741 74.4996 65.8865C73.7995 65.1988 72.8561 64.8174 71.876 64.8255ZM71.876 81.3817C71.6305 81.3857 71.3866 81.341 71.1583 81.25C70.9301 81.159 70.7221 81.0236 70.5464 80.8517C70.3706 80.6797 70.2306 80.4746 70.1343 80.248C70.038 80.0215 69.9873 79.7781 69.9854 79.5319V76.2604C69.9825 76.0703 69.9208 75.8859 69.8088 75.7326C69.6968 75.5792 69.5401 75.4645 69.3603 75.4043C67.9115 74.9182 66.6498 73.9915 65.7507 72.7531C64.8516 71.5147 64.3599 70.0261 64.3438 68.4945C64.431 66.5524 65.2619 64.7188 66.6635 63.3754C68.0651 62.032 69.9294 61.2822 71.8684 61.2822C73.8074 61.2822 75.6718 62.032 77.0734 63.3754C78.475 64.7188 79.3059 66.5524 79.3931 68.4945C79.377 70.0261 78.8852 71.5147 77.9861 72.7531C77.0871 73.9915 75.8254 74.9182 74.3767 75.4043C74.1997 75.467 74.0462 75.5828 73.9371 75.736C73.828 75.8891 73.7685 76.0722 73.7667 76.2604V79.5319C73.7587 80.0279 73.5555 80.5007 73.2014 80.8471C72.8472 81.1936 72.3708 81.3857 71.876 81.3817Z" fill="white"/>
<path d="M71.876 64.8255C71.1557 64.8406 70.4559 65.0684 69.8642 65.4806C69.2725 65.8928 68.8154 66.471 68.55 67.1426C68.2847 67.8142 68.2231 68.5493 68.3728 69.2559C68.5224 69.9625 68.8768 70.6091 69.3915 71.1146C69.9062 71.6201 70.5582 71.962 71.2659 72.0975C71.9736 72.233 72.7055 72.156 73.3697 71.8762C74.034 71.5964 74.6011 71.1263 74.9999 70.5247C75.3987 69.9231 75.6116 69.2168 75.6117 68.4945C75.5997 67.5119 75.1997 66.5741 74.4996 65.8865C73.7995 65.1988 72.8561 64.8174 71.876 64.8255ZM71.876 81.3817C71.6305 81.3857 71.3866 81.341 71.1583 81.25C70.9301 81.159 70.7221 81.0236 70.5464 80.8517C70.3706 80.6797 70.2306 80.4746 70.1343 80.248C70.038 80.0215 69.9873 79.7781 69.9854 79.5319V76.2604C69.9825 76.0703 69.9208 75.8859 69.8088 75.7326C69.6968 75.5792 69.5401 75.4645 69.3603 75.4043C67.9115 74.9182 66.6498 73.9915 65.7507 72.7531C64.8516 71.5147 64.3599 70.0261 64.3438 68.4945C64.431 66.5524 65.2619 64.7188 66.6635 63.3754C68.0651 62.032 69.9294 61.2822 71.8684 61.2822C73.8074 61.2822 75.6718 62.032 77.0734 63.3754C78.475 64.7188 79.3059 66.5524 79.3931 68.4945C79.377 70.0261 78.8852 71.5147 77.9861 72.7531C77.0871 73.9915 75.8254 74.9182 74.3767 75.4043C74.1997 75.467 74.0462 75.5828 73.9371 75.736C73.828 75.8891 73.7685 76.0722 73.7667 76.2604V79.5319C73.7587 80.0279 73.5555 80.5007 73.2014 80.8471C72.8472 81.1936 72.3708 81.3858 71.876 81.3817Z" stroke="white" stroke-width="0.25" stroke-miterlimit="10"/>
<path d="M89.7157 71.2768C89.5804 75.9039 87.652 80.2959 84.3398 83.5208C81.0276 86.7458 76.5922 88.5497 71.9752 88.5497C67.3581 88.5497 62.9229 86.7458 59.6106 83.5208C56.2984 80.2959 54.3699 75.9039 54.2346 71.2768V57.5182C54.2366 57.3978 54.2623 57.2788 54.3101 57.1683C54.3579 57.0578 54.427 56.9578 54.5133 56.874C54.5997 56.7903 54.7017 56.7244 54.8135 56.6802C54.9252 56.6359 55.0446 56.6142 55.1648 56.6162H88.7856C88.9058 56.6142 89.0251 56.6359 89.1369 56.6802C89.2486 56.7244 89.3506 56.7903 89.437 56.874C89.5234 56.9578 89.5924 57.0578 89.6402 57.1683C89.6881 57.2788 89.7137 57.3978 89.7157 57.5182V71.2768ZM71.9828 42.7965C74.4308 42.7762 76.7868 43.7306 78.5336 45.4504C80.2803 47.1701 81.2749 49.5146 81.299 51.9689C81.299 52.0894 81.2754 52.2086 81.2294 52.3199C81.1834 52.4312 81.1161 52.5323 81.0311 52.6175C80.9462 52.7027 80.8453 52.7702 80.7343 52.8163C80.6233 52.8624 80.5044 52.8862 80.3842 52.8862H63.6119C63.3693 52.8862 63.1366 52.7895 62.965 52.6175C62.7935 52.4455 62.6971 52.2122 62.6971 51.9689C62.709 50.7523 62.9598 49.55 63.4353 48.4306C63.9107 47.3112 64.6014 46.2967 65.468 45.4449C66.3345 44.5932 67.3599 43.9209 68.4856 43.4665C69.6112 43.0121 70.8152 42.7844 72.0286 42.7965M91.6369 52.8862H86.0411C85.9197 52.8882 85.799 52.8659 85.6862 52.8208C85.5735 52.7756 85.4708 52.7083 85.3843 52.6229C85.2977 52.5376 85.229 52.4358 85.182 52.3235C85.1351 52.2112 85.1109 52.0907 85.1109 51.9689C84.9951 48.5657 83.5653 45.3406 81.1231 42.9742C78.6809 40.6078 75.4173 39.2851 72.021 39.2851C68.6246 39.2851 65.3611 40.6078 62.9189 42.9742C60.4767 45.3406 59.0468 48.5657 58.9309 51.9689C58.9309 52.2122 58.8345 52.4455 58.663 52.6175C58.4914 52.7895 58.2587 52.8862 58.0161 52.8862H52.405C51.9102 52.8821 51.4338 53.0741 51.0797 53.4206C50.7255 53.7671 50.5222 54.2399 50.5142 54.7359V71.2768C50.5264 74.7331 51.3886 78.133 53.0242 81.1755C54.6599 84.218 57.0186 86.8092 59.8915 88.7195H24.3951C24.275 88.7216 24.1557 88.6999 24.0439 88.6556C23.9321 88.6114 23.8302 88.5455 23.7438 88.4617C23.6574 88.378 23.5884 88.278 23.5405 88.1675C23.4927 88.057 23.467 87.9381 23.4651 87.8176V76.7802C23.4227 76.3088 23.206 75.8703 22.8575 75.551C22.5091 75.2317 22.0541 75.0546 21.582 75.0546C21.1099 75.0546 20.6549 75.2317 20.3065 75.551C19.958 75.8703 19.7413 76.3088 19.699 76.7802V87.8176C19.699 87.9373 19.6752 88.0559 19.6291 88.1663C19.5829 88.2768 19.5153 88.3769 19.4301 88.4608C19.3449 88.5448 19.2439 88.6109 19.133 88.6553C19.0221 88.6998 18.9035 88.7216 18.784 88.7195H10.3064C10.0704 88.7237 9.84221 88.6347 9.67106 88.4717C9.49992 88.3087 9.39956 88.0847 9.39159 87.8482C9.08664 78.8593 10.0015 67.0116 13.5999 63.2203C13.8917 62.8644 14.2599 62.5791 14.6771 62.3859C15.0942 62.1926 15.5495 62.0964 16.009 62.1044H17.7777C22.0623 62.1044 25.5997 61.6305 28.8017 55.592C29.0256 55.152 29.0663 54.6409 28.9148 54.1709C28.7633 53.7009 28.432 53.3103 27.9936 53.0849C27.7248 52.9459 27.427 52.8726 27.1245 52.8709C26.7816 52.8691 26.445 52.9625 26.1517 53.1405C25.8584 53.3186 25.6199 53.5744 25.4625 53.8798C23.3888 57.7781 21.6049 58.466 18.1284 58.466H16.009C15.0347 58.4698 14.072 58.6769 13.1821 59.0744C12.2921 59.4718 11.4946 60.0508 10.8401 60.7744C4.39041 67.5619 5.59494 88.4138 5.76266 90.7681C5.79754 91.2411 6.01088 91.6831 6.3593 92.004C6.70771 92.3249 7.16498 92.5007 7.63808 92.4955H72.3945C77.9558 92.4163 83.2665 90.164 87.1965 86.2181C91.1264 82.2722 93.3652 76.9444 93.4361 71.3685V54.7359C93.4281 54.2399 93.2249 53.7671 92.8708 53.4206C92.5166 53.0741 92.0402 52.8821 91.5454 52.8862" fill="#3F3F3F"/>
<path d="M89.7157 71.2768C89.5804 75.9039 87.652 80.2959 84.3398 83.5208C81.0276 86.7458 76.5922 88.5497 71.9752 88.5497C67.3581 88.5497 62.9229 86.7458 59.6106 83.5208C56.2984 80.2959 54.3699 75.9039 54.2346 71.2768V57.5182C54.2366 57.3978 54.2623 57.2788 54.3101 57.1683C54.3579 57.0578 54.427 56.9578 54.5133 56.874C54.5997 56.7903 54.7017 56.7244 54.8135 56.6802C54.9252 56.6359 55.0446 56.6142 55.1648 56.6162H88.7856C88.9058 56.6142 89.0251 56.6359 89.1369 56.6802C89.2486 56.7244 89.3506 56.7903 89.437 56.874C89.5234 56.9578 89.5924 57.0578 89.6402 57.1683C89.6881 57.2788 89.7137 57.3978 89.7157 57.5182V71.2768ZM71.9828 42.7965C74.4308 42.7762 76.7868 43.7306 78.5336 45.4504C80.2803 47.1701 81.2749 49.5146 81.299 51.9689C81.299 52.0894 81.2754 52.2086 81.2294 52.3199C81.1834 52.4312 81.1161 52.5323 81.0311 52.6175C80.9462 52.7027 80.8453 52.7702 80.7343 52.8163C80.6233 52.8624 80.5044 52.8862 80.3842 52.8862H63.6119C63.3693 52.8862 63.1366 52.7895 62.965 52.6175C62.7935 52.4455 62.6971 52.2122 62.6971 51.9689C62.7212 49.5279 63.7053 47.195 65.4355 45.4774C67.1657 43.7598 69.5023 42.7964 71.9371 42.7965H71.9828ZM91.5911 52.8862H85.9953C85.8739 52.8882 85.7533 52.8659 85.6406 52.8208C85.5278 52.7756 85.4251 52.7083 85.3386 52.6229C85.252 52.5376 85.1832 52.4358 85.1362 52.3235C85.0893 52.2112 85.0652 52.0907 85.0652 51.9689C84.9494 48.5657 83.5195 45.3406 81.0773 42.9742C78.6351 40.6078 75.3715 39.2851 71.9752 39.2851C68.5788 39.2851 65.3153 40.6078 62.8731 42.9742C60.4309 45.3406 59.0011 48.5657 58.8852 51.9689C58.8852 52.2122 58.7887 52.4455 58.6172 52.6175C58.4456 52.7895 58.2129 52.8862 57.9703 52.8862H52.3592C51.8644 52.8821 51.388 53.0741 51.0339 53.4206C50.6797 53.7671 50.4765 54.2399 50.4685 54.7359V71.2768C50.4807 74.7331 51.3429 78.133 52.9785 81.1755C54.6142 84.218 56.9728 86.8092 59.8457 88.7195H24.3951C24.275 88.7216 24.1557 88.6999 24.0439 88.6556C23.9321 88.6114 23.8302 88.5455 23.7438 88.4617C23.6574 88.378 23.5884 88.278 23.5405 88.1675C23.4927 88.057 23.467 87.9381 23.4651 87.8176V76.7802C23.4227 76.3088 23.206 75.8703 22.8575 75.551C22.5091 75.2317 22.0541 75.0546 21.582 75.0546C21.1099 75.0546 20.6549 75.2317 20.3065 75.551C19.958 75.8703 19.7413 76.3088 19.699 76.7802V87.8176C19.699 87.9373 19.6752 88.0559 19.6291 88.1663C19.5829 88.2768 19.5153 88.3769 19.4301 88.4608C19.3449 88.5448 19.2439 88.6109 19.133 88.6553C19.0221 88.6998 18.9035 88.7216 18.784 88.7195H10.3064C10.0704 88.7237 9.84221 88.6347 9.67106 88.4717C9.49992 88.3087 9.39956 88.0847 9.39159 87.8482C9.08664 78.8593 10.0015 67.0116 13.5999 63.2203C13.8917 62.8644 14.2599 62.5791 14.6771 62.3859C15.0942 62.1926 15.5495 62.0964 16.009 62.1044H17.7777C22.0623 62.1044 25.5997 61.6305 28.8017 55.592C29.0256 55.152 29.0663 54.6409 28.9148 54.1709C28.7633 53.7009 28.432 53.3103 27.9936 53.0849C27.7248 52.9459 27.427 52.8726 27.1245 52.8709C26.7816 52.8691 26.445 52.9625 26.1517 53.1405C25.8584 53.3186 25.6199 53.5744 25.4625 53.8798C23.3888 57.7781 21.6049 58.466 18.1284 58.466H16.009C15.0347 58.4698 14.072 58.6769 13.1821 59.0744C12.2921 59.4718 11.4946 60.0508 10.8401 60.7744C4.39041 67.5619 5.59494 88.4138 5.76266 90.7681C5.79754 91.2411 6.01088 91.6831 6.3593 92.004C6.70771 92.3249 7.16498 92.5007 7.63808 92.4955H72.3945C77.9558 92.4163 83.2665 90.164 87.1965 86.2181C91.1264 82.2722 93.3652 76.9444 93.4361 71.3685V54.7359C93.4281 54.2399 93.2249 53.7671 92.8708 53.4206C92.5166 53.0741 92.0402 52.8821 91.5454 52.8862H91.5911Z" stroke="white" stroke-width="0.75" stroke-miterlimit="10"/>
</g>
</g>
<defs>
<clipPath id="clip0_2_1438">
<rect width="89" height="87" fill="white" transform="translate(5 6)"/>
</clipPath>
</defs>
</svg>
