<svg width="100" height="100" viewBox="0 0 100 100" fill="none" xmlns="http://www.w3.org/2000/svg">
<mask id="mask0_2_2068" style="mask-type:luminance" maskUnits="userSpaceOnUse" x="3" y="16" width="95" height="67">
<path d="M98 16H3V83H98V16Z" fill="white"/>
</mask>
<g mask="url(#mask0_2_2068)">
<path d="M10.7051 38.6535H19.5579V34.4165H30.6061M70.3939 34.4165H79.2469V38.6535H90.295M86.6649 56.6322C85.982 57.6098 85.0731 58.414 84.013 58.9787C82.953 59.5434 81.7719 59.8524 80.5669 59.8805C79.4572 59.8586 78.3664 59.5937 77.3736 59.1052C76.3809 58.6166 75.5112 57.9165 74.8276 57.0559M70.3939 55.926H74.8276V51.6044M90.295 64.5694V81.8702M10.7051 64.5694V81.8702M85.8758 51.6044V55.926H93.7386C94.1562 55.9242 94.5701 56.0035 94.9565 56.1596C95.3429 56.3156 95.6941 56.5452 95.9901 56.8352C96.286 57.1252 96.521 57.4699 96.6812 57.8495C96.8415 58.2291 96.924 58.6362 96.924 59.0472V81.8702M14.3351 56.6039C15.0228 57.5802 15.9347 58.3831 16.9967 58.9475C18.0587 59.5119 19.241 59.8219 20.4475 59.8523C21.5572 59.8303 22.648 59.5655 23.6408 59.0769C24.6335 58.5883 25.5032 57.8883 26.1868 57.0276M30.6061 55.8978H26.1868V51.5761M15.1387 51.5761V55.8978H7.27581C6.85751 55.8959 6.44299 55.9752 6.0558 56.131C5.66862 56.2869 5.31638 56.5163 5.01927 56.8061C4.72215 57.0959 4.48591 57.4405 4.3241 57.8202C4.16228 58.1999 4.07805 58.6073 4.07617 59.019V81.8419M57.1648 49.7683C56.3027 50.8307 55.2123 51.6919 53.9718 52.2901C52.7314 52.8884 51.3719 53.2089 49.9907 53.2285C48.7173 53.22 47.4594 52.9521 46.2963 52.4417C45.1333 51.9312 44.0901 51.1893 43.2326 50.2627M61.6128 25.6178H46.0879V29.9395H39.4446M32.8588 81.8843V54.0618C32.8607 53.4534 32.9843 52.8514 33.2225 52.2901C33.4608 51.7288 33.8091 51.2192 34.2474 50.7903C34.6858 50.3615 35.2056 50.0218 35.7774 49.7907C36.3491 49.5596 36.9614 49.4417 37.5794 49.4435H43.7635C43.7835 49.4455 43.8038 49.4433 43.8229 49.4371C43.842 49.4309 43.8595 49.4208 43.8744 49.4075C43.8892 49.3942 43.9011 49.3779 43.9092 49.3598C43.9173 49.3417 43.9215 49.3221 43.9214 49.3023V45.0654M59.3888 60.2053V81.8278M41.6973 60.2053V81.8278M57.1792 45.1077V49.3447C57.1792 49.3821 57.1943 49.418 57.2212 49.4445C57.2481 49.471 57.2846 49.4859 57.3226 49.4859H63.5211C64.7668 49.4859 65.9617 49.972 66.8439 50.8377C67.7261 51.7034 68.2236 52.878 68.2274 54.1041V81.9267M90.295 29.7136V44.3027C90.2874 46.263 89.4899 48.1402 88.0777 49.5224C86.6654 50.9046 84.7537 51.6787 82.7621 51.675H77.9268C75.9352 51.6787 74.0235 50.9046 72.6112 49.5224C71.1989 48.1402 70.4015 46.263 70.3939 44.3027V29.77C70.3958 29.234 70.5049 28.7036 70.715 28.2091C70.9252 27.7147 71.2323 27.2657 71.6186 26.888C72.005 26.5103 72.4631 26.2112 72.967 26.0078C73.4708 25.8044 74.0104 25.7007 74.5549 25.7026H86.134C86.6786 25.7007 87.2181 25.8044 87.7219 26.0078C88.2258 26.2112 88.6839 26.5103 89.0703 26.888C89.4567 27.2657 89.7638 27.7147 89.9739 28.2091C90.1841 28.7036 90.2931 29.234 90.295 29.77V29.7136ZM10.7051 29.6853V44.3027C10.7127 46.263 11.5101 48.1402 12.9224 49.5224C14.3347 50.9046 16.2464 51.6787 18.2379 51.675H23.0733C25.0648 51.6787 26.9766 50.9046 28.3888 49.5224C29.8011 48.1402 30.5985 46.263 30.6061 44.3027V29.77C30.6043 29.234 30.4951 28.7036 30.285 28.2091C30.0749 27.7147 29.7679 27.2657 29.3815 26.888C28.9951 26.5103 28.5369 26.2112 28.0331 26.0078C27.5293 25.8044 26.9896 25.7007 26.4451 25.7026H14.8661C14.3216 25.7007 13.7819 25.8044 13.2781 26.0078C12.7743 26.2112 12.3161 26.5103 11.9297 26.888C11.5433 27.2657 11.2363 27.7147 11.0262 28.2091C10.8161 28.7036 10.707 29.234 10.7051 29.77V29.6853ZM61.5554 21.4656V37.2412C61.5516 38.2872 61.3386 39.3223 60.9285 40.2873C60.5183 41.2523 59.919 42.1283 59.1649 42.8653C58.4108 43.6023 57.5166 44.1859 56.5333 44.5828C55.5501 44.9797 54.4969 45.182 53.4342 45.1783H47.5658C45.4207 45.1821 43.3616 44.3489 41.8394 42.8612C40.3172 41.3735 39.456 39.3526 39.4446 37.2412V21.508C39.4465 20.9207 39.5662 20.3396 39.7967 19.798C40.0272 19.2563 40.364 18.7647 40.7879 18.3514C41.2118 17.9381 41.7144 17.6112 42.2668 17.3895C42.8193 17.1677 43.4109 17.0555 44.0075 17.0592H57.0644C58.2569 17.0704 59.397 17.5435 60.2376 18.3762C61.0782 19.209 61.5517 20.3341 61.5554 21.508V21.4656Z" stroke="#454545" stroke-width="1.5" stroke-linecap="round" stroke-linejoin="round"/>
</g>
<path d="M56.9642 57.3101H44.0508V81.277H56.9642V57.3101Z" fill="#D40054"/>
</svg>
