<?xml version="1.0" encoding="utf-8"?>
<!-- Generator: Adobe Illustrator 24.0.0, SVG Export Plug-In . SVG Version: 6.00 Build 0)  -->
<svg version="1.1" id="Layer_1" xmlns="http://www.w3.org/2000/svg" xmlns:xlink="http://www.w3.org/1999/xlink" x="0px" y="0px"
	 viewBox="0 0 457.7 145.3" style="enable-background:new 0 0 457.7 145.3;" xml:space="preserve">
<style type="text/css">
	.st0{fill:#EEEEEE;}
	.st1{fill:#3F3F3F;}
	.st2{fill:#D40054;}
	.st3{fill:none;stroke:#FFFFFF;stroke-width:3;}
	.st4{fill:#D4D4D9;}
	.st5{fill:#FFFFFF;}
	.st6{fill:#E8E8E8;}
	.st7{fill:#707070;}
	.st8{fill:#D31C5B;}
</style>
<path class="st0" d="M180.1,145.3H0V13c0-1.7,0.3-3.4,1-5c0.7-1.6,1.6-3,2.9-4.2S6.6,1.6,8.2,1c1.6-0.7,3.3-1,5.1-1h153.6
	c3.5,0,6.9,1.4,9.3,3.8c2.5,2.4,3.9,5.7,3.9,9.2V145.3z"/>
<path class="st1" d="M180,26H0v113.1h180V26z"/>
<path class="st0" d="M167.7,35.8H12.5v17.6h155.2V35.8z"/>
<path class="st0" d="M58.4,61.6H12.5v66h45.8V61.6z"/>
<path class="st0" d="M113,61.6H67.2v66H113V61.6z"/>
<path class="st0" d="M167.7,61.6h-45.8v66h45.8V61.6z"/>
<path class="st1" d="M20.2,13.3c0,1-0.3,2-0.9,2.8C18.8,17,18,17.6,17,18c-0.9,0.4-2,0.5-3,0.3c-1-0.2-1.9-0.7-2.7-1.4
	s-1.2-1.6-1.4-2.6c-0.2-1-0.1-2,0.3-2.9c0.4-0.9,1.1-1.7,1.9-2.3C13,8.5,14,8.2,15,8.2c1.4,0,2.7,0.5,3.7,1.5
	C19.7,10.7,20.2,12,20.2,13.3z"/>
<path class="st2" d="M33.3,13.3c0,1-0.3,2-0.9,2.8c-0.6,0.8-1.4,1.5-2.3,1.9c-0.9,0.4-2,0.5-3,0.3c-1-0.2-1.9-0.7-2.7-1.4
	s-1.2-1.6-1.4-2.6c-0.2-1-0.1-2,0.3-2.9c0.4-0.9,1.1-1.7,1.9-2.3c0.9-0.6,1.9-0.9,2.9-0.9c1.4,0,2.7,0.5,3.7,1.5
	C32.8,10.7,33.3,12,33.3,13.3z"/>
<path class="st1" d="M46.4,13.3c0,1-0.3,2-0.9,2.8C45,17,44.2,17.6,43.2,18c-0.9,0.4-2,0.5-3,0.3c-1-0.2-1.9-0.7-2.7-1.4
	c-0.7-0.7-1.2-1.6-1.4-2.6c-0.2-1-0.1-2,0.3-2.9c0.4-0.9,1.1-1.7,1.9-2.3c0.9-0.6,1.9-0.9,2.9-0.9c1.4,0,2.7,0.5,3.7,1.5
	C45.9,10.7,46.4,12,46.4,13.3z"/>
<path class="st2" d="M167.5,16.4H58.1c-0.4,0-0.8,0-1.2-0.2c-0.4-0.1-0.8-0.4-1.1-0.6c-0.3-0.3-0.6-0.6-0.7-1
	c-0.2-0.4-0.3-0.8-0.3-1.2c0-0.4,0.1-0.8,0.3-1.2c0.2-0.4,0.4-0.7,0.7-1c0.3-0.3,0.7-0.5,1.1-0.6c0.4-0.1,0.8-0.2,1.2-0.2h109.4
	c0.8,0,1.5,0.4,2.1,0.9c0.5,0.6,0.9,1.3,0.9,2.1c0,0.8-0.3,1.5-0.9,2.1C169.1,16,168.3,16.3,167.5,16.4z"/>
<path class="st2" d="M211.3,100.6h-42.4L140,122.1l3.9-21.5H76.4c-0.8,0-1.6-0.2-2.4-0.5c-0.8-0.3-1.4-0.8-2-1.3
	c-0.6-0.6-1-1.2-1.3-2s-0.5-1.5-0.5-2.3V29.1c0-1.6,0.7-3.2,1.8-4.3c1.2-1.1,2.7-1.8,4.4-1.8h135c0.8,0,1.6,0.2,2.4,0.5
	c0.8,0.3,1.4,0.8,2,1.3c0.6,0.6,1,1.2,1.4,2c0.3,0.7,0.5,1.5,0.5,2.3v65.4c0,1.6-0.7,3.2-1.8,4.3C214.6,99.9,213,100.6,211.3,100.6"
	/>
<path class="st3" d="M211.3,100.6h-42.4L140,122.1l3.9-21.5H76.4c-0.8,0-1.6-0.2-2.4-0.5c-0.8-0.3-1.4-0.8-2-1.3
	c-0.6-0.6-1-1.2-1.3-2s-0.5-1.5-0.5-2.3V29.1c0-1.6,0.7-3.2,1.8-4.3c1.2-1.1,2.7-1.8,4.4-1.8h135c0.8,0,1.6,0.2,2.4,0.5
	c0.8,0.3,1.4,0.8,2,1.3c0.6,0.6,1,1.2,1.4,2c0.3,0.7,0.5,1.5,0.5,2.3v65.4c0,1.6-0.7,3.2-1.8,4.3C214.6,99.9,213,100.6,211.3,100.6"
	/>
<path class="st4" d="M114,52.6h-2.7v1.3h2.7V52.6z"/>
<path class="st5" d="M114.9,53.8h-4.5v1.3h4.5V53.8z"/>
<path class="st5" d="M110.4,52.7h4.5v-2.9c0-1.7-0.3-3.4-0.9-5c-0.6-1.6-1.6-3-2.8-4.3c-1.2-1.2-2.7-2.2-4.3-2.9
	c-1.6-0.7-3.3-1-5.1-1c-1.7,0-3.5,0.3-5.1,1c-1.6,0.7-3.1,1.6-4.3,2.9c-1.2,1.2-2.2,2.7-2.8,4.3c-0.6,1.6-0.9,3.3-0.9,5v10h4.5v-10
	c0-1.1,0.2-2.2,0.7-3.2c0.4-1,1.1-1.9,1.9-2.7c0.8-0.8,1.7-1.4,2.8-1.8c1-0.4,2.2-0.6,3.3-0.6c1.1,0,2.2,0.2,3.3,0.6
	c1,0.4,2,1,2.8,1.8c0.8,0.8,1.4,1.7,1.9,2.7c0.4,1,0.7,2.1,0.7,3.2V52.7z"/>
<path class="st5" d="M101.9,83.4c-1.9,0-3.9-0.4-5.7-1.1c-1.8-0.7-3.4-1.8-4.8-3.1c-1.4-1.3-2.5-2.9-3.2-4.7
	c-0.7-1.8-1.1-3.6-1.1-5.6v-8.8c0-0.4,0.2-0.8,0.5-1.1c0.3-0.3,0.7-0.4,1.1-0.4h26.4c0.4,0,0.8,0.2,1.1,0.4c0.3,0.3,0.4,0.7,0.4,1.1
	v8.8c0,1.9-0.4,3.8-1.1,5.6c-0.7,1.8-1.8,3.4-3.2,4.7c-1.4,1.3-3,2.4-4.8,3.1C105.7,83.1,103.8,83.4,101.9,83.4"/>
<path class="st1" d="M101.9,64.7c-0.7,0-1.4,0.2-2,0.6c-0.6,0.4-1,1-1.1,1.7c-0.2,0.7-0.1,1.4,0.2,2c0.3,0.6,0.8,1.2,1.4,1.5v3.7
	c0,0.4,0.2,0.8,0.4,1.1c0.3,0.3,0.7,0.4,1.1,0.4V64.7z"/>
<path class="st1" d="M101.8,64.7c0.7,0,1.4,0.2,2,0.6c0.6,0.4,1,1,1.1,1.7c0.2,0.7,0.1,1.4-0.2,2c-0.3,0.6-0.8,1.2-1.4,1.5v3.7
	c0,0.4-0.2,0.8-0.4,1.1c-0.3,0.3-0.7,0.4-1.1,0.4V64.7z"/>
<path class="st6" d="M187.2,75.6h-45.5c-1.7,0-3.4-0.4-4.9-1c-1.6-0.6-3-1.6-4.2-2.8s-2.1-2.6-2.8-4.1c-0.6-1.5-0.9-3.2-0.9-4.8
	v-0.3c0-1.7,0.3-3.3,0.9-4.9c0.6-1.5,1.6-2.9,2.8-4.1c1.2-1.2,2.6-2.1,4.2-2.8c1.6-0.6,3.2-1,4.9-1h45.5c1.7,0,3.4,0.4,4.9,1
	c1.6,0.6,3,1.6,4.2,2.8c1.2,1.2,2.1,2.6,2.8,4.1c0.6,1.5,0.9,3.2,0.9,4.9v0.3c0,1.7-0.3,3.3-0.9,4.8c-0.6,1.5-1.6,2.9-2.8,4.1
	s-2.6,2.1-4.2,2.8C190.6,75.3,188.9,75.6,187.2,75.6z"/>
<path class="st5" d="M187.6,75.6h-44c-6.8,0-12.3-5.2-12.3-11.6v-0.2c0-6.4,5.5-11.6,12.3-11.6h44c1.6,0,3.2,0.2,4.6,0.8
	c1.5,0.6,2.8,1.4,4,2.5c1.1,1.1,2.1,2.4,2.7,3.8c0.6,1.4,1,3,1,4.5V64C200,70.4,194.5,75.6,187.6,75.6"/>
<path class="st7" d="M144.8,56.7h3.1l-0.4,4.5l3.8-2.5l1.5,2.7l-4.1,1.8l4.1,1.8l-1.5,2.7l-3.8-2.5l0.4,4.5h-3.1l0.5-4.5l-3.8,2.5
	L140,65l4.1-1.8l-4.1-1.8l1.5-2.7l3.8,2.5L144.8,56.7z"/>
<path class="st7" d="M163.9,56.7h3.1l-0.4,4.5l3.8-2.5l1.5,2.7l-4.1,1.8l4.1,1.8l-1.5,2.7l-3.8-2.5l0.4,4.5h-3.1l0.5-4.5l-3.8,2.5
	l-1.5-2.7l4.1-1.8l-4.1-1.8l1.5-2.7l3.8,2.5L163.9,56.7z"/>
<path class="st7" d="M183,56.7h3.1l-0.4,4.5l3.8-2.5l1.5,2.7l-4.1,1.8L191,65l-1.5,2.7l-3.8-2.5l0.4,4.5H183l0.5-4.5l-3.8,2.5
	l-1.5-2.7l4.1-1.8l-4.1-1.8l1.5-2.7l3.8,2.5L183,56.7z"/>
<path class="st2" d="M266.1,81.7L252.5,69v7.2c-12.7,1.8-17.3,10.7-19.1,19.6c4.6-6.3,10-9.1,19.1-9.1V94L266.1,81.7z"/>
<path class="st8" d="M298.5,53.3h-5.7V51h5.7c1.1,0,2-0.2,2.7-0.5c0.7-0.4,1.2-0.8,1.5-1.5c0.3-0.6,0.5-1.3,0.5-2.1
	c0-0.7-0.2-1.4-0.5-2.1c-0.3-0.6-0.8-1.2-1.5-1.6c-0.7-0.4-1.6-0.6-2.7-0.6h-5v19h-2.8V40.3h7.9c1.6,0,3,0.3,4.1,0.8
	c1.1,0.6,2,1.3,2.5,2.3c0.6,1,0.9,2.1,0.9,3.4c0,1.4-0.3,2.5-0.9,3.5c-0.6,1-1.4,1.7-2.5,2.2C301.4,53,300.1,53.3,298.5,53.3z
	 M318.3,58.9v-8.2c0-0.6-0.1-1.2-0.4-1.6c-0.2-0.5-0.6-0.8-1.1-1.1c-0.5-0.3-1.1-0.4-1.8-0.4c-0.7,0-1.3,0.1-1.8,0.4
	c-0.5,0.2-0.9,0.5-1.2,0.9c-0.3,0.4-0.4,0.8-0.4,1.2h-2.7c0-0.6,0.1-1.1,0.4-1.7s0.7-1.1,1.3-1.5c0.6-0.5,1.2-0.8,2-1.1
	c0.8-0.3,1.7-0.4,2.6-0.4c1.2,0,2.2,0.2,3,0.6c0.9,0.4,1.6,1,2.1,1.8c0.5,0.8,0.8,1.8,0.8,2.9v7.4c0,0.5,0,1.1,0.1,1.7
	c0.1,0.6,0.2,1.1,0.4,1.5v0.2h-2.8c-0.1-0.3-0.2-0.7-0.3-1.2C318.3,59.8,318.3,59.4,318.3,58.9z M318.8,52l0,1.9H316
	c-0.8,0-1.5,0.1-2.1,0.2c-0.6,0.1-1.1,0.3-1.5,0.5c-0.4,0.2-0.7,0.6-0.9,0.9c-0.2,0.4-0.3,0.8-0.3,1.3c0,0.5,0.1,1,0.3,1.4
	c0.2,0.4,0.6,0.7,1,1c0.5,0.2,1,0.4,1.7,0.4c0.8,0,1.6-0.2,2.2-0.5c0.6-0.4,1.1-0.8,1.5-1.3c0.4-0.5,0.6-1,0.6-1.5l1.2,1.3
	c-0.1,0.4-0.3,0.9-0.6,1.4c-0.3,0.5-0.7,1-1.2,1.4c-0.5,0.4-1.1,0.8-1.8,1.1c-0.7,0.3-1.5,0.4-2.3,0.4c-1.1,0-2-0.2-2.8-0.6
	c-0.8-0.4-1.4-1-1.9-1.7c-0.4-0.7-0.7-1.5-0.7-2.4c0-0.8,0.2-1.6,0.5-2.2c0.3-0.7,0.8-1.2,1.4-1.6c0.6-0.4,1.4-0.8,2.3-1
	c0.9-0.2,1.9-0.3,2.9-0.3H318.8z M328,48.3v13.4h-2.7V45.8h2.6L328,48.3z M332.9,45.7l0,2.5c-0.2,0-0.4-0.1-0.6-0.1
	c-0.2,0-0.4,0-0.7,0c-0.6,0-1.2,0.1-1.7,0.3c-0.5,0.2-0.9,0.5-1.2,0.8c-0.3,0.4-0.6,0.8-0.8,1.3c-0.2,0.5-0.3,1-0.4,1.6l-0.8,0.4
	c0-1,0.1-1.9,0.3-2.7c0.2-0.8,0.5-1.6,0.9-2.2c0.4-0.7,0.9-1.2,1.5-1.5c0.6-0.4,1.4-0.6,2.2-0.6c0.2,0,0.4,0,0.7,0.1
	C332.6,45.6,332.8,45.6,332.9,45.7z M341.7,61.9c-1.1,0-2.1-0.2-3-0.6c-0.9-0.4-1.7-0.9-2.3-1.6c-0.6-0.7-1.1-1.5-1.5-2.4
	s-0.5-2-0.5-3.1v-0.6c0-1.3,0.2-2.4,0.6-3.4c0.4-1,0.9-1.9,1.6-2.6c0.7-0.7,1.4-1.2,2.2-1.6c0.8-0.4,1.7-0.5,2.6-0.5
	c1.1,0,2.1,0.2,2.9,0.6c0.8,0.4,1.5,0.9,2,1.6c0.5,0.7,0.9,1.5,1.2,2.5c0.3,0.9,0.4,2,0.4,3.1v1.2H336v-2.2h9.1V52
	c0-0.7-0.2-1.4-0.4-2.1c-0.2-0.7-0.6-1.2-1.2-1.6c-0.5-0.4-1.3-0.6-2.2-0.6c-0.6,0-1.2,0.1-1.7,0.4c-0.5,0.3-1,0.6-1.3,1.1
	c-0.4,0.5-0.7,1.1-0.9,1.9c-0.2,0.7-0.3,1.6-0.3,2.5v0.6c0,0.8,0.1,1.5,0.3,2.1c0.2,0.7,0.5,1.2,0.9,1.7c0.4,0.5,0.9,0.9,1.5,1.2
	c0.6,0.3,1.3,0.4,2,0.4c1,0,1.8-0.2,2.4-0.6c0.7-0.4,1.2-0.9,1.7-1.6l1.6,1.3c-0.3,0.5-0.8,1-1.3,1.5c-0.5,0.5-1.2,0.8-1.9,1.1
	C343.7,61.8,342.8,61.9,341.7,61.9z M357.4,59.7c0.6,0,1.2-0.1,1.8-0.4c0.5-0.3,1-0.6,1.3-1.1c0.4-0.5,0.6-1,0.6-1.6h2.6
	c0,0.9-0.4,1.8-1,2.6c-0.6,0.8-1.3,1.5-2.3,1.9c-0.9,0.5-2,0.7-3.1,0.7c-1.2,0-2.2-0.2-3.1-0.6c-0.9-0.4-1.6-1-2.2-1.7
	c-0.6-0.7-1-1.6-1.3-2.5c-0.3-1-0.4-2-0.4-3v-0.6c0-1.1,0.1-2.1,0.4-3c0.3-1,0.7-1.8,1.3-2.5c0.6-0.7,1.3-1.3,2.2-1.7
	c0.9-0.4,1.9-0.6,3.1-0.6c1.2,0,2.3,0.3,3.3,0.8c0.9,0.5,1.7,1.2,2.2,2.1c0.5,0.9,0.8,1.8,0.9,2.9h-2.6c0-0.7-0.2-1.2-0.6-1.8
	c-0.3-0.5-0.7-0.9-1.3-1.3c-0.5-0.3-1.2-0.5-1.9-0.5c-0.8,0-1.5,0.2-2.1,0.5c-0.6,0.3-1,0.8-1.3,1.3c-0.3,0.5-0.6,1.2-0.7,1.8
	c-0.1,0.7-0.2,1.3-0.2,2V54c0,0.7,0.1,1.4,0.2,2.1c0.1,0.7,0.4,1.3,0.7,1.8c0.3,0.5,0.8,1,1.3,1.3C355.8,59.5,356.5,59.7,357.4,59.7
	z M373.3,61.9c-1.1,0-2.1-0.2-3-0.6c-0.9-0.4-1.7-0.9-2.3-1.6c-0.6-0.7-1.1-1.5-1.5-2.4s-0.5-2-0.5-3.1v-0.6c0-1.3,0.2-2.4,0.6-3.4
	c0.4-1,0.9-1.9,1.6-2.6c0.7-0.7,1.4-1.2,2.2-1.6c0.8-0.4,1.7-0.5,2.6-0.5c1.1,0,2.1,0.2,2.9,0.6c0.8,0.4,1.5,0.9,2,1.6
	c0.5,0.7,0.9,1.5,1.2,2.5c0.3,0.9,0.4,2,0.4,3.1v1.2h-11.8v-2.2h9.1V52c0-0.7-0.2-1.4-0.4-2.1c-0.2-0.7-0.6-1.2-1.2-1.6
	c-0.5-0.4-1.3-0.6-2.2-0.6c-0.6,0-1.2,0.1-1.7,0.4c-0.5,0.3-1,0.6-1.3,1.1c-0.4,0.5-0.7,1.1-0.9,1.9c-0.2,0.7-0.3,1.6-0.3,2.5v0.6
	c0,0.8,0.1,1.5,0.3,2.1c0.2,0.7,0.5,1.2,0.9,1.7c0.4,0.5,0.9,0.9,1.5,1.2c0.6,0.3,1.3,0.4,2,0.4c1,0,1.8-0.2,2.4-0.6
	c0.7-0.4,1.2-0.9,1.7-1.6l1.6,1.3c-0.3,0.5-0.8,1-1.3,1.5c-0.5,0.5-1.2,0.8-1.9,1.1C375.3,61.8,374.4,61.9,373.3,61.9z M296.5,98.7
	c0.6,0,1.2-0.1,1.8-0.4s1-0.6,1.3-1.1c0.4-0.5,0.6-1,0.6-1.6h2.6c0,0.9-0.4,1.8-1,2.6c-0.6,0.8-1.3,1.5-2.3,1.9
	c-0.9,0.5-2,0.7-3.1,0.7c-1.2,0-2.2-0.2-3.1-0.6c-0.9-0.4-1.6-1-2.2-1.7c-0.6-0.7-1-1.6-1.3-2.5c-0.3-1-0.4-2-0.4-3v-0.6
	c0-1.1,0.1-2.1,0.4-3c0.3-1,0.7-1.8,1.3-2.5c0.6-0.7,1.3-1.3,2.2-1.7c0.9-0.4,1.9-0.6,3.1-0.6c1.2,0,2.3,0.3,3.3,0.8
	c0.9,0.5,1.7,1.2,2.2,2.1c0.5,0.9,0.8,1.8,0.9,2.9h-2.6c0-0.7-0.2-1.2-0.6-1.8c-0.3-0.5-0.7-0.9-1.3-1.3c-0.5-0.3-1.2-0.5-1.9-0.5
	c-0.8,0-1.5,0.2-2.1,0.5c-0.6,0.3-1,0.8-1.3,1.3c-0.3,0.5-0.6,1.2-0.7,1.8c-0.1,0.7-0.2,1.3-0.2,2V93c0,0.7,0.1,1.4,0.2,2.1
	c0.1,0.7,0.4,1.3,0.7,1.8c0.3,0.5,0.8,1,1.3,1.3C295,98.5,295.7,98.7,296.5,98.7z M305.2,92.9v-0.3c0-1.1,0.2-2.2,0.5-3.2
	c0.3-1,0.8-1.8,1.4-2.6c0.6-0.7,1.4-1.3,2.3-1.7c0.9-0.4,1.9-0.6,3-0.6c1.1,0,2.1,0.2,3,0.6c0.9,0.4,1.7,1,2.3,1.7
	c0.6,0.7,1.1,1.6,1.5,2.6c0.3,1,0.5,2,0.5,3.2v0.3c0,1.1-0.2,2.2-0.5,3.2c-0.3,1-0.8,1.8-1.5,2.6c-0.6,0.7-1.4,1.3-2.3,1.7
	c-0.9,0.4-1.9,0.6-3,0.6c-1.1,0-2.1-0.2-3-0.6c-0.9-0.4-1.7-1-2.3-1.7c-0.6-0.7-1.1-1.6-1.4-2.6C305.3,95.1,305.2,94,305.2,92.9z
	 M307.9,92.5v0.3c0,0.8,0.1,1.5,0.3,2.2c0.2,0.7,0.5,1.3,0.8,1.8c0.4,0.5,0.9,1,1.4,1.3c0.6,0.3,1.2,0.5,2,0.5
	c0.7,0,1.4-0.2,1.9-0.5c0.6-0.3,1-0.7,1.4-1.3c0.4-0.5,0.6-1.2,0.8-1.8c0.2-0.7,0.3-1.5,0.3-2.2v-0.3c0-0.8-0.1-1.5-0.3-2.2
	c-0.2-0.7-0.5-1.3-0.8-1.9c-0.4-0.5-0.8-1-1.4-1.3c-0.6-0.3-1.2-0.5-2-0.5c-0.7,0-1.4,0.2-2,0.5c-0.6,0.3-1,0.7-1.4,1.3
	c-0.4,0.5-0.6,1.2-0.8,1.9C308,91,307.9,91.8,307.9,92.5z M325.7,87.9v12.7H323V84.8h2.6L325.7,87.9z M325.1,92.1l-1.3,0
	c0-1.1,0.2-2.1,0.4-3c0.3-0.9,0.7-1.7,1.2-2.4c0.5-0.7,1.2-1.2,2-1.6c0.8-0.4,1.7-0.6,2.8-0.6c0.7,0,1.4,0.1,2.1,0.3
	c0.6,0.2,1.2,0.5,1.6,1c0.5,0.4,0.8,1,1.1,1.7c0.3,0.7,0.4,1.6,0.4,2.5v10.6h-2.7V90.2c0-0.8-0.1-1.5-0.4-2
	c-0.3-0.5-0.7-0.9-1.2-1.1c-0.5-0.2-1.1-0.4-1.8-0.4c-0.8,0-1.5,0.1-2,0.4c-0.5,0.3-1,0.7-1.3,1.2c-0.3,0.5-0.6,1.1-0.7,1.7
	C325.2,90.7,325.1,91.4,325.1,92.1z M335.4,90.6l-1.8,0.6c0-0.9,0.2-1.7,0.4-2.5c0.3-0.8,0.7-1.5,1.2-2.1c0.5-0.6,1.2-1.1,2-1.5
	c0.8-0.4,1.7-0.6,2.7-0.6c0.8,0,1.6,0.1,2.3,0.3c0.7,0.2,1.2,0.6,1.7,1c0.5,0.5,0.8,1,1,1.8c0.2,0.7,0.4,1.6,0.4,2.6v10.4h-2.7V90.2
	c0-0.9-0.1-1.6-0.4-2.1c-0.3-0.5-0.7-0.8-1.2-1c-0.5-0.2-1.1-0.3-1.8-0.3c-0.6,0-1.1,0.1-1.6,0.3c-0.5,0.2-0.8,0.5-1.2,0.8
	c-0.3,0.4-0.6,0.8-0.7,1.2C335.5,89.6,335.4,90.1,335.4,90.6z M352,87.8v18.9h-2.7V84.8h2.5L352,87.8z M362.7,92.6v0.3
	c0,1.2-0.1,2.2-0.4,3.2c-0.3,1-0.7,1.8-1.2,2.5c-0.5,0.7-1.2,1.3-1.9,1.7c-0.8,0.4-1.6,0.6-2.6,0.6c-1,0-1.9-0.2-2.7-0.5
	c-0.8-0.3-1.4-0.8-2-1.5c-0.5-0.6-1-1.4-1.3-2.3c-0.3-0.9-0.5-1.9-0.6-3V92c0.1-1.2,0.3-2.2,0.7-3.1c0.3-0.9,0.7-1.7,1.3-2.4
	c0.5-0.7,1.2-1.2,1.9-1.5c0.8-0.4,1.6-0.5,2.6-0.5s1.9,0.2,2.7,0.6c0.8,0.4,1.4,0.9,1.9,1.6c0.5,0.7,0.9,1.6,1.2,2.6
	C362.6,90.3,362.7,91.3,362.7,92.6z M360,92.9v-0.3c0-0.8-0.1-1.5-0.2-2.2c-0.2-0.7-0.4-1.3-0.8-1.8c-0.3-0.5-0.8-1-1.3-1.3
	c-0.5-0.3-1.2-0.5-1.9-0.5c-0.7,0-1.3,0.1-1.8,0.4c-0.5,0.2-0.9,0.6-1.3,1c-0.4,0.4-0.6,0.8-0.9,1.3c-0.2,0.5-0.4,1-0.5,1.6v3.8
	c0.2,0.7,0.5,1.3,0.8,1.9c0.4,0.6,0.8,1.1,1.4,1.5c0.6,0.4,1.3,0.5,2.2,0.5c0.7,0,1.4-0.2,1.9-0.5c0.5-0.3,1-0.7,1.3-1.3
	c0.4-0.5,0.6-1.2,0.8-1.8C359.9,94.4,360,93.7,360,92.9z M369.1,78.1v22.5h-2.7V78.1H369.1z M376.4,84.8v15.8h-2.7V84.8H376.4z
	 M373.5,80.6c0-0.4,0.1-0.8,0.4-1.1c0.3-0.3,0.7-0.5,1.2-0.5c0.5,0,0.9,0.2,1.2,0.5c0.3,0.3,0.4,0.7,0.4,1.1c0,0.4-0.1,0.8-0.4,1.1
	c-0.3,0.3-0.7,0.4-1.2,0.4c-0.5,0-0.9-0.1-1.2-0.4C373.6,81.3,373.5,81,373.5,80.6z M387.1,98.7c0.6,0,1.2-0.1,1.8-0.4
	c0.5-0.3,1-0.6,1.3-1.1c0.4-0.5,0.6-1,0.6-1.6h2.6c0,0.9-0.4,1.8-1,2.6c-0.6,0.8-1.3,1.5-2.3,1.9c-0.9,0.5-2,0.7-3.1,0.7
	c-1.2,0-2.2-0.2-3.1-0.6c-0.9-0.4-1.6-1-2.2-1.7c-0.6-0.7-1-1.6-1.3-2.5c-0.3-1-0.4-2-0.4-3v-0.6c0-1.1,0.1-2.1,0.4-3
	c0.3-1,0.7-1.8,1.3-2.5c0.6-0.7,1.3-1.3,2.2-1.7c0.9-0.4,1.9-0.6,3.1-0.6c1.2,0,2.3,0.3,3.3,0.8c0.9,0.5,1.7,1.2,2.2,2.1
	c0.5,0.9,0.8,1.8,0.9,2.9h-2.6c0-0.7-0.2-1.2-0.6-1.8c-0.3-0.5-0.7-0.9-1.3-1.3c-0.5-0.3-1.2-0.5-1.9-0.5c-0.8,0-1.5,0.2-2.1,0.5
	c-0.6,0.3-1,0.8-1.3,1.3c-0.3,0.5-0.6,1.2-0.7,1.8c-0.1,0.7-0.2,1.3-0.2,2V93c0,0.7,0.1,1.4,0.2,2.1c0.1,0.7,0.4,1.3,0.7,1.8
	c0.3,0.5,0.8,1,1.3,1.3C385.5,98.5,386.3,98.7,387.1,98.7z M405.8,97.9v-8.2c0-0.6-0.1-1.2-0.4-1.6c-0.2-0.5-0.6-0.8-1.1-1.1
	c-0.5-0.3-1.1-0.4-1.8-0.4c-0.7,0-1.3,0.1-1.8,0.4c-0.5,0.2-0.9,0.5-1.2,0.9c-0.3,0.4-0.4,0.8-0.4,1.2h-2.7c0-0.6,0.1-1.1,0.4-1.7
	c0.3-0.6,0.7-1.1,1.3-1.5c0.6-0.5,1.2-0.8,2-1.1c0.8-0.3,1.7-0.4,2.6-0.4c1.2,0,2.2,0.2,3,0.6c0.9,0.4,1.6,1,2.1,1.8
	c0.5,0.8,0.8,1.8,0.8,2.9v7.4c0,0.5,0,1.1,0.1,1.7c0.1,0.6,0.2,1.1,0.4,1.5v0.2h-2.8c-0.1-0.3-0.2-0.7-0.3-1.2
	C405.8,98.8,405.8,98.4,405.8,97.9z M406.3,91l0,1.9h-2.7c-0.8,0-1.5,0.1-2.1,0.2c-0.6,0.1-1.1,0.3-1.5,0.5
	c-0.4,0.2-0.7,0.6-0.9,0.9c-0.2,0.4-0.3,0.8-0.3,1.3c0,0.5,0.1,1,0.3,1.4c0.2,0.4,0.6,0.7,1,1c0.5,0.2,1,0.4,1.7,0.4
	c0.8,0,1.6-0.2,2.2-0.5c0.6-0.4,1.1-0.8,1.5-1.3c0.4-0.5,0.6-1,0.6-1.5l1.2,1.3c-0.1,0.4-0.3,0.9-0.6,1.4c-0.3,0.5-0.7,1-1.2,1.4
	c-0.5,0.4-1.1,0.8-1.8,1.1c-0.7,0.3-1.5,0.4-2.3,0.4c-1.1,0-2-0.2-2.8-0.6c-0.8-0.4-1.4-1-1.9-1.7c-0.4-0.7-0.7-1.5-0.7-2.4
	c0-0.8,0.2-1.6,0.5-2.2c0.3-0.7,0.8-1.2,1.4-1.6c0.6-0.4,1.4-0.8,2.3-1c0.9-0.2,1.9-0.3,2.9-0.3H406.3z M422.8,97.5V78.1h2.7v22.5
	H423L422.8,97.5z M412.1,92.9v-0.3c0-1.2,0.1-2.3,0.4-3.3c0.3-1,0.7-1.9,1.3-2.6c0.6-0.7,1.2-1.3,2-1.6c0.8-0.4,1.6-0.6,2.6-0.6
	c1,0,1.9,0.2,2.6,0.5c0.8,0.3,1.4,0.8,1.9,1.5c0.5,0.7,0.9,1.4,1.2,2.4c0.3,0.9,0.5,2,0.6,3.1v1.3c-0.1,1.2-0.3,2.2-0.6,3.1
	c-0.3,0.9-0.7,1.7-1.2,2.4c-0.5,0.7-1.2,1.2-1.9,1.5c-0.8,0.3-1.6,0.5-2.6,0.5c-0.9,0-1.8-0.2-2.5-0.6c-0.8-0.4-1.4-1-2-1.7
	c-0.5-0.7-1-1.6-1.3-2.5C412.2,95.1,412.1,94,412.1,92.9z M414.8,92.6v0.3c0,0.8,0.1,1.5,0.2,2.2c0.2,0.7,0.4,1.3,0.8,1.8
	c0.3,0.5,0.8,0.9,1.3,1.2c0.5,0.3,1.2,0.4,1.9,0.4c0.9,0,1.6-0.2,2.2-0.6c0.6-0.4,1.1-0.9,1.4-1.5c0.4-0.6,0.6-1.3,0.8-2V91
	c-0.1-0.5-0.3-1.1-0.5-1.6c-0.2-0.5-0.5-1-0.8-1.3c-0.3-0.4-0.8-0.7-1.3-1c-0.5-0.2-1.1-0.4-1.8-0.4c-0.7,0-1.4,0.2-1.9,0.5
	c-0.5,0.3-1,0.7-1.3,1.3c-0.3,0.5-0.6,1.1-0.8,1.8C414.9,91,414.8,91.8,414.8,92.6z M429,92.9v-0.3c0-1.1,0.2-2.2,0.5-3.2
	c0.3-1,0.8-1.8,1.4-2.6c0.6-0.7,1.4-1.3,2.3-1.7c0.9-0.4,1.9-0.6,3-0.6c1.1,0,2.1,0.2,3,0.6c0.9,0.4,1.7,1,2.3,1.7
	c0.6,0.7,1.1,1.6,1.5,2.6c0.3,1,0.5,2,0.5,3.2v0.3c0,1.1-0.2,2.2-0.5,3.2c-0.3,1-0.8,1.8-1.5,2.6c-0.6,0.7-1.4,1.3-2.3,1.7
	c-0.9,0.4-1.9,0.6-3,0.6c-1.1,0-2.1-0.2-3-0.6c-0.9-0.4-1.7-1-2.3-1.7c-0.6-0.7-1.1-1.6-1.4-2.6C429.2,95.1,429,94,429,92.9z
	 M431.7,92.5v0.3c0,0.8,0.1,1.5,0.3,2.2c0.2,0.7,0.5,1.3,0.8,1.8c0.4,0.5,0.9,1,1.4,1.3c0.6,0.3,1.2,0.5,2,0.5
	c0.7,0,1.4-0.2,1.9-0.5c0.6-0.3,1-0.7,1.4-1.3s0.6-1.2,0.8-1.8c0.2-0.7,0.3-1.5,0.3-2.2v-0.3c0-0.8-0.1-1.5-0.3-2.2
	c-0.2-0.7-0.5-1.3-0.9-1.9c-0.4-0.5-0.8-1-1.4-1.3c-0.6-0.3-1.2-0.5-2-0.5c-0.7,0-1.4,0.2-2,0.5c-0.6,0.3-1,0.7-1.4,1.3
	c-0.4,0.5-0.6,1.2-0.8,1.9C431.8,91,431.7,91.8,431.7,92.5z M452.7,94.6H450c0-0.9,0.1-1.7,0.2-2.3c0.2-0.6,0.4-1.2,0.8-1.7
	c0.4-0.5,0.9-1.1,1.5-1.7c0.5-0.5,0.9-0.9,1.2-1.3c0.4-0.4,0.7-0.8,0.9-1.3c0.2-0.5,0.4-1,0.4-1.7c0-0.7-0.1-1.3-0.4-1.7
	c-0.2-0.5-0.6-0.9-1.1-1.1c-0.5-0.3-1-0.4-1.7-0.4c-0.6,0-1.1,0.1-1.6,0.3c-0.5,0.2-0.9,0.5-1.2,1c-0.3,0.4-0.5,1-0.5,1.7h-2.7
	c0-1.1,0.3-2.1,0.8-2.8c0.5-0.8,1.3-1.4,2.2-1.8c0.9-0.4,1.9-0.6,3-0.6c1.2,0,2.3,0.2,3.2,0.7c0.9,0.4,1.5,1.1,2,1.9
	c0.5,0.8,0.7,1.8,0.7,3c0,0.9-0.2,1.7-0.5,2.4c-0.4,0.7-0.8,1.4-1.4,2.1c-0.6,0.6-1.1,1.3-1.8,1.8c-0.5,0.5-0.9,1.1-1.1,1.7
	C452.8,93.2,452.7,93.9,452.7,94.6z M449.9,99.3c0-0.4,0.1-0.8,0.4-1.1c0.3-0.3,0.7-0.5,1.2-0.5c0.5,0,0.9,0.2,1.2,0.5
	c0.3,0.3,0.4,0.7,0.4,1.1c0,0.4-0.1,0.8-0.4,1.1c-0.3,0.3-0.7,0.5-1.2,0.5c-0.5,0-0.9-0.2-1.2-0.5C450,100,449.9,99.7,449.9,99.3z"
	/>
</svg>
