<svg width="80" height="80" viewBox="0 0 80 80" fill="none" xmlns="http://www.w3.org/2000/svg">
<g clip-path="url(#clip0_2_1176)">
<mask id="mask0_2_1176" style="mask-type:luminance" maskUnits="userSpaceOnUse" x="1" y="5" width="79" height="71">
<path d="M79.0147 5H1V76H79.0147V5Z" fill="white"/>
</mask>
<g mask="url(#mask0_2_1176)">
<path d="M40.8959 22.5372C40.8959 31.1664 35.8447 38.1519 29.6188 38.1519C23.3929 38.1519 18.3564 31.1664 18.3564 22.5372C18.3564 13.908 23.3929 6.92247 29.6188 6.92247C35.8447 6.92247 40.8959 13.908 40.8959 22.5372Z" fill="white"/>
<path d="M29.6189 38.1519C35.8471 38.1519 40.896 31.161 40.896 22.5372C40.896 13.9134 35.8471 6.92249 29.6189 6.92249C23.3907 6.92249 18.3418 13.9134 18.3418 22.5372C18.3418 31.161 23.3907 38.1519 29.6189 38.1519Z" stroke="white" stroke-width="0.75" stroke-miterlimit="10"/>
<path d="M19.8101 45.3723C18.8906 47.0432 17.5075 48.4129 15.8271 49.3164C14.1468 50.2199 12.2409 50.6186 10.3391 50.4647H8.87074C8.52887 50.4684 8.19293 50.5544 7.89134 50.7153C7.58975 50.8762 7.33139 51.1074 7.13807 51.3892C4.59778 54.4564 4.01041 63.9954 4.27472 71.2305C4.27057 71.4085 4.33551 71.5813 4.45594 71.7126C4.57636 71.8439 4.74295 71.9236 4.92081 71.9349H52.408C52.5859 71.9236 52.7525 71.8439 52.8729 71.7126C52.9933 71.5813 53.0583 71.4085 53.0541 71.2305C53.3184 63.9954 52.7311 54.4564 50.1174 51.3892C49.9255 51.1094 49.6694 50.8795 49.3706 50.7187C49.0717 50.5578 48.7388 50.4707 48.3994 50.4647H46.931C45.0271 50.6197 43.1188 50.2215 41.4359 49.3181C39.7531 48.4146 38.3673 47.0444 37.4453 45.3723C37.3491 45.203 37.2797 45.0198 37.2397 44.8293C34.9439 47.1252 31.8364 48.4261 28.5887 48.4508C25.3411 48.4755 22.2141 47.2221 19.8835 44.9613C19.8567 45.1052 19.8072 45.2439 19.7367 45.3723" fill="#3F3F3F"/>
<path d="M19.8101 45.3723C18.8906 47.0432 17.5075 48.4129 15.8271 49.3164C14.1468 50.2199 12.2409 50.6186 10.3391 50.4647H8.87074C8.52887 50.4684 8.19293 50.5544 7.89134 50.7153C7.58975 50.8762 7.33139 51.1074 7.13807 51.3892C4.59778 54.4564 4.01041 63.9954 4.27472 71.2305C4.27057 71.4085 4.33551 71.5813 4.45594 71.7126C4.57636 71.8439 4.74295 71.9236 4.92081 71.9349H52.408C52.5859 71.9236 52.7525 71.8439 52.8729 71.7126C52.9933 71.5813 53.0583 71.4085 53.0541 71.2305C53.3184 63.9954 52.7311 54.4564 50.1174 51.3892C49.9255 51.1094 49.6694 50.8795 49.3706 50.7187C49.0717 50.5578 48.7388 50.4707 48.3994 50.4647H46.931C45.0271 50.6197 43.1188 50.2215 41.4359 49.3181C39.7531 48.4146 38.3673 47.0444 37.4453 45.3723C37.3491 45.203 37.2797 45.0198 37.2397 44.8293C34.9439 47.1252 31.8364 48.4261 28.5887 48.4508C25.3411 48.4755 22.2141 47.2221 19.8835 44.9613C19.8801 45.1012 19.8553 45.2398 19.8101 45.3723Z" stroke="white" stroke-miterlimit="10"/>
<path d="M29.6191 8.52214C25.214 8.52214 20.0159 10.5767 20.0159 20.2625C20.0159 29.0678 24.421 36.4936 29.6191 36.4936C34.8171 36.4936 39.2223 29.0678 39.2223 20.2625C39.2223 10.518 33.9948 8.52214 29.6191 8.52214ZM29.6191 39.5314C22.5709 39.5314 17.0498 31.093 17.0498 20.3212C17.0498 6.98118 25.86 5.54297 29.6191 5.54297C33.3781 5.54297 42.2031 7.01053 42.2031 20.3212C42.2031 31.093 36.6673 39.5314 29.6191 39.5314Z" fill="#3F3F3F"/>
<path d="M29.6191 8.52214C25.214 8.52214 20.0159 10.5767 20.0159 20.2625C20.0159 29.0678 24.421 36.4936 29.6191 36.4936C34.8171 36.4936 39.2223 29.0678 39.2223 20.2625C39.1929 10.5767 33.9948 8.52214 29.6191 8.52214ZM29.6191 39.5314C22.5709 39.5314 17.0498 31.093 17.0498 20.3212C17.0498 6.98118 25.86 5.54297 29.6191 5.54297C33.3781 5.54297 42.2031 7.01053 42.2031 20.3212C42.2031 31.093 36.6673 39.5021 29.6191 39.5021V39.5314Z" stroke="white" stroke-width="0.75" stroke-miterlimit="10"/>
<path d="M67.958 57.9051C68.0188 59.7809 67.7015 61.6497 67.0253 63.4004C66.349 65.1512 65.3275 66.7482 64.0214 68.0966C62.7153 69.4449 61.1513 70.5171 59.4223 71.2493C57.6934 71.9815 55.8348 72.3588 53.957 72.3588C52.0792 72.3588 50.2207 71.9815 48.4917 71.2493C46.7628 70.5171 45.1987 69.4449 43.8926 68.0966C42.5865 66.7482 41.5649 65.1512 40.8887 63.4004C40.2124 61.6497 39.8953 59.7809 39.9561 57.9051V46.8398C39.9541 46.7442 39.9713 46.6491 40.0065 46.5601C40.0418 46.4712 40.0945 46.3902 40.1615 46.3218C40.2285 46.2535 40.3085 46.1992 40.3968 46.1622C40.485 46.1251 40.5798 46.106 40.6756 46.106H67.2384C67.3341 46.106 67.4289 46.1251 67.5172 46.1622C67.6055 46.1992 67.6855 46.2535 67.7525 46.3218C67.8195 46.3902 67.8721 46.4712 67.9074 46.5601C67.9427 46.6491 67.9599 46.7442 67.958 46.8398V57.9051ZM53.9643 35.0994C55.9115 35.0994 57.7789 35.8725 59.1558 37.2486C60.5327 38.6247 61.3062 40.4911 61.3062 42.4372C61.3062 42.6279 61.2304 42.8108 61.0955 42.9457C60.9606 43.0805 60.7775 43.1563 60.5867 43.1563H47.2979C47.1998 43.1623 47.1014 43.1481 47.009 43.1147C46.9166 43.0813 46.8319 43.0293 46.7604 42.9619C46.6888 42.8945 46.632 42.8132 46.5931 42.7229C46.5542 42.6327 46.5342 42.5354 46.5344 42.4372C46.5344 40.4911 47.3079 38.6247 48.6848 37.2486C50.0616 35.8725 51.9291 35.0994 53.8762 35.0994M69.3529 43.1856H64.9477C64.7569 43.1856 64.574 43.1099 64.439 42.975C64.3041 42.8402 64.2283 42.6572 64.2283 42.4665C64.2302 41.1126 63.9653 39.7717 63.4487 38.5201C62.9321 37.2686 62.1739 36.131 61.2174 35.1723C59.2856 33.2361 56.6634 32.1462 53.9276 32.1423C52.573 32.1404 51.2313 32.4052 49.979 32.9215C48.7268 33.4378 47.5885 34.1956 46.6293 35.1515C44.692 37.0822 43.6015 39.7029 43.5976 42.4372C43.5976 42.6279 43.5219 42.8108 43.3869 42.9457C43.252 43.0805 43.069 43.1563 42.8781 43.1563H38.473C38.0836 43.1563 37.7101 43.3109 37.4347 43.5861C37.1594 43.8613 37.0046 44.2346 37.0046 44.6238V57.9051C36.9996 60.6611 37.6653 63.377 38.9443 65.8186C40.2234 68.2602 42.0774 70.3542 44.3465 71.9202H16.4474C16.2539 71.9165 16.0693 71.838 15.9324 71.7012C15.7956 71.5644 15.717 71.3799 15.7132 71.1864V62.3812C15.7132 61.9919 15.5585 61.6187 15.2831 61.3435C15.0077 61.0682 14.6343 60.9136 14.2448 60.9136C13.8554 60.9136 13.4819 61.0682 13.2066 61.3435C12.9312 61.6187 12.7765 61.9919 12.7765 62.3812V71.1864C12.7765 71.3785 12.7012 71.563 12.5667 71.7002C12.4321 71.8374 12.2491 71.9164 12.057 71.9202H5.36121C5.17147 71.9204 4.98902 71.8471 4.85215 71.7158C4.71528 71.5844 4.63461 71.4053 4.62702 71.2158C4.39208 63.9954 5.11151 54.4858 7.94547 51.4479C8.17555 51.1635 8.46648 50.9342 8.79679 50.7767C9.1271 50.6193 9.48848 50.5377 9.85442 50.538H11.2493C14.6413 50.538 17.4312 50.1565 19.9568 45.3136C20.0506 45.1408 20.1086 44.9509 20.1275 44.7553C20.1464 44.5597 20.1258 44.3623 20.0669 44.1747C20.008 43.9872 19.912 43.8134 19.7847 43.6637C19.6573 43.5139 19.5011 43.3913 19.3254 43.303C19.1133 43.1886 18.8763 43.1281 18.6353 43.1269C18.3616 43.125 18.0929 43.1996 17.8594 43.3422C17.6259 43.4848 17.4368 43.6898 17.3137 43.9341C15.6838 47.0599 14.2742 47.5736 11.543 47.5736H9.82503C9.05556 47.5815 8.29621 47.7501 7.59576 48.0685C6.89531 48.387 6.26921 48.8482 5.75761 49.4227C0.662349 54.882 1.60212 71.6267 1.73428 73.5198C1.75675 73.8936 1.92133 74.2446 2.19431 74.5011C2.46728 74.7576 2.82801 74.9 3.20265 74.8993H54.3167C58.7548 74.7997 62.978 72.9694 66.0839 69.7994C69.1898 66.6294 70.9322 62.3712 70.9387 57.9345V44.6532C70.9387 44.264 70.784 43.8907 70.5086 43.6154C70.2333 43.3402 69.8598 43.1856 69.4704 43.1856" fill="#3F3F3F"/>
<path d="M67.958 57.9052C68.0188 59.7809 67.7015 61.6497 67.0253 63.4004C66.349 65.1512 65.3275 66.7482 64.0214 68.0966C62.7153 69.4449 61.1513 70.5171 59.4223 71.2493C57.6934 71.9815 55.8348 72.3588 53.957 72.3588C52.0792 72.3588 50.2207 71.9815 48.4917 71.2493C46.7628 70.5171 45.1987 69.4449 43.8926 68.0966C42.5865 66.7482 41.5649 65.1512 40.8887 63.4004C40.2124 61.6497 39.8953 59.7809 39.9561 57.9052V46.8398C39.9541 46.7442 39.9713 46.6491 40.0065 46.5601C40.0418 46.4712 40.0945 46.3902 40.1615 46.3218C40.2285 46.2535 40.3085 46.1992 40.3968 46.1622C40.485 46.1251 40.5798 46.106 40.6756 46.106H67.2384C67.3341 46.106 67.4289 46.1251 67.5172 46.1622C67.6055 46.1992 67.6855 46.2535 67.7525 46.3218C67.8195 46.3902 67.8721 46.4712 67.9074 46.5601C67.9427 46.6491 67.9599 46.7442 67.958 46.8398V57.9052ZM53.9643 35.0994C55.9115 35.0994 57.7789 35.8725 59.1558 37.2486C60.5327 38.6247 61.3062 40.4911 61.3062 42.4372C61.3062 42.6279 61.2304 42.8108 61.0955 42.9457C60.9606 43.0805 60.7775 43.1563 60.5867 43.1563H47.2979C47.1998 43.1623 47.1014 43.1481 47.009 43.1147C46.9166 43.0813 46.8319 43.0293 46.7604 42.9619C46.6888 42.8945 46.6319 42.8132 46.5931 42.7229C46.5542 42.6327 46.5342 42.5354 46.5344 42.4372C46.5343 41.4661 46.727 40.5047 47.1015 39.6087C47.476 38.7126 48.0247 37.8998 48.7158 37.2172C49.4069 36.5347 50.2267 35.9961 51.1277 35.6325C52.0286 35.269 52.9928 35.0878 53.9643 35.0994ZM69.441 43.1856H65.0358C64.845 43.1856 64.6621 43.1099 64.5271 42.975C64.3922 42.8402 64.3164 42.6572 64.3164 42.4665C64.3202 39.7206 63.2326 37.0856 61.2926 35.1412C59.3526 33.1968 56.7192 32.1022 53.9717 32.0983C51.2242 32.0944 48.5877 33.1815 46.6422 35.1204C44.6967 37.0593 43.6015 39.6912 43.5976 42.4372C43.5976 42.6279 43.5218 42.8108 43.3869 42.9457C43.252 43.0805 43.069 43.1563 42.8781 43.1563H38.473C38.0836 43.1563 37.7101 43.3109 37.4347 43.5861C37.1594 43.8613 37.0046 44.2346 37.0046 44.6238V57.9052C36.9996 60.6611 37.6653 63.377 38.9443 65.8186C40.2234 68.2602 42.0774 70.3542 44.3465 71.9202H16.4474C16.2539 71.9165 16.0693 71.838 15.9324 71.7012C15.7956 71.5644 15.717 71.3799 15.7132 71.1864V62.3812C15.7132 61.9919 15.5585 61.6187 15.2831 61.3435C15.0077 61.0682 14.6343 60.9136 14.2448 60.9136C13.8554 60.9136 13.4819 61.0682 13.2066 61.3435C12.9312 61.6187 12.7765 61.9919 12.7765 62.3812V71.1864C12.7765 71.3785 12.7012 71.563 12.5667 71.7002C12.4321 71.8374 12.2491 71.9164 12.057 71.9202H5.36121C5.17147 71.9204 4.98902 71.8471 4.85215 71.7158C4.71528 71.5844 4.63461 71.4053 4.62702 71.2158C4.39208 63.9954 5.11151 54.4858 7.94547 51.4479C8.17555 51.1635 8.46648 50.9342 8.79679 50.7767C9.1271 50.6193 9.48848 50.5377 9.85442 50.538H11.2493C14.6413 50.538 17.4312 50.1565 19.9568 45.3136C20.0506 45.1408 20.1086 44.9509 20.1275 44.7553C20.1464 44.5597 20.1258 44.3623 20.0669 44.1747C20.008 43.9872 19.912 43.8134 19.7847 43.6637C19.6573 43.5139 19.5011 43.3913 19.3254 43.303C19.1133 43.1886 18.8763 43.1281 18.6353 43.1269C18.3616 43.125 18.0929 43.1996 17.8594 43.3422C17.6259 43.4848 17.4368 43.6898 17.3137 43.9341C15.6838 47.0599 14.2742 47.5736 11.543 47.5736H9.82503C9.05556 47.5815 8.29621 47.7501 7.59576 48.0685C6.89531 48.387 6.26921 48.8482 5.75761 49.4227C0.662349 54.882 1.60212 71.6267 1.73428 73.5198C1.75675 73.8936 1.92133 74.2447 2.19431 74.5011C2.46728 74.7576 2.82801 74.9 3.20265 74.8993H54.3167C58.7548 74.7997 62.978 72.9694 66.0839 69.7994C69.1898 66.6294 70.9322 62.3712 70.9387 57.9345V44.6532C70.9468 44.4531 70.9138 44.2535 70.8418 44.0666C70.7697 43.8797 70.6601 43.7095 70.5198 43.5665C70.3795 43.4236 70.2115 43.3108 70.0259 43.2352C69.8404 43.1596 69.6413 43.1228 69.441 43.1269V43.1856Z" stroke="white" stroke-width="0.75" stroke-miterlimit="10"/>
<path d="M56.8131 75.9853C61.2084 75.9882 65.5058 74.6881 69.1615 72.2494C72.8172 69.8107 75.667 66.3431 77.3504 62.2852C79.0337 58.2274 79.4749 53.7617 78.6182 49.4531C77.7614 45.1446 75.6451 41.1869 72.5372 38.0807C69.4293 34.9745 65.4694 32.8595 61.1585 32.0032C56.8475 31.147 52.3793 31.5879 48.3192 33.2703C44.259 34.9527 40.7895 37.8009 38.3494 41.4546C35.9093 45.1083 34.6084 49.4032 34.6113 53.796C34.6113 59.681 36.9504 65.3249 41.1141 69.4862C45.2777 73.6476 50.9248 75.9853 56.8131 75.9853Z" fill="#D40054"/>
<path d="M56.8133 47.8818C52.6285 47.8818 49.2366 51.9175 49.2366 56.8778C49.2366 61.8381 52.5991 65.9179 56.8133 65.9179C61.0276 65.9179 64.3755 61.8822 64.3755 56.9072C64.3755 51.9322 60.9835 47.9111 56.8133 47.9111M56.8133 67.6203C51.7034 67.6203 47.5332 62.8067 47.5332 56.9072C47.5332 51.0076 51.7034 46.2088 56.8133 46.2088C61.9233 46.2088 66.0788 51.0076 66.0788 56.9072C66.0788 62.8067 61.9233 67.6203 56.8133 67.6203Z" fill="white"/>
<path d="M56.813 46.1794C57.8201 46.189 58.8164 46.3882 59.7498 46.7665C59.7498 45.988 59.4403 45.2415 58.8896 44.691C58.3388 44.1406 57.5919 43.8314 56.813 43.8314C56.0341 43.8314 55.2872 44.1406 54.7365 44.691C54.1857 45.2415 53.8763 45.988 53.8763 46.7665C54.8092 46.3868 55.8058 46.1876 56.813 46.1794ZM60.6455 48.9971C60.4901 49.0037 60.3364 48.9628 60.205 48.8797C59.1946 48.2259 58.0167 47.878 56.813 47.878C55.6094 47.878 54.4314 48.2259 53.4211 48.8797C53.2926 48.9574 53.1458 48.9996 52.9956 49.0023C52.8455 49.005 52.6974 48.9679 52.5662 48.8949C52.435 48.8219 52.3254 48.7156 52.2486 48.5866C52.1718 48.4576 52.1306 48.3107 52.1289 48.1606V47.1774C52.1289 45.9358 52.6224 44.745 53.5008 43.867C54.3793 42.9891 55.5707 42.4959 56.813 42.4959C58.0553 42.4959 59.2468 42.9891 60.1252 43.867C61.0036 44.745 61.4971 45.9358 61.4971 47.1774V48.1606C61.4936 48.3106 61.4511 48.457 61.3739 48.5857C61.2967 48.7143 61.1874 48.8207 61.0566 48.8944C60.9304 48.9627 60.789 48.998 60.6455 48.9971Z" fill="white"/>
<path d="M58.9128 44.844C58.7937 44.8406 58.6766 44.8126 58.5688 44.7619C58.461 44.7112 58.3648 44.6389 58.2862 44.5493C58.2077 44.4598 58.1485 44.355 58.1123 44.2416C58.0761 44.1282 58.0636 44.0085 58.0758 43.89C58.2826 42.9041 58.7857 42.0048 59.5178 41.3125C60.25 40.6201 61.1762 40.1677 62.1726 40.0157C62.3926 39.9676 62.6227 40.0085 62.8125 40.1295C63.0024 40.2505 63.1367 40.4418 63.1858 40.6615C63.2117 40.7704 63.2154 40.8835 63.1967 40.9939C63.1781 41.1044 63.1374 41.21 63.0771 41.3044C63.0168 41.3988 62.9383 41.4802 62.846 41.5437C62.7536 41.6072 62.6495 41.6515 62.5397 41.6741C61.8837 41.7549 61.2674 42.0323 60.7721 42.4697C60.2768 42.9071 59.9255 43.4841 59.7645 44.1248C59.7299 44.3257 59.6255 44.508 59.4697 44.6395C59.3139 44.7711 59.1167 44.8435 58.9128 44.844Z" fill="white"/>
<path d="M69.8961 60.5907C69.7074 60.5873 69.525 60.5224 69.3766 60.4058C69.2281 60.2893 69.1218 60.1275 69.0738 59.945L68.5305 57.729H65.1974C64.9715 57.729 64.7548 57.6393 64.5951 57.4797C64.4354 57.3201 64.3457 57.1036 64.3457 56.8778C64.3457 56.7667 64.3678 56.6567 64.4108 56.5543C64.4537 56.4518 64.5167 56.359 64.596 56.2811C64.6753 56.2032 64.7693 56.1419 64.8725 56.1007C64.9758 56.0596 65.0862 56.0394 65.1974 56.0413H69.206C69.3948 56.0447 69.5772 56.1096 69.7256 56.2262C69.8741 56.3427 69.9803 56.5046 70.0283 56.687L70.7331 59.5341C70.7821 59.7537 70.7436 59.9838 70.6257 60.1756C70.5079 60.3674 70.3199 60.5057 70.1017 60.5614H69.8961" fill="white"/>
<path d="M67.0912 66.2995H66.9003C66.7902 66.2755 66.6862 66.2294 66.5944 66.1642C66.5026 66.0991 66.4248 66.016 66.3659 65.9201C66.3069 65.8242 66.2679 65.7174 66.2512 65.606C66.2346 65.4947 66.2406 65.3812 66.2689 65.2722L66.7682 63.203H63.7286C63.6175 63.2049 63.507 63.1847 63.4038 63.1436C63.3005 63.1024 63.2066 63.0411 63.1273 62.9632C63.048 62.8853 62.985 62.7925 62.942 62.69C62.899 62.5876 62.8769 62.4775 62.877 62.3664C62.877 62.1407 62.9667 61.9242 63.1264 61.7646C63.2861 61.605 63.5028 61.5153 63.7286 61.5153H67.8548C67.9845 61.5141 68.1128 61.5426 68.2298 61.5985C68.3469 61.6545 68.4496 61.7365 68.5302 61.8381C68.6077 61.939 68.6613 62.0561 68.6867 62.1808C68.7122 62.3054 68.7089 62.4341 68.677 62.5572L67.9135 65.6684C67.8678 65.8521 67.7621 66.0153 67.6131 66.1323C67.4642 66.2492 67.2806 66.3132 67.0912 66.3141" fill="white"/>
<path d="M64.5811 54.0308C64.4183 54.0342 64.2584 53.9884 64.1221 53.8994C63.9858 53.8103 63.8797 53.6822 63.8176 53.5318C63.728 53.3272 63.7224 53.0957 63.8021 52.887C63.8817 52.6784 64.0402 52.5094 64.2434 52.4165L66.6074 51.3598L66.0201 47.9258C65.9862 47.7041 66.0412 47.478 66.1732 47.2967C66.3052 47.1153 66.5035 46.9933 66.7249 46.9572C66.8339 46.9383 66.9456 46.9412 67.0535 46.9657C67.1614 46.9902 67.2633 47.0359 67.3534 47.1C67.4436 47.1641 67.5201 47.2455 67.5786 47.3394C67.637 47.4333 67.6762 47.5378 67.694 47.6469L68.3842 51.7267C68.4194 51.9109 68.3905 52.1015 68.3024 52.267C68.2142 52.4325 68.0721 52.563 67.8996 52.6366L64.9628 53.9574C64.847 53.9849 64.7263 53.9849 64.6105 53.9574" fill="white"/>
<path d="M54.6842 44.8586C54.4798 44.857 54.2828 44.7821 54.1292 44.6473C53.9755 44.5126 53.8754 44.3272 53.8472 44.1248C53.678 43.4858 53.3224 42.9115 52.8255 42.475C52.3287 42.0386 51.7132 41.7598 51.0574 41.674C50.8376 41.6249 50.6463 41.4908 50.5252 41.301C50.4041 41.1113 50.3631 40.8813 50.4113 40.6614C50.4671 40.4426 50.6048 40.2535 50.7961 40.1334C50.9874 40.0132 51.2177 39.9711 51.4392 40.0157C52.4337 40.1684 53.3577 40.6214 54.0873 41.3139C54.817 42.0064 55.3173 42.9053 55.5212 43.89C55.5399 44.0003 55.5359 44.1132 55.5094 44.2218C55.4829 44.3305 55.4344 44.4326 55.367 44.5219C55.2997 44.6112 55.2148 44.6858 55.1176 44.7412C55.0204 44.7965 54.9129 44.8315 54.8017 44.844H54.6842" fill="white"/>
<path d="M43.7003 60.5907H43.4947C43.2772 60.5353 43.0904 60.3963 42.9749 60.2039C42.8594 60.0115 42.8246 59.7814 42.878 59.5635L43.5828 56.7164C43.6261 56.5315 43.7311 56.3667 43.8806 56.2494C44.03 56.132 44.215 56.069 44.4051 56.0707H48.3991C48.5102 56.0687 48.6206 56.0889 48.7239 56.1301C48.8271 56.1712 48.9211 56.2326 49.0004 56.3104C49.0796 56.3883 49.1426 56.4812 49.1856 56.5836C49.2286 56.6861 49.2507 56.7961 49.2507 56.9072C49.2507 57.1329 49.161 57.3494 49.0013 57.509C48.8415 57.6687 48.625 57.7584 48.3991 57.7584H45.0658L44.5226 59.9744C44.4768 60.1581 44.3711 60.3213 44.2222 60.4382C44.0733 60.5552 43.8897 60.6192 43.7003 60.6201" fill="white"/>
<path d="M46.4464 66.2995C46.2577 66.2961 46.0752 66.2312 45.9268 66.1146C45.7784 65.9981 45.6721 65.8363 45.6241 65.6538L44.8605 62.5426C44.832 62.4185 44.8316 62.2895 44.8596 62.1653C44.8875 62.041 44.943 61.9246 45.0219 61.8246C45.1008 61.7246 45.2011 61.6436 45.3155 61.5875C45.4299 61.5314 45.5554 61.5017 45.6828 61.5006H49.809C49.9208 61.5006 50.0316 61.5226 50.1349 61.5654C50.2382 61.6082 50.3321 61.6709 50.4112 61.7499C50.4903 61.829 50.553 61.9228 50.5958 62.0261C50.6386 62.1293 50.6606 62.24 50.6606 62.3518C50.6607 62.4629 50.6385 62.5729 50.5956 62.6753C50.5526 62.7778 50.4896 62.8707 50.4103 62.9485C50.331 63.0264 50.237 63.0877 50.1337 63.1289C50.0305 63.17 49.9201 63.1903 49.809 63.1883H46.7694L47.2834 65.2575C47.3324 65.4772 47.2938 65.7073 47.1759 65.899C47.0581 66.0908 46.8702 66.2292 46.652 66.2848H46.4464" fill="white"/>
<path d="M49.0163 54.0308C48.9004 54.0582 48.7797 54.0582 48.6639 54.0308L45.7271 52.71C45.5552 52.6345 45.413 52.5044 45.3227 52.3399C45.2325 52.1753 45.199 51.9856 45.2278 51.8001L45.918 47.7203C45.971 47.5139 46.0994 47.3348 46.2781 47.2185C46.4568 47.1022 46.6727 47.0571 46.883 47.0922C47.0933 47.1272 47.2828 47.2398 47.4141 47.4077C47.5454 47.5757 47.6088 47.7867 47.5919 47.9992L47.0193 51.4332L49.3834 52.4899C49.554 52.5739 49.6915 52.7126 49.774 52.8838C49.8566 53.0551 49.8795 53.249 49.8389 53.4348C49.7984 53.6205 49.6968 53.7873 49.5503 53.9086C49.4039 54.0299 49.2211 54.0988 49.031 54.1042" fill="white"/>
<path d="M56.8126 67.591C56.5867 67.591 56.3702 67.5013 56.2104 67.3416C56.0507 67.182 55.9609 66.9655 55.9609 66.7398V47.0306C55.9609 46.8048 56.0507 46.5883 56.2104 46.4287C56.3702 46.2691 56.5867 46.1794 56.8126 46.1794C57.0385 46.1794 57.2551 46.2691 57.4148 46.4287C57.5745 46.5883 57.6643 46.8048 57.6643 47.0306V66.7398C57.6643 66.9655 57.5745 67.182 57.4148 67.3416C57.2551 67.5013 57.0385 67.591 56.8126 67.591Z" fill="white"/>
</g>
</g>
<defs>
<clipPath id="clip0_2_1176">
<rect width="78" height="71" fill="white" transform="translate(1 5)"/>
</clipPath>
</defs>
</svg>
