<svg width="80" height="80" viewBox="0 0 80 80" fill="none" xmlns="http://www.w3.org/2000/svg">
<g clip-path="url(#clip0_21_5218)">
<mask id="mask0_21_5218" style="mask-type:luminance" maskUnits="userSpaceOnUse" x="6" y="6" width="68" height="68">
<path d="M74 6H6V74H74V6Z" fill="white"/>
</mask>
<g mask="url(#mask0_21_5218)">
<path d="M46.9277 24.6207C45.1138 24.6229 43.3413 25.1632 41.8345 26.173C40.3278 27.1828 39.1544 28.6169 38.4628 30.2937C37.7713 31.9706 37.5927 33.815 37.9496 35.5934C38.3064 37.3718 39.1828 39.0044 40.4678 40.2846C41.7528 41.5648 43.3887 42.4351 45.1684 42.7854C46.9481 43.1357 48.7917 42.9502 50.466 42.2525C52.1403 41.5547 53.5701 40.376 54.5743 38.8655C55.5785 37.355 56.1121 35.5806 56.1077 33.7667C56.1046 31.337 55.1373 29.0078 53.4182 27.2908C51.6991 25.5738 49.3687 24.6094 46.939 24.6094M46.939 44.6353C44.7893 44.6353 42.688 43.9979 40.9007 42.8036C39.1133 41.6094 37.7203 39.9119 36.8976 37.9259C36.075 35.9399 35.8598 33.7546 36.2792 31.6463C36.6985 29.538 37.7337 27.6014 39.2537 26.0814C40.7737 24.5614 42.7103 23.5262 44.8186 23.1069C46.9269 22.6875 49.1123 22.9027 51.0983 23.7253C53.0843 24.548 54.7817 25.941 55.9759 27.7284C57.1702 29.5157 57.8076 31.6171 57.8076 33.7667C57.8046 36.6483 56.6586 39.4111 54.621 41.4487C52.5834 43.4863 49.8206 44.6323 46.939 44.6353Z" fill="#D40054"/>
<path d="M46.9203 40.8727C46.6949 40.8727 46.4787 40.7831 46.3193 40.6237C46.1599 40.4643 46.0703 40.2481 46.0703 40.0227C46.0703 39.7972 46.1599 39.581 46.3193 39.4216C46.4787 39.2622 46.6949 39.1727 46.9203 39.1727C48.3511 39.1727 49.7232 38.6043 50.7349 37.5926C51.7466 36.5809 52.3149 35.2088 52.3149 33.778C52.3149 33.5526 52.4045 33.3364 52.5639 33.177C52.7234 33.0176 52.9395 32.928 53.1649 32.928C53.3904 32.928 53.6066 33.0176 53.766 33.177C53.9254 33.3364 54.0149 33.5526 54.0149 33.778C54.0119 35.6587 53.2635 37.4615 51.9336 38.7914C50.6038 40.1212 48.801 40.8697 46.9203 40.8727Z" fill="#D40054"/>
<path d="M46.9204 29.8906C44.1493 29.8885 41.413 29.2731 38.9078 28.0886C38.7034 27.9909 38.5461 27.8161 38.4706 27.6025C38.3952 27.3889 38.4077 27.154 38.5054 26.9496C38.6031 26.7452 38.778 26.588 38.9916 26.5126C39.2052 26.4371 39.44 26.4496 39.6444 26.5473C41.9163 27.633 44.4024 28.1965 46.9204 28.1965C49.4384 28.1965 51.9245 27.633 54.1964 26.5473C54.2973 26.4979 54.4071 26.4692 54.5193 26.4631C54.6315 26.4569 54.7438 26.4733 54.8495 26.5113C54.9552 26.5494 55.0522 26.6083 55.1347 26.6846C55.2172 26.7609 55.2835 26.8529 55.3297 26.9553C55.4272 27.1582 55.4401 27.3915 55.3658 27.604C55.2914 27.8165 55.1357 27.9908 54.933 28.0886C52.4278 29.2731 49.6916 29.8885 46.9204 29.8906Z" fill="#D40054"/>
<path d="M43.7161 25.142C43.5376 25.1454 43.3628 25.0909 43.2177 24.9867C43.0727 24.8825 42.9652 24.7343 42.9114 24.564L41.3701 19.8493C41.3251 19.7413 41.3029 19.6252 41.3048 19.5082C41.3068 19.3912 41.3329 19.2759 41.3814 19.1694C41.43 19.063 41.5001 18.9677 41.5872 18.8896C41.6743 18.8115 41.7765 18.7521 41.8876 18.7154C41.9987 18.6786 42.1162 18.6652 42.2327 18.6759C42.3492 18.6867 42.4622 18.7213 42.5647 18.7778C42.6672 18.8342 42.757 18.9112 42.8283 19.0039C42.8997 19.0967 42.9511 19.2031 42.9794 19.3166L44.5548 24.0313C44.5902 24.1362 44.6046 24.2471 44.597 24.3576C44.5893 24.468 44.56 24.5759 44.5104 24.675C44.4609 24.774 44.3923 24.8623 44.3084 24.9346C44.2246 25.007 44.1273 25.0621 44.0221 25.0966C43.9322 25.113 43.84 25.113 43.7501 25.0966" fill="#D40054"/>
<path d="M36.9041 34.628H31.3734C31.148 34.628 30.9318 34.5385 30.7724 34.3791C30.613 34.2196 30.5234 34.0034 30.5234 33.778C30.5234 33.5526 30.613 33.3364 30.7724 33.177C30.9318 33.0176 31.148 32.928 31.3734 32.928H36.9041C37.1295 32.928 37.3457 33.0176 37.5052 33.177C37.6646 33.3364 37.7541 33.5526 37.7541 33.778C37.7541 34.0034 37.6646 34.2196 37.5052 34.3791C37.3457 34.5385 37.1295 34.628 36.9041 34.628Z" fill="#D40054"/>
<path d="M37.5544 31.1033H37.3391L31.1737 29.4487C30.992 29.3991 30.8316 29.2914 30.717 29.1419C30.6024 28.9925 30.5399 28.8096 30.5391 28.6213V26.3546C30.5391 26.1292 30.6286 25.913 30.788 25.7536C30.9474 25.5942 31.1636 25.5046 31.3891 25.5046C31.6145 25.5046 31.8307 25.5942 31.9901 25.7536C32.1495 25.913 32.2391 26.1292 32.2391 26.3546V27.998L37.7811 29.46C37.8886 29.4876 37.9896 29.5363 38.0781 29.6033C38.1667 29.6703 38.241 29.7542 38.2969 29.8501C38.3528 29.9461 38.3891 30.0521 38.4036 30.1622C38.4182 30.2723 38.4107 30.3841 38.3817 30.4913C38.3361 30.673 38.2311 30.8343 38.0832 30.9493C37.9353 31.0644 37.7531 31.1266 37.5657 31.126" fill="#D40054"/>
<path d="M31.3734 41.7C31.15 41.7 30.9355 41.612 30.7764 41.4551C30.6173 41.2981 30.5264 41.0848 30.5234 40.8613V38.8893C30.5248 38.7025 30.5877 38.5213 30.7025 38.3738C30.8172 38.2263 30.9773 38.1206 31.1581 38.0733L37.3348 36.4413C37.442 36.4123 37.5538 36.4049 37.6639 36.4195C37.774 36.434 37.88 36.4703 37.9759 36.5262C38.0719 36.582 38.1558 36.6564 38.2228 36.7449C38.2897 36.8335 38.3384 36.9345 38.3661 37.042C38.3952 37.1499 38.4029 37.2625 38.3884 37.3733C38.374 37.4841 38.3378 37.5911 38.282 37.6879C38.2262 37.7848 38.1519 37.8697 38.0632 37.9377C37.9746 38.0058 37.8734 38.0557 37.7655 38.0847L32.2234 39.5467V40.8613C32.2234 40.9724 32.2014 41.0824 32.1586 41.1849C32.1157 41.2874 32.0529 41.3804 31.9738 41.4584C31.8947 41.5364 31.8009 41.598 31.6979 41.6394C31.5948 41.6809 31.4845 41.7015 31.3734 41.7Z" fill="#D40054"/>
<path d="M50.129 25.142C50.0429 25.1591 49.9544 25.1591 49.8683 25.142C49.7621 25.1086 49.6636 25.0544 49.5786 24.9825C49.4935 24.9106 49.4236 24.8225 49.373 24.7234C49.3223 24.6242 49.292 24.5159 49.2836 24.4049C49.2753 24.2938 49.2891 24.1823 49.3244 24.0767L50.8996 19.362C50.928 19.2485 50.9794 19.142 51.0508 19.0493C51.1221 18.9565 51.2119 18.8796 51.3144 18.8231C51.4169 18.7667 51.5299 18.732 51.6464 18.7213C51.7629 18.7105 51.8804 18.724 51.9915 18.7607C52.1025 18.7975 52.2049 18.8568 52.292 18.9349C52.3791 19.0131 52.4491 19.1083 52.4977 19.2147C52.5463 19.3212 52.5723 19.4365 52.5742 19.5535C52.5762 19.6705 52.554 19.7866 52.509 19.8947L50.9337 24.6093C50.8799 24.7796 50.7725 24.9279 50.6274 25.0321C50.4824 25.1363 50.3075 25.1907 50.129 25.1873" fill="#D40054"/>
<path d="M62.4744 34.628H56.9438C56.7183 34.628 56.5021 34.5385 56.3427 34.3791C56.1833 34.2196 56.0938 34.0034 56.0938 33.778C56.0938 33.5526 56.1833 33.3364 56.3427 33.177C56.5021 33.0176 56.7183 32.928 56.9438 32.928H62.4744C62.6999 32.928 62.9161 33.0176 63.0755 33.177C63.2349 33.3364 63.3244 33.5526 63.3244 33.778C63.3244 34.0034 63.2349 34.2196 63.0755 34.3791C62.9161 34.5385 62.6999 34.628 62.4744 34.628Z" fill="#D40054"/>
<path d="M56.2982 31.1033C56.1108 31.1039 55.9287 31.0417 55.7808 30.9267C55.6329 30.8116 55.5278 30.6504 55.4822 30.4687C55.4532 30.3615 55.4458 30.2496 55.4604 30.1396C55.4749 30.0295 55.5112 29.9234 55.567 29.8275C55.6229 29.7315 55.6973 29.6477 55.7858 29.5807C55.8744 29.5137 55.9753 29.465 56.0829 29.4373L61.6249 27.9753V26.332C61.6249 26.1066 61.7144 25.8904 61.8738 25.7309C62.0332 25.5715 62.2494 25.482 62.4749 25.482C62.7003 25.482 62.9165 25.5715 63.0759 25.7309C63.2353 25.8904 63.3249 26.1066 63.3249 26.332V28.5987C63.3241 28.787 63.2616 28.9698 63.147 29.1193C63.0323 29.2687 62.8719 29.3764 62.6902 29.426L56.5135 31.058H56.2982" fill="#D40054"/>
<path d="M62.476 41.7C62.3649 41.7015 62.2546 41.6809 62.1516 41.6394C62.0485 41.5979 61.9547 41.5364 61.8756 41.4584C61.7965 41.3804 61.7337 41.2874 61.6909 41.1849C61.648 41.0824 61.626 40.9724 61.626 40.8613V39.5466L56.1067 38.13C55.9987 38.1011 55.8975 38.0511 55.8089 37.9831C55.7202 37.915 55.6459 37.8301 55.5901 37.7332C55.5343 37.6364 55.4981 37.5295 55.4837 37.4186C55.4692 37.3078 55.4768 37.1952 55.506 37.0873C55.5336 36.9798 55.5824 36.8788 55.6493 36.7903C55.7163 36.7017 55.8002 36.6273 55.8962 36.5715C55.9921 36.5156 56.0981 36.4793 56.2082 36.4648C56.3183 36.4502 56.4302 36.4576 56.5373 36.4866L62.714 38.1186C62.8948 38.166 63.0549 38.2715 63.1696 38.4191C63.2844 38.5666 63.3473 38.7478 63.3487 38.9346V40.9066C63.3457 41.1301 63.2548 41.3434 63.0957 41.5004C62.9366 41.6573 62.7222 41.7453 62.4987 41.7453" fill="#D40054"/>
<path d="M46.9269 13.106C42.3069 13.1064 37.83 14.7087 34.259 17.6399C30.6879 20.5711 28.2436 24.6498 27.3427 29.1811C26.4417 33.7124 27.1398 38.4159 29.318 42.4902C31.4962 46.5645 35.0197 49.7575 39.2881 51.5252C43.5566 53.2928 48.3059 53.5258 52.7268 52.1844C57.1478 50.8429 60.9669 48.0101 63.5333 44.1685C66.0998 40.327 67.2548 35.7144 66.8017 31.1167C66.3486 26.519 64.3153 22.2206 61.0482 18.954C59.1956 17.0972 56.9944 15.6247 54.571 14.6212C52.1476 13.6176 49.5499 13.1027 46.9269 13.106ZM46.9269 54.756C41.9136 54.7559 37.0554 53.0176 33.1801 49.8371C29.3048 46.6567 26.6522 42.2309 25.6742 37.3139C24.6962 32.3969 25.4534 27.2929 27.8167 22.8716C30.18 18.4503 34.0031 14.9852 38.6349 13.0667C43.2666 11.1483 48.4203 10.8951 53.2177 12.3505C58.0151 13.8058 62.1595 16.8796 64.9447 21.048C67.7299 25.2164 68.9836 30.2217 68.4922 35.2108C68.0007 40.2 65.7945 44.8644 62.2496 48.4093C60.2418 50.4276 57.8539 52.0276 55.2238 53.117C52.5937 54.2064 49.7737 54.7635 46.9269 54.756Z" fill="#454545"/>
<path d="M46.9259 7.7C41.0521 7.6978 35.3592 9.73247 30.8175 13.4573C26.2758 17.1822 23.1663 22.3667 22.0188 28.1273C20.8714 33.8879 21.757 39.8682 24.5248 45.049C27.2925 50.2299 31.7712 54.2906 37.1975 56.5393C42.6238 58.788 48.662 59.0855 54.2831 57.381C59.9041 55.6765 64.7602 52.0756 68.0238 47.1919C71.2874 42.3082 72.7565 36.4439 72.1808 30.5984C71.6051 24.7529 69.0201 19.2879 64.8665 15.1347C62.5163 12.7706 59.7205 10.8963 56.641 9.6201C53.5614 8.34394 50.2593 7.69131 46.9259 7.7ZM46.9259 60.162C40.6587 60.1646 34.5846 57.9938 29.7387 54.0197C24.8927 50.0456 21.5747 44.514 20.3502 38.3677C19.1257 32.2214 20.0704 25.8406 23.0234 20.3128C25.9763 14.7849 30.7546 10.452 36.5442 8.05257C42.3338 5.6531 48.7764 5.33547 54.7739 7.15384C60.7714 8.97221 65.9528 12.8141 69.4352 18.0246C72.9175 23.2352 74.4852 29.4922 73.8712 35.7291C73.2572 41.9661 70.4994 47.7972 66.0678 52.2287C63.5599 54.7506 60.5768 56.7503 57.2912 58.112C54.0055 59.4737 50.4825 60.1705 46.9259 60.162Z" fill="#454545"/>
<path d="M24.5406 48.3187L9.17263 63.6867C8.23001 64.6357 7.70097 65.919 7.70097 67.2567C7.70097 68.5943 8.23001 69.8776 9.17263 70.8267C10.1217 71.7693 11.405 72.2983 12.7426 72.2983C14.0802 72.2983 15.3636 71.7693 16.3126 70.8267L31.6693 55.4587C30.2752 54.5015 28.9703 53.4205 27.7706 52.2287C26.5728 51.0304 25.4913 49.7212 24.5406 48.3187ZM12.7426 74C11.4198 73.9752 10.133 73.565 9.03989 72.8197C7.94674 72.0745 7.09471 71.0265 6.58825 69.8043C6.08179 68.5821 5.94292 67.2386 6.18857 65.9386C6.43422 64.6386 7.05378 63.4385 7.9713 62.4853L24.0759 46.3807C24.1671 46.2913 24.2771 46.2233 24.3978 46.1817C24.5185 46.14 24.647 46.1257 24.7739 46.1398C24.9008 46.1539 25.023 46.1961 25.1316 46.2632C25.2402 46.3304 25.3325 46.4208 25.4019 46.528C27.4365 49.8016 30.1977 52.5627 33.4713 54.5973C33.5785 54.6667 33.669 54.7591 33.7361 54.8677C33.8032 54.9763 33.8453 55.0985 33.8594 55.2254C33.8735 55.3523 33.8592 55.4808 33.8176 55.6015C33.7759 55.7222 33.7079 55.8321 33.6186 55.9233L17.5706 72.028C16.9442 72.6545 16.2002 73.1512 15.3815 73.4896C14.5627 73.828 13.6852 74.0014 12.7992 74" fill="#454545"/>
<path d="M27.3325 61.8507C27.2208 61.8512 27.1102 61.8294 27.007 61.7866C26.9039 61.7438 26.8103 61.6808 26.7319 61.6013L18.4018 53.2713C18.3216 53.1932 18.2579 53.0998 18.2144 52.9966C18.1709 52.8935 18.1484 52.7826 18.1484 52.6707C18.1484 52.5587 18.1709 52.4479 18.2144 52.3447C18.2579 52.2415 18.3216 52.1481 18.4018 52.07C18.5612 51.9108 18.7773 51.8214 19.0025 51.8214C19.2278 51.8214 19.4438 51.9108 19.6031 52.07L27.9332 60.4C28.0924 60.5594 28.1817 60.7754 28.1817 61.0007C28.1817 61.2259 28.0924 61.4419 27.9332 61.6013C27.8547 61.6808 27.7612 61.7438 27.658 61.7866C27.5549 61.8294 27.4442 61.8512 27.3325 61.8507Z" fill="#454545"/>
</g>
</g>
<defs>
<clipPath id="clip0_21_5218">
<rect width="68" height="68" fill="white" transform="translate(6 6)"/>
</clipPath>
</defs>
</svg>
