<svg width="80" height="80" viewBox="0 0 80 80" fill="none" xmlns="http://www.w3.org/2000/svg">
<g clip-path="url(#clip0_2_835)">
<path d="M38.7246 5.85511L32.1246 11.8245L28.5261 13.5118L20.9046 15.3902L15.6718 21.8053L15.2318 25.1323L7.04464 30.9743L4.6875 39.8567L9.4175 51.2861L12.2932 51.8114L14.1946 50.4425H66.8061L73.2646 48.3094L76.4861 38.0421L73.9718 30.9743L67.2932 25.8167L65.5018 14.0212L59.0589 5.56858L49.5204 2.2894L38.7246 5.85511Z" fill="white"/>
<mask id="mask0_2_835" style="mask-type:luminance" maskUnits="userSpaceOnUse" x="2" y="1" width="77" height="78">
<path d="M79 1H2V79H79V1Z" fill="white"/>
</mask>
<g mask="url(#mask0_2_835)">
<path d="M14.1946 50.4425H66.8061L73.2646 48.3094L76.5018 38.0421L73.9718 30.9743L67.2932 25.8008L65.5018 14.0212L59.0589 5.56858L49.5204 2.2894L38.7246 5.85511L32.1246 11.8245L28.5261 13.5118L20.9046 15.3902L15.6718 21.8053L15.2318 25.1323L7.04464 30.9743L4.6875 39.8567L9.4175 51.2861L12.2932 51.7955L14.1946 50.4425Z" stroke="white" stroke-width="0.75" stroke-miterlimit="10"/>
</g>
<path d="M56.7953 67.4592L52.5367 72.4257L41.741 76.5167L30.9296 73.8902L23.7324 65.533V43.0245H56.7953V67.4592Z" fill="#D40054"/>
<mask id="mask1_2_835" style="mask-type:luminance" maskUnits="userSpaceOnUse" x="2" y="1" width="77" height="78">
<path d="M79 1H2V79H79V1Z" fill="white"/>
</mask>
<g mask="url(#mask1_2_835)">
<path d="M56.7953 67.4592L52.5367 72.4257L41.741 76.5167L30.9296 73.8902L23.7324 65.5331V43.0245H56.7953V67.4592Z" stroke="white" stroke-miterlimit="10"/>
<path d="M44.9778 57.1122C44.9809 58.014 44.7196 58.8964 44.2269 59.6475C43.7343 60.3986 43.0325 60.9846 42.2107 61.3312C41.3888 61.6777 40.4838 61.7692 39.6106 61.5941C38.7373 61.4189 37.9351 60.985 37.3056 60.3473C36.6761 59.7097 36.2478 58.897 36.0748 58.0124C35.9019 57.1278 35.9923 56.2111 36.3344 55.3786C36.6765 54.546 37.255 53.8352 37.9965 53.3361C38.7379 52.8371 39.609 52.5723 40.4992 52.5755C41.6857 52.5797 42.8224 53.059 43.6614 53.9089C44.5004 54.7588 44.9737 55.9103 44.9778 57.1122Z" fill="#3F3F3F"/>
<path d="M44.9778 57.1122C44.9809 58.014 44.7196 58.8964 44.2269 59.6475C43.7343 60.3986 43.0325 60.9846 42.2107 61.3312C41.3888 61.6777 40.4838 61.7692 39.6106 61.5941C38.7373 61.4189 37.9351 60.985 37.3056 60.3473C36.6761 59.7097 36.2478 58.897 36.0748 58.0124C35.9019 57.1278 35.9923 56.2111 36.3344 55.3786C36.6765 54.546 37.255 53.8352 37.9965 53.3361C38.7379 52.8371 39.609 52.5723 40.4992 52.5755C41.6857 52.5797 42.8224 53.059 43.6614 53.9089C44.5004 54.7588 44.9737 55.9103 44.9778 57.1122Z" stroke="white" stroke-width="0.75" stroke-miterlimit="10"/>
<path d="M13.8795 53.6898H13.5652C10.3569 52.9728 7.49876 51.1382 5.48865 48.5056C3.47854 45.8731 2.44393 42.6096 2.56524 39.2837C2.55911 36.0238 3.62925 32.8554 5.60537 30.2825C7.58149 27.7096 10.3501 25.88 13.471 25.0845C13.6413 25.039 13.7921 24.938 13.9001 24.797C14.008 24.656 14.067 24.483 14.0681 24.3045V24.2249C14.0777 22.2895 14.5172 20.3811 15.3542 18.6413C16.1911 16.9014 17.404 15.3748 18.9029 14.1745C20.4017 12.9742 22.1481 12.1312 24.0124 11.7079C25.8767 11.2845 27.8112 11.2917 29.6724 11.729H29.8609C29.994 11.726 30.1246 11.6912 30.242 11.6276C30.3594 11.564 30.4604 11.4733 30.5367 11.3629C32.9087 7.54319 36.4407 4.60672 40.6016 2.99502C44.7625 1.38331 49.3274 1.1835 53.6101 2.42557C57.8928 3.66764 61.6617 6.28447 64.3501 9.88264C67.0385 13.4808 68.5012 17.8658 68.5181 22.3784C68.5233 23.1444 68.4813 23.9099 68.3924 24.6706C68.3715 24.85 68.4115 25.0312 68.5058 25.1845C68.6 25.3379 68.7429 25.4541 68.911 25.5143C71.6757 26.5653 74.0587 28.4443 75.743 30.9013C77.4274 33.3582 78.3331 36.2765 78.3396 39.2678C78.4883 42.5678 77.4582 45.8116 75.4379 48.4048C73.4177 50.998 70.5426 52.7669 67.3396 53.3874H67.041C66.6242 53.4275 66.2088 53.2982 65.8861 53.0281C65.5634 52.7579 65.3598 52.3689 65.3202 51.9468C65.2806 51.5246 65.4083 51.1038 65.675 50.7769C65.9417 50.45 66.3256 50.2438 66.7424 50.2037C69.1909 49.7098 71.3819 48.3391 72.9143 46.3425C74.4466 44.3459 75.2179 41.857 75.0867 39.3315C75.0781 36.7089 74.1781 34.1694 72.5382 32.14C70.8983 30.1107 68.6186 28.7153 66.0824 28.1886C65.8703 28.1478 65.6686 28.0631 65.4902 27.9399C65.3117 27.8166 65.1602 27.6575 65.0452 27.4723C64.9222 27.2906 64.8377 27.085 64.7971 26.8686C64.7565 26.6521 64.7608 26.4294 64.8096 26.2147C65.0902 24.9772 65.2324 23.7117 65.2338 22.4421C65.257 18.4729 63.9482 14.6135 61.522 11.4966C59.0958 8.37977 55.6963 6.19039 51.8806 5.28746C48.0649 4.38453 44.0597 4.8216 40.5214 6.52705C36.9832 8.2325 34.1219 11.1051 32.4067 14.6739C32.2672 14.9451 32.0574 15.1728 31.8 15.3326C31.5426 15.4924 31.2471 15.5784 30.9452 15.5813C30.735 15.5773 30.5273 15.5341 30.3324 15.4539C28.8993 14.8483 27.3406 14.6106 25.7949 14.762C24.2493 14.9134 22.7644 15.4492 21.4723 16.3218C20.1803 17.1944 19.121 18.3767 18.3886 19.7638C17.6561 21.1508 17.2732 22.6996 17.2739 24.2727C17.2691 24.8715 17.327 25.4691 17.4467 26.0556C17.4857 26.2823 17.4794 26.5147 17.4281 26.7389C17.3768 26.9631 17.2816 27.1746 17.1481 27.3608C17.0101 27.5421 16.8373 27.6934 16.6402 27.8056C16.4431 27.9177 16.2257 27.9884 16.001 28.0135C13.2055 28.257 10.6023 29.5556 8.70747 31.6519C6.81267 33.7482 5.76464 36.4892 5.77101 39.3315C5.77101 45.0303 9.13388 49.5192 14.131 50.4743C14.5478 50.5166 14.9309 50.7247 15.1961 51.0531C15.4614 51.3815 15.5869 51.8031 15.5453 52.2253C15.5036 52.6475 15.2981 53.0356 14.9739 53.3043C14.6497 53.573 14.2335 53.7002 13.8167 53.658" fill="#3F3F3F"/>
<path d="M13.8795 53.6898H13.5652C10.3569 52.9728 7.49876 51.1382 5.48865 48.5056C3.47854 45.8731 2.44393 42.6096 2.56524 39.2837C2.55911 36.0238 3.62925 32.8554 5.60537 30.2825C7.58149 27.7096 10.3501 25.88 13.471 25.0845C13.6413 25.039 13.7921 24.938 13.9001 24.797C14.008 24.656 14.067 24.4829 14.0681 24.3045V24.2249C14.0777 22.2895 14.5172 20.3811 15.3542 18.6413C16.1911 16.9014 17.404 15.3748 18.9029 14.1745C20.4017 12.9742 22.1481 12.1312 24.0124 11.7079C25.8767 11.2845 27.8112 11.2917 29.6724 11.729H29.8609C29.994 11.726 30.1246 11.6912 30.242 11.6276C30.3594 11.564 30.4604 11.4733 30.5367 11.3629C32.9087 7.54319 36.4407 4.60672 40.6016 2.99502C44.7625 1.38331 49.3274 1.1835 53.6101 2.42557C57.8928 3.66764 61.6617 6.28447 64.3501 9.88264C67.0385 13.4808 68.5012 17.8658 68.5181 22.3784C68.5233 23.1444 68.4813 23.9099 68.3924 24.6706C68.3715 24.85 68.4115 25.0312 68.5058 25.1845C68.6 25.3379 68.7429 25.4541 68.911 25.5143C71.6757 26.5653 74.0587 28.4443 75.743 30.9013C77.4274 33.3582 78.3331 36.2765 78.3396 39.2678C78.4883 42.5678 77.4582 45.8116 75.4379 48.4048C73.4177 50.998 70.5426 52.7669 67.3396 53.3874H67.041C66.6242 53.4275 66.2088 53.2982 65.8861 53.0281C65.5634 52.7579 65.3598 52.3689 65.3202 51.9468C65.2806 51.5246 65.4083 51.1038 65.675 50.7769C65.9417 50.45 66.3256 50.2438 66.7424 50.2037C69.1909 49.7098 71.3819 48.3391 72.9143 46.3425C74.4466 44.3459 75.2179 41.857 75.0867 39.3315C75.0781 36.7089 74.1781 34.1694 72.5382 32.14C70.8983 30.1107 68.6186 28.7153 66.0824 28.1886C65.8703 28.1478 65.6686 28.0631 65.4902 27.9399C65.3117 27.8166 65.1602 27.6575 65.0452 27.4723C64.9222 27.2906 64.8377 27.085 64.7971 26.8686C64.7565 26.6521 64.7608 26.4294 64.8096 26.2147C65.0902 24.9772 65.2324 23.7117 65.2338 22.4421C65.257 18.4729 63.9482 14.6135 61.522 11.4966C59.0958 8.37977 55.6963 6.19039 51.8806 5.28746C48.065 4.38453 44.0597 4.8216 40.5214 6.52705C36.9832 8.2325 34.1219 11.1051 32.4067 14.6739C32.2672 14.9451 32.0574 15.1728 31.8 15.3326C31.5426 15.4924 31.2471 15.5784 30.9452 15.5813C30.735 15.5773 30.5273 15.5341 30.3324 15.4539C28.8993 14.8483 27.3406 14.6106 25.7949 14.762C24.2493 14.9134 22.7644 15.4492 21.4723 16.3218C20.1803 17.1944 19.121 18.3767 18.3886 19.7638C17.6561 21.1508 17.2732 22.6996 17.2739 24.2727C17.2691 24.8715 17.327 25.4691 17.4467 26.0556C17.4857 26.2823 17.4794 26.5147 17.4281 26.7389C17.3768 26.9631 17.2816 27.1746 17.1481 27.3608C17.0101 27.5421 16.8373 27.6934 16.6402 27.8056C16.4431 27.9177 16.2257 27.9884 16.001 28.0135C13.2055 28.257 10.6023 29.5556 8.70747 31.6519C6.81267 33.7482 5.76464 36.4892 5.77101 39.3315C5.77101 45.0303 9.13388 49.5192 14.131 50.4743C14.5478 50.5166 14.9309 50.7247 15.1961 51.0531C15.4614 51.3815 15.5869 51.8031 15.5453 52.2253C15.5036 52.6475 15.2981 53.0356 14.9739 53.3043C14.6497 53.573 14.2335 53.7002 13.8167 53.658L13.8795 53.6898Z" stroke="white" stroke-width="0.75" stroke-miterlimit="10"/>
<path d="M40.4995 53.8331C39.8586 53.8331 39.2321 54.0258 38.6994 54.3868C38.1667 54.7478 37.7518 55.261 37.5073 55.8611C37.2627 56.4612 37.1995 57.1213 37.3257 57.7578C37.4519 58.3944 37.7618 58.9786 38.2161 59.4366C38.6704 59.8946 39.2487 60.2056 39.8777 60.3303C40.5066 60.4551 41.158 60.3878 41.7492 60.1372C42.3404 59.8866 42.8449 59.4638 43.1987 58.9225C43.5525 58.3811 43.7397 57.7456 43.7366 57.0963C43.7366 56.6665 43.6528 56.2408 43.4899 55.8438C43.327 55.4469 43.0884 55.0864 42.7876 54.7832C42.4868 54.48 42.1298 54.2399 41.7371 54.0769C41.3445 53.9138 40.9238 53.831 40.4995 53.8331ZM40.4995 68.6053C40.0827 68.6053 39.683 68.4376 39.3883 68.1391C39.0936 67.8406 38.928 67.4356 38.928 67.0135V64.1004C38.9255 63.9333 38.8732 63.7709 38.7778 63.6345C38.6825 63.4981 38.5486 63.3942 38.3938 63.3363C36.9469 62.8181 35.7274 61.7984 34.9508 60.4575C34.1743 59.1166 33.8908 57.5408 34.1504 56.0086C34.4099 54.4764 35.1958 53.0864 36.3691 52.0844C37.5424 51.0824 39.0276 50.5328 40.5623 50.5328C42.097 50.5328 43.5822 51.0824 44.7556 52.0844C45.9289 53.0864 46.7148 54.4764 46.9743 56.0086C47.2338 57.5408 46.9504 59.1166 46.1738 60.4575C45.3973 61.7984 44.1778 62.8181 42.7309 63.3363C42.5735 63.3901 42.4371 63.4931 42.3411 63.6304C42.2451 63.7676 42.1946 63.9322 42.1966 64.1004V67.0135C42.1966 67.4356 42.0311 67.8406 41.7364 68.1391C41.4417 68.4376 41.042 68.6053 40.6252 68.6053" fill="white"/>
<path d="M40.4995 53.8331C39.8586 53.8331 39.2321 54.0258 38.6994 54.3868C38.1667 54.7478 37.7518 55.261 37.5073 55.8611C37.2627 56.4612 37.1995 57.1213 37.3257 57.7578C37.4519 58.3944 37.7618 58.9786 38.2161 59.4366C38.6704 59.8946 39.2487 60.2056 39.8777 60.3303C40.5066 60.4551 41.158 60.3878 41.7492 60.1372C42.3404 59.8866 42.8449 59.4638 43.1987 58.9225C43.5525 58.3811 43.7397 57.7456 43.7366 57.0963C43.7366 56.6665 43.6528 56.2408 43.4899 55.8438C43.327 55.4469 43.0884 55.0864 42.7876 54.7832C42.4868 54.48 42.1298 54.2399 41.7371 54.0769C41.3445 53.9138 40.9238 53.831 40.4995 53.8331ZM40.4995 68.6053C40.0827 68.6053 39.683 68.4376 39.3883 68.1391C39.0936 67.8406 38.928 67.4356 38.928 67.0135V64.1004C38.9255 63.9333 38.8732 63.7709 38.7778 63.6345C38.6825 63.4981 38.5486 63.3942 38.3938 63.3363C36.9469 62.8181 35.7274 61.7984 34.9508 60.4575C34.1743 59.1166 33.8908 57.5408 34.1504 56.0086C34.4099 54.4764 35.1958 53.0864 36.3691 52.0844C37.5424 51.0824 39.0276 50.5328 40.5623 50.5328C42.097 50.5328 43.5822 51.0824 44.7556 52.0844C45.9289 53.0864 46.7148 54.4764 46.9743 56.0086C47.2338 57.5408 46.9504 59.1166 46.1738 60.4575C45.3973 61.7984 44.1778 62.8181 42.7309 63.3363C42.5735 63.3901 42.4371 63.4931 42.3411 63.6304C42.2451 63.7676 42.1946 63.9322 42.1966 64.1004V67.0135C42.1973 67.2337 42.1529 67.4516 42.0662 67.6535C41.9795 67.8555 41.8523 68.037 41.6928 68.1866C41.5333 68.3362 41.3449 68.4507 41.1395 68.5228C40.9341 68.5948 40.7162 68.6229 40.4995 68.6053Z" stroke="white" stroke-width="0.75" stroke-miterlimit="10"/>
<path d="M40.8135 28.3796C38.5073 28.3796 36.2954 29.3065 34.6632 30.9569C33.031 32.6073 32.112 34.8464 32.1078 37.1825V39.9682C32.1078 40.1835 32.1922 40.39 32.3425 40.5423C32.4928 40.6945 32.6966 40.78 32.9092 40.78H48.7335C48.946 40.78 49.1499 40.6945 49.3002 40.5423C49.4505 40.39 49.5349 40.1835 49.5349 39.9682V37.1825C49.5266 34.8449 48.604 32.6059 46.9694 30.956C45.3347 29.306 43.1211 28.3796 40.8135 28.3796ZM25.9635 44.0592C25.7509 44.0592 25.5471 44.1447 25.3968 44.297C25.2465 44.4492 25.162 44.6557 25.162 44.871V59.6115C25.2895 63.6438 26.9604 67.4677 29.8213 70.2744C32.6822 73.0812 36.5087 74.6505 40.4913 74.6505C44.474 74.6505 48.3005 73.0812 51.1614 70.2744C54.0223 67.4677 55.6932 63.6438 55.8206 59.6115V44.9029C55.8227 44.797 55.8039 44.6918 55.7654 44.5934C55.7268 44.495 55.6693 44.4054 55.5961 44.3298C55.5229 44.2542 55.4356 44.1941 55.3392 44.1531C55.2429 44.1121 55.1394 44.091 55.0349 44.091L25.9635 44.0592ZM40.4992 78.3951C35.577 78.3951 30.8557 76.4177 27.3707 72.8964C23.8858 69.3751 21.9217 64.5976 21.9092 59.6115V42.4196C21.9092 41.9975 22.0748 41.5925 22.3695 41.294C22.6642 40.9955 23.0638 40.8278 23.4806 40.8278H28.0063C28.2189 40.8278 28.4228 40.7423 28.5731 40.59C28.7234 40.4378 28.8078 40.2313 28.8078 40.0159V37.2302C28.9201 34.0913 30.23 31.119 32.4618 28.9386C34.6937 26.7582 37.6735 25.5398 40.7742 25.5398C43.8749 25.5398 46.8547 26.7582 49.0865 28.9386C51.3184 31.119 52.6283 34.0913 52.7406 37.2302V40.0159C52.7385 40.1218 52.7573 40.227 52.7958 40.3254C52.8344 40.4238 52.892 40.5135 52.9651 40.5891C53.0383 40.6647 53.1256 40.7247 53.222 40.7657C53.3183 40.8067 53.4218 40.8278 53.5263 40.8278H57.4078C57.8246 40.8278 58.2242 40.9955 58.5189 41.294C58.8136 41.5925 58.9792 41.9975 58.9792 42.4196V59.6115C58.9751 64.6003 57.0168 69.3837 53.5344 72.9114C50.0519 76.439 45.3299 78.4228 40.4049 78.427" fill="#3F3F3F"/>
<path d="M40.8135 28.3796C38.5073 28.3796 36.2954 29.3065 34.6632 30.9569C33.031 32.6073 32.112 34.8464 32.1078 37.1825V39.9682C32.1078 40.1835 32.1922 40.39 32.3425 40.5423C32.4928 40.6945 32.6966 40.78 32.9092 40.78H48.7335C48.946 40.78 49.1499 40.6945 49.3002 40.5423C49.4505 40.39 49.5349 40.1835 49.5349 39.9682V37.1825C49.5266 34.8449 48.604 32.6059 46.9694 30.956C45.3347 29.306 43.1211 28.3796 40.8135 28.3796ZM25.9635 44.0592C25.7509 44.0592 25.5471 44.1447 25.3968 44.297C25.2465 44.4492 25.162 44.6557 25.162 44.871V59.6115C25.2895 63.6438 26.9604 67.4677 29.8213 70.2745C32.6822 73.0812 36.5087 74.6505 40.4913 74.6505C44.474 74.6505 48.3005 73.0812 51.1614 70.2745C54.0223 67.4677 55.6932 63.6438 55.8206 59.6115V44.9029C55.8227 44.797 55.8039 44.6918 55.7654 44.5934C55.7268 44.495 55.6693 44.4054 55.5961 44.3298C55.5229 44.2542 55.4356 44.1941 55.3393 44.1531C55.2429 44.1121 55.1394 44.091 55.0349 44.091L25.9635 44.0592ZM40.4992 78.3951C35.577 78.3951 30.8557 76.4177 27.3707 72.8964C23.8858 69.3751 21.9217 64.5976 21.9092 59.6115V42.4196C21.9092 41.9975 22.0748 41.5925 22.3695 41.294C22.6642 40.9955 23.0638 40.8278 23.4806 40.8278H28.0063C28.2189 40.8278 28.4228 40.7423 28.5731 40.59C28.7234 40.4378 28.8078 40.2313 28.8078 40.0159V37.2302C28.9201 34.0913 30.23 31.119 32.4618 28.9386C34.6937 26.7582 37.6735 25.5398 40.7742 25.5398C43.8749 25.5398 46.8547 26.7582 49.0865 28.9386C51.3184 31.119 52.6283 34.0913 52.7406 37.2302V40.0159C52.7385 40.1218 52.7573 40.227 52.7958 40.3254C52.8344 40.4238 52.892 40.5135 52.9651 40.5891C53.0383 40.6647 53.1256 40.7247 53.222 40.7657C53.3184 40.8067 53.4218 40.8278 53.5263 40.8278H57.4078C57.8246 40.8278 58.2242 40.9955 58.5189 41.294C58.8136 41.5925 58.9792 41.9975 58.9792 42.4196V59.6115C58.9669 64.5783 57.0179 69.3392 53.5567 72.8573C50.0955 76.3753 45.4023 78.3657 40.4992 78.3951Z" stroke="white" stroke-width="0.75" stroke-miterlimit="10"/>
</g>
</g>
<defs>
<clipPath id="clip0_2_835">
<rect width="77" height="78" fill="white" transform="translate(2 1)"/>
</clipPath>
</defs>
</svg>
