<svg width="100" height="100" viewBox="0 0 100 100" fill="none" xmlns="http://www.w3.org/2000/svg">
<path d="M6.12706 20.1194C6.00929 20.121 5.89232 20.0993 5.78293 20.0556C5.67355 20.012 5.57389 19.9471 5.48954 19.8649C5.4052 19.7827 5.33784 19.6847 5.29138 19.5765C5.24492 19.4683 5.22025 19.352 5.21875 19.2342V6.0701C5.22478 5.83426 5.32353 5.61031 5.49354 5.44676C5.66355 5.2832 5.89117 5.19324 6.12706 5.19635H19.682C19.7992 5.19329 19.9159 5.21352 20.0252 5.25592C20.1345 5.29832 20.2343 5.36203 20.3188 5.44332C20.4033 5.52461 20.4708 5.62188 20.5174 5.72948C20.564 5.83708 20.5888 5.95285 20.5903 6.0701C20.5888 6.18786 20.5641 6.3042 20.5176 6.41243C20.4712 6.52066 20.4039 6.61867 20.3195 6.70087C20.2352 6.78308 20.1355 6.84786 20.0261 6.89153C19.9167 6.9352 19.7998 6.95691 19.682 6.95539H7.0353V19.2342C7.03531 19.3514 7.01202 19.4675 6.96681 19.5756C6.9216 19.6838 6.85537 19.7819 6.77194 19.8643C6.68852 19.9466 6.5896 20.0116 6.48087 20.0554C6.37213 20.0992 6.25572 20.121 6.1385 20.1194" fill="#D40054"/>
<path d="M93.0655 94.3442H79.545C79.4272 94.3457 79.3103 94.3241 79.2009 94.2804C79.0915 94.2367 78.9918 94.1719 78.9074 94.0897C78.8231 94.0075 78.7558 93.9095 78.7093 93.8013C78.6629 93.693 78.6382 93.5767 78.6367 93.459C78.6382 93.3417 78.663 93.2259 78.7096 93.1183C78.7562 93.0107 78.8236 92.9135 78.9081 92.8322C78.9926 92.7509 79.0924 92.6872 79.2017 92.6448C79.3111 92.6024 79.4277 92.5821 79.545 92.5852H92.1917V80.2949C92.2167 80.0731 92.3226 79.8683 92.4891 79.7196C92.6555 79.5708 92.8709 79.4886 93.0942 79.4886C93.3174 79.4886 93.5328 79.5708 93.6993 79.7196C93.8657 79.8683 93.9716 80.0731 93.9967 80.2949V93.459C93.9937 93.6948 93.8978 93.9199 93.73 94.0856C93.5621 94.2513 93.3358 94.3442 93.0999 94.3442" fill="#D40054"/>
<mask id="path-3-inside-1_9_2877" fill="white">
<path d="M33.3411 71.0972C33.1246 71.0972 32.917 71.0112 32.7639 70.8581C32.6108 70.7051 32.5248 70.4974 32.5248 70.2809V52.1731C32.5246 50.0104 32.3632 47.8506 32.042 45.7118L31.4096 41.4924C31.3128 40.857 31.0266 40.2656 30.5885 39.7954C30.1504 39.3251 29.5807 38.9979 28.9537 38.8564C28.3268 38.7149 27.6718 38.7656 27.0742 39.0021C26.4766 39.2385 25.9641 39.6496 25.6037 40.1818L23.0283 44.0218L22.6719 45.2519C22.5275 45.7585 22.2811 46.2302 21.9478 46.6381C21.6145 47.0459 21.2013 47.3813 20.7336 47.6236C20.2659 47.8658 19.7536 48.0099 19.2282 48.0469C18.7027 48.084 18.1753 48.0131 17.6783 47.8388C17.1812 47.6645 16.725 47.3904 16.3378 47.0333C15.9506 46.6762 15.6406 46.2437 15.4267 45.7623C15.2127 45.281 15.0995 44.761 15.094 44.2343C15.0884 43.7076 15.1906 43.1854 15.3943 42.6996L16.1531 40.8716L18.0731 31.4325C18.7707 27.9654 20.6626 24.8529 23.4192 22.6373V20.5679C23.4173 20.4562 23.4387 20.3454 23.482 20.2424C23.5253 20.1394 23.5895 20.0466 23.6706 19.9699C23.7517 19.8931 23.8479 19.834 23.9531 19.7964C24.0582 19.7588 24.1701 19.7436 24.2815 19.7515L28.6159 20.039C30.6185 20.1716 32.5739 20.7062 34.3655 21.6108C36.1571 22.5155 37.7481 23.7717 39.0437 25.3046C40.8444 27.4554 42.3878 29.809 43.6425 32.3178L44.4587 33.9389C45.151 35.3057 46.1828 36.4718 47.4551 37.3254C48.7274 38.1789 50.1976 38.6914 51.7248 38.8136L57.7723 39.2735C60.3869 39.4723 62.9841 39.8565 65.5443 40.4232L68.7175 41.159L69.5108 41.0095C70.7399 40.7759 72.0054 40.8166 73.217 41.1288C74.4286 41.4409 75.5564 42.0168 76.5196 42.8153C77.4829 43.6138 78.2579 44.6152 78.7893 45.7479C79.3207 46.8806 79.5953 48.1167 79.5936 49.3679V56.2661C79.596 57.1143 79.8161 57.9476 80.2328 58.6864C80.6495 59.4252 81.2488 60.0447 81.9735 60.4855C82.0908 60.5543 82.1891 60.6513 82.2594 60.7678C82.3296 60.8843 82.3697 61.0164 82.3759 61.1523C82.3821 61.2859 82.3548 61.419 82.2966 61.5394C82.2383 61.6599 82.151 61.7639 82.0425 61.8421L81.3181 62.371C80.3585 63.0747 79.2251 63.5033 78.04 63.6106C76.8548 63.718 75.6629 63.5001 74.5924 62.9803L74.1096 62.7504C74.0129 62.7036 73.9264 62.6382 73.855 62.558C73.7837 62.4778 73.7289 62.3843 73.6937 62.2828C73.6584 62.1814 73.6435 62.0741 73.6497 61.9669C73.656 61.8597 73.6833 61.7548 73.7301 61.6582C73.7769 61.5615 73.8423 61.4751 73.9226 61.4037C74.0028 61.3324 74.0962 61.2775 74.1976 61.2423C74.2991 61.207 74.4064 61.1921 74.5136 61.1984C74.6208 61.2047 74.7257 61.232 74.8224 61.2788L75.3052 61.5202C76.0777 61.8912 76.9335 62.0544 77.7883 61.9939C78.6431 61.9335 79.4674 61.6513 80.18 61.1753C79.486 60.5595 78.9305 59.8035 78.55 58.9573C78.1695 58.1111 77.9727 57.1939 77.9725 56.2661V49.3679C77.9695 48.3566 77.7441 47.3584 77.3124 46.4439C76.8806 45.5295 76.2531 44.7211 75.4743 44.0761C74.6954 43.4311 73.7843 42.9652 72.8054 42.7114C71.8265 42.4577 70.8037 42.4222 69.8096 42.6076L68.8554 42.7916C68.745 42.809 68.6324 42.809 68.522 42.7916L65.1764 42.0213C62.6977 41.4544 60.1808 41.0702 57.6458 40.8716L51.5984 40.4002C49.7939 40.2542 48.0566 39.6495 46.5515 38.6434C45.0464 37.6373 43.8235 36.2633 42.9986 34.6517L42.1823 33.0306C40.9753 30.6338 39.4895 28.3878 37.7559 26.3393C36.601 24.9747 35.1834 23.8563 33.5876 23.0505C31.9917 22.2447 30.2502 21.7679 28.4664 21.6486L25.0173 21.4186V23.0167C25.0182 23.1418 24.9895 23.2653 24.9336 23.3772C24.8776 23.4891 24.796 23.5862 24.6953 23.6606C22.0937 25.6453 20.2972 28.5035 19.6367 31.7085L17.7167 41.228V41.3774L16.9234 43.2745C16.7272 43.7808 16.7166 44.3402 16.8933 44.8537C17.0701 45.3671 17.4228 45.8015 17.8891 46.0797C18.1847 46.233 18.5101 46.3202 18.8427 46.3353C19.1753 46.3504 19.5073 46.2931 19.8156 46.1674C20.1239 46.0417 20.4012 45.8505 20.6284 45.6071C20.8555 45.3637 21.0271 45.0738 21.1313 44.7576L21.5222 43.4009C21.5447 43.3194 21.5796 43.2419 21.6257 43.171L24.2815 39.2275C24.8237 38.4219 25.5967 37.7989 26.4991 37.4404C27.4016 37.0818 28.3913 37.0044 29.3386 37.2182C30.2858 37.432 31.1463 37.9271 31.8072 38.6385C32.4682 39.35 32.8986 40.2446 33.0422 41.205L33.6745 45.4244C34.0091 47.643 34.1782 49.8834 34.1804 52.1271V70.2809C34.1804 70.3881 34.1593 70.4943 34.1183 70.5933C34.0773 70.6923 34.0171 70.7823 33.9413 70.8581C33.8655 70.9339 33.7755 70.9941 33.6765 71.0351C33.5774 71.0761 33.4713 71.0972 33.3641 71.0972"/>
</mask>
<path d="M33.3411 71.0972C33.1246 71.0972 32.917 71.0112 32.7639 70.8581C32.6108 70.7051 32.5248 70.4974 32.5248 70.2809V52.1731C32.5246 50.0104 32.3632 47.8506 32.042 45.7118L31.4096 41.4924C31.3128 40.857 31.0266 40.2656 30.5885 39.7954C30.1504 39.3251 29.5807 38.9979 28.9537 38.8564C28.3268 38.7149 27.6718 38.7656 27.0742 39.0021C26.4766 39.2385 25.9641 39.6496 25.6037 40.1818L23.0283 44.0218L22.6719 45.2519C22.5275 45.7585 22.2811 46.2302 21.9478 46.6381C21.6145 47.0459 21.2013 47.3813 20.7336 47.6236C20.2659 47.8658 19.7536 48.0099 19.2282 48.0469C18.7027 48.084 18.1753 48.0131 17.6783 47.8388C17.1812 47.6645 16.725 47.3904 16.3378 47.0333C15.9506 46.6762 15.6406 46.2437 15.4267 45.7623C15.2127 45.281 15.0995 44.761 15.094 44.2343C15.0884 43.7076 15.1906 43.1854 15.3943 42.6996L16.1531 40.8716L18.0731 31.4325C18.7707 27.9654 20.6626 24.8529 23.4192 22.6373V20.5679C23.4173 20.4562 23.4387 20.3454 23.482 20.2424C23.5253 20.1394 23.5895 20.0466 23.6706 19.9699C23.7517 19.8931 23.8479 19.834 23.9531 19.7964C24.0582 19.7588 24.1701 19.7436 24.2815 19.7515L28.6159 20.039C30.6185 20.1716 32.5739 20.7062 34.3655 21.6108C36.1571 22.5155 37.7481 23.7717 39.0437 25.3046C40.8444 27.4554 42.3878 29.809 43.6425 32.3178L44.4587 33.9389C45.151 35.3057 46.1828 36.4718 47.4551 37.3254C48.7274 38.1789 50.1976 38.6914 51.7248 38.8136L57.7723 39.2735C60.3869 39.4723 62.9841 39.8565 65.5443 40.4232L68.7175 41.159L69.5108 41.0095C70.7399 40.7759 72.0054 40.8166 73.217 41.1288C74.4286 41.4409 75.5564 42.0168 76.5196 42.8153C77.4829 43.6138 78.2579 44.6152 78.7893 45.7479C79.3207 46.8806 79.5953 48.1167 79.5936 49.3679V56.2661C79.596 57.1143 79.8161 57.9476 80.2328 58.6864C80.6495 59.4252 81.2488 60.0447 81.9735 60.4855C82.0908 60.5543 82.1891 60.6513 82.2594 60.7678C82.3296 60.8843 82.3697 61.0164 82.3759 61.1523C82.3821 61.2859 82.3548 61.419 82.2966 61.5394C82.2383 61.6599 82.151 61.7639 82.0425 61.8421L81.3181 62.371C80.3585 63.0747 79.2251 63.5033 78.04 63.6106C76.8548 63.718 75.6629 63.5001 74.5924 62.9803L74.1096 62.7504C74.0129 62.7036 73.9264 62.6382 73.855 62.558C73.7837 62.4778 73.7289 62.3843 73.6937 62.2828C73.6584 62.1814 73.6435 62.0741 73.6497 61.9669C73.656 61.8597 73.6833 61.7548 73.7301 61.6582C73.7769 61.5615 73.8423 61.4751 73.9226 61.4037C74.0028 61.3324 74.0962 61.2775 74.1976 61.2423C74.2991 61.207 74.4064 61.1921 74.5136 61.1984C74.6208 61.2047 74.7257 61.232 74.8224 61.2788L75.3052 61.5202C76.0777 61.8912 76.9335 62.0544 77.7883 61.9939C78.6431 61.9335 79.4674 61.6513 80.18 61.1753C79.486 60.5595 78.9305 59.8035 78.55 58.9573C78.1695 58.1111 77.9727 57.1939 77.9725 56.2661V49.3679C77.9695 48.3566 77.7441 47.3584 77.3124 46.4439C76.8806 45.5295 76.2531 44.7211 75.4743 44.0761C74.6954 43.4311 73.7843 42.9652 72.8054 42.7114C71.8265 42.4577 70.8037 42.4222 69.8096 42.6076L68.8554 42.7916C68.745 42.809 68.6324 42.809 68.522 42.7916L65.1764 42.0213C62.6977 41.4544 60.1808 41.0702 57.6458 40.8716L51.5984 40.4002C49.7939 40.2542 48.0566 39.6495 46.5515 38.6434C45.0464 37.6373 43.8235 36.2633 42.9986 34.6517L42.1823 33.0306C40.9753 30.6338 39.4895 28.3878 37.7559 26.3393C36.601 24.9747 35.1834 23.8563 33.5876 23.0505C31.9917 22.2447 30.2502 21.7679 28.4664 21.6486L25.0173 21.4186V23.0167C25.0182 23.1418 24.9895 23.2653 24.9336 23.3772C24.8776 23.4891 24.796 23.5862 24.6953 23.6606C22.0937 25.6453 20.2972 28.5035 19.6367 31.7085L17.7167 41.228V41.3774L16.9234 43.2745C16.7272 43.7808 16.7166 44.3402 16.8933 44.8537C17.0701 45.3671 17.4228 45.8015 17.8891 46.0797C18.1847 46.233 18.5101 46.3202 18.8427 46.3353C19.1753 46.3504 19.5073 46.2931 19.8156 46.1674C20.1239 46.0417 20.4012 45.8505 20.6284 45.6071C20.8555 45.3637 21.0271 45.0738 21.1313 44.7576L21.5222 43.4009C21.5447 43.3194 21.5796 43.2419 21.6257 43.171L24.2815 39.2275C24.8237 38.4219 25.5967 37.7989 26.4991 37.4404C27.4016 37.0818 28.3913 37.0044 29.3386 37.2182C30.2858 37.432 31.1463 37.9271 31.8072 38.6385C32.4682 39.35 32.8986 40.2446 33.0422 41.205L33.6745 45.4244C34.0091 47.643 34.1782 49.8834 34.1804 52.1271V70.2809C34.1804 70.3881 34.1593 70.4943 34.1183 70.5933C34.0773 70.6923 34.0171 70.7823 33.9413 70.8581C33.8655 70.9339 33.7755 70.9941 33.6765 71.0351C33.5774 71.0761 33.4713 71.0972 33.3641 71.0972" fill="#D40054"/>
<path d="M32.5248 70.2809H33.5248H32.5248ZM32.5248 52.1731H33.5248V52.173L32.5248 52.1731ZM32.042 45.7118L31.053 45.86L31.053 45.8603L32.042 45.7118ZM31.4096 41.4924L32.3986 41.3442L32.3982 41.3417L31.4096 41.4924ZM25.6037 40.1818L24.7757 39.621L24.7731 39.6248L25.6037 40.1818ZM23.0283 44.0218L22.1978 43.4648L22.1111 43.594L22.0678 43.7435L23.0283 44.0218ZM22.6719 45.2519L21.7114 44.9737L21.7101 44.978L22.6719 45.2519ZM15.3943 42.6996L16.3165 43.0863L16.3179 43.083L15.3943 42.6996ZM16.1531 40.8716L17.0767 41.255L17.1137 41.1657L17.133 41.0709L16.1531 40.8716ZM18.0731 31.4325L19.053 31.6318L19.0534 31.6298L18.0731 31.4325ZM23.4192 22.6373L24.0457 23.4168L24.4192 23.1165V22.6373H23.4192ZM23.4192 20.5679H24.4192V20.5594L24.4191 20.551L23.4192 20.5679ZM24.2815 19.7515L24.2099 20.749L24.2153 20.7494L24.2815 19.7515ZM28.6159 20.039L28.5497 21.0368L28.5498 21.0368L28.6159 20.039ZM39.0437 25.3046L39.8104 24.6627L39.8074 24.6591L39.0437 25.3046ZM43.6425 32.3178L42.7481 32.7651L42.7493 32.7675L43.6425 32.3178ZM44.4587 33.9389L43.5655 34.3886L43.5666 34.3907L44.4587 33.9389ZM51.7248 38.8136L51.6451 39.8104L51.649 39.8107L51.7248 38.8136ZM57.7723 39.2735L57.6965 40.2706L57.6965 40.2706L57.7723 39.2735ZM65.5443 40.4232L65.7702 39.449L65.7604 39.4468L65.5443 40.4232ZM68.7175 41.159L68.4916 42.1332L68.6962 42.1806L68.9026 42.1417L68.7175 41.159ZM69.5108 41.0095L69.6959 41.9923L69.6975 41.992L69.5108 41.0095ZM78.7893 45.7479L77.884 46.1726L78.7893 45.7479ZM79.5936 49.3679L78.5936 49.3665V49.3679H79.5936ZM79.5936 56.2661H78.5936L78.5936 56.2689L79.5936 56.2661ZM81.9735 60.4855L81.4538 61.3398L81.4606 61.344L81.4675 61.348L81.9735 60.4855ZM82.3759 61.1523L81.377 61.1979L81.377 61.1982L82.3759 61.1523ZM82.0425 61.8421L81.4578 61.0308L81.4528 61.0345L82.0425 61.8421ZM81.3181 62.371L80.7285 61.5634L80.7268 61.5646L81.3181 62.371ZM74.5924 62.9803L75.0292 62.0807L75.0223 62.0775L74.5924 62.9803ZM74.1096 62.7504L73.6736 63.6504L73.6796 63.6533L74.1096 62.7504ZM74.8224 61.2788L75.2696 60.3843L75.2583 60.3788L74.8224 61.2788ZM75.3052 61.5202L74.858 62.4146L74.8652 62.4182L74.8724 62.4217L75.3052 61.5202ZM80.18 61.1753L80.7354 62.0068L81.8127 61.2872L80.8437 60.4273L80.18 61.1753ZM77.9725 56.2661H76.9725V56.2662L77.9725 56.2661ZM77.9725 49.3679H78.9725L78.9725 49.3648L77.9725 49.3679ZM69.8096 42.6076L69.6263 41.6245L69.6203 41.6257L69.8096 42.6076ZM68.8554 42.7916L69.0113 43.7793L69.0281 43.7767L69.0447 43.7735L68.8554 42.7916ZM68.522 42.7916L68.2976 43.7661L68.3316 43.7739L68.366 43.7793L68.522 42.7916ZM65.1764 42.0213L65.4007 41.0468L65.3993 41.0465L65.1764 42.0213ZM57.6458 40.8716L57.7239 39.8746L57.7235 39.8746L57.6458 40.8716ZM51.5984 40.4002L51.5177 41.397L51.5207 41.3972L51.5984 40.4002ZM42.9986 34.6517L42.1055 35.1015L42.1085 35.1073L42.9986 34.6517ZM42.1823 33.0306L43.0755 32.5809L43.0755 32.5808L42.1823 33.0306ZM37.7559 26.3393L38.5193 25.6933L38.5192 25.6933L37.7559 26.3393ZM28.4664 21.6486L28.5331 20.6508L28.5329 20.6508L28.4664 21.6486ZM25.0173 21.4186L25.0838 20.4208L24.0173 20.3497V21.4186H25.0173ZM25.0173 23.0167H24.0173L24.0173 23.024L25.0173 23.0167ZM24.6953 23.6606L24.1012 22.8562L24.095 22.8608L24.0888 22.8655L24.6953 23.6606ZM19.6367 31.7085L18.6573 31.5066L18.6564 31.5108L19.6367 31.7085ZM17.7167 41.228L16.7364 41.0303L16.7167 41.1282V41.228H17.7167ZM17.7167 41.3774L18.6392 41.7632L18.7167 41.5781V41.3774H17.7167ZM16.9234 43.2745L16.0008 42.8887L15.9957 42.9009L15.9909 42.9132L16.9234 43.2745ZM17.8891 46.0797L17.3767 46.9384L17.4024 46.9538L17.4289 46.9676L17.8891 46.0797ZM21.1313 44.7576L22.0811 45.0704L22.087 45.0525L22.0922 45.0344L21.1313 44.7576ZM21.5222 43.4009L22.4831 43.6778L22.4859 43.6676L21.5222 43.4009ZM21.6257 43.171L20.7962 42.6124L20.7915 42.6194L20.7869 42.6265L21.6257 43.171ZM24.2815 39.2275L25.1109 39.7861L25.1111 39.7858L24.2815 39.2275ZM33.0422 41.205L32.0532 41.3528L32.0532 41.3532L33.0422 41.205ZM33.6745 45.4244L32.6856 45.5726L32.6857 45.5735L33.6745 45.4244ZM34.1804 52.1271H35.1804L35.1804 52.1262L34.1804 52.1271ZM33.3411 70.0972C33.3898 70.0972 33.4365 70.1165 33.471 70.151L32.0568 71.5652C32.3975 71.9059 32.8595 72.0972 33.3411 72.0972V70.0972ZM33.471 70.151C33.5055 70.1855 33.5248 70.2322 33.5248 70.2809H31.5248C31.5248 70.7626 31.7161 71.2246 32.0568 71.5652L33.471 70.151ZM33.5248 70.2809V52.1731H31.5248V70.2809H33.5248ZM33.5248 52.173C33.5246 49.9606 33.3595 47.7512 33.0309 45.5633L31.053 45.8603C31.3669 47.95 31.5246 50.0601 31.5248 52.1733L33.5248 52.173ZM33.0309 45.5636L32.3986 41.3442L30.4207 41.6406L31.053 45.86L33.0309 45.5636ZM32.3982 41.3417C32.271 40.5075 31.8953 39.7311 31.3202 39.1137L29.8568 40.4771C30.1579 40.8002 30.3545 41.2066 30.4211 41.6431L32.3982 41.3417ZM31.3202 39.1137C30.745 38.4964 29.997 38.0667 29.174 37.8809L28.7335 39.8318C29.1643 39.9291 29.5558 40.1539 29.8568 40.4771L31.3202 39.1137ZM29.174 37.8809C28.3509 37.6951 27.4909 37.7618 26.7063 38.0722L27.4421 39.9319C27.8527 39.7695 28.3028 39.7346 28.7335 39.8318L29.174 37.8809ZM26.7063 38.0722C25.9217 38.3826 25.2489 38.9223 24.7757 39.621L26.4316 40.7425C26.6793 40.3769 27.0314 40.0944 27.4421 39.9319L26.7063 38.0722ZM24.7731 39.6248L22.1978 43.4648L23.8588 44.5788L26.4342 40.7388L24.7731 39.6248ZM22.0678 43.7435L21.7114 44.9737L23.6324 45.5302L23.9888 44.3L22.0678 43.7435ZM21.7101 44.978C21.6032 45.3534 21.4206 45.703 21.1735 46.0052L22.7221 47.2709C23.1417 46.7575 23.4519 46.1637 23.6336 45.5259L21.7101 44.978ZM21.1735 46.0052C20.9265 46.3075 20.6203 46.5561 20.2737 46.7356L21.1936 48.5115C21.7824 48.2065 22.3025 47.7843 22.7221 47.2709L21.1735 46.0052ZM20.2737 46.7356C19.927 46.9152 19.5473 47.022 19.1579 47.0494L19.2984 49.0445C19.9599 48.9979 20.6048 48.8165 21.1936 48.5115L20.2737 46.7356ZM19.1579 47.0494C18.7685 47.0768 18.3776 47.0244 18.0092 46.8952L17.3473 48.7825C17.973 49.0019 18.637 49.0911 19.2984 49.0445L19.1579 47.0494ZM18.0092 46.8952C17.6408 46.766 17.3027 46.5628 17.0158 46.2981L15.6599 47.7684C16.1474 48.2179 16.7216 48.563 17.3473 48.7825L18.0092 46.8952ZM17.0158 46.2981C16.7288 46.0335 16.499 45.713 16.3405 45.3562L14.5128 46.1685C14.7821 46.7744 15.1724 47.3188 15.6599 47.7684L17.0158 46.2981ZM16.3405 45.3562C16.1819 44.9995 16.098 44.6141 16.0939 44.2237L14.094 44.2449C14.101 44.9079 14.2435 45.5625 14.5128 46.1685L16.3405 45.3562ZM16.0939 44.2237C16.0898 43.8334 16.1655 43.4463 16.3165 43.0863L14.4721 42.3129C14.2157 42.9244 14.087 43.5818 14.094 44.2449L16.0939 44.2237ZM16.3179 43.083L17.0767 41.255L15.2295 40.4882L14.4707 42.3162L16.3179 43.083ZM17.133 41.0709L19.053 31.6318L17.0931 31.2332L15.1731 40.6723L17.133 41.0709ZM19.0534 31.6298C19.7048 28.3921 21.4715 25.4857 24.0457 23.4168L22.7927 21.8579C19.8537 24.2201 17.8365 27.5386 17.0927 31.2353L19.0534 31.6298ZM24.4192 22.6373V20.5679H22.4192V22.6373H24.4192ZM24.4191 20.551C24.4195 20.5782 24.4143 20.6051 24.4039 20.6299L22.5602 19.8549C22.4631 20.0856 22.4151 20.3342 22.4193 20.5847L24.4191 20.551ZM24.4039 20.6299C24.3933 20.6549 24.3778 20.6774 24.3581 20.6961L22.9831 19.2436C22.8013 19.4158 22.6572 19.624 22.5602 19.8549L24.4039 20.6299ZM24.3581 20.6961C24.3385 20.7146 24.3152 20.7289 24.2896 20.7381L23.6166 18.8547C23.3806 18.9391 23.1649 19.0716 22.9831 19.2436L24.3581 20.6961ZM24.2896 20.7381C24.2641 20.7472 24.237 20.7509 24.2099 20.749L24.353 18.7541C24.1032 18.7362 23.8524 18.7705 23.6166 18.8547L24.2896 20.7381ZM24.2153 20.7494L28.5497 21.0368L28.682 19.0412L24.3476 18.7537L24.2153 20.7494ZM28.5498 21.0368C30.4185 21.1605 32.243 21.6593 33.9147 22.5035L34.8163 20.7182C32.9048 19.753 30.8186 19.1826 28.6819 19.0412L28.5498 21.0368ZM33.9147 22.5035C35.5865 23.3476 37.071 24.5198 38.2799 25.9501L39.8074 24.6591C38.4252 23.0237 36.7277 21.6834 34.8163 20.7182L33.9147 22.5035ZM38.2769 25.9466C40.0276 28.0376 41.5282 30.326 42.7481 32.7651L44.5369 31.8705C43.2473 29.2921 41.6611 26.8731 39.8104 24.6627L38.2769 25.9466ZM42.7493 32.7675L43.5656 34.3886L45.3519 33.4892L44.5356 31.8681L42.7493 32.7675ZM43.5666 34.3907C44.3363 35.9104 45.4834 37.2068 46.8979 38.1558L48.0122 36.4949C46.8821 35.7368 45.9657 34.7011 45.3508 33.4871L43.5666 34.3907ZM46.8979 38.1558C48.3125 39.1048 49.9471 39.6746 51.6451 39.8104L51.8046 37.8168C50.4481 37.7083 49.1423 37.2531 48.0122 36.4949L46.8979 38.1558ZM51.649 39.8107L57.6965 40.2706L57.8481 38.2764L51.8007 37.8165L51.649 39.8107ZM57.6965 40.2706C60.2639 40.4658 62.8142 40.8431 65.3282 41.3996L65.7604 39.4468C63.154 38.8699 60.5099 38.4788 57.8481 38.2764L57.6965 40.2706ZM65.3184 41.3973L68.4916 42.1332L68.9434 40.1849L65.7702 39.449L65.3184 41.3973ZM68.9026 42.1417L69.6959 41.9923L69.3256 40.0268L68.5323 40.1763L68.9026 42.1417ZM69.6975 41.992C70.782 41.7858 71.8986 41.8217 72.9676 42.0971L73.4665 40.1604C72.1123 39.8115 70.6978 39.766 69.324 40.0271L69.6975 41.992ZM72.9676 42.0971C74.0366 42.3726 75.0316 42.8807 75.8814 43.5852L77.1578 42.0454C76.0812 41.1529 74.8207 40.5093 73.4665 40.1604L72.9676 42.0971ZM75.8814 43.5852C76.7313 44.2897 77.4151 45.1732 77.884 46.1726L79.6946 45.3232C79.1007 44.0571 78.2344 42.9379 77.1578 42.0454L75.8814 43.5852ZM77.884 46.1726C78.3528 47.172 78.5951 48.2626 78.5936 49.3665L80.5936 49.3692C80.5955 47.9708 80.2885 46.5892 79.6946 45.3232L77.884 46.1726ZM78.5936 49.3679V56.2661H80.5936V49.3679H78.5936ZM78.5936 56.2689C78.5965 57.2883 78.861 58.2898 79.3618 59.1777L81.1038 58.1951C80.7712 57.6054 80.5955 56.9403 80.5936 56.2632L78.5936 56.2689ZM79.3618 59.1777C79.8626 60.0656 80.5829 60.81 81.4538 61.3398L82.4932 59.6312C81.9148 59.2793 81.4364 58.7848 81.1038 58.1951L79.3618 59.1777ZM81.4675 61.348C81.4412 61.3326 81.4191 61.3108 81.4032 61.2845L83.1156 60.2511C82.9591 59.9918 82.7404 59.776 82.4795 59.623L81.4675 61.348ZM81.4032 61.2845C81.3874 61.2583 81.3784 61.2286 81.377 61.1979L83.3749 61.1067C83.3611 60.8043 83.2719 60.5102 83.1156 60.2511L81.4032 61.2845ZM81.377 61.1982C81.3755 61.1657 81.3821 61.1334 81.3962 61.1043L83.1969 61.9746C83.3274 61.7046 83.3886 61.4062 83.3749 61.1064L81.377 61.1982ZM81.3962 61.1043C81.4104 61.0749 81.4316 61.0498 81.4578 61.0309L82.6271 62.6534C82.8704 62.4781 83.0663 62.2448 83.1969 61.9746L81.3962 61.1043ZM81.4528 61.0345L80.7285 61.5634L81.9078 63.1786L82.6321 62.6498L81.4528 61.0345ZM80.7268 61.5646C79.9139 62.1607 78.9537 62.5238 77.9498 62.6147L78.1302 64.6066C79.4965 64.4828 80.8032 63.9887 81.9095 63.1774L80.7268 61.5646ZM77.9498 62.6147C76.9458 62.7057 75.936 62.5211 75.0292 62.0808L74.1556 63.8799C75.3897 64.4791 76.7639 64.7304 78.1302 64.6066L77.9498 62.6147ZM75.0223 62.0775L74.5395 61.8475L73.6796 63.6533L74.1625 63.8832L75.0223 62.0775ZM74.5455 61.8504C74.5669 61.8608 74.5862 61.8753 74.6022 61.8933L73.1079 63.2226C73.2667 63.4011 73.459 63.5464 73.6736 63.6504L74.5455 61.8504ZM74.6022 61.8933C74.6184 61.9115 74.6305 61.9324 74.6383 61.9547L72.749 62.611C72.8272 62.8361 72.949 63.044 73.1079 63.2226L74.6022 61.8933ZM74.6383 61.9547C74.646 61.977 74.6494 62.001 74.648 62.0252L72.6514 61.9086C72.6375 62.1472 72.6708 62.3858 72.749 62.611L74.6383 61.9547ZM74.648 62.0252C74.6466 62.0494 74.6405 62.0727 74.6301 62.0941L72.8302 61.2222C72.7262 61.4369 72.6654 61.6701 72.6514 61.9086L74.648 62.0252ZM74.6301 62.0941C74.6196 62.1157 74.605 62.135 74.5872 62.1509L73.2579 60.6566C73.0796 60.8152 72.9342 61.0074 72.8302 61.2222L74.6301 62.0941ZM74.5872 62.1509C74.5695 62.1666 74.5486 62.179 74.5258 62.1869L73.8695 60.2976C73.6438 60.376 73.4361 60.4981 73.2579 60.6566L74.5872 62.1509ZM74.5258 62.1869C74.503 62.1948 74.4791 62.1981 74.4553 62.1967L74.572 60.2001C74.3338 60.1862 74.0951 60.2193 73.8695 60.2976L74.5258 62.1869ZM74.4553 62.1967C74.4314 62.1953 74.4081 62.1892 74.3864 62.1788L75.2583 60.3788C75.0434 60.2747 74.8102 60.214 74.572 60.2001L74.4553 62.1967ZM74.3752 62.1732L74.858 62.4146L75.7524 60.6258L75.2696 60.3844L74.3752 62.1732ZM74.8724 62.4217C75.8015 62.8678 76.8308 63.0642 77.8589 62.9915L77.7178 60.9964C77.0363 61.0447 76.354 60.9145 75.7381 60.6188L74.8724 62.4217ZM77.8589 62.9915C78.8871 62.9187 79.8784 62.5793 80.7354 62.0068L79.6245 60.3438C79.0564 60.7233 78.3992 60.9482 77.7178 60.9964L77.8589 62.9915ZM80.8437 60.4273C80.2555 59.9053 79.7846 59.2645 79.462 58.5472L77.638 59.3674C78.0764 60.3425 78.7165 61.2136 79.5162 61.9232L80.8437 60.4273ZM79.462 58.5472C79.1395 57.8299 78.9727 57.0524 78.9725 56.2659L76.9725 56.2662C76.9727 57.3354 77.1995 58.3923 77.638 59.3674L79.462 58.5472ZM78.9725 56.2661V49.3679H76.9725V56.2661H78.9725ZM78.9725 49.3648C78.969 48.207 78.711 47.0641 78.2167 46.017L76.4081 46.8708C76.7772 47.6527 76.9699 48.5063 76.9725 49.3709L78.9725 49.3648ZM78.2167 46.017C77.7223 44.97 77.0038 44.0444 76.1121 43.3059L74.8364 44.8462C75.5024 45.3978 76.0389 46.089 76.4081 46.8708L78.2167 46.017ZM76.1121 43.3059C75.2204 42.5674 74.1772 42.034 73.0564 41.7434L72.5545 43.6794C73.3915 43.8964 74.1705 44.2947 74.8364 44.8462L76.1121 43.3059ZM73.0564 41.7434C71.9356 41.4529 70.7645 41.4123 69.6263 41.6246L69.993 43.5907C70.843 43.4321 71.7175 43.4625 72.5545 43.6794L73.0564 41.7434ZM69.6203 41.6257L68.6661 41.8097L69.0447 43.7735L69.9989 43.5895L69.6203 41.6257ZM68.6995 41.8038C68.6924 41.8049 68.685 41.8049 68.6779 41.8038L68.366 43.7793C68.5798 43.8131 68.7976 43.8131 69.0113 43.7793L68.6995 41.8038ZM68.7463 41.8171L65.4007 41.0468L64.952 42.9958L68.2976 43.7661L68.7463 41.8171ZM65.3993 41.0465C62.8729 40.4687 60.3076 40.077 57.7239 39.8746L57.5677 41.8685C60.0539 42.0633 62.5224 42.4402 64.9534 42.9961L65.3993 41.0465ZM57.7235 39.8746L51.6761 39.4032L51.5207 41.3972L57.5681 41.8686L57.7235 39.8746ZM51.679 39.4035C50.0444 39.2712 48.4707 38.7234 47.1073 37.812L45.9958 39.4747C47.6426 40.5755 49.5434 41.2372 51.5177 41.397L51.679 39.4035ZM47.1073 37.812C45.7439 36.9006 44.636 35.656 43.8888 34.1961L42.1085 35.1073C43.011 36.8706 44.349 38.3739 45.9958 39.4747L47.1073 37.812ZM43.8918 34.2019L43.0755 32.5809L41.2892 33.4804L42.1055 35.1015L43.8918 34.2019ZM43.0755 32.5808C41.8331 30.1137 40.3037 27.8019 38.5193 25.6933L36.9926 26.9853C38.6754 28.9738 40.1176 31.1539 41.2892 33.4804L43.0755 32.5808ZM38.5192 25.6933C37.2777 24.2264 35.7538 23.0241 34.0383 22.1578L33.1368 23.9431C34.613 24.6885 35.9243 25.7231 36.9926 26.9854L38.5192 25.6933ZM34.0383 22.1578C32.3228 21.2916 30.4507 20.7791 28.5331 20.6508L28.3997 22.6463C30.0497 22.7567 31.6606 23.1977 33.1368 23.9431L34.0383 22.1578ZM28.5329 20.6508L25.0838 20.4208L24.9508 22.4164L28.3999 22.6464L28.5329 20.6508ZM24.0173 21.4186V23.0167H26.0173V21.4186H24.0173ZM24.0173 23.024C24.0171 22.9914 24.0246 22.9592 24.0392 22.93L25.828 23.8245C25.9545 23.5715 26.0193 23.2922 26.0173 23.0095L24.0173 23.024ZM24.0392 22.93C24.0538 22.9007 24.0751 22.8755 24.1012 22.8562L25.2895 24.4649C25.5169 24.2969 25.7015 24.0775 25.828 23.8245L24.0392 22.93ZM24.0888 22.8655C21.2954 24.9966 19.3664 28.0655 18.6573 31.5066L20.6161 31.9103C21.2279 28.9416 22.892 26.2941 25.3019 24.4556L24.0888 22.8655ZM18.6564 31.5108L16.7364 41.0303L18.6969 41.4257L20.617 31.9062L18.6564 31.5108ZM16.7167 41.228V41.3774H18.7167V41.228H16.7167ZM16.7941 40.9916L16.0008 42.8887L17.8459 43.6603L18.6392 41.7632L16.7941 40.9916ZM15.9909 42.9132C15.7094 43.6398 15.6942 44.4425 15.9478 45.1792L17.8389 44.5282C17.739 44.238 17.745 43.9218 17.8558 43.6357L15.9909 42.9132ZM15.9478 45.1792C16.2014 45.9159 16.7076 46.5391 17.3767 46.9384L18.4016 45.221C18.1381 45.0638 17.9388 44.8183 17.8389 44.5282L15.9478 45.1792ZM17.4289 46.9676C17.8531 47.1874 18.3199 47.3125 18.7972 47.3343L18.8882 45.3363C18.7002 45.3278 18.5164 45.2785 18.3493 45.1919L17.4289 46.9676ZM18.7972 47.3343C19.2745 47.356 19.7508 47.2738 20.1932 47.0934L19.438 45.2415C19.2637 45.3125 19.0761 45.3449 18.8882 45.3363L18.7972 47.3343ZM20.1932 47.0934C20.6356 46.913 21.0335 46.6387 21.3595 46.2894L19.8973 44.9248C19.7689 45.0624 19.6122 45.1704 19.438 45.2415L20.1932 47.0934ZM21.3595 46.2894C21.6854 45.9401 21.9317 45.5241 22.0811 45.0704L20.1815 44.4447C20.1226 44.6235 20.0257 44.7873 19.8973 44.9248L21.3595 46.2894ZM22.0922 45.0344L22.4831 43.6778L20.5612 43.1241L20.1704 44.4807L22.0922 45.0344ZM22.4859 43.6676C22.4812 43.6848 22.4739 43.701 22.4644 43.7155L20.7869 42.6265C20.6854 42.7829 20.6082 42.954 20.5584 43.1342L22.4859 43.6676ZM22.4551 43.7296L25.1109 39.7861L23.452 38.6689L20.7962 42.6124L22.4551 43.7296ZM25.1111 39.7858C25.5407 39.1475 26.1533 38.6538 26.8684 38.3697L26.1299 36.511C25.0401 36.944 24.1066 37.6963 23.4519 38.6691L25.1111 39.7858ZM26.8684 38.3697C27.5835 38.0856 28.3678 38.0242 29.1184 38.1936L29.5588 36.2427C28.4149 35.9845 27.2197 36.078 26.1299 36.511L26.8684 38.3697ZM29.1184 38.1936C29.869 38.3631 30.5509 38.7554 31.0746 39.3191L32.5399 37.9579C31.7418 37.0988 30.7026 36.5009 29.5588 36.2427L29.1184 38.1936ZM31.0746 39.3191C31.5983 39.8829 31.9394 40.5918 32.0532 41.3528L34.0312 41.0571C33.8578 39.8974 33.338 38.8171 32.5399 37.9579L31.0746 39.3191ZM32.0532 41.3532L32.6856 45.5726L34.6635 45.2762L34.0311 41.0568L32.0532 41.3532ZM32.6857 45.5735C33.0129 47.7431 33.1783 49.934 33.1804 52.1281L35.1804 52.1262C35.1782 49.8329 35.0053 47.5429 34.6633 45.2753L32.6857 45.5735ZM33.1804 52.1271V70.2809H35.1804V52.1271H33.1804ZM33.1804 70.2809C33.1804 70.257 33.1851 70.2331 33.1944 70.2106L35.0422 70.976C35.1335 70.7554 35.1804 70.5193 35.1804 70.2809H33.1804ZM33.1944 70.2106C33.2037 70.1882 33.2172 70.168 33.2342 70.151L34.6484 71.5652C34.817 71.3967 34.9508 71.1965 35.0422 70.976L33.1944 70.2106ZM33.2342 70.151C33.2513 70.1339 33.2716 70.1204 33.2938 70.1112L34.0592 71.959C34.2795 71.8677 34.4797 71.734 34.6484 71.5652L33.2342 70.151ZM33.2938 70.1112C33.316 70.102 33.34 70.0972 33.3641 70.0972V72.0972C33.6027 72.0972 33.8389 72.0502 34.0592 71.959L33.2938 70.1112Z" fill="#D40054" mask="url(#path-3-inside-1_9_2877)"/>
<path d="M76.0145 71.0972C75.8428 71.0977 75.6754 71.0434 75.5368 70.942C75.3982 70.8407 75.2957 70.6976 75.2442 70.5339L73.761 65.935C73.3031 64.5271 73.1503 63.0378 73.3127 61.5662C73.7844 57.4682 73.3927 53.3168 72.163 49.3794C72.1016 49.172 72.1237 48.9489 72.2247 48.7576C72.3257 48.5664 72.4975 48.4223 72.7033 48.3561C72.806 48.3225 72.9143 48.3099 73.0219 48.3191C73.1294 48.3282 73.2341 48.3589 73.3296 48.4093C73.425 48.4597 73.5094 48.5289 73.5776 48.6125C73.6458 48.6962 73.6965 48.7928 73.7266 48.8965C75.0153 53.0511 75.4264 57.4282 74.9338 61.7501C74.7968 62.9887 74.9221 64.2423 75.3017 65.4292L76.7848 70.028C76.8503 70.2323 76.8328 70.4542 76.736 70.6457C76.6392 70.8372 76.4708 70.9829 76.2674 71.0512H76.0145" fill="#D40054"/>
<path d="M39.9149 71.7641C39.8425 71.7751 39.7689 71.7751 39.6965 71.7641C39.5933 71.7362 39.4968 71.688 39.4124 71.6225C39.3281 71.5569 39.2576 71.4752 39.2051 71.382C39.1527 71.2889 39.1193 71.1863 39.107 71.0802C39.0946 70.974 39.1035 70.8665 39.1331 70.7638L43.4101 55.8177C43.4411 55.7097 43.4938 55.6092 43.5649 55.5222C43.6361 55.4352 43.7242 55.3637 43.8239 55.3118C43.926 55.2695 44.0354 55.2476 44.1459 55.2476C44.2564 55.2476 44.3657 55.2695 44.4678 55.3118C49.9642 57.034 55.7999 57.3775 61.4604 56.3121C61.6518 56.2725 61.8512 56.303 62.0221 56.3979C62.193 56.4928 62.3241 56.646 62.3916 56.8294L63.2194 59.1288C64.5374 62.8037 66.5604 66.1858 69.1748 69.0852L70.4165 70.4649C70.5073 70.6235 70.5422 70.808 70.5157 70.9888C70.4892 71.1696 70.4028 71.3363 70.2703 71.4622C70.1378 71.588 69.9669 71.6658 69.785 71.683C69.6031 71.7002 69.4206 71.6559 69.2668 71.5571L68.0251 70.1775C65.2652 67.1172 63.129 63.5477 61.7363 59.6692L61.0695 57.9791C55.62 58.9046 50.032 58.5902 44.7207 57.0594L40.6738 71.1777C40.6258 71.3477 40.5233 71.4972 40.3821 71.6031C40.2408 71.7091 40.0686 71.7656 39.892 71.7641" fill="#D40054"/>
<path d="M32.6157 75.0292C31.8085 75.0292 31.0193 75.2685 30.3482 75.717C29.677 76.1655 29.1538 76.8029 28.8449 77.5487C28.536 78.2945 28.4552 79.1151 28.6127 79.9069C28.7701 80.6986 29.1589 81.4258 29.7297 81.9966C30.3005 82.5674 31.0277 82.9561 31.8195 83.1136C32.6112 83.2711 33.4318 83.1903 34.1776 82.8814C34.9234 82.5725 35.5608 82.0493 36.0093 81.3782C36.4578 80.707 36.6971 79.9178 36.6971 79.1106C36.6941 78.0291 36.2631 76.9927 35.4984 76.228C34.7336 75.4632 33.6972 75.0322 32.6157 75.0292ZM32.6157 84.8132C31.4787 84.8132 30.3674 84.476 29.422 83.8444C28.4767 83.2127 27.7399 82.3149 27.3048 81.2645C26.8697 80.2141 26.7558 79.0583 26.9776 77.9432C27.1994 76.8281 27.747 75.8038 28.5509 74.9998C29.3548 74.1959 30.3791 73.6484 31.4942 73.4266C32.6093 73.2048 33.7651 73.3186 34.8155 73.7537C35.8659 74.1888 36.7638 74.9256 37.3954 75.8709C38.0271 76.8163 38.3642 77.9277 38.3642 79.0647C38.3642 80.5892 37.7585 82.0514 36.6805 83.1294C35.6024 84.2075 34.1403 84.8132 32.6157 84.8132Z" fill="#D40054"/>
<path d="M71.3388 78.2828H37.5146C37.4 78.2965 37.2839 78.2857 37.1738 78.2512C37.0637 78.2167 36.9622 78.1593 36.8759 78.0827C36.7897 78.0061 36.7206 77.9121 36.6733 77.8069C36.626 77.7017 36.6016 77.5876 36.6016 77.4723C36.6016 77.3569 36.626 77.2429 36.6733 77.1377C36.7206 77.0324 36.7897 76.9384 36.8759 76.8619C36.9622 76.7853 37.0637 76.7278 37.1738 76.6933C37.2839 76.6588 37.4 76.6481 37.5146 76.6617H71.3388C71.4533 76.6481 71.5694 76.6588 71.6795 76.6933C71.7896 76.7278 71.8911 76.7853 71.9774 76.8619C72.0637 76.9384 72.1328 77.0324 72.1801 77.1377C72.2274 77.2429 72.2518 77.3569 72.2518 77.4723C72.2518 77.5876 72.2274 77.7017 72.1801 77.8069C72.1328 77.9121 72.0637 78.0061 71.9774 78.0827C71.8911 78.1593 71.7896 78.2167 71.6795 78.2512C71.5694 78.2857 71.4533 78.2965 71.3388 78.2828Z" fill="#D40054"/>
<path d="M85.2137 78.2828H81.0748C80.9603 78.2965 80.8441 78.2858 80.734 78.2513C80.6239 78.2168 80.5225 78.1593 80.4362 78.0827C80.3499 78.0062 80.2808 77.9121 80.2335 77.8069C80.1862 77.7017 80.1618 77.5877 80.1618 77.4723C80.1618 77.357 80.1862 77.2429 80.2335 77.1377C80.2808 77.0325 80.3499 76.9385 80.4362 76.8619C80.5225 76.7853 80.6239 76.7279 80.734 76.6934C80.8441 76.6589 80.9603 76.6481 81.0748 76.6618H84.3974V71.764H24.406V76.6618H27.7286C27.8432 76.6481 27.9593 76.6589 28.0694 76.6934C28.1795 76.7279 28.281 76.7853 28.3673 76.8619C28.4536 76.9385 28.5226 77.0325 28.5699 77.1377C28.6172 77.2429 28.6417 77.357 28.6417 77.4723C28.6417 77.5877 28.6172 77.7017 28.5699 77.8069C28.5226 77.9121 28.4536 78.0062 28.3673 78.0827C28.281 78.1593 28.1795 78.2168 28.0694 78.2513C27.9593 78.2858 27.8432 78.2965 27.7286 78.2828H23.5898C23.3733 78.2828 23.1656 78.1968 23.0125 78.0438C22.8594 77.8907 22.7734 77.6831 22.7734 77.4666V70.9477C22.7734 70.8411 22.7946 70.7355 22.8358 70.6371C22.8769 70.5387 22.9373 70.4495 23.0132 70.3746C23.0892 70.2997 23.1792 70.2407 23.2782 70.2009C23.3772 70.1611 23.4831 70.1414 23.5898 70.143H85.2137C85.4272 70.143 85.6319 70.2277 85.7828 70.3787C85.9337 70.5296 86.0185 70.7343 86.0185 70.9477V77.4666C86.0201 77.5732 86.0003 77.6791 85.9606 77.7781C85.9208 77.8771 85.8618 77.9671 85.7869 78.0431C85.712 78.119 85.6228 78.1793 85.5244 78.2205C85.426 78.2617 85.3204 78.2828 85.2137 78.2828Z" fill="#D40054"/>
<path d="M76.2251 75.0177C75.4178 75.0177 74.6287 75.2571 73.9575 75.7055C73.2863 76.154 72.7632 76.7914 72.4543 77.5372C72.1454 78.283 72.0646 79.1037 72.2221 79.8954C72.3796 80.6871 72.7683 81.4143 73.3391 81.9851C73.9099 82.5559 74.6371 82.9447 75.4288 83.1021C76.2206 83.2596 77.0412 83.1788 77.787 82.8699C78.5328 82.561 79.1702 82.0378 79.6187 81.3666C80.0671 80.6955 80.3065 79.9064 80.3065 79.0991C80.3065 78.0167 79.8765 76.9785 79.1111 76.2131C78.3457 75.4477 77.3075 75.0177 76.2251 75.0177ZM76.2251 84.8132C75.0881 84.8132 73.9767 84.476 73.0314 83.8444C72.0861 83.2127 71.3492 82.3149 70.9142 81.2645C70.4791 80.2141 70.3652 79.0583 70.587 77.9432C70.8088 76.8281 71.3563 75.8038 72.1603 74.9998C72.9642 74.1959 73.9885 73.6484 75.1036 73.4266C76.2187 73.2048 77.3746 73.3186 78.425 73.7537C79.4754 74.1888 80.3731 74.9256 81.0048 75.8709C81.6364 76.8163 81.9736 77.9277 81.9736 79.0647C81.9736 80.5892 81.3679 82.0514 80.2899 83.1294C79.2118 84.2075 77.7497 84.8132 76.2251 84.8132Z" fill="#D40054"/>
</svg>
