<svg width="100" height="100" viewBox="0 0 100 100" fill="none" xmlns="http://www.w3.org/2000/svg">
<path d="M5.93574 19.989C5.81746 19.9906 5.69997 19.9688 5.5901 19.9249C5.48024 19.8811 5.38014 19.816 5.29542 19.7334C5.21071 19.6508 5.14305 19.5524 5.09639 19.4437C5.04972 19.335 5.02494 19.2182 5.02344 19.0999V5.87789C5.02949 5.64102 5.12868 5.41609 5.29944 5.25181C5.4702 5.08754 5.69881 4.99719 5.93574 5.0003H19.5042C19.6219 4.99723 19.739 5.01755 19.8488 5.06014C19.9586 5.10273 20.0589 5.16671 20.1438 5.24836C20.2286 5.33001 20.2964 5.42771 20.3432 5.53578C20.39 5.64385 20.4149 5.76013 20.4164 5.87789C20.4149 5.99618 20.3901 6.11303 20.3434 6.22174C20.2968 6.33044 20.2291 6.42888 20.1444 6.51145C20.0597 6.59402 19.9596 6.65908 19.8497 6.70294C19.7399 6.7468 19.6224 6.76861 19.5042 6.76708H6.80181V19.0999C6.80182 19.2176 6.77843 19.3342 6.73302 19.4429C6.68762 19.5515 6.62109 19.65 6.5373 19.7327C6.4535 19.8155 6.35409 19.8807 6.24487 19.9247C6.13566 19.9687 6.0188 19.9906 5.90106 19.989" fill="#D40054"/>
<path d="M93.2579 94.5403H79.6779C79.4399 94.5403 79.2113 94.4474 79.0409 94.2813C78.8704 94.1152 78.7717 93.889 78.7656 93.6511C78.7717 93.4142 78.8709 93.1893 79.0416 93.025C79.2124 92.8608 79.441 92.7704 79.6779 92.7735H92.3803V80.4291C92.4055 80.2063 92.5118 80.0006 92.679 79.8513C92.8462 79.7019 93.0625 79.6193 93.2867 79.6193C93.5109 79.6193 93.7273 79.7019 93.8945 79.8513C94.0617 80.0006 94.1681 80.2063 94.1932 80.4291V93.6511C94.1902 93.888 94.0939 94.1141 93.9254 94.2805C93.7568 94.447 93.5294 94.5403 93.2925 94.5403" fill="#D40054"/>
<path d="M61.4799 36.9409L61.6069 36.8601C62.5307 35.0933 65.4638 31.8484 66.3183 29.2387C69.0897 20.705 53.997 28.4881 45.3132 26.7098C44.4703 26.5366 49.2741 32.1025 51.3296 36.9409M62.1842 53.5695C60.7344 53.0316 59.233 52.6447 57.7038 52.4147C49.9092 51.5371 48.9045 59.3432 57.2072 59.3432C65.2905 59.3432 64.5053 67.161 56.6876 66.2718C55.163 66.0377 53.6658 65.6508 52.2187 65.117M57.1611 66.9185V70.3827M57.1611 48.3384V51.8027M54.6206 37.2412L54.0085 33.0725M57.6345 37.3336L60.7985 29.689M51.1563 37.7839H62.0688C65.6947 37.7839 70.868 41.9872 75.1291 47.022C81.284 54.2623 88.4781 71.9994 76.8497 77.8309C72.7618 79.8864 66.3645 79.4129 57.2188 79.4129C47.4149 79.4129 41.0522 79.8286 37.0798 77.6115C26.456 71.6645 32.634 53.7888 38.6965 46.5369C42.5765 41.7447 47.4611 37.7839 51.1563 37.7839Z" stroke="#D40054" stroke-width="2" stroke-miterlimit="10"/>
</svg>
