<svg width="80" height="80" viewBox="0 0 80 80" fill="none" xmlns="http://www.w3.org/2000/svg">
<g clip-path="url(#clip0_21_5216)">
<mask id="mask0_21_5216" style="mask-type:luminance" maskUnits="userSpaceOnUse" x="4" y="12" width="72" height="56">
<path d="M75.54 12H4V67.83H75.54V12Z" fill="white"/>
</mask>
<g mask="url(#mask0_21_5216)">
<path d="M11.6716 13.76C11.3183 13.7534 10.9672 13.8164 10.6382 13.9455C10.3093 14.0746 10.0091 14.2672 9.75464 14.5124C9.50019 14.7575 9.29656 15.0504 9.15533 15.3743C9.0141 15.6982 8.93802 16.0467 8.93152 16.4V54.32H70.6116V16.41C70.6051 16.0567 70.529 15.7082 70.3878 15.3843C70.2465 15.0604 70.0429 14.7676 69.7885 14.5224C69.534 14.2772 69.2338 14.0846 68.9048 13.9555C68.5759 13.8264 68.2248 13.7634 67.8715 13.77L11.6716 13.76ZM70.6116 56.08H8.93152C8.45581 56.0881 7.9963 55.9074 7.65338 55.5776C7.31046 55.2478 7.11207 54.7957 7.10156 54.32V16.41C7.12521 15.2209 7.61971 14.0897 8.4765 13.2648C9.3333 12.4398 10.4824 11.9886 11.6716 12.01H67.8715C69.0607 11.9886 70.2098 12.4398 71.0666 13.2648C71.9234 14.0897 72.4179 15.2209 72.4415 16.41V54.33C72.431 54.8057 72.2326 55.2578 71.8897 55.5876C71.5468 55.9174 71.0873 56.098 70.6116 56.09" fill="#3F3F3F"/>
<path d="M5.94122 59.47C5.91205 59.47 5.88409 59.4816 5.86346 59.5022C5.84284 59.5228 5.83124 59.5508 5.83124 59.58V62.99C5.84961 63.821 6.19677 64.6109 6.79663 65.1864C7.39649 65.7619 8.20012 66.0761 9.03125 66.06H70.5112C71.3424 66.0761 72.146 65.7619 72.7458 65.1864C73.3457 64.6109 73.6929 63.821 73.7112 62.99V59.58C73.7112 59.5508 73.6996 59.5228 73.679 59.5022C73.6584 59.4816 73.6304 59.47 73.6013 59.47H5.94122ZM70.5112 67.82H9.03125C7.72957 67.8361 6.47412 67.3378 5.53784 66.4333C4.60156 65.5289 4.06014 64.2914 4.03125 62.99V59.58C4.04176 59.0751 4.25175 58.595 4.6153 58.2446C4.97884 57.8941 5.46637 57.7019 5.97125 57.71H73.6312C74.1361 57.7019 74.6236 57.8941 74.9872 58.2446C75.3507 58.595 75.5607 59.0751 75.5712 59.58V62.99C75.5423 64.2914 75.0009 65.5289 74.0646 66.4333C73.1284 67.3378 71.8729 67.8361 70.5712 67.82" fill="#3F3F3F"/>
<path d="M53.7175 63.65H25.8175C25.7019 63.65 25.5875 63.6272 25.4808 63.583C25.374 63.5388 25.277 63.474 25.1953 63.3923C25.1135 63.3106 25.0487 63.2135 25.0045 63.1068C24.9603 63 24.9375 62.8856 24.9375 62.77C24.9375 62.6544 24.9603 62.54 25.0045 62.4332C25.0487 62.3265 25.1135 62.2295 25.1953 62.1477C25.277 62.066 25.374 62.0012 25.4808 61.957C25.5875 61.9128 25.7019 61.89 25.8175 61.89H53.7175C53.8331 61.89 53.9475 61.9128 54.0543 61.957C54.161 62.0012 54.2581 62.066 54.3398 62.1477C54.4215 62.2295 54.4863 62.3265 54.5305 62.4332C54.5747 62.54 54.5975 62.6544 54.5975 62.77C54.5975 62.8856 54.5747 63 54.5305 63.1068C54.4863 63.2135 54.4215 63.3106 54.3398 63.3923C54.2581 63.474 54.161 63.5388 54.0543 63.583C53.9475 63.6272 53.8331 63.65 53.7175 63.65Z" fill="#3F3F3F"/>
<path d="M14.1315 49.14H65.4116V18.89H14.1315V49.14ZM66.3215 50.89H13.2715C13.1533 50.8927 13.0358 50.872 12.9256 50.8292C12.8154 50.7864 12.7146 50.7223 12.6292 50.6406C12.5438 50.5589 12.4753 50.4611 12.4277 50.3529C12.38 50.2447 12.3542 50.1282 12.3516 50.01V18.01C12.3542 17.8918 12.38 17.7753 12.4277 17.6671C12.4753 17.5589 12.5438 17.4611 12.6292 17.3794C12.7146 17.2977 12.8154 17.2336 12.9256 17.1908C13.0358 17.148 13.1533 17.1273 13.2715 17.13H66.3715C66.4897 17.1273 66.6073 17.148 66.7175 17.1908C66.8277 17.2336 66.9284 17.2977 67.0139 17.3794C67.0993 17.4611 67.1678 17.5589 67.2155 17.6671C67.2631 17.7753 67.289 17.8918 67.2916 18.01V50.01C67.289 50.1282 67.2631 50.2447 67.2155 50.3529C67.1678 50.4611 67.0993 50.5589 67.0139 50.6406C66.9284 50.7223 66.8277 50.7864 66.7175 50.8292C66.6073 50.872 66.4897 50.8927 66.3715 50.89" fill="#3F3F3F"/>
<path d="M30.9003 31.97V44.22H48.6403V31.97H30.9003ZM48.6403 45.97H30.9003C30.4246 45.978 29.9651 45.7974 29.6221 45.4676C29.2792 45.1378 29.0808 44.6856 29.0703 44.21V31.97C29.0808 31.4943 29.2792 31.0422 29.6221 30.7124C29.9651 30.3826 30.4246 30.2019 30.9003 30.21H48.6403C49.116 30.2019 49.5756 30.3826 49.9185 30.7124C50.2614 31.0422 50.4598 31.4943 50.4703 31.97V44.22C50.4598 44.6956 50.2614 45.1478 49.9185 45.4776C49.5756 45.8074 49.116 45.988 48.6403 45.98" fill="#D40054"/>
<path d="M33.1346 30.21H46.4147V24.88C46.4042 24.4043 46.2058 23.9522 45.8629 23.6224C45.5199 23.2926 45.0604 23.1119 44.5847 23.12H34.9647C34.489 23.1119 34.0294 23.2926 33.6865 23.6224C33.3435 23.9522 33.1451 24.4043 33.1346 24.88V30.21ZM47.3246 31.97H32.2147C32.0969 31.9727 31.9799 31.9519 31.8702 31.909C31.7606 31.8661 31.6606 31.8018 31.5759 31.72C31.4913 31.6381 31.4237 31.5403 31.3771 31.4322C31.3306 31.324 31.306 31.2077 31.3047 31.09V24.88C31.3257 23.9287 31.7225 23.0244 32.4083 22.3648C33.0942 21.7052 34.0132 21.3439 34.9647 21.36H44.5847C45.5361 21.3439 46.4552 21.7052 47.141 22.3648C47.8268 23.0244 48.2236 23.9287 48.2446 24.88V31.09C48.242 31.2082 48.2162 31.3247 48.1686 31.4329C48.1209 31.5411 48.0524 31.6389 47.967 31.7206C47.8815 31.8023 47.7809 31.8664 47.6707 31.9092C47.5604 31.952 47.4428 31.9727 47.3246 31.97Z" fill="#D40054"/>
<path d="M37.6122 35.2099L38.5222 38.5399C38.5871 38.721 38.5871 38.9189 38.5222 39.0999C38.4322 39.3143 38.3966 39.5475 38.4185 39.779C38.4404 40.0104 38.5193 40.2328 38.6479 40.4264C38.7766 40.62 38.9511 40.7788 39.156 40.8886C39.3609 40.9984 39.5897 41.0559 39.8222 41.0559C40.0546 41.0559 40.2835 40.9984 40.4884 40.8886C40.6933 40.7788 40.8678 40.62 40.9965 40.4264C41.1252 40.2328 41.204 40.0104 41.2259 39.779C41.2479 39.5475 41.2122 39.3143 41.1222 39.0999C41.0573 38.9189 41.0573 38.721 41.1222 38.5399L42.0322 35.2099H37.6122ZM39.7722 42.7399C38.9312 42.7534 38.119 42.4342 37.5122 41.8517C36.9054 41.2693 36.5532 40.4708 36.5322 39.6299C36.5339 39.3214 36.5811 39.0147 36.6722 38.7199L35.5422 34.55C35.5031 34.42 35.4972 34.2823 35.5252 34.1495C35.5531 34.0167 35.614 33.8931 35.7022 33.7899C35.79 33.684 35.9 33.5987 36.0244 33.5399C36.1488 33.4812 36.2846 33.4505 36.4222 33.45H43.1222C43.2598 33.4505 43.3956 33.4812 43.52 33.5399C43.6444 33.5987 43.7544 33.684 43.8422 33.7899C43.9304 33.8931 43.9912 34.0167 44.0192 34.1495C44.0472 34.2823 44.0413 34.42 44.0022 34.55L42.8722 38.7199C42.9633 39.0147 43.0105 39.3214 43.0122 39.6299C42.9912 40.4708 42.639 41.2693 42.0322 41.8517C41.4254 42.4342 40.6132 42.7534 39.7722 42.7399Z" fill="#D40054"/>
</g>
</g>
<defs>
<clipPath id="clip0_21_5216">
<rect width="71.54" height="55.82" fill="white" transform="translate(4 12)"/>
</clipPath>
</defs>
</svg>
