<svg width="44" height="44" viewBox="0 0 44 44" fill="none" xmlns="http://www.w3.org/2000/svg">
<circle cx="22" cy="22" r="21.5" fill="white" stroke="#D31C5B"/>
<path d="M20.0127 21.2021H21.4307C22.1253 21.2021 22.6982 21.0876 23.1494 20.8584C23.6077 20.6221 23.9479 20.3034 24.1699 19.9023C24.3991 19.4941 24.5137 19.0358 24.5137 18.5273C24.5137 17.9258 24.4134 17.4209 24.2129 17.0127C24.0124 16.6045 23.7116 16.2965 23.3105 16.0889C22.9095 15.8812 22.401 15.7773 21.7852 15.7773C21.2266 15.7773 20.7324 15.8883 20.3027 16.1104C19.8802 16.3252 19.5472 16.6331 19.3037 17.0342C19.0674 17.4352 18.9492 17.9079 18.9492 18.4521H16.9619C16.9619 17.6572 17.1624 16.9339 17.5635 16.2822C17.9645 15.6305 18.5267 15.1113 19.25 14.7246C19.9805 14.3379 20.8255 14.1445 21.7852 14.1445C22.7305 14.1445 23.5576 14.3128 24.2666 14.6494C24.9756 14.9788 25.527 15.473 25.9209 16.1318C26.3148 16.7835 26.5117 17.5964 26.5117 18.5703C26.5117 18.9642 26.4186 19.3867 26.2324 19.8379C26.0534 20.2819 25.7705 20.6973 25.3838 21.084C25.0042 21.4707 24.5101 21.7894 23.9014 22.04C23.2926 22.2835 22.5622 22.4053 21.71 22.4053H20.0127V21.2021ZM20.0127 22.835V21.6426H21.71C22.7054 21.6426 23.529 21.7607 24.1807 21.9971C24.8324 22.2334 25.3444 22.5485 25.7168 22.9424C26.0964 23.3363 26.3613 23.7695 26.5117 24.2422C26.6693 24.7077 26.748 25.1732 26.748 25.6387C26.748 26.3691 26.6227 27.0173 26.3721 27.583C26.1286 28.1488 25.7812 28.6286 25.3301 29.0225C24.8861 29.4163 24.3633 29.7135 23.7617 29.9141C23.1602 30.1146 22.5049 30.2148 21.7959 30.2148C21.1156 30.2148 20.4746 30.1182 19.873 29.9248C19.2786 29.7314 18.7523 29.4521 18.2939 29.0869C17.8356 28.7145 17.4775 28.2598 17.2197 27.7227C16.9619 27.1784 16.833 26.5589 16.833 25.8643H18.8203C18.8203 26.4085 18.9385 26.8848 19.1748 27.293C19.4183 27.7012 19.762 28.0199 20.2061 28.249C20.6572 28.471 21.1872 28.582 21.7959 28.582C22.4046 28.582 22.9274 28.4782 23.3643 28.2705C23.8083 28.0557 24.1484 27.7334 24.3848 27.3037C24.6283 26.874 24.75 26.3333 24.75 25.6816C24.75 25.0299 24.6139 24.4964 24.3418 24.0811C24.0697 23.6585 23.6829 23.347 23.1816 23.1465C22.6875 22.9388 22.1038 22.835 21.4307 22.835H20.0127Z" fill="#D31C5B"/>
</svg>
