<svg width="94" height="90" viewBox="0 0 94 90" fill="none" xmlns="http://www.w3.org/2000/svg">
<g clip-path="url(#clip0_2_1987)">
<mask id="mask0_2_1987" style="mask-type:luminance" maskUnits="userSpaceOnUse" x="0" y="0" width="94" height="90">
<path d="M94 0.5H0V89.5H94V0.5Z" fill="white"/>
</mask>
<g mask="url(#mask0_2_1987)">
<path d="M58.8756 22.5346H66.7977V26.2777H76.7358M72.7748 43.1285C72.2559 44.1248 71.4859 44.9701 70.5402 45.5816C69.5946 46.1931 68.5057 46.55 67.3798 46.6173C66.3564 46.5635 65.3615 46.2627 64.481 45.741C63.6005 45.2194 62.8607 44.4924 62.3255 43.6229M56.9023 43.1285H59.9688C60.7026 43.1291 61.4081 42.847 61.9375 42.3415C62.4668 41.8359 62.7789 41.146 62.8083 40.4165V37.5068M72.7463 37.5068V40.4165C72.7757 41.146 73.0878 41.8359 73.6171 42.3415C74.1465 42.847 74.852 43.1291 75.5858 43.1285H78.2691C79.3892 43.1056 80.4732 43.5227 81.2864 44.2894C82.0995 45.0561 82.5763 46.1107 82.6135 47.2247V52.5215M46.9783 37.5351C46.3533 38.5188 45.4976 39.3368 44.4848 39.9188C43.4719 40.5009 42.3322 40.8297 41.1634 40.8769C39.9947 40.9242 38.8319 40.6885 37.775 40.19C36.718 39.6916 35.7984 38.9453 35.0952 38.0154M50.9394 16.9554H37.0829V20.6984H31.1342M25.2707 45.0212V41.6454C25.304 40.5437 25.7673 39.4983 26.5625 38.731C27.3577 37.9636 28.4221 37.5346 29.5299 37.5351H32.199C32.9328 37.5357 33.6383 37.2536 34.1677 36.748C34.697 36.2424 35.0091 35.5526 35.0385 34.8232V33.792M46.9215 33.792V34.696C46.9438 35.4653 47.2716 36.1945 47.833 36.7239C48.3945 37.2534 49.1438 37.54 49.9171 37.521H52.4727C53.5952 37.4982 54.6813 37.9172 55.4948 38.6869C56.3084 39.4566 56.7836 40.5148 56.8171 41.6313V50.6287M40.9729 65.601H59.7843C61.0306 65.601 62.2259 65.1084 63.1071 64.2316C63.9884 63.3548 64.4835 62.1657 64.4835 60.9257C64.4835 59.6857 63.9884 58.4965 63.1071 57.6197C62.2259 56.7429 61.0306 56.2504 59.7843 56.2504H46.9215L45.2321 55.0498C41.8818 52.7022 37.9904 51.2333 33.9181 50.779C29.8458 50.3247 25.7241 50.8997 21.9344 52.4509L17.2209 54.3718M64.8811 61.2929L80.4697 58.1714C81.2348 57.9868 82.04 58.0617 82.7576 58.3841C83.4751 58.7065 84.0639 59.258 84.4307 59.9511C85.0979 61.4766 83.9622 63.0303 82.4573 63.793L55.4825 74.5419C50.8544 76.071 46.0055 76.8345 41.129 76.8019C38.1637 76.8314 35.2065 76.4897 32.3268 75.7849L29.2602 74.9233M76.7358 20.6419V29.9219C76.6439 32.2113 75.6651 34.3766 74.0045 35.9642C72.3438 37.5517 70.13 38.4383 67.827 38.4383C65.5239 38.4383 63.3102 37.5517 61.6495 35.9642C59.9889 34.3766 59.0101 32.2113 58.9182 29.9219V20.656C58.933 19.898 59.098 19.1503 59.4037 18.4558C59.7094 17.7613 60.1499 17.1336 60.6998 16.6088C61.2498 16.0839 61.8984 15.6722 62.6086 15.3972C63.3188 15.1221 64.0766 14.9893 64.8385 15.0061H70.8155C72.3457 14.9797 73.8238 15.5582 74.9258 16.6147C76.0277 17.6713 76.6634 19.1196 76.6932 20.6419H76.7358ZM51.0104 15.5146V24.6957C50.9435 27.1734 49.8905 29.5234 48.0829 31.229C46.2753 32.9347 43.861 33.8566 41.3705 33.792H40.8452C38.3547 33.8566 35.9403 32.9347 34.1327 31.229C32.3251 29.5234 31.2721 27.1734 31.2052 24.6957V15.5146C31.2498 13.8686 31.9491 12.3075 33.1496 11.1741C34.3501 10.0406 35.9537 9.42746 37.6082 9.46923H44.6074C46.2498 9.43869 47.8382 10.0531 49.0287 11.1793C50.2191 12.3055 50.9157 13.8529 50.9677 15.4864L51.0104 15.5146ZM29.104 76.8301L23.1554 80.5732L9.29883 56.2504L15.2475 52.5073L29.104 76.8301Z" stroke="#454545" stroke-width="1.5" stroke-linecap="round" stroke-linejoin="round"/>
</g>
<path d="M10.4492 55.756L23.0564 80.22L28.4797 77.7058L15.8726 53.2418L10.4492 55.756Z" fill="#D40054"/>
</g>
<defs>
<clipPath id="clip0_2_1987">
<rect width="94" height="89" fill="white" transform="translate(0 0.5)"/>
</clipPath>
</defs>
</svg>
