<svg width="100" height="100" viewBox="0 0 100 100" fill="none" xmlns="http://www.w3.org/2000/svg">
<g clip-path="url(#clip0_2_2066)">
<mask id="mask0_2_2066" style="mask-type:luminance" maskUnits="userSpaceOnUse" x="8" y="14" width="84" height="71">
<path d="M92.0001 14H8V85H92.0001V14Z" fill="white"/>
</mask>
<g mask="url(#mask0_2_2066)">
<path d="M76.2792 23.3032C75.5575 18.3845 71.8705 14.7072 67.7285 14.77C63.0218 14.8486 59.2721 19.4845 59.2721 25.0948C59.2721 19.4688 55.5223 14.88 50.8627 14.77C46.7207 14.6758 43.0181 18.3373 42.265 23.2404C41.559 27.7505 43.834 30.9249 46.4227 34.0365C49.0114 37.1481 59.2721 48.3842 59.2721 48.3842C59.2721 48.3842 68.6857 38.1067 72.1216 34.0365C74.5534 31.2078 76.9538 27.7506 76.2792 23.3032Z" fill="#D40054"/>
<path d="M76.2792 23.3032C75.5575 18.3845 71.8705 14.7072 67.7285 14.77C63.0218 14.8486 59.2721 19.4845 59.2721 25.0948C59.2721 19.4688 55.5223 14.88 50.8627 14.77C46.7207 14.6758 43.0181 18.3373 42.265 23.2404C41.559 27.7505 43.834 30.9249 46.4227 34.0365C49.0114 37.1481 59.2721 48.3842 59.2721 48.3842C59.2721 48.3842 68.6857 38.1067 72.1216 34.0365C74.5534 31.1607 76.9538 27.8134 76.2792 23.3032Z" stroke="#3F3F3F" stroke-linecap="round" stroke-linejoin="round"/>
<path d="M43.5508 65.3564H63.9468C65.4239 65.2792 66.8151 64.637 67.8334 63.5624C68.8518 62.4878 69.4195 61.0627 69.4195 59.5811C69.4195 58.0995 68.8518 56.6744 67.8334 55.5998C66.8151 54.5252 65.4239 53.8831 63.9468 53.8059H49.9833L48.1477 52.3287C43.8459 48.8228 38.475 46.8984 32.9292 46.8756C29.4485 46.8819 26.0111 47.6488 22.8567 49.1228L17.742 51.4958M69.485 60.0761L86.3039 56.3046C87.1629 56.0913 88.0698 56.1946 88.859 56.5956C89.6483 56.9967 90.2672 57.6687 90.6027 58.489C90.8566 59.4025 90.7802 60.3765 90.387 61.2391C89.9937 62.1017 89.3088 62.7974 88.4533 63.2034L59.1302 76.4668C54.152 78.3472 48.8712 79.2954 43.5508 79.264C40.3173 79.3021 37.0947 78.8789 33.9803 78.0069L30.6542 76.9383M30.6386 79.2169L24.2217 83.8371L9.19141 53.8059L15.624 49.1857L30.6386 79.2169Z" stroke="#454545" stroke-width="1.5" stroke-linecap="round" stroke-linejoin="round"/>
</g>
</g>
<defs>
<clipPath id="clip0_2_2066">
<rect width="84" height="71" fill="white" transform="translate(8 14)"/>
</clipPath>
</defs>
</svg>
