<svg width="158" height="80" viewBox="0 0 158 80" fill="none" xmlns="http://www.w3.org/2000/svg">
<g clip-path="url(#clip0_21_5221)">
<path d="M56.7235 42.18C56.7307 41.9779 56.6973 41.7763 56.6252 41.5873C56.553 41.3984 56.4436 41.2259 56.3035 41.08C55.9002 40.7198 55.4221 40.4534 54.9036 40.3C54.3742 40.1235 53.8593 39.9062 53.3635 39.65C52.8038 39.4044 52.3288 38.9993 51.998 38.4853C51.6672 37.9713 51.4952 37.3712 51.5035 36.76C51.4775 35.9739 51.7611 35.209 52.2935 34.63C52.8612 34.0471 53.6222 33.6915 54.4335 33.63V31.92H55.6835V33.64C56.0945 33.6839 56.4927 33.8091 56.855 34.0082C57.2172 34.2074 57.5362 34.4765 57.7935 34.8C58.3131 35.5194 58.574 36.3935 58.5336 37.28H56.6435C56.672 36.7289 56.5172 36.1839 56.2035 35.73C56.0613 35.5493 55.8786 35.4045 55.6702 35.3072C55.4617 35.2099 55.2334 35.1629 55.0035 35.17C54.5732 35.145 54.15 35.2885 53.8235 35.57C53.6766 35.7255 53.5634 35.9097 53.4911 36.111C53.4188 36.3124 53.389 36.5265 53.4036 36.74C53.3954 36.9407 53.4284 37.141 53.5006 37.3285C53.5728 37.516 53.6828 37.6866 53.8235 37.83C54.2396 38.1806 54.7227 38.4425 55.2435 38.6C55.7796 38.796 56.3038 39.023 56.8135 39.28C57.182 39.4669 57.5194 39.7098 57.8135 40C58.0699 40.2659 58.2735 40.5781 58.4135 40.92C58.5611 41.3129 58.6324 41.7304 58.6235 42.15C58.6407 42.543 58.5778 42.9354 58.4385 43.3033C58.2993 43.6711 58.0866 44.0069 57.8135 44.29C57.2068 44.8811 56.4088 45.2357 55.5635 45.29V46.76H54.3235V45.25C53.8723 45.2366 53.4285 45.1314 53.0193 44.9407C52.6101 44.75 52.244 44.4779 51.9436 44.141C51.6431 43.804 51.4146 43.4093 51.2718 42.981C51.1291 42.5527 51.0752 42.0998 51.1135 41.65H53.0035C52.9689 42.2051 53.1478 42.7524 53.5035 43.18C53.6847 43.3649 53.9034 43.5087 54.1449 43.6019C54.3865 43.6951 54.6452 43.7353 54.9036 43.72C55.3943 43.7487 55.8785 43.5956 56.2635 43.29C56.4136 43.1474 56.532 42.9749 56.6113 42.7838C56.6905 42.5926 56.7287 42.3869 56.7235 42.18Z" fill="#D40054"/>
<path d="M64.1061 45.3C63.5684 45.3177 63.0327 45.2267 62.5309 45.0326C62.0292 44.8384 61.5718 44.545 61.1861 44.17C60.8086 43.77 60.5151 43.2985 60.3227 42.7832C60.1303 42.268 60.0431 41.7195 60.0661 41.17V40.93C60.0506 40.1487 60.2184 39.3747 60.5561 38.67C60.8556 38.0333 61.331 37.4954 61.9261 37.12C62.5246 36.7449 63.22 36.5537 63.9261 36.57C64.424 36.5382 64.9226 36.6209 65.3837 36.8115C65.8447 37.0022 66.256 37.2958 66.5861 37.67C67.2495 38.5579 67.5724 39.6543 67.4961 40.76V41.52H61.9761C62.0006 42.1399 62.2493 42.7297 62.6761 43.18C62.8787 43.3798 63.1195 43.5368 63.384 43.6416C63.6486 43.7464 63.9316 43.7969 64.2161 43.79C64.6298 43.7955 65.039 43.7023 65.4094 43.5179C65.7799 43.3335 66.101 43.0634 66.3461 42.73L67.3461 43.73C67.008 44.233 66.5421 44.6369 65.9961 44.9C65.4052 45.1766 64.7584 45.3135 64.1061 45.3ZM63.8861 38.06C63.6482 38.0508 63.4113 38.0955 63.1931 38.1908C62.9749 38.286 62.7811 38.4293 62.6261 38.61C62.2738 39.0443 62.0581 39.5732 62.0061 40.13H65.6261V39.99C65.6292 39.4652 65.4488 38.9558 65.1161 38.55C64.9596 38.3831 64.7682 38.2527 64.5557 38.168C64.3431 38.0833 64.1145 38.0464 63.8861 38.06Z" fill="#D40054"/>
<path d="M70.7384 36.69V37.69C71.0312 37.322 71.4064 37.028 71.8337 36.8317C72.261 36.6354 72.7285 36.5423 73.1984 36.56C74.9684 36.56 75.8584 37.56 75.8884 39.56V45.15H73.9884V39.67C74.0247 39.2451 73.9038 38.8216 73.6484 38.48C73.4967 38.3381 73.3167 38.23 73.1202 38.1628C72.9237 38.0956 72.7152 38.0708 72.5084 38.09C72.1573 38.0737 71.8089 38.1595 71.5054 38.3369C71.202 38.5144 70.9564 38.7759 70.7984 39.09V45.09H68.8984V36.63L70.7384 36.69Z" fill="#D40054"/>
<path d="M79.7516 37.61C80.0389 37.2679 80.399 36.9943 80.8056 36.8092C81.2122 36.6241 81.6549 36.5321 82.1016 36.54C83.9016 36.54 84.8116 37.54 84.8416 39.62V45.15H82.9416V39.69C82.9647 39.4684 82.943 39.2444 82.8777 39.0313C82.8124 38.8183 82.7049 38.6206 82.5616 38.45C82.2531 38.189 81.8545 38.0597 81.4516 38.09C81.1021 38.0757 80.7559 38.1624 80.4544 38.3397C80.1529 38.5171 79.9089 38.7775 79.7516 39.09V45.09H77.8516V33.09H79.7516V37.61Z" fill="#D40054"/>
<path d="M99.391 41.1C99.3793 42.2046 99.0304 43.2792 98.391 44.18C98.1186 44.543 97.7629 44.8351 97.3539 45.0318C96.9449 45.2285 96.4946 45.3239 96.041 45.31C95.6365 45.3463 95.2313 45.2484 94.8879 45.0315C94.5445 44.8147 94.2821 44.4908 94.141 44.11C93.9077 44.4742 93.5927 44.7789 93.221 45C92.8833 45.1936 92.5002 45.2937 92.111 45.29C91.7658 45.304 91.4231 45.2251 91.1188 45.0615C90.8145 44.898 90.5597 44.6557 90.381 44.36C89.9612 43.5948 89.8031 42.7134 89.931 41.85C90.0027 41.0532 90.2125 40.2749 90.551 39.55C90.8368 38.9291 91.2692 38.3868 91.811 37.97C92.2765 37.6136 92.8447 37.4172 93.431 37.41C93.8242 37.4043 94.2159 37.4617 94.591 37.58C95.0244 37.7354 95.4271 37.9656 95.781 38.26L95.371 42.65C95.271 43.65 95.571 44.2 96.261 44.2C96.5377 44.1925 96.8068 44.108 97.0382 43.9561C97.2695 43.8042 97.4541 43.5909 97.571 43.34C97.9422 42.6628 98.1349 41.9022 98.131 41.13C98.3191 39.5733 97.9236 38.0022 97.021 36.72C96.5565 36.1921 95.9765 35.7785 95.3261 35.5114C94.6756 35.2443 93.9724 35.1309 93.271 35.18C92.3085 35.1651 91.3628 35.4328 90.551 35.95C89.7325 36.5008 89.0847 37.2698 88.681 38.17C88.1965 39.2041 87.9342 40.3283 87.911 41.47C87.829 42.5697 87.9825 43.6743 88.361 44.71C88.6792 45.5621 89.2607 46.2907 90.021 46.79C90.848 47.283 91.7987 47.5294 92.761 47.5C93.2223 47.4995 93.682 47.4458 94.131 47.34C94.5554 47.2583 94.9661 47.1169 95.351 46.92L95.641 47.99C95.2488 48.2341 94.8148 48.4036 94.361 48.49C93.8271 48.6179 93.2799 48.6817 92.731 48.68C91.5393 48.7126 90.3611 48.4223 89.321 47.84C88.3723 47.2751 87.6267 46.4245 87.191 45.41C86.6787 44.1628 86.4564 42.8156 86.541 41.47C86.6004 40.1307 86.9411 38.8189 87.541 37.62C88.073 36.5329 88.8971 35.6153 89.921 34.97C90.9429 34.364 92.106 34.0368 93.294 34.021C94.4819 34.0052 95.6533 34.3014 96.691 34.88C97.6307 35.4606 98.365 36.3208 98.791 37.34C99.2717 38.5321 99.4769 39.8175 99.391 41.1ZM91.501 41.85C91.4154 42.3939 91.4811 42.951 91.691 43.46C91.7763 43.6295 91.9081 43.7713 92.0711 43.8687C92.234 43.9661 92.4212 44.0151 92.611 44.01C92.7625 44.0062 92.9117 43.9714 93.0493 43.9078C93.1869 43.8442 93.3099 43.753 93.411 43.64C93.6828 43.3536 93.8907 43.0127 94.021 42.64L94.371 38.79C94.1291 38.6933 93.8714 38.6424 93.611 38.64C93.3246 38.6408 93.0436 38.717 92.796 38.861C92.5485 39.0049 92.3433 39.2115 92.201 39.46C91.7815 40.1899 91.5416 41.0091 91.501 41.85Z" fill="#D40054"/>
<path d="M100.77 42.08C100.764 41.5645 100.914 41.0593 101.2 40.63C101.67 40.0115 102.246 39.4801 102.9 39.06C102.531 38.6279 102.218 38.1507 101.97 37.64C101.802 37.2868 101.713 36.9011 101.71 36.51C101.689 36.1197 101.751 35.7294 101.89 35.3642C102.03 34.9991 102.244 34.6673 102.52 34.39C102.814 34.1208 103.16 33.9132 103.536 33.7793C103.912 33.6453 104.311 33.5878 104.71 33.61C105.445 33.591 106.16 33.8519 106.71 34.34C106.966 34.5662 107.17 34.8451 107.308 35.1575C107.446 35.4699 107.515 35.8085 107.51 36.15C107.514 36.6117 107.389 37.0654 107.15 37.46C106.839 37.9309 106.438 38.3354 105.97 38.65L105.19 39.22L107.39 41.81C107.715 41.1618 107.879 40.445 107.87 39.72H109.5C109.55 40.9481 109.199 42.1591 108.5 43.17L110.17 45.17H107.97L107.33 44.41C106.488 45.0283 105.464 45.3485 104.42 45.32C103.441 45.364 102.48 45.0473 101.72 44.43C101.399 44.1314 101.148 43.7662 100.984 43.3602C100.82 42.9543 100.747 42.5173 100.77 42.08ZM104.5 43.76C105.151 43.7531 105.781 43.5277 106.29 43.12L103.81 40.19L103.57 40.36C103.293 40.5328 103.062 40.7708 102.898 41.0531C102.734 41.3355 102.642 41.6538 102.63 41.98C102.619 42.2173 102.659 42.4541 102.747 42.6747C102.835 42.8953 102.969 43.0948 103.14 43.26C103.322 43.4296 103.536 43.5612 103.769 43.6471C104.003 43.7329 104.251 43.7713 104.5 43.76ZM103.5 36.43C103.583 37.0514 103.863 37.6298 104.3 38.08L105.17 37.48L105.41 37.29C105.568 37.1547 105.694 36.9857 105.779 36.7954C105.864 36.6051 105.905 36.3982 105.9 36.19C105.902 36.0446 105.873 35.9005 105.815 35.7675C105.756 35.6345 105.669 35.5159 105.56 35.42C105.328 35.2088 105.023 35.0974 104.71 35.11C104.545 35.1023 104.38 35.1316 104.228 35.1956C104.076 35.2596 103.94 35.3567 103.83 35.48C103.598 35.7521 103.48 36.1031 103.5 36.46V36.43Z" fill="#D40054"/>
<mask id="mask0_21_5221" style="mask-type:luminance" maskUnits="userSpaceOnUse" x="0" y="27" width="158" height="29">
<path d="M157.5 27H0.5V55.52H157.5V27Z" fill="white"/>
</mask>
<g mask="url(#mask0_21_5221)">
<path d="M156.501 49.52C156.52 50.3353 156.214 51.1247 155.652 51.7152C155.09 52.3057 154.316 52.649 153.501 52.67H4.50082C3.68564 52.649 2.91202 52.3057 2.34964 51.7152C1.78726 51.1247 1.48202 50.3353 1.50082 49.52V31.15C1.48202 30.3348 1.78726 29.5454 2.34964 28.9549C2.91202 28.3644 3.68564 28.021 4.50082 28H153.501C154.316 28.021 155.09 28.3644 155.652 28.9549C156.214 29.5454 156.52 30.3348 156.501 31.15V49.52Z" stroke="#3F3F3F" stroke-width="2" stroke-miterlimit="10"/>
</g>
</g>
<defs>
<clipPath id="clip0_21_5221">
<rect width="157" height="26.67" fill="white" transform="translate(0.5 27)"/>
</clipPath>
</defs>
</svg>
