<svg width="743" height="167" viewBox="0 0 743 167" fill="none" xmlns="http://www.w3.org/2000/svg">
<rect width="743" height="167" rx="4" fill="#D40054"/>
<g clip-path="url(#clip0_21_5927)">
<path fill-rule="evenodd" clip-rule="evenodd" d="M88.2715 82.8542V75.4792H90.7298V82.8542H88.2715Z" fill="white"/>
<path fill-rule="evenodd" clip-rule="evenodd" d="M75.9785 84.0833C75.9785 83.4045 76.5288 82.8542 77.2077 82.8542H101.791C102.47 82.8542 103.02 83.4045 103.02 84.0833C103.02 84.7622 102.47 85.3125 101.791 85.3125H77.2077C76.5288 85.3125 75.9785 84.7622 75.9785 84.0833Z" fill="white"/>
<path fill-rule="evenodd" clip-rule="evenodd" d="M118.386 65.6458H60.6152V63.1875H118.386V65.6458Z" fill="white"/>
<path fill-rule="evenodd" clip-rule="evenodd" d="M66.1458 37.375C64.1093 37.375 62.4583 39.026 62.4583 41.0625V70.5625C62.4583 72.5991 64.1093 74.25 66.1458 74.25H112.854C114.891 74.25 116.542 72.5991 116.542 70.5625V41.0625C116.542 39.026 114.891 37.375 112.854 37.375H66.1458ZM60 41.0625C60 37.6683 62.7516 34.9167 66.1458 34.9167H112.854C116.248 34.9167 119 37.6683 119 41.0625V70.5625C119 73.9567 116.248 76.7083 112.854 76.7083H66.1458C62.7516 76.7083 60 73.9567 60 70.5625V41.0625Z" fill="white"/>
</g>
<path d="M39.2109 122.931H40.8984C40.8105 123.739 40.5791 124.463 40.2041 125.102C39.8291 125.74 39.2988 126.247 38.6133 126.622C37.9277 126.991 37.0723 127.176 36.0469 127.176C35.2969 127.176 34.6143 127.035 33.999 126.754C33.3896 126.473 32.8652 126.074 32.4258 125.559C31.9863 125.037 31.6465 124.413 31.4062 123.687C31.1719 122.954 31.0547 122.14 31.0547 121.243V119.969C31.0547 119.072 31.1719 118.261 31.4062 117.534C31.6465 116.802 31.9893 116.175 32.4346 115.653C32.8857 115.132 33.4277 114.73 34.0605 114.449C34.6934 114.168 35.4053 114.027 36.1963 114.027C37.1631 114.027 37.9805 114.209 38.6484 114.572C39.3164 114.936 39.835 115.439 40.2041 116.084C40.5791 116.723 40.8105 117.464 40.8984 118.308H39.2109C39.1289 117.71 38.9766 117.197 38.7539 116.77C38.5312 116.336 38.2148 116.002 37.8047 115.768C37.3945 115.533 36.8584 115.416 36.1963 115.416C35.6279 115.416 35.127 115.524 34.6934 115.741C34.2656 115.958 33.9053 116.266 33.6123 116.664C33.3252 117.062 33.1084 117.54 32.9619 118.097C32.8154 118.653 32.7422 119.271 32.7422 119.951V121.243C32.7422 121.87 32.8066 122.459 32.9355 123.01C33.0703 123.561 33.2725 124.044 33.542 124.46C33.8115 124.876 34.1543 125.204 34.5703 125.444C34.9863 125.679 35.4785 125.796 36.0469 125.796C36.7676 125.796 37.3418 125.682 37.7695 125.453C38.1973 125.225 38.5195 124.896 38.7363 124.469C38.959 124.041 39.1172 123.528 39.2109 122.931ZM42.5332 122.351V122.148C42.5332 121.463 42.6328 120.827 42.832 120.241C43.0312 119.649 43.3184 119.137 43.6934 118.703C44.0684 118.264 44.5225 117.924 45.0557 117.684C45.5889 117.438 46.1865 117.314 46.8486 117.314C47.5166 117.314 48.1172 117.438 48.6504 117.684C49.1895 117.924 49.6465 118.264 50.0215 118.703C50.4023 119.137 50.6924 119.649 50.8916 120.241C51.0908 120.827 51.1904 121.463 51.1904 122.148V122.351C51.1904 123.036 51.0908 123.672 50.8916 124.258C50.6924 124.844 50.4023 125.356 50.0215 125.796C49.6465 126.229 49.1924 126.569 48.6592 126.815C48.1318 127.056 47.5342 127.176 46.8662 127.176C46.1982 127.176 45.5977 127.056 45.0645 126.815C44.5312 126.569 44.0742 126.229 43.6934 125.796C43.3184 125.356 43.0312 124.844 42.832 124.258C42.6328 123.672 42.5332 123.036 42.5332 122.351ZM44.1592 122.148V122.351C44.1592 122.825 44.2148 123.273 44.3262 123.695C44.4375 124.111 44.6045 124.48 44.8271 124.803C45.0557 125.125 45.3398 125.38 45.6797 125.567C46.0195 125.749 46.415 125.84 46.8662 125.84C47.3115 125.84 47.7012 125.749 48.0352 125.567C48.375 125.38 48.6562 125.125 48.8789 124.803C49.1016 124.48 49.2686 124.111 49.3799 123.695C49.4971 123.273 49.5557 122.825 49.5557 122.351V122.148C49.5557 121.68 49.4971 121.237 49.3799 120.821C49.2686 120.399 49.0986 120.027 48.8701 119.705C48.6475 119.377 48.3662 119.119 48.0264 118.932C47.6924 118.744 47.2998 118.65 46.8486 118.65C46.4033 118.65 46.0107 118.744 45.6709 118.932C45.3369 119.119 45.0557 119.377 44.8271 119.705C44.6045 120.027 44.4375 120.399 44.3262 120.821C44.2148 121.237 44.1592 121.68 44.1592 122.148ZM54.8467 119.38V127H53.2119V117.49H54.7588L54.8467 119.38ZM54.5127 121.885L53.7568 121.858C53.7627 121.208 53.8477 120.607 54.0117 120.057C54.1758 119.5 54.4189 119.017 54.7412 118.606C55.0635 118.196 55.4648 117.88 55.9453 117.657C56.4258 117.429 56.9824 117.314 57.6152 117.314C58.0605 117.314 58.4707 117.379 58.8457 117.508C59.2207 117.631 59.5459 117.827 59.8213 118.097C60.0967 118.366 60.3105 118.712 60.4629 119.134C60.6152 119.556 60.6914 120.065 60.6914 120.663V127H59.0654V120.742C59.0654 120.244 58.9805 119.846 58.8105 119.547C58.6465 119.248 58.4121 119.031 58.1074 118.896C57.8027 118.756 57.4453 118.686 57.0352 118.686C56.5547 118.686 56.1533 118.771 55.8311 118.94C55.5088 119.11 55.251 119.345 55.0576 119.644C54.8643 119.942 54.7236 120.285 54.6357 120.672C54.5537 121.053 54.5127 121.457 54.5127 121.885ZM60.6738 120.988L59.584 121.322C59.5898 120.801 59.6748 120.3 59.8389 119.819C60.0088 119.339 60.252 118.911 60.5684 118.536C60.8906 118.161 61.2861 117.865 61.7549 117.648C62.2236 117.426 62.7598 117.314 63.3633 117.314C63.873 117.314 64.3242 117.382 64.7168 117.517C65.1152 117.651 65.4492 117.859 65.7188 118.141C65.9941 118.416 66.2021 118.771 66.3428 119.204C66.4834 119.638 66.5537 120.153 66.5537 120.751V127H64.9189V120.733C64.9189 120.2 64.834 119.787 64.6641 119.494C64.5 119.195 64.2656 118.987 63.9609 118.87C63.6621 118.747 63.3047 118.686 62.8887 118.686C62.5312 118.686 62.2148 118.747 61.9395 118.87C61.6641 118.993 61.4326 119.163 61.2451 119.38C61.0576 119.591 60.9141 119.834 60.8145 120.109C60.7207 120.385 60.6738 120.678 60.6738 120.988ZM70.6406 119.318V130.656H69.0059V117.49H70.5L70.6406 119.318ZM77.0479 122.166V122.351C77.0479 123.042 76.9658 123.684 76.8018 124.275C76.6377 124.861 76.3975 125.371 76.0811 125.805C75.7705 126.238 75.3867 126.575 74.9297 126.815C74.4727 127.056 73.9482 127.176 73.3564 127.176C72.7529 127.176 72.2197 127.076 71.7568 126.877C71.2939 126.678 70.9014 126.388 70.5791 126.007C70.2568 125.626 69.999 125.169 69.8057 124.636C69.6182 124.103 69.4893 123.502 69.4189 122.834V121.85C69.4893 121.146 69.6211 120.517 69.8145 119.96C70.0078 119.403 70.2627 118.929 70.5791 118.536C70.9014 118.138 71.291 117.836 71.748 117.631C72.2051 117.42 72.7324 117.314 73.3301 117.314C73.9277 117.314 74.458 117.432 74.9209 117.666C75.3838 117.895 75.7734 118.223 76.0898 118.65C76.4062 119.078 76.6436 119.591 76.8018 120.188C76.9658 120.78 77.0479 121.439 77.0479 122.166ZM75.4131 122.351V122.166C75.4131 121.691 75.3633 121.246 75.2637 120.83C75.1641 120.408 75.0088 120.039 74.7979 119.723C74.5928 119.4 74.3291 119.148 74.0068 118.967C73.6846 118.779 73.3008 118.686 72.8555 118.686C72.4453 118.686 72.0879 118.756 71.7832 118.896C71.4844 119.037 71.2295 119.228 71.0186 119.468C70.8076 119.702 70.6348 119.972 70.5 120.276C70.3711 120.575 70.2744 120.886 70.21 121.208V123.484C70.3271 123.895 70.4912 124.281 70.7021 124.645C70.9131 125.002 71.1943 125.292 71.5459 125.515C71.8975 125.731 72.3398 125.84 72.873 125.84C73.3125 125.84 73.6904 125.749 74.0068 125.567C74.3291 125.38 74.5928 125.125 74.7979 124.803C75.0088 124.48 75.1641 124.111 75.2637 123.695C75.3633 123.273 75.4131 122.825 75.4131 122.351ZM84.9404 124.803V117.49H86.5752V127H85.0195L84.9404 124.803ZM85.248 122.799L85.9248 122.781C85.9248 123.414 85.8574 124 85.7227 124.539C85.5938 125.072 85.3828 125.535 85.0898 125.928C84.7969 126.32 84.4131 126.628 83.9385 126.851C83.4639 127.067 82.8867 127.176 82.207 127.176C81.7441 127.176 81.3193 127.108 80.9326 126.974C80.5518 126.839 80.2236 126.631 79.9482 126.35C79.6729 126.068 79.459 125.702 79.3066 125.251C79.1602 124.8 79.0869 124.258 79.0869 123.625V117.49H80.7129V123.643C80.7129 124.07 80.7598 124.425 80.8535 124.706C80.9531 124.981 81.085 125.201 81.249 125.365C81.4189 125.523 81.6064 125.635 81.8115 125.699C82.0225 125.764 82.2393 125.796 82.4619 125.796C83.1533 125.796 83.7012 125.664 84.1055 125.4C84.5098 125.131 84.7998 124.771 84.9756 124.319C85.1572 123.862 85.248 123.355 85.248 122.799ZM93.0352 117.49V118.738H87.8936V117.49H93.0352ZM89.6338 115.179H91.2598V124.645C91.2598 124.967 91.3096 125.21 91.4092 125.374C91.5088 125.538 91.6377 125.646 91.7959 125.699C91.9541 125.752 92.124 125.778 92.3057 125.778C92.4404 125.778 92.5811 125.767 92.7275 125.743C92.8799 125.714 92.9941 125.69 93.0703 125.673L93.0791 127C92.9502 127.041 92.7803 127.079 92.5693 127.114C92.3643 127.155 92.1152 127.176 91.8223 127.176C91.4238 127.176 91.0576 127.097 90.7236 126.938C90.3896 126.78 90.123 126.517 89.9238 126.147C89.7305 125.772 89.6338 125.269 89.6338 124.636V115.179ZM100.55 125.374V120.479C100.55 120.104 100.474 119.778 100.321 119.503C100.175 119.222 99.9521 119.005 99.6533 118.853C99.3545 118.7 98.9854 118.624 98.5459 118.624C98.1357 118.624 97.7754 118.694 97.4648 118.835C97.1602 118.976 96.9199 119.16 96.7441 119.389C96.5742 119.617 96.4893 119.863 96.4893 120.127H94.8633C94.8633 119.787 94.9512 119.45 95.127 119.116C95.3027 118.782 95.5547 118.48 95.8828 118.211C96.2168 117.936 96.6152 117.719 97.0781 117.561C97.5469 117.396 98.0684 117.314 98.6426 117.314C99.334 117.314 99.9434 117.432 100.471 117.666C101.004 117.9 101.42 118.255 101.719 118.729C102.023 119.198 102.176 119.787 102.176 120.496V124.926C102.176 125.242 102.202 125.579 102.255 125.937C102.313 126.294 102.398 126.602 102.51 126.859V127H100.813C100.731 126.812 100.667 126.563 100.62 126.253C100.573 125.937 100.55 125.644 100.55 125.374ZM100.831 121.234L100.849 122.377H99.2051C98.7422 122.377 98.3291 122.415 97.9658 122.491C97.6025 122.562 97.2979 122.67 97.0518 122.816C96.8057 122.963 96.6182 123.147 96.4893 123.37C96.3604 123.587 96.2959 123.842 96.2959 124.135C96.2959 124.434 96.3633 124.706 96.498 124.952C96.6328 125.198 96.835 125.395 97.1045 125.541C97.3799 125.682 97.7168 125.752 98.1152 125.752C98.6133 125.752 99.0527 125.646 99.4336 125.436C99.8145 125.225 100.116 124.967 100.339 124.662C100.567 124.357 100.69 124.062 100.708 123.774L101.402 124.557C101.361 124.803 101.25 125.075 101.068 125.374C100.887 125.673 100.644 125.96 100.339 126.235C100.04 126.505 99.6826 126.73 99.2666 126.912C98.8564 127.088 98.3936 127.176 97.8779 127.176C97.2334 127.176 96.668 127.05 96.1816 126.798C95.7012 126.546 95.3262 126.209 95.0566 125.787C94.793 125.359 94.6611 124.882 94.6611 124.354C94.6611 123.845 94.7607 123.396 94.96 123.01C95.1592 122.617 95.4463 122.292 95.8213 122.034C96.1963 121.771 96.6475 121.571 97.1748 121.437C97.7021 121.302 98.291 121.234 98.9414 121.234H100.831ZM110.728 125.154V113.5H112.362V127H110.868L110.728 125.154ZM104.329 122.351V122.166C104.329 121.439 104.417 120.78 104.593 120.188C104.774 119.591 105.029 119.078 105.357 118.65C105.691 118.223 106.087 117.895 106.544 117.666C107.007 117.432 107.522 117.314 108.091 117.314C108.688 117.314 109.21 117.42 109.655 117.631C110.106 117.836 110.487 118.138 110.798 118.536C111.114 118.929 111.363 119.403 111.545 119.96C111.727 120.517 111.853 121.146 111.923 121.85V122.658C111.858 123.355 111.732 123.982 111.545 124.539C111.363 125.096 111.114 125.57 110.798 125.963C110.487 126.355 110.106 126.657 109.655 126.868C109.204 127.073 108.677 127.176 108.073 127.176C107.517 127.176 107.007 127.056 106.544 126.815C106.087 126.575 105.691 126.238 105.357 125.805C105.029 125.371 104.774 124.861 104.593 124.275C104.417 123.684 104.329 123.042 104.329 122.351ZM105.964 122.166V122.351C105.964 122.825 106.011 123.271 106.104 123.687C106.204 124.103 106.356 124.469 106.562 124.785C106.767 125.102 107.027 125.351 107.344 125.532C107.66 125.708 108.038 125.796 108.478 125.796C109.017 125.796 109.459 125.682 109.805 125.453C110.156 125.225 110.438 124.923 110.648 124.548C110.859 124.173 111.023 123.766 111.141 123.326V121.208C111.07 120.886 110.968 120.575 110.833 120.276C110.704 119.972 110.534 119.702 110.323 119.468C110.118 119.228 109.863 119.037 109.559 118.896C109.26 118.756 108.905 118.686 108.495 118.686C108.05 118.686 107.666 118.779 107.344 118.967C107.027 119.148 106.767 119.4 106.562 119.723C106.356 120.039 106.204 120.408 106.104 120.83C106.011 121.246 105.964 121.691 105.964 122.166ZM114.463 122.351V122.148C114.463 121.463 114.562 120.827 114.762 120.241C114.961 119.649 115.248 119.137 115.623 118.703C115.998 118.264 116.452 117.924 116.985 117.684C117.519 117.438 118.116 117.314 118.778 117.314C119.446 117.314 120.047 117.438 120.58 117.684C121.119 117.924 121.576 118.264 121.951 118.703C122.332 119.137 122.622 119.649 122.821 120.241C123.021 120.827 123.12 121.463 123.12 122.148V122.351C123.12 123.036 123.021 123.672 122.821 124.258C122.622 124.844 122.332 125.356 121.951 125.796C121.576 126.229 121.122 126.569 120.589 126.815C120.062 127.056 119.464 127.176 118.796 127.176C118.128 127.176 117.527 127.056 116.994 126.815C116.461 126.569 116.004 126.229 115.623 125.796C115.248 125.356 114.961 124.844 114.762 124.258C114.562 123.672 114.463 123.036 114.463 122.351ZM116.089 122.148V122.351C116.089 122.825 116.145 123.273 116.256 123.695C116.367 124.111 116.534 124.48 116.757 124.803C116.985 125.125 117.27 125.38 117.609 125.567C117.949 125.749 118.345 125.84 118.796 125.84C119.241 125.84 119.631 125.749 119.965 125.567C120.305 125.38 120.586 125.125 120.809 124.803C121.031 124.48 121.198 124.111 121.31 123.695C121.427 123.273 121.485 122.825 121.485 122.351V122.148C121.485 121.68 121.427 121.237 121.31 120.821C121.198 120.399 121.028 120.027 120.8 119.705C120.577 119.377 120.296 119.119 119.956 118.932C119.622 118.744 119.229 118.65 118.778 118.65C118.333 118.65 117.94 118.744 117.601 118.932C117.267 119.119 116.985 119.377 116.757 119.705C116.534 120.027 116.367 120.399 116.256 120.821C116.145 121.237 116.089 121.68 116.089 122.148ZM126.785 118.984V127H125.159V117.49H126.741L126.785 118.984ZM129.756 117.438L129.747 118.949C129.612 118.92 129.483 118.902 129.36 118.896C129.243 118.885 129.108 118.879 128.956 118.879C128.581 118.879 128.25 118.938 127.963 119.055C127.676 119.172 127.433 119.336 127.233 119.547C127.034 119.758 126.876 120.01 126.759 120.303C126.647 120.59 126.574 120.906 126.539 121.252L126.082 121.516C126.082 120.941 126.138 120.402 126.249 119.898C126.366 119.395 126.545 118.949 126.785 118.562C127.025 118.17 127.33 117.865 127.699 117.648C128.074 117.426 128.52 117.314 129.035 117.314C129.152 117.314 129.287 117.329 129.439 117.358C129.592 117.382 129.697 117.408 129.756 117.438ZM135.029 127.176C134.367 127.176 133.767 127.064 133.228 126.842C132.694 126.613 132.234 126.294 131.848 125.884C131.467 125.474 131.174 124.987 130.969 124.425C130.764 123.862 130.661 123.247 130.661 122.579V122.21C130.661 121.437 130.775 120.748 131.004 120.145C131.232 119.535 131.543 119.02 131.936 118.598C132.328 118.176 132.773 117.856 133.271 117.64C133.77 117.423 134.285 117.314 134.818 117.314C135.498 117.314 136.084 117.432 136.576 117.666C137.074 117.9 137.481 118.229 137.798 118.65C138.114 119.066 138.349 119.559 138.501 120.127C138.653 120.689 138.729 121.305 138.729 121.973V122.702H131.628V121.375H137.104V121.252C137.08 120.83 136.992 120.42 136.84 120.021C136.693 119.623 136.459 119.295 136.137 119.037C135.814 118.779 135.375 118.65 134.818 118.65C134.449 118.65 134.109 118.729 133.799 118.888C133.488 119.04 133.222 119.269 132.999 119.573C132.776 119.878 132.604 120.25 132.48 120.689C132.357 121.129 132.296 121.636 132.296 122.21V122.579C132.296 123.03 132.357 123.455 132.48 123.854C132.609 124.246 132.794 124.592 133.034 124.891C133.28 125.189 133.576 125.424 133.922 125.594C134.273 125.764 134.672 125.849 135.117 125.849C135.691 125.849 136.178 125.731 136.576 125.497C136.975 125.263 137.323 124.949 137.622 124.557L138.606 125.339C138.401 125.649 138.141 125.945 137.824 126.227C137.508 126.508 137.118 126.736 136.655 126.912C136.198 127.088 135.656 127.176 135.029 127.176ZM146.165 124.478C146.165 124.243 146.112 124.026 146.007 123.827C145.907 123.622 145.699 123.438 145.383 123.273C145.072 123.104 144.604 122.957 143.977 122.834C143.449 122.723 142.972 122.591 142.544 122.438C142.122 122.286 141.762 122.102 141.463 121.885C141.17 121.668 140.944 121.413 140.786 121.12C140.628 120.827 140.549 120.484 140.549 120.092C140.549 119.717 140.631 119.362 140.795 119.028C140.965 118.694 141.202 118.398 141.507 118.141C141.817 117.883 142.189 117.681 142.623 117.534C143.057 117.388 143.54 117.314 144.073 117.314C144.835 117.314 145.485 117.449 146.024 117.719C146.563 117.988 146.977 118.349 147.264 118.8C147.551 119.245 147.694 119.74 147.694 120.285H146.068C146.068 120.021 145.989 119.767 145.831 119.521C145.679 119.269 145.453 119.061 145.154 118.896C144.861 118.732 144.501 118.65 144.073 118.65C143.622 118.65 143.256 118.721 142.975 118.861C142.699 118.996 142.497 119.169 142.368 119.38C142.245 119.591 142.184 119.813 142.184 120.048C142.184 120.224 142.213 120.382 142.271 120.522C142.336 120.657 142.447 120.783 142.605 120.9C142.764 121.012 142.986 121.117 143.273 121.217C143.561 121.316 143.927 121.416 144.372 121.516C145.151 121.691 145.793 121.902 146.297 122.148C146.801 122.395 147.176 122.696 147.422 123.054C147.668 123.411 147.791 123.845 147.791 124.354C147.791 124.771 147.703 125.151 147.527 125.497C147.357 125.843 147.108 126.142 146.78 126.394C146.458 126.64 146.071 126.833 145.62 126.974C145.175 127.108 144.674 127.176 144.117 127.176C143.279 127.176 142.57 127.026 141.99 126.728C141.41 126.429 140.971 126.042 140.672 125.567C140.373 125.093 140.224 124.592 140.224 124.064H141.858C141.882 124.51 142.011 124.864 142.245 125.128C142.479 125.386 142.767 125.57 143.106 125.682C143.446 125.787 143.783 125.84 144.117 125.84C144.562 125.84 144.935 125.781 145.233 125.664C145.538 125.547 145.77 125.386 145.928 125.181C146.086 124.976 146.165 124.741 146.165 124.478Z" fill="white"/>
<path fill-rule="evenodd" clip-rule="evenodd" d="M206.375 85.3125H222.969C225.002 85.3125 226.656 83.6587 226.656 81.625V80.7031C226.656 80.1933 226.244 79.7812 225.734 79.7812H224.812V69.6406C224.812 69.1308 224.4 68.7188 223.891 68.7188H205.453C204.943 68.7188 204.531 69.1308 204.531 69.6406V79.7812H203.609C203.1 79.7812 202.688 80.1933 202.688 80.7031V81.625C202.688 83.6587 204.341 85.3125 206.375 85.3125ZM206.375 70.5625H222.969V79.7812H206.375V70.5625ZM224.812 81.625C224.812 82.6418 223.986 83.4687 222.969 83.4687H206.375C205.358 83.4687 204.531 82.6418 204.531 81.625H224.812Z" fill="white"/>
<path fill-rule="evenodd" clip-rule="evenodd" d="M249.703 68.7188H231.266C230.756 68.7188 230.344 69.1308 230.344 69.6406V79.7812H229.422C228.912 79.7812 228.5 80.1933 228.5 80.7031V81.625C228.5 83.6587 230.154 85.3125 232.187 85.3125H248.781C250.815 85.3125 252.469 83.6587 252.469 81.625V80.7031C252.469 80.1933 252.057 79.7812 251.547 79.7812H250.625V69.6406C250.625 69.1308 250.213 68.7188 249.703 68.7188ZM232.187 70.5625H248.781V79.7812H232.187V70.5625ZM248.781 83.4687H232.187C231.171 83.4687 230.344 82.6418 230.344 81.625H250.625C250.625 82.6418 249.798 83.4687 248.781 83.4687Z" fill="white"/>
<path fill-rule="evenodd" clip-rule="evenodd" d="M213.75 60.4219V65.9531C213.75 66.4629 214.162 66.875 214.672 66.875C215.182 66.875 215.594 66.4629 215.594 65.9531V61.3437H239.562V65.9531C239.562 66.4629 239.975 66.875 240.484 66.875C240.994 66.875 241.406 66.4629 241.406 65.9531V60.4219C241.406 59.913 240.994 59.5 240.484 59.5H228.5V54.8906C228.5 54.3818 228.088 53.9688 227.578 53.9688C227.068 53.9688 226.656 54.3818 226.656 54.8906V59.5H214.672C214.162 59.5 213.75 59.913 213.75 60.4219Z" fill="white"/>
<path fill-rule="evenodd" clip-rule="evenodd" d="M232.494 52.125C236.392 52.125 239.562 48.9547 239.562 45.057C239.562 41.1593 236.392 37.989 232.494 37.989C232.056 37.989 231.621 38.0286 231.194 38.1088C230.117 36.502 228.32 35.5312 226.349 35.5312C223.421 35.5312 220.99 37.6977 220.573 40.5112C217.759 40.9279 215.594 43.3589 215.594 46.2868C215.594 49.506 218.213 52.125 221.432 52.125H232.494ZM217.437 46.2868C217.437 44.0844 219.229 42.2923 221.432 42.2923C221.942 42.2923 222.354 41.8793 222.354 41.3704C222.354 39.1671 224.146 37.3759 226.349 37.3759C227.869 37.3759 229.238 38.2204 229.921 39.5801C230.121 39.9784 230.578 40.1784 231.005 40.0494C231.487 39.9065 231.988 39.8346 232.494 39.8346C235.375 39.8346 237.719 42.178 237.719 45.0588C237.719 47.9397 235.375 50.2831 232.494 50.2831H221.432C219.229 50.2812 217.437 48.4891 217.437 46.2868Z" fill="white"/>
<path d="M205.485 114.203H209.722C210.683 114.203 211.494 114.35 212.156 114.643C212.824 114.936 213.331 115.369 213.677 115.943C214.028 116.512 214.204 117.212 214.204 118.044C214.204 118.63 214.084 119.166 213.844 119.652C213.609 120.133 213.27 120.543 212.824 120.883C212.385 121.217 211.857 121.466 211.242 121.63L210.768 121.814H206.786L206.769 120.435H209.774C210.384 120.435 210.891 120.329 211.295 120.118C211.699 119.901 212.004 119.611 212.209 119.248C212.414 118.885 212.517 118.483 212.517 118.044C212.517 117.552 212.42 117.121 212.227 116.752C212.033 116.383 211.729 116.099 211.312 115.899C210.902 115.694 210.372 115.592 209.722 115.592H207.182V127H205.485V114.203ZM212.965 127L209.854 121.199L211.62 121.19L214.775 126.895V127H212.965ZM220.277 127.176C219.615 127.176 219.015 127.064 218.476 126.842C217.942 126.613 217.482 126.294 217.096 125.884C216.715 125.474 216.422 124.987 216.217 124.425C216.012 123.862 215.909 123.247 215.909 122.579V122.21C215.909 121.437 216.023 120.748 216.252 120.145C216.48 119.535 216.791 119.02 217.184 118.598C217.576 118.176 218.021 117.856 218.52 117.64C219.018 117.423 219.533 117.314 220.066 117.314C220.746 117.314 221.332 117.432 221.824 117.666C222.322 117.9 222.729 118.229 223.046 118.65C223.362 119.066 223.597 119.559 223.749 120.127C223.901 120.689 223.978 121.305 223.978 121.973V122.702H216.876V121.375H222.352V121.252C222.328 120.83 222.24 120.42 222.088 120.021C221.941 119.623 221.707 119.295 221.385 119.037C221.062 118.779 220.623 118.65 220.066 118.65C219.697 118.65 219.357 118.729 219.047 118.888C218.736 119.04 218.47 119.269 218.247 119.573C218.024 119.878 217.852 120.25 217.729 120.689C217.605 121.129 217.544 121.636 217.544 122.21V122.579C217.544 123.03 217.605 123.455 217.729 123.854C217.857 124.246 218.042 124.592 218.282 124.891C218.528 125.189 218.824 125.424 219.17 125.594C219.521 125.764 219.92 125.849 220.365 125.849C220.939 125.849 221.426 125.731 221.824 125.497C222.223 125.263 222.571 124.949 222.87 124.557L223.854 125.339C223.649 125.649 223.389 125.945 223.072 126.227C222.756 126.508 222.366 126.736 221.903 126.912C221.446 127.088 220.904 127.176 220.277 127.176ZM231.87 125.154V113.5H233.505V127H232.011L231.87 125.154ZM225.472 122.351V122.166C225.472 121.439 225.56 120.78 225.735 120.188C225.917 119.591 226.172 119.078 226.5 118.65C226.834 118.223 227.229 117.895 227.687 117.666C228.149 117.432 228.665 117.314 229.233 117.314C229.831 117.314 230.353 117.42 230.798 117.631C231.249 117.836 231.63 118.138 231.94 118.536C232.257 118.929 232.506 119.403 232.688 119.96C232.869 120.517 232.995 121.146 233.065 121.85V122.658C233.001 123.355 232.875 123.982 232.688 124.539C232.506 125.096 232.257 125.57 231.94 125.963C231.63 126.355 231.249 126.657 230.798 126.868C230.347 127.073 229.819 127.176 229.216 127.176C228.659 127.176 228.149 127.056 227.687 126.815C227.229 126.575 226.834 126.238 226.5 125.805C226.172 125.371 225.917 124.861 225.735 124.275C225.56 123.684 225.472 123.042 225.472 122.351ZM227.106 122.166V122.351C227.106 122.825 227.153 123.271 227.247 123.687C227.347 124.103 227.499 124.469 227.704 124.785C227.909 125.102 228.17 125.351 228.486 125.532C228.803 125.708 229.181 125.796 229.62 125.796C230.159 125.796 230.602 125.682 230.947 125.453C231.299 125.225 231.58 124.923 231.791 124.548C232.002 124.173 232.166 123.766 232.283 123.326V121.208C232.213 120.886 232.11 120.575 231.976 120.276C231.847 119.972 231.677 119.702 231.466 119.468C231.261 119.228 231.006 119.037 230.701 118.896C230.402 118.756 230.048 118.686 229.638 118.686C229.192 118.686 228.809 118.779 228.486 118.967C228.17 119.148 227.909 119.4 227.704 119.723C227.499 120.039 227.347 120.408 227.247 120.83C227.153 121.246 227.106 121.691 227.106 122.166ZM239.982 127.176C239.32 127.176 238.72 127.064 238.181 126.842C237.647 126.613 237.188 126.294 236.801 125.884C236.42 125.474 236.127 124.987 235.922 124.425C235.717 123.862 235.614 123.247 235.614 122.579V122.21C235.614 121.437 235.729 120.748 235.957 120.145C236.186 119.535 236.496 119.02 236.889 118.598C237.281 118.176 237.727 117.856 238.225 117.64C238.723 117.423 239.238 117.314 239.771 117.314C240.451 117.314 241.037 117.432 241.529 117.666C242.027 117.9 242.435 118.229 242.751 118.65C243.067 119.066 243.302 119.559 243.454 120.127C243.606 120.689 243.683 121.305 243.683 121.973V122.702H236.581V121.375H242.057V121.252C242.033 120.83 241.945 120.42 241.793 120.021C241.646 119.623 241.412 119.295 241.09 119.037C240.768 118.779 240.328 118.65 239.771 118.65C239.402 118.65 239.062 118.729 238.752 118.888C238.441 119.04 238.175 119.269 237.952 119.573C237.729 119.878 237.557 120.25 237.434 120.689C237.311 121.129 237.249 121.636 237.249 122.21V122.579C237.249 123.03 237.311 123.455 237.434 123.854C237.562 124.246 237.747 124.592 237.987 124.891C238.233 125.189 238.529 125.424 238.875 125.594C239.227 125.764 239.625 125.849 240.07 125.849C240.645 125.849 241.131 125.731 241.529 125.497C241.928 125.263 242.276 124.949 242.575 124.557L243.56 125.339C243.354 125.649 243.094 125.945 242.777 126.227C242.461 126.508 242.071 126.736 241.608 126.912C241.151 127.088 240.609 127.176 239.982 127.176ZM251.118 124.478C251.118 124.243 251.065 124.026 250.96 123.827C250.86 123.622 250.652 123.438 250.336 123.273C250.025 123.104 249.557 122.957 248.93 122.834C248.402 122.723 247.925 122.591 247.497 122.438C247.075 122.286 246.715 122.102 246.416 121.885C246.123 121.668 245.897 121.413 245.739 121.12C245.581 120.827 245.502 120.484 245.502 120.092C245.502 119.717 245.584 119.362 245.748 119.028C245.918 118.694 246.155 118.398 246.46 118.141C246.771 117.883 247.143 117.681 247.576 117.534C248.01 117.388 248.493 117.314 249.026 117.314C249.788 117.314 250.438 117.449 250.978 117.719C251.517 117.988 251.93 118.349 252.217 118.8C252.504 119.245 252.647 119.74 252.647 120.285H251.021C251.021 120.021 250.942 119.767 250.784 119.521C250.632 119.269 250.406 119.061 250.107 118.896C249.814 118.732 249.454 118.65 249.026 118.65C248.575 118.65 248.209 118.721 247.928 118.861C247.652 118.996 247.45 119.169 247.321 119.38C247.198 119.591 247.137 119.813 247.137 120.048C247.137 120.224 247.166 120.382 247.225 120.522C247.289 120.657 247.4 120.783 247.559 120.9C247.717 121.012 247.939 121.117 248.227 121.217C248.514 121.316 248.88 121.416 249.325 121.516C250.104 121.691 250.746 121.902 251.25 122.148C251.754 122.395 252.129 122.696 252.375 123.054C252.621 123.411 252.744 123.845 252.744 124.354C252.744 124.771 252.656 125.151 252.48 125.497C252.311 125.843 252.062 126.142 251.733 126.394C251.411 126.64 251.024 126.833 250.573 126.974C250.128 127.108 249.627 127.176 249.07 127.176C248.232 127.176 247.523 127.026 246.943 126.728C246.363 126.429 245.924 126.042 245.625 125.567C245.326 125.093 245.177 124.592 245.177 124.064H246.812C246.835 124.51 246.964 124.864 247.198 125.128C247.433 125.386 247.72 125.57 248.06 125.682C248.399 125.787 248.736 125.84 249.07 125.84C249.516 125.84 249.888 125.781 250.187 125.664C250.491 125.547 250.723 125.386 250.881 125.181C251.039 124.976 251.118 124.741 251.118 124.478Z" fill="white"/>
<g clip-path="url(#clip1_21_5927)">
<path fill-rule="evenodd" clip-rule="evenodd" d="M346.521 32.4583C345.843 32.4583 345.292 33.0086 345.292 33.6875V85.3125C345.292 85.9913 345.843 86.5417 346.521 86.5417H378.48C379.159 86.5417 379.709 85.9913 379.709 85.3125V33.6875C379.709 33.0086 379.159 32.4583 378.48 32.4583H346.521ZM342.834 33.6875C342.834 31.6509 344.485 30 346.521 30H378.48C380.516 30 382.167 31.6509 382.167 33.6875V85.3125C382.167 87.349 380.516 89 378.48 89H346.521C344.485 89 342.834 87.349 342.834 85.3125V33.6875Z" fill="white"/>
<path fill-rule="evenodd" clip-rule="evenodd" d="M380.937 75.4792H344.062V73.0208H380.937V75.4792Z" fill="white"/>
<path fill-rule="evenodd" clip-rule="evenodd" d="M380.937 39.8333H344.062V37.375H380.937V39.8333Z" fill="white"/>
<path d="M363.115 83.4687C364.472 83.4687 365.573 82.3681 365.573 81.0104C365.573 79.6527 364.472 78.5521 363.115 78.5521C361.757 78.5521 360.656 79.6527 360.656 81.0104C360.656 82.3681 361.757 83.4687 363.115 83.4687Z" fill="white"/>
</g>
<path d="M316.306 123.766C316.306 123.467 316.259 123.203 316.165 122.975C316.077 122.74 315.919 122.529 315.69 122.342C315.468 122.154 315.157 121.976 314.759 121.806C314.366 121.636 313.868 121.463 313.265 121.287C312.632 121.1 312.061 120.892 311.551 120.663C311.041 120.429 310.604 120.162 310.241 119.863C309.878 119.564 309.6 119.222 309.406 118.835C309.213 118.448 309.116 118.006 309.116 117.508C309.116 117.01 309.219 116.55 309.424 116.128C309.629 115.706 309.922 115.34 310.303 115.029C310.689 114.713 311.149 114.467 311.683 114.291C312.216 114.115 312.811 114.027 313.467 114.027C314.428 114.027 315.242 114.212 315.91 114.581C316.584 114.944 317.097 115.422 317.448 116.014C317.8 116.6 317.976 117.227 317.976 117.895H316.288C316.288 117.414 316.186 116.989 315.98 116.62C315.775 116.245 315.465 115.952 315.049 115.741C314.633 115.524 314.105 115.416 313.467 115.416C312.863 115.416 312.365 115.507 311.973 115.688C311.58 115.87 311.287 116.116 311.094 116.427C310.906 116.737 310.812 117.092 310.812 117.49C310.812 117.76 310.868 118.006 310.979 118.229C311.097 118.445 311.275 118.647 311.516 118.835C311.762 119.022 312.072 119.195 312.447 119.354C312.828 119.512 313.282 119.664 313.81 119.811C314.536 120.016 315.163 120.244 315.69 120.496C316.218 120.748 316.651 121.032 316.991 121.349C317.337 121.659 317.592 122.014 317.756 122.412C317.926 122.805 318.011 123.25 318.011 123.748C318.011 124.27 317.905 124.741 317.694 125.163C317.483 125.585 317.182 125.945 316.789 126.244C316.396 126.543 315.925 126.774 315.374 126.938C314.829 127.097 314.22 127.176 313.546 127.176C312.954 127.176 312.371 127.094 311.797 126.93C311.229 126.766 310.71 126.52 310.241 126.191C309.778 125.863 309.406 125.459 309.125 124.979C308.85 124.492 308.712 123.93 308.712 123.291H310.399C310.399 123.73 310.484 124.108 310.654 124.425C310.824 124.735 311.056 124.993 311.349 125.198C311.647 125.403 311.984 125.556 312.359 125.655C312.74 125.749 313.136 125.796 313.546 125.796C314.138 125.796 314.639 125.714 315.049 125.55C315.459 125.386 315.77 125.151 315.98 124.847C316.197 124.542 316.306 124.182 316.306 123.766ZM321.544 119.38V127H319.909V117.49H321.456L321.544 119.38ZM321.21 121.885L320.454 121.858C320.46 121.208 320.545 120.607 320.709 120.057C320.873 119.5 321.116 119.017 321.438 118.606C321.761 118.196 322.162 117.88 322.643 117.657C323.123 117.429 323.68 117.314 324.312 117.314C324.758 117.314 325.168 117.379 325.543 117.508C325.918 117.631 326.243 117.827 326.519 118.097C326.794 118.366 327.008 118.712 327.16 119.134C327.312 119.556 327.389 120.065 327.389 120.663V127H325.763V120.742C325.763 120.244 325.678 119.846 325.508 119.547C325.344 119.248 325.109 119.031 324.805 118.896C324.5 118.756 324.143 118.686 323.732 118.686C323.252 118.686 322.851 118.771 322.528 118.94C322.206 119.11 321.948 119.345 321.755 119.644C321.562 119.942 321.421 120.285 321.333 120.672C321.251 121.053 321.21 121.457 321.21 121.885ZM327.371 120.988L326.281 121.322C326.287 120.801 326.372 120.3 326.536 119.819C326.706 119.339 326.949 118.911 327.266 118.536C327.588 118.161 327.983 117.865 328.452 117.648C328.921 117.426 329.457 117.314 330.061 117.314C330.57 117.314 331.021 117.382 331.414 117.517C331.812 117.651 332.146 117.859 332.416 118.141C332.691 118.416 332.899 118.771 333.04 119.204C333.181 119.638 333.251 120.153 333.251 120.751V127H331.616V120.733C331.616 120.2 331.531 119.787 331.361 119.494C331.197 119.195 330.963 118.987 330.658 118.87C330.359 118.747 330.002 118.686 329.586 118.686C329.229 118.686 328.912 118.747 328.637 118.87C328.361 118.993 328.13 119.163 327.942 119.38C327.755 119.591 327.611 119.834 327.512 120.109C327.418 120.385 327.371 120.678 327.371 120.988ZM341.319 125.374V120.479C341.319 120.104 341.243 119.778 341.091 119.503C340.944 119.222 340.722 119.005 340.423 118.853C340.124 118.7 339.755 118.624 339.315 118.624C338.905 118.624 338.545 118.694 338.234 118.835C337.93 118.976 337.689 119.16 337.514 119.389C337.344 119.617 337.259 119.863 337.259 120.127H335.633C335.633 119.787 335.721 119.45 335.896 119.116C336.072 118.782 336.324 118.48 336.652 118.211C336.986 117.936 337.385 117.719 337.848 117.561C338.316 117.396 338.838 117.314 339.412 117.314C340.104 117.314 340.713 117.432 341.24 117.666C341.773 117.9 342.189 118.255 342.488 118.729C342.793 119.198 342.945 119.787 342.945 120.496V124.926C342.945 125.242 342.972 125.579 343.024 125.937C343.083 126.294 343.168 126.602 343.279 126.859V127H341.583C341.501 126.812 341.437 126.563 341.39 126.253C341.343 125.937 341.319 125.644 341.319 125.374ZM341.601 121.234L341.618 122.377H339.975C339.512 122.377 339.099 122.415 338.735 122.491C338.372 122.562 338.067 122.67 337.821 122.816C337.575 122.963 337.388 123.147 337.259 123.37C337.13 123.587 337.065 123.842 337.065 124.135C337.065 124.434 337.133 124.706 337.268 124.952C337.402 125.198 337.604 125.395 337.874 125.541C338.149 125.682 338.486 125.752 338.885 125.752C339.383 125.752 339.822 125.646 340.203 125.436C340.584 125.225 340.886 124.967 341.108 124.662C341.337 124.357 341.46 124.062 341.478 123.774L342.172 124.557C342.131 124.803 342.02 125.075 341.838 125.374C341.656 125.673 341.413 125.96 341.108 126.235C340.81 126.505 340.452 126.73 340.036 126.912C339.626 127.088 339.163 127.176 338.647 127.176C338.003 127.176 337.438 127.05 336.951 126.798C336.471 126.546 336.096 126.209 335.826 125.787C335.562 125.359 335.431 124.882 335.431 124.354C335.431 123.845 335.53 123.396 335.729 123.01C335.929 122.617 336.216 122.292 336.591 122.034C336.966 121.771 337.417 121.571 337.944 121.437C338.472 121.302 339.061 121.234 339.711 121.234H341.601ZM347.129 118.984V127H345.503V117.49H347.085L347.129 118.984ZM350.1 117.438L350.091 118.949C349.956 118.92 349.827 118.902 349.704 118.896C349.587 118.885 349.452 118.879 349.3 118.879C348.925 118.879 348.594 118.938 348.307 119.055C348.02 119.172 347.776 119.336 347.577 119.547C347.378 119.758 347.22 120.01 347.103 120.303C346.991 120.59 346.918 120.906 346.883 121.252L346.426 121.516C346.426 120.941 346.481 120.402 346.593 119.898C346.71 119.395 346.889 118.949 347.129 118.562C347.369 118.17 347.674 117.865 348.043 117.648C348.418 117.426 348.863 117.314 349.379 117.314C349.496 117.314 349.631 117.329 349.783 117.358C349.936 117.382 350.041 117.408 350.1 117.438ZM356.023 117.49V118.738H350.882V117.49H356.023ZM352.622 115.179H354.248V124.645C354.248 124.967 354.298 125.21 354.397 125.374C354.497 125.538 354.626 125.646 354.784 125.699C354.942 125.752 355.112 125.778 355.294 125.778C355.429 125.778 355.569 125.767 355.716 125.743C355.868 125.714 355.982 125.69 356.059 125.673L356.067 127C355.938 127.041 355.769 127.079 355.558 127.114C355.353 127.155 355.104 127.176 354.811 127.176C354.412 127.176 354.046 127.097 353.712 126.938C353.378 126.78 353.111 126.517 352.912 126.147C352.719 125.772 352.622 125.269 352.622 124.636V115.179ZM359.557 119.318V130.656H357.922V117.49H359.416L359.557 119.318ZM365.964 122.166V122.351C365.964 123.042 365.882 123.684 365.718 124.275C365.554 124.861 365.313 125.371 364.997 125.805C364.687 126.238 364.303 126.575 363.846 126.815C363.389 127.056 362.864 127.176 362.272 127.176C361.669 127.176 361.136 127.076 360.673 126.877C360.21 126.678 359.817 126.388 359.495 126.007C359.173 125.626 358.915 125.169 358.722 124.636C358.534 124.103 358.405 123.502 358.335 122.834V121.85C358.405 121.146 358.537 120.517 358.73 119.96C358.924 119.403 359.179 118.929 359.495 118.536C359.817 118.138 360.207 117.836 360.664 117.631C361.121 117.42 361.648 117.314 362.246 117.314C362.844 117.314 363.374 117.432 363.837 117.666C364.3 117.895 364.689 118.223 365.006 118.65C365.322 119.078 365.56 119.591 365.718 120.188C365.882 120.78 365.964 121.439 365.964 122.166ZM364.329 122.351V122.166C364.329 121.691 364.279 121.246 364.18 120.83C364.08 120.408 363.925 120.039 363.714 119.723C363.509 119.4 363.245 119.148 362.923 118.967C362.601 118.779 362.217 118.686 361.771 118.686C361.361 118.686 361.004 118.756 360.699 118.896C360.4 119.037 360.146 119.228 359.935 119.468C359.724 119.702 359.551 119.972 359.416 120.276C359.287 120.575 359.19 120.886 359.126 121.208V123.484C359.243 123.895 359.407 124.281 359.618 124.645C359.829 125.002 360.11 125.292 360.462 125.515C360.813 125.731 361.256 125.84 361.789 125.84C362.229 125.84 362.606 125.749 362.923 125.567C363.245 125.38 363.509 125.125 363.714 124.803C363.925 124.48 364.08 124.111 364.18 123.695C364.279 123.273 364.329 122.825 364.329 122.351ZM369.664 113.5V127H368.038V113.5H369.664ZM369.277 121.885L368.601 121.858C368.606 121.208 368.703 120.607 368.891 120.057C369.078 119.5 369.342 119.017 369.682 118.606C370.021 118.196 370.426 117.88 370.895 117.657C371.369 117.429 371.894 117.314 372.468 117.314C372.937 117.314 373.358 117.379 373.733 117.508C374.108 117.631 374.428 117.83 374.691 118.105C374.961 118.381 375.166 118.738 375.307 119.178C375.447 119.611 375.518 120.142 375.518 120.769V127H373.883V120.751C373.883 120.253 373.81 119.854 373.663 119.556C373.517 119.251 373.303 119.031 373.021 118.896C372.74 118.756 372.395 118.686 371.984 118.686C371.58 118.686 371.211 118.771 370.877 118.94C370.549 119.11 370.265 119.345 370.024 119.644C369.79 119.942 369.605 120.285 369.471 120.672C369.342 121.053 369.277 121.457 369.277 121.885ZM377.521 122.351V122.148C377.521 121.463 377.621 120.827 377.82 120.241C378.02 119.649 378.307 119.137 378.682 118.703C379.057 118.264 379.511 117.924 380.044 117.684C380.577 117.438 381.175 117.314 381.837 117.314C382.505 117.314 383.105 117.438 383.639 117.684C384.178 117.924 384.635 118.264 385.01 118.703C385.391 119.137 385.681 119.649 385.88 120.241C386.079 120.827 386.179 121.463 386.179 122.148V122.351C386.179 123.036 386.079 123.672 385.88 124.258C385.681 124.844 385.391 125.356 385.01 125.796C384.635 126.229 384.181 126.569 383.647 126.815C383.12 127.056 382.522 127.176 381.854 127.176C381.187 127.176 380.586 127.056 380.053 126.815C379.52 126.569 379.062 126.229 378.682 125.796C378.307 125.356 378.02 124.844 377.82 124.258C377.621 123.672 377.521 123.036 377.521 122.351ZM379.147 122.148V122.351C379.147 122.825 379.203 123.273 379.314 123.695C379.426 124.111 379.593 124.48 379.815 124.803C380.044 125.125 380.328 125.38 380.668 125.567C381.008 125.749 381.403 125.84 381.854 125.84C382.3 125.84 382.689 125.749 383.023 125.567C383.363 125.38 383.645 125.125 383.867 124.803C384.09 124.48 384.257 124.111 384.368 123.695C384.485 123.273 384.544 122.825 384.544 122.351V122.148C384.544 121.68 384.485 121.237 384.368 120.821C384.257 120.399 384.087 120.027 383.858 119.705C383.636 119.377 383.354 119.119 383.015 118.932C382.681 118.744 382.288 118.65 381.837 118.65C381.392 118.65 380.999 118.744 380.659 118.932C380.325 119.119 380.044 119.377 379.815 119.705C379.593 120.027 379.426 120.399 379.314 120.821C379.203 121.237 379.147 121.68 379.147 122.148ZM389.844 119.521V127H388.218V117.49H389.756L389.844 119.521ZM389.457 121.885L388.78 121.858C388.786 121.208 388.883 120.607 389.07 120.057C389.258 119.5 389.521 119.017 389.861 118.606C390.201 118.196 390.605 117.88 391.074 117.657C391.549 117.429 392.073 117.314 392.647 117.314C393.116 117.314 393.538 117.379 393.913 117.508C394.288 117.631 394.607 117.83 394.871 118.105C395.141 118.381 395.346 118.738 395.486 119.178C395.627 119.611 395.697 120.142 395.697 120.769V127H394.062V120.751C394.062 120.253 393.989 119.854 393.843 119.556C393.696 119.251 393.482 119.031 393.201 118.896C392.92 118.756 392.574 118.686 392.164 118.686C391.76 118.686 391.391 118.771 391.057 118.94C390.729 119.11 390.444 119.345 390.204 119.644C389.97 119.942 389.785 120.285 389.65 120.672C389.521 121.053 389.457 121.457 389.457 121.885ZM402.113 127.176C401.451 127.176 400.851 127.064 400.312 126.842C399.778 126.613 399.318 126.294 398.932 125.884C398.551 125.474 398.258 124.987 398.053 124.425C397.848 123.862 397.745 123.247 397.745 122.579V122.21C397.745 121.437 397.859 120.748 398.088 120.145C398.316 119.535 398.627 119.02 399.02 118.598C399.412 118.176 399.857 117.856 400.355 117.64C400.854 117.423 401.369 117.314 401.902 117.314C402.582 117.314 403.168 117.432 403.66 117.666C404.158 117.9 404.565 118.229 404.882 118.65C405.198 119.066 405.433 119.559 405.585 120.127C405.737 120.689 405.813 121.305 405.813 121.973V122.702H398.712V121.375H404.188V121.252C404.164 120.83 404.076 120.42 403.924 120.021C403.777 119.623 403.543 119.295 403.221 119.037C402.898 118.779 402.459 118.65 401.902 118.65C401.533 118.65 401.193 118.729 400.883 118.888C400.572 119.04 400.306 119.269 400.083 119.573C399.86 119.878 399.688 120.25 399.564 120.689C399.441 121.129 399.38 121.636 399.38 122.21V122.579C399.38 123.03 399.441 123.455 399.564 123.854C399.693 124.246 399.878 124.592 400.118 124.891C400.364 125.189 400.66 125.424 401.006 125.594C401.357 125.764 401.756 125.849 402.201 125.849C402.775 125.849 403.262 125.731 403.66 125.497C404.059 125.263 404.407 124.949 404.706 124.557L405.69 125.339C405.485 125.649 405.225 125.945 404.908 126.227C404.592 126.508 404.202 126.736 403.739 126.912C403.282 127.088 402.74 127.176 402.113 127.176ZM413.249 124.478C413.249 124.243 413.196 124.026 413.091 123.827C412.991 123.622 412.783 123.438 412.467 123.273C412.156 123.104 411.688 122.957 411.061 122.834C410.533 122.723 410.056 122.591 409.628 122.438C409.206 122.286 408.846 122.102 408.547 121.885C408.254 121.668 408.028 121.413 407.87 121.12C407.712 120.827 407.633 120.484 407.633 120.092C407.633 119.717 407.715 119.362 407.879 119.028C408.049 118.694 408.286 118.398 408.591 118.141C408.901 117.883 409.273 117.681 409.707 117.534C410.141 117.388 410.624 117.314 411.157 117.314C411.919 117.314 412.569 117.449 413.108 117.719C413.647 117.988 414.061 118.349 414.348 118.8C414.635 119.245 414.778 119.74 414.778 120.285H413.152C413.152 120.021 413.073 119.767 412.915 119.521C412.763 119.269 412.537 119.061 412.238 118.896C411.945 118.732 411.585 118.65 411.157 118.65C410.706 118.65 410.34 118.721 410.059 118.861C409.783 118.996 409.581 119.169 409.452 119.38C409.329 119.591 409.268 119.813 409.268 120.048C409.268 120.224 409.297 120.382 409.355 120.522C409.42 120.657 409.531 120.783 409.689 120.9C409.848 121.012 410.07 121.117 410.357 121.217C410.645 121.316 411.011 121.416 411.456 121.516C412.235 121.691 412.877 121.902 413.381 122.148C413.885 122.395 414.26 122.696 414.506 123.054C414.752 123.411 414.875 123.845 414.875 124.354C414.875 124.771 414.787 125.151 414.611 125.497C414.441 125.843 414.192 126.142 413.864 126.394C413.542 126.64 413.155 126.833 412.704 126.974C412.259 127.108 411.758 127.176 411.201 127.176C410.363 127.176 409.654 127.026 409.074 126.728C408.494 126.429 408.055 126.042 407.756 125.567C407.457 125.093 407.308 124.592 407.308 124.064H408.942C408.966 124.51 409.095 124.864 409.329 125.128C409.563 125.386 409.851 125.57 410.19 125.682C410.53 125.787 410.867 125.84 411.201 125.84C411.646 125.84 412.019 125.781 412.317 125.664C412.622 125.547 412.854 125.386 413.012 125.181C413.17 124.976 413.249 124.741 413.249 124.478Z" fill="white"/>
<path d="M523.469 59.5C523.469 57.1031 521.625 55.1672 519.32 54.8906C518.767 51.9406 517.569 49.2672 515.909 46.6859C517.384 44.8422 517.384 42.1687 515.633 40.5094C514.803 39.6797 513.605 39.2187 512.406 39.2187C511.3 39.2187 510.286 39.5875 509.456 40.325C506.967 38.6656 504.202 37.5594 501.252 36.9141C501.067 34.6094 499.131 32.7656 496.734 32.7656C494.337 32.7656 492.402 34.6094 492.125 36.9141C489.175 37.4672 486.502 38.6656 483.92 40.325C482.077 38.85 479.403 38.85 477.744 40.6016C476.084 42.2609 475.992 45.0266 477.467 46.7781C475.808 49.2672 474.702 52.0328 474.056 54.9828C471.844 55.1672 470 57.1031 470 59.5C470 61.8969 471.844 63.8328 474.148 64.1094C474.702 67.0594 475.9 69.7328 477.559 72.3141C476.084 74.1578 476.084 76.8312 477.836 78.4906C478.758 79.4125 479.956 79.8734 481.062 79.8734C482.077 79.8734 483.183 79.5047 484.013 78.7672C486.502 80.4266 489.267 81.5328 492.217 82.1781C492.494 84.4828 494.43 86.3266 496.827 86.3266C499.223 86.3266 501.159 84.4828 501.436 82.1781C504.386 81.625 507.059 80.4266 509.641 78.7672C510.47 79.5047 511.484 79.8734 512.591 79.8734C513.789 79.8734 514.987 79.4125 515.817 78.4906C517.477 76.8312 517.569 74.0656 516.094 72.3141C517.753 69.825 518.859 67.0594 519.505 64.1094C521.625 63.8328 523.469 61.8969 523.469 59.5ZM512.406 70.5625C511.484 70.5625 510.655 70.8391 509.825 71.3L507.797 69.2719C509.917 66.875 511.208 63.8328 511.484 60.4219H514.434C514.803 62.0812 516.002 63.3719 517.569 63.8328C517.016 66.4141 516.002 68.8109 514.619 71.0234C513.881 70.7469 513.144 70.5625 512.406 70.5625ZM497.656 77.1078V74.1578C501.067 73.9734 504.109 72.5906 506.506 70.4703L508.627 72.5906C507.705 73.9734 507.612 75.725 508.35 77.2C506.137 78.675 503.741 79.6891 501.159 80.15C500.606 78.675 499.316 77.4766 497.656 77.1078ZM492.402 80.2422C489.82 79.6891 487.423 78.675 485.211 77.2922C485.948 75.8172 485.856 74.0656 484.934 72.6828L487.055 70.5625C489.452 72.6828 492.494 73.9734 495.905 74.25V77.2C494.153 77.4766 492.862 78.675 492.402 80.2422ZM478.942 71.1156C477.467 68.9031 476.453 66.5062 475.992 63.925C477.559 63.4641 478.758 62.0812 479.127 60.5141H482.077C482.261 63.925 483.644 66.9672 485.764 69.3641L483.644 71.4844C482.261 70.3781 480.417 70.3781 478.942 71.1156ZM481.062 48.4375C481.984 48.4375 482.814 48.1609 483.644 47.7L485.764 49.8203C483.644 52.2172 482.353 55.2594 482.077 58.6703H479.127C478.758 57.0109 477.559 55.7203 475.992 55.2594C476.545 52.6781 477.559 50.2812 478.942 48.0687C479.68 48.2531 480.325 48.4375 481.062 48.4375ZM495.812 41.8922V44.8422C492.402 45.0266 489.359 46.4094 486.962 48.5297L484.842 46.4094C485.764 45.0266 485.856 43.275 485.119 41.8C487.331 40.325 489.728 39.3109 492.309 38.85C492.862 40.325 494.153 41.5234 495.812 41.8922ZM501.067 38.7578C503.648 39.3109 506.045 40.325 508.258 41.7078C507.52 43.1828 507.612 44.9344 508.534 46.3172L506.506 48.4375C504.109 46.3172 501.067 45.0266 497.656 44.75V41.8C499.316 41.5234 500.606 40.325 501.067 38.7578ZM514.527 47.8844C516.002 50.0969 517.016 52.4937 517.477 55.075C515.909 55.5359 514.711 56.9187 514.342 58.4859H511.392C511.208 55.075 509.825 52.0328 507.705 49.6359L509.825 47.5156C510.655 48.1609 511.484 48.4375 512.406 48.4375C513.144 48.4375 513.881 48.2531 514.527 47.8844ZM496.734 72.4062C495.72 72.4062 494.43 70.1937 493.692 66.3219C494.706 66.0453 495.72 65.9531 496.734 65.9531C497.748 65.9531 498.762 66.1375 499.777 66.3219C499.039 70.1937 497.748 72.4062 496.734 72.4062ZM496.734 64.1094C495.628 64.1094 494.43 64.2937 493.416 64.4781C493.231 63.2797 493.139 61.8969 493.139 60.4219H500.514C500.514 61.8969 500.33 63.2797 500.237 64.4781C499.039 64.2937 497.841 64.1094 496.734 64.1094ZM493.047 58.5781C493.047 57.1031 493.231 55.7203 493.323 54.5219C494.43 54.7984 495.536 54.8906 496.642 54.8906C497.748 54.8906 498.947 54.7062 499.961 54.5219C500.145 55.7203 500.237 57.1031 500.237 58.5781H493.047ZM496.734 53.0469C495.72 53.0469 494.706 52.8625 493.692 52.6781C494.43 48.8062 495.72 46.5937 496.734 46.5937C497.748 46.5937 499.039 48.8062 499.777 52.6781C498.762 52.8625 497.748 53.0469 496.734 53.0469ZM499.777 46.9625C501.805 47.4234 503.648 48.4375 505.216 49.8203C504.109 50.8344 502.911 51.5719 501.528 52.125C501.159 50.0969 500.606 48.2531 499.777 46.9625ZM491.941 52.125C490.65 51.5719 489.359 50.8344 488.253 49.8203C489.82 48.4375 491.664 47.5156 493.692 46.9625C492.862 48.2531 492.309 50.0969 491.941 52.125ZM486.962 51.1109C488.345 52.3094 489.912 53.3234 491.572 53.9687C491.387 55.4437 491.203 57.0109 491.203 58.5781H483.828C484.105 55.7203 485.211 53.1391 486.962 51.1109ZM491.203 60.4219C491.203 61.9891 491.387 63.5562 491.572 65.0312C489.912 65.6766 488.345 66.5984 486.962 67.8891C485.211 65.8609 484.105 63.2797 483.92 60.4219H491.203ZM491.941 66.875C492.309 68.9031 492.955 70.7469 493.692 72.0375C491.664 71.5766 489.82 70.5625 488.253 69.1797C489.359 68.1656 490.558 67.4281 491.941 66.875ZM501.528 66.875C502.819 67.4281 504.109 68.1656 505.216 69.1797C503.648 70.5625 501.805 71.4844 499.777 72.0375C500.606 70.7469 501.159 68.9031 501.528 66.875ZM506.506 67.8891C505.123 66.6906 503.556 65.6766 501.897 65.0312C502.081 63.5562 502.266 61.9891 502.266 60.4219H509.641C509.364 63.2797 508.258 65.8609 506.506 67.8891ZM502.266 58.5781C502.266 57.0109 502.081 55.4437 501.897 53.9687C503.556 53.3234 505.123 52.4016 506.506 51.1109C508.258 53.1391 509.364 55.7203 509.548 58.5781H502.266ZM521.625 59.5C521.625 61.0672 520.427 62.2656 518.859 62.2656C517.292 62.2656 516.094 61.0672 516.094 59.5C516.094 57.9328 517.292 56.7344 518.859 56.7344C520.427 56.7344 521.625 57.9328 521.625 59.5ZM514.342 41.8922C514.895 42.4453 515.172 43.0906 515.172 43.8281C515.172 44.5656 514.895 45.3031 514.342 45.7641C513.328 46.7781 511.484 46.7781 510.47 45.7641C509.917 45.3031 509.641 44.5656 509.641 43.8281C509.641 43.0906 509.917 42.3531 510.47 41.8922C511.023 41.3391 511.669 41.0625 512.406 41.0625C513.144 41.0625 513.881 41.3391 514.342 41.8922ZM496.734 34.6094C498.302 34.6094 499.5 35.8078 499.5 37.375C499.5 38.9422 498.302 40.1406 496.734 40.1406C495.167 40.1406 493.969 38.9422 493.969 37.375C493.969 35.8078 495.167 34.6094 496.734 34.6094ZM479.127 41.8922C479.68 41.3391 480.417 41.0625 481.062 41.0625C481.8 41.0625 482.445 41.3391 482.998 41.8922C484.105 42.9984 484.105 44.75 482.998 45.7641C481.892 46.8703 480.141 46.8703 479.127 45.7641C478.02 44.75 478.02 42.9062 479.127 41.8922ZM471.844 59.5C471.844 57.9328 473.042 56.7344 474.609 56.7344C476.177 56.7344 477.375 57.9328 477.375 59.5C477.375 61.0672 476.177 62.2656 474.609 62.2656C473.042 62.2656 471.844 61.0672 471.844 59.5ZM479.127 77.1078C478.02 76.0016 478.02 74.25 479.127 73.2359C480.233 72.1297 481.984 72.1297 482.998 73.2359C484.105 74.3422 484.105 76.0937 482.998 77.1078C481.984 78.2141 480.141 78.2141 479.127 77.1078ZM496.734 84.3906C495.167 84.3906 493.969 83.1922 493.969 81.625C493.969 80.0578 495.167 78.8594 496.734 78.8594C498.302 78.8594 499.5 80.0578 499.5 81.625C499.5 83.1922 498.302 84.3906 496.734 84.3906ZM514.342 77.1078C513.328 78.1219 511.484 78.1219 510.47 77.1078C509.917 76.6469 509.641 75.9094 509.641 75.1719C509.641 74.4344 509.917 73.6969 510.47 73.2359C511.023 72.6828 511.669 72.4062 512.406 72.4062C513.144 72.4062 513.881 72.6828 514.342 73.2359C514.895 73.7891 515.172 74.4344 515.172 75.1719C515.172 75.9094 514.895 76.6469 514.342 77.1078Z" fill="white"/>
<path d="M469.305 114.203V127H467.608V114.203H469.305ZM473.77 119.521V127H472.144V117.49H473.682L473.77 119.521ZM473.383 121.885L472.706 121.858C472.712 121.208 472.809 120.607 472.996 120.057C473.184 119.5 473.447 119.017 473.787 118.606C474.127 118.196 474.531 117.88 475 117.657C475.475 117.429 475.999 117.314 476.573 117.314C477.042 117.314 477.464 117.379 477.839 117.508C478.214 117.631 478.533 117.83 478.797 118.105C479.066 118.381 479.271 118.738 479.412 119.178C479.553 119.611 479.623 120.142 479.623 120.769V127H477.988V120.751C477.988 120.253 477.915 119.854 477.769 119.556C477.622 119.251 477.408 119.031 477.127 118.896C476.846 118.756 476.5 118.686 476.09 118.686C475.686 118.686 475.316 118.771 474.982 118.94C474.654 119.11 474.37 119.345 474.13 119.644C473.896 119.942 473.711 120.285 473.576 120.672C473.447 121.053 473.383 121.457 473.383 121.885ZM486.074 117.49V118.738H480.933V117.49H486.074ZM482.673 115.179H484.299V124.645C484.299 124.967 484.349 125.21 484.448 125.374C484.548 125.538 484.677 125.646 484.835 125.699C484.993 125.752 485.163 125.778 485.345 125.778C485.479 125.778 485.62 125.767 485.767 125.743C485.919 125.714 486.033 125.69 486.109 125.673L486.118 127C485.989 127.041 485.819 127.079 485.608 127.114C485.403 127.155 485.154 127.176 484.861 127.176C484.463 127.176 484.097 127.097 483.763 126.938C483.429 126.78 483.162 126.517 482.963 126.147C482.77 125.772 482.673 125.269 482.673 124.636V115.179ZM491.928 127.176C491.266 127.176 490.665 127.064 490.126 126.842C489.593 126.613 489.133 126.294 488.746 125.884C488.365 125.474 488.072 124.987 487.867 124.425C487.662 123.862 487.56 123.247 487.56 122.579V122.21C487.56 121.437 487.674 120.748 487.902 120.145C488.131 119.535 488.441 119.02 488.834 118.598C489.227 118.176 489.672 117.856 490.17 117.64C490.668 117.423 491.184 117.314 491.717 117.314C492.396 117.314 492.982 117.432 493.475 117.666C493.973 117.9 494.38 118.229 494.696 118.65C495.013 119.066 495.247 119.559 495.399 120.127C495.552 120.689 495.628 121.305 495.628 121.973V122.702H488.526V121.375H494.002V121.252C493.979 120.83 493.891 120.42 493.738 120.021C493.592 119.623 493.357 119.295 493.035 119.037C492.713 118.779 492.273 118.65 491.717 118.65C491.348 118.65 491.008 118.729 490.697 118.888C490.387 119.04 490.12 119.269 489.897 119.573C489.675 119.878 489.502 120.25 489.379 120.689C489.256 121.129 489.194 121.636 489.194 122.21V122.579C489.194 123.03 489.256 123.455 489.379 123.854C489.508 124.246 489.692 124.592 489.933 124.891C490.179 125.189 490.475 125.424 490.82 125.594C491.172 125.764 491.57 125.849 492.016 125.849C492.59 125.849 493.076 125.731 493.475 125.497C493.873 125.263 494.222 124.949 494.521 124.557L495.505 125.339C495.3 125.649 495.039 125.945 494.723 126.227C494.406 126.508 494.017 126.736 493.554 126.912C493.097 127.088 492.555 127.176 491.928 127.176ZM499.152 118.984V127H497.526V117.49H499.108L499.152 118.984ZM502.123 117.438L502.114 118.949C501.979 118.92 501.851 118.902 501.728 118.896C501.61 118.885 501.476 118.879 501.323 118.879C500.948 118.879 500.617 118.938 500.33 119.055C500.043 119.172 499.8 119.336 499.601 119.547C499.401 119.758 499.243 120.01 499.126 120.303C499.015 120.59 498.941 120.906 498.906 121.252L498.449 121.516C498.449 120.941 498.505 120.402 498.616 119.898C498.733 119.395 498.912 118.949 499.152 118.562C499.393 118.17 499.697 117.865 500.066 117.648C500.441 117.426 500.887 117.314 501.402 117.314C501.52 117.314 501.654 117.329 501.807 117.358C501.959 117.382 502.064 117.408 502.123 117.438ZM505.252 119.521V127H503.626V117.49H505.164L505.252 119.521ZM504.865 121.885L504.188 121.858C504.194 121.208 504.291 120.607 504.479 120.057C504.666 119.5 504.93 119.017 505.27 118.606C505.609 118.196 506.014 117.88 506.482 117.657C506.957 117.429 507.481 117.314 508.056 117.314C508.524 117.314 508.946 117.379 509.321 117.508C509.696 117.631 510.016 117.83 510.279 118.105C510.549 118.381 510.754 118.738 510.895 119.178C511.035 119.611 511.105 120.142 511.105 120.769V127H509.471V120.751C509.471 120.253 509.397 119.854 509.251 119.556C509.104 119.251 508.891 119.031 508.609 118.896C508.328 118.756 507.982 118.686 507.572 118.686C507.168 118.686 506.799 118.771 506.465 118.94C506.137 119.11 505.853 119.345 505.612 119.644C505.378 119.942 505.193 120.285 505.059 120.672C504.93 121.053 504.865 121.457 504.865 121.885ZM517.521 127.176C516.859 127.176 516.259 127.064 515.72 126.842C515.187 126.613 514.727 126.294 514.34 125.884C513.959 125.474 513.666 124.987 513.461 124.425C513.256 123.862 513.153 123.247 513.153 122.579V122.21C513.153 121.437 513.268 120.748 513.496 120.145C513.725 119.535 514.035 119.02 514.428 118.598C514.82 118.176 515.266 117.856 515.764 117.64C516.262 117.423 516.777 117.314 517.311 117.314C517.99 117.314 518.576 117.432 519.068 117.666C519.566 117.9 519.974 118.229 520.29 118.65C520.606 119.066 520.841 119.559 520.993 120.127C521.146 120.689 521.222 121.305 521.222 121.973V122.702H514.12V121.375H519.596V121.252C519.572 120.83 519.484 120.42 519.332 120.021C519.186 119.623 518.951 119.295 518.629 119.037C518.307 118.779 517.867 118.65 517.311 118.65C516.941 118.65 516.602 118.729 516.291 118.888C515.98 119.04 515.714 119.269 515.491 119.573C515.269 119.878 515.096 120.25 514.973 120.689C514.85 121.129 514.788 121.636 514.788 122.21V122.579C514.788 123.03 514.85 123.455 514.973 123.854C515.102 124.246 515.286 124.592 515.526 124.891C515.772 125.189 516.068 125.424 516.414 125.594C516.766 125.764 517.164 125.849 517.609 125.849C518.184 125.849 518.67 125.731 519.068 125.497C519.467 125.263 519.815 124.949 520.114 124.557L521.099 125.339C520.894 125.649 520.633 125.945 520.316 126.227C520 126.508 519.61 126.736 519.147 126.912C518.69 127.088 518.148 127.176 517.521 127.176ZM527.102 117.49V118.738H521.96V117.49H527.102ZM523.7 115.179H525.326V124.645C525.326 124.967 525.376 125.21 525.476 125.374C525.575 125.538 525.704 125.646 525.862 125.699C526.021 125.752 526.19 125.778 526.372 125.778C526.507 125.778 526.647 125.767 526.794 125.743C526.946 125.714 527.061 125.69 527.137 125.673L527.146 127C527.017 127.041 526.847 127.079 526.636 127.114C526.431 127.155 526.182 127.176 525.889 127.176C525.49 127.176 525.124 127.097 524.79 126.938C524.456 126.78 524.189 126.517 523.99 126.147C523.797 125.772 523.7 125.269 523.7 124.636V115.179Z" fill="white"/>
<g clip-path="url(#clip2_21_5927)">
<path fill-rule="evenodd" clip-rule="evenodd" d="M648.384 40.6742H665.586C666.235 40.6742 666.762 41.2003 666.762 41.8495V53.7603C666.762 54.4094 666.235 54.9356 665.586 54.9356H653.748V57.6425C653.748 58.1179 653.461 58.5464 653.022 58.7283C652.877 58.7885 652.724 58.8179 652.573 58.8179C652.267 58.8179 651.966 58.6985 651.741 58.4737L648.204 54.9357H645.205C644.556 54.9357 644.03 54.4096 644.03 53.7604V51.7464H643.04L638.199 56.588C637.974 56.8127 637.673 56.9322 637.367 56.9322C637.216 56.9322 637.063 56.9029 636.918 56.8426C636.479 56.6607 636.192 56.2321 636.192 55.7568V51.7463H619.984C619.334 51.7463 618.808 51.2201 618.808 50.571V34.6601C618.808 34.011 619.334 33.4848 619.984 33.4848H647.209C647.858 33.4848 648.384 34.011 648.384 34.6601V40.6742ZM642.554 49.3956H646.034V35.8354H621.159V49.3957H637.368C638.017 49.3957 638.543 49.9219 638.543 50.571V52.9193L641.722 49.7399C641.943 49.5196 642.242 49.3957 642.554 49.3957V49.3956ZM652.572 52.5852H664.411V43.0248H648.384V50.5711C648.384 51.2202 647.858 51.7464 647.209 51.7464H646.381V52.5852H648.69C649.002 52.5852 649.301 52.709 649.522 52.9294L651.397 54.8052V53.7604C651.397 53.1113 651.923 52.5852 652.572 52.5852ZM651.452 44.821H661.357C662.006 44.821 662.532 45.3472 662.532 45.9963C662.532 46.6454 662.006 47.1716 661.357 47.1716H651.452C650.803 47.1716 650.276 46.6454 650.276 45.9963C650.276 45.3472 650.803 44.821 651.452 44.821ZM661.357 48.3502H651.452C650.803 48.3502 650.276 48.8763 650.276 49.5255C650.276 50.1746 650.803 50.7007 651.452 50.7007H661.357C662.006 50.7007 662.532 50.1746 662.532 49.5255C662.532 48.8763 662.006 48.3502 661.357 48.3502ZM631.038 56.9387C632.258 56.9387 633.436 57.4493 634.271 58.3396C635.105 59.2299 635.537 60.4389 635.458 61.6562L635.369 63.0172V63.0174L635.014 68.4647C634.892 70.3433 633.834 72.0067 632.184 72.9139C631.356 73.3691 630.448 73.5968 629.54 73.5968C628.632 73.5968 627.725 73.3692 626.897 72.9139C625.247 72.0067 624.189 70.3434 624.067 68.4647L623.756 63.6976L623.623 61.6562C623.543 60.4388 623.976 59.2299 624.81 58.3396C625.645 57.4495 626.823 56.9387 628.043 56.9387H631.038ZM626.526 59.9467C626.128 60.3708 625.931 60.9235 625.968 61.5032L626.022 62.3275C628.717 61.9067 629.69 60.6797 629.845 60.4586L630.283 59.2893H628.043C627.462 59.2893 626.923 59.5228 626.526 59.9467ZM631.051 70.8544C631.994 70.3358 632.598 69.3853 632.668 68.3117L632.96 63.8461C632.226 63.6485 631.678 63.4547 631.3 63.2591C631.085 63.1482 630.891 63.0296 630.719 62.9036C629.838 63.6083 628.406 64.3746 626.176 64.6815L626.412 68.3117C626.482 69.3853 627.087 70.3358 628.03 70.8544C628.976 71.3746 630.105 71.3746 631.051 70.8544ZM632.141 61.0308C632.199 61.0705 632.276 61.1177 632.379 61.1708C632.489 61.2277 632.705 61.3209 633.115 61.4464C633.137 60.8874 632.939 60.3568 632.555 59.9467C632.553 59.9447 632.551 59.943 632.549 59.9411L632.141 61.0308ZM643.062 84.1304L642.566 81.3921C641.958 78.0393 639.302 75.3634 635.956 74.7333C635.451 74.6381 634.934 74.5899 634.421 74.5899H632.927C632.615 74.5899 632.316 74.7138 632.096 74.9341L629.54 77.4893L626.985 74.934C626.765 74.7137 626.466 74.5898 626.154 74.5898H624.66C624.146 74.5898 623.63 74.6381 623.125 74.7331C619.779 75.3631 617.122 78.039 616.515 81.392L616.019 84.1304C615.957 84.4732 616.05 84.8259 616.273 85.0932C616.497 85.3605 616.827 85.5151 617.175 85.5151H641.905C642.254 85.5151 642.584 85.3605 642.808 85.0932C643.031 84.8259 643.124 84.4731 643.062 84.1304ZM618.582 83.1649V83.1647L618.828 81.8112C619.263 79.4104 621.164 77.4944 623.559 77.0435C623.922 76.9753 624.292 76.9407 624.66 76.9407H625.667L628.709 79.9828C628.93 80.2031 629.229 80.327 629.54 80.327C629.852 80.327 630.151 80.2031 630.371 79.9828L633.413 76.9407H634.421C634.789 76.9407 635.159 76.9753 635.521 77.0435C637.916 77.4944 639.818 79.4105 640.253 81.8112L640.498 83.1649H618.582ZM662.957 56.9387C664.177 56.9387 665.356 57.4493 666.19 58.3395C667.024 59.2298 667.457 60.4388 667.377 61.6562L667.289 63.0174L666.934 68.4647C666.811 70.3433 665.753 72.0067 664.103 72.9139C663.276 73.3691 662.368 73.5968 661.46 73.5968C660.552 73.5968 659.644 73.3692 658.816 72.9139C657.167 72.0067 656.109 70.3434 655.986 68.4647L655.675 63.6976L655.542 61.6562C655.463 60.4389 655.895 59.2301 656.73 58.3396C657.564 57.4495 658.742 56.9387 659.962 56.9387H662.957ZM658.445 59.9467C658.048 60.3708 657.85 60.9235 657.888 61.5032L657.941 62.3275C660.636 61.9067 661.609 60.6797 661.764 60.4586L662.202 59.2893H659.962C659.381 59.2893 658.842 59.5228 658.445 59.9467ZM662.97 70.8544C663.913 70.3358 664.518 69.3853 664.587 68.3117L664.879 63.8461C664.145 63.6484 663.598 63.4546 663.219 63.2591C663.004 63.1482 662.81 63.0296 662.638 62.9036C661.757 63.6083 660.325 64.3746 658.095 64.6815L658.332 68.3117C658.402 69.3853 659.006 70.3358 659.949 70.8544C660.895 71.3746 662.024 71.3746 662.97 70.8544ZM664.06 61.0308C664.118 61.0705 664.195 61.1177 664.298 61.1708C664.408 61.2277 664.624 61.3209 665.035 61.4464C665.056 60.8874 664.858 60.3568 664.474 59.9466L664.472 59.9442L664.468 59.9411L664.06 61.0308ZM674.981 84.1304L674.485 81.392C673.878 78.0392 671.222 75.3633 667.876 74.7333C667.37 74.6381 666.854 74.5899 666.34 74.5899H664.846C664.534 74.5899 664.235 74.7138 664.015 74.9341L661.46 77.4893L658.905 74.9341C658.684 74.7138 658.385 74.5899 658.074 74.5899H656.58C656.066 74.5899 655.549 74.6382 655.044 74.7333C651.698 75.3633 649.042 78.0391 648.435 81.3921L647.938 84.1305C647.876 84.4734 647.97 84.826 648.193 85.0933C648.416 85.3607 648.747 85.5152 649.095 85.5152H673.825C674.173 85.5152 674.503 85.3607 674.727 85.0933C674.95 84.8259 675.043 84.4732 674.981 84.1304ZM650.502 83.1649V83.1647L650.747 81.8112C651.182 79.4104 653.084 77.4944 655.479 77.0435C655.841 76.9753 656.212 76.9407 656.58 76.9407H657.587L660.629 79.9828C660.849 80.2031 661.148 80.327 661.46 80.327C661.772 80.327 662.07 80.2031 662.291 79.9828L665.333 76.9407H666.34C666.708 76.9407 667.079 76.9753 667.441 77.0435C669.836 77.4944 671.738 79.4105 672.173 81.8112L672.418 83.1649H650.502ZM641.552 39.0241H642.259C642.908 39.0241 643.434 39.5503 643.434 40.1994C643.434 40.8485 642.908 41.3747 642.259 41.3747H641.552C640.903 41.3747 640.376 40.8485 640.376 40.1994C640.376 39.5503 640.903 39.0241 641.552 39.0241ZM637.427 39.0241H624.934C624.284 39.0241 623.758 39.5503 623.758 40.1994C623.758 40.8485 624.284 41.3747 624.934 41.3747H637.427C638.076 41.3747 638.602 40.8485 638.602 40.1994C638.602 39.5503 638.076 39.0241 637.427 39.0241ZM624.934 43.7385H642.259C642.908 43.7385 643.434 44.2647 643.434 44.9138C643.434 45.5629 642.908 46.089 642.259 46.089H624.934C624.284 46.089 623.758 45.5629 623.758 44.9138C623.758 44.2647 624.284 43.7385 624.934 43.7385Z" fill="white"/>
</g>
<path d="M584.205 121.981H580.786V120.602H584.205C584.867 120.602 585.403 120.496 585.813 120.285C586.224 120.074 586.522 119.781 586.71 119.406C586.903 119.031 587 118.604 587 118.123C587 117.684 586.903 117.271 586.71 116.884C586.522 116.497 586.224 116.187 585.813 115.952C585.403 115.712 584.867 115.592 584.205 115.592H581.182V127H579.485V114.203H584.205C585.172 114.203 585.989 114.37 586.657 114.704C587.325 115.038 587.832 115.501 588.178 116.093C588.523 116.679 588.696 117.35 588.696 118.105C588.696 118.926 588.523 119.626 588.178 120.206C587.832 120.786 587.325 121.229 586.657 121.533C585.989 121.832 585.172 121.981 584.205 121.981ZM592.221 118.984V127H590.595V117.49H592.177L592.221 118.984ZM595.191 117.438L595.183 118.949C595.048 118.92 594.919 118.902 594.796 118.896C594.679 118.885 594.544 118.879 594.392 118.879C594.017 118.879 593.686 118.938 593.398 119.055C593.111 119.172 592.868 119.336 592.669 119.547C592.47 119.758 592.312 120.01 592.194 120.303C592.083 120.59 592.01 120.906 591.975 121.252L591.518 121.516C591.518 120.941 591.573 120.402 591.685 119.898C591.802 119.395 591.98 118.949 592.221 118.562C592.461 118.17 592.766 117.865 593.135 117.648C593.51 117.426 593.955 117.314 594.471 117.314C594.588 117.314 594.723 117.329 594.875 117.358C595.027 117.382 595.133 117.408 595.191 117.438ZM600.465 127.176C599.803 127.176 599.202 127.064 598.663 126.842C598.13 126.613 597.67 126.294 597.283 125.884C596.902 125.474 596.609 124.987 596.404 124.425C596.199 123.862 596.097 123.247 596.097 122.579V122.21C596.097 121.437 596.211 120.748 596.439 120.145C596.668 119.535 596.979 119.02 597.371 118.598C597.764 118.176 598.209 117.856 598.707 117.64C599.205 117.423 599.721 117.314 600.254 117.314C600.934 117.314 601.52 117.432 602.012 117.666C602.51 117.9 602.917 118.229 603.233 118.65C603.55 119.066 603.784 119.559 603.937 120.127C604.089 120.689 604.165 121.305 604.165 121.973V122.702H597.063V121.375H602.539V121.252C602.516 120.83 602.428 120.42 602.275 120.021C602.129 119.623 601.895 119.295 601.572 119.037C601.25 118.779 600.811 118.65 600.254 118.65C599.885 118.65 599.545 118.729 599.234 118.888C598.924 119.04 598.657 119.269 598.435 119.573C598.212 119.878 598.039 120.25 597.916 120.689C597.793 121.129 597.731 121.636 597.731 122.21V122.579C597.731 123.03 597.793 123.455 597.916 123.854C598.045 124.246 598.229 124.592 598.47 124.891C598.716 125.189 599.012 125.424 599.357 125.594C599.709 125.764 600.107 125.849 600.553 125.849C601.127 125.849 601.613 125.731 602.012 125.497C602.41 125.263 602.759 124.949 603.058 124.557L604.042 125.339C603.837 125.649 603.576 125.945 603.26 126.227C602.943 126.508 602.554 126.736 602.091 126.912C601.634 127.088 601.092 127.176 600.465 127.176ZM611.601 124.478C611.601 124.243 611.548 124.026 611.442 123.827C611.343 123.622 611.135 123.438 610.818 123.273C610.508 123.104 610.039 122.957 609.412 122.834C608.885 122.723 608.407 122.591 607.979 122.438C607.558 122.286 607.197 122.102 606.898 121.885C606.605 121.668 606.38 121.413 606.222 121.12C606.063 120.827 605.984 120.484 605.984 120.092C605.984 119.717 606.066 119.362 606.23 119.028C606.4 118.694 606.638 118.398 606.942 118.141C607.253 117.883 607.625 117.681 608.059 117.534C608.492 117.388 608.976 117.314 609.509 117.314C610.271 117.314 610.921 117.449 611.46 117.719C611.999 117.988 612.412 118.349 612.699 118.8C612.986 119.245 613.13 119.74 613.13 120.285H611.504C611.504 120.021 611.425 119.767 611.267 119.521C611.114 119.269 610.889 119.061 610.59 118.896C610.297 118.732 609.937 118.65 609.509 118.65C609.058 118.65 608.691 118.721 608.41 118.861C608.135 118.996 607.933 119.169 607.804 119.38C607.681 119.591 607.619 119.813 607.619 120.048C607.619 120.224 607.648 120.382 607.707 120.522C607.771 120.657 607.883 120.783 608.041 120.9C608.199 121.012 608.422 121.117 608.709 121.217C608.996 121.316 609.362 121.416 609.808 121.516C610.587 121.691 611.229 121.902 611.732 122.148C612.236 122.395 612.611 122.696 612.857 123.054C613.104 123.411 613.227 123.845 613.227 124.354C613.227 124.771 613.139 125.151 612.963 125.497C612.793 125.843 612.544 126.142 612.216 126.394C611.894 126.64 611.507 126.833 611.056 126.974C610.61 127.108 610.109 127.176 609.553 127.176C608.715 127.176 608.006 127.026 607.426 126.728C606.846 126.429 606.406 126.042 606.107 125.567C605.809 125.093 605.659 124.592 605.659 124.064H607.294C607.317 124.51 607.446 124.864 607.681 125.128C607.915 125.386 608.202 125.57 608.542 125.682C608.882 125.787 609.219 125.84 609.553 125.84C609.998 125.84 610.37 125.781 610.669 125.664C610.974 125.547 611.205 125.386 611.363 125.181C611.521 124.976 611.601 124.741 611.601 124.478ZM619.309 127.176C618.646 127.176 618.046 127.064 617.507 126.842C616.974 126.613 616.514 126.294 616.127 125.884C615.746 125.474 615.453 124.987 615.248 124.425C615.043 123.862 614.94 123.247 614.94 122.579V122.21C614.94 121.437 615.055 120.748 615.283 120.145C615.512 119.535 615.822 119.02 616.215 118.598C616.607 118.176 617.053 117.856 617.551 117.64C618.049 117.423 618.564 117.314 619.098 117.314C619.777 117.314 620.363 117.432 620.855 117.666C621.354 117.9 621.761 118.229 622.077 118.65C622.394 119.066 622.628 119.559 622.78 120.127C622.933 120.689 623.009 121.305 623.009 121.973V122.702H615.907V121.375H621.383V121.252C621.359 120.83 621.271 120.42 621.119 120.021C620.973 119.623 620.738 119.295 620.416 119.037C620.094 118.779 619.654 118.65 619.098 118.65C618.729 118.65 618.389 118.729 618.078 118.888C617.768 119.04 617.501 119.269 617.278 119.573C617.056 119.878 616.883 120.25 616.76 120.689C616.637 121.129 616.575 121.636 616.575 122.21V122.579C616.575 123.03 616.637 123.455 616.76 123.854C616.889 124.246 617.073 124.592 617.313 124.891C617.56 125.189 617.855 125.424 618.201 125.594C618.553 125.764 618.951 125.849 619.396 125.849C619.971 125.849 620.457 125.731 620.855 125.497C621.254 125.263 621.603 124.949 621.901 124.557L622.886 125.339C622.681 125.649 622.42 125.945 622.104 126.227C621.787 126.508 621.397 126.736 620.935 126.912C620.478 127.088 619.936 127.176 619.309 127.176ZM626.533 119.521V127H624.907V117.49H626.445L626.533 119.521ZM626.146 121.885L625.47 121.858C625.476 121.208 625.572 120.607 625.76 120.057C625.947 119.5 626.211 119.017 626.551 118.606C626.891 118.196 627.295 117.88 627.764 117.657C628.238 117.429 628.763 117.314 629.337 117.314C629.806 117.314 630.228 117.379 630.603 117.508C630.978 117.631 631.297 117.83 631.561 118.105C631.83 118.381 632.035 118.738 632.176 119.178C632.316 119.611 632.387 120.142 632.387 120.769V127H630.752V120.751C630.752 120.253 630.679 119.854 630.532 119.556C630.386 119.251 630.172 119.031 629.891 118.896C629.609 118.756 629.264 118.686 628.854 118.686C628.449 118.686 628.08 118.771 627.746 118.94C627.418 119.11 627.134 119.345 626.894 119.644C626.659 119.942 626.475 120.285 626.34 120.672C626.211 121.053 626.146 121.457 626.146 121.885ZM638.662 125.84C639.049 125.84 639.406 125.761 639.734 125.603C640.062 125.444 640.332 125.228 640.543 124.952C640.754 124.671 640.874 124.352 640.903 123.994H642.45C642.421 124.557 642.23 125.081 641.879 125.567C641.533 126.048 641.079 126.438 640.517 126.736C639.954 127.029 639.336 127.176 638.662 127.176C637.947 127.176 637.323 127.05 636.79 126.798C636.263 126.546 635.823 126.2 635.472 125.761C635.126 125.321 634.865 124.817 634.689 124.249C634.52 123.675 634.435 123.068 634.435 122.43V122.061C634.435 121.422 634.52 120.818 634.689 120.25C634.865 119.676 635.126 119.169 635.472 118.729C635.823 118.29 636.263 117.944 636.79 117.692C637.323 117.44 637.947 117.314 638.662 117.314C639.406 117.314 640.057 117.467 640.613 117.771C641.17 118.07 641.606 118.48 641.923 119.002C642.245 119.518 642.421 120.104 642.45 120.76H640.903C640.874 120.367 640.763 120.013 640.569 119.696C640.382 119.38 640.124 119.128 639.796 118.94C639.474 118.747 639.096 118.65 638.662 118.65C638.164 118.65 637.745 118.75 637.405 118.949C637.071 119.143 636.805 119.406 636.605 119.74C636.412 120.068 636.271 120.435 636.184 120.839C636.102 121.237 636.061 121.645 636.061 122.061V122.43C636.061 122.846 636.102 123.256 636.184 123.66C636.266 124.064 636.403 124.431 636.597 124.759C636.796 125.087 637.062 125.351 637.396 125.55C637.736 125.743 638.158 125.84 638.662 125.84ZM646.045 117.49V127H644.41V117.49H646.045ZM644.287 114.968C644.287 114.704 644.366 114.481 644.524 114.3C644.688 114.118 644.929 114.027 645.245 114.027C645.556 114.027 645.793 114.118 645.957 114.3C646.127 114.481 646.212 114.704 646.212 114.968C646.212 115.22 646.127 115.437 645.957 115.618C645.793 115.794 645.556 115.882 645.245 115.882C644.929 115.882 644.688 115.794 644.524 115.618C644.366 115.437 644.287 115.22 644.287 114.968ZM654.263 125.374V120.479C654.263 120.104 654.187 119.778 654.034 119.503C653.888 119.222 653.665 119.005 653.366 118.853C653.067 118.7 652.698 118.624 652.259 118.624C651.849 118.624 651.488 118.694 651.178 118.835C650.873 118.976 650.633 119.16 650.457 119.389C650.287 119.617 650.202 119.863 650.202 120.127H648.576C648.576 119.787 648.664 119.45 648.84 119.116C649.016 118.782 649.268 118.48 649.596 118.211C649.93 117.936 650.328 117.719 650.791 117.561C651.26 117.396 651.781 117.314 652.355 117.314C653.047 117.314 653.656 117.432 654.184 117.666C654.717 117.9 655.133 118.255 655.432 118.729C655.736 119.198 655.889 119.787 655.889 120.496V124.926C655.889 125.242 655.915 125.579 655.968 125.937C656.026 126.294 656.111 126.602 656.223 126.859V127H654.526C654.444 126.812 654.38 126.563 654.333 126.253C654.286 125.937 654.263 125.644 654.263 125.374ZM654.544 121.234L654.562 122.377H652.918C652.455 122.377 652.042 122.415 651.679 122.491C651.315 122.562 651.011 122.67 650.765 122.816C650.519 122.963 650.331 123.147 650.202 123.37C650.073 123.587 650.009 123.842 650.009 124.135C650.009 124.434 650.076 124.706 650.211 124.952C650.346 125.198 650.548 125.395 650.817 125.541C651.093 125.682 651.43 125.752 651.828 125.752C652.326 125.752 652.766 125.646 653.146 125.436C653.527 125.225 653.829 124.967 654.052 124.662C654.28 124.357 654.403 124.062 654.421 123.774L655.115 124.557C655.074 124.803 654.963 125.075 654.781 125.374C654.6 125.673 654.356 125.96 654.052 126.235C653.753 126.505 653.396 126.73 652.979 126.912C652.569 127.088 652.106 127.176 651.591 127.176C650.946 127.176 650.381 127.05 649.895 126.798C649.414 126.546 649.039 126.209 648.77 125.787C648.506 125.359 648.374 124.882 648.374 124.354C648.374 123.845 648.474 123.396 648.673 123.01C648.872 122.617 649.159 122.292 649.534 122.034C649.909 121.771 650.36 121.571 650.888 121.437C651.415 121.302 652.004 121.234 652.654 121.234H654.544ZM660.213 113.5V127H658.578V113.5H660.213ZM664.44 119.38V127H662.806V117.49H664.353L664.44 119.38ZM664.106 121.885L663.351 121.858C663.356 121.208 663.441 120.607 663.605 120.057C663.77 119.5 664.013 119.017 664.335 118.606C664.657 118.196 665.059 117.88 665.539 117.657C666.02 117.429 666.576 117.314 667.209 117.314C667.654 117.314 668.064 117.379 668.439 117.508C668.814 117.631 669.14 117.827 669.415 118.097C669.69 118.366 669.904 118.712 670.057 119.134C670.209 119.556 670.285 120.065 670.285 120.663V127H668.659V120.742C668.659 120.244 668.574 119.846 668.404 119.547C668.24 119.248 668.006 119.031 667.701 118.896C667.396 118.756 667.039 118.686 666.629 118.686C666.148 118.686 665.747 118.771 665.425 118.94C665.103 119.11 664.845 119.345 664.651 119.644C664.458 119.942 664.317 120.285 664.229 120.672C664.147 121.053 664.106 121.457 664.106 121.885ZM670.268 120.988L669.178 121.322C669.184 120.801 669.269 120.3 669.433 119.819C669.603 119.339 669.846 118.911 670.162 118.536C670.484 118.161 670.88 117.865 671.349 117.648C671.817 117.426 672.354 117.314 672.957 117.314C673.467 117.314 673.918 117.382 674.311 117.517C674.709 117.651 675.043 117.859 675.312 118.141C675.588 118.416 675.796 118.771 675.937 119.204C676.077 119.638 676.147 120.153 676.147 120.751V127H674.513V120.733C674.513 120.2 674.428 119.787 674.258 119.494C674.094 119.195 673.859 118.987 673.555 118.87C673.256 118.747 672.898 118.686 672.482 118.686C672.125 118.686 671.809 118.747 671.533 118.87C671.258 118.993 671.026 119.163 670.839 119.38C670.651 119.591 670.508 119.834 670.408 120.109C670.314 120.385 670.268 120.678 670.268 120.988ZM682.555 127.176C681.893 127.176 681.292 127.064 680.753 126.842C680.22 126.613 679.76 126.294 679.373 125.884C678.992 125.474 678.699 124.987 678.494 124.425C678.289 123.862 678.187 123.247 678.187 122.579V122.21C678.187 121.437 678.301 120.748 678.529 120.145C678.758 119.535 679.068 119.02 679.461 118.598C679.854 118.176 680.299 117.856 680.797 117.64C681.295 117.423 681.811 117.314 682.344 117.314C683.023 117.314 683.609 117.432 684.102 117.666C684.6 117.9 685.007 118.229 685.323 118.65C685.64 119.066 685.874 119.559 686.026 120.127C686.179 120.689 686.255 121.305 686.255 121.973V122.702H679.153V121.375H684.629V121.252C684.605 120.83 684.518 120.42 684.365 120.021C684.219 119.623 683.984 119.295 683.662 119.037C683.34 118.779 682.9 118.65 682.344 118.65C681.975 118.65 681.635 118.729 681.324 118.888C681.014 119.04 680.747 119.269 680.524 119.573C680.302 119.878 680.129 120.25 680.006 120.689C679.883 121.129 679.821 121.636 679.821 122.21V122.579C679.821 123.03 679.883 123.455 680.006 123.854C680.135 124.246 680.319 124.592 680.56 124.891C680.806 125.189 681.102 125.424 681.447 125.594C681.799 125.764 682.197 125.849 682.643 125.849C683.217 125.849 683.703 125.731 684.102 125.497C684.5 125.263 684.849 124.949 685.147 124.557L686.132 125.339C685.927 125.649 685.666 125.945 685.35 126.227C685.033 126.508 684.644 126.736 684.181 126.912C683.724 127.088 683.182 127.176 682.555 127.176ZM689.779 119.521V127H688.153V117.49H689.691L689.779 119.521ZM689.393 121.885L688.716 121.858C688.722 121.208 688.818 120.607 689.006 120.057C689.193 119.5 689.457 119.017 689.797 118.606C690.137 118.196 690.541 117.88 691.01 117.657C691.484 117.429 692.009 117.314 692.583 117.314C693.052 117.314 693.474 117.379 693.849 117.508C694.224 117.631 694.543 117.83 694.807 118.105C695.076 118.381 695.281 118.738 695.422 119.178C695.562 119.611 695.633 120.142 695.633 120.769V127H693.998V120.751C693.998 120.253 693.925 119.854 693.778 119.556C693.632 119.251 693.418 119.031 693.137 118.896C692.855 118.756 692.51 118.686 692.1 118.686C691.695 118.686 691.326 118.771 690.992 118.94C690.664 119.11 690.38 119.345 690.14 119.644C689.905 119.942 689.721 120.285 689.586 120.672C689.457 121.053 689.393 121.457 689.393 121.885ZM702.084 117.49V118.738H696.942V117.49H702.084ZM698.683 115.179H700.309V124.645C700.309 124.967 700.358 125.21 700.458 125.374C700.558 125.538 700.687 125.646 700.845 125.699C701.003 125.752 701.173 125.778 701.354 125.778C701.489 125.778 701.63 125.767 701.776 125.743C701.929 125.714 702.043 125.69 702.119 125.673L702.128 127C701.999 127.041 701.829 127.079 701.618 127.114C701.413 127.155 701.164 127.176 700.871 127.176C700.473 127.176 700.106 127.097 699.772 126.938C699.438 126.78 699.172 126.517 698.973 126.147C698.779 125.772 698.683 125.269 698.683 124.636V115.179ZM707.938 127.176C707.275 127.176 706.675 127.064 706.136 126.842C705.603 126.613 705.143 126.294 704.756 125.884C704.375 125.474 704.082 124.987 703.877 124.425C703.672 123.862 703.569 123.247 703.569 122.579V122.21C703.569 121.437 703.684 120.748 703.912 120.145C704.141 119.535 704.451 119.02 704.844 118.598C705.236 118.176 705.682 117.856 706.18 117.64C706.678 117.423 707.193 117.314 707.727 117.314C708.406 117.314 708.992 117.432 709.484 117.666C709.982 117.9 710.39 118.229 710.706 118.65C711.022 119.066 711.257 119.559 711.409 120.127C711.562 120.689 711.638 121.305 711.638 121.973V122.702H704.536V121.375H710.012V121.252C709.988 120.83 709.9 120.42 709.748 120.021C709.602 119.623 709.367 119.295 709.045 119.037C708.723 118.779 708.283 118.65 707.727 118.65C707.357 118.65 707.018 118.729 706.707 118.888C706.396 119.04 706.13 119.269 705.907 119.573C705.685 119.878 705.512 120.25 705.389 120.689C705.266 121.129 705.204 121.636 705.204 122.21V122.579C705.204 123.03 705.266 123.455 705.389 123.854C705.518 124.246 705.702 124.592 705.942 124.891C706.188 125.189 706.484 125.424 706.83 125.594C707.182 125.764 707.58 125.849 708.025 125.849C708.6 125.849 709.086 125.731 709.484 125.497C709.883 125.263 710.231 124.949 710.53 124.557L711.515 125.339C711.31 125.649 711.049 125.945 710.732 126.227C710.416 126.508 710.026 126.736 709.563 126.912C709.106 127.088 708.564 127.176 707.938 127.176Z" fill="white"/>
<defs>
<clipPath id="clip0_21_5927">
<rect width="59" height="59" fill="white" transform="translate(60 30)"/>
</clipPath>
<clipPath id="clip1_21_5927">
<rect width="59" height="59" fill="white" transform="translate(333 30)"/>
</clipPath>
<clipPath id="clip2_21_5927">
<rect width="59" height="59" fill="white" transform="translate(616 30)"/>
</clipPath>
</defs>
</svg>
