<svg width="80" height="80" viewBox="0 0 80 80" fill="none" xmlns="http://www.w3.org/2000/svg">
<g clip-path="url(#clip0_21_5217)">
<mask id="mask0_21_5217" style="mask-type:luminance" maskUnits="userSpaceOnUse" x="8" y="3" width="64" height="73">
<path d="M72.0026 3.04663H8.5625V75.9533H72.0026V3.04663Z" fill="white"/>
</mask>
<g mask="url(#mask0_21_5217)">
<path d="M28.0742 47.6767H52.4811C48.6151 46.0626 44.4672 45.2315 40.2777 45.2315C36.0882 45.2315 31.9403 46.0626 28.0742 47.6767ZM56.0143 49.5274H24.5299C24.3383 49.5271 24.1514 49.4677 23.9949 49.3573C23.8383 49.2469 23.7196 49.0909 23.655 48.9105C23.6076 48.7273 23.6165 48.5341 23.6806 48.356C23.7446 48.178 23.8607 48.0233 24.0139 47.9122C24.2494 47.7328 29.7903 43.4257 40.3337 43.4257C50.8772 43.4257 56.4181 47.7328 56.6536 47.9122C56.8056 48.0336 56.9163 48.199 56.9705 48.3858C57.0247 48.5725 57.0198 48.7715 56.9565 48.9553C56.8912 49.1375 56.7708 49.2948 56.612 49.4054C56.4532 49.5159 56.2639 49.5743 56.0704 49.5723" fill="#3F3F3F"/>
<path d="M30.1757 52.7129C29.9229 52.7129 29.6804 52.8134 29.5016 52.9922C29.3228 53.171 29.2223 53.4135 29.2223 53.6663C29.2253 54.3754 29.5091 55.0543 30.0115 55.5546C30.5139 56.055 31.194 56.3358 31.9031 56.3358H35.066C35.7751 56.3358 36.4552 56.055 36.9577 55.5546C37.4601 55.0543 37.7438 54.3754 37.7468 53.6663C37.7468 53.4135 37.6463 53.171 37.4675 52.9922C37.2887 52.8134 37.0463 52.7129 36.7934 52.7129H30.1757ZM35.066 58.1978H31.8694C30.6795 58.1978 29.5383 57.725 28.6969 56.8837C27.8555 56.0423 27.3828 54.9011 27.3828 53.7112C27.3814 53.342 27.4528 52.9761 27.5931 52.6346C27.7333 52.2931 27.9396 51.9827 28.2002 51.7211C28.4607 51.4595 28.7703 51.252 29.1112 51.1104C29.4522 50.9688 29.8178 50.8959 30.1869 50.8959H36.8046C37.1738 50.8959 37.5393 50.9688 37.8803 51.1104C38.2212 51.252 38.5309 51.4595 38.7914 51.7211C39.0519 51.9827 39.2582 52.2931 39.3985 52.6346C39.5388 52.9761 39.6102 53.342 39.6087 53.7112C39.6087 54.9011 39.1361 56.0423 38.2947 56.8837C37.4533 57.725 36.3121 58.1978 35.1222 58.1978" fill="#3F3F3F"/>
<path d="M43.3242 52.7129C43.1923 52.7128 43.0655 52.7645 42.9712 52.8567C42.8768 52.949 42.8224 53.0745 42.8195 53.2064V54.5187C42.8195 55.0007 43.0109 55.4628 43.3517 55.8036C43.6925 56.1444 44.1546 56.3358 44.6365 56.3358H49.5269C50.0088 56.3358 50.471 56.1444 50.8117 55.8036C51.1525 55.4628 51.3439 55.0007 51.3439 54.5187V53.2064C51.341 53.0745 51.2866 52.949 51.1922 52.8567C51.0979 52.7645 50.9711 52.7128 50.8392 52.7129H43.3242ZM49.5269 58.1977H44.6365C43.6628 58.1948 42.7299 57.8058 42.0423 57.1162C41.3548 56.4266 40.9687 55.4925 40.9688 54.5187V53.2064C40.9688 52.5817 41.217 51.9826 41.6587 51.5409C42.1004 51.0991 42.6995 50.851 43.3242 50.851H50.8392C51.1485 50.851 51.4548 50.9119 51.7406 51.0302C52.0264 51.1486 52.286 51.3221 52.5047 51.5409C52.7234 51.7596 52.897 52.0192 53.0154 52.305C53.1337 52.5908 53.1947 52.8971 53.1947 53.2064V54.5187C53.1961 55.0013 53.1024 55.4795 52.9187 55.9258C52.735 56.372 52.4651 56.7777 52.1244 57.1195C51.7836 57.4613 51.3788 57.7324 50.9331 57.9174C50.4874 58.1025 50.0095 58.1977 49.5269 58.1977Z" fill="#3F3F3F"/>
<path d="M41.8952 55.4497H38.6648C38.437 55.4246 38.2264 55.3162 38.0734 55.1455C37.9205 54.9748 37.8359 54.7536 37.8359 54.5243C37.8359 54.2951 37.9205 54.0739 38.0734 53.9032C38.2264 53.7324 38.437 53.6241 38.6648 53.599H41.8952C42.123 53.6241 42.3336 53.7324 42.4866 53.9032C42.6396 54.0739 42.7241 54.2951 42.7241 54.5243C42.7241 54.7536 42.6396 54.9748 42.4866 55.1455C42.3336 55.3162 42.123 55.4246 41.8952 55.4497Z" fill="#3F3F3F"/>
<path d="M50.9356 43.3248C50.7313 43.3266 50.5322 43.2604 50.3697 43.1365C50.2073 43.0126 50.0906 42.8381 50.0383 42.6406L47.795 34.5199C47.7223 34.1476 47.5653 33.7968 47.3362 33.4943C47.1072 33.1918 46.8121 32.9457 46.4734 32.7747C46.1347 32.6037 45.7613 32.5124 45.3819 32.5078C45.0025 32.5031 44.6271 32.5852 44.2843 32.7477C43.023 33.3625 41.6383 33.6819 40.2352 33.6819C38.8321 33.6819 37.4473 33.3625 36.186 32.7477C35.8487 32.584 35.4786 32.4989 35.1037 32.4989C34.7287 32.4989 34.3586 32.584 34.0213 32.7477C33.6833 32.9111 33.3873 33.1496 33.1559 33.4452C32.9246 33.7407 32.764 34.0854 32.6865 34.4526L30.4432 42.6294C30.3801 42.864 30.2267 43.0641 30.0166 43.1859C29.8064 43.3078 29.5566 43.3416 29.3216 43.2799C29.0865 43.2166 28.8856 43.0637 28.7619 42.8541C28.6382 42.6444 28.6016 42.3947 28.6599 42.1583L30.9031 34.0376C31.0454 33.3991 31.3305 32.8011 31.737 32.2885C32.1435 31.776 32.6608 31.3622 33.2502 31.0783C33.8396 30.7944 34.4856 30.6478 35.1398 30.6494C35.794 30.6511 36.4393 30.8009 37.0273 31.0877C38.0423 31.5751 39.154 31.8281 40.28 31.8281C41.4061 31.8281 42.5177 31.5751 43.5328 31.0877C44.1241 30.8032 44.7723 30.6569 45.4285 30.6597C46.0846 30.6625 46.7315 30.8145 47.3203 31.104C47.9092 31.3935 48.4245 31.8131 48.8273 32.3311C49.2302 32.849 49.51 33.4517 49.6457 34.0937L51.889 42.1583C51.9472 42.3947 51.9106 42.6444 51.7869 42.8541C51.6632 43.0637 51.4623 43.2166 51.2273 43.2799H50.9917" fill="#3F3F3F"/>
<path d="M32.91 42.4948C32.6799 42.4973 32.457 42.4145 32.2843 42.2624C32.1116 42.1103 32.0014 41.8996 31.9749 41.671C31.9485 41.4424 32.0076 41.2121 32.1409 41.0245C32.2742 40.837 32.4723 40.7054 32.6968 40.6553C35.5105 40.0499 38.393 39.8273 41.2662 39.9935C41.5131 40.0084 41.744 40.1207 41.9081 40.3058C42.0721 40.4909 42.1559 40.7337 42.141 40.9806C42.1262 41.2275 42.0138 41.4583 41.8287 41.6224C41.6436 41.7865 41.401 41.8703 41.1541 41.8554C38.4658 41.706 35.7696 41.9096 33.1343 42.4611C33.0599 42.472 32.9843 42.472 32.91 42.4611" fill="#3F3F3F"/>
<path d="M64.848 64.4228H15.72C14.7562 64.4228 13.8319 64.0399 13.1503 63.3583C12.4688 62.6768 12.0859 61.7525 12.0859 60.7887V26.8366C12.0859 25.9441 12.4405 25.0883 13.0715 24.4572C13.7026 23.8262 14.5584 23.4716 15.4509 23.4716H26.4766C26.7235 23.4716 26.9603 23.5697 27.1349 23.7443C27.3095 23.9189 27.4076 24.1557 27.4076 24.4026C27.4076 24.6495 27.3095 24.8863 27.1349 25.0609C26.9603 25.2355 26.7235 25.3336 26.4766 25.3336H15.4509C15.0512 25.3365 14.669 25.4974 14.3874 25.781C14.1059 26.0647 13.9479 26.4481 13.9479 26.8478V60.7998C13.9479 61.0326 13.9937 61.263 14.0828 61.478C14.1718 61.6931 14.3024 61.8884 14.467 62.053C14.6315 62.2176 14.8269 62.3481 15.0419 62.4372C15.2569 62.5262 15.4873 62.5721 15.72 62.5721H64.848C65.0807 62.5721 65.3111 62.5262 65.5261 62.4372C65.7411 62.3481 65.9365 62.2176 66.101 62.053C66.2656 61.8884 66.3962 61.6931 66.4852 61.478C66.5743 61.263 66.6201 61.0326 66.6201 60.7998V26.8366C66.6201 26.435 66.4606 26.0498 66.1766 25.7659C65.8927 25.4819 65.5075 25.3223 65.1059 25.3223H54.0914C53.8445 25.3223 53.6077 25.2243 53.4331 25.0497C53.2585 24.8751 53.1604 24.6383 53.1604 24.3914C53.1604 24.1445 53.2585 23.9077 53.4331 23.7331C53.6077 23.5585 53.8445 23.4604 54.0914 23.4604H65.1059C65.9983 23.4604 66.8542 23.8149 67.4853 24.446C68.1163 25.077 68.4708 25.9329 68.4708 26.8254V60.7774C68.4708 61.7412 68.088 62.6656 67.4064 63.3471C66.7249 64.0286 65.8006 64.4115 64.8367 64.4115" fill="#3F3F3F"/>
<path d="M31.565 67.6868H48.9954V64.4228H31.565V67.6868ZM49.9263 69.5487H30.6341C30.3872 69.5487 30.1504 69.4507 29.9758 69.2761C29.8012 69.1015 29.7031 68.8647 29.7031 68.6178V63.4919C29.7031 63.245 29.8012 63.0082 29.9758 62.8336C30.1504 62.659 30.3872 62.5609 30.6341 62.5609H49.9263C50.0485 62.5609 50.1696 62.585 50.2825 62.6318C50.3955 62.6786 50.4981 62.7471 50.5846 62.8336C50.671 62.92 50.7396 63.0227 50.7864 63.1356C50.8332 63.2486 50.8573 63.3696 50.8573 63.4919V68.6178C50.8573 68.74 50.8332 68.8611 50.7864 68.974C50.7396 69.087 50.671 69.1896 50.5846 69.2761C50.4981 69.3625 50.3955 69.4311 50.2825 69.4779C50.1696 69.5246 50.0485 69.5487 49.9263 69.5487Z" fill="#3F3F3F"/>
<path d="M22.759 74.0913H57.799V72.6669C57.799 71.8418 57.472 71.0504 56.8896 70.4659C56.3073 69.8815 55.5171 69.5517 54.692 69.5487H25.8771C25.0501 69.5487 24.257 69.8772 23.6722 70.462C23.0874 71.0467 22.759 71.8399 22.759 72.6669V74.0913ZM58.786 75.9533H21.884C21.6371 75.9533 21.4004 75.8552 21.2258 75.6806C21.0512 75.506 20.9531 75.2692 20.9531 75.0223V72.6669C20.9531 72.0129 21.0819 71.3653 21.3322 70.761C21.5825 70.1568 21.9493 69.6078 22.4117 69.1454C22.8742 68.683 23.4232 68.3161 24.0274 68.0659C24.6316 67.8156 25.2792 67.6868 25.9332 67.6868H54.7482C56.067 67.6897 57.3308 68.2157 58.2623 69.1494C59.1939 70.083 59.717 71.348 59.717 72.6669V75.0223C59.717 75.1446 59.693 75.2656 59.6462 75.3786C59.5994 75.4915 59.5308 75.5941 59.4444 75.6806C59.3579 75.767 59.2553 75.8356 59.1423 75.8824C59.0294 75.9292 58.9083 75.9533 58.786 75.9533Z" fill="#3F3F3F"/>
<path d="M32.2291 13.3545V24.8737H48.3359V13.3545H32.2291ZM48.3359 26.7356H32.2291C31.7353 26.7356 31.2617 26.5395 30.9125 26.1903C30.5634 25.8411 30.3672 25.3675 30.3672 24.8737V13.3545C30.3702 12.8626 30.5676 12.3919 30.9165 12.0452C31.2654 11.6984 31.7373 11.5038 32.2291 11.5038H48.3359C48.8278 11.5038 49.2997 11.6984 49.6485 12.0452C49.9974 12.3919 50.1949 12.8626 50.1979 13.3545V24.8737C50.1979 25.3675 50.0017 25.8411 49.6525 26.1903C49.3033 26.5395 48.8297 26.7356 48.3359 26.7356Z" fill="#D40054"/>
<path d="M47.2163 13.3545H47.0032C46.7582 13.3545 46.5232 13.258 46.3489 13.0858C46.1746 12.9136 46.0752 12.6797 46.0722 12.4348C46.0711 12.2143 46.1464 12.0002 46.2854 11.8291V7.3425C46.2854 6.70292 46.0313 6.08956 45.5791 5.63731C45.1268 5.18506 44.5134 4.93098 43.8739 4.93098H36.6953C36.0558 4.93098 35.4424 5.18506 34.9901 5.63731C34.5379 6.08956 34.2839 6.70292 34.2839 7.3425V8.15008C34.2839 8.39699 34.1858 8.6338 34.0112 8.80839C33.8366 8.98298 33.5998 9.08106 33.3529 9.08106C33.106 9.08106 32.8692 8.98298 32.6946 8.80839C32.52 8.6338 32.4219 8.39699 32.4219 8.15008V7.3425C32.4204 6.77983 32.5298 6.22241 32.7438 5.702C32.9577 5.1816 33.2721 4.70841 33.6689 4.3095C34.0658 3.91059 34.5373 3.59377 35.0566 3.37708C35.5758 3.1604 36.1327 3.0481 36.6953 3.04663H43.8739C45.0063 3.04959 46.0916 3.50078 46.8924 4.30156C47.6932 5.10235 48.1444 6.1876 48.1473 7.32008V12.4348C48.1444 12.6797 48.0449 12.9136 47.8707 13.0858C47.6964 13.258 47.4613 13.3545 47.2163 13.3545Z" fill="#D40054"/>
<path d="M38.409 16.5063L39.2165 19.5795C39.2841 19.7719 39.2841 19.9816 39.2165 20.174C39.1588 20.3205 39.1283 20.4764 39.1268 20.6339C39.1268 20.9522 39.2532 21.2575 39.4783 21.4826C39.7034 21.7076 40.0086 21.8341 40.3269 21.8341C40.6452 21.8341 40.9505 21.7076 41.1756 21.4826C41.4007 21.2575 41.5271 20.9522 41.5271 20.6339C41.5255 20.4764 41.4951 20.3205 41.4374 20.174C41.3699 19.9816 41.3699 19.7719 41.4374 19.5795L42.245 16.5063H38.409ZM40.2821 23.696C39.8066 23.698 39.3371 23.5887 38.9113 23.3771C38.4855 23.1654 38.1151 22.8571 37.8296 22.4768C37.5441 22.0965 37.3515 21.6547 37.2671 21.1867C37.1826 20.7188 37.2088 20.2375 37.3434 19.7815L36.3115 15.8108C36.2812 15.6763 36.2816 15.5366 36.3126 15.4022C36.3436 15.2678 36.4044 15.1421 36.4906 15.0344C36.5768 14.9267 36.686 14.8397 36.8104 14.78C36.9347 14.7202 37.0709 14.6892 37.2088 14.6892H43.3554C43.4933 14.6892 43.6295 14.7202 43.7538 14.78C43.8781 14.8397 43.9874 14.9267 44.0736 15.0344C44.1597 15.1421 44.2206 15.2678 44.2516 15.4022C44.2826 15.5366 44.2829 15.6763 44.2527 15.8108L43.2208 19.7815C43.3554 20.2375 43.3815 20.7188 43.2971 21.1867C43.2127 21.6547 43.0201 22.0965 42.7346 22.4768C42.4491 22.8571 42.0787 23.1654 41.6528 23.3771C41.227 23.5887 40.7576 23.698 40.2821 23.696Z" fill="#D40054"/>
<path d="M17.97 58.8259C17.8477 58.8259 17.7267 58.8018 17.6137 58.755C17.5008 58.7082 17.3981 58.6397 17.3117 58.5532C17.2252 58.4668 17.1567 58.3641 17.1099 58.2512C17.0631 58.1382 17.0391 58.0172 17.0391 57.8949V30.7849C17.0391 30.538 17.1371 30.3011 17.3117 30.1266C17.4863 29.952 17.7231 29.8539 17.97 29.8539C18.2169 29.8539 18.4537 29.952 18.6283 30.1266C18.8029 30.3011 18.901 30.538 18.901 30.7849V57.8949C18.901 58.0172 18.8769 58.1382 18.8301 58.2512C18.7833 58.3641 18.7147 58.4668 18.6283 58.5532C18.5418 58.6397 18.4392 58.7082 18.3262 58.755C18.2133 58.8018 18.0922 58.8259 17.97 58.8259Z" fill="#3F3F3F"/>
<path d="M62.5872 58.8259C62.465 58.8259 62.3439 58.8018 62.231 58.755C62.118 58.7082 62.0154 58.6397 61.9289 58.5532C61.8425 58.4668 61.7739 58.3641 61.7271 58.2512C61.6803 58.1382 61.6563 58.0172 61.6563 57.8949V30.7849C61.6562 30.538 61.7543 30.3011 61.9289 30.1266C62.1035 29.952 62.3403 29.8539 62.5872 29.8539C62.8341 29.8539 63.0709 29.952 63.2455 30.1266C63.4201 30.3011 63.5181 30.538 63.5181 30.7849V57.8949C63.5181 58.0172 63.4941 58.1382 63.4473 58.2512C63.4005 58.3641 63.332 58.4668 63.2455 58.5532C63.1591 58.6397 63.0564 58.7082 62.9435 58.755C62.8305 58.8018 62.7095 58.8259 62.5872 58.8259Z" fill="#3F3F3F"/>
<path d="M71.1262 75.9532H9.5481C9.30119 75.9532 9.06445 75.8552 8.88986 75.6806C8.71527 75.506 8.61719 75.2692 8.61719 75.0223C8.61719 74.7754 8.71527 74.5386 8.88986 74.364C9.06445 74.1894 9.30119 74.0913 9.5481 74.0913H71.1262C71.3731 74.0913 71.6099 74.1894 71.7845 74.364C71.9591 74.5386 72.0572 74.7754 72.0572 75.0223C72.0572 75.2692 71.9591 75.506 71.7845 75.6806C71.6099 75.8552 71.3731 75.9532 71.1262 75.9532Z" fill="#3F3F3F"/>
</g>
</g>
<defs>
<clipPath id="clip0_21_5217">
<rect width="63.44" height="72.9066" fill="white" transform="translate(8.5625 3.04663)"/>
</clipPath>
</defs>
</svg>
