<svg width="76" height="76" viewBox="0 0 76 76" fill="none" xmlns="http://www.w3.org/2000/svg">
<g clip-path="url(#clip0_238_700)">
<path d="M35.3737 43.1706H40.6264C41.3063 43.1706 41.8575 42.6194 41.8575 41.9395C41.8575 41.2596 41.3063 40.7084 40.6264 40.7084H35.3737C34.6938 40.7084 34.1426 41.2596 34.1426 41.9395C34.1426 42.6194 34.6938 43.1706 35.3737 43.1706Z" fill="white"/>
<path d="M69.6501 55.732C69.6148 55.7142 69.5786 55.6983 69.5418 55.684L60.2158 52.0951C59.2406 51.7199 58.4917 50.9359 58.1612 49.9446L57.7874 48.8232C59.8758 45.825 60.6803 42.8821 58.7212 39.9433C57.8345 38.6131 56.7433 37.6548 55.3982 37.0237C55.9837 34.8497 56.3017 32.5298 56.3017 30.121V30.0389H56.3838C57.7867 30.0389 58.9281 28.8976 58.9281 27.4946V24.8683C58.9281 23.9118 58.397 23.0777 57.6149 22.6432V19.6156C57.6149 8.79942 48.8155 0 37.9993 0C27.1832 0 18.3838 8.79942 18.3838 19.6156V22.6432C17.6016 23.0777 17.0706 23.9118 17.0706 24.8683V27.4946C17.0706 28.8976 18.2119 30.0389 19.6149 30.0389H19.6969V30.121C19.6969 32.5298 20.0149 34.8497 20.6004 37.0238C19.2552 37.655 18.1641 38.6133 17.2774 39.9435C15.3183 42.8821 16.1228 45.825 18.2113 48.8234L17.8375 49.9448C17.5071 50.9363 16.7582 51.7201 15.7829 52.0953L6.45686 55.684C6.41993 55.6982 6.38382 55.7142 6.34853 55.732C3.24221 57.2851 1.3125 60.4074 1.3125 63.8804V72.1425C1.3125 74.2696 3.04294 76 5.16995 76H37.9993H70.8287C72.9557 76 74.6861 74.2696 74.6861 72.1425V63.8804C74.6861 60.4074 72.7564 57.2851 69.6501 55.732ZM56.6727 41.3092C57.3913 42.3872 57.9785 43.9978 56.1236 46.9073C55.1604 48.4181 53.7143 50.0246 52.0608 51.705C51.4622 51.5342 51.0492 50.993 51.0492 50.3647V45.8791C51.0492 45.8231 51.0441 45.7684 51.0369 45.7144C52.5165 43.8878 53.7389 41.7529 54.6322 39.3969C55.4399 39.8335 56.1003 40.4507 56.6727 41.3092ZM22.7094 35.2916H23.0127C23.8801 35.2916 24.6952 35.6294 25.3118 36.2458C26.39 37.324 27.8239 37.9179 29.3488 37.9179H46.6499C48.1748 37.9179 49.6084 37.324 50.69 36.2425C51.3033 35.6292 52.1186 35.2916 52.9859 35.2916H53.2893C51.4641 43.6984 45.3014 49.9007 37.9993 49.9007C30.6973 49.9007 24.5345 43.6984 22.7094 35.2916ZM26.3239 53.0523C27.0036 52.3527 27.4119 51.4018 27.4119 50.3649V48.2543C30.4024 50.8406 34.0573 52.3629 37.9993 52.3629C41.9413 52.3629 45.5962 50.8406 48.5868 48.2543V50.3647C48.5868 51.4016 48.9949 52.3523 49.6746 53.0519C46.0936 55.2881 42.0762 56.4665 37.9993 56.4665C33.9226 56.4665 29.9049 55.2883 26.3239 53.0523ZM37.9993 58.9287C40.8094 58.9287 43.5903 58.4253 46.2443 57.456C42.8832 60.8708 39.6838 64.578 37.9993 68.7306C36.3148 64.578 33.1153 60.8706 29.7544 57.4558C32.4083 58.4253 35.1893 58.9287 37.9993 58.9287ZM56.4658 27.4946C56.4658 27.5399 56.4291 27.5767 56.3838 27.5767H53.6754V24.7862H56.3838C56.4291 24.7862 56.4658 24.8229 56.4658 24.8683V27.4946ZM47.1095 27.5767V24.7862H51.2132V27.5767H47.1095ZM39.2304 27.5767V24.7862H44.6473V27.5767H39.2304ZM31.3514 27.5767V24.7862H36.7682V27.5767H31.3514ZM24.7855 27.5767V24.7862H28.8892V27.5767H24.7855ZM48.5868 22.324H43.17V19.6156C43.17 14.6207 42.7504 9.9125 41.9888 6.35774C41.7266 5.13419 41.4374 4.0953 41.1173 3.23386C42.6691 4.02029 44.1064 5.39239 45.3208 7.28139C47.4269 10.5578 48.5868 14.938 48.5868 19.6156V22.324ZM35.2909 22.324V19.6156C35.2909 15.1599 35.6394 10.8893 36.2722 7.59048C36.9084 4.27373 37.6448 2.9292 37.9993 2.54559C38.3539 2.9292 39.0902 4.27373 39.7265 7.59048C40.3593 10.8893 40.7077 15.1599 40.7077 19.6156V22.324H35.2909ZM34.8814 3.23402C34.5611 4.09546 34.272 5.13435 34.0099 6.3579C33.2483 9.9125 32.8287 14.6207 32.8287 19.6156V22.324H27.4119V19.6156C27.4119 14.938 28.5717 10.5578 30.6779 7.28156C31.8922 5.39239 33.3295 4.02045 34.8814 3.23402ZM55.1527 19.6156V22.324H51.049V19.6156C51.049 14.4717 49.7503 9.61851 47.392 5.95016C47.1203 5.52748 46.8375 5.12713 46.5456 4.74696C51.6856 7.71277 55.1527 13.2668 55.1527 19.6156ZM29.4532 4.7468C29.1612 5.12713 28.8785 5.52748 28.6068 5.95C26.2484 9.61851 24.9496 14.4717 24.9496 19.6156V22.324H20.846V19.6156C20.846 13.2668 24.3131 7.71277 29.4532 4.7468ZM19.5328 27.4946V24.8683C19.5328 24.8229 19.5696 24.7862 19.6149 24.7862H22.3233V27.5767H19.6149C19.5696 27.5767 19.5328 27.5399 19.5328 27.4946ZM30.2065 30.0389C30.2046 30.0661 30.2023 30.0932 30.2023 30.121V31.4341C30.2023 32.114 30.7536 32.6652 31.4335 32.6652C32.1133 32.6652 32.6646 32.114 32.6646 31.4341V30.121C32.6646 30.0932 32.6623 30.0661 32.6604 30.0389H43.3382C43.3364 30.0661 43.3341 30.0932 43.3341 30.121V31.4341C43.3341 32.114 43.8853 32.6652 44.5652 32.6652C45.2451 32.6652 45.7963 32.114 45.7963 31.4341V30.121C45.7963 30.0932 45.794 30.0661 45.7922 30.0389H53.8395V30.121C53.8395 31.0397 53.788 31.9436 53.6903 32.8294H52.9859C51.461 32.8294 50.0274 33.4233 48.9458 34.5048C48.3325 35.1181 47.5172 35.4557 46.6499 35.4557H29.3488C28.4814 35.4557 27.6663 35.1179 27.0497 34.5015C25.9715 33.4233 24.5376 32.8294 23.0127 32.8294H22.3082C22.2107 31.9436 22.159 31.0397 22.159 30.121V30.0389H30.2065ZM19.326 41.3092C19.8984 40.4507 20.5587 39.8335 21.3667 39.3969C22.2599 41.7529 23.4823 43.8878 24.962 45.7144C24.9547 45.7684 24.9496 45.8231 24.9496 45.8791V50.3649C24.9496 50.9932 24.5367 51.5344 23.938 51.7051C22.2846 50.0247 20.8383 48.4182 19.8752 46.9074C18.0204 43.9978 18.6073 42.3873 19.326 41.3092ZM3.7747 72.1425V63.8804C3.7747 61.3652 5.16191 59.1017 7.3989 57.9599L16.6671 54.3932C18.1998 53.8036 19.4033 52.6215 20.0248 51.1171C21.4766 52.7799 23.2021 54.4633 24.9577 56.1755C30.1698 61.259 36.035 66.9813 36.7034 73.538H16.9065V69.5164C16.9065 68.8365 16.3552 68.2853 15.6754 68.2853C14.9955 68.2853 14.4443 68.8365 14.4443 69.5164V73.5378H5.16995C4.4006 73.5378 3.7747 72.9119 3.7747 72.1425ZM72.2239 72.1425C72.2239 72.9119 71.5981 73.5378 70.8287 73.5378H61.5544V69.5162C61.5544 68.8363 61.0032 68.2851 60.3233 68.2851C59.6434 68.2851 59.0922 68.8363 59.0922 69.5162V73.5378H39.2953C39.9637 66.9811 45.8286 61.2588 51.041 56.1753C52.7965 54.4631 54.522 52.7798 55.9739 51.117C56.5954 52.6214 57.7989 53.8034 59.3315 54.393L68.5997 57.9598C70.8367 59.1017 72.2239 61.365 72.2239 63.8804V72.1425Z" fill="white"/>
</g>
<defs>
<clipPath id="clip0_238_700">
<rect width="76" height="76" fill="white"/>
</clipPath>
</defs>
</svg>
