<svg width="80" height="80" viewBox="0 0 80 80" fill="none" xmlns="http://www.w3.org/2000/svg">
<g clip-path="url(#clip0_2_1252)">
<mask id="mask0_2_1252" style="mask-type:luminance" maskUnits="userSpaceOnUse" x="-2" y="1" width="90" height="78">
<path d="M87.3653 1H-1.33789V79H87.3653V1Z" fill="white"/>
</mask>
<g mask="url(#mask0_2_1252)">
<path d="M24.6295 62.741C21.0777 59.7164 18.3248 55.8674 16.6128 51.5324C14.7154 46.6153 14.1098 41.2956 14.8537 36.0791V36.0072L15.7044 27.3021C20.203 27 29.2867 25.2158 34.4486 16.2806H35.8905C40.3602 25.5036 50.756 27.1007 55.5862 27.3309L56.437 36.0791V36.1798C57.1759 41.2804 56.5798 46.4851 54.7067 51.2878C52.9891 55.6082 50.2482 59.4491 46.7188 62.482L35.6886 71.8921L24.6295 62.741Z" fill="#D40054"/>
<path d="M24.6295 62.741C21.0777 59.7164 18.3248 55.8674 16.6128 51.5324C14.7154 46.6153 14.1098 41.2956 14.8537 36.0791V36.0072L15.7044 27.3021C20.203 27 29.2867 25.2158 34.4486 16.2806H35.8905C40.3602 25.5036 50.756 27.1007 55.5862 27.3309L56.437 36.0791V36.1798C57.1759 41.2804 56.5798 46.4851 54.7067 51.2878C52.9891 55.6082 50.2482 59.4491 46.7188 62.482L35.6886 71.8921L24.6295 62.741Z" stroke="white" stroke-miterlimit="10"/>
<path d="M11.7395 23.0287L10.6293 34.9856C9.83548 41.1509 10.5936 47.4163 12.8353 53.2158C15.0276 58.2917 18.404 62.7711 22.6832 66.2806L35.7464 77.2158L48.7232 66.2949C52.9829 62.7805 56.3396 58.3012 58.5135 53.2302C60.7424 47.4526 61.4955 41.2124 60.705 35.0719L59.5949 23.0287C56.5907 23.1578 53.5839 22.8476 50.6697 22.1079C44.2535 20.4532 39.8558 16.7266 37.9381 11.3165H32.7041C31.4442 13.9379 29.6328 16.2574 27.3934 18.1172C25.1541 19.9769 22.5394 21.3331 19.7274 22.0935C17.1557 22.825 14.4833 23.1407 11.8116 23.0287M35.8185 78.2949L22.2362 66.928C17.8466 63.3327 14.3854 58.7389 12.1432 53.5324C9.84575 47.6063 9.06763 41.2015 9.87946 34.8992L11.0618 22.1223H11.4656C11.6097 22.1223 26.0571 23.4604 32.1274 10.6115L32.2283 10.3813H38.4716L38.5581 10.6547C42.8837 23.4604 59.7246 22.0791 59.8976 22.0647H60.3014L61.4693 34.928C62.2753 41.2102 61.5023 47.5938 59.22 53.5036C56.9911 58.6944 53.5561 63.2812 49.199 66.8849L35.8185 78.2949Z" fill="#3F3F3F"/>
<path d="M11.7393 23.0287L10.6291 34.9856C9.83529 41.1509 10.5934 47.4163 12.8351 53.2158C15.0274 58.2917 18.4039 62.7711 22.683 66.2806L35.7463 77.2158L48.723 66.2949C52.9827 62.7805 56.3394 58.3012 58.5133 53.2302C60.7422 47.4526 61.4953 41.2124 60.7049 35.0719L59.5947 23.0287C56.5906 23.1578 53.5837 22.8476 50.6696 22.1079C44.2533 20.4532 39.8556 16.7266 37.9379 11.3165H32.7039C31.444 13.9379 29.6326 16.2574 27.3932 18.1172C25.1539 19.9769 22.5392 21.3331 19.7272 22.0935C17.1324 22.8326 14.4351 23.1484 11.7393 23.0287ZM35.7463 78.2949L22.1639 66.928C17.7743 63.3327 14.3131 58.7389 12.0709 53.5324C9.77349 47.6063 8.99536 41.2015 9.80719 34.8992L10.9895 22.1223H11.3932C11.5374 22.1223 25.9849 23.4604 32.0551 10.6115L32.156 10.3813H38.4714L38.5579 10.6547C42.8835 23.4604 59.7244 22.0791 59.8974 22.0647H60.3012L61.4691 34.928C62.2751 41.2102 61.5022 47.5938 59.2198 53.5036C56.9909 58.6944 53.5559 63.2812 49.1988 66.8849L35.7463 78.2949Z" stroke="#3F3F3F" stroke-width="0.75" stroke-miterlimit="10"/>
</g>
<path d="M35.588 41.4029L39.8126 34.4532H43.6047L37.3759 43.8489L43.8066 53.4604H39.9136L35.588 46.3525L31.1615 53.446H27.3838L33.8001 43.8345L27.5712 34.4388H31.3345L35.588 41.4029Z" fill="white"/>
<mask id="mask1_2_1252" style="mask-type:luminance" maskUnits="userSpaceOnUse" x="-2" y="1" width="90" height="78">
<path d="M87.3653 1H-1.33789V79H87.3653V1Z" fill="white"/>
</mask>
<g mask="url(#mask1_2_1252)">
<path d="M53.6982 34.5971C55.6003 34.5971 57.4597 34.0343 59.0412 32.9797C60.6228 31.9252 61.8555 30.4263 62.5834 28.6727C63.3113 26.919 63.5018 24.9894 63.1307 23.1277C62.7596 21.266 61.8437 19.556 60.4987 18.2138C59.1537 16.8717 57.44 15.9576 55.5745 15.5873C53.7089 15.217 51.7752 15.407 50.0179 16.1334C48.2606 16.8598 46.7586 18.0899 45.7018 19.6681C44.6451 21.2464 44.0811 23.1019 44.0811 25C44.0811 27.5453 45.0943 29.9864 46.8979 31.7862C48.7015 33.586 51.1476 34.5971 53.6982 34.5971Z" fill="white"/>
<path d="M57.3746 16.4244C55.6262 15.7211 53.708 15.551 51.8627 15.9355C50.0174 16.3201 48.3278 17.2422 47.0077 18.5851C45.6875 19.928 44.7961 21.6313 44.4461 23.4798C44.0962 25.3283 44.3034 27.2389 45.0416 28.9698C45.7798 30.7008 47.0158 32.1744 48.5933 33.2043C50.1709 34.2342 52.019 34.7741 53.904 34.7558C55.7891 34.7375 57.6263 34.1617 59.1834 33.1013C60.7405 32.0409 61.9476 30.5435 62.6518 28.7985C63.1213 27.6405 63.3571 26.4013 63.3458 25.1521C63.3346 23.9029 63.0765 22.6682 62.5863 21.5188C62.096 20.3693 61.3833 19.3276 60.489 18.4534C59.5947 17.5793 58.5363 16.8898 57.3746 16.4244ZM49.6462 35.518C47.6013 34.704 45.8446 33.3023 44.5989 31.4907C43.3532 29.6792 42.6747 27.5393 42.6492 25.3424C42.6237 23.1455 43.2525 20.9906 44.4558 19.1507C45.6591 17.3109 47.3828 15.869 49.4083 15.008C51.4338 14.1469 53.6699 13.9054 55.8331 14.3141C57.9963 14.7228 59.9892 15.7633 61.5591 17.3037C63.129 18.844 64.2052 20.8148 64.6513 22.9663C65.0974 25.1177 64.8933 27.3529 64.0648 29.3885C62.9599 32.1033 60.8235 34.2717 58.1221 35.4201C55.4206 36.5685 52.3736 36.6037 49.6462 35.518Z" fill="#3F3F3F"/>
<path d="M57.3746 16.4244C55.6262 15.7211 53.708 15.551 51.8627 15.9355C50.0174 16.3201 48.3278 17.2422 47.0077 18.5851C45.6875 19.928 44.7961 21.6313 44.4461 23.4798C44.0962 25.3283 44.3034 27.2389 45.0416 28.9698C45.7798 30.7008 47.0158 32.1744 48.5933 33.2043C50.1709 34.2342 52.019 34.7741 53.904 34.7558C55.7891 34.7375 57.6263 34.1617 59.1834 33.1013C60.7405 32.0409 61.9476 30.5435 62.6518 28.7985C63.1213 27.6405 63.3571 26.4013 63.3458 25.1521C63.3346 23.9029 63.0765 22.6682 62.5863 21.5188C62.096 20.3693 61.3833 19.3276 60.489 18.4534C59.5947 17.5793 58.5363 16.8898 57.3746 16.4244ZM49.6462 35.518C47.6013 34.704 45.8446 33.3023 44.5989 31.4907C43.3532 29.6792 42.6747 27.5393 42.6492 25.3424C42.6237 23.1455 43.2525 20.9906 44.4558 19.1507C45.6591 17.3109 47.3828 15.869 49.4083 15.008C51.4338 14.1469 53.6699 13.9054 55.8331 14.3141C57.9963 14.7228 59.9892 15.7633 61.5591 17.3037C63.129 18.844 64.2052 20.8148 64.6513 22.9663C65.0974 25.1177 64.8933 27.3529 64.0648 29.3885C62.9599 32.1033 60.8235 34.2717 58.1221 35.4201C55.4206 36.5685 52.3736 36.6037 49.6462 35.518Z" stroke="#3F3F3F" stroke-width="0.75" stroke-miterlimit="10"/>
<path d="M57.4036 16.036C57.2648 15.979 57.145 15.8838 57.0582 15.7615C56.9714 15.6393 56.9212 15.4949 56.9133 15.3453C56.7527 13.6178 57.1738 11.8863 58.1101 10.4245C59.0314 9.34868 60.2501 8.56791 61.6138 8.17987L62.5222 7.80575C62.7802 7.69689 63.0139 7.53775 63.2095 7.33762C63.4051 7.1375 63.5586 6.90041 63.6612 6.64029L65.5069 2.03595C65.5838 1.84552 65.7331 1.69323 65.9222 1.61235C66.1114 1.53147 66.3249 1.52858 66.5162 1.60432C66.7055 1.68675 66.8551 1.8396 66.9331 2.03038C67.0112 2.22115 67.0116 2.4348 66.9343 2.62589L65.0888 7.23022C64.9116 7.67699 64.647 8.08401 64.3103 8.42743C63.9736 8.77085 63.5715 9.04375 63.1278 9.2302L62.1762 9.61871C61.0683 9.90506 60.067 10.5046 59.2924 11.3453C58.5802 12.5308 58.2622 13.9109 58.3841 15.2878C58.3913 15.4163 58.3657 15.5446 58.3098 15.6606C58.2539 15.7767 58.1695 15.8767 58.0644 15.9514C57.9594 16.026 57.8371 16.073 57.7089 16.0878C57.5807 16.1026 57.4509 16.0848 57.3315 16.036" fill="#3F3F3F"/>
<path d="M57.4036 16.036C57.2648 15.979 57.145 15.8838 57.0582 15.7615C56.9714 15.6393 56.9212 15.4949 56.9133 15.3453C56.7527 13.6178 57.1738 11.8863 58.1101 10.4245C59.0314 9.34868 60.2501 8.56791 61.6138 8.17987L62.5222 7.80575C62.7802 7.69689 63.0139 7.53775 63.2095 7.33762C63.4051 7.1375 63.5586 6.90041 63.6612 6.64029L65.5069 2.03595C65.5838 1.84552 65.7331 1.69323 65.9222 1.61235C66.1114 1.53147 66.3249 1.52858 66.5162 1.60432C66.7055 1.68675 66.8551 1.8396 66.9331 2.03038C67.0112 2.22115 67.0116 2.4348 66.9343 2.62589L65.0888 7.23022C64.9116 7.67699 64.647 8.08401 64.3103 8.42743C63.9736 8.77085 63.5715 9.04375 63.1278 9.2302L62.1762 9.61871C61.0683 9.90505 60.067 10.5046 59.2924 11.3453C58.5802 12.5308 58.2622 13.9109 58.3841 15.2878C58.3913 15.4163 58.3657 15.5446 58.3098 15.6606C58.2539 15.7767 58.1695 15.8767 58.0644 15.9514C57.9594 16.026 57.8371 16.073 57.7089 16.0878C57.5807 16.1026 57.4509 16.0848 57.3315 16.036H57.4036Z" stroke="#3F3F3F" stroke-width="0.75" stroke-miterlimit="10"/>
<path d="M66.2423 8.00723C66.0673 7.93469 65.924 7.80196 65.8386 7.63312C65.8013 7.54742 65.7818 7.45506 65.7813 7.36162C65.7808 7.26819 65.7993 7.1756 65.8357 7.08951C65.8721 7.00342 65.9256 6.92563 65.993 6.86078C66.0604 6.79593 66.1403 6.74538 66.2279 6.71223L69.4144 5.41728C69.5952 5.34638 69.7959 5.34548 69.9773 5.41469C70.1587 5.4839 70.3076 5.61825 70.3949 5.79139C70.4324 5.87812 70.452 5.9715 70.4527 6.06596C70.4534 6.16043 70.435 6.25404 70.3987 6.34128C70.3623 6.42852 70.3088 6.50759 70.2413 6.57378C70.1738 6.63998 70.0936 6.69196 70.0055 6.72664L66.819 8.00723C66.6336 8.07947 66.4277 8.07947 66.2423 8.00723Z" fill="#3F3F3F"/>
<path d="M66.2423 8.00723C66.0673 7.93469 65.924 7.80196 65.8386 7.63312C65.8013 7.54742 65.7818 7.45506 65.7813 7.36162C65.7808 7.26819 65.7993 7.1756 65.8357 7.08951C65.8721 7.00342 65.9256 6.92563 65.993 6.86078C66.0604 6.79593 66.1403 6.74538 66.2279 6.71223L69.4144 5.41728C69.5952 5.34638 69.7959 5.34548 69.9773 5.41469C70.1587 5.4839 70.3076 5.61825 70.3949 5.79139C70.4324 5.87812 70.452 5.9715 70.4527 6.06596C70.4534 6.16043 70.435 6.25404 70.3987 6.34128C70.3623 6.42852 70.3088 6.50759 70.2413 6.57378C70.1738 6.63998 70.0936 6.69196 70.0055 6.72664L66.819 8.00723C66.6336 8.07947 66.4277 8.07947 66.2423 8.00723Z" stroke="#3F3F3F" stroke-width="0.75" stroke-miterlimit="10"/>
<path d="M62.3202 6.51083C62.1472 6.42625 62.0094 6.28365 61.931 6.10796L60.6477 2.92811C60.5767 2.74775 60.5757 2.54739 60.6451 2.36637C60.7144 2.18535 60.8491 2.03672 61.0226 1.94966C61.1091 1.91055 61.2029 1.89003 61.2979 1.88942C61.3929 1.8888 61.4869 1.90812 61.5739 1.94611C61.6609 1.98409 61.739 2.03992 61.803 2.10994C61.867 2.17995 61.9155 2.2626 61.9454 2.35254L63.2431 5.53243C63.3169 5.71038 63.3192 5.9099 63.2494 6.08947C63.1796 6.26904 63.043 6.41479 62.8682 6.49643C62.6926 6.56839 62.4958 6.56839 62.3202 6.49643" fill="#3F3F3F"/>
<path d="M62.3202 6.51083C62.1472 6.42625 62.0094 6.28365 61.931 6.10796L60.6477 2.92811C60.5767 2.74775 60.5757 2.54739 60.6451 2.36637C60.7144 2.18535 60.8491 2.03672 61.0226 1.94966C61.1091 1.91055 61.2029 1.89003 61.2979 1.88942C61.3929 1.8888 61.4869 1.90812 61.5739 1.94611C61.6609 1.98409 61.739 2.03992 61.803 2.10994C61.867 2.17995 61.9155 2.2626 61.9454 2.35254L63.2431 5.53243C63.3169 5.71038 63.3192 5.9099 63.2494 6.08947C63.1796 6.26904 63.043 6.41479 62.8682 6.49643C62.6945 6.57302 62.4977 6.57821 62.3202 6.51083Z" stroke="#3F3F3F" stroke-width="0.75" stroke-miterlimit="10"/>
</g>
</g>
<defs>
<clipPath id="clip0_2_1252">
<rect width="62" height="78" fill="white" transform="translate(9 1)"/>
</clipPath>
</defs>
</svg>
