<svg width="80" height="80" viewBox="0 0 80 80" fill="none" xmlns="http://www.w3.org/2000/svg">
<g clip-path="url(#clip0_13_3257)">
<mask id="mask0_13_3257" style="mask-type:luminance" maskUnits="userSpaceOnUse" x="2" y="19" width="76" height="42">
<path d="M78 19H2V61H78V19Z" fill="white"/>
</mask>
<g mask="url(#mask0_13_3257)">
<path d="M39.9989 57.8408C30.6976 57.8408 23.1255 49.8442 23.1255 40C23.1255 30.1558 30.6976 22.1451 39.9989 22.1451C49.3002 22.1451 56.8722 30.1558 56.8722 40C56.9695 44.6276 55.2475 49.1051 52.084 52.4499C48.9206 55.7947 44.5742 57.7335 39.9989 57.8408ZM76.5068 39.5064C76.5068 39.4218 76.5068 39.3372 76.5068 39.2666C76.1163 38.5051 66.8987 20.4244 39.3156 20.4244C17.8264 20.4244 4.62057 37.8563 3.78388 38.9846C3.78388 38.9846 3.78387 39.1256 3.68625 39.182C3.62372 39.2892 3.57225 39.4026 3.53279 39.5205C3.52601 39.6238 3.52601 39.7275 3.53279 39.8308C3.52553 39.9341 3.52553 40.0377 3.53279 40.141C3.55004 40.2624 3.58287 40.3809 3.63042 40.4936C3.63042 40.5641 3.63042 40.6488 3.63042 40.7193C4.00693 41.495 13.2386 59.5614 40.8217 59.5614C62.3108 59.5614 75.5167 42.1296 76.3534 41.0013C76.3534 41.0013 76.3534 40.8603 76.451 40.8039C76.5135 40.6967 76.5649 40.5833 76.6044 40.4654C76.6189 40.3625 76.6189 40.258 76.6044 40.1551C76.6189 40.0522 76.6189 39.9478 76.6044 39.8449C76.5858 39.7238 76.5531 39.6055 76.5068 39.4923V39.5064Z" stroke="#3F3F3F" stroke-width="2"/>
<path d="M40.0006 31.2982C38.2811 31.2193 36.5776 31.6631 35.1096 32.5722C33.6416 33.4813 32.4765 34.8143 31.7644 36.3992C31.0522 37.9841 30.8256 39.7483 31.1139 41.4647C31.4021 43.181 32.1919 44.7706 33.3815 46.0289C34.5712 47.2871 36.1062 48.1562 37.7886 48.5242C39.4711 48.8921 41.2239 48.7421 42.8213 48.0935C44.4187 47.4448 45.7874 46.3272 46.751 44.8847C47.7147 43.4422 48.2292 41.7409 48.2282 40C48.2597 38.8805 48.0711 37.7658 47.6735 36.7206C47.2759 35.6753 46.6771 34.7203 45.9117 33.9108C45.1464 33.1014 44.2299 32.4537 43.2152 32.0052C42.2005 31.5567 41.1078 31.3164 40.0006 31.2982Z" fill="#D40054"/>
</g>
</g>
<defs>
<clipPath id="clip0_13_3257">
<rect width="76" height="42" fill="white" transform="translate(2 19)"/>
</clipPath>
</defs>
</svg>
