<svg width="76" height="77" viewBox="0 0 76 77" fill="none" xmlns="http://www.w3.org/2000/svg">
<g clip-path="url(#clip0_21_6051)">
<mask id="mask0_21_6051" style="mask-type:luminance" maskUnits="userSpaceOnUse" x="0" y="0" width="76" height="77">
<path d="M76 0H0V77H76V0Z" fill="white"/>
</mask>
<g mask="url(#mask0_21_6051)">
<path d="M0.774931 12.888C0.67388 12.8899 0.573446 12.8718 0.479511 12.8345C0.385577 12.7973 0.299999 12.7416 0.227841 12.671C0.155682 12.6003 0.0983334 12.516 0.0592113 12.4229C0.0200892 12.3298 -1.94171e-05 12.2299 1.40691e-08 12.129V0.759064C-1.94171e-05 0.658127 0.0200892 0.558196 0.0592113 0.465128C0.0983334 0.372059 0.155682 0.287693 0.227841 0.217017C0.299999 0.14634 0.385577 0.0907728 0.479511 0.0535172C0.573446 0.0162617 0.67388 -0.0019172 0.774931 6.19416e-05H12.3537C12.5258 0.0346127 12.6807 0.127604 12.7919 0.263251C12.9032 0.398898 12.964 0.568833 12.964 0.744167C12.964 0.919501 12.9032 1.08944 12.7919 1.22508C12.6807 1.36073 12.5258 1.45372 12.3537 1.48827H1.4902V12.0992C1.49022 12.2002 1.47011 12.3001 1.43098 12.3932C1.39186 12.4862 1.33451 12.5705 1.26236 12.6412C1.1902 12.7119 1.10462 12.7675 1.01068 12.8048C0.91675 12.842 0.816317 12.8602 0.715265 12.8582" fill="white"/>
<path d="M75.2242 77H63.6455C63.4733 76.9654 63.3185 76.8725 63.2072 76.7368C63.096 76.6012 63.0352 76.4312 63.0352 76.2559C63.0352 76.0806 63.096 75.9106 63.2072 75.775C63.3185 75.6393 63.4733 75.5463 63.6455 75.5118H74.509V64.9008C74.5089 64.7999 74.529 64.7 74.5682 64.6069C74.6073 64.5138 74.6646 64.4295 74.7368 64.3588C74.809 64.2882 74.8945 64.2326 74.9885 64.1953C75.0824 64.158 75.1828 64.1399 75.2839 64.1419C75.3849 64.1399 75.4854 64.158 75.5793 64.1953C75.6732 64.2326 75.7587 64.2882 75.8309 64.3588C75.903 64.4295 75.9604 64.5138 75.9995 64.6069C76.0386 64.7 76.0587 64.7999 76.0587 64.9008V76.2708C76.0587 76.3717 76.0386 76.4717 75.9995 76.5647C75.9604 76.6578 75.903 76.7421 75.8309 76.8128C75.7587 76.8835 75.6732 76.9391 75.5793 76.9763C75.4854 77.0136 75.3849 77.0318 75.2839 77.0298" fill="white"/>
<path d="M14.8127 40.0626C14.3766 40.0328 13.939 40.0928 13.5271 40.239C13.1152 40.3852 12.7378 40.6143 12.4183 40.9123C12.0988 41.2103 11.8441 41.5707 11.6699 41.9711C11.4957 42.3715 11.4059 42.8034 11.4059 43.2399C11.4059 43.6765 11.4957 44.1084 11.6699 44.5088C11.8441 44.9092 12.0988 45.2696 12.4183 45.5676C12.7378 45.8655 13.1152 46.0947 13.5271 46.2409C13.939 46.3871 14.3766 46.4471 14.8127 46.4173H65.7625C66.1987 46.4471 66.6363 46.3871 67.0482 46.2409C67.4601 46.0947 67.8375 45.8655 68.157 45.5676C68.4765 45.2696 68.7312 44.9092 68.9054 44.5088C69.0796 44.1084 69.1694 43.6765 69.1694 43.2399C69.1694 42.8034 69.0796 42.3715 68.9054 41.9711C68.7312 41.5707 68.4765 41.2103 68.157 40.9123C67.8375 40.6143 67.4601 40.3852 67.0482 40.239C66.6363 40.0928 66.1987 40.0328 65.7625 40.0626H14.8127ZM65.7625 47.9799H14.8127C14.1671 48.016 13.5208 47.9202 12.9135 47.6983C12.3062 47.4765 11.7506 47.1332 11.2807 46.6895C10.8108 46.2458 10.4365 45.711 10.1807 45.1179C9.9249 44.5248 9.79297 43.8858 9.79297 43.2399C9.79297 42.5941 9.9249 41.9551 10.1807 41.362C10.4365 40.7688 10.8108 40.2341 11.2807 39.7904C11.7506 39.3467 12.3062 39.0034 12.9135 38.7815C13.5208 38.5597 14.1671 38.4639 14.8127 38.5H65.7625C66.4082 38.4639 67.0545 38.5597 67.6618 38.7815C68.2691 39.0034 68.8247 39.3467 69.2946 39.7904C69.7645 40.2341 70.1388 40.7688 70.3946 41.362C70.6504 41.9551 70.7823 42.5941 70.7823 43.2399C70.7823 43.8858 70.6504 44.5248 70.3946 45.1179C70.1388 45.711 69.7645 46.2458 69.2946 46.6895C68.8247 47.1332 68.2691 47.4765 67.6618 47.6983C67.0545 47.9202 66.4082 48.016 65.7625 47.9799Z" fill="white"/>
<path d="M17.883 38.3512H62.7527L55.6446 15.0756C55.3563 14.1151 54.8439 13.2366 54.1496 12.5122C53.4554 11.7878 52.599 11.2382 51.6508 10.9086C50.7103 10.5764 49.7038 10.4747 48.7157 10.6119C47.7277 10.7492 46.7871 11.1214 45.9731 11.6973C44.3145 12.8536 42.3406 13.4736 40.3178 13.4736C38.2951 13.4736 36.3212 12.8536 34.6626 11.6973C33.8486 11.1214 32.9081 10.7492 31.92 10.6119C30.932 10.4747 29.9254 10.5764 28.9849 10.9086C28.0355 11.2361 27.178 11.785 26.4834 12.5097C25.7889 13.2344 25.2773 14.114 24.9912 15.0756L17.883 38.3512ZM63.8108 39.9287H16.7951C16.6721 39.9288 16.5508 39.899 16.4418 39.842C16.3328 39.785 16.2392 39.7024 16.1692 39.6012C16.0949 39.5026 16.0454 39.3877 16.0247 39.266C16.0039 39.1443 16.0126 39.0194 16.05 38.9018L23.501 14.6142C23.8581 13.416 24.4958 12.32 25.3613 11.4168C26.2268 10.5136 27.2953 9.82923 28.4782 9.42035C29.6523 9.0009 30.9105 8.87118 32.1456 9.04221C33.3807 9.21323 34.5561 9.67993 35.5716 10.4026C36.9678 11.3764 38.6297 11.8986 40.3328 11.8986C42.0358 11.8986 43.6977 11.3764 45.0939 10.4026C46.1105 9.6935 47.2832 9.23947 48.5127 9.07886C49.7423 8.91825 50.9924 9.0558 52.1575 9.47989C53.3395 9.88753 54.4067 10.5717 55.27 11.4752C56.1333 12.3788 56.7675 13.4755 57.1198 14.6737L64.5708 38.9613C64.6082 39.079 64.6169 39.2038 64.5962 39.3255C64.5755 39.4472 64.5259 39.5621 64.4516 39.6608C64.3816 39.7619 64.2881 39.8445 64.1791 39.9015C64.0701 39.9586 63.9488 39.9883 63.8257 39.9882" fill="white"/>
<path d="M26.0781 34.7795H25.8248C25.6331 34.7059 25.4776 34.5606 25.3914 34.3745C25.3051 34.1883 25.2949 33.9759 25.3628 33.7824L29.6694 21.0582C29.6995 20.9619 29.749 20.8728 29.8147 20.7962C29.8803 20.7196 29.9609 20.6572 30.0515 20.6127C30.1421 20.5681 30.2408 20.5424 30.3416 20.5371C30.4425 20.5319 30.5433 20.5471 30.6381 20.582C30.8325 20.6526 30.9914 20.7967 31.0806 20.9832C31.1697 21.1697 31.1821 21.3836 31.1149 21.5791L26.8232 34.2438C26.7726 34.3967 26.6746 34.5297 26.5433 34.6233C26.412 34.7169 26.2543 34.7664 26.093 34.7646" fill="white"/>
<path d="M26.8235 52.5041C25.2365 52.4834 23.6792 52.9345 22.3496 53.8C21.0199 54.6655 19.978 55.9062 19.3563 57.3646C18.7346 58.8229 18.5612 60.433 18.8581 61.99C19.155 63.547 19.9088 64.9808 21.0237 66.1089C22.1386 67.237 23.5641 68.0085 25.1192 68.3254C26.6743 68.6423 28.2886 68.4902 29.757 67.8886C31.2253 67.2869 32.4813 66.2627 33.3653 64.9463C34.2493 63.6299 34.7214 62.0808 34.7215 60.4957C34.7334 58.3906 33.9085 56.3668 32.4278 54.8684C30.947 53.3701 28.9314 52.5198 26.8235 52.5041ZM26.8235 70.0649C24.9229 70.0915 23.0573 69.5529 21.464 68.5178C19.8707 67.4826 18.6217 65.9975 17.8759 64.2515C17.13 62.5054 16.921 60.5773 17.2755 58.7123C17.6299 56.8473 18.5318 55.1298 19.8663 53.7781C21.2009 52.4264 22.9078 51.5016 24.7701 51.1214C26.6324 50.7412 28.5659 50.9227 30.3246 51.6429C32.0833 52.363 33.5877 53.5893 34.6467 55.1657C35.7056 56.7422 36.2712 58.5975 36.2714 60.4957C36.2873 63.0153 35.3012 65.4382 33.5298 67.2323C31.7584 69.0265 29.3464 70.0453 26.8235 70.0649Z" fill="white"/>
<path d="M53.7356 52.5041C52.1486 52.4834 50.5913 52.9345 49.2617 53.8C47.932 54.6655 46.8902 55.9062 46.2684 57.3646C45.6467 58.8229 45.4733 60.433 45.7702 61.99C46.0671 63.547 46.8209 64.9808 47.9358 66.1089C49.0507 67.237 50.4763 68.0085 52.0314 68.3254C53.5865 68.6423 55.2008 68.4902 56.6691 67.8886C58.1374 67.2869 59.3934 66.2627 60.2774 64.9463C61.1614 63.6299 61.6335 62.0808 61.6336 60.4957C61.6455 58.3906 60.8206 56.3668 59.3399 54.8684C57.8591 53.3701 55.8435 52.5198 53.7356 52.5041ZM53.7356 70.0649C51.835 70.0915 49.9694 69.5529 48.3761 68.5178C46.7828 67.4826 45.5338 65.9975 44.788 64.2515C44.0421 62.5054 43.8332 60.5773 44.1876 58.7123C44.542 56.8473 45.4439 55.1298 46.7784 53.7781C48.113 52.4264 49.82 51.5016 51.6823 51.1214C53.5446 50.7412 55.478 50.9227 57.2367 51.6429C58.9954 52.363 60.4999 53.5893 61.5589 55.1657C62.6178 56.7422 63.1833 58.5975 63.1835 60.4957C63.1994 63.0153 62.2133 65.4382 60.4419 67.2323C58.6705 69.0265 56.2585 70.0453 53.7356 70.0649Z" fill="white"/>
<path d="M44.9154 61.2101C44.7612 61.2094 44.6107 61.1627 44.4832 61.0762C43.2657 60.2006 41.8035 59.7295 40.3032 59.7295C38.8029 59.7295 37.3406 60.2006 36.1232 61.0762C35.9591 61.1926 35.7566 61.242 35.5572 61.2144C35.3578 61.1867 35.1765 61.084 35.0503 60.9273C34.9877 60.8506 34.941 60.7621 34.9131 60.667C34.8851 60.572 34.8764 60.4724 34.8875 60.374C34.8986 60.2756 34.9293 60.1804 34.9777 60.0939C35.0261 60.0075 35.0913 59.9316 35.1695 59.8707C36.6568 58.8035 38.4421 58.2295 40.2734 58.2295C42.1048 58.2295 43.89 58.8035 45.3773 59.8707C45.4579 59.9271 45.5265 59.9988 45.5792 60.0819C45.6318 60.1649 45.6675 60.2575 45.6841 60.3544C45.7008 60.4512 45.698 60.5504 45.676 60.6462C45.6541 60.7419 45.6133 60.8325 45.5562 60.9124C45.4821 61.0129 45.3857 61.0949 45.2745 61.1517C45.1633 61.2085 45.0403 61.2387 44.9154 61.2398" fill="white"/>
<path d="M57.5211 43.9469H17.2859C17.0867 43.955 16.8924 43.8847 16.7447 43.7511C16.5969 43.6174 16.5077 43.4312 16.4961 43.2325C16.5077 43.0338 16.5969 42.8476 16.7447 42.714C16.8924 42.5804 17.0867 42.51 17.2859 42.5182H57.5211C57.7203 42.51 57.9147 42.5804 58.0624 42.714C58.2101 42.8476 58.2994 43.0338 58.311 43.2325C58.2994 43.4312 58.2101 43.6174 58.0624 43.7511C57.9147 43.8847 57.7203 43.955 57.5211 43.9469Z" fill="white"/>
</g>
</g>
<defs>
<clipPath id="clip0_21_6051">
<rect width="76" height="77" fill="white"/>
</clipPath>
</defs>
</svg>
