<svg width="86" height="94" viewBox="0 0 86 94" fill="none" xmlns="http://www.w3.org/2000/svg">
<g clip-path="url(#clip0_9_2079)">
<mask id="mask0_9_2079" style="mask-type:luminance" maskUnits="userSpaceOnUse" x="0" y="0" width="86" height="94">
<path d="M86 0H0V93.9919H86V0Z" fill="white"/>
</mask>
<g mask="url(#mask0_9_2079)">
<path d="M84.7824 93.9918H1.22667C0.902866 93.9919 0.5922 93.8632 0.362483 93.634C0.132765 93.4048 0.00263177 93.0936 0.000501489 92.7683V37.5238C-0.0282453 37.3475 -0.0184695 37.1671 0.0291075 36.9951C0.0766844 36.823 0.160918 36.6634 0.276025 36.5273C0.391132 36.3912 0.534348 36.2818 0.69571 36.2068C0.857072 36.1319 1.03273 36.093 1.21052 36.093C1.38831 36.093 1.56397 36.1319 1.72533 36.2068C1.88669 36.2818 2.02991 36.3912 2.14501 36.5273C2.26012 36.6634 2.3444 36.823 2.39198 36.9951C2.43956 37.1671 2.44928 37.3475 2.42054 37.5238V91.5367H83.5563V37.5238C83.5275 37.3475 83.5373 37.1671 83.5848 36.9951C83.6324 36.823 83.7167 36.6634 83.8318 36.5273C83.9469 36.3912 84.0901 36.2818 84.2515 36.2068C84.4128 36.1319 84.5885 36.093 84.7663 36.093C84.9441 36.093 85.1197 36.1319 85.2811 36.2068C85.4425 36.2818 85.5857 36.3912 85.7008 36.5273C85.8159 36.6634 85.9001 36.823 85.9477 36.9951C85.9953 37.1671 86.0051 37.3475 85.9763 37.5238V92.7683C85.9742 93.0922 85.8452 93.4021 85.6172 93.6311C85.3892 93.8601 85.0806 93.9897 84.7582 93.9918" fill="#3F3F3F"/>
<path d="M84.7739 93.9919C84.5359 93.9911 84.3032 93.9207 84.1043 93.7893L42.9637 66.6127L1.82312 93.7893C1.55295 93.9406 1.23583 93.9837 0.935347 93.91C0.634867 93.8363 0.37321 93.6513 0.202818 93.392C0.0324257 93.1327 -0.0340928 92.8183 0.0165591 92.5118C0.0672111 92.2053 0.23132 91.9294 0.475978 91.7393L42.2538 64.117C42.4542 63.9859 42.6883 63.9161 42.9274 63.9161C43.1666 63.9161 43.4006 63.9859 43.601 64.117L85.3789 91.7393C85.596 91.8864 85.7605 92.0995 85.8483 92.3473C85.9361 92.5952 85.9426 92.8647 85.8668 93.1165C85.7911 93.3683 85.6371 93.5892 85.4273 93.7467C85.2176 93.9042 84.9631 93.9901 84.7013 93.9919" fill="#3F3F3F"/>
<path d="M30.9116 58.3803C30.6733 58.3819 30.4399 58.3114 30.2421 58.1778L0.548238 38.5448C0.30358 38.3547 0.139471 38.0788 0.0888187 37.7723C0.0381668 37.4658 0.104735 37.1514 0.275127 36.8921C0.445519 36.6328 0.707176 36.4478 1.00766 36.3741C1.30814 36.3005 1.62521 36.3435 1.89538 36.4948L31.5812 56.1278C31.7977 56.2745 31.962 56.4869 32.05 56.7339C32.138 56.9809 32.1451 57.2498 32.0704 57.5012C31.9957 57.7526 31.8429 57.9735 31.6345 58.1316C31.4261 58.2897 31.1728 58.3769 30.9116 58.3803Z" fill="#3F3F3F"/>
<path d="M84.7819 93.9919H1.22617C0.902364 93.9919 0.591699 93.8633 0.361981 93.634C0.132264 93.4048 0.00213028 93.0936 0 92.7684V37.5238C0.00256926 37.1917 0.136008 36.8742 0.37109 36.6406L12.6245 24.7215C12.8567 24.4947 13.1689 24.37 13.4927 24.3745C13.8164 24.3791 14.1251 24.5126 14.3508 24.7458C14.5765 24.9789 14.7008 25.2926 14.6962 25.6178C14.6917 25.943 14.5587 26.2531 14.3266 26.4798L2.44426 38.0424V91.5205H83.5558V37.5238C83.527 37.3476 83.5368 37.1672 83.5843 36.9951C83.6319 36.823 83.7162 36.6634 83.8313 36.5273C83.9464 36.3912 84.0896 36.2819 84.251 36.2069C84.4123 36.1319 84.588 36.0931 84.7658 36.0931C84.9436 36.0931 85.1192 36.1319 85.2806 36.2069C85.442 36.2819 85.5852 36.3912 85.7003 36.5273C85.8154 36.6634 85.8996 36.823 85.9472 36.9951C85.9948 37.1672 86.0046 37.3476 85.9758 37.5238V92.7684C85.9737 93.0922 85.8447 93.4022 85.6167 93.6312C85.3887 93.8602 85.0801 93.9898 84.7577 93.9919" fill="#3F3F3F"/>
<path d="M55.0969 58.3802C54.835 58.3785 54.5806 58.2926 54.3708 58.135C54.1611 57.9775 54.0071 57.7567 53.9313 57.5049C53.8556 57.2531 53.8621 56.9835 53.9499 56.7357C54.0377 56.4879 54.2022 56.2748 54.4193 56.1277L82.653 37.4427L68.7055 26.5688C68.4499 26.3701 68.2833 26.0774 68.2425 25.7553C68.2016 25.4331 68.2899 25.1079 68.4878 24.8511C68.6857 24.5943 68.977 24.4269 69.2977 24.3859C69.6185 24.3449 69.9423 24.4335 70.1979 24.6323L85.5248 36.5514C85.6798 36.6708 85.804 36.8259 85.8868 37.0036C85.9696 37.1813 86.0087 37.3764 86.0007 37.5724C85.9941 37.7669 85.9408 37.9568 85.8452 38.1261C85.7497 38.2954 85.6149 38.4391 85.4522 38.5447L55.7664 58.1777C55.5676 58.309 55.3349 58.3794 55.0969 58.3802Z" fill="#3F3F3F"/>
<path d="M47.1917 21.5371C47.1902 22.1041 47.0213 22.6578 46.7066 23.1285C46.3918 23.5991 45.9453 23.9655 45.4233 24.1814C44.9014 24.3972 44.3275 24.4529 43.7741 24.3413C43.2207 24.2297 42.7126 23.9559 42.314 23.5544C41.9154 23.1529 41.6443 22.6418 41.5348 22.0856C41.4252 21.5294 41.4822 20.9531 41.6986 20.4295C41.915 19.9058 42.281 19.4583 42.7504 19.1435C43.2199 18.8287 43.7717 18.6606 44.3361 18.6606C44.7118 18.6606 45.0838 18.7351 45.4308 18.8798C45.7778 19.0244 46.0929 19.2364 46.3582 19.5036C46.6235 19.7708 46.8336 20.088 46.9767 20.437C47.1197 20.7859 47.1928 21.1597 47.1917 21.5371Z" fill="#D40054"/>
<path d="M40.2367 21.5371C40.2351 22.1041 40.0662 22.6578 39.7515 23.1285C39.4367 23.5991 38.9902 23.9655 38.4683 24.1814C37.9463 24.3972 37.3724 24.4529 36.819 24.3413C36.2656 24.2297 35.7575 23.9559 35.3589 23.5544C34.9604 23.1529 34.6892 22.6418 34.5797 22.0856C34.4701 21.5294 34.5272 20.9531 34.7435 20.4295C34.9599 19.9058 35.3259 19.4583 35.7954 19.1435C36.2648 18.8287 36.8166 18.6606 37.381 18.6606C37.7567 18.6606 38.1287 18.7351 38.4757 18.8798C38.8227 19.0244 39.1378 19.2364 39.4031 19.5036C39.6684 19.7708 39.8786 20.088 40.0216 20.437C40.1646 20.7859 40.2377 21.1597 40.2367 21.5371Z" fill="#D40054"/>
<path d="M40.9549 13.3128C35.5099 13.3128 32.2509 16.7241 32.2509 22.4365C32.2509 28.8053 36.1552 33.9991 40.9549 33.9991C45.7547 33.9991 49.659 28.8053 49.659 22.4365C49.659 16.7646 46.4323 13.3128 40.9549 13.3128ZM40.9549 36.4542C34.8081 36.4542 29.8066 30.1584 29.8066 22.4365C29.8066 15.4033 34.1869 10.8577 40.9549 10.8577C47.723 10.8577 52.1032 15.4033 52.1032 22.4365C52.1032 30.1584 47.1018 36.4542 40.9549 36.4542Z" fill="#D40054"/>
<path d="M23.9832 33.1646C23.6121 33.1625 23.2454 33.2445 22.9102 33.4044C22.575 33.5643 22.28 33.7981 22.0472 34.0883C21.796 34.3955 21.6209 34.7582 21.5364 35.1466C21.452 35.535 21.4605 35.9379 21.5613 36.3224C21.6621 36.7068 21.8523 37.0617 22.1163 37.3579C22.3803 37.6541 22.7104 37.8832 23.0797 38.0262C23.6376 38.2346 24.1297 38.5897 24.5043 39.0544C24.8789 39.519 25.1224 40.0762 25.2093 40.6677C25.2995 41.3116 25.6385 41.8939 26.1531 42.2883C26.5584 42.6037 27.0504 42.7864 27.5625 42.8116C28.0746 42.8368 28.582 42.7033 29.016 42.4292C29.4501 42.1551 29.7897 41.7535 29.989 41.279C30.1883 40.8045 30.2375 40.28 30.1301 39.7764C29.9904 39.1595 30.0235 38.5157 30.2257 37.9165C30.4279 37.3173 30.7913 36.7859 31.2756 36.3814L34.4297 33.829C33.3586 32.8402 32.4589 31.6791 31.7676 30.3934L28.5409 32.9944C28.0431 33.3826 27.4482 33.6252 26.8219 33.6952C26.1956 33.7653 25.5621 33.6602 24.9915 33.3915C24.6672 33.2541 24.319 33.1825 23.9671 33.1808M27.6778 45.262C26.4941 45.268 25.3477 44.8467 24.4475 44.0748C23.5472 43.3029 22.953 42.2318 22.7732 41.0567C22.7524 40.8942 22.6872 40.7407 22.5846 40.6133C22.4821 40.486 22.3462 40.3898 22.1924 40.3355C21.5618 40.1074 20.9839 39.753 20.4936 39.294C20.0034 38.8349 19.611 38.2807 19.3402 37.6649C19.0695 37.0491 18.9259 36.3845 18.9183 35.7113C18.9107 35.0381 19.0392 34.3704 19.296 33.7486C19.5528 33.1267 19.9326 32.5637 20.4123 32.0936C20.8921 31.6235 21.4619 31.2561 22.0871 31.0137C22.7123 30.7712 23.3801 30.6587 24.0499 30.683C24.7197 30.7073 25.3776 30.8679 25.9838 31.1551C26.1451 31.2371 26.3256 31.2737 26.506 31.2608C26.6864 31.248 26.86 31.1862 27.0082 31.0822L31.4127 27.5089C31.5615 27.3917 31.735 27.3104 31.92 27.2712C32.105 27.2321 32.2965 27.2362 32.4797 27.2832C32.6629 27.3302 32.8329 27.4188 32.9766 27.5422C33.1203 27.6656 33.2338 27.8205 33.3084 27.995C34.0604 29.9306 35.3655 31.5995 37.0594 32.7919C37.2191 32.8982 37.3513 33.041 37.4453 33.2086C37.5392 33.3762 37.5922 33.5639 37.5999 33.7561C37.6075 33.9473 37.5706 34.1377 37.4922 34.3121C37.4138 34.4865 37.296 34.6401 37.1482 34.7608L32.7921 38.2936C32.6601 38.417 32.5639 38.5743 32.5142 38.7485C32.4645 38.9227 32.4629 39.1072 32.5098 39.2822C32.6581 40.0046 32.6446 40.7512 32.4703 41.4677C32.296 42.1843 31.9652 42.853 31.502 43.4253C31.0387 43.9977 30.4545 44.4594 29.7917 44.7771C29.1289 45.0947 28.4041 45.2604 27.6697 45.262" fill="#D40054"/>
<path d="M50.2243 15.4196C51.0505 16.7155 51.5999 18.1695 51.8376 19.6897L53.33 18.4743C53.8278 18.0861 54.4227 17.8436 55.049 17.7735C55.6753 17.7035 56.3088 17.8086 56.8794 18.0773C57.1852 18.2151 57.5154 18.29 57.8506 18.2975C58.1857 18.305 58.5189 18.245 58.8305 18.1209C59.1422 17.9969 59.4259 17.8114 59.665 17.5754C59.9041 17.3394 60.0936 17.0576 60.2225 16.7468C60.3513 16.436 60.4169 16.1024 60.4152 15.7657C60.4135 15.429 60.3447 15.096 60.2128 14.7865C60.0809 14.4769 59.8885 14.1971 59.6471 13.9635C59.4057 13.7299 59.1202 13.5472 58.8074 13.4263C58.2494 13.2179 57.7574 12.8628 57.3828 12.3982C57.0081 11.9335 56.7647 11.3763 56.6777 10.7848C56.5876 10.1409 56.2485 9.55869 55.7339 9.16425C55.3292 8.84988 54.8381 8.66778 54.3271 8.64252C53.8161 8.61726 53.3096 8.75004 52.8761 9.02298C52.4426 9.29591 52.1029 9.69586 51.9027 10.1688C51.7026 10.6418 51.6518 11.1651 51.757 11.668C51.8973 12.2862 51.8645 12.9313 51.6624 13.5319C51.4602 14.1326 51.0965 14.6653 50.6115 15.0712L50.2243 15.4196ZM50.8615 23.2954C50.6857 23.2976 50.5117 23.2588 50.3533 23.182C50.1449 23.087 49.9675 22.9345 49.8419 22.7424C49.7162 22.5502 49.6474 22.3261 49.6435 22.0962C49.7021 19.8929 48.9819 17.7399 47.6107 16.0192C47.5028 15.8944 47.4214 15.7489 47.3715 15.5914C47.3216 15.434 47.3042 15.268 47.3203 15.1036C47.3363 14.9455 47.3838 14.7923 47.46 14.6531C47.5362 14.5139 47.6396 14.3915 47.7639 14.2933L49.103 13.2075C49.2366 13.0852 49.3337 12.928 49.3836 12.7534C49.4334 12.5789 49.434 12.3938 49.3854 12.219C49.161 11.1549 49.2923 10.0461 49.759 9.06462C50.2257 8.08311 51.0017 7.28365 51.9667 6.79015C52.6634 6.42885 53.4357 6.23915 54.2198 6.23672C55.0039 6.23428 55.7774 6.41918 56.4763 6.77615C57.1753 7.13312 57.7797 7.6519 58.2397 8.28973C58.6997 8.92756 59.0021 9.66612 59.1219 10.4445C59.1426 10.607 59.2079 10.7605 59.3105 10.8878C59.4131 11.0152 59.5489 11.1113 59.7028 11.1656C60.3333 11.3938 60.9112 11.7481 61.4015 12.2072C61.8917 12.6662 62.2841 13.2204 62.5549 13.8362C62.8257 14.4521 62.9692 15.1167 62.9768 15.7898C62.9844 16.463 62.8559 17.1307 62.5991 17.7526C62.3423 18.3744 61.9625 18.9374 61.4828 19.4075C61.003 19.8776 60.4333 20.245 59.808 20.4875C59.1828 20.73 58.515 20.8424 57.8452 20.8181C57.1755 20.7938 56.5176 20.6332 55.9114 20.346C55.7522 20.2611 55.5725 20.2229 55.3927 20.2358C55.213 20.2487 55.0405 20.3122 54.8949 20.419L51.6682 23.0605C51.4386 23.2414 51.1533 23.336 50.8615 23.3278" fill="#D40054"/>
<path d="M47.4982 33.8128L50.6523 36.3652C51.1366 36.7697 51.4999 37.301 51.7021 37.9003C51.9043 38.4995 51.9374 39.1433 51.7978 39.7602C51.6933 40.264 51.7449 40.7878 51.9455 41.2613C52.1462 41.7347 52.4864 42.1351 52.9203 42.4086C53.3542 42.6822 53.8611 42.8157 54.3729 42.7913C54.8846 42.7669 55.3766 42.5857 55.7828 42.272C56.2924 41.8744 56.6279 41.2932 56.7185 40.6515C56.8054 40.06 57.0489 39.5028 57.4236 39.0381C57.7982 38.5735 58.2902 38.2184 58.8481 38.01C59.161 37.8891 59.4465 37.7064 59.6879 37.4728C59.9293 37.2392 60.1217 36.9594 60.2536 36.6498C60.3855 36.3403 60.4543 36.0074 60.456 35.6707C60.4577 35.334 60.3921 35.0003 60.2633 34.6895C60.1344 34.3787 59.9449 34.0969 59.7058 33.8609C59.4667 33.6249 59.183 33.4394 58.8713 33.3154C58.5597 33.1914 58.2265 33.1313 57.8913 33.1388C57.5562 33.1463 57.226 33.2212 56.9202 33.359C56.3496 33.6277 55.7161 33.7328 55.0898 33.6628C54.4634 33.5927 53.8686 33.3502 53.3708 32.962L50.1441 30.361C49.4588 31.651 48.5646 32.8175 47.4982 33.8128ZM54.2339 45.2458C53.4995 45.2441 52.7747 45.0785 52.1119 44.7609C51.4491 44.4432 50.8649 43.9815 50.4017 43.4091C49.9384 42.8368 49.6076 42.1681 49.4333 41.4515C49.259 40.7349 49.2455 39.9884 49.3938 39.2659C49.4407 39.0909 49.4392 38.9064 49.3895 38.7323C49.3397 38.5581 49.2436 38.4008 49.1115 38.2774L44.7554 34.7446C44.6076 34.6239 44.4898 34.4702 44.4114 34.2958C44.333 34.1214 44.2961 33.9311 44.3037 33.7399C44.3114 33.5476 44.3644 33.36 44.4584 33.1924C44.5523 33.0248 44.6846 32.8819 44.8442 32.7756C46.5382 31.5833 47.8432 29.9143 48.5952 27.9788C48.6699 27.8043 48.7834 27.6494 48.9271 27.526C49.0708 27.4025 49.2407 27.3139 49.4239 27.2669C49.6071 27.2199 49.7986 27.2159 49.9836 27.255C50.1686 27.2941 50.3422 27.3754 50.491 27.4926L54.8954 31.066C55.0425 31.1725 55.2163 31.2358 55.3973 31.2487C55.5783 31.2616 55.7593 31.2236 55.9199 31.1389C56.5261 30.8517 57.184 30.6911 57.8538 30.6668C58.5236 30.6425 59.1913 30.755 59.8166 30.9974C60.4418 31.2399 61.0116 31.6073 61.4913 32.0774C61.9711 32.5475 62.3508 33.1105 62.6076 33.7323C62.8644 34.3542 62.993 35.0219 62.9854 35.6951C62.9778 36.3682 62.8342 37.0328 62.5634 37.6487C62.2926 38.2645 61.9002 38.8187 61.41 39.2778C60.9197 39.7368 60.3419 40.0911 59.7113 40.3193C59.5574 40.3736 59.4216 40.4698 59.319 40.5971C59.2165 40.7245 59.1512 40.878 59.1305 41.0404C58.9475 42.2141 58.3524 43.2833 57.4528 44.0546C56.5532 44.8259 55.4086 45.2485 54.2259 45.2458" fill="#D40054"/>
<path d="M26.5233 17.7531C27.2764 17.7462 28.0088 18.001 28.5965 18.4742L30.0888 19.6896C30.3279 18.1698 30.8772 16.716 31.7022 15.4195L31.2907 15.0873C30.8064 14.6827 30.4431 14.1514 30.2409 13.5522C30.0388 12.9529 30.0056 12.3092 30.1453 11.6922C30.2527 11.1887 30.2035 10.6641 30.0042 10.1896C29.8049 9.71512 29.4653 9.3136 29.0313 9.03946C28.5972 8.76533 28.0898 8.63182 27.5777 8.65703C27.0656 8.68223 26.5736 8.86492 26.1684 9.18036C25.6538 9.5748 25.3147 10.1571 25.2246 10.8009C25.1376 11.3924 24.8941 11.9496 24.5195 12.4143C24.1449 12.879 23.6529 13.234 23.0949 13.4424C22.7821 13.5633 22.4965 13.746 22.2551 13.9796C22.0137 14.2132 21.8214 14.4931 21.6895 14.8026C21.5576 15.1121 21.4887 15.4451 21.4871 15.7818C21.4854 16.1185 21.5509 16.4521 21.6798 16.7629C21.8086 17.0738 21.9982 17.3555 22.2373 17.5915C22.4763 17.8275 22.7601 18.013 23.0717 18.1371C23.3834 18.2611 23.7166 18.3211 24.0517 18.3136C24.3868 18.3061 24.7171 18.2312 25.0229 18.0934C25.4862 17.8804 25.9896 17.7699 26.4991 17.7693M31.0649 23.3116C30.7727 23.3233 30.4861 23.2283 30.2582 23.0442L27.0315 20.4027C26.8844 20.2961 26.7106 20.2328 26.5296 20.2199C26.3486 20.207 26.1677 20.2451 26.007 20.3298C25.0204 20.775 23.9153 20.8814 22.8625 20.6324C21.8097 20.3834 20.868 19.7929 20.1828 18.9523C19.6829 18.3442 19.3343 17.6253 19.1659 16.8551C18.9975 16.0848 19.0141 15.2853 19.2143 14.5228C19.4145 13.7603 19.7926 13.0566 20.3173 12.47C20.842 11.8833 21.4983 11.4306 22.2318 11.1493C22.3841 11.0938 22.5183 10.9971 22.6193 10.8699C22.7204 10.7426 22.7845 10.5897 22.8045 10.4282C22.9948 9.17836 23.6562 8.04983 24.6518 7.27621C25.45 6.64832 26.421 6.28205 27.4334 6.22699C28.4457 6.17194 29.4505 6.43077 30.3115 6.96843C31.1725 7.50609 31.8482 8.29658 32.247 9.23283C32.6458 10.1691 32.7485 11.2059 32.5411 12.2027C32.4924 12.3776 32.4931 12.5626 32.5429 12.7371C32.5928 12.9117 32.6899 13.0689 32.8235 13.1912L34.1625 14.277C34.2869 14.3752 34.3902 14.4976 34.4664 14.6368C34.5427 14.776 34.5902 14.9292 34.6062 15.0873C34.6223 15.2517 34.6049 15.4177 34.5549 15.5751C34.505 15.7326 34.4236 15.8781 34.3158 16.0029C32.9445 17.7236 32.2244 19.8766 32.283 22.08C32.279 22.3098 32.2102 22.5339 32.0846 22.7261C31.9589 22.9183 31.7816 23.0707 31.5731 23.1657C31.4147 23.2425 31.2408 23.2813 31.0649 23.2791" fill="#D40054"/>
<path d="M69.4794 48.8677C69.1556 48.8677 68.8449 48.739 68.6152 48.5098C68.3855 48.2806 68.2554 47.9694 68.2532 47.6442V2.45513H14.6979V45.6185C14.7266 45.7947 14.7169 45.9751 14.6693 46.1472C14.6217 46.3193 14.5374 46.4789 14.4223 46.615C14.3072 46.7511 14.164 46.8604 14.0027 46.9354C13.8413 47.0104 13.6657 47.0492 13.4879 47.0492C13.3101 47.0492 13.1344 47.0104 12.973 46.9354C12.8117 46.8604 12.6685 46.7511 12.5534 46.615C12.4383 46.4789 12.354 46.3193 12.3064 46.1472C12.2588 45.9751 12.2491 45.7947 12.2779 45.6185V1.2235C12.2779 0.899002 12.4062 0.587806 12.6346 0.358353C12.8631 0.128899 13.1728 0 13.4959 0H69.5036C69.8267 0 70.1365 0.128899 70.3649 0.358353C70.5934 0.587806 70.7217 0.899002 70.7217 1.2235V47.6442C70.7196 47.968 70.5906 48.278 70.3626 48.507C70.1346 48.736 69.826 48.8656 69.5036 48.8677" fill="#3F3F3F"/>
</g>
</g>
<defs>
<clipPath id="clip0_9_2079">
<rect width="86" height="94" fill="white"/>
</clipPath>
</defs>
</svg>
