<svg width="100" height="100" viewBox="0 0 100 100" fill="none" xmlns="http://www.w3.org/2000/svg">
<path d="M50.1951 69.8683C39.6807 69.8683 31.1211 60.9146 31.1211 49.9273C31.1211 38.94 39.6807 29.939 50.1951 29.939C60.7095 29.939 69.2692 38.8927 69.2692 49.8958C69.2692 60.8988 60.7095 69.8368 50.1951 69.8368M91.4644 49.344C91.4476 49.2522 91.4212 49.1624 91.3856 49.0761C90.96 48.2091 80.5245 28 49.3597 28C25.0678 28 10.1238 47.4997 9.19371 48.7608C9.15278 48.83 9.12099 48.9041 9.09914 48.9815C9.0267 49.1027 8.96348 49.2292 8.90998 49.3598C8.90219 49.47 8.90219 49.5806 8.90998 49.6908C8.89459 49.8059 8.89459 49.9226 8.90998 50.0377C8.9319 50.1778 8.9689 50.3153 9.02034 50.4475C9.00757 50.5311 9.00757 50.6162 9.02034 50.6997C9.44596 51.551 19.8815 71.76 51.0463 71.76C75.3539 71.76 90.2822 52.2603 91.2122 51.015C91.2122 50.9362 91.2122 50.8574 91.3226 50.7785C91.3928 50.6585 91.4508 50.5318 91.496 50.4002C91.5115 50.2904 91.5115 50.179 91.496 50.0692C91.5037 49.9537 91.5037 49.8378 91.496 49.7224C91.4751 49.5921 91.4381 49.465 91.3856 49.344" fill="white"/>
<path d="M50.1931 40.1853C48.2499 40.0972 46.3249 40.5928 44.6659 41.6083C43.0068 42.6237 41.6898 44.1126 40.8843 45.8832C40.0788 47.6537 39.8218 49.6248 40.1463 51.5427C40.4709 53.4606 41.3621 55.2374 42.7053 56.6444C44.0485 58.0513 45.7822 59.024 47.683 59.437C49.5838 59.8501 51.5647 59.6847 53.3706 58.9621C55.1766 58.2395 56.7248 56.9928 57.8161 55.3826C58.9074 53.7724 59.4917 51.8724 59.4937 49.9272C59.5315 48.6747 59.3199 47.4271 58.8714 46.2569C58.4229 45.0868 57.7463 44.0175 56.8809 43.1111C56.0156 42.2047 54.9787 41.4793 53.8306 40.977C52.6826 40.4747 51.4461 40.2056 50.1931 40.1853Z" fill="white"/>
</svg>
