<svg width="80" height="80" viewBox="0 0 80 80" fill="none" xmlns="http://www.w3.org/2000/svg">
<g clip-path="url(#clip0_13_3187)">
<mask id="mask0_13_3187" style="mask-type:luminance" maskUnits="userSpaceOnUse" x="3" y="22" width="74" height="36">
<path d="M77 22H3V58H77V22Z" fill="white"/>
</mask>
<g mask="url(#mask0_13_3187)">
<path d="M15.5566 44.6C16.4972 44.6 17.4166 44.3186 18.1987 43.7915C18.9808 43.2644 19.5904 42.5152 19.9504 41.6386C20.3103 40.762 20.4045 39.7975 20.2209 38.8669C20.0374 37.9364 19.5845 37.0816 18.9194 36.4107C18.2543 35.7398 17.4069 35.2829 16.4844 35.0978C15.5619 34.9127 14.6056 35.0077 13.7366 35.3708C12.8676 35.7339 12.1248 36.3488 11.6022 37.1377C11.0797 37.9266 10.8008 38.854 10.8008 39.8028C10.8008 41.0751 11.3019 42.2953 12.1938 43.1949C13.0856 44.0946 14.2953 44.6 15.5566 44.6Z" fill="#D40054"/>
<path d="M20.8506 23.066C17.867 23.0644 14.9369 23.865 12.3621 25.3855C9.78735 26.9061 7.66093 29.0915 6.20197 31.7166C4.743 34.3418 4.00422 37.3119 4.06171 40.3209C4.1192 43.3298 4.97092 46.269 6.52907 48.8355C8.08722 51.402 10.2955 53.5032 12.9264 54.9225C15.5574 56.3418 18.5159 57.028 21.4972 56.9104C24.4785 56.7927 27.3749 55.8755 29.8879 54.2533C32.4009 52.631 34.4397 50.3623 35.7944 47.6808H41.3639L46.1196 42.8836L51.2454 48.0432L55.5467 43.7045L59.4676 47.6595L63.6949 43.3953L68.028 47.7661L75.521 40.2079L67.5736 32.1913H35.752C34.3341 29.4403 32.1948 27.1346 29.5672 25.5255C26.9396 23.9165 23.9245 23.0657 20.8506 23.066ZM15.5664 34.5366C16.6366 34.5366 17.6828 34.8567 18.5726 35.4565C19.4625 36.0562 20.156 36.9086 20.5656 37.9059C20.9751 38.9033 21.0822 40.0007 20.8734 41.0595C20.6647 42.1183 20.1493 43.0908 19.3925 43.8541C18.6358 44.6175 17.6717 45.1373 16.622 45.3479C15.5724 45.5585 14.4844 45.4504 13.4957 45.0373C12.5069 44.6242 11.6619 43.9246 11.0673 43.027C10.4727 42.1295 10.1554 41.0742 10.1554 39.9947C10.1554 38.5471 10.7255 37.1588 11.7403 36.1352C12.755 35.1116 14.1313 34.5366 15.5664 34.5366Z" stroke="#3F3F3F" stroke-width="2"/>
</g>
</g>
<defs>
<clipPath id="clip0_13_3187">
<rect width="74" height="36" fill="white" transform="translate(3 22)"/>
</clipPath>
</defs>
</svg>
