<svg width="51" height="52" viewBox="0 0 51 52" fill="none" xmlns="http://www.w3.org/2000/svg">
<g clip-path="url(#clip0_13_3387)">
<mask id="mask0_13_3387" style="mask-type:luminance" maskUnits="userSpaceOnUse" x="0" y="0" width="51" height="52">
<path d="M51 0H0V51.74H51V0Z" fill="white"/>
</mask>
<g mask="url(#mask0_13_3387)">
<path d="M0.52002 8.66C0.452209 8.66132 0.384812 8.64911 0.321777 8.62408C0.258742 8.59904 0.201315 8.56167 0.152893 8.51418C0.104471 8.46669 0.0659869 8.41003 0.0397339 8.3475C0.0134809 8.28496 -1.30299e-05 8.21781 9.44112e-09 8.14999V0.50997C-1.30299e-05 0.442146 0.0134809 0.375028 0.0397339 0.312491C0.0659869 0.249954 0.104471 0.193264 0.152893 0.145773C0.201315 0.0982825 0.258742 0.060944 0.321777 0.0359102C0.384812 0.0108764 0.452209 -0.00133886 0.52002 -8.98167e-06H8.28998C8.36399 -0.0148861 8.44041 -0.0131466 8.51367 0.00508745C8.58693 0.0233215 8.65522 0.0575931 8.71362 0.105429C8.77203 0.153265 8.81913 0.213467 8.85144 0.281699C8.88375 0.349931 8.90051 0.424494 8.90051 0.499991C8.90051 0.575488 8.88375 0.650051 8.85144 0.718283C8.81913 0.786515 8.77203 0.846717 8.71362 0.894553C8.65522 0.942389 8.58693 0.976661 8.51367 0.994895C8.44041 1.01313 8.36399 1.01487 8.28998 0.999991H1.03998V8.14999C1.03999 8.21781 1.0265 8.28496 1.00024 8.3475C0.973991 8.41003 0.935507 8.46669 0.887085 8.51418C0.838663 8.56167 0.781236 8.59904 0.718201 8.62408C0.655166 8.64911 0.58783 8.66132 0.52002 8.66Z" fill="#D40054"/>
<path d="M50.4803 51.74H42.7103C42.5948 51.7168 42.4909 51.6543 42.4163 51.5631C42.3416 51.472 42.3008 51.3578 42.3008 51.24C42.3008 51.1222 42.3416 51.008 42.4163 50.9168C42.4909 50.8257 42.5948 50.7632 42.7103 50.74H49.9603V43.61C49.9603 43.5422 49.9738 43.475 50.0001 43.4125C50.0263 43.3499 50.0647 43.2933 50.1132 43.2458C50.1616 43.1983 50.219 43.1609 50.282 43.1359C50.3451 43.1109 50.4125 43.0987 50.4803 43.1C50.5481 43.0987 50.6155 43.1109 50.6785 43.1359C50.7416 43.1609 50.799 43.1983 50.8474 43.2458C50.8958 43.2933 50.9343 43.3499 50.9605 43.4125C50.9868 43.475 51.0003 43.5422 51.0003 43.61V51.25C51.0003 51.3178 50.9868 51.385 50.9605 51.4475C50.9343 51.5101 50.8958 51.5667 50.8474 51.6142C50.799 51.6617 50.7416 51.6991 50.6785 51.7241C50.6155 51.7491 50.5481 51.7613 50.4803 51.76" fill="#D40054"/>
<path d="M31.8692 33.31L37.6092 31.1C37.9313 30.9778 38.2871 30.9778 38.6092 31.1C38.9497 31.211 39.2468 31.4261 39.4585 31.7149C39.6702 32.0038 39.7859 32.3518 39.7892 32.71V32.89M8.02917 34.52L16.6392 31.68C16.9993 31.5587 17.3824 31.5211 17.7592 31.57L32.5292 33.39C32.8459 33.4229 33.1372 33.5783 33.3408 33.8231C33.5445 34.0679 33.6444 34.3826 33.6192 34.7L33.5492 35.48C33.5103 35.8204 33.3488 36.1351 33.0948 36.3652C32.8409 36.5952 32.5118 36.7249 32.1692 36.73L24.4792 36.85L21.3792 36.75M24.4792 36.85L29.0892 39.32L41.8792 31.64C42.0277 31.5518 42.1965 31.5036 42.3692 31.5C42.6686 31.4981 42.9603 31.5951 43.199 31.7759C43.4376 31.9567 43.61 32.2112 43.6892 32.5L43.8192 33.01C43.897 33.3293 43.8776 33.6645 43.7635 33.9728C43.6495 34.281 43.446 34.5481 43.1792 34.74L29.6692 44.48C29.2904 44.757 28.863 44.9606 28.4092 45.08L27.7692 45.25C27.3422 45.3799 26.8862 45.3799 26.4592 45.25L13.0692 40.94C12.4591 40.7414 11.7955 40.788 11.2192 41.07L6.94922 43.07" fill="white"/>
<path d="M31.8692 33.31L37.6092 31.1C37.9313 30.9778 38.2871 30.9778 38.6092 31.1C38.9497 31.211 39.2468 31.4261 39.4585 31.7149C39.6702 32.0038 39.7859 32.3518 39.7892 32.71V32.89M8.02917 34.52L16.6392 31.68C16.9993 31.5587 17.3824 31.5211 17.7592 31.57L32.5292 33.39C32.8459 33.4229 33.1372 33.5783 33.3408 33.8231C33.5445 34.0679 33.6444 34.3826 33.6192 34.7L33.5492 35.48C33.5103 35.8204 33.3488 36.1351 33.0948 36.3652C32.8409 36.5952 32.5118 36.7249 32.1692 36.73L24.4792 36.85M24.4792 36.85L21.3792 36.75M24.4792 36.85L29.0892 39.32L41.8792 31.64C42.0277 31.5518 42.1965 31.5036 42.3692 31.5C42.6686 31.4981 42.9603 31.5951 43.199 31.7759C43.4376 31.9567 43.61 32.2112 43.6892 32.5L43.8192 33.01C43.897 33.3293 43.8776 33.6645 43.7635 33.9728C43.6495 34.281 43.446 34.5481 43.1792 34.74L29.6692 44.48C29.2904 44.757 28.863 44.9606 28.4092 45.08L27.7692 45.25C27.3422 45.3799 26.8862 45.3799 26.4592 45.25L13.0692 40.94C12.4591 40.7414 11.7955 40.788 11.2192 41.07L6.94922 43.07" stroke="#3F3F3F"/>
<path d="M22.5506 6.75H32.2406C32.3379 6.75253 32.4306 6.79233 32.4995 6.86118C32.5683 6.93002 32.6081 7.02266 32.6106 7.12V27.62C32.6106 27.7191 32.572 27.8142 32.5029 27.8852C32.4338 27.9562 32.3397 27.9974 32.2406 28H18.6006C18.5512 28 18.5022 27.9901 18.4567 27.9709C18.4111 27.9517 18.3699 27.9235 18.3354 27.8881C18.3009 27.8527 18.2739 27.8107 18.2559 27.7646C18.2379 27.7186 18.2293 27.6694 18.2306 27.62V10.77" fill="white"/>
<path d="M22.5506 6.75H32.2406C32.3379 6.75253 32.4306 6.79233 32.4995 6.86118C32.5683 6.93002 32.6081 7.02266 32.6106 7.12V27.62C32.6106 27.7191 32.572 27.8142 32.5029 27.8852C32.4338 27.9562 32.3397 27.9974 32.2406 28H18.6006C18.5512 28 18.5022 27.9901 18.4567 27.9709C18.4111 27.9517 18.3699 27.9235 18.3354 27.8881C18.3009 27.8527 18.2739 27.8107 18.2559 27.7646C18.2379 27.7186 18.2293 27.6694 18.2306 27.62V10.77" stroke="#3F3F3F"/>
</g>
<path d="M22.2094 7.05V10.38H18.6094L22.2094 7.05Z" fill="white"/>
<path d="M22.2094 7.05V10.38H18.6094L22.2094 7.05Z" stroke="#3F3F3F"/>
<path d="M20.5981 25H30.2381M20.5781 22.67H30.2381M20.5781 20.34H30.2381M20.5781 18.01H30.2381M20.5781 15.69H30.2381M20.5781 13.36H30.2381" stroke="#D40054"/>
</g>
<defs>
<clipPath id="clip0_13_3387">
<rect width="51" height="51.74" fill="white"/>
</clipPath>
</defs>
</svg>
