<svg width="76" height="77" viewBox="0 0 76 77" fill="none" xmlns="http://www.w3.org/2000/svg">
<g clip-path="url(#clip0_21_6049)">
<mask id="mask0_21_6049" style="mask-type:luminance" maskUnits="userSpaceOnUse" x="0" y="0" width="76" height="77">
<path d="M76 0H0V77H76V0Z" fill="white"/>
</mask>
<g mask="url(#mask0_21_6049)">
<path d="M43.8422 54.0072C43.6195 54.0033 43.4073 53.9122 43.2512 53.7535C43.0951 53.5948 43.0077 53.3813 43.0077 53.1589C43.0077 53.0494 43.0293 52.9411 43.0713 52.84C43.1132 52.7388 43.1747 52.647 43.2522 52.5696C43.3297 52.4922 43.4216 52.4308 43.5229 52.3889C43.6241 52.347 43.7326 52.3255 43.8422 52.3255C44.1299 52.3235 44.4144 52.265 44.6794 52.1533C44.9445 52.0415 45.1849 51.8787 45.3869 51.6742C45.5889 51.4697 45.7487 51.2274 45.8569 50.9613C45.9652 50.6951 46.0199 50.4102 46.0179 50.1229V48.9621C46.014 47.9858 46.3975 47.0477 47.0846 46.3532C47.7716 45.6587 48.7063 45.2643 49.6838 45.2565C49.9493 45.2565 50.2121 45.2041 50.4571 45.1022C50.7022 45.0003 50.9246 44.8509 51.1116 44.6628C51.2987 44.4747 51.4466 44.2514 51.5468 44.0059C51.647 43.7605 51.6975 43.4976 51.6956 43.2325V36.7886C51.6956 33.1613 50.2527 29.6826 47.6844 27.1177C45.1161 24.5528 41.6328 23.1119 38.0007 23.1119C34.3686 23.1119 30.8852 24.5528 28.3169 27.1177C25.7486 29.6826 24.3058 33.1613 24.3058 36.7886V43.2325C24.3038 43.4963 24.3539 43.758 24.4532 44.0025C24.5525 44.247 24.699 44.4696 24.8844 44.6575C25.0698 44.8455 25.2906 44.9951 25.5339 45.0979C25.7773 45.2007 26.0385 45.2545 26.3027 45.2565C27.2802 45.2643 28.2148 45.6587 28.9019 46.3532C29.5889 47.0477 29.9725 47.9858 29.9685 48.9621V50.1229C29.9605 50.4139 30.0109 50.7036 30.1165 50.975C30.2221 51.2463 30.3808 51.4938 30.5834 51.7031C30.7861 51.9124 31.0285 52.0792 31.2965 52.1938C31.5645 52.3083 31.8527 52.3682 32.1442 52.3701C32.3655 52.3701 32.5778 52.4579 32.7343 52.6142C32.8908 52.7705 32.9787 52.9825 32.9787 53.2035C32.9787 53.4259 32.8913 53.6395 32.7352 53.7982C32.5791 53.9568 32.3669 54.0479 32.1442 54.0518C31.1192 54.0439 30.1391 53.6308 29.4185 52.9028C28.6979 52.1748 28.2955 51.1912 28.2995 50.1676V49.0068C28.3014 48.7429 28.2513 48.4813 28.152 48.2368C28.0527 47.9923 27.9063 47.7697 27.7208 47.5818C27.5354 47.3938 27.3147 47.2442 27.0714 47.1414C26.8281 47.0386 26.5669 46.9848 26.3027 46.9828C25.3251 46.9749 24.3904 46.5806 23.7034 45.886C23.0163 45.1915 22.6328 44.2535 22.6367 43.2772V36.8332C22.6367 32.7639 24.2554 28.8612 27.1367 25.9837C30.018 23.1063 33.9259 21.4898 38.0007 21.4898C42.0754 21.4898 45.9833 23.1063 48.8646 25.9837C51.7459 28.8612 53.3646 32.7639 53.3646 36.8332V43.2772C53.3646 44.2548 52.9778 45.1929 52.2883 45.887C51.5989 46.5811 50.6628 46.975 49.6838 46.9828C49.4197 46.9848 49.1584 47.0386 48.9151 47.1414C48.6718 47.2442 48.451 47.3938 48.2656 47.5818C48.0802 47.7697 47.9337 47.9923 47.8344 48.2368C47.7351 48.4813 47.685 48.7429 47.6869 49.0068V50.1676C47.6909 51.1912 47.2885 52.1748 46.5679 52.9028C45.8473 53.6308 44.8672 54.0439 43.8422 54.0518" fill="white"/>
<path d="M40.3389 54.0072H35.8683C35.6826 54.0072 35.5044 53.9335 35.3731 53.8023C35.2417 53.6711 35.168 53.4932 35.168 53.3077C35.168 53.1222 35.2417 52.9443 35.3731 52.8131C35.5044 52.6819 35.6826 52.6082 35.8683 52.6082H40.3389C40.5247 52.6082 40.7028 52.6819 40.8342 52.8131C40.9655 52.9443 41.0393 53.1222 41.0393 53.3077C41.0393 53.4932 40.9655 53.6711 40.8342 53.8023C40.7028 53.9335 40.5247 54.0072 40.3389 54.0072Z" fill="white"/>
<path d="M31.0116 32.8746C30.4503 32.8687 29.9 33.0295 29.4305 33.3366C28.961 33.6437 28.5935 34.0832 28.3746 34.5993C28.1557 35.1154 28.0954 35.6849 28.2012 36.2353C28.3071 36.7858 28.5743 37.2924 28.9691 37.6908C29.3638 38.0892 29.8683 38.3615 30.4184 38.4731C30.9684 38.5846 31.5392 38.5303 32.0583 38.3172C32.5774 38.1041 33.0213 37.7418 33.3338 37.2761C33.6463 36.8105 33.8131 36.2627 33.8131 35.7021C33.8151 35.3328 33.7442 34.9666 33.6045 34.6246C33.4648 34.2826 33.2589 33.9715 32.9987 33.7089C32.7386 33.4463 32.4292 33.2375 32.0883 33.0944C31.7473 32.9512 31.3814 32.8765 31.0116 32.8746ZM31.0116 40.1668C30.1274 40.1668 29.263 39.9049 28.5279 39.4144C27.7927 38.9238 27.2197 38.2265 26.8813 37.4107C26.543 36.5949 26.4544 35.6972 26.6269 34.8311C26.7994 33.9651 27.2251 33.1696 27.8503 32.5452C28.4756 31.9208 29.2722 31.4956 30.1394 31.3233C31.0066 31.151 31.9055 31.2395 32.7224 31.5774C33.5393 31.9153 34.2375 32.4876 34.7288 33.2218C35.22 33.956 35.4821 34.8191 35.4821 35.7021C35.4821 36.8862 35.0112 38.0219 34.1728 38.8591C33.3344 39.6964 32.1972 40.1668 31.0116 40.1668Z" fill="white"/>
<path d="M44.8105 32.8746C44.2493 32.8687 43.6989 33.0295 43.2294 33.3366C42.7599 33.6437 42.3923 34.0832 42.1734 34.5993C41.9546 35.1154 41.8942 35.6849 42.0001 36.2353C42.1059 36.7858 42.3732 37.2924 42.768 37.6908C43.1628 38.0892 43.6672 38.3615 44.2173 38.4731C44.7673 38.5846 45.3381 38.5303 45.8572 38.3172C46.3763 38.1041 46.8203 37.7418 47.1327 37.2761C47.4452 36.8105 47.612 36.2627 47.6121 35.7021C47.614 35.3328 47.5431 34.9666 47.4034 34.6246C47.2637 34.2826 47.0578 33.9715 46.7976 33.7089C46.5375 33.4463 46.2282 33.2375 45.8872 33.0944C45.5462 32.9512 45.1803 32.8765 44.8105 32.8746ZM44.8105 40.1668C43.9263 40.1668 43.062 39.9049 42.3268 39.4144C41.5916 38.9238 41.0185 38.2265 40.6801 37.4107C40.3418 36.5949 40.2532 35.6972 40.4257 34.8311C40.5982 33.9651 41.024 33.1696 41.6493 32.5452C42.2745 31.9208 43.0711 31.4956 43.9383 31.3233C44.8055 31.151 45.7044 31.2395 46.5213 31.5774C47.3382 31.9153 48.0364 32.4876 48.5276 33.2218C49.0188 33.956 49.2811 34.8191 49.2811 35.7021C49.2811 36.8862 48.8101 38.0219 47.9717 38.8591C47.1333 39.6964 45.9961 40.1668 44.8105 40.1668Z" fill="white"/>
<path d="M37.031 44.9291H38.9533L37.9995 43.1283L37.031 44.9291ZM40.2944 46.5512H35.6897C35.5498 46.5523 35.4121 46.5155 35.2915 46.4447C35.1708 46.374 35.0715 46.272 35.0042 46.1494C34.9349 46.0295 34.8984 45.8935 34.8984 45.755C34.8984 45.6166 34.9349 45.4806 35.0042 45.3607L37.314 41.0449C37.389 40.9249 37.4933 40.826 37.6172 40.7574C37.741 40.6888 37.8803 40.6529 38.0219 40.6529C38.1635 40.6529 38.3027 40.6888 38.4266 40.7574C38.5504 40.826 38.6547 40.9249 38.7297 41.0449L41.0395 45.3607C41.106 45.4815 41.1409 45.6171 41.1409 45.755C41.1409 45.8929 41.106 46.0286 41.0395 46.1494C40.9674 46.2711 40.8651 46.372 40.7423 46.4424C40.6196 46.5128 40.4807 46.5503 40.3391 46.5512" fill="white"/>
<path d="M22.9492 8.25955C22.2799 8.26348 21.6394 8.5318 21.1675 9.00583C20.6956 9.47987 20.4307 10.1211 20.4308 10.7895V66.1956C20.4307 66.864 20.6956 67.5053 21.1675 67.9793C21.6394 68.4533 22.2799 68.7216 22.9492 68.7255H53.0512C53.3819 68.7236 53.7089 68.6566 54.0137 68.5284C54.3185 68.4002 54.5951 68.2133 54.8276 67.9784C55.0601 67.7435 55.2439 67.4651 55.3687 67.1592C55.4934 66.8533 55.5566 66.5259 55.5547 66.1956V10.7895C55.5566 10.4592 55.4934 10.1318 55.3687 9.82592C55.2439 9.52003 55.0601 9.24167 54.8276 9.00674C54.5951 8.77181 54.3185 8.5849 54.0137 8.4567C53.7089 8.3285 53.3819 8.2615 53.0512 8.25955H22.9492ZM53.0512 70.4221H22.9492C21.8333 70.4142 20.766 69.965 19.9811 69.1728C19.1962 68.3806 18.7578 67.31 18.7617 66.1956V10.7895C18.7578 9.67509 19.1962 8.60453 19.9811 7.81233C20.766 7.02013 21.8333 6.57088 22.9492 6.56301H53.0512C54.1645 6.57479 55.2279 7.02573 56.0095 7.81751C56.7912 8.60928 57.2277 9.67765 57.2237 10.7895V66.1956C57.2277 67.3075 56.7912 68.3758 56.0095 69.1676C55.2279 69.9594 54.1645 70.4103 53.0512 70.4221Z" fill="white"/>
<path d="M28.2699 8.18515V9.91148C28.2777 10.347 28.4574 10.7618 28.77 11.0656C29.0826 11.3694 29.5027 11.5376 29.9389 11.5336H46.0479C46.4841 11.5376 46.9041 11.3694 47.2167 11.0656C47.5292 10.7618 47.7091 10.347 47.7169 9.91148V8.18515H28.2699ZM46.0479 13.1558H29.909C29.4773 13.1617 29.0486 13.0823 28.6476 12.9223C28.2466 12.7623 27.8812 12.5247 27.5724 12.2232C27.2636 11.9218 27.0175 11.5624 26.8482 11.1657C26.679 10.7689 26.5898 10.3427 26.5859 9.91148V7.38151C26.5898 7.16307 26.6794 6.9549 26.8355 6.80181C26.9916 6.64872 27.2017 6.56298 27.4204 6.56301H48.5216C48.739 6.56301 48.9474 6.64926 49.1011 6.80277C49.2549 6.95627 49.3412 7.16442 49.3412 7.38151V9.91148C49.3373 10.3427 49.2482 10.7689 49.0789 11.1657C48.9096 11.5624 48.6635 11.9218 48.3547 12.2232C48.0459 12.5247 47.6805 12.7623 47.2795 12.9223C46.8785 13.0823 46.4498 13.1617 46.0181 13.1558" fill="white"/>
<path d="M50.861 66.3891H25.1402C24.8154 66.393 24.4929 66.333 24.1913 66.2125C23.8897 66.0919 23.6148 65.9132 23.3823 65.6866C23.1498 65.4599 22.9643 65.1898 22.8364 64.8916C22.7084 64.5933 22.6406 64.2728 22.6367 63.9484V60.4957C22.6406 60.2773 22.7303 60.0691 22.8864 59.916C23.0425 59.7629 23.2525 59.6772 23.4712 59.6772C23.69 59.6772 23.9001 59.7629 24.0562 59.916C24.2122 60.0691 24.3018 60.2773 24.3057 60.4957V63.9484C24.3077 64.0559 24.3308 64.1619 24.3738 64.2605C24.4168 64.3591 24.4788 64.4482 24.5563 64.5229C24.6338 64.5975 24.7252 64.6561 24.8254 64.6954C24.9256 64.7348 25.0326 64.754 25.1402 64.752H50.861C50.9687 64.754 51.0756 64.7348 51.1758 64.6954C51.276 64.6561 51.3675 64.5975 51.445 64.5229C51.5225 64.4482 51.5845 64.3591 51.6275 64.2605C51.6705 64.1619 51.6936 64.0559 51.6955 63.9484V60.4957C51.6955 60.2747 51.7834 60.0627 51.9399 59.9065C52.0964 59.7502 52.3087 59.6623 52.53 59.6623C52.7514 59.6623 52.9637 59.7502 53.1202 59.9065C53.2767 60.0627 53.3646 60.2747 53.3646 60.4957V63.9484C53.3528 64.6024 53.0834 65.2253 52.6147 65.6822C52.1461 66.1391 51.516 66.3931 50.861 66.3891Z" fill="white"/>
<path d="M23.3223 25.5823C23.2223 25.573 23.1252 25.544 23.0365 25.497C22.9478 25.45 22.8693 25.3859 22.8055 25.3084C22.7418 25.2309 22.6941 25.1415 22.6651 25.0455C22.6361 24.9495 22.6265 24.8487 22.6368 24.7489V15.8197C22.6265 15.7199 22.6361 15.6191 22.6651 15.5231C22.6941 15.4271 22.7418 15.3377 22.8055 15.2602C22.8693 15.1827 22.9478 15.1186 23.0365 15.0716C23.1252 15.0246 23.2223 14.9956 23.3223 14.9863C23.5227 15.0088 23.7064 15.1085 23.8344 15.2641C23.9624 15.4197 24.0245 15.619 24.0078 15.8197V24.7489C24.0245 24.9496 23.9624 25.1489 23.8344 25.3045C23.7064 25.4601 23.5227 25.5598 23.3223 25.5823Z" fill="white"/>
<path d="M52.6786 25.5823C52.4755 25.5634 52.2881 25.4653 52.157 25.3093C52.0259 25.1533 51.9616 24.9519 51.9781 24.7489V15.8197C51.9635 15.7203 51.9705 15.6189 51.9986 15.5225C52.0267 15.426 52.0753 15.3368 52.141 15.2607C52.2068 15.1847 52.2882 15.1237 52.3796 15.0819C52.4711 15.0401 52.5705 15.0184 52.6711 15.0184C52.7717 15.0184 52.8711 15.0401 52.9625 15.0819C53.054 15.1237 53.1354 15.1847 53.2011 15.2607C53.2669 15.3368 53.3154 15.426 53.3436 15.5225C53.3717 15.6189 53.3787 15.7203 53.364 15.8197V24.7489C53.3808 24.9496 53.3186 25.1489 53.1906 25.3045C53.0626 25.4601 52.879 25.5598 52.6786 25.5823Z" fill="white"/>
<path d="M0.774931 12.8877C0.67388 12.8897 0.573446 12.8715 0.479511 12.8342C0.385577 12.797 0.299999 12.7414 0.227841 12.6707C0.155682 12.6001 0.0983334 12.5157 0.0592113 12.4226C0.0200892 12.3296 -1.94171e-05 12.2296 1.40688e-08 12.1287V0.758794C-1.94171e-05 0.657858 0.0200892 0.557926 0.0592113 0.464858C0.0983334 0.37179 0.155682 0.287424 0.227841 0.216747C0.299999 0.146071 0.385577 0.0905032 0.479511 0.0532476C0.573446 0.015992 0.67388 -0.00218682 0.774931 -0.000207673H12.3389C12.4492 -0.022348 12.563 -0.0197593 12.6721 0.0073769C12.7813 0.0345131 12.8831 0.0855163 12.9702 0.156707C13.0572 0.227897 13.1273 0.317489 13.1755 0.419033C13.2236 0.520577 13.2486 0.631542 13.2486 0.743897C13.2486 0.856253 13.2236 0.967218 13.1755 1.06876C13.1273 1.17031 13.0572 1.2599 12.9702 1.33109C12.8831 1.40228 12.7813 1.45328 12.6721 1.48042C12.563 1.50755 12.4492 1.51014 12.3389 1.488H1.59452V12.1882C1.59452 12.3895 1.51448 12.5826 1.37196 12.7249C1.22943 12.8673 1.03607 12.9472 0.834506 12.9472" fill="white"/>
<path d="M75.2248 76.9851H63.646C63.545 76.9871 63.4445 76.9689 63.3506 76.9317C63.2567 76.8944 63.1711 76.8388 63.0989 76.7681C63.0268 76.6975 62.9694 76.6131 62.9303 76.5201C62.8912 76.427 62.8711 76.3271 62.8711 76.2261C62.8711 76.1252 62.8912 76.0253 62.9303 75.9322C62.9694 75.8391 63.0268 75.7548 63.0989 75.6841C63.1711 75.6135 63.2567 75.5579 63.3506 75.5206C63.4445 75.4833 63.545 75.4652 63.646 75.4671H74.4499V64.8562C74.4499 64.7553 74.47 64.6554 74.5092 64.5623C74.5483 64.4692 74.6056 64.3849 74.6778 64.3142C74.7499 64.2435 74.8354 64.1879 74.9294 64.1507C75.0233 64.1134 75.1237 64.0953 75.2248 64.0972C75.4277 64.0972 75.6227 64.1767 75.7676 64.3186C75.9125 64.4605 75.9958 64.6536 75.9997 64.8562V76.1815C75.9997 76.2824 75.9796 76.3824 75.9405 76.4754C75.9014 76.5685 75.844 76.6528 75.7719 76.7235C75.6997 76.7942 75.6141 76.8498 75.5202 76.887C75.4263 76.9243 75.3258 76.9425 75.2248 76.9405" fill="white"/>
</g>
</g>
<defs>
<clipPath id="clip0_21_6049">
<rect width="76" height="77" fill="white"/>
</clipPath>
</defs>
</svg>
