<svg width="80" height="80" viewBox="0 0 80 80" fill="none" xmlns="http://www.w3.org/2000/svg">
<g clip-path="url(#clip0_21_5220)">
<mask id="mask0_21_5220" style="mask-type:luminance" maskUnits="userSpaceOnUse" x="7" y="7" width="67" height="65">
<path d="M74 7H7V72H74V7Z" fill="white"/>
</mask>
<g mask="url(#mask0_21_5220)">
<path d="M40.4797 26.8801C36.2297 26.8801 32.7797 31.0001 32.7797 36.0701C32.7797 41.1401 36.2297 45.2701 40.4797 45.2701C44.7297 45.2701 48.1797 41.1401 48.1797 36.0701C48.1797 31.0001 44.7197 26.8801 40.4797 26.8801ZM40.4797 47.1201C35.2097 47.1201 30.9297 42.1201 30.9297 36.0701C30.9297 30.0201 35.2097 25.0701 40.4797 25.0701C45.7497 25.0701 50.0297 30.0701 50.0297 36.0701C50.0297 42.0701 45.7397 47.1201 40.4797 47.1201Z" fill="#3F3F3F"/>
<path d="M40.4828 23.1C39.7666 23.09 39.0705 23.3365 38.5203 23.795C37.9701 24.2535 37.6021 24.8938 37.4828 25.6C39.3794 24.8395 41.4962 24.8395 43.3928 25.6C43.2749 24.9023 42.9141 24.2687 42.3743 23.8113C41.8345 23.3538 41.1504 23.1019 40.4428 23.1M44.4028 28C44.2341 28.0005 44.0682 27.9556 43.9228 27.87C42.897 27.2045 41.7005 26.8504 40.4778 26.8504C39.2551 26.8504 38.0586 27.2045 37.0328 27.87C36.8925 27.9522 36.7329 27.9962 36.5703 27.9975C36.4076 27.9988 36.2474 27.9574 36.1057 27.8775C35.964 27.7975 35.8457 27.6818 35.7628 27.5418C35.6798 27.4019 35.635 27.2426 35.6328 27.08V26.08C35.6328 24.7937 36.1438 23.5601 37.0533 22.6505C37.9629 21.741 39.1965 21.23 40.4828 21.23C41.7691 21.23 43.0027 21.741 43.9123 22.6505C44.8218 23.5601 45.3328 24.7937 45.3328 26.08V27.08C45.3325 27.2442 45.2876 27.4053 45.2031 27.5462C45.1186 27.687 44.9975 27.8024 44.8528 27.88C44.7161 27.9592 44.5608 28.0006 44.4028 28Z" fill="#3F3F3F"/>
<path d="M42.67 23.77C42.4189 23.7498 42.1846 23.6356 42.014 23.4502C41.8435 23.2648 41.7492 23.0219 41.75 22.77C41.9673 21.7517 42.4894 20.8237 43.2467 20.1093C44.0041 19.3948 44.9608 18.9277 45.99 18.77C46.223 18.7333 46.4613 18.7866 46.6566 18.919C46.8518 19.0515 46.9894 19.2531 47.0415 19.4832C47.0936 19.7133 47.0564 19.9546 46.9373 20.1582C46.8182 20.3619 46.6261 20.5126 46.4 20.58C45.7368 20.6623 45.1135 20.9417 44.6108 21.382C44.1081 21.8224 43.749 22.4034 43.58 23.05C43.5468 23.2682 43.437 23.4676 43.2703 23.6123C43.1035 23.757 42.8908 23.8377 42.67 23.84" fill="#3F3F3F"/>
<path d="M53.9193 39.93C53.7124 39.9315 53.5111 39.8633 53.3478 39.7363C53.1845 39.6093 53.0688 39.4309 53.0193 39.23L52.4693 37H49.0993C48.8706 36.9762 48.6588 36.8685 48.5048 36.6977C48.3509 36.5268 48.2656 36.305 48.2656 36.075C48.2656 35.8451 48.3509 35.6232 48.5048 35.4524C48.6588 35.2816 48.8706 35.1738 49.0993 35.15H53.1993C53.4058 35.1503 53.6062 35.2192 53.7692 35.3459C53.9321 35.4727 54.0483 35.65 54.0993 35.85L54.8193 38.79C54.8767 39.0287 54.8375 39.2803 54.7101 39.4901C54.5827 39.6999 54.3775 39.8509 54.1393 39.91C54.0663 39.9195 53.9923 39.9195 53.9193 39.91" fill="#3F3F3F"/>
<path d="M51.0981 45.8H50.8782C50.6414 45.7385 50.4378 45.5871 50.3109 45.378C50.1839 45.1689 50.1435 44.9185 50.1982 44.68L50.6982 42.63H47.6982C47.5686 42.6435 47.4377 42.6296 47.3138 42.5893C47.19 42.5489 47.076 42.483 46.9792 42.3958C46.8825 42.3086 46.8051 42.2021 46.7522 42.0831C46.6992 41.9641 46.6719 41.8353 46.6719 41.705C46.6719 41.5748 46.6992 41.446 46.7522 41.327C46.8051 41.208 46.8825 41.1014 46.9792 41.0142C47.076 40.927 47.19 40.8611 47.3138 40.8208C47.4377 40.7804 47.5686 40.7665 47.6982 40.78H51.9182C52.0583 40.779 52.1968 40.81 52.3231 40.8706C52.4494 40.9313 52.5602 41.02 52.647 41.1299C52.7338 41.2399 52.7943 41.3682 52.824 41.5052C52.8536 41.6421 52.8517 41.784 52.8182 41.92L52.0381 45.12C51.9887 45.3209 51.873 45.4992 51.7097 45.6262C51.5464 45.7533 51.3451 45.8215 51.1382 45.82" fill="#3F3F3F"/>
<path d="M48.4783 33.2C48.2994 33.2024 48.1238 33.1525 47.9728 33.0566C47.8219 32.9607 47.7022 32.8229 47.6283 32.66C47.5783 32.5484 47.5507 32.428 47.5472 32.3058C47.5438 32.1835 47.5645 32.0618 47.6082 31.9475C47.6518 31.8333 47.7175 31.7287 47.8016 31.6399C47.8857 31.5511 47.9866 31.4798 48.0983 31.43L50.4783 30.37L49.8883 26.88C49.8506 26.6389 49.9092 26.3927 50.0513 26.1944C50.1935 25.9961 50.4079 25.8617 50.6483 25.82C50.768 25.7986 50.8908 25.8014 51.0093 25.8282C51.1279 25.855 51.2399 25.9054 51.3388 25.9762C51.4376 26.0471 51.5211 26.137 51.5846 26.2407C51.6481 26.3444 51.6902 26.4598 51.7083 26.58L52.4183 30.77C52.4522 30.9718 52.4188 31.1791 52.3229 31.3599C52.2271 31.5407 52.0744 31.6848 51.8883 31.77L48.8883 33.12C48.7728 33.1748 48.6462 33.2022 48.5183 33.2" fill="#3F3F3F"/>
<path d="M38.3332 23.77C38.1118 23.7699 37.898 23.6899 37.7308 23.5448C37.5637 23.3997 37.4544 23.1992 37.4232 22.9801C37.2536 22.3355 36.8956 21.7562 36.3951 21.3162C35.8945 20.8763 35.2741 20.5956 34.6132 20.5101C34.3734 20.4552 34.1652 20.3076 34.034 20.0996C33.9028 19.8916 33.8594 19.64 33.9131 19.4001C33.9392 19.2817 33.9884 19.1697 34.0578 19.0705C34.1272 18.9712 34.2155 18.8866 34.3178 18.8216C34.42 18.7565 34.534 18.7123 34.6534 18.6915C34.7727 18.6706 34.895 18.6735 35.0132 18.7001C36.0423 18.8578 36.9991 19.3249 37.7565 20.0393C38.5138 20.7538 39.0358 21.6818 39.2532 22.7001C39.2761 22.9365 39.2066 23.1726 39.0594 23.359C38.9121 23.5454 38.6985 23.6676 38.4632 23.7001H38.3332" fill="#3F3F3F"/>
<path d="M27.0826 39.93C27.0095 39.9394 26.9356 39.9394 26.8625 39.93C26.7448 39.9008 26.634 39.8486 26.5365 39.7764C26.4391 39.7042 26.3568 39.6135 26.2945 39.5094C26.2323 39.4053 26.1912 39.2899 26.1737 39.1699C26.1562 39.0499 26.1626 38.9276 26.1925 38.81L26.9026 35.87C26.9552 35.6709 27.0717 35.4945 27.2343 35.368C27.3969 35.2415 27.5965 35.172 27.8025 35.17H31.9026C32.1313 35.1939 32.3431 35.3016 32.4971 35.4724C32.651 35.6432 32.7362 35.8651 32.7362 36.095C32.7362 36.325 32.651 36.5468 32.4971 36.7177C32.3431 36.8885 32.1313 36.9962 31.9026 37.02H28.5326L27.9825 39.25C27.9331 39.4509 27.8173 39.6292 27.654 39.7563C27.4907 39.8833 27.2894 39.9515 27.0826 39.95" fill="#3F3F3F"/>
<path d="M29.902 45.8C29.6952 45.8015 29.4938 45.7332 29.3305 45.6062C29.1672 45.4792 29.0515 45.3009 29.002 45.1L28.222 41.9C28.1885 41.764 28.1865 41.6221 28.2162 41.4851C28.2459 41.3482 28.3064 41.2199 28.3933 41.1099C28.4801 40.9999 28.5908 40.9113 28.7171 40.8506C28.8434 40.79 28.9819 40.759 29.122 40.76H33.342C33.4716 40.7465 33.6025 40.7604 33.7264 40.8007C33.8502 40.8411 33.9642 40.907 34.061 40.9942C34.1577 41.0814 34.2351 41.1879 34.288 41.3069C34.341 41.4259 34.3684 41.5547 34.3684 41.685C34.3684 41.8152 34.341 41.944 34.288 42.063C34.2351 42.1821 34.1577 42.2886 34.061 42.3758C33.9642 42.463 33.8502 42.5289 33.7264 42.5693C33.6025 42.6096 33.4716 42.6235 33.342 42.61H30.342L30.842 44.66C30.8967 44.8985 30.8563 45.1489 30.7293 45.358C30.6023 45.5671 30.3988 45.7185 30.162 45.78H29.942" fill="#3F3F3F"/>
<path d="M32.5323 33.2C32.4011 33.2034 32.271 33.176 32.1523 33.12L29.1523 31.77C28.9663 31.6848 28.8135 31.5407 28.7177 31.3599C28.6219 31.1791 28.5883 30.9718 28.6223 30.77L29.3323 26.58C29.3721 26.3387 29.5061 26.123 29.7049 25.9805C29.9036 25.838 30.1509 25.7802 30.3923 25.82C30.6336 25.8598 30.8493 25.9938 30.9918 26.1926C31.1344 26.3914 31.1921 26.6387 31.1523 26.88L30.5623 30.37L32.9423 31.43C33.054 31.4798 33.1548 31.5511 33.2389 31.6399C33.323 31.7287 33.3888 31.8333 33.4325 31.9475C33.4761 32.0618 33.4968 32.1835 33.4933 32.3058C33.4899 32.428 33.4623 32.5484 33.4123 32.66C33.3391 32.8213 33.2209 32.9581 33.0719 33.0539C32.9229 33.1497 32.7494 33.2004 32.5723 33.2" fill="#3F3F3F"/>
<path d="M40.4769 47.1199C40.2319 47.1199 39.9969 47.0234 39.8228 46.8511C39.6487 46.6789 39.5495 46.4449 39.5469 46.2V25.9999C39.5707 25.7712 39.6784 25.5594 39.8492 25.4054C40.0201 25.2515 40.2419 25.1663 40.4719 25.1663C40.7018 25.1663 40.9237 25.2515 41.0945 25.4054C41.2654 25.5594 41.3731 25.7712 41.3969 25.9999V46.2C41.3969 46.444 41.3 46.6779 41.1274 46.8505C40.9549 47.023 40.7209 47.1199 40.4769 47.1199Z" fill="#3F3F3F"/>
<path d="M9.77002 8.85001C9.52602 8.85001 9.29198 8.94694 9.11945 9.11948C8.94691 9.29201 8.84998 9.52599 8.84998 9.76999V56C8.84998 56.244 8.94691 56.478 9.11945 56.6505C9.29198 56.8231 9.52602 56.92 9.77002 56.92H71.23C71.474 56.92 71.708 56.8231 71.8806 56.6505C72.0531 56.478 72.15 56.244 72.15 56V9.76999C72.15 9.52599 72.0531 9.29201 71.8806 9.11948C71.708 8.94694 71.474 8.85001 71.23 8.85001H9.77002ZM71.23 58.76H9.77002C9.0371 58.76 8.33401 58.4695 7.81482 57.9522C7.29563 57.4349 7.00265 56.7329 7 56V9.76999C7 9.03534 7.29186 8.33079 7.81134 7.81131C8.33082 7.29183 9.03537 7 9.77002 7H71.23C71.9646 7 72.6692 7.29183 73.1887 7.81131C73.7081 8.33079 74 9.03534 74 9.76999V56C74 56.7346 73.7081 57.4392 73.1887 57.9587C72.6692 58.4782 71.9646 58.77 71.23 58.77" fill="#3F3F3F"/>
<path d="M14.9303 50.6001H66.0703V15.1601H14.9303V50.6001ZM67.0003 52.4501H14.0003C13.7554 52.4501 13.5203 52.3535 13.3462 52.1812C13.1721 52.009 13.0729 51.775 13.0703 51.5301V14.2401C13.0703 13.9934 13.1683 13.7569 13.3427 13.5825C13.5171 13.408 13.7537 13.3101 14.0003 13.3101H67.0003C67.247 13.3101 67.4835 13.408 67.6579 13.5825C67.8323 13.7569 67.9303 13.9934 67.9303 14.2401V51.5301C67.9277 51.775 67.8285 52.009 67.6544 52.1812C67.4803 52.3535 67.2452 52.4501 67.0003 52.4501Z" fill="#3F3F3F"/>
<path d="M31.8031 64.1499H49.2031V58.7599H31.8031V64.1499ZM50.1331 65.9999H30.8731C30.6291 65.9999 30.3951 65.903 30.2226 65.7305C30.0501 65.5579 29.9531 65.3239 29.9531 65.0799V57.8499C29.9531 57.6059 30.0501 57.3719 30.2226 57.1994C30.3951 57.0269 30.6291 56.9299 30.8731 56.9299H50.1331C50.3771 56.9299 50.6111 57.0269 50.7836 57.1994C50.9562 57.3719 51.0531 57.6059 51.0531 57.8499V65.0799C51.0531 65.3239 50.9562 65.5579 50.7836 65.7305C50.6111 65.903 50.3771 65.9999 50.1331 65.9999Z" fill="#3F3F3F"/>
<path d="M23.4066 70.15H57.5866C57.3678 68.983 56.7486 67.9289 55.8358 67.1695C54.9231 66.4101 53.774 65.993 52.5866 65.99H28.4066C27.2192 65.993 26.0701 66.4101 25.1573 67.1695C24.2446 67.9289 23.6254 68.983 23.4066 70.15ZM58.5966 72H22.3966C22.1526 72 21.9186 71.9031 21.746 71.7306C21.5735 71.558 21.4766 71.324 21.4766 71.08C21.4766 69.2421 22.2067 67.4794 23.5063 66.1798C24.806 64.8802 26.5686 64.15 28.4066 64.15H52.5866C53.4967 64.15 54.3978 64.3293 55.2386 64.6776C56.0794 65.0258 56.8433 65.5363 57.4868 66.1798C58.1303 66.8233 58.6408 67.5873 58.9891 68.428C59.3373 69.2688 59.5166 70.17 59.5166 71.08C59.5166 71.324 59.4197 71.558 59.2471 71.7306C59.0746 71.9031 58.8406 72 58.5966 72Z" fill="#3F3F3F"/>
<path d="M70.2477 72H10.7477C10.519 71.9762 10.3072 71.8685 10.1532 71.6977C9.99923 71.5268 9.91406 71.305 9.91406 71.075C9.91406 70.8451 9.99923 70.6232 10.1532 70.4524C10.3072 70.2816 10.519 70.1738 10.7477 70.15H70.2477C70.4765 70.1738 70.6883 70.2816 70.8423 70.4524C70.9963 70.6232 71.0814 70.8451 71.0814 71.075C71.0814 71.305 70.9963 71.5268 70.8423 71.6977C70.6883 71.8685 70.4765 71.9762 70.2477 72Z" fill="#3F3F3F"/>
</g>
<path d="M14 49.96L67 15.96" stroke="#D40054" stroke-width="3"/>
</g>
<defs>
<clipPath id="clip0_21_5220">
<rect width="67" height="65" fill="white" transform="translate(7 7)"/>
</clipPath>
</defs>
</svg>
