<svg width="100" height="100" viewBox="0 0 100 100" fill="none" xmlns="http://www.w3.org/2000/svg">
<path d="M6.92411 19.9888C6.80638 19.9904 6.68952 19.9685 6.58031 19.9245C6.47109 19.8805 6.37168 19.8152 6.28788 19.7325C6.20409 19.6498 6.13756 19.5513 6.09216 19.4426C6.04675 19.334 6.02343 19.2174 6.02344 19.0997V5.87767C6.02494 5.7609 6.04939 5.64557 6.09547 5.53827C6.14155 5.43097 6.20833 5.33379 6.29197 5.25229C6.37561 5.1708 6.47452 5.10658 6.58299 5.0633C6.69145 5.02002 6.80734 4.99855 6.92411 5.00008H20.5041C20.741 4.99696 20.9696 5.08732 21.1404 5.25159C21.3111 5.41586 21.4103 5.6408 21.4163 5.87767C21.4103 6.11559 21.3115 6.34176 21.1411 6.50788C20.9707 6.67399 20.7421 6.76693 20.5041 6.76686H7.80174V19.0997C7.80178 19.2184 7.77802 19.3359 7.73189 19.4453C7.68577 19.5548 7.61824 19.6538 7.53321 19.7367C7.44818 19.8196 7.34739 19.8846 7.23684 19.9279C7.12628 19.9712 7.0082 19.9919 6.88951 19.9888" fill="#D40054"/>
<path d="M94.2578 94.54H80.6779C80.5596 94.5415 80.4422 94.5198 80.3323 94.4759C80.2224 94.4321 80.1223 94.367 80.0375 94.2844C79.9528 94.2018 79.8852 94.1034 79.8386 93.9947C79.7919 93.886 79.7671 93.7692 79.7656 93.6509C79.7671 93.5331 79.792 93.4168 79.8388 93.3088C79.8856 93.2007 79.9534 93.103 80.0382 93.0213C80.1231 92.9397 80.2234 92.8757 80.3332 92.8331C80.443 92.7905 80.5601 92.7702 80.6779 92.7732H93.3802V80.4289C93.4054 80.2061 93.5118 80.0004 93.679 79.851C93.8462 79.7017 94.0625 79.6191 94.2867 79.6191C94.5109 79.6191 94.7273 79.7017 94.8945 79.851C95.0617 80.0004 95.168 80.2061 95.1932 80.4289V93.6509C95.1917 93.7692 95.1669 93.886 95.1202 93.9947C95.0736 94.1034 95.0059 94.2018 94.9212 94.2844C94.8365 94.367 94.7364 94.4321 94.6265 94.4759C94.5167 94.5198 94.3992 94.5415 94.281 94.54" fill="#D40054"/>
<path d="M42.503 54.5854C39.7155 54.5871 37.0303 53.5353 34.9856 51.6408C32.1646 48.8696 29.8509 45.6258 28.1494 42.0563C27.8739 41.49 27.5202 40.9652 27.0986 40.4973C26.8907 40.3126 26.3133 39.7698 25.5396 35.1046C25.374 34.11 25.5839 33.0893 26.1286 32.2408L26.2094 32.1138C26.4759 31.685 26.6086 31.1865 26.5905 30.6819C26.5398 29.3578 26.6444 28.0323 26.9022 26.7326C29.2118 15.5661 42.249 15.5546 42.4338 15.5661C42.5454 15.563 42.6566 15.5822 42.7608 15.6225C42.865 15.6627 42.9602 15.7233 43.0407 15.8006C43.1213 15.878 43.1857 15.9706 43.2302 16.0731C43.2747 16.1755 43.2983 16.2858 43.2998 16.3975C43.2968 16.5098 43.2718 16.6203 43.226 16.7228C43.1803 16.8254 43.1148 16.9179 43.0333 16.9951C42.9518 17.0723 42.8559 17.1327 42.7511 17.1728C42.6462 17.2129 42.5344 17.232 42.4222 17.229C41.5792 17.229 30.6552 17.4137 28.6575 27.0444C28.4291 28.2271 28.3361 29.432 28.3804 30.6357C28.4068 31.4504 28.1896 32.2545 27.7568 32.9452L27.6644 33.0838C27.3319 33.6043 27.2043 34.2298 27.3065 34.839C27.467 36.4039 27.8561 37.9368 28.4612 39.3888C29.0019 39.9779 29.4532 40.6432 29.8007 41.3634C31.4226 44.7484 33.6182 47.827 36.2904 50.4629C37.9965 52.0427 40.2356 52.921 42.5608 52.9226C42.6774 52.9087 42.7956 52.9198 42.9077 52.9549C43.0197 52.9901 43.123 53.0487 43.2108 53.1267C43.2986 53.2047 43.3689 53.3004 43.417 53.4075C43.4652 53.5146 43.4901 53.6308 43.4901 53.7482C43.4901 53.8656 43.4652 53.9817 43.417 54.0889C43.3689 54.196 43.2986 54.2917 43.2108 54.3697C43.123 54.4477 43.0197 54.5062 42.9077 54.5414C42.7956 54.5766 42.6774 54.5877 42.5608 54.5739" fill="#D40054"/>
<path d="M37.1093 42.2525C35.954 42.2525 34.8218 41.9284 33.8414 41.3172C32.7627 40.6234 31.7569 39.8226 30.839 38.9268C30.4063 38.5161 30.0615 38.0219 29.8253 37.4741C29.5891 36.9263 29.4665 36.3363 29.4648 35.7397C29.4704 35.0272 29.6461 34.3263 29.9776 33.6956C30.309 33.0648 30.7865 32.5225 31.3702 32.1138C34.5925 29.7426 38.5016 28.4896 42.502 28.5456C42.6128 28.5515 42.7213 28.5792 42.8213 28.6271C42.9214 28.675 43.011 28.7422 43.085 28.8248C43.159 28.9074 43.216 29.0038 43.2527 29.1085C43.2894 29.2131 43.3051 29.324 43.2988 29.4347C43.2727 29.6606 43.1587 29.8672 42.9815 30.0098C42.8044 30.1524 42.5782 30.2196 42.3519 30.1969C38.7813 30.198 35.3035 31.3344 32.421 33.4417C32.0584 33.7068 31.7644 34.0547 31.5635 34.4564C31.3626 34.8582 31.2607 35.3021 31.2663 35.7512C31.2673 36.1301 31.3457 36.5047 31.4966 36.8522C31.6475 37.1997 31.8678 37.5127 32.1439 37.7721C32.9757 38.587 33.8888 39.3145 34.8691 39.943C35.4667 40.3142 36.1447 40.5363 36.8461 40.5906C37.5475 40.6449 38.2516 40.5297 38.8992 40.2548C40.0548 39.7687 41.2945 39.5136 42.5482 39.5042C42.7687 39.5042 42.9802 39.5918 43.1362 39.7478C43.2921 39.9037 43.3797 40.1151 43.3797 40.3356C43.3797 40.5561 43.2921 40.7676 43.1362 40.9236C42.9802 41.0795 42.7687 41.1671 42.5482 41.1671C41.5361 41.1765 40.5356 41.3844 39.6036 41.7791C38.8265 42.097 37.9952 42.2618 37.1555 42.2641" fill="#D40054"/>
<path d="M36.4309 35.1507C35.4956 35.1507 34.8489 35.6358 34.8489 36.063C34.8489 36.4903 35.4956 36.9868 36.4309 36.9868C37.3663 36.9868 38.0015 36.5018 38.0015 36.063C38.0015 35.6242 37.3548 35.1507 36.4309 35.1507ZM36.4309 38.615C34.5602 38.615 33.0938 37.4603 33.0938 36.0284C33.0938 34.5965 34.5602 33.4532 36.4309 33.4532C38.3017 33.4532 39.7682 34.608 39.7682 36.0284C39.7682 37.4487 38.3017 38.615 36.4309 38.615Z" fill="#D40054"/>
<path d="M35.4568 60.0012C35.2403 60.0022 35.0309 59.9242 34.8679 59.7818C33.3333 58.462 32.023 56.9021 30.9879 55.1628C30.9367 55.0565 30.9102 54.9401 30.9102 54.8221C30.9102 54.7042 30.9367 54.5877 30.9879 54.4815C31.8507 52.4181 32.1534 50.1634 31.8655 47.9455C31.8491 47.8355 31.8547 47.7234 31.8819 47.6156C31.9091 47.5077 31.9574 47.4064 32.024 47.3173C32.0905 47.2282 32.1741 47.1532 32.2697 47.0965C32.3654 47.0398 32.4714 47.0026 32.5815 46.9871C32.8046 46.9457 33.035 46.9923 33.2245 47.1172C33.4139 47.2421 33.5477 47.4355 33.5976 47.6568C33.9262 50.0411 33.64 52.4698 32.7662 54.7124C33.6801 56.1368 34.7966 57.4204 36.0804 58.5231C36.1619 58.5936 36.2284 58.6798 36.2761 58.7765C36.3239 58.8731 36.3518 58.9783 36.3583 59.0859C36.3647 59.1935 36.3495 59.3013 36.3137 59.403C36.2779 59.5046 36.2221 59.5981 36.1496 59.6779C36.0646 59.7665 35.9624 59.8368 35.8492 59.8845C35.736 59.9321 35.6142 59.9562 35.4914 59.955" fill="#D40054"/>
<path d="M19.1048 82.2765C18.9904 82.2808 18.8763 82.2612 18.77 82.2188C17.1238 81.6472 15.5682 80.8422 14.1509 79.8284C14.0067 79.7054 13.9055 79.5395 13.8622 79.355C13.7699 78.9046 11.6451 68.327 15.017 62.5879C15.1362 62.4016 15.3198 62.2657 15.5328 62.2061C15.7457 62.1465 15.9732 62.1673 16.1718 62.2645C16.2761 62.3113 16.3692 62.38 16.4447 62.466C16.5201 62.5519 16.5762 62.6531 16.6091 62.7627C16.642 62.8722 16.6509 62.9876 16.6352 63.1009C16.6195 63.2142 16.5796 63.3228 16.5182 63.4193C13.7583 68.1307 15.1902 77.0223 15.5135 78.766C16.7402 79.5701 18.0582 80.2252 19.4398 80.7176C19.5446 80.7546 19.6408 80.8126 19.7226 80.888C19.8043 80.9634 19.8698 81.0547 19.9152 81.1562C19.9606 81.2577 19.9848 81.3674 19.9865 81.4787C19.9881 81.5899 19.9671 81.7002 19.9247 81.803C19.8546 81.9576 19.7406 82.0882 19.5969 82.1785C19.4532 82.2689 19.2861 82.315 19.1164 82.3111" fill="#D40054"/>
<path d="M19.951 60.0012C19.8048 60.0025 19.6607 59.9672 19.5316 59.8987C19.4025 59.8301 19.2927 59.7304 19.2119 59.6086C19.1481 59.5165 19.1045 59.4119 19.0839 59.3017C19.0633 59.1915 19.0661 59.0783 19.0923 58.9693C19.1184 58.8603 19.1674 58.7581 19.2357 58.6692C19.3041 58.5804 19.3904 58.507 19.489 58.4539C23.284 56.3922 27.3558 54.8872 31.5793 53.9849C31.8027 53.9324 32.0379 53.9694 32.2343 54.0881C32.4307 54.2069 32.5729 54.3978 32.6302 54.62C32.6519 54.7286 32.6517 54.8404 32.6296 54.9488C32.6076 55.0573 32.564 55.1602 32.5016 55.2516C32.4392 55.343 32.3593 55.4211 32.2664 55.4812C32.1734 55.5413 32.0694 55.5822 31.9604 55.6016C27.9315 56.4772 24.0448 57.9114 20.4128 59.8627C20.2679 59.9434 20.1053 59.9871 19.9394 59.9897" fill="#D40054"/>
<path d="M42.6657 54.5854C42.549 54.5992 42.4308 54.5882 42.3188 54.553C42.2067 54.5178 42.1034 54.4593 42.0156 54.3813C41.9278 54.3032 41.8575 54.2076 41.8094 54.1004C41.7613 53.9933 41.7364 53.8772 41.7364 53.7597C41.7364 53.6423 41.7613 53.5262 41.8094 53.4191C41.8575 53.3119 41.9278 53.2162 42.0156 53.1382C42.1034 53.0602 42.2067 53.0017 42.3188 52.9665C42.4308 52.9313 42.549 52.9203 42.6657 52.9341C44.9948 52.9354 47.2385 52.0569 48.9475 50.4744C51.6133 47.8357 53.8047 44.7575 55.4257 41.375C55.768 40.6643 56.2114 40.0069 56.7422 39.4234C56.95 39.1694 57.3773 37.9684 57.8969 34.8044C57.9991 34.1952 57.8715 33.5697 57.539 33.0491L57.4466 32.9106C57.0137 32.2198 56.7966 31.4158 56.823 30.601C56.8673 29.3973 56.7743 28.1925 56.5459 27.0098C54.5251 17.2059 43.0814 17.1828 42.5964 17.1943C42.3706 17.1975 42.1524 17.1123 41.9885 16.957C41.8245 16.8017 41.7278 16.5885 41.7188 16.3629C41.7248 16.1383 41.8191 15.925 41.9812 15.7694C42.1432 15.6138 42.3601 15.5283 42.5848 15.5315C42.6772 15.5315 55.9684 15.5314 58.2895 26.698C58.5431 27.9982 58.6439 29.3236 58.5898 30.6472C58.5717 31.1518 58.7044 31.6503 58.9708 32.0791L59.0517 32.2062C59.6143 33.0775 59.8171 34.133 59.6175 35.1508C58.8438 39.7698 58.2664 40.3587 58.0239 40.5897C57.615 41.0431 57.2728 41.5524 57.0077 42.1024C55.3062 45.672 52.9925 48.9158 50.1716 51.6869C48.1281 53.5834 45.4421 54.6356 42.6541 54.6316" fill="#D40054"/>
<path d="M48.068 42.2526C47.2284 42.2502 46.3971 42.0856 45.6199 41.7676C44.6879 41.3729 43.6875 41.165 42.6753 41.1556C42.4548 41.1556 42.2433 41.0679 42.0874 40.912C41.9315 40.7561 41.8439 40.5447 41.8439 40.3241C41.8439 40.1036 41.9315 39.8922 42.0874 39.7362C42.2433 39.5803 42.4548 39.4927 42.6753 39.4927C43.9292 39.5009 45.1691 39.756 46.3243 40.2433C46.9719 40.5182 47.6761 40.6333 48.3774 40.5791C49.0788 40.5248 49.7569 40.3027 50.3544 39.9315C51.3384 39.3082 52.2522 38.5803 53.0797 37.7606C53.3558 37.5012 53.5761 37.1882 53.727 36.8407C53.8779 36.4932 53.9562 36.1186 53.9573 35.7398C53.9628 35.2906 53.8609 34.8467 53.6601 34.4449C53.4592 34.0432 53.1651 33.6953 52.8025 33.4302C49.8651 31.3105 46.3323 30.1746 42.7099 30.1854C42.4848 30.2022 42.2618 30.1329 42.086 29.9913C41.9101 29.8498 41.7946 29.6467 41.763 29.4232C41.7568 29.3116 41.7729 29.1998 41.8103 29.0944C41.8477 28.989 41.9057 28.8921 41.9809 28.8093C42.0562 28.7266 42.1471 28.6596 42.2485 28.6123C42.3499 28.5651 42.4596 28.5385 42.5714 28.534C46.6193 28.4697 50.5786 29.722 53.8534 32.1022C54.437 32.511 54.9145 33.0533 55.2459 33.6841C55.5774 34.3148 55.7532 35.0157 55.7587 35.7282C55.7571 36.3248 55.6344 36.9148 55.3983 37.4626C55.1621 38.0104 54.8172 38.5046 54.3845 38.9153C53.4667 39.8111 52.4608 40.6119 51.3822 41.3057C50.4017 41.9169 49.2695 42.241 48.1142 42.241" fill="#D40054"/>
<path d="M48.7396 35.1507C47.8158 35.1507 47.1691 35.6358 47.1691 36.063C47.1691 36.4903 47.8158 36.9868 48.7396 36.9868C49.6634 36.9868 50.3216 36.5018 50.3216 36.063C50.3216 35.6242 49.675 35.1507 48.7396 35.1507ZM48.7396 38.615C46.8689 38.615 45.4023 37.4603 45.4023 36.0284C45.4023 34.5965 46.9035 33.4532 48.7396 33.4532C50.5757 33.4532 52.0768 34.608 52.0768 36.0284C52.0768 37.4487 50.6103 38.615 48.7396 38.615Z" fill="#D40054"/>
<path d="M49.7093 60.0012C49.5865 60.0023 49.4647 59.9783 49.3515 59.9306C49.2383 59.883 49.1361 59.8127 49.0511 59.7241C48.9771 59.645 48.92 59.5517 48.8832 59.4499C48.8465 59.3481 48.8309 59.2398 48.8374 59.1318C48.8439 59.0237 48.8723 58.9181 48.921 58.8214C48.9696 58.7247 49.0374 58.6389 49.1203 58.5693C50.4062 57.4643 51.5229 56.1765 52.4346 54.747C51.5607 52.5045 51.2745 50.0757 51.6031 47.6915C51.6504 47.4686 51.7835 47.2734 51.9737 47.148C52.1639 47.0226 52.3959 46.9773 52.6193 47.0217C52.7294 47.0373 52.8354 47.0745 52.931 47.1311C53.0267 47.1878 53.1102 47.2628 53.1767 47.3519C53.2433 47.441 53.2916 47.5424 53.3188 47.6502C53.346 47.758 53.3516 47.8701 53.3352 47.9801C53.0473 50.1981 53.35 52.4527 54.2129 54.5161C54.264 54.6224 54.2906 54.7388 54.2906 54.8568C54.2906 54.9747 54.264 55.0911 54.2129 55.1974C53.1778 56.9367 51.8674 58.4966 50.3329 59.8164C50.1698 59.9588 49.9604 60.0368 49.744 60.0358" fill="#D40054"/>
<path d="M66.0616 82.288C65.8909 82.2894 65.7236 82.2409 65.58 82.1487C65.4364 82.0564 65.3228 81.9242 65.2532 81.7684C65.2109 81.6655 65.1899 81.5552 65.1915 81.444C65.1931 81.3328 65.2173 81.2231 65.2627 81.1215C65.308 81.02 65.3736 80.9287 65.4554 80.8533C65.5371 80.7779 65.6333 80.7199 65.7382 80.6829C67.1218 80.1867 68.4432 79.5318 69.676 78.7314C69.9878 76.9877 71.4197 68.0961 68.6598 63.3846C68.5984 63.2881 68.5585 63.1795 68.5428 63.0662C68.5271 62.9529 68.536 62.8376 68.5689 62.728C68.6017 62.6184 68.6578 62.5173 68.7333 62.4313C68.8088 62.3454 68.9018 62.2767 69.0062 62.2299C69.2048 62.1326 69.4322 62.1118 69.6452 62.1714C69.8581 62.231 70.0417 62.367 70.161 62.5532C73.5213 68.327 71.3966 78.8699 71.3157 79.3203C71.2774 79.5068 71.1753 79.6742 71.027 79.7937C69.6097 80.8076 68.0542 81.6126 66.408 82.1841C66.3024 82.2302 66.1884 82.2537 66.0731 82.2534" fill="#D40054"/>
<path d="M65.2172 60.0012C65.0547 60.0002 64.8954 59.9564 64.7553 59.8741C61.1225 57.9248 57.236 56.4907 53.2077 55.6131C53.0976 55.5938 52.9924 55.5525 52.8986 55.4917C52.8048 55.4308 52.7242 55.3517 52.6616 55.259C52.5991 55.1663 52.556 55.0619 52.5347 54.9521C52.5134 54.8423 52.5145 54.7293 52.5379 54.62C52.5977 54.3999 52.7409 54.2117 52.937 54.0953C53.1332 53.9789 53.367 53.9434 53.5888 53.9964C57.8159 54.8991 61.8914 56.4041 65.6907 58.4653C65.788 58.5198 65.873 58.5938 65.9403 58.6828C66.0076 58.7717 66.0559 58.8736 66.0819 58.9821C66.1079 59.0905 66.1113 59.2032 66.0916 59.313C66.072 59.4228 66.0298 59.5274 65.9678 59.6201C65.8838 59.7414 65.7716 59.8404 65.6408 59.9088C65.5101 59.9772 65.3647 60.0128 65.2172 60.0127" fill="#D40054"/>
<path d="M42.5014 84.5513H19.9836C19.7832 84.5538 19.5879 84.4875 19.4304 84.3635C19.2728 84.2396 19.1624 84.0654 19.1176 83.87L14.8912 61.4677C14.8211 61.1119 14.8358 60.7446 14.9341 60.3955C15.0324 60.0464 15.2116 59.7254 15.457 59.4584C15.7085 59.1816 16.0151 58.9605 16.3572 58.8093C16.6993 58.6582 17.0692 58.5804 17.4432 58.5808H42.6631C42.8836 58.5808 43.0951 58.6684 43.251 58.8243C43.4069 58.9802 43.4945 59.1917 43.4945 59.4122C43.4945 59.6327 43.4069 59.8442 43.251 60.0001C43.0951 60.156 42.8836 60.2437 42.6631 60.2437H17.4432C17.321 60.2428 17.2001 60.268 17.0886 60.3178C16.977 60.3676 16.8774 60.4408 16.7965 60.5324C16.7175 60.6184 16.6597 60.7216 16.6276 60.8338C16.5955 60.9461 16.5901 61.0643 16.6118 61.179L20.7227 82.8885H42.5014C42.7219 82.8885 42.9334 82.9761 43.0893 83.132C43.2452 83.2879 43.3329 83.4994 43.3329 83.7199C43.3329 83.9404 43.2452 84.1519 43.0893 84.3078C42.9334 84.4637 42.7219 84.5513 42.5014 84.5513Z" fill="#D40054"/>
<path d="M42.5003 89.0319H19.9825C19.3478 89.0477 18.732 88.8153 18.2661 88.3839C17.8002 87.9526 17.5212 87.3564 17.4883 86.7223V85.2904C17.5212 84.6564 17.8002 84.0602 18.2661 83.6289C18.732 83.1975 19.3478 82.965 19.9825 82.9809C20.203 82.9809 20.4145 83.0685 20.5704 83.2244C20.7263 83.3804 20.814 83.5918 20.814 83.8124C20.814 84.0329 20.7263 84.2443 20.5704 84.4002C20.4145 84.5562 20.203 84.6437 19.9825 84.6437C19.8885 84.6407 19.7948 84.6562 19.7067 84.6893C19.6187 84.7225 19.5381 84.7727 19.4694 84.837C19.4008 84.9014 19.3455 84.9786 19.3068 85.0643C19.268 85.1501 19.2465 85.2426 19.2435 85.3366V86.7685C19.2465 86.8626 19.268 86.9551 19.3068 87.0408C19.3455 87.1265 19.4008 87.2038 19.4694 87.2681C19.5381 87.3325 19.6187 87.3827 19.7067 87.4158C19.7948 87.449 19.8885 87.4644 19.9825 87.4614H42.5003C42.7208 87.4614 42.9323 87.549 43.0882 87.7049C43.2441 87.8608 43.3318 88.0723 43.3318 88.2928C43.3318 88.5133 43.2441 88.7248 43.0882 88.8807C42.9323 89.0366 42.7208 89.1242 42.5003 89.1242" fill="#D40054"/>
<path d="M65.1827 84.5514H42.665C42.5558 84.5514 42.4477 84.5298 42.3468 84.4881C42.2459 84.4463 42.1543 84.385 42.0771 84.3078C41.9999 84.2306 41.9386 84.139 41.8968 84.0381C41.855 83.9372 41.8335 83.8291 41.8335 83.7199C41.8335 83.6107 41.855 83.5026 41.8968 83.4017C41.9386 83.3009 41.9999 83.2092 42.0771 83.132C42.1543 83.0548 42.2459 82.9936 42.3468 82.9518C42.4477 82.91 42.5558 82.8885 42.665 82.8885H64.4552L68.5546 61.1791C68.5762 61.0643 68.5708 60.9461 68.5388 60.8339C68.5067 60.7216 68.4489 60.6184 68.3699 60.5324C68.29 60.4396 68.1906 60.3656 68.0788 60.3157C67.967 60.2658 67.8456 60.2412 67.7232 60.2437H42.5033C42.2828 60.2437 42.0713 60.1561 41.9154 60.0002C41.7595 59.8442 41.6719 59.6328 41.6719 59.4123C41.6719 59.1918 41.7595 58.9803 41.9154 58.8244C42.0713 58.6684 42.2828 58.5808 42.5033 58.5808H67.7001C68.0743 58.579 68.4447 58.6562 68.787 58.8074C69.1293 58.9586 69.4357 59.1805 69.6863 59.4584C69.9317 59.7254 70.1109 60.0464 70.2092 60.3955C70.3075 60.7446 70.3222 61.1119 70.2522 61.4677L66.0257 83.87C65.9829 84.0665 65.873 84.2419 65.715 84.3662C65.557 84.4905 65.3606 84.556 65.1596 84.5514" fill="#D40054"/>
<path d="M65.1852 89.0318H42.6674C42.4469 89.0318 42.2354 88.9442 42.0795 88.7883C41.9236 88.6324 41.8359 88.4209 41.8359 88.2004C41.8359 87.9798 41.9236 87.7684 42.0795 87.6124C42.2354 87.4565 42.4469 87.3689 42.6674 87.3689H65.1852C65.2792 87.372 65.3729 87.3565 65.461 87.3234C65.549 87.2902 65.6297 87.24 65.6983 87.1757C65.7669 87.1113 65.8222 87.0341 65.861 86.9484C65.8997 86.8626 65.9213 86.7701 65.9243 86.6761V85.2442C65.9213 85.1501 65.8997 85.0576 65.861 84.9719C65.8222 84.8861 65.7669 84.8089 65.6983 84.7446C65.6297 84.6802 65.549 84.63 65.461 84.5969C65.3729 84.5637 65.2792 84.5482 65.1852 84.5513C65.076 84.5513 64.9679 84.5298 64.867 84.488C64.7662 84.4462 64.6745 84.385 64.5973 84.3078C64.5201 84.2306 64.4588 84.1389 64.417 84.0381C64.3752 83.9372 64.3537 83.8291 64.3537 83.7199C64.3537 83.6107 64.3752 83.5026 64.417 83.4017C64.4588 83.3008 64.5201 83.2092 64.5973 83.132C64.6745 83.0548 64.7662 82.9935 64.867 82.9518C64.9679 82.91 65.076 82.8885 65.1852 82.8885C65.8199 82.8726 66.4357 83.105 66.9016 83.5364C67.3675 83.9678 67.6465 84.5639 67.6794 85.198V86.6299C67.6465 87.2639 67.3675 87.8601 66.9016 88.2915C66.4357 88.7228 65.8199 88.9553 65.1852 88.9394" fill="#D40054"/>
<path d="M42.6639 68.4656C42.0587 68.5017 41.4773 68.714 40.9913 69.0765C40.5054 69.439 40.1361 69.9358 39.9291 70.5056C39.7221 71.0754 39.6863 71.6934 39.8262 72.2833C39.9661 72.8732 40.2756 73.4093 40.7165 73.8254C41.1574 74.2415 41.7104 74.5196 42.3074 74.6252C42.9044 74.7308 43.5193 74.6595 44.0762 74.4199C44.6331 74.1803 45.1077 73.783 45.4416 73.2769C45.7754 72.7709 45.9539 72.1782 45.9549 71.5719C45.943 71.1518 45.8484 70.7382 45.6765 70.3546C45.5046 69.9711 45.2588 69.6252 44.9531 69.3368C44.6475 69.0483 44.288 68.8229 43.8952 68.6734C43.5024 68.5239 43.084 68.4533 42.6639 68.4656ZM42.6639 76.3295C41.7339 76.2754 40.84 75.9501 40.0928 75.3937C39.3456 74.8374 38.7777 74.0743 38.4592 73.1989C38.1407 72.3234 38.0856 71.3738 38.3007 70.4674C38.5158 69.561 38.9916 68.7374 39.6695 68.0983C40.3473 67.4593 41.1975 67.0327 42.115 66.8713C43.0325 66.71 43.9772 66.8209 44.8324 67.1903C45.6876 67.5598 46.4159 68.1716 46.9273 68.9503C47.4387 69.7289 47.7109 70.6403 47.7102 71.5719C47.6679 72.8706 47.1135 74.0999 46.1681 74.9913C45.2226 75.8826 43.9629 76.3638 42.6639 76.3295Z" fill="#D40054"/>
</svg>
