<svg width="44" height="44" viewBox="0 0 44 44" fill="none" xmlns="http://www.w3.org/2000/svg">
<circle cx="22" cy="22" r="21.5" fill="white" stroke="#D31C5B"/>
<path d="M24.7393 14.3379H24.9111V16.0244H24.7393C23.6865 16.0244 22.8057 16.1963 22.0967 16.54C21.3877 16.8766 20.8255 17.3314 20.4102 17.9043C19.9948 18.4701 19.694 19.1074 19.5078 19.8164C19.3288 20.5254 19.2393 21.2451 19.2393 21.9756V24.2744C19.2393 24.9691 19.3216 25.585 19.4863 26.1221C19.651 26.652 19.8766 27.0996 20.1631 27.4648C20.4495 27.8301 20.7718 28.1058 21.1299 28.292C21.4951 28.4782 21.8747 28.5713 22.2686 28.5713C22.7269 28.5713 23.1351 28.4854 23.4932 28.3135C23.8512 28.1344 24.152 27.8874 24.3955 27.5723C24.6462 27.25 24.8359 26.8704 24.9648 26.4336C25.0938 25.9967 25.1582 25.5169 25.1582 24.9941C25.1582 24.5286 25.1009 24.0811 24.9863 23.6514C24.8717 23.2145 24.6963 22.8278 24.46 22.4912C24.2236 22.1475 23.9264 21.8789 23.5684 21.6855C23.2174 21.485 22.7985 21.3848 22.3115 21.3848C21.7601 21.3848 21.2445 21.5208 20.7646 21.793C20.292 22.0579 19.9017 22.4089 19.5938 22.8457C19.293 23.2754 19.1211 23.7445 19.0781 24.2529L18.0254 24.2422C18.1257 23.4401 18.3118 22.7562 18.584 22.1904C18.8633 21.6175 19.207 21.152 19.6152 20.7939C20.0306 20.4287 20.4925 20.1637 21.001 19.999C21.5166 19.8271 22.0609 19.7412 22.6338 19.7412C23.4144 19.7412 24.0876 19.888 24.6533 20.1816C25.2191 20.4753 25.6846 20.8691 26.0498 21.3633C26.415 21.8503 26.6836 22.4017 26.8555 23.0176C27.0345 23.6263 27.124 24.2529 27.124 24.8975C27.124 25.6351 27.0202 26.3262 26.8125 26.9707C26.6048 27.6152 26.2933 28.181 25.8779 28.668C25.4697 29.1549 24.9648 29.5345 24.3633 29.8066C23.7617 30.0788 23.0635 30.2148 22.2686 30.2148C21.4235 30.2148 20.6859 30.043 20.0557 29.6992C19.4255 29.3483 18.9027 28.8828 18.4873 28.3027C18.0719 27.7227 17.7604 27.0781 17.5527 26.3691C17.3451 25.6602 17.2412 24.9404 17.2412 24.21V23.2754C17.2412 22.1725 17.3522 21.0911 17.5742 20.0312C17.7962 18.9714 18.1794 18.0117 18.7236 17.1523C19.2751 16.293 20.0378 15.609 21.0117 15.1006C21.9857 14.5921 23.2282 14.3379 24.7393 14.3379Z" fill="#D31C5B"/>
</svg>
