<svg width="80" height="80" viewBox="0 0 80 80" fill="none" xmlns="http://www.w3.org/2000/svg">
<g clip-path="url(#clip0_13_3270)">
<path d="M59.0064 51.596H53.3945V66.303H59.0064V51.596Z" fill="#D40054"/>
<mask id="mask0_13_3270" style="mask-type:luminance" maskUnits="userSpaceOnUse" x="4" y="12" width="72" height="57">
<path d="M76 12H4V68.0113H76V12Z" fill="white"/>
</mask>
<g mask="url(#mask0_13_3270)">
<path d="M56.6949 51.0303V45.4756C56.6949 45.1755 56.5767 44.8878 56.3662 44.6756C56.1557 44.4635 55.8702 44.3442 55.5726 44.3442H42.6765C42.3789 44.3442 42.0934 44.4635 41.8829 44.6756C41.6724 44.8878 41.5542 45.1755 41.5542 45.4756V65.6921C41.5542 65.9922 41.6724 66.2799 41.8829 66.4921C42.0934 66.7043 42.3789 66.8234 42.6765 66.8234H55.5277M48.2884 48.779H49.9271M33.8323 42.1721H35.471M41.5429 54.0622H19.8027M41.5093 58.2707H20.9699C20.6722 58.2707 20.3868 58.1515 20.1763 57.9394C19.9658 57.7272 19.8475 57.4394 19.8475 57.1394V39.1968C19.8475 38.8967 19.9658 38.609 20.1763 38.3968C20.3868 38.1846 20.6722 38.0655 20.9699 38.0655H48.2772C48.5748 38.0655 48.8603 38.1846 49.0708 38.3968C49.2813 38.609 49.3995 38.8967 49.3995 39.1968V44.299M66.381 55.9515C68.2048 55.9542 69.981 55.3645 71.4462 54.2697C72.9115 53.175 73.9877 51.6335 74.5155 49.8738C75.0433 48.114 74.9944 46.2297 74.3763 44.5001C73.7581 42.7705 72.6036 41.2877 71.0837 40.2715C71.5527 38.9185 71.7954 37.4963 71.802 36.063C71.7974 32.8187 70.5691 29.6976 68.3662 27.3322C66.1633 24.9667 63.1505 23.534 59.9386 23.3245C58.5976 20.2706 56.4001 17.6784 53.6165 15.8671C50.8329 14.0557 47.5847 13.1041 44.2715 13.1294C40.9584 13.1546 37.7248 14.1556 34.9687 16.0092C32.2126 17.8628 30.0542 20.4881 28.7591 23.562C27.8617 23.3761 26.948 23.2813 26.0318 23.2792C24.2542 23.2807 22.4944 23.6351 20.8528 24.3221C19.2111 25.0091 17.7197 26.0154 16.4638 27.2833C15.208 28.5513 14.2122 30.0562 13.5333 31.7121C12.8544 33.368 12.5058 35.1424 12.5073 36.9342C12.5141 37.6007 12.5666 38.266 12.6644 38.9252C10.5164 39.1757 8.54464 40.2443 7.15284 41.9123C5.76105 43.5803 5.05452 45.7214 5.17787 47.8974C5.30123 50.0734 6.2452 52.1195 7.81644 53.6168C9.38769 55.1141 11.4673 55.9494 13.6296 55.9515M53.1707 51.777C53.1707 51.673 53.191 51.57 53.2305 51.4739C53.27 51.3778 53.3278 51.2906 53.4008 51.217C53.4737 51.1435 53.5604 51.0851 53.6557 51.0453C53.751 51.0055 53.8532 50.985 53.9563 50.985H59.2988C59.402 50.985 59.5042 51.0055 59.5995 51.0453C59.6948 51.0851 59.7814 51.1435 59.8544 51.217C59.9274 51.2906 59.9852 51.3778 60.0247 51.4739C60.0642 51.57 60.0845 51.673 60.0845 51.777V66.0315C60.0845 66.1355 60.0642 66.2385 60.0247 66.3346C59.9852 66.4307 59.9274 66.518 59.8544 66.5915C59.7814 66.665 59.6948 66.7234 59.5995 66.7632C59.5042 66.8029 59.402 66.8234 59.2988 66.8234H53.9563C53.8532 66.8234 53.751 66.8029 53.6557 66.7632C53.5604 66.7234 53.4737 66.665 53.4008 66.5915C53.3278 66.518 53.27 66.4307 53.2305 66.3346C53.191 66.2385 53.1707 66.1355 53.1707 66.0315V51.777ZM37.6147 62.5697H36.4923V58.2254H32.8446V62.5697H31.7222L28.2653 63.2485V66.8234H40.993V63.2485L37.6147 62.5697Z" stroke="#3F3F3F" stroke-width="2"/>
</g>
</g>
<defs>
<clipPath id="clip0_13_3270">
<rect width="72" height="56" fill="white" transform="translate(4 12)"/>
</clipPath>
</defs>
</svg>
