<svg width="80" height="80" viewBox="0 0 80 80" fill="none" xmlns="http://www.w3.org/2000/svg">
<g clip-path="url(#clip0_2_834)">
<mask id="mask0_2_834" style="mask-type:luminance" maskUnits="userSpaceOnUse" x="11" y="2" width="58" height="76">
<path d="M69 2.98422H11V77.9842H69V2.98422Z" fill="white"/>
</mask>
<g mask="url(#mask0_2_834)">
<path d="M27.9923 60.3281C24.1322 57.0423 21.1396 52.8629 19.2766 48.1562C17.2177 42.8155 16.5647 37.0384 17.3798 31.375L18.3047 22C23.1955 21.6562 33.0712 19.7344 38.7772 10.0156H40.3447C45.1885 20.0312 56.4906 21.7812 61.742 22.0312L62.6669 31.5156V31.5937C63.4581 37.1341 62.8049 42.7842 60.7701 48C58.9049 52.6973 55.9251 56.8739 52.0858 60.1718L40.0939 70.3906L27.9923 60.3281Z" fill="#D40054"/>
<path d="M27.9923 60.3281C24.1322 57.0423 21.1396 52.8629 19.2766 48.1562C17.2177 42.8155 16.5647 37.0384 17.3798 31.375L18.3047 22C23.1955 21.6562 33.0712 19.7344 38.7772 10.0156H40.3447C45.1885 20.0312 56.4906 21.7812 61.742 22.0312L62.6669 31.5156V31.5937C63.4581 37.1341 62.8049 42.7842 60.7701 48C58.9049 52.6973 55.9251 56.8739 52.0858 60.1718L40.0939 70.3906L27.9923 60.3281Z" stroke="white" stroke-miterlimit="10"/>
<path d="M13.9781 17.2031L12.7711 30.1875C11.9081 36.8826 12.7324 43.6865 15.1695 49.9844C17.5529 55.4965 21.2237 60.3608 25.8759 64.1719L40.0781 76.0469L54.1862 64.1875C58.8131 60.3733 62.4618 55.5152 64.83 50.0156C67.2514 43.7356 68.0701 36.9546 67.2127 30.2813L66.0057 17.2031C62.7403 17.3513 59.4709 17.0197 56.3024 16.2188C49.3268 14.4063 44.5457 10.3594 42.4608 4.48438H36.7548C35.385 7.331 33.4157 9.84988 30.9811 11.8694C28.5465 13.889 25.7039 15.3618 22.6467 16.1875C19.8509 16.9818 16.9454 17.3247 14.0408 17.2031M40.1408 77.2344L25.3743 64.8906C20.6055 60.983 16.8432 55.9953 14.4013 50.3438C11.8944 43.8834 11.0484 36.9007 11.9403 30.0313L13.2256 16.1563H13.6646C13.8213 16.1563 29.5284 17.6094 36.1279 3.65626L36.2376 3.40625H43.1348L43.2289 3.71877C47.9316 17.6094 66.2408 16.1094 66.4289 16.0937H66.8678L68.1376 30.0469C69.0268 36.924 68.1698 43.9137 65.6451 50.375C63.2219 56.0119 59.4875 60.9928 54.7506 64.9062L40.1408 77.2344Z" fill="#3F3F3F"/>
<path d="M13.9784 17.2031L12.7713 30.1875C11.9083 36.8826 12.7327 43.6865 15.1697 49.9844C17.5532 55.4965 21.2239 60.3608 25.8762 64.1719L40.0783 76.0469L54.1864 64.1875C58.8133 60.3733 62.4621 55.5152 64.8303 50.0156C67.2516 43.7356 68.0703 36.9546 67.2129 30.2813L66.0059 17.2031C62.7406 17.3513 59.4711 17.0197 56.3027 16.2188C49.327 14.4063 44.5459 10.3594 42.461 4.48438H36.7551C35.3852 7.331 33.416 9.84988 30.9814 11.8694C28.5468 13.889 25.7041 15.3618 22.647 16.1875C19.831 16.9885 16.9039 17.3314 13.9784 17.2031ZM40.0783 77.2344L25.3119 64.8906C20.5431 60.983 16.7808 55.9953 14.3389 50.3438C11.832 43.8834 10.9859 36.9007 11.8778 30.0313L13.1632 16.1563H13.6022C13.7589 16.1563 29.4659 17.6094 36.0653 3.65626L36.1751 3.40625H43.0724L43.1665 3.71877C47.8692 17.6094 66.1783 16.1094 66.3664 16.0937H66.8054L68.0751 30.0469C68.9843 36.9188 68.1488 43.9083 65.6453 50.375C63.2221 56.0119 59.4877 60.9928 54.7508 64.9062L40.0783 77.2344Z" stroke="#3F3F3F" stroke-width="0.75" stroke-miterlimit="10"/>
</g>
<path d="M39.2477 48.0469L31.1904 39.8906L34.0748 36.9687L39.2477 42.2031L48.8569 32.4688L51.7412 35.3906L39.2477 48.0469Z" fill="white"/>
<path d="M39.2477 48.0469L31.1904 39.8906L34.0748 36.9687L39.2477 42.2031L48.8569 32.4688L51.7412 35.3906L39.2477 48.0469Z" stroke="white" stroke-width="0.75" stroke-miterlimit="10"/>
</g>
<defs>
<clipPath id="clip0_2_834">
<rect width="58" height="75" fill="white" transform="translate(11 3)"/>
</clipPath>
</defs>
</svg>
