<?xml version="1.0" encoding="utf-8"?>
<!-- Generator: Adobe Illustrator 24.0.0, SVG Export Plug-In . SVG Version: 6.00 Build 0)  -->
<svg version="1.1" id="Layer_1" xmlns="http://www.w3.org/2000/svg" xmlns:xlink="http://www.w3.org/1999/xlink" x="0px" y="0px"
	 viewBox="0 0 802.2 145.3" style="enable-background:new 0 0 802.2 145.3;" xml:space="preserve">
<style type="text/css">
	.st0{fill:#D40054;}
	.st1{fill:#D31C5B;}
</style>
<path class="st0" d="M584.8,61.6c-2.9,0-6.1-0.9-7.7-1.9l1-3.3c2.1,1.3,4.6,2,7,2c4,0,6.4-2.1,6.4-5.2c0-2.8-1.6-4.5-5.7-6
	c-5-1.8-8-4.3-8-8.6c0-4.7,3.9-8.3,9.8-8.3c2.3-0.1,4.6,0.4,6.7,1.5l-1.1,3.2c-1.8-0.9-3.8-1.4-5.8-1.4c-4.2,0-5.7,2.5-5.7,4.6
	c0,2.8,1.9,4.2,6,5.9c5.1,2,7.8,4.5,7.8,8.9C595.4,57.5,591.9,61.6,584.8,61.6z M568.7,61.1l-0.8-13.3c-0.2-4.2-0.5-9.3-0.5-13.1
	h-0.1c-1,3.6-2.3,7.3-3.8,11.5l-5.4,14.7h-3l-4.9-14.5c-1.4-4.3-2.7-8.2-3.5-11.8h-0.1c-0.1,3.8-0.3,8.9-0.6,13.4l-0.8,13.1h-3.7
	l2.1-30.4h5l5.2,14.7c1.3,3.7,2.3,7.1,3.1,10.2h0.1c0.8-3.1,1.9-6.4,3.2-10.2l5.4-14.7h5l1.9,30.4H568.7z M551,121.8h-67.4V24.6
	h24.2c-3.8,6.1-5.9,13.1-5.9,20.2c0,11.9,5.7,22.8,15,30.9h-0.2c5.9,6.2,3.9,9.7,3.1,13.4l-7.1,14.8c0,0,10.9-10.6,38.2-13.6v31.5
	H551z M522.3,136.9h-10.1c-1.1,0-2.2-0.4-3-1.2c-0.8-0.8-1.2-1.8-1.2-3c0-1.1,0.4-2.2,1.2-3c0.8-0.8,1.8-1.2,3-1.2h10.1
	c1.1,0,2.2,0.4,3,1.2s1.2,1.8,1.2,3c0,1.1-0.4,2.2-1.2,3C524.5,136.4,523.4,136.9,522.3,136.9z M506,14.1h10.9
	c-1.8,1.5-3.4,3.2-4.9,4.9h-6c-0.3,0-0.7,0-1-0.1c-0.3-0.1-0.6-0.3-0.8-0.5c-0.2-0.2-0.4-0.5-0.6-0.8c-0.1-0.3-0.2-0.6-0.2-1
	s0.1-0.7,0.2-1c0.1-0.3,0.3-0.6,0.6-0.8c0.2-0.2,0.5-0.4,0.8-0.5C505.3,14.1,505.7,14.1,506,14.1z M527.2,47.1c-5-1.8-8-4.3-8-8.6
	c0-4.7,3.9-8.3,9.8-8.3c2.3-0.1,4.6,0.4,6.7,1.5l-1.1,3.2c-1.8-0.9-3.8-1.4-5.8-1.4c-4.2,0-5.7,2.5-5.7,4.6c0,2.8,1.9,4.2,6,5.9
	c5.1,2,7.8,4.5,7.8,8.9c0,4.7-3.5,8.8-10.6,8.8c-2.9,0-6.1-0.9-7.8-1.9l1-3.3c2.1,1.3,4.6,2,7,2c4,0,6.4-2.1,6.4-5.2
	C532.9,50.3,531.3,48.7,527.2,47.1z M556.9,0c-11.4-0.1-22.5,2.9-32.3,8.5h-33.1c-1.8,0-3.6,0.4-5.3,1c-1.7,0.7-3.2,1.7-4.5,3
	c-1.3,1.3-2.3,2.8-3,4.5c-0.7,1.7-1,3.5-1,5.3v109.2c0,1.8,0.4,3.6,1,5.3c0.7,1.7,1.7,3.2,3,4.5c1.3,1.3,2.8,2.3,4.5,3
	c1.7,0.7,3.5,1,5.3,1h51.6c3.7,0,7.2-1.4,9.7-4c2.6-2.6,4-6.1,4-9.7V89.8h0.5c0.8,0,3.3-0.1,3.7-0.1c28.4-1.8,50.7-21.1,50.7-44.7
	C611.8,20.1,587.2,0,556.9,0"/>
<path class="st0" d="M650.4,71.9L640,62v5.6c-9.7,1.4-13.2,8.4-14.6,15.3c3.5-4.9,7.7-7.1,14.6-7.1v5.7L650.4,71.9z"/>
<path class="st1" d="M690.2,62.8h2.8v14.4c0,1.6-0.4,2.9-1.1,4s-1.7,1.9-2.8,2.4c-1.2,0.5-2.4,0.8-3.8,0.8c-1.4,0-2.8-0.3-3.9-0.8
	c-1.2-0.5-2.1-1.3-2.8-2.4s-1-2.4-1-4V62.8h2.8v14.4c0,1.1,0.2,2,0.6,2.8c0.4,0.7,1,1.3,1.7,1.6c0.7,0.4,1.6,0.5,2.6,0.5
	s1.8-0.2,2.6-0.5c0.7-0.4,1.3-0.9,1.7-1.6c0.4-0.7,0.6-1.6,0.6-2.8L690.2,62.8L690.2,62.8z M703.7,68.3v2.1h-8.6v-2.1H703.7z
	 M698,64.4h2.7v15.8c0,0.5,0.1,0.9,0.2,1.2c0.2,0.3,0.4,0.5,0.6,0.5c0.3,0.1,0.5,0.1,0.8,0.1c0.2,0,0.5,0,0.7-0.1
	c0.3,0,0.4-0.1,0.6-0.1V84c-0.2,0.1-0.5,0.1-0.8,0.2s-0.8,0.1-1.2,0.1c-0.7,0-1.3-0.1-1.8-0.4c-0.6-0.3-1-0.7-1.3-1.3
	c-0.3-0.6-0.5-1.5-0.5-2.5V64.4z M709.8,68.3v15.8h-2.7V68.3H709.8z M706.9,64c0-0.4,0.1-0.8,0.4-1.1s0.7-0.5,1.2-0.5
	s0.9,0.2,1.2,0.5s0.4,0.7,0.4,1.1c0,0.4-0.1,0.8-0.4,1.1c-0.3,0.3-0.7,0.4-1.2,0.4s-0.9-0.1-1.2-0.4C707,64.8,706.9,64.5,706.9,64z
	 M717.1,61.6v22.5h-2.7V61.6H717.1z M724.4,68.3v15.8h-2.7V68.3H724.4z M721.4,64c0-0.4,0.1-0.8,0.4-1.1s0.7-0.5,1.2-0.5
	s0.9,0.2,1.2,0.5s0.4,0.7,0.4,1.1c0,0.4-0.1,0.8-0.4,1.1c-0.3,0.3-0.7,0.4-1.2,0.4s-0.9-0.1-1.2-0.4C721.6,64.8,721.4,64.5,721.4,64
	z M740.5,81.9v2.2H729v-2.2H740.5z M740.1,70.2l-10.5,13.9h-1.7v-2l10.4-13.9h1.7L740.1,70.2L740.1,70.2z M738.9,68.3v2.2h-10.8
	v-2.2H738.9z M749.9,84.4c-1.1,0-2.1-0.2-3-0.6c-0.9-0.4-1.7-0.9-2.3-1.6s-1.1-1.5-1.5-2.4c-0.4-0.9-0.5-2-0.5-3.1v-0.6
	c0-1.3,0.2-2.4,0.6-3.4c0.4-1,0.9-1.9,1.6-2.6s1.4-1.2,2.2-1.6s1.7-0.5,2.6-0.5c1.1,0,2.1,0.2,2.9,0.6s1.5,0.9,2,1.6
	s0.9,1.5,1.2,2.5c0.3,0.9,0.4,2,0.4,3.1V77h-11.8v-2.2h9.1v-0.2c0-0.7-0.2-1.4-0.4-2.1c-0.2-0.7-0.6-1.2-1.2-1.6
	c-0.5-0.4-1.3-0.6-2.2-0.6c-0.6,0-1.2,0.1-1.7,0.4s-1,0.6-1.3,1.1c-0.4,0.5-0.7,1.1-0.9,1.9c-0.2,0.7-0.3,1.6-0.3,2.5v0.6
	c0,0.8,0.1,1.5,0.3,2.1c0.2,0.7,0.5,1.2,0.9,1.7c0.4,0.5,0.9,0.9,1.5,1.2c0.6,0.3,1.3,0.4,2,0.4c1,0,1.8-0.2,2.4-0.6
	c0.7-0.4,1.2-0.9,1.7-1.6l1.6,1.3c-0.3,0.5-0.8,1-1.3,1.5s-1.2,0.8-1.9,1.1C751.9,84.2,751,84.4,749.9,84.4z M776.1,81.4v-8.2
	c0-0.6-0.1-1.2-0.4-1.6c-0.2-0.5-0.6-0.8-1.1-1.1c-0.5-0.3-1.1-0.4-1.8-0.4c-0.7,0-1.3,0.1-1.8,0.4c-0.5,0.2-0.9,0.5-1.2,0.9
	s-0.4,0.8-0.4,1.2h-2.7c0-0.6,0.1-1.1,0.4-1.7s0.7-1.1,1.3-1.5c0.6-0.5,1.2-0.8,2-1.1c0.8-0.3,1.7-0.4,2.6-0.4c1.2,0,2.2,0.2,3,0.6
	c0.9,0.4,1.6,1,2.1,1.8s0.8,1.8,0.8,2.9v7.4c0,0.5,0,1.1,0.1,1.7c0.1,0.6,0.2,1.1,0.4,1.5V84h-2.8c-0.1-0.3-0.2-0.7-0.3-1.2
	C776.1,82.3,776.1,81.8,776.1,81.4z M776.5,74.5v1.9h-2.7c-0.8,0-1.5,0.1-2.1,0.2c-0.6,0.1-1.1,0.3-1.5,0.5
	c-0.4,0.2-0.7,0.6-0.9,0.9c-0.2,0.4-0.3,0.8-0.3,1.3s0.1,1,0.3,1.4c0.2,0.4,0.6,0.7,1,1c0.5,0.2,1,0.4,1.7,0.4
	c0.8,0,1.6-0.2,2.2-0.5c0.6-0.4,1.1-0.8,1.5-1.3c0.4-0.5,0.6-1,0.6-1.5l1.2,1.3c-0.1,0.4-0.3,0.9-0.6,1.4c-0.3,0.5-0.7,1-1.2,1.4
	s-1.1,0.8-1.8,1.1c-0.7,0.3-1.5,0.4-2.3,0.4c-1.1,0-2-0.2-2.8-0.6s-1.4-1-1.9-1.7c-0.4-0.7-0.7-1.5-0.7-2.4c0-0.8,0.2-1.6,0.5-2.2
	c0.3-0.7,0.8-1.2,1.4-1.6c0.6-0.4,1.4-0.8,2.3-1c0.9-0.2,1.9-0.3,2.9-0.3h3.2V74.5z M783.1,82.7c0-0.5,0.1-0.8,0.4-1.2
	c0.3-0.3,0.7-0.5,1.3-0.5c0.5,0,1,0.2,1.2,0.5c0.3,0.3,0.4,0.7,0.4,1.2c0,0.4-0.1,0.8-0.4,1.1c-0.3,0.3-0.7,0.5-1.2,0.5
	s-1-0.2-1.3-0.5C783.2,83.5,783.1,83.1,783.1,82.7z M791,82.7c0-0.5,0.1-0.8,0.4-1.2c0.3-0.3,0.7-0.5,1.3-0.5s1,0.2,1.2,0.5
	c0.3,0.3,0.4,0.7,0.4,1.2c0,0.4-0.1,0.8-0.4,1.1c-0.3,0.3-0.7,0.5-1.2,0.5s-1-0.2-1.3-0.5C791.1,83.5,791,83.1,791,82.7z
	 M798.9,82.7c0-0.5,0.1-0.8,0.4-1.2c0.3-0.3,0.7-0.5,1.3-0.5c0.5,0,1,0.2,1.2,0.5c0.3,0.3,0.4,0.7,0.4,1.2c0,0.4-0.1,0.8-0.4,1.1
	c-0.3,0.3-0.7,0.5-1.2,0.5s-1-0.2-1.3-0.5C799,83.5,798.9,83.1,798.9,82.7z"/>
<path class="st1" d="M11.8,58.3l5.4,4.3l-1.9,1.8L10,60.1L11.8,58.3z M17.2,49.4v1.3c0,1.6-0.2,3-0.6,4.3c-0.4,1.3-1,2.3-1.7,3.2
	c-0.8,0.9-1.7,1.6-2.7,2c-1,0.5-2.2,0.7-3.5,0.7c-1.3,0-2.4-0.2-3.5-0.7c-1-0.5-2-1.1-2.7-2c-0.8-0.9-1.4-2-1.8-3.2
	C0.2,53.8,0,52.3,0,50.7v-1.3c0-1.6,0.2-3,0.6-4.3c0.4-1.3,1-2.3,1.8-3.2c0.8-0.9,1.7-1.6,2.7-2.1c1.1-0.5,2.2-0.7,3.5-0.7
	c1.3,0,2.5,0.2,3.5,0.7s2,1.2,2.7,2.1c0.8,0.9,1.3,2,1.7,3.2C16.9,46.3,17.2,47.8,17.2,49.4z M14.4,50.7v-1.4c0-1.3-0.1-2.4-0.4-3.4
	c-0.3-1-0.6-1.8-1.1-2.5c-0.5-0.7-1.1-1.2-1.8-1.5c-0.7-0.3-1.5-0.5-2.4-0.5c-0.9,0-1.7,0.2-2.4,0.5c-0.7,0.3-1.3,0.8-1.8,1.5
	C3.9,44.2,3.5,45,3.2,46c-0.3,1-0.4,2.1-0.4,3.4v1.4c0,1.3,0.1,2.4,0.4,3.4c0.3,1,0.7,1.8,1.2,2.5c0.5,0.7,1.1,1.2,1.8,1.5
	s1.5,0.5,2.4,0.5c0.9,0,1.7-0.2,2.4-0.5c0.7-0.3,1.3-0.8,1.8-1.5c0.5-0.7,0.9-1.5,1.1-2.5C14.2,53.1,14.4,52,14.4,50.7z M30.8,57
	V44.9h2.7v15.8h-2.6L30.8,57z M31.3,53.7l1.1,0c0,1.1-0.1,2-0.3,2.9c-0.2,0.9-0.6,1.7-1.1,2.3c-0.5,0.7-1.1,1.2-1.9,1.5
	c-0.8,0.4-1.8,0.5-2.9,0.5c-0.8,0-1.5-0.1-2.1-0.3c-0.6-0.2-1.2-0.6-1.6-1c-0.5-0.5-0.8-1.1-1.1-1.8C21.2,57,21,56.1,21,55.1V44.9
	h2.7v10.3c0,0.7,0.1,1.3,0.2,1.8c0.2,0.5,0.4,0.8,0.7,1.1c0.3,0.3,0.6,0.4,0.9,0.6c0.4,0.1,0.7,0.2,1.1,0.2c1.2,0,2.1-0.2,2.7-0.7
	c0.7-0.4,1.2-1,1.5-1.8C31.2,55.5,31.3,54.6,31.3,53.7z M44.2,61c-1.1,0-2.1-0.2-3-0.6c-0.9-0.4-1.7-0.9-2.3-1.6
	c-0.6-0.7-1.1-1.5-1.5-2.4s-0.5-2-0.5-3.1v-0.6c0-1.3,0.2-2.4,0.6-3.4c0.4-1,0.9-1.9,1.6-2.6c0.7-0.7,1.4-1.2,2.2-1.6
	c0.8-0.4,1.7-0.5,2.6-0.5c1.1,0,2.1,0.2,2.9,0.6c0.8,0.4,1.5,0.9,2,1.6c0.5,0.7,0.9,1.5,1.2,2.5c0.3,0.9,0.4,2,0.4,3.1v1.2H38.6
	v-2.2h9.1v-0.2c0-0.7-0.2-1.4-0.4-2.1c-0.2-0.7-0.6-1.2-1.2-1.6c-0.5-0.4-1.3-0.6-2.2-0.6c-0.6,0-1.2,0.1-1.7,0.4
	c-0.5,0.3-1,0.6-1.3,1.1c-0.4,0.5-0.7,1.1-0.9,1.9c-0.2,0.7-0.3,1.6-0.3,2.5v0.6c0,0.8,0.1,1.5,0.3,2.1c0.2,0.7,0.5,1.2,0.9,1.7
	c0.4,0.5,0.9,0.9,1.5,1.2c0.6,0.3,1.3,0.4,2,0.4c1,0,1.8-0.2,2.4-0.6c0.7-0.4,1.2-0.9,1.7-1.6l1.6,1.3c-0.3,0.5-0.8,1-1.3,1.5
	c-0.5,0.5-1.2,0.8-1.9,1.1C46.2,60.9,45.3,61,44.2,61z M56.3,47.3v13.4h-2.7V44.9h2.6L56.3,47.3z M61.2,44.8l0,2.5
	c-0.2,0-0.4-0.1-0.6-0.1c-0.2,0-0.4,0-0.7,0c-0.6,0-1.2,0.1-1.7,0.3c-0.5,0.2-0.9,0.5-1.2,0.8c-0.3,0.4-0.6,0.8-0.8,1.3
	c-0.2,0.5-0.3,1-0.4,1.6l-0.8,0.4c0-1,0.1-1.9,0.3-2.7c0.2-0.8,0.5-1.6,0.9-2.2c0.4-0.7,0.9-1.2,1.5-1.5c0.6-0.4,1.4-0.6,2.2-0.6
	c0.2,0,0.4,0,0.7,0.1C61,44.7,61.1,44.7,61.2,44.8z M73.9,48v12.7h-2.7V44.9h2.6L73.9,48z M73.3,52.2l-1.3,0c0-1.1,0.2-2.1,0.4-3
	c0.3-0.9,0.7-1.7,1.2-2.4c0.5-0.7,1.2-1.2,2-1.6c0.8-0.4,1.7-0.6,2.8-0.6c0.7,0,1.4,0.1,2.1,0.3c0.6,0.2,1.2,0.5,1.6,1
	c0.5,0.4,0.8,1,1.1,1.7c0.3,0.7,0.4,1.6,0.4,2.5v10.6h-2.7V50.3c0-0.8-0.1-1.5-0.4-2c-0.3-0.5-0.7-0.9-1.2-1.1
	c-0.5-0.2-1.1-0.4-1.8-0.4c-0.8,0-1.5,0.1-2,0.4c-0.5,0.3-1,0.7-1.3,1.2c-0.3,0.5-0.6,1.1-0.7,1.7C73.4,50.8,73.3,51.5,73.3,52.2z
	 M83.6,50.7l-1.8,0.6c0-0.9,0.2-1.7,0.4-2.5c0.3-0.8,0.7-1.5,1.2-2.1c0.5-0.6,1.2-1.1,2-1.5c0.8-0.4,1.7-0.6,2.7-0.6
	c0.8,0,1.6,0.1,2.3,0.3c0.7,0.2,1.2,0.6,1.7,1c0.5,0.5,0.8,1,1,1.8c0.2,0.7,0.4,1.6,0.4,2.6v10.4h-2.7V50.3c0-0.9-0.1-1.6-0.4-2.1
	c-0.3-0.5-0.7-0.8-1.2-1c-0.5-0.2-1.1-0.3-1.8-0.3c-0.6,0-1.1,0.1-1.6,0.3c-0.5,0.2-0.8,0.5-1.2,0.8c-0.3,0.4-0.6,0.8-0.7,1.2
	C83.7,49.7,83.6,50.2,83.6,50.7z M106.8,58v-8.2c0-0.6-0.1-1.2-0.4-1.6c-0.2-0.5-0.6-0.8-1.1-1.1c-0.5-0.3-1.1-0.4-1.8-0.4
	c-0.7,0-1.3,0.1-1.8,0.4c-0.5,0.2-0.9,0.5-1.2,0.9c-0.3,0.4-0.4,0.8-0.4,1.2h-2.7c0-0.6,0.1-1.1,0.4-1.7c0.3-0.6,0.7-1.1,1.3-1.5
	c0.6-0.5,1.2-0.8,2-1.1c0.8-0.3,1.7-0.4,2.6-0.4c1.2,0,2.2,0.2,3,0.6c0.9,0.4,1.6,1,2.1,1.8c0.5,0.8,0.8,1.8,0.8,2.9v7.4
	c0,0.5,0,1.1,0.1,1.7c0.1,0.6,0.2,1.1,0.4,1.5v0.2h-2.8c-0.1-0.3-0.2-0.7-0.3-1.2C106.9,58.9,106.8,58.4,106.8,58z M107.3,51.1
	l0,1.9h-2.7c-0.8,0-1.5,0.1-2.1,0.2c-0.6,0.1-1.1,0.3-1.5,0.5c-0.4,0.2-0.7,0.6-0.9,0.9c-0.2,0.4-0.3,0.8-0.3,1.3
	c0,0.5,0.1,1,0.3,1.4c0.2,0.4,0.6,0.7,1,1c0.5,0.2,1,0.4,1.7,0.4c0.8,0,1.6-0.2,2.2-0.5s1.1-0.8,1.5-1.3c0.4-0.5,0.6-1,0.6-1.5
	l1.2,1.3c-0.1,0.4-0.3,0.9-0.6,1.4c-0.3,0.5-0.7,1-1.2,1.4c-0.5,0.4-1.1,0.8-1.8,1.1c-0.7,0.3-1.5,0.4-2.3,0.4c-1.1,0-2-0.2-2.8-0.6
	c-0.8-0.4-1.4-1-1.9-1.7C97.2,58,97,57.2,97,56.3c0-0.8,0.2-1.6,0.5-2.2c0.3-0.7,0.8-1.2,1.4-1.6c0.6-0.4,1.4-0.8,2.3-1
	c0.9-0.2,1.9-0.3,2.9-0.3H107.3z M116.7,44.9v15.8H114V44.9H116.7z M113.8,40.6c0-0.4,0.1-0.8,0.4-1.1c0.3-0.3,0.7-0.5,1.2-0.5
	c0.5,0,0.9,0.2,1.2,0.5c0.3,0.3,0.4,0.7,0.4,1.1c0,0.4-0.1,0.8-0.4,1.1c-0.3,0.3-0.7,0.4-1.2,0.4c-0.5,0-0.9-0.1-1.2-0.4
	C114,41.4,113.8,41.1,113.8,40.6z M130.3,56.5c0-0.4-0.1-0.8-0.3-1.1c-0.2-0.3-0.5-0.6-1-0.9c-0.5-0.3-1.3-0.5-2.3-0.7
	c-0.9-0.2-1.7-0.4-2.4-0.7c-0.7-0.3-1.3-0.6-1.8-0.9c-0.5-0.4-0.9-0.8-1.1-1.3c-0.3-0.5-0.4-1.1-0.4-1.7c0-0.6,0.1-1.2,0.4-1.8
	c0.3-0.6,0.7-1,1.2-1.5c0.5-0.4,1.1-0.8,1.9-1c0.7-0.2,1.5-0.4,2.4-0.4c1.3,0,2.4,0.2,3.3,0.7c0.9,0.4,1.6,1,2.1,1.8
	c0.5,0.7,0.7,1.6,0.7,2.5h-2.7c0-0.4-0.1-0.9-0.4-1.3c-0.3-0.4-0.6-0.8-1.1-1c-0.5-0.3-1.1-0.4-1.8-0.4c-0.8,0-1.4,0.1-1.8,0.4
	c-0.5,0.2-0.8,0.5-1,0.9c-0.2,0.4-0.3,0.7-0.3,1.1c0,0.3,0,0.6,0.1,0.8c0.1,0.2,0.3,0.4,0.6,0.6c0.3,0.2,0.6,0.4,1.1,0.5
	c0.5,0.2,1.1,0.3,1.8,0.5c1.3,0.3,2.4,0.6,3.2,1.1c0.8,0.4,1.5,0.9,1.9,1.5c0.4,0.6,0.6,1.3,0.6,2.2c0,0.7-0.1,1.3-0.4,1.9
	c-0.3,0.6-0.7,1.1-1.2,1.5c-0.5,0.4-1.2,0.7-1.9,1c-0.7,0.2-1.6,0.3-2.5,0.3c-1.4,0-2.6-0.2-3.5-0.7c-1-0.5-1.7-1.1-2.2-1.9
	c-0.5-0.8-0.7-1.6-0.7-2.5h2.7c0,0.7,0.3,1.3,0.6,1.8c0.4,0.4,0.9,0.7,1.4,0.9c0.6,0.2,1.1,0.3,1.7,0.3c0.7,0,1.4-0.1,1.9-0.3
	c0.5-0.2,0.9-0.5,1.2-0.8C130.2,57.3,130.3,56.9,130.3,56.5z M153.3,56.5c0-0.4-0.1-0.8-0.3-1.1c-0.2-0.3-0.5-0.6-1-0.9
	c-0.5-0.3-1.3-0.5-2.3-0.7c-0.9-0.2-1.7-0.4-2.4-0.7c-0.7-0.3-1.3-0.6-1.8-0.9c-0.5-0.4-0.9-0.8-1.1-1.3c-0.3-0.5-0.4-1.1-0.4-1.7
	c0-0.6,0.1-1.2,0.4-1.8c0.3-0.6,0.7-1,1.2-1.5c0.5-0.4,1.1-0.8,1.9-1c0.7-0.2,1.5-0.4,2.4-0.4c1.3,0,2.4,0.2,3.3,0.7
	c0.9,0.4,1.6,1,2.1,1.8c0.5,0.7,0.7,1.6,0.7,2.5h-2.7c0-0.4-0.1-0.9-0.4-1.3c-0.3-0.4-0.6-0.8-1.1-1c-0.5-0.3-1.1-0.4-1.8-0.4
	c-0.8,0-1.4,0.1-1.8,0.4c-0.5,0.2-0.8,0.5-1,0.9c-0.2,0.4-0.3,0.7-0.3,1.1c0,0.3,0,0.6,0.1,0.8c0.1,0.2,0.3,0.4,0.6,0.6
	c0.3,0.2,0.6,0.4,1.1,0.5c0.5,0.2,1.1,0.3,1.8,0.5c1.3,0.3,2.4,0.6,3.2,1.1c0.8,0.4,1.5,0.9,1.9,1.5c0.4,0.6,0.6,1.3,0.6,2.2
	c0,0.7-0.1,1.3-0.4,1.9c-0.3,0.6-0.7,1.1-1.2,1.5c-0.5,0.4-1.2,0.7-1.9,1c-0.7,0.2-1.6,0.3-2.5,0.3c-1.4,0-2.6-0.2-3.5-0.7
	c-1-0.5-1.7-1.1-2.2-1.9c-0.5-0.8-0.7-1.6-0.7-2.5h2.7c0,0.7,0.3,1.3,0.6,1.8c0.4,0.4,0.9,0.7,1.4,0.9c0.6,0.2,1.1,0.3,1.7,0.3
	c0.7,0,1.4-0.1,1.9-0.3c0.5-0.2,0.9-0.5,1.2-0.8C153.1,57.3,153.3,56.9,153.3,56.5z M166.1,61c-1.1,0-2.1-0.2-3-0.6
	c-0.9-0.4-1.7-0.9-2.3-1.6c-0.6-0.7-1.1-1.5-1.5-2.4s-0.5-2-0.5-3.1v-0.6c0-1.3,0.2-2.4,0.6-3.4c0.4-1,0.9-1.9,1.6-2.6
	c0.7-0.7,1.4-1.2,2.2-1.6c0.8-0.4,1.7-0.5,2.6-0.5c1.1,0,2.1,0.2,2.9,0.6c0.8,0.4,1.5,0.9,2,1.6c0.5,0.7,0.9,1.5,1.2,2.5
	c0.3,0.9,0.4,2,0.4,3.1v1.2h-11.8v-2.2h9.1v-0.2c0-0.7-0.2-1.4-0.4-2.1c-0.2-0.7-0.6-1.2-1.2-1.6c-0.5-0.4-1.3-0.6-2.2-0.6
	c-0.6,0-1.2,0.1-1.7,0.4c-0.5,0.3-1,0.6-1.3,1.1s-0.7,1.1-0.9,1.9c-0.2,0.7-0.3,1.6-0.3,2.5v0.6c0,0.8,0.1,1.5,0.3,2.1
	c0.2,0.7,0.5,1.2,0.9,1.7c0.4,0.5,0.9,0.9,1.5,1.2c0.6,0.3,1.3,0.4,2,0.4c1,0,1.8-0.2,2.4-0.6c0.7-0.4,1.2-0.9,1.7-1.6l1.6,1.3
	c-0.3,0.5-0.8,1-1.3,1.5c-0.5,0.5-1.2,0.8-1.9,1.1C168.1,60.9,167.2,61,166.1,61z M185.7,44.9h2.5v15.5c0,1.4-0.3,2.6-0.8,3.6
	c-0.6,1-1.4,1.7-2.4,2.2c-1,0.5-2.2,0.8-3.5,0.8c-0.5,0-1.2-0.1-1.9-0.3c-0.7-0.2-1.5-0.5-2.2-0.9c-0.7-0.4-1.3-0.9-1.8-1.6l1.4-1.6
	c0.7,0.8,1.4,1.4,2.1,1.7c0.7,0.3,1.5,0.5,2.2,0.5c0.9,0,1.6-0.2,2.2-0.5c0.6-0.3,1.1-0.8,1.4-1.4c0.4-0.6,0.5-1.4,0.5-2.3V48.3
	L185.7,44.9z M174.8,53v-0.3c0-1.2,0.1-2.3,0.4-3.3c0.3-1,0.7-1.9,1.2-2.6c0.5-0.7,1.2-1.3,2-1.6c0.8-0.4,1.6-0.6,2.6-0.6
	c1,0,1.9,0.2,2.6,0.5c0.8,0.3,1.4,0.8,1.9,1.5c0.5,0.7,0.9,1.4,1.2,2.4c0.3,0.9,0.5,2,0.6,3.1v1.3c-0.1,1.2-0.3,2.2-0.6,3.1
	c-0.3,0.9-0.7,1.7-1.2,2.4c-0.5,0.7-1.2,1.2-1.9,1.5c-0.8,0.3-1.6,0.5-2.6,0.5c-0.9,0-1.8-0.2-2.6-0.6c-0.8-0.4-1.4-1-2-1.7
	c-0.5-0.7-1-1.6-1.3-2.5C174.9,55.2,174.8,54.1,174.8,53z M177.5,52.6V53c0,0.8,0.1,1.5,0.2,2.2c0.2,0.7,0.4,1.3,0.7,1.8
	c0.3,0.5,0.8,0.9,1.3,1.2c0.5,0.3,1.2,0.4,1.9,0.4c0.9,0,1.6-0.2,2.2-0.6c0.6-0.4,1.1-0.9,1.4-1.5c0.4-0.6,0.6-1.3,0.8-2v-3.5
	c-0.1-0.5-0.3-1.1-0.5-1.6c-0.2-0.5-0.5-1-0.8-1.3c-0.3-0.4-0.8-0.7-1.3-1c-0.5-0.2-1.1-0.4-1.8-0.4c-0.7,0-1.4,0.2-1.9,0.5
	c-0.5,0.3-1,0.7-1.3,1.3c-0.3,0.5-0.6,1.1-0.7,1.8C177.6,51.1,177.5,51.9,177.5,52.6z M202,57V44.9h2.7v15.8h-2.6L202,57z
	 M202.5,53.7l1.1,0c0,1.1-0.1,2-0.3,2.9c-0.2,0.9-0.6,1.7-1.1,2.3c-0.5,0.7-1.1,1.2-1.9,1.5c-0.8,0.4-1.8,0.5-2.9,0.5
	c-0.8,0-1.5-0.1-2.1-0.3c-0.6-0.2-1.2-0.6-1.6-1c-0.5-0.5-0.8-1.1-1.1-1.8c-0.2-0.8-0.4-1.7-0.4-2.7V44.9h2.7v10.3
	c0,0.7,0.1,1.3,0.2,1.8c0.2,0.5,0.4,0.8,0.7,1.1c0.3,0.3,0.6,0.4,0.9,0.6c0.4,0.1,0.7,0.2,1.1,0.2c1.2,0,2.1-0.2,2.7-0.7
	c0.7-0.4,1.2-1,1.4-1.8C202.3,55.5,202.5,54.6,202.5,53.7z M211.6,47.3v13.4h-2.7V44.9h2.6L211.6,47.3z M216.5,44.8l0,2.5
	c-0.2,0-0.4-0.1-0.6-0.1c-0.2,0-0.4,0-0.7,0c-0.6,0-1.2,0.1-1.7,0.3c-0.5,0.2-0.9,0.5-1.2,0.8c-0.3,0.4-0.6,0.8-0.8,1.3
	c-0.2,0.5-0.3,1-0.4,1.6l-0.8,0.4c0-1,0.1-1.9,0.3-2.7c0.2-0.8,0.5-1.6,0.9-2.2c0.4-0.7,0.9-1.2,1.5-1.5c0.6-0.4,1.4-0.6,2.2-0.6
	c0.2,0,0.4,0,0.7,0.1C216.2,44.7,216.4,44.7,216.5,44.8z M227.8,58v-8.2c0-0.6-0.1-1.2-0.4-1.6c-0.2-0.5-0.6-0.8-1.1-1.1
	c-0.5-0.3-1.1-0.4-1.8-0.4c-0.7,0-1.3,0.1-1.8,0.4c-0.5,0.2-0.9,0.5-1.2,0.9c-0.3,0.4-0.4,0.8-0.4,1.2h-2.7c0-0.6,0.1-1.1,0.4-1.7
	c0.3-0.6,0.7-1.1,1.3-1.5c0.6-0.5,1.2-0.8,2-1.1c0.8-0.3,1.7-0.4,2.6-0.4c1.2,0,2.2,0.2,3,0.6c0.9,0.4,1.6,1,2.1,1.8
	c0.5,0.8,0.8,1.8,0.8,2.9v7.4c0,0.5,0,1.1,0.1,1.7c0.1,0.6,0.2,1.1,0.4,1.5v0.2h-2.8c-0.1-0.3-0.2-0.7-0.3-1.2
	C227.8,58.9,227.8,58.4,227.8,58z M228.2,51.1l0,1.9h-2.7c-0.8,0-1.5,0.1-2.1,0.2c-0.6,0.1-1.1,0.3-1.5,0.5
	c-0.4,0.2-0.7,0.6-0.9,0.9c-0.2,0.4-0.3,0.8-0.3,1.3c0,0.5,0.1,1,0.3,1.4c0.2,0.4,0.6,0.7,1,1c0.5,0.2,1,0.4,1.7,0.4
	c0.8,0,1.6-0.2,2.2-0.5c0.6-0.4,1.1-0.8,1.5-1.3c0.4-0.5,0.6-1,0.6-1.5l1.2,1.3c-0.1,0.4-0.3,0.9-0.6,1.4c-0.3,0.5-0.7,1-1.2,1.4
	c-0.5,0.4-1.1,0.8-1.8,1.1c-0.7,0.3-1.5,0.4-2.3,0.4c-1.1,0-2-0.2-2.8-0.6c-0.8-0.4-1.4-1-1.9-1.7c-0.4-0.7-0.7-1.5-0.7-2.4
	c0-0.8,0.2-1.6,0.5-2.2c0.3-0.7,0.8-1.2,1.4-1.6c0.6-0.4,1.4-0.8,2.3-1c0.9-0.2,1.9-0.3,2.9-0.3H228.2z M237.5,48.2v12.5h-2.7V44.9
	h2.6L237.5,48.2z M236.8,52.2l-1.1,0c0-1.1,0.2-2.1,0.5-3c0.3-0.9,0.8-1.7,1.3-2.4c0.6-0.7,1.2-1.2,2-1.6c0.8-0.4,1.7-0.6,2.6-0.6
	c0.8,0,1.5,0.1,2.1,0.3c0.6,0.2,1.2,0.5,1.6,1c0.5,0.5,0.8,1.1,1,1.8c0.2,0.7,0.4,1.6,0.4,2.7v10.4h-2.7V50.3c0-0.8-0.1-1.5-0.4-2
	c-0.2-0.5-0.6-0.9-1.1-1.1c-0.5-0.2-1-0.4-1.7-0.4c-0.7,0-1.3,0.1-1.8,0.4c-0.5,0.3-1,0.7-1.4,1.2c-0.4,0.5-0.7,1.1-0.9,1.7
	C236.9,50.8,236.8,51.5,236.8,52.2z M257.7,58.8c0.6,0,1.2-0.1,1.8-0.4c0.5-0.3,1-0.6,1.3-1.1c0.4-0.5,0.6-1,0.6-1.6h2.6
	c0,0.9-0.4,1.8-1,2.6c-0.6,0.8-1.3,1.5-2.3,1.9c-0.9,0.5-2,0.7-3.1,0.7c-1.2,0-2.2-0.2-3.1-0.6c-0.9-0.4-1.6-1-2.2-1.7
	c-0.6-0.7-1-1.6-1.3-2.5c-0.3-1-0.4-2-0.4-3v-0.6c0-1.1,0.1-2.1,0.4-3c0.3-1,0.7-1.8,1.3-2.5c0.6-0.7,1.3-1.3,2.2-1.7
	c0.9-0.4,1.9-0.6,3.1-0.6c1.2,0,2.3,0.3,3.3,0.8c0.9,0.5,1.7,1.2,2.2,2.1c0.5,0.9,0.8,1.8,0.9,2.9h-2.6c0-0.7-0.2-1.2-0.6-1.8
	c-0.3-0.5-0.7-0.9-1.3-1.3c-0.5-0.3-1.2-0.5-1.9-0.5c-0.8,0-1.5,0.2-2.1,0.5c-0.6,0.3-1,0.8-1.3,1.3c-0.3,0.5-0.6,1.2-0.7,1.8
	c-0.1,0.7-0.2,1.3-0.2,2v0.6c0,0.7,0.1,1.4,0.2,2.1c0.1,0.7,0.4,1.3,0.7,1.8c0.3,0.5,0.8,1,1.3,1.3
	C256.1,58.6,256.8,58.8,257.7,58.8z M256.2,60.9h1.9l-0.2,0.8c0.6,0.1,1.1,0.3,1.5,0.7c0.5,0.4,0.7,1,0.7,1.8c0,0.5-0.1,0.9-0.3,1.2
	c-0.2,0.4-0.5,0.7-0.8,1c-0.4,0.3-0.8,0.5-1.4,0.6c-0.5,0.1-1.2,0.2-1.9,0.2l-0.1-1.6c0.4,0,0.9,0,1.2-0.1c0.4-0.1,0.7-0.3,0.9-0.5
	c0.2-0.2,0.3-0.5,0.3-0.8c0-0.3-0.1-0.6-0.3-0.8c-0.2-0.2-0.4-0.3-0.8-0.4c-0.3-0.1-0.8-0.2-1.3-0.2L256.2,60.9z M276.4,58v-8.2
	c0-0.6-0.1-1.2-0.4-1.6c-0.2-0.5-0.6-0.8-1.1-1.1c-0.5-0.3-1.1-0.4-1.8-0.4c-0.7,0-1.3,0.1-1.8,0.4c-0.5,0.2-0.9,0.5-1.2,0.9
	c-0.3,0.4-0.4,0.8-0.4,1.2h-2.7c0-0.6,0.1-1.1,0.4-1.7c0.3-0.6,0.7-1.1,1.3-1.5c0.6-0.5,1.2-0.8,2-1.1c0.8-0.3,1.7-0.4,2.6-0.4
	c1.2,0,2.2,0.2,3,0.6c0.9,0.4,1.6,1,2.1,1.8c0.5,0.8,0.8,1.8,0.8,2.9v7.4c0,0.5,0,1.1,0.1,1.7c0.1,0.6,0.2,1.1,0.4,1.5v0.2h-2.8
	c-0.1-0.3-0.2-0.7-0.3-1.2C276.4,58.9,276.4,58.4,276.4,58z M276.8,51.1l0,1.9h-2.7c-0.8,0-1.5,0.1-2.1,0.2
	c-0.6,0.1-1.1,0.3-1.5,0.5c-0.4,0.2-0.7,0.6-0.9,0.9c-0.2,0.4-0.3,0.8-0.3,1.3c0,0.5,0.1,1,0.3,1.4c0.2,0.4,0.6,0.7,1,1
	c0.5,0.2,1,0.4,1.7,0.4c0.8,0,1.6-0.2,2.2-0.5c0.6-0.4,1.1-0.8,1.5-1.3c0.4-0.5,0.6-1,0.6-1.5l1.2,1.3c-0.1,0.4-0.3,0.9-0.6,1.4
	c-0.3,0.5-0.7,1-1.2,1.4c-0.5,0.4-1.1,0.8-1.8,1.1c-0.7,0.3-1.5,0.4-2.3,0.4c-1.1,0-2-0.2-2.8-0.6c-0.8-0.4-1.4-1-1.9-1.7
	c-0.4-0.7-0.7-1.5-0.7-2.4c0-0.8,0.2-1.6,0.5-2.2c0.3-0.7,0.8-1.2,1.4-1.6c0.6-0.4,1.4-0.8,2.3-1c0.9-0.2,1.9-0.3,2.9-0.3H276.8z
	 M293.5,47.9v18.9h-2.7V44.9h2.5L293.5,47.9z M304.2,52.6V53c0,1.2-0.1,2.2-0.4,3.2c-0.3,1-0.7,1.8-1.2,2.5
	c-0.5,0.7-1.2,1.3-1.9,1.7c-0.8,0.4-1.6,0.6-2.6,0.6c-1,0-1.9-0.2-2.7-0.5c-0.8-0.3-1.4-0.8-2-1.5c-0.5-0.6-1-1.4-1.3-2.3
	c-0.3-0.9-0.5-1.9-0.6-3v-1.6c0.1-1.2,0.3-2.2,0.7-3.1c0.3-0.9,0.7-1.7,1.3-2.4c0.5-0.7,1.2-1.2,1.9-1.5c0.8-0.4,1.6-0.5,2.6-0.5
	s1.9,0.2,2.7,0.6c0.8,0.4,1.4,0.9,1.9,1.6c0.5,0.7,0.9,1.6,1.2,2.6C304,50.3,304.2,51.4,304.2,52.6z M301.5,53v-0.3
	c0-0.8-0.1-1.5-0.3-2.2c-0.2-0.7-0.4-1.3-0.8-1.8c-0.3-0.5-0.8-1-1.3-1.3c-0.5-0.3-1.2-0.5-1.9-0.5c-0.7,0-1.3,0.1-1.8,0.4
	c-0.5,0.2-0.9,0.6-1.3,1c-0.4,0.4-0.6,0.8-0.9,1.3c-0.2,0.5-0.4,1-0.5,1.6v3.8c0.2,0.7,0.5,1.3,0.8,1.9c0.4,0.6,0.8,1.1,1.4,1.5
	c0.6,0.4,1.3,0.5,2.2,0.5c0.7,0,1.4-0.2,1.9-0.5c0.5-0.3,1-0.7,1.3-1.3c0.4-0.5,0.6-1.2,0.8-1.8C301.4,54.5,301.5,53.7,301.5,53z
	 M317,58v-8.2c0-0.6-0.1-1.2-0.4-1.6c-0.2-0.5-0.6-0.8-1.1-1.1c-0.5-0.3-1.1-0.4-1.8-0.4c-0.7,0-1.3,0.1-1.8,0.4
	c-0.5,0.2-0.9,0.5-1.2,0.9c-0.3,0.4-0.4,0.8-0.4,1.2h-2.7c0-0.6,0.1-1.1,0.4-1.7c0.3-0.6,0.7-1.1,1.3-1.5c0.6-0.5,1.2-0.8,2-1.1
	c0.8-0.3,1.6-0.4,2.6-0.4c1.2,0,2.2,0.2,3,0.6c0.9,0.4,1.6,1,2.1,1.8c0.5,0.8,0.8,1.8,0.8,2.9v7.4c0,0.5,0,1.1,0.1,1.7
	c0.1,0.6,0.2,1.1,0.4,1.5v0.2h-2.8c-0.1-0.3-0.2-0.7-0.3-1.2C317,58.9,317,58.4,317,58z M317.4,51.1l0,1.9h-2.7
	c-0.8,0-1.5,0.1-2.1,0.2c-0.6,0.1-1.1,0.3-1.5,0.5c-0.4,0.2-0.7,0.6-0.9,0.9c-0.2,0.4-0.3,0.8-0.3,1.3c0,0.5,0.1,1,0.3,1.4
	c0.2,0.4,0.6,0.7,1,1c0.5,0.2,1,0.4,1.7,0.4c0.8,0,1.6-0.2,2.2-0.5c0.6-0.4,1.1-0.8,1.5-1.3c0.4-0.5,0.6-1,0.6-1.5l1.2,1.3
	c-0.1,0.4-0.3,0.9-0.6,1.4c-0.3,0.5-0.7,1-1.2,1.4c-0.5,0.4-1.1,0.8-1.8,1.1c-0.7,0.3-1.5,0.4-2.3,0.4c-1.1,0-2-0.2-2.8-0.6
	c-0.8-0.4-1.4-1-1.9-1.7c-0.4-0.7-0.7-1.5-0.7-2.4c0-0.8,0.2-1.6,0.5-2.2c0.3-0.7,0.8-1.2,1.4-1.6c0.6-0.4,1.4-0.8,2.3-1
	c0.9-0.2,1.9-0.3,2.9-0.3H317.4z M326.7,47.3v13.4H324V44.9h2.6L326.7,47.3z M331.6,44.8l0,2.5c-0.2,0-0.4-0.1-0.6-0.1
	c-0.2,0-0.4,0-0.7,0c-0.6,0-1.2,0.1-1.7,0.3c-0.5,0.2-0.9,0.5-1.2,0.8c-0.3,0.4-0.6,0.8-0.8,1.3c-0.2,0.5-0.3,1-0.4,1.6l-0.8,0.4
	c0-1,0.1-1.9,0.3-2.7c0.2-0.8,0.5-1.6,0.9-2.2c0.4-0.7,0.9-1.2,1.5-1.5c0.6-0.4,1.4-0.6,2.2-0.6c0.2,0,0.4,0,0.7,0.1
	C331.3,44.7,331.5,44.7,331.6,44.8z M342.9,58v-8.2c0-0.6-0.1-1.2-0.4-1.6c-0.2-0.5-0.6-0.8-1.1-1.1c-0.5-0.3-1.1-0.4-1.8-0.4
	c-0.7,0-1.3,0.1-1.8,0.4c-0.5,0.2-0.9,0.5-1.2,0.9c-0.3,0.4-0.4,0.8-0.4,1.2h-2.7c0-0.6,0.1-1.1,0.4-1.7c0.3-0.6,0.7-1.1,1.3-1.5
	c0.6-0.5,1.2-0.8,2-1.1c0.8-0.3,1.7-0.4,2.6-0.4c1.2,0,2.2,0.2,3,0.6c0.9,0.4,1.6,1,2.1,1.8c0.5,0.8,0.8,1.8,0.8,2.9v7.4
	c0,0.5,0,1.1,0.1,1.7c0.1,0.6,0.2,1.1,0.4,1.5v0.2h-2.8c-0.1-0.3-0.2-0.7-0.3-1.2C342.9,58.9,342.9,58.4,342.9,58z M343.3,51.1
	l0,1.9h-2.7c-0.8,0-1.5,0.1-2.1,0.2c-0.6,0.1-1.1,0.3-1.5,0.5c-0.4,0.2-0.7,0.6-0.9,0.9c-0.2,0.4-0.3,0.8-0.3,1.3
	c0,0.5,0.1,1,0.3,1.4c0.2,0.4,0.6,0.7,1,1c0.5,0.2,1,0.4,1.7,0.4c0.8,0,1.6-0.2,2.2-0.5c0.6-0.4,1.1-0.8,1.5-1.3
	c0.4-0.5,0.6-1,0.6-1.5l1.2,1.3c-0.1,0.4-0.3,0.9-0.6,1.4c-0.3,0.5-0.7,1-1.2,1.4c-0.5,0.4-1.1,0.8-1.8,1.1
	c-0.7,0.3-1.5,0.4-2.3,0.4c-1.1,0-2-0.2-2.8-0.6c-0.8-0.4-1.4-1-1.9-1.7c-0.4-0.7-0.7-1.5-0.7-2.4c0-0.8,0.2-1.6,0.5-2.2
	c0.3-0.7,0.8-1.2,1.4-1.6c0.6-0.4,1.4-0.8,2.3-1c0.9-0.2,1.9-0.3,2.9-0.3H343.3z M366.5,56.5c0-0.4-0.1-0.8-0.3-1.1
	c-0.2-0.3-0.5-0.6-1-0.9c-0.5-0.3-1.3-0.5-2.3-0.7c-0.9-0.2-1.7-0.4-2.4-0.7c-0.7-0.3-1.3-0.6-1.8-0.9c-0.5-0.4-0.9-0.8-1.1-1.3
	c-0.3-0.5-0.4-1.1-0.4-1.7c0-0.6,0.1-1.2,0.4-1.8c0.3-0.6,0.7-1,1.2-1.5c0.5-0.4,1.1-0.8,1.9-1c0.7-0.2,1.5-0.4,2.4-0.4
	c1.3,0,2.4,0.2,3.3,0.7c0.9,0.4,1.6,1,2.1,1.8c0.5,0.7,0.7,1.6,0.7,2.5h-2.7c0-0.4-0.1-0.9-0.4-1.3c-0.3-0.4-0.6-0.8-1.1-1
	c-0.5-0.3-1.1-0.4-1.8-0.4c-0.8,0-1.4,0.1-1.8,0.4c-0.5,0.2-0.8,0.5-1,0.9c-0.2,0.4-0.3,0.7-0.3,1.1c0,0.3,0,0.6,0.1,0.8
	c0.1,0.2,0.3,0.4,0.6,0.6c0.3,0.2,0.6,0.4,1.1,0.5c0.5,0.2,1.1,0.3,1.8,0.5c1.3,0.3,2.4,0.6,3.2,1.1c0.8,0.4,1.5,0.9,1.9,1.5
	c0.4,0.6,0.6,1.3,0.6,2.2c0,0.7-0.1,1.3-0.4,1.9c-0.3,0.6-0.7,1.1-1.2,1.5c-0.5,0.4-1.2,0.7-1.9,1c-0.7,0.2-1.6,0.3-2.5,0.3
	c-1.4,0-2.6-0.2-3.5-0.7c-1-0.5-1.7-1.1-2.2-1.9c-0.5-0.8-0.7-1.6-0.7-2.5h2.7c0,0.7,0.3,1.3,0.6,1.8c0.4,0.4,0.9,0.7,1.4,0.9
	c0.6,0.2,1.1,0.3,1.7,0.3c0.7,0,1.4-0.1,1.9-0.3c0.5-0.2,0.9-0.5,1.2-0.8C366.4,57.3,366.5,56.9,366.5,56.5z M382.5,57V44.9h2.7
	v15.8h-2.6L382.5,57z M383,53.7l1.1,0c0,1.1-0.1,2-0.3,2.9c-0.2,0.9-0.6,1.7-1.1,2.3c-0.5,0.7-1.1,1.2-1.9,1.5
	c-0.8,0.4-1.8,0.5-2.9,0.5c-0.8,0-1.5-0.1-2.1-0.3c-0.6-0.2-1.2-0.6-1.6-1c-0.5-0.5-0.8-1.1-1.1-1.8c-0.2-0.8-0.4-1.7-0.4-2.7V44.9
	h2.7v10.3c0,0.7,0.1,1.3,0.2,1.8c0.2,0.5,0.4,0.8,0.7,1.1c0.3,0.3,0.6,0.4,0.9,0.6c0.4,0.1,0.7,0.2,1.1,0.2c1.2,0,2.1-0.2,2.7-0.7
	c0.7-0.4,1.2-1,1.5-1.8C382.8,55.5,383,54.6,383,53.7z M398.7,58v-8.2c0-0.6-0.1-1.2-0.4-1.6c-0.2-0.5-0.6-0.8-1.1-1.1
	c-0.5-0.3-1.1-0.4-1.8-0.4c-0.7,0-1.3,0.1-1.8,0.4c-0.5,0.2-0.9,0.5-1.2,0.9c-0.3,0.4-0.4,0.8-0.4,1.2h-2.7c0-0.6,0.1-1.1,0.4-1.7
	c0.3-0.6,0.7-1.1,1.3-1.5c0.6-0.5,1.2-0.8,2-1.1c0.8-0.3,1.6-0.4,2.6-0.4c1.2,0,2.2,0.2,3,0.6c0.9,0.4,1.6,1,2.1,1.8
	c0.5,0.8,0.8,1.8,0.8,2.9v7.4c0,0.5,0,1.1,0.1,1.7c0.1,0.6,0.2,1.1,0.4,1.5v0.2h-2.8c-0.1-0.3-0.2-0.7-0.3-1.2
	C398.7,58.9,398.7,58.4,398.7,58z M399.2,51.1l0,1.9h-2.7c-0.8,0-1.5,0.1-2.1,0.2c-0.6,0.1-1.1,0.3-1.5,0.5
	c-0.4,0.2-0.7,0.6-0.9,0.9c-0.2,0.4-0.3,0.8-0.3,1.3c0,0.5,0.1,1,0.3,1.4c0.2,0.4,0.6,0.7,1,1c0.5,0.2,1,0.4,1.7,0.4
	c0.8,0,1.6-0.2,2.2-0.5c0.6-0.4,1.1-0.8,1.5-1.3c0.4-0.5,0.6-1,0.6-1.5l1.2,1.3c-0.1,0.4-0.3,0.9-0.6,1.4c-0.3,0.5-0.7,1-1.2,1.4
	c-0.5,0.4-1.1,0.8-1.8,1.1c-0.7,0.3-1.5,0.4-2.3,0.4c-1.1,0-2-0.2-2.8-0.6c-0.8-0.4-1.4-1-1.9-1.7c-0.4-0.7-0.7-1.5-0.7-2.4
	c0-0.8,0.2-1.6,0.5-2.2c0.3-0.7,0.8-1.2,1.4-1.6c0.6-0.4,1.4-0.8,2.3-1c0.9-0.2,1.9-0.3,2.9-0.3H399.2z M414.9,56.5
	c0-0.4-0.1-0.8-0.3-1.1c-0.2-0.3-0.5-0.6-1-0.9c-0.5-0.3-1.3-0.5-2.3-0.7c-0.9-0.2-1.7-0.4-2.4-0.7c-0.7-0.3-1.3-0.6-1.8-0.9
	c-0.5-0.4-0.9-0.8-1.1-1.3c-0.3-0.5-0.4-1.1-0.4-1.7c0-0.6,0.1-1.2,0.4-1.8c0.3-0.6,0.7-1,1.2-1.5c0.5-0.4,1.1-0.8,1.9-1
	c0.7-0.2,1.5-0.4,2.4-0.4c1.3,0,2.4,0.2,3.3,0.7c0.9,0.4,1.6,1,2.1,1.8c0.5,0.7,0.7,1.6,0.7,2.5h-2.7c0-0.4-0.1-0.9-0.4-1.3
	c-0.3-0.4-0.6-0.8-1.1-1c-0.5-0.3-1.1-0.4-1.8-0.4c-0.8,0-1.4,0.1-1.8,0.4c-0.5,0.2-0.8,0.5-1,0.9c-0.2,0.4-0.3,0.7-0.3,1.1
	c0,0.3,0,0.6,0.1,0.8c0.1,0.2,0.3,0.4,0.6,0.6c0.3,0.2,0.6,0.4,1.1,0.5c0.5,0.2,1.1,0.3,1.8,0.5c1.3,0.3,2.4,0.6,3.2,1.1
	c0.8,0.4,1.5,0.9,1.9,1.5s0.6,1.3,0.6,2.2c0,0.7-0.1,1.3-0.4,1.9c-0.3,0.6-0.7,1.1-1.2,1.5c-0.5,0.4-1.2,0.7-1.9,1
	c-0.7,0.2-1.6,0.3-2.5,0.3c-1.4,0-2.6-0.2-3.5-0.7c-1-0.5-1.7-1.1-2.2-1.9c-0.5-0.8-0.7-1.6-0.7-2.5h2.7c0,0.7,0.3,1.3,0.6,1.8
	c0.4,0.4,0.9,0.7,1.4,0.9c0.6,0.2,1.1,0.3,1.7,0.3c0.7,0,1.4-0.1,1.9-0.3c0.5-0.2,0.9-0.5,1.2-0.8C414.8,57.3,414.9,56.9,414.9,56.5
	z M3.4,83.9v15.8H0.7V83.9H3.4z M0.5,79.6c0-0.4,0.1-0.8,0.4-1.1c0.3-0.3,0.7-0.5,1.2-0.5c0.5,0,0.9,0.2,1.2,0.5
	c0.3,0.3,0.4,0.7,0.4,1.1c0,0.4-0.1,0.8-0.4,1.1C3,81,2.6,81.2,2.1,81.2c-0.5,0-0.9-0.1-1.2-0.4C0.6,80.4,0.5,80.1,0.5,79.6z
	 M10.5,87.2v12.5H7.7V83.9h2.6L10.5,87.2z M9.8,91.2l-1.1,0c0-1.1,0.2-2.1,0.5-3c0.3-0.9,0.8-1.7,1.3-2.4c0.6-0.7,1.2-1.2,2-1.6
	c0.8-0.4,1.7-0.6,2.6-0.6c0.8,0,1.5,0.1,2.1,0.3c0.6,0.2,1.2,0.5,1.6,1c0.4,0.5,0.8,1.1,1,1.8c0.2,0.7,0.4,1.6,0.4,2.7v10.4h-2.7
	V89.3c0-0.8-0.1-1.5-0.4-2c-0.2-0.5-0.6-0.9-1.1-1.1c-0.5-0.2-1-0.4-1.7-0.4c-0.7,0-1.3,0.1-1.8,0.4c-0.5,0.3-1,0.7-1.4,1.2
	c-0.4,0.5-0.7,1.1-0.9,1.7C9.9,89.8,9.8,90.5,9.8,91.2z M28.4,99.7h-2.7V82.2c0-1.1,0.2-2.1,0.6-2.9c0.4-0.8,1-1.4,1.8-1.8
	c0.8-0.4,1.7-0.6,2.8-0.6c0.3,0,0.6,0,0.9,0.1c0.3,0,0.6,0.1,0.9,0.2l-0.1,2.2c-0.2,0-0.4-0.1-0.7-0.1c-0.3,0-0.5,0-0.8,0
	c-0.6,0-1.1,0.1-1.5,0.4c-0.4,0.2-0.7,0.6-0.9,1c-0.2,0.4-0.3,1-0.3,1.6V99.7z M31.7,83.9v2.1h-8.6v-2.1H31.7z M34,92v-0.3
	c0-1.1,0.2-2.2,0.5-3.2c0.3-1,0.8-1.8,1.4-2.6c0.6-0.7,1.4-1.3,2.3-1.7c0.9-0.4,1.9-0.6,3-0.6c1.1,0,2.1,0.2,3,0.6
	c0.9,0.4,1.7,1,2.3,1.7c0.6,0.7,1.1,1.6,1.5,2.6c0.3,1,0.5,2,0.5,3.2V92c0,1.1-0.2,2.2-0.5,3.2c-0.3,1-0.8,1.8-1.5,2.6
	c-0.6,0.7-1.4,1.3-2.3,1.7c-0.9,0.4-1.9,0.6-3,0.6s-2.1-0.2-3-0.6c-0.9-0.4-1.7-1-2.3-1.7c-0.6-0.7-1.1-1.6-1.4-2.6
	C34.2,94.2,34,93.1,34,92z M36.8,91.6V92c0,0.8,0.1,1.5,0.3,2.2c0.2,0.7,0.5,1.3,0.8,1.8c0.4,0.5,0.9,1,1.4,1.3
	c0.6,0.3,1.2,0.5,2,0.5c0.7,0,1.4-0.2,1.9-0.5c0.6-0.3,1-0.7,1.4-1.3c0.4-0.5,0.6-1.2,0.8-1.8c0.2-0.7,0.3-1.5,0.3-2.2v-0.3
	c0-0.8-0.1-1.5-0.3-2.2c-0.2-0.7-0.5-1.3-0.8-1.9c-0.4-0.5-0.8-1-1.4-1.3c-0.6-0.3-1.2-0.5-2-0.5c-0.7,0-1.4,0.2-2,0.5
	c-0.6,0.3-1,0.7-1.4,1.3c-0.4,0.5-0.6,1.2-0.8,1.9C36.8,90.1,36.8,90.8,36.8,91.6z M54.6,86.3v13.4h-2.7V83.9h2.6L54.6,86.3z
	 M59.5,83.8l0,2.5c-0.2,0-0.4-0.1-0.6-0.1c-0.2,0-0.4,0-0.7,0c-0.6,0-1.2,0.1-1.7,0.3c-0.5,0.2-0.9,0.5-1.2,0.8
	c-0.3,0.4-0.6,0.8-0.8,1.3c-0.2,0.5-0.3,1-0.4,1.6l-0.8,0.4c0-1,0.1-1.9,0.3-2.7c0.2-0.8,0.5-1.6,0.9-2.2c0.4-0.7,0.9-1.2,1.5-1.5
	c0.6-0.4,1.4-0.6,2.2-0.6c0.2,0,0.4,0,0.7,0.1C59.3,83.7,59.4,83.7,59.5,83.8z M64.7,87v12.7H62V83.9h2.6L64.7,87z M64.2,91.2
	l-1.3,0c0-1.1,0.2-2.1,0.4-3c0.3-0.9,0.7-1.7,1.2-2.4s1.2-1.2,2-1.6c0.8-0.4,1.7-0.6,2.8-0.6c0.7,0,1.4,0.1,2.1,0.3
	c0.6,0.2,1.2,0.5,1.6,1c0.5,0.4,0.8,1,1.1,1.7s0.4,1.6,0.4,2.5v10.6h-2.7V89.3c0-0.8-0.1-1.5-0.4-2c-0.3-0.5-0.7-0.9-1.2-1.1
	c-0.5-0.2-1.1-0.4-1.8-0.4c-0.8,0-1.5,0.1-2,0.4c-0.5,0.3-1,0.7-1.3,1.2c-0.3,0.5-0.6,1.1-0.7,1.7C64.2,89.8,64.2,90.5,64.2,91.2z
	 M74.4,89.7l-1.8,0.6c0-0.9,0.2-1.7,0.4-2.5c0.3-0.8,0.7-1.5,1.2-2.1c0.5-0.6,1.2-1.1,2-1.5c0.8-0.4,1.7-0.6,2.7-0.6
	c0.8,0,1.6,0.1,2.3,0.3c0.7,0.2,1.2,0.6,1.7,1c0.5,0.5,0.8,1,1,1.8c0.2,0.7,0.4,1.6,0.4,2.6v10.4h-2.7V89.3c0-0.9-0.1-1.6-0.4-2.1
	c-0.3-0.5-0.7-0.8-1.2-1c-0.5-0.2-1.1-0.3-1.8-0.3c-0.6,0-1.1,0.1-1.6,0.3c-0.5,0.2-0.8,0.5-1.2,0.8c-0.3,0.4-0.6,0.8-0.7,1.2
	C74.5,88.7,74.4,89.2,74.4,89.7z M97.7,97v-8.2c0-0.6-0.1-1.2-0.4-1.6c-0.2-0.5-0.6-0.8-1.1-1.1c-0.5-0.3-1.1-0.4-1.8-0.4
	c-0.7,0-1.3,0.1-1.8,0.4c-0.5,0.2-0.9,0.5-1.2,0.9c-0.3,0.4-0.4,0.8-0.4,1.2h-2.7c0-0.6,0.1-1.1,0.4-1.7c0.3-0.6,0.7-1.1,1.3-1.5
	c0.6-0.5,1.2-0.8,2-1.1c0.8-0.3,1.7-0.4,2.6-0.4c1.2,0,2.2,0.2,3,0.6c0.9,0.4,1.6,1,2.1,1.8c0.5,0.8,0.8,1.8,0.8,2.9v7.4
	c0,0.5,0,1.1,0.1,1.7c0.1,0.6,0.2,1.1,0.4,1.5v0.2h-2.8c-0.1-0.3-0.2-0.7-0.3-1.2C97.7,97.9,97.7,97.4,97.7,97z M98.2,90.1l0,1.9
	h-2.7c-0.8,0-1.5,0.1-2.1,0.2c-0.6,0.1-1.1,0.3-1.5,0.5c-0.4,0.2-0.7,0.6-0.9,0.9c-0.2,0.4-0.3,0.8-0.3,1.3c0,0.5,0.1,1,0.3,1.4
	c0.2,0.4,0.6,0.7,1,1c0.5,0.2,1,0.4,1.7,0.4c0.8,0,1.6-0.2,2.2-0.5c0.6-0.4,1.1-0.8,1.5-1.3c0.4-0.5,0.6-1,0.6-1.5l1.2,1.3
	C99,96,98.9,96.5,98.6,97c-0.3,0.5-0.7,1-1.2,1.4c-0.5,0.4-1.1,0.8-1.8,1.1c-0.7,0.3-1.5,0.4-2.3,0.4c-1.1,0-2-0.2-2.8-0.6
	c-0.8-0.4-1.4-1-1.9-1.7c-0.4-0.7-0.7-1.5-0.7-2.4c0-0.8,0.2-1.6,0.5-2.2c0.3-0.7,0.8-1.2,1.4-1.6c0.6-0.4,1.4-0.8,2.3-1
	c0.9-0.2,1.9-0.3,2.9-0.3H98.2z M111,97.8c0.6,0,1.2-0.1,1.8-0.4c0.5-0.3,1-0.6,1.3-1.1c0.4-0.5,0.6-1,0.6-1.6h2.6
	c0,0.9-0.4,1.8-1,2.6c-0.6,0.8-1.3,1.5-2.3,1.9c-0.9,0.5-2,0.7-3.1,0.7c-1.2,0-2.2-0.2-3.1-0.6c-0.9-0.4-1.6-1-2.2-1.7
	c-0.6-0.7-1-1.6-1.3-2.5c-0.3-1-0.4-2-0.4-3v-0.6c0-1.1,0.1-2.1,0.4-3c0.3-1,0.7-1.8,1.3-2.5c0.6-0.7,1.3-1.3,2.2-1.7
	c0.9-0.4,1.9-0.6,3.1-0.6c1.2,0,2.3,0.3,3.3,0.8c0.9,0.5,1.7,1.2,2.2,2.1c0.5,0.9,0.8,1.8,0.9,2.9h-2.6c0-0.7-0.2-1.2-0.6-1.8
	c-0.3-0.5-0.7-0.9-1.3-1.3c-0.5-0.3-1.2-0.5-1.9-0.5c-0.8,0-1.5,0.2-2.1,0.5c-0.6,0.3-1,0.8-1.3,1.3c-0.3,0.5-0.6,1.2-0.7,1.8
	c-0.1,0.7-0.2,1.3-0.2,2v0.6c0,0.7,0.1,1.4,0.2,2.1c0.1,0.7,0.4,1.3,0.7,1.8c0.3,0.5,0.8,1,1.3,1.3C109.5,97.6,110.2,97.8,111,97.8z
	 M109.5,99.9h1.9l-0.2,0.8c0.6,0.1,1.1,0.3,1.5,0.7c0.5,0.4,0.7,1,0.7,1.8c0,0.5-0.1,0.9-0.3,1.2c-0.2,0.4-0.5,0.7-0.8,1
	c-0.4,0.3-0.8,0.5-1.4,0.6c-0.5,0.1-1.2,0.2-1.9,0.2l-0.1-1.6c0.4,0,0.9,0,1.2-0.1c0.4-0.1,0.7-0.3,0.9-0.5c0.2-0.2,0.3-0.5,0.3-0.8
	c0-0.3-0.1-0.6-0.2-0.8c-0.2-0.2-0.4-0.3-0.8-0.4c-0.3-0.1-0.8-0.2-1.3-0.2L109.5,99.9z M119.6,92v-0.3c0-1.1,0.2-2.2,0.5-3.2
	c0.3-1,0.8-1.8,1.4-2.6c0.6-0.7,1.4-1.3,2.3-1.7c0.9-0.4,1.9-0.6,3-0.6c1.1,0,2.1,0.2,3,0.6c0.9,0.4,1.7,1,2.3,1.7
	c0.6,0.7,1.1,1.6,1.4,2.6c0.3,1,0.5,2,0.5,3.2V92c0,1.1-0.2,2.2-0.5,3.2c-0.3,1-0.8,1.8-1.4,2.6c-0.6,0.7-1.4,1.3-2.3,1.7
	c-0.9,0.4-1.9,0.6-3,0.6c-1.1,0-2.1-0.2-3-0.6c-0.9-0.4-1.7-1-2.3-1.7c-0.6-0.7-1.1-1.6-1.4-2.6C119.8,94.2,119.6,93.1,119.6,92z
	 M122.4,91.6V92c0,0.8,0.1,1.5,0.3,2.2c0.2,0.7,0.5,1.3,0.8,1.8c0.4,0.5,0.9,1,1.4,1.3c0.6,0.3,1.2,0.5,2,0.5c0.7,0,1.4-0.2,1.9-0.5
	c0.6-0.3,1-0.7,1.4-1.3c0.4-0.5,0.6-1.2,0.8-1.8c0.2-0.7,0.3-1.5,0.3-2.2v-0.3c0-0.8-0.1-1.5-0.3-2.2c-0.2-0.7-0.5-1.3-0.9-1.9
	c-0.4-0.5-0.8-1-1.4-1.3c-0.6-0.3-1.2-0.5-2-0.5c-0.7,0-1.4,0.2-2,0.5c-0.6,0.3-1,0.7-1.4,1.3c-0.4,0.5-0.6,1.2-0.8,1.9
	C122.5,90.1,122.4,90.8,122.4,91.6z M130.1,77.5l1.8,0.2c0,0.7-0.1,1.3-0.4,1.9c-0.3,0.5-0.7,1-1.1,1.2c-0.5,0.3-1,0.4-1.6,0.4
	c-0.5,0-0.9-0.1-1.2-0.2c-0.3-0.1-0.6-0.3-0.9-0.5c-0.3-0.2-0.5-0.3-0.8-0.5c-0.3-0.1-0.6-0.2-1-0.2c-0.4,0-0.8,0.2-1,0.5
	c-0.3,0.3-0.4,0.7-0.4,1.2l-1.8-0.1c0-0.7,0.1-1.3,0.4-1.9c0.3-0.5,0.7-1,1.1-1.3c0.5-0.3,1-0.5,1.6-0.5c0.4,0,0.8,0.1,1.1,0.2
	c0.3,0.1,0.6,0.3,0.9,0.5c0.3,0.2,0.6,0.3,0.9,0.5c0.3,0.1,0.6,0.2,1,0.2c0.4,0,0.8-0.2,1-0.5C130,78.3,130.1,78,130.1,77.5z
	 M144.1,100c-1.1,0-2.1-0.2-3-0.6c-0.9-0.4-1.7-0.9-2.3-1.6c-0.6-0.7-1.1-1.5-1.5-2.4c-0.3-0.9-0.5-2-0.5-3.1v-0.6
	c0-1.3,0.2-2.4,0.6-3.4c0.4-1,0.9-1.9,1.6-2.6c0.7-0.7,1.4-1.2,2.2-1.6c0.8-0.4,1.7-0.5,2.6-0.5c1.1,0,2.1,0.2,2.9,0.6
	c0.8,0.4,1.5,0.9,2,1.6c0.5,0.7,0.9,1.5,1.2,2.5c0.3,0.9,0.4,2,0.4,3.1v1.2h-11.8v-2.2h9.1v-0.2c0-0.7-0.2-1.4-0.4-2.1
	c-0.2-0.7-0.6-1.2-1.2-1.6c-0.5-0.4-1.3-0.6-2.2-0.6c-0.6,0-1.2,0.1-1.7,0.4c-0.5,0.3-1,0.6-1.3,1.1c-0.4,0.5-0.7,1.1-0.9,1.9
	c-0.2,0.7-0.3,1.6-0.3,2.5v0.6c0,0.8,0.1,1.5,0.3,2.1c0.2,0.7,0.5,1.2,0.9,1.7c0.4,0.5,0.9,0.9,1.5,1.2c0.6,0.3,1.3,0.4,2,0.4
	c1,0,1.8-0.2,2.4-0.6c0.7-0.4,1.2-0.9,1.7-1.6l1.6,1.3c-0.3,0.5-0.8,1-1.3,1.5c-0.5,0.5-1.2,0.8-1.9,1.1
	C146,99.9,145.1,100,144.1,100z M162.6,95.5c0-0.4-0.1-0.8-0.3-1.1c-0.2-0.3-0.5-0.6-1-0.9c-0.5-0.3-1.3-0.5-2.3-0.7
	c-0.9-0.2-1.7-0.4-2.4-0.7c-0.7-0.3-1.3-0.6-1.8-0.9c-0.5-0.4-0.9-0.8-1.1-1.3c-0.3-0.5-0.4-1.1-0.4-1.7c0-0.6,0.1-1.2,0.4-1.8
	c0.3-0.6,0.7-1,1.2-1.5c0.5-0.4,1.1-0.8,1.9-1c0.7-0.2,1.5-0.4,2.4-0.4c1.3,0,2.4,0.2,3.3,0.7c0.9,0.4,1.6,1,2.1,1.8
	c0.5,0.7,0.7,1.6,0.7,2.5h-2.7c0-0.4-0.1-0.9-0.4-1.3c-0.3-0.4-0.6-0.8-1.1-1c-0.5-0.3-1.1-0.4-1.8-0.4c-0.8,0-1.4,0.1-1.8,0.4
	c-0.5,0.2-0.8,0.5-1,0.9c-0.2,0.4-0.3,0.7-0.3,1.1c0,0.3,0,0.6,0.1,0.8c0.1,0.2,0.3,0.4,0.6,0.6c0.3,0.2,0.6,0.4,1.1,0.5
	c0.5,0.2,1.1,0.3,1.8,0.5c1.3,0.3,2.4,0.6,3.2,1.1c0.8,0.4,1.5,0.9,1.9,1.5c0.4,0.6,0.6,1.3,0.6,2.2c0,0.7-0.1,1.3-0.4,1.9
	c-0.3,0.6-0.7,1.1-1.2,1.5c-0.5,0.4-1.2,0.7-1.9,1c-0.7,0.2-1.6,0.3-2.5,0.3c-1.4,0-2.6-0.2-3.5-0.7c-1-0.5-1.7-1.1-2.2-1.9
	c-0.5-0.8-0.7-1.6-0.7-2.5h2.7c0,0.7,0.3,1.3,0.6,1.8c0.4,0.4,0.9,0.7,1.4,0.9c0.6,0.2,1.1,0.3,1.7,0.3c0.7,0,1.4-0.1,1.9-0.3
	c0.5-0.2,0.9-0.5,1.2-0.8C162.5,96.3,162.6,95.9,162.6,95.5z M175.6,92v-0.3c0-1.1,0.2-2.2,0.5-3.2c0.3-1,0.8-1.8,1.4-2.6
	c0.6-0.7,1.4-1.3,2.3-1.7c0.9-0.4,1.9-0.6,3-0.6c1.1,0,2.1,0.2,3,0.6c0.9,0.4,1.7,1,2.3,1.7c0.6,0.7,1.1,1.6,1.4,2.6
	c0.3,1,0.5,2,0.5,3.2V92c0,1.1-0.2,2.2-0.5,3.2c-0.3,1-0.8,1.8-1.4,2.6c-0.6,0.7-1.4,1.3-2.3,1.7c-0.9,0.4-1.9,0.6-3,0.6
	c-1.1,0-2.1-0.2-3-0.6c-0.9-0.4-1.7-1-2.3-1.7c-0.6-0.7-1.1-1.6-1.4-2.6C175.8,94.2,175.6,93.1,175.6,92z M178.3,91.6V92
	c0,0.8,0.1,1.5,0.3,2.2c0.2,0.7,0.5,1.3,0.8,1.8c0.4,0.5,0.9,1,1.4,1.3c0.6,0.3,1.2,0.5,2,0.5c0.7,0,1.4-0.2,1.9-0.5
	c0.6-0.3,1-0.7,1.4-1.3c0.4-0.5,0.6-1.2,0.8-1.8c0.2-0.7,0.3-1.5,0.3-2.2v-0.3c0-0.8-0.1-1.5-0.3-2.2c-0.2-0.7-0.5-1.3-0.9-1.9
	c-0.4-0.5-0.8-1-1.4-1.3c-0.6-0.3-1.2-0.5-2-0.5c-0.7,0-1.4,0.2-2,0.5c-0.6,0.3-1,0.7-1.4,1.3c-0.4,0.5-0.6,1.2-0.8,1.9
	C178.4,90.1,178.3,90.8,178.3,91.6z M196.1,87.2v12.5h-2.7V83.9h2.6L196.1,87.2z M195.5,91.2l-1.1,0c0-1.1,0.2-2.1,0.5-3
	c0.3-0.9,0.8-1.7,1.3-2.4c0.6-0.7,1.2-1.2,2-1.6c0.8-0.4,1.7-0.6,2.6-0.6c0.8,0,1.5,0.1,2.1,0.3c0.6,0.2,1.2,0.5,1.6,1
	c0.4,0.5,0.8,1.1,1,1.8c0.2,0.7,0.4,1.6,0.4,2.7v10.4h-2.7V89.3c0-0.8-0.1-1.5-0.4-2c-0.2-0.5-0.6-0.9-1.1-1.1
	c-0.5-0.2-1-0.4-1.7-0.4c-0.7,0-1.3,0.1-1.8,0.4c-0.5,0.3-1,0.7-1.4,1.2c-0.4,0.5-0.7,1.1-0.9,1.7C195.6,89.8,195.5,90.5,195.5,91.2
	z M213,77.2v22.5h-2.7V77.2H213z M220.3,83.9v15.8h-2.7V83.9H220.3z M217.3,79.6c0-0.4,0.1-0.8,0.4-1.1c0.3-0.3,0.7-0.5,1.2-0.5
	c0.5,0,0.9,0.2,1.2,0.5c0.3,0.3,0.4,0.7,0.4,1.1c0,0.4-0.1,0.8-0.4,1.1c-0.3,0.3-0.7,0.4-1.2,0.4c-0.5,0-0.9-0.1-1.2-0.4
	C217.5,80.4,217.3,80.1,217.3,79.6z M227.3,87.2v12.5h-2.7V83.9h2.6L227.3,87.2z M226.7,91.2l-1.1,0c0-1.1,0.2-2.1,0.5-3
	c0.3-0.9,0.8-1.7,1.3-2.4s1.2-1.2,2-1.6c0.8-0.4,1.7-0.6,2.6-0.6c0.8,0,1.5,0.1,2.1,0.3c0.6,0.2,1.2,0.5,1.6,1
	c0.4,0.5,0.8,1.1,1,1.8c0.2,0.7,0.4,1.6,0.4,2.7v10.4h-2.7V89.3c0-0.8-0.1-1.5-0.4-2c-0.2-0.5-0.6-0.9-1.1-1.1
	c-0.5-0.2-1-0.4-1.7-0.4c-0.7,0-1.3,0.1-1.8,0.4c-0.5,0.3-1,0.7-1.4,1.2c-0.4,0.5-0.7,1.1-0.9,1.7C226.8,89.8,226.7,90.5,226.7,91.2
	z M247.8,100c-1.1,0-2.1-0.2-3-0.6c-0.9-0.4-1.7-0.9-2.3-1.6c-0.6-0.7-1.1-1.5-1.5-2.4c-0.3-0.9-0.5-2-0.5-3.1v-0.6
	c0-1.3,0.2-2.4,0.6-3.4c0.4-1,0.9-1.9,1.6-2.6c0.7-0.7,1.4-1.2,2.2-1.6c0.8-0.4,1.7-0.5,2.6-0.5c1.1,0,2.1,0.2,2.9,0.6
	c0.8,0.4,1.5,0.9,2,1.6c0.5,0.7,0.9,1.5,1.2,2.5c0.3,0.9,0.4,2,0.4,3.1v1.2h-11.8v-2.2h9.1v-0.2c0-0.7-0.2-1.4-0.4-2.1
	c-0.2-0.7-0.6-1.2-1.2-1.6c-0.5-0.4-1.3-0.6-2.2-0.6c-0.6,0-1.2,0.1-1.7,0.4c-0.5,0.3-1,0.6-1.3,1.1c-0.4,0.5-0.7,1.1-0.9,1.9
	c-0.2,0.7-0.3,1.6-0.3,2.5v0.6c0,0.8,0.1,1.5,0.3,2.1c0.2,0.7,0.5,1.2,0.9,1.7c0.4,0.5,0.9,0.9,1.5,1.2c0.6,0.3,1.3,0.4,2,0.4
	c1,0,1.8-0.2,2.4-0.6c0.7-0.4,1.2-0.9,1.7-1.6l1.6,1.3c-0.3,0.5-0.8,1-1.3,1.5c-0.5,0.5-1.2,0.8-1.9,1.1
	C249.7,99.9,248.8,100,247.8,100z M263,93.7h-2.7c0-0.9,0.1-1.7,0.2-2.3c0.2-0.6,0.4-1.2,0.8-1.7c0.4-0.5,0.9-1.1,1.5-1.7
	c0.5-0.5,0.9-0.9,1.2-1.3c0.4-0.4,0.7-0.8,0.9-1.3c0.2-0.5,0.4-1,0.4-1.7c0-0.7-0.1-1.3-0.4-1.7c-0.2-0.5-0.6-0.9-1.1-1.1
	c-0.5-0.3-1-0.4-1.7-0.4c-0.6,0-1.1,0.1-1.6,0.3s-0.9,0.5-1.2,1c-0.3,0.4-0.5,1-0.5,1.7h-2.7c0-1.1,0.3-2.1,0.8-2.8
	c0.5-0.8,1.3-1.4,2.2-1.8c0.9-0.4,1.9-0.6,3-0.6c1.2,0,2.3,0.2,3.2,0.7c0.9,0.4,1.5,1.1,2,1.9c0.5,0.8,0.7,1.8,0.7,3
	c0,0.9-0.2,1.7-0.5,2.4c-0.4,0.7-0.8,1.4-1.4,2.1c-0.6,0.6-1.1,1.3-1.8,1.8c-0.5,0.5-0.9,1.1-1.1,1.7C263.1,92.3,263,93,263,93.7z
	 M260.1,98.3c0-0.4,0.1-0.8,0.4-1.1c0.3-0.3,0.7-0.5,1.2-0.5c0.5,0,0.9,0.2,1.2,0.5c0.3,0.3,0.4,0.7,0.4,1.1c0,0.4-0.1,0.8-0.4,1.1
	c-0.3,0.3-0.7,0.5-1.2,0.5c-0.5,0-0.9-0.2-1.2-0.5C260.3,99.1,260.1,98.8,260.1,98.3z"/>
</svg>
