<svg width="44" height="44" viewBox="0 0 44 44" fill="none" xmlns="http://www.w3.org/2000/svg">
<circle cx="22" cy="22" r="21.5" fill="white" stroke="#D31C5B"/>
<path d="M19.626 22.5557L18.0361 22.1475L18.8203 14.3594H26.8447V16.1963H20.5068L20.0342 20.4502C20.3206 20.2855 20.6823 20.1315 21.1191 19.9883C21.5632 19.8451 22.0716 19.7734 22.6445 19.7734C23.3678 19.7734 24.016 19.8988 24.5889 20.1494C25.1618 20.3929 25.6488 20.7438 26.0498 21.2021C26.458 21.6605 26.7695 22.2119 26.9844 22.8564C27.1992 23.501 27.3066 24.2207 27.3066 25.0156C27.3066 25.7676 27.2028 26.4587 26.9951 27.0889C26.7946 27.7191 26.4902 28.2705 26.082 28.7432C25.6738 29.2087 25.1582 29.5703 24.5352 29.8281C23.9193 30.0859 23.1924 30.2148 22.3545 30.2148C21.7243 30.2148 21.1263 30.1289 20.5605 29.957C20.002 29.778 19.5007 29.5094 19.0566 29.1514C18.6198 28.7861 18.2617 28.335 17.9824 27.7979C17.7103 27.2536 17.5384 26.6162 17.4668 25.8857H19.3574C19.4434 26.473 19.6152 26.9671 19.873 27.3682C20.1309 27.7692 20.4674 28.0736 20.8828 28.2812C21.3053 28.4818 21.7959 28.582 22.3545 28.582C22.8271 28.582 23.2461 28.4997 23.6113 28.335C23.9766 28.1702 24.2845 27.9339 24.5352 27.626C24.7858 27.318 24.9756 26.9456 25.1045 26.5088C25.2406 26.0719 25.3086 25.5814 25.3086 25.0371C25.3086 24.543 25.2406 24.0846 25.1045 23.6621C24.9684 23.2396 24.7643 22.8708 24.4922 22.5557C24.2272 22.2406 23.9014 21.9971 23.5146 21.8252C23.1279 21.6462 22.6839 21.5566 22.1826 21.5566C21.5166 21.5566 21.0117 21.6462 20.668 21.8252C20.3314 22.0042 19.984 22.2477 19.626 22.5557Z" fill="#D31C5B"/>
</svg>
