<svg width="100" height="100" viewBox="0 0 100 100" fill="none" xmlns="http://www.w3.org/2000/svg">
<g clip-path="url(#clip0_2_2065)">
<path d="M29.6275 46.4835H16.8281V73.8462H29.6275V46.4835Z" fill="#D40054"/>
<mask id="mask0_2_2065" style="mask-type:luminance" maskUnits="userSpaceOnUse" x="15" y="10" width="71" height="83">
<path d="M86 10H15V93H86V10Z" fill="white"/>
</mask>
<g mask="url(#mask0_2_2065)">
<path d="M71.6649 36.9248C76.9858 38.5301 82.9832 31.4523 84.3729 25.9798C85.7625 20.5072 81.9592 18.4459 76.6383 16.8589M62.5042 49.694C72.2866 40.5732 76.7481 25.8703 76.7481 13.2105C70.7442 11.9004 64.6084 11.2883 58.4633 11.3864C52.3183 11.2904 46.1827 11.9025 40.1785 13.2105C40.1785 25.8703 44.6582 40.5732 54.4406 49.694M45.2799 36.9248C39.959 38.5301 33.9616 31.4523 32.5719 25.9798C31.1823 20.5072 34.9855 18.4459 40.3064 16.8589M60.2918 82.5292H65.7772M65.7772 82.5292L71.2627 86.1776V91.6501H43.8354V86.1776L49.3209 82.5292M65.7772 82.5292V77.0567M49.3209 82.5292H54.8063M49.3209 82.5292V77.0567M49.3209 77.0567H65.7772M49.3209 77.0567C45.0422 77.0567 40.4893 71.5842 38.35 71.5842H31.0361M65.7772 77.0567C69.5256 77.0567 70.6226 62.3356 70.8421 54.6741C70.809 53.3511 70.2625 52.0926 69.3177 51.1636C68.3729 50.2347 67.1037 49.7078 65.7772 49.694H51.1494M23.7221 51.5182V56.9907M31.0361 49.694H36.5215C37.5459 49.7507 38.571 49.597 39.5334 49.2424C40.4958 48.8878 41.3751 48.34 42.1167 47.6327C44.5668 45.0241 45.6091 42.3973 48.3884 42.3973M16.4082 75.2325H31.0361V46.0457H16.4082V75.2325Z" stroke="#454545" stroke-width="1.5" stroke-linecap="round" stroke-linejoin="round"/>
</g>
</g>
<defs>
<clipPath id="clip0_2_2065">
<rect width="71" height="83" fill="white" transform="translate(15 10)"/>
</clipPath>
</defs>
</svg>
