<svg width="80" height="80" viewBox="0 0 80 80" fill="none" xmlns="http://www.w3.org/2000/svg">
<g clip-path="url(#clip0_21_5214)">
<mask id="mask0_21_5214" style="mask-type:luminance" maskUnits="userSpaceOnUse" x="3" y="9" width="75" height="61">
<path d="M77.5701 9H3V70H77.5701V9Z" fill="white"/>
</mask>
<g mask="url(#mask0_21_5214)">
<path d="M75.9649 22.1385C75.9649 22.6363 75.7671 23.1137 75.4151 23.4657C75.0631 23.8176 74.5857 24.0154 74.088 24.0154H50.4387C50.3622 23.1742 50.0091 22.3822 49.4346 21.7631C49.1191 21.4243 48.737 21.1544 48.3122 20.9703C47.8875 20.7862 47.4293 20.6919 46.9664 20.6932C46.0786 20.7147 45.2311 21.0676 44.5903 21.6823C43.9495 22.2971 43.5618 23.1293 43.5035 24.0154H6.49055C5.99276 24.0154 5.51538 23.8176 5.16339 23.4657C4.8114 23.1137 4.61362 22.6363 4.61362 22.1385V12.5192C4.61362 12.0214 4.8114 11.544 5.16339 11.1921C5.51538 10.8401 5.99276 10.6423 6.49055 10.6423H74.0598C74.5576 10.6423 75.035 10.8401 75.387 11.1921C75.739 11.544 75.9367 12.0214 75.9367 12.5192L75.9649 22.1385ZM54.4741 33.4C56.0507 35.0892 54.3521 38.8525 55.7317 38.8525C55.8081 38.85 55.8833 38.8326 55.9529 38.8011C56.0226 38.7696 56.0854 38.7246 56.1376 38.6689C56.1899 38.6131 56.2308 38.5476 56.2577 38.476C56.2846 38.4044 56.2972 38.3283 56.2947 38.2519C56.2724 37.7773 56.3947 37.3071 56.6455 36.9035C56.8962 36.5 57.2636 36.1821 57.699 35.9918C58.1343 35.8016 58.6172 35.748 59.0837 35.8382C59.5502 35.9284 59.9783 36.1581 60.3113 36.4969C61.888 38.1768 60.1987 41.9494 61.5689 41.9494C61.6453 41.947 61.7205 41.9295 61.7901 41.898C61.8598 41.8665 61.9226 41.8216 61.9749 41.7658C62.0272 41.71 62.068 41.6445 62.0949 41.5729C62.1219 41.5014 62.1345 41.4252 62.132 41.3488C62.1097 40.8742 62.2319 40.404 62.4827 40.0005C62.7334 39.5969 63.1008 39.279 63.5362 39.0887C63.9715 38.8985 64.4544 38.845 64.9209 38.9352C65.3874 39.0253 65.8155 39.2551 66.1485 39.5939C67.3498 40.8702 66.6084 41.1986 66.8336 56.2516C66.8523 57.0082 66.7213 57.761 66.4481 58.4668C66.1748 59.1726 65.7648 59.8174 65.2415 60.3643C64.7183 60.9111 64.0921 61.3491 63.399 61.6531C62.7059 61.9571 61.9595 62.1211 61.2028 62.1357C50.7578 61.948 47.5858 63.0742 45.249 59.7238C43.3289 57.0349 41.8143 54.0785 40.7538 50.9492C40.6036 50.4143 40.4441 49.8606 40.2564 49.3163C39.4587 47.1109 37.8633 43.1412 36.0427 41.4145C35.8215 41.1934 35.6476 40.9296 35.5314 40.6392C35.4153 40.3489 35.3594 40.0379 35.367 39.7252V39.6314C35.3415 39.1392 35.4623 38.6504 35.7142 38.2267C35.9661 37.803 36.3378 37.4633 36.7824 37.2506C37.227 37.0378 37.7247 36.9614 38.2127 37.031C38.7006 37.1007 39.157 37.3132 39.5244 37.6418C41.9456 39.8378 43.3252 41.9119 43.5129 43.648C43.5369 43.7864 43.6111 43.9112 43.7212 43.9985C43.8313 44.0858 43.9697 44.1295 44.1099 44.1214C44.2502 44.1133 44.3826 44.0539 44.4819 43.9545C44.5812 43.8551 44.6405 43.7226 44.6484 43.5823V24.3251C44.6397 24.0083 44.6934 23.6929 44.8066 23.397C44.9198 23.101 45.0902 22.8303 45.3081 22.6002C45.526 22.3701 45.7871 22.1852 46.0765 22.056C46.3658 21.9269 46.6778 21.8561 46.9946 21.8475C47.3069 21.8462 47.6163 21.9088 47.9035 22.0314C48.1908 22.1541 48.4499 22.3343 48.665 22.5608C49.103 23.0443 49.347 23.6726 49.3501 24.3251C49.5753 34.3572 48.8433 35.7556 49.9132 35.7556C50.0683 35.7506 50.2153 35.6849 50.3224 35.5725C50.4295 35.4601 50.4882 35.3101 50.4856 35.1549C50.4633 34.6803 50.5857 34.2102 50.8364 33.8066C51.0872 33.403 51.4545 33.0851 51.8899 32.8949C52.3253 32.7047 52.8081 32.6511 53.2746 32.7413C53.7411 32.8315 54.1692 33.0612 54.5023 33.4M64.6001 65.2232C64.6178 66.0275 64.3171 66.8061 63.7634 67.3896C63.2097 67.9732 62.448 68.3144 61.6439 68.3389H50.3824C49.5767 68.3168 48.8126 67.9767 48.2569 67.3929C47.7012 66.8091 47.3992 66.029 47.4168 65.2232V62.8771C48.1789 63.1657 48.9857 63.3182 49.8006 63.3276C61.2216 63.0554 61.7002 63.9563 64.5532 62.3891L64.6001 65.2232ZM74.1067 9.46924H6.53746C5.73267 9.4742 4.96269 9.79803 4.39625 10.3698C3.82981 10.9415 3.51314 11.7144 3.51564 12.5192V22.1385C3.51441 22.5365 3.59156 22.9309 3.74275 23.2992C3.89395 23.6674 4.11622 24.0023 4.39682 24.2846C4.67743 24.567 5.01089 24.7913 5.37819 24.9447C5.74548 25.0982 6.13939 25.1778 6.53746 25.1791H43.5317V40.4854C42.6313 39.0876 41.5381 37.8238 40.2846 36.7315C39.7498 36.2585 39.0876 35.9536 38.3805 35.8548C37.6735 35.756 36.953 35.8678 36.3092 36.1762C35.6653 36.4847 35.1266 36.976 34.7604 37.5888C34.3942 38.2017 34.2168 38.9089 34.2503 39.622V39.7159C34.2432 40.1946 34.3327 40.6698 34.5133 41.1132C34.6939 41.5565 34.9619 41.959 35.3013 42.2966C37.0093 43.9108 38.6047 48.0306 39.2147 49.7292C39.3836 50.2266 39.5432 50.7615 39.6933 51.3058C40.5567 54.2901 43.8319 60.6905 46.3564 62.2671V65.2138C46.3286 66.3274 46.744 67.4065 47.5111 68.2141C48.2783 69.0217 49.3346 69.4919 50.4481 69.5214H61.7096C62.8215 69.4895 63.8754 69.0182 64.6406 68.2109C65.4057 67.4035 65.8197 66.3258 65.7919 65.2138V61.5539C66.5142 60.8773 67.0888 60.0587 67.4797 59.1494C67.8705 58.2402 68.0691 57.26 68.063 56.2703C67.7439 41.7617 68.8044 40.6262 67.0401 38.768C66.734 38.4397 66.3652 38.176 65.9555 37.9926C65.5458 37.8092 65.1035 37.7097 64.6547 37.7001C64.2059 37.6905 63.7598 37.7709 63.3426 37.9366C62.9254 38.1023 62.5457 38.3499 62.2258 38.6648C62.2833 38.1236 62.2224 37.5764 62.0474 37.0611C61.8724 36.5458 61.5874 36.0747 61.2122 35.6805C60.9066 35.3501 60.5378 35.0845 60.1276 34.8994C59.7174 34.7143 59.2742 34.6135 58.8243 34.603C58.3743 34.5925 57.9269 34.6725 57.5084 34.8382C57.09 35.004 56.7092 35.2521 56.3885 35.5679C56.4462 35.0245 56.3845 34.4751 56.2079 33.958C56.0312 33.4409 55.7438 32.9686 55.3656 32.5742C55.0589 32.247 54.6898 31.9843 54.2802 31.8017C53.8706 31.619 53.4286 31.5199 52.9802 31.5103C52.5318 31.5007 52.086 31.5807 51.6689 31.7457C51.2518 31.9106 50.8719 32.1572 50.5513 32.4709V25.1885H74.1724C74.5704 25.1872 74.9644 25.1076 75.3317 24.9541C75.699 24.8007 76.0325 24.5763 76.3131 24.294C76.5937 24.0117 76.8159 23.6768 76.9671 23.3086C77.1183 22.9403 77.1955 22.5459 77.1943 22.1479V12.5192C77.1968 11.7144 76.8801 10.9415 76.3137 10.3698C75.7472 9.79803 74.9772 9.4742 74.1724 9.46924" fill="#3F3F3F"/>
<path d="M75.9618 22.1385C75.9618 22.6363 75.764 23.1137 75.412 23.4657C75.0601 23.8176 74.5827 24.0154 74.0849 24.0154H50.4356C50.3592 23.1742 50.006 22.3822 49.4315 21.7631C49.116 21.4243 48.7339 21.1544 48.3092 20.9703C47.8844 20.7862 47.4262 20.6919 46.9633 20.6932C46.0756 20.7147 45.228 21.0676 44.5872 21.6823C43.9464 22.2971 43.5587 23.1293 43.5004 24.0154H6.48748C5.98969 24.0154 5.51231 23.8176 5.16032 23.4657C4.80833 23.1137 4.61055 22.6363 4.61055 22.1385V12.5192C4.61055 12.0214 4.80833 11.544 5.16032 11.192C5.51231 10.8401 5.98969 10.6423 6.48748 10.6423H74.0567C74.5545 10.6423 75.0319 10.8401 75.3839 11.192C75.7359 11.544 75.9336 12.0214 75.9336 12.5192L75.9618 22.1385ZM54.471 33.4C56.0476 35.0892 54.349 38.8525 55.7286 38.8525C55.805 38.85 55.8802 38.8326 55.9499 38.8011C56.0195 38.7696 56.0823 38.7246 56.1346 38.6689C56.1869 38.6131 56.2277 38.5475 56.2546 38.476C56.2816 38.4044 56.2941 38.3283 56.2916 38.2519C56.2693 37.7773 56.3917 37.3071 56.6424 36.9035C56.8932 36.5 57.2605 36.182 57.6959 35.9918C58.1313 35.8016 58.6141 35.748 59.0806 35.8382C59.5471 35.9284 59.9752 36.1581 60.3083 36.4969C61.8849 38.1768 60.1956 41.9494 61.5658 41.9494C61.6422 41.9469 61.7174 41.9295 61.7871 41.898C61.8567 41.8665 61.9195 41.8216 61.9718 41.7658C62.0241 41.71 62.0649 41.6445 62.0918 41.5729C62.1188 41.5014 62.1314 41.4252 62.1289 41.3488C62.1066 40.8742 62.2289 40.404 62.4796 40.0005C62.7304 39.5969 63.0977 39.279 63.5331 39.0887C63.9685 38.8985 64.4513 38.8449 64.9178 38.9351C65.3843 39.0253 65.8124 39.255 66.1455 39.5939C67.3467 40.8702 66.6053 41.1986 66.8305 56.2515C66.8492 57.0082 66.7182 57.761 66.445 58.4668C66.1718 59.1726 65.7617 59.8174 65.2385 60.3642C64.7152 60.9111 64.089 61.349 63.3959 61.6531C62.7028 61.9571 61.9565 62.1211 61.1998 62.1357C50.7547 61.948 47.5827 63.0741 45.2459 59.7238C43.3258 57.0349 41.8112 54.0785 40.7507 50.9492C40.6006 50.4143 40.441 49.8606 40.2533 49.3163C39.4556 47.1109 37.8602 43.1412 36.0396 41.4145C35.8184 41.1934 35.6445 40.9296 35.5283 40.6392C35.4122 40.3488 35.3563 40.0379 35.364 39.7252V39.6314C35.3385 39.1392 35.4592 38.6504 35.7111 38.2267C35.963 37.803 36.3347 37.4633 36.7793 37.2506C37.2239 37.0378 37.7216 36.9614 38.2096 37.031C38.6976 37.1006 39.154 37.3132 39.5213 37.6418C41.9426 39.8378 43.3221 41.9119 43.5098 43.648C43.5339 43.7864 43.608 43.9112 43.7181 43.9985C43.8282 44.0858 43.9666 44.1295 44.1069 44.1214C44.2471 44.1133 44.3795 44.0539 44.4788 43.9545C44.5781 43.855 44.6374 43.7226 44.6454 43.5823V24.3251C44.6366 24.0083 44.6904 23.6929 44.8036 23.397C44.9168 23.101 45.0872 22.8302 45.305 22.6002C45.5229 22.3701 45.784 22.1852 46.0734 22.056C46.3628 21.9269 46.6747 21.8561 46.9915 21.8475C47.3039 21.8462 47.6132 21.9088 47.9005 22.0314C48.1877 22.1541 48.4469 22.3342 48.6619 22.5608C49.1 23.0443 49.3439 23.6726 49.347 24.3251C49.5722 34.3572 48.8403 35.7556 49.9101 35.7556C50.0653 35.7506 50.2123 35.6849 50.3194 35.5725C50.4265 35.4601 50.4851 35.3101 50.4826 35.1549C50.4664 34.6861 50.5911 34.2232 50.8407 33.826C51.0902 33.4288 51.4531 33.1156 51.8825 32.9266C52.3118 32.7377 52.7879 32.6819 53.2494 32.7662C53.7108 32.8506 54.1363 33.0714 54.471 33.4ZM64.5689 65.2232C64.5866 66.0274 64.2859 66.8061 63.7322 67.3896C63.1785 67.9732 62.4167 68.3144 61.6127 68.3389H50.3512C49.5455 68.3168 48.7813 67.9767 48.2256 67.3929C47.67 66.809 47.368 66.029 47.3856 65.2232V62.8771C48.1477 63.1657 48.9545 63.3182 49.7693 63.3276C61.1904 63.0554 61.669 63.9563 64.522 62.3891L64.5689 65.2232ZM74.0755 9.46923H6.50627C5.70147 9.4742 4.93144 9.79803 4.365 10.3697C3.79856 10.9415 3.48189 11.7144 3.48439 12.5192V22.1385C3.48316 22.5365 3.56036 22.9309 3.71156 23.2992C3.86275 23.6674 4.08497 24.0023 4.36557 24.2846C4.64618 24.567 4.9797 24.7913 5.34699 24.9447C5.71429 25.0982 6.1082 25.1778 6.50627 25.1791H43.5004V40.4854C42.6 39.0876 41.5069 37.8238 40.2533 36.7315C39.7186 36.2585 39.0563 35.9536 38.3493 35.8548C37.6422 35.756 36.9218 35.8678 36.2779 36.1762C35.634 36.4847 35.0954 36.976 34.7292 37.5888C34.363 38.2017 34.1855 38.9089 34.219 39.622V39.7159C34.212 40.1946 34.3014 40.6698 34.482 41.1132C34.6626 41.5565 34.9306 41.959 35.2701 42.2966C36.9781 43.9108 38.5735 48.0306 39.1835 49.7292C39.3524 50.2266 39.512 50.7615 39.6621 51.3058C40.5255 54.2901 43.8007 60.6905 46.3252 62.2671V65.2138C46.2974 66.3274 46.7127 67.4065 47.4799 68.2141C48.247 69.0217 49.3033 69.4919 50.4169 69.5214H61.6784C62.7903 69.4894 63.8442 69.0182 64.6093 68.2109C65.3745 67.4035 65.7885 66.3258 65.7607 65.2138V61.5538C66.483 60.8773 67.0576 60.0586 67.4484 59.1494C67.8392 58.2402 68.0379 57.26 68.0318 56.2703C67.7127 41.7617 68.7732 40.6262 67.0088 38.768C66.7028 38.4397 66.334 38.176 65.9243 37.9926C65.5146 37.8092 65.0723 37.7097 64.6235 37.7001C64.1747 37.6905 63.7286 37.7709 63.3114 37.9366C62.8942 38.1023 62.5144 38.3499 62.1945 38.6648C62.252 38.1236 62.1912 37.5764 62.0162 37.0611C61.8412 36.5458 61.5562 36.0747 61.181 35.6805C60.8755 35.3501 60.5066 35.0845 60.0963 34.8994C59.6861 34.7143 59.2429 34.6135 58.793 34.603C58.3431 34.5925 57.8957 34.6725 57.4773 34.8382C57.0588 35.004 56.678 35.2521 56.3573 35.5678C56.415 35.0245 56.3533 34.4751 56.1766 33.958C55.9999 33.4409 55.7125 32.9686 55.3344 32.5742C55.0276 32.247 54.6586 31.9843 54.2489 31.8017C53.8393 31.619 53.3974 31.5199 52.9489 31.5103C52.5005 31.5007 52.0547 31.5807 51.6376 31.7457C51.2206 31.9106 50.8406 32.1572 50.5201 32.4709V25.1885H74.1412C74.5393 25.1872 74.9332 25.1076 75.3005 24.9541C75.6678 24.8007 76.0012 24.5763 76.2818 24.294C76.5624 24.0116 76.7847 23.6768 76.9359 23.3086C77.0871 22.9403 77.1642 22.5459 77.163 22.1479V12.5192C77.1643 12.1152 77.0851 11.7149 76.9299 11.3418C76.7747 10.9687 76.5467 10.6303 76.2593 10.3463C75.9718 10.0624 75.6306 9.83855 75.2557 9.68795C74.8807 9.53736 74.4795 9.463 74.0755 9.46923Z" stroke="#3F3F3F" stroke-miterlimit="10"/>
<path d="M15.8128 14.9217C15.7737 14.8571 15.7219 14.8012 15.6603 14.7574C15.5988 14.7136 15.529 14.6828 15.4552 14.667C15.3813 14.6512 15.305 14.6506 15.231 14.6654C15.1569 14.6801 15.0867 14.7099 15.0245 14.7528L12.9317 16.1886V13.6923C12.9342 13.6159 12.9217 13.5398 12.8947 13.4682C12.8678 13.3966 12.827 13.3311 12.7747 13.2753C12.7224 13.2195 12.6596 13.1746 12.59 13.1431C12.5203 13.1116 12.4451 13.0941 12.3687 13.0917C12.2135 13.0966 12.0665 13.1624 11.9594 13.2747C11.8523 13.3871 11.7937 13.5371 11.7962 13.6923V16.1886L9.70343 14.7528C9.64204 14.7101 9.5725 14.6805 9.49917 14.6658C9.42583 14.6512 9.3503 14.6518 9.27721 14.6677C9.20412 14.6835 9.13506 14.7142 9.07439 14.758C9.01371 14.8017 8.96272 14.8574 8.92454 14.9217C8.84007 15.0535 8.8095 15.2128 8.8392 15.3665C8.8689 15.5203 8.95657 15.6567 9.08407 15.7476L11.327 17.296L9.08407 18.8351C8.95657 18.926 8.8689 19.0624 8.8392 19.2161C8.8095 19.3699 8.84007 19.5291 8.92454 19.6609C8.97213 19.7434 9.04051 19.8119 9.12284 19.8596C9.20518 19.9074 9.29859 19.9327 9.39377 19.9331C9.50431 19.9352 9.61263 19.9023 9.70343 19.8392L11.7962 18.394V20.8903C11.7937 21.0456 11.8523 21.1956 11.9594 21.3079C12.0665 21.4203 12.2135 21.486 12.3687 21.4909C12.4451 21.4885 12.5203 21.4711 12.59 21.4396C12.6596 21.4081 12.7224 21.3631 12.7747 21.3073C12.827 21.2516 12.8678 21.186 12.8947 21.1145C12.9217 21.0429 12.9342 20.9668 12.9317 20.8903V18.3846L15.0245 19.8299C15.0873 19.8724 15.158 19.9016 15.2325 19.9156C15.3069 19.9297 15.3835 19.9283 15.4573 19.9116C15.5312 19.8949 15.6009 19.8632 15.6621 19.8185C15.7232 19.7737 15.7745 19.7169 15.8128 19.6516C15.8941 19.518 15.9219 19.3587 15.8905 19.2055C15.8592 19.0523 15.7711 18.9166 15.6439 18.8257L13.401 17.2866L15.6439 15.7382C15.7711 15.6473 15.8592 15.5116 15.8905 15.3584C15.9219 15.2052 15.8941 15.0459 15.8128 14.9123" fill="#D40054"/>
<path d="M29.7674 14.9217C29.7292 14.8574 29.6782 14.8017 29.6176 14.7579C29.5569 14.7142 29.4878 14.6835 29.4147 14.6676C29.3416 14.6518 29.2661 14.6512 29.1927 14.6658C29.1194 14.6805 29.0498 14.7101 28.9885 14.7528L26.8863 16.1886V13.6923C26.8863 13.543 26.827 13.3998 26.7214 13.2942C26.6158 13.1886 26.4726 13.1292 26.3233 13.1292C26.1739 13.1292 26.0307 13.1886 25.9251 13.2942C25.8195 13.3998 25.7602 13.543 25.7602 13.6923V16.1886L23.6674 14.7528C23.6053 14.7099 23.535 14.6801 23.461 14.6654C23.3869 14.6506 23.3106 14.6512 23.2368 14.667C23.1629 14.6828 23.0931 14.7136 23.0316 14.7574C22.9701 14.8012 22.9182 14.8571 22.8791 14.9217C22.799 15.0548 22.771 15.2128 22.8005 15.3652C22.8299 15.5177 22.9148 15.6539 23.0386 15.7476L25.291 17.296L23.0386 18.8351C22.9148 18.9288 22.8299 19.0649 22.8005 19.2174C22.771 19.3699 22.799 19.5279 22.8791 19.6609C22.9282 19.7441 22.9982 19.813 23.0822 19.8607C23.1661 19.9085 23.2611 19.9334 23.3577 19.9331C23.4679 19.9328 23.5756 19.9001 23.6674 19.8392L25.732 18.3846V20.8809C25.732 21.0303 25.7913 21.1735 25.8969 21.2791C26.0025 21.3847 26.1457 21.444 26.2951 21.444C26.4444 21.444 26.5877 21.3847 26.6933 21.2791C26.7989 21.1735 26.8582 21.0303 26.8582 20.8809V18.3846L28.9603 19.8299C29.0511 19.8929 29.1595 19.9258 29.27 19.9237C29.3652 19.9233 29.4586 19.898 29.541 19.8503C29.6233 19.8025 29.6917 19.734 29.7393 19.6516C29.8215 19.5191 29.8508 19.3605 29.8212 19.2074C29.7916 19.0543 29.7053 18.918 29.5797 18.8257L27.3368 17.2866L29.5797 15.7382C29.7053 15.6459 29.7916 15.5096 29.8212 15.3565C29.8508 15.2034 29.8215 15.0448 29.7393 14.9123" fill="#D40054"/>
<path d="M43.7223 14.9217C43.6842 14.8574 43.6332 14.8017 43.5725 14.7579C43.5118 14.7142 43.4428 14.6835 43.3697 14.6676C43.2966 14.6518 43.221 14.6512 43.1477 14.6658C43.0743 14.6805 43.0048 14.7101 42.9435 14.7528L40.8506 16.1886V13.6923C40.861 13.6116 40.8541 13.5297 40.8304 13.4519C40.8066 13.3741 40.7665 13.3022 40.7128 13.2411C40.659 13.18 40.5929 13.1311 40.5188 13.0976C40.4446 13.064 40.3642 13.0467 40.2829 13.0467C40.2015 13.0467 40.1211 13.064 40.047 13.0976C39.9729 13.1311 39.9067 13.18 39.853 13.2411C39.7993 13.3022 39.7592 13.3741 39.7354 13.4519C39.7116 13.5297 39.7047 13.6116 39.7151 13.6923V16.1886L37.6223 14.7528C37.5602 14.7099 37.49 14.6801 37.4159 14.6654C37.3418 14.6506 37.2655 14.6512 37.1917 14.667C37.1179 14.6828 37.048 14.7136 36.9865 14.7574C36.925 14.8012 36.8732 14.8571 36.8341 14.9217C36.7528 15.0553 36.725 15.2146 36.7563 15.3678C36.7877 15.521 36.8758 15.6566 37.003 15.7475L39.2459 17.296L36.9936 18.8351C36.8664 18.926 36.7783 19.0617 36.7469 19.2148C36.7156 19.368 36.7434 19.5274 36.8247 19.6609C36.863 19.7263 36.9143 19.7831 36.9754 19.8278C37.0366 19.8725 37.1062 19.9043 37.1801 19.921C37.254 19.9377 37.3306 19.939 37.405 19.925C37.4795 19.9109 37.5502 19.8817 37.6129 19.8392L39.7151 18.3846V20.8809C39.7047 20.9616 39.7116 21.0436 39.7354 21.1214C39.7592 21.1992 39.7993 21.271 39.853 21.3321C39.9067 21.3932 39.9729 21.4421 40.047 21.4757C40.1211 21.5092 40.2015 21.5265 40.2829 21.5265C40.3642 21.5265 40.4446 21.5092 40.5188 21.4757C40.5929 21.4421 40.659 21.3932 40.7128 21.3321C40.7665 21.271 40.8066 21.1992 40.8304 21.1214C40.8541 21.0436 40.861 20.9616 40.8506 20.8809V18.3846L42.9435 19.8299C43.0342 19.8929 43.1426 19.9258 43.2531 19.9237C43.3483 19.9233 43.4417 19.898 43.524 19.8503C43.6064 19.8025 43.6747 19.734 43.7223 19.6516C43.8068 19.5197 43.8374 19.3605 43.8077 19.2067C43.778 19.053 43.6903 18.9166 43.5628 18.8257L41.3199 17.2866L43.5628 15.7382C43.6903 15.6473 43.778 15.5109 43.8077 15.3571C43.8374 15.2034 43.8068 15.0441 43.7223 14.9123" fill="#D40054"/>
<path d="M57.6879 14.9217C57.6479 14.8581 57.5956 14.8032 57.534 14.7601C57.4724 14.7171 57.4029 14.6868 57.3294 14.6711C57.256 14.6553 57.1801 14.6545 57.1063 14.6685C57.0325 14.6825 56.9622 14.7112 56.8997 14.7528L54.8256 16.1886V13.6923C54.836 13.6116 54.8291 13.5297 54.8054 13.4519C54.7816 13.3741 54.7415 13.3022 54.6878 13.2411C54.634 13.18 54.5679 13.1311 54.4938 13.0976C54.4196 13.064 54.3392 13.0467 54.2579 13.0467C54.1765 13.0467 54.0961 13.064 54.022 13.0976C53.9478 13.1311 53.8817 13.18 53.828 13.2411C53.7743 13.3022 53.7342 13.3741 53.7104 13.4519C53.6866 13.5297 53.6797 13.6116 53.6901 13.6923V16.1886L51.5973 14.7528C51.5352 14.7099 51.4649 14.6801 51.3909 14.6654C51.3168 14.6506 51.2405 14.6512 51.1667 14.667C51.0929 14.6828 51.023 14.7136 50.9615 14.7574C50.9 14.8012 50.8481 14.8571 50.809 14.9217C50.7277 15.0553 50.7 15.2146 50.7313 15.3678C50.7627 15.521 50.8508 15.6566 50.978 15.7475L53.2208 17.296L50.978 18.8351C50.8508 18.926 50.7627 19.0617 50.7313 19.2148C50.7 19.368 50.7277 19.5274 50.809 19.6609C50.8588 19.7435 50.929 19.8119 51.0128 19.8595C51.0966 19.9072 51.1912 19.9325 51.2876 19.9331C51.398 19.9339 51.506 19.9012 51.5973 19.8392L53.6901 18.394V20.8903C53.6797 20.971 53.6866 21.053 53.7104 21.1308C53.7342 21.2086 53.7743 21.2804 53.828 21.3415C53.8817 21.4026 53.9478 21.4515 54.022 21.4851C54.0961 21.5186 54.1765 21.5359 54.2579 21.5359C54.3392 21.5359 54.4196 21.5186 54.4938 21.4851C54.5679 21.4515 54.634 21.4026 54.6878 21.3415C54.7415 21.2804 54.7816 21.2086 54.8054 21.1308C54.8291 21.053 54.836 20.971 54.8256 20.8903V18.3846L56.9184 19.8299C57.0097 19.8918 57.1177 19.9246 57.2281 19.9237C57.3245 19.9231 57.4191 19.8978 57.5029 19.8501C57.5867 19.8025 57.6569 19.7341 57.7067 19.6516C57.788 19.518 57.8157 19.3586 57.7844 19.2055C57.7531 19.0523 57.665 18.9166 57.5378 18.8257L55.2949 17.2866L57.5378 15.7382C57.665 15.6472 57.7531 15.5116 57.7844 15.3584C57.8157 15.2052 57.788 15.0459 57.7067 14.9123" fill="#D40054"/>
<path d="M71.6442 14.9217C71.6042 14.8581 71.5519 14.8032 71.4903 14.7601C71.4287 14.7171 71.3592 14.6868 71.2857 14.6711C71.2122 14.6553 71.1363 14.6545 71.0625 14.6685C70.9887 14.6825 70.9185 14.7112 70.8559 14.7528L68.7631 16.1886V13.6923C68.7735 13.6116 68.7666 13.5297 68.7428 13.4519C68.7191 13.3741 68.679 13.3022 68.6253 13.2411C68.5715 13.18 68.5054 13.1311 68.4312 13.0976C68.3571 13.064 68.2767 13.0467 68.1954 13.0467C68.114 13.0467 68.0336 13.064 67.9595 13.0976C67.8854 13.1311 67.8192 13.18 67.7655 13.2411C67.7118 13.3022 67.6717 13.3741 67.6479 13.4519C67.6241 13.5297 67.6172 13.6116 67.6276 13.6923V16.1886L65.5348 14.7528C65.4723 14.7112 65.402 14.6825 65.3282 14.6685C65.2544 14.6545 65.1786 14.6553 65.1051 14.6711C65.0316 14.6868 64.962 14.7171 64.9004 14.7601C64.8389 14.8032 64.7866 14.8581 64.7465 14.9217C64.6653 15.0553 64.6375 15.2146 64.6688 15.3678C64.7001 15.521 64.7883 15.6566 64.9155 15.7475L67.1584 17.296L64.9155 18.8351C64.7883 18.926 64.7001 19.0617 64.6688 19.2148C64.6375 19.368 64.6653 19.5274 64.7465 19.6609C64.7963 19.7435 64.8665 19.8119 64.9503 19.8595C65.0341 19.9072 65.1288 19.9325 65.2252 19.9331C65.3355 19.9339 65.4435 19.9012 65.5348 19.8392L67.6276 18.394V20.8903C67.6172 20.971 67.6241 21.053 67.6479 21.1308C67.6717 21.2086 67.7118 21.2804 67.7655 21.3415C67.8192 21.4026 67.8854 21.4515 67.9595 21.4851C68.0336 21.5186 68.114 21.5359 68.1954 21.5359C68.2767 21.5359 68.3571 21.5186 68.4312 21.4851C68.5054 21.4515 68.5715 21.4026 68.6253 21.3415C68.679 21.2804 68.7191 21.2086 68.7428 21.1308C68.7666 21.053 68.7735 20.971 68.7631 20.8903V18.3846L70.8559 19.8299C70.9473 19.8918 71.0552 19.9246 71.1656 19.9237C71.262 19.9231 71.3567 19.8978 71.4405 19.8501C71.5243 19.8025 71.5944 19.7341 71.6442 19.6516C71.7255 19.518 71.7533 19.3586 71.7219 19.2055C71.6906 19.0523 71.6025 18.9166 71.4753 18.8257L69.2324 17.2866L71.4753 15.7382C71.6025 15.6472 71.6906 15.5116 71.7219 15.3584C71.7533 15.2052 71.7255 15.0459 71.6442 14.9123" fill="#D40054"/>
</g>
</g>
<defs>
<clipPath id="clip0_21_5214">
<rect width="74.5702" height="61" fill="white" transform="translate(3 9)"/>
</clipPath>
</defs>
</svg>
