<svg width="80" height="80" viewBox="0 0 80 80" fill="none" xmlns="http://www.w3.org/2000/svg">
<g clip-path="url(#clip0_21_5212)">
<mask id="mask0_21_5212" style="mask-type:luminance" maskUnits="userSpaceOnUse" x="9" y="4" width="63" height="72">
<path d="M71.4088 4H9V75.7215H71.4088V4Z" fill="white"/>
</mask>
<g mask="url(#mask0_21_5212)">
<path d="M28.1972 47.9046H52.2074C48.4041 46.3168 44.3237 45.4992 40.2023 45.4992C36.0809 45.4992 32.0004 46.3168 28.1972 47.9046ZM55.6831 49.7252H24.7105C24.522 49.7249 24.3382 49.6665 24.1842 49.5579C24.0301 49.4493 23.9134 49.2958 23.8498 49.1184C23.8032 48.9382 23.812 48.7481 23.875 48.5729C23.9379 48.3978 24.0522 48.2456 24.2029 48.1363C24.4346 47.9598 29.8854 43.7227 40.2575 43.7227C50.6295 43.7227 56.0803 47.9598 56.312 48.1363C56.4615 48.2557 56.5704 48.4184 56.6238 48.6022C56.6771 48.7859 56.6723 48.9816 56.61 49.1625C56.5458 49.3417 56.4273 49.4964 56.2711 49.6052C56.1148 49.7139 55.9286 49.7714 55.7383 49.7694" fill="#3F3F3F"/>
<path d="M30.2631 52.8589C30.0144 52.8589 29.7758 52.9577 29.6 53.1336C29.4241 53.3095 29.3253 53.5481 29.3253 53.7968C29.3282 54.4943 29.6073 55.1622 30.1016 55.6544C30.5958 56.1466 31.2649 56.4229 31.9624 56.4229H35.074C35.7715 56.4229 36.4406 56.1466 36.9348 55.6544C37.4291 55.1622 37.7082 54.4943 37.7111 53.7968C37.7111 53.5481 37.6123 53.3095 37.4364 53.1336C37.2605 52.9577 37.022 52.8589 36.7733 52.8589H30.2631ZM35.074 58.2546H31.9293C30.7587 58.2546 29.6361 57.7895 28.8084 56.9618C27.9807 56.1341 27.5156 55.0115 27.5156 53.8409C27.5142 53.4778 27.5845 53.1178 27.7225 52.7819C27.8604 52.4459 28.0634 52.1405 28.3197 51.8832C28.576 51.6259 28.8805 51.4217 29.2159 51.2824C29.5513 51.1431 29.911 51.0714 30.2742 51.0714H36.7843C37.1475 51.0714 37.5071 51.1431 37.8425 51.2824C38.1779 51.4217 38.4825 51.6259 38.7388 51.8832C38.9951 52.1405 39.198 52.4459 39.336 52.7819C39.474 53.1178 39.5443 53.4778 39.5428 53.8409C39.5428 55.0115 39.0778 56.1341 38.2501 56.9618C37.4224 57.7895 36.2998 58.2546 35.1292 58.2546" fill="#3F3F3F"/>
<path d="M43.1922 52.8589C43.0624 52.8589 42.9377 52.9096 42.8449 53.0004C42.7521 53.0911 42.6985 53.2146 42.6956 53.3444V54.6354C42.6956 55.1095 42.884 55.5641 43.2192 55.8994C43.5544 56.2346 44.0091 56.4229 44.4832 56.4229H49.294C49.7681 56.4229 50.2227 56.2346 50.558 55.8994C50.8932 55.5641 51.0815 55.1095 51.0815 54.6354V53.3444C51.0786 53.2146 51.0251 53.0911 50.9323 53.0004C50.8395 52.9096 50.7148 52.8589 50.585 52.8589H43.1922ZM49.294 58.2546H44.4832C43.5252 58.2517 42.6075 57.869 41.9311 57.1906C41.2548 56.5122 40.875 55.5934 40.875 54.6354V53.3444C40.875 52.7299 41.1192 52.1405 41.5537 51.7059C41.9883 51.2714 42.5776 51.0272 43.1922 51.0272H50.585C50.8893 51.0272 51.1906 51.0872 51.4717 51.2036C51.7529 51.3201 52.0083 51.4908 52.2235 51.7059C52.4386 51.9211 52.6093 52.1765 52.7258 52.4576C52.8422 52.7388 52.9022 53.0401 52.9022 53.3444V54.6354C52.9036 55.1102 52.8114 55.5805 52.6307 56.0195C52.45 56.4586 52.1845 56.8577 51.8493 57.1939C51.5141 57.5301 51.1159 57.7968 50.6774 57.9789C50.2389 58.1609 49.7688 58.2546 49.294 58.2546Z" fill="#3F3F3F"/>
<path d="M41.7901 55.5512H38.6123C38.3882 55.5265 38.181 55.4199 38.0305 55.252C37.88 55.084 37.7969 54.8664 37.7969 54.6409C37.7969 54.4154 37.88 54.1978 38.0305 54.0298C38.181 53.8619 38.3882 53.7553 38.6123 53.7306H41.7901C42.0143 53.7553 42.2215 53.8619 42.3719 54.0298C42.5224 54.1978 42.6056 54.4154 42.6056 54.6409C42.6056 54.8664 42.5224 55.084 42.3719 55.252C42.2215 55.4199 42.0143 55.5265 41.7901 55.5512Z" fill="#3F3F3F"/>
<path d="M50.6825 43.6234C50.4815 43.6252 50.2856 43.56 50.1258 43.4381C49.9659 43.3162 49.8512 43.1446 49.7997 42.9503L47.5929 34.9616C47.5213 34.5953 47.3669 34.2502 47.1416 33.9527C46.9162 33.6551 46.6259 33.413 46.2927 33.2448C45.9595 33.0766 45.5922 32.9868 45.219 32.9822C44.8458 32.9776 44.4765 33.0583 44.1393 33.2183C42.8985 33.823 41.5363 34.1372 40.156 34.1372C38.7757 34.1372 37.4134 33.823 36.1726 33.2183C35.8408 33.0572 35.4767 32.9735 35.1079 32.9735C34.739 32.9735 34.3749 33.0572 34.043 33.2183C33.7106 33.3789 33.4194 33.6136 33.1918 33.9044C32.9642 34.1951 32.8062 34.5341 32.73 34.8954L30.5232 42.9393C30.4611 43.1701 30.3102 43.3669 30.1035 43.4868C29.8967 43.6067 29.6509 43.6399 29.4198 43.5792C29.1885 43.517 28.9909 43.3666 28.8692 43.1603C28.7475 42.9541 28.7115 42.7084 28.7688 42.4758L30.9756 34.4872C31.1155 33.859 31.396 33.2707 31.7959 32.7665C32.1958 32.2623 32.7047 31.8553 33.2845 31.576C33.8643 31.2967 34.4999 31.1525 35.1434 31.1541C35.787 31.1556 36.4218 31.3031 37.0002 31.5852C37.9988 32.0647 39.0924 32.3136 40.2001 32.3136C41.3078 32.3136 42.4014 32.0647 43.4 31.5852C43.9817 31.3054 44.6193 31.1614 45.2648 31.1642C45.9103 31.1669 46.5467 31.3164 47.1259 31.6012C47.7052 31.8861 48.2121 32.2988 48.6084 32.8084C49.0048 33.3179 49.28 33.9108 49.4135 34.5423L51.6203 42.4758C51.6776 42.7084 51.6416 42.9541 51.5199 43.1603C51.3982 43.3666 51.2006 43.517 50.9694 43.5792H50.7376" fill="#3F3F3F"/>
<path d="M32.9572 42.8069C32.7308 42.8094 32.5115 42.7279 32.3417 42.5783C32.1718 42.4286 32.0634 42.2214 32.0373 41.9965C32.0113 41.7716 32.0694 41.545 32.2006 41.3605C32.3317 41.176 32.5266 41.0466 32.7475 40.9973C35.5154 40.4018 38.3511 40.1828 41.1776 40.3463C41.4205 40.3609 41.6476 40.4714 41.809 40.6535C41.9704 40.8356 42.0528 41.0744 42.0382 41.3173C42.0236 41.5602 41.913 41.7873 41.7309 41.9487C41.5489 42.1101 41.3101 42.1925 41.0672 42.1779C38.4227 42.0309 35.7703 42.2312 33.1779 42.7738C33.1047 42.7845 33.0303 42.7845 32.9572 42.7738" fill="#3F3F3F"/>
<path d="M64.3653 64.3785H16.036C15.0878 64.3785 14.1785 64.0018 13.508 63.3314C12.8376 62.6609 12.4609 61.7516 12.4609 60.8034V27.4033C12.4609 26.5253 12.8097 25.6834 13.4305 25.0626C14.0513 24.4418 14.8932 24.093 15.7712 24.093H26.6177C26.8606 24.093 27.0935 24.1895 27.2653 24.3613C27.437 24.533 27.5335 24.766 27.5335 25.0089C27.5335 25.2518 27.437 25.4847 27.2653 25.6565C27.0935 25.8282 26.8606 25.9247 26.6177 25.9247H15.7712C15.378 25.9276 15.002 26.0858 14.725 26.3649C14.448 26.6439 14.2926 27.0211 14.2926 27.4143V60.8145C14.2926 61.0434 14.3377 61.2701 14.4253 61.4816C14.5129 61.6931 14.6414 61.8853 14.8033 62.0472C14.9651 62.2091 15.1573 62.3375 15.3688 62.4252C15.5803 62.5128 15.807 62.5579 16.036 62.5579H64.3653C64.5942 62.5579 64.8209 62.5128 65.0324 62.4252C65.2439 62.3375 65.4361 62.2091 65.598 62.0472C65.7599 61.8853 65.8883 61.6931 65.9759 61.4816C66.0636 61.2701 66.1086 61.0434 66.1086 60.8145V27.4033C66.1086 27.0082 65.9517 26.6293 65.6724 26.35C65.393 26.0706 65.0141 25.9137 64.619 25.9137H53.7836C53.5407 25.9137 53.3077 25.8172 53.136 25.6455C52.9642 25.4737 52.8677 25.2407 52.8677 24.9978C52.8677 24.755 52.9642 24.522 53.136 24.3503C53.3077 24.1785 53.5407 24.082 53.7836 24.082H64.619C65.497 24.082 66.339 24.4308 66.9598 25.0516C67.5805 25.6723 67.9293 26.5143 67.9293 27.3923V60.7924C67.9293 61.7406 67.5526 62.6499 66.8822 63.3203C66.2117 63.9908 65.3024 64.3674 64.3542 64.3674" fill="#3F3F3F"/>
<path d="M31.6285 67.5894H48.7755V64.3785H31.6285V67.5894ZM49.6913 69.4211H30.7127C30.4698 69.4211 30.2369 69.3246 30.0651 69.1528C29.8934 68.9811 29.7969 68.7481 29.7969 68.5052V63.4627C29.7969 63.2198 29.8934 62.9868 30.0651 62.8151C30.2369 62.6433 30.4698 62.5468 30.7127 62.5468H49.6913C49.8116 62.5468 49.9306 62.5705 50.0418 62.6165C50.1529 62.6625 50.2538 62.73 50.3389 62.8151C50.4239 62.9001 50.4914 63.0011 50.5374 63.1122C50.5835 63.2233 50.6071 63.3424 50.6071 63.4627V68.5052C50.6071 68.6255 50.5835 68.7446 50.5374 68.8557C50.4914 68.9668 50.4239 69.0678 50.3389 69.1528C50.2538 69.2379 50.1529 69.3053 50.0418 69.3513C49.9306 69.3973 49.8116 69.4211 49.6913 69.4211Z" fill="#3F3F3F"/>
<path d="M22.9718 73.8899H57.4422V72.4885C57.4422 71.6769 57.1205 70.8983 56.5477 70.3234C55.9748 69.7484 55.1974 69.424 54.3858 69.4211H26.0392C25.2257 69.4211 24.4455 69.7442 23.8702 70.3195C23.2949 70.8948 22.9718 71.675 22.9718 72.4885V73.8899ZM58.4132 75.7215H22.1111C21.8682 75.7215 21.6353 75.625 21.4636 75.4533C21.2918 75.2815 21.1953 75.0486 21.1953 74.8057V72.4885C21.1953 71.8452 21.322 71.2081 21.5682 70.6137C21.8144 70.0193 22.1753 69.4792 22.6302 69.0243C23.0851 68.5694 23.6252 68.2085 24.2196 67.9623C24.814 67.7161 25.4511 67.5894 26.0944 67.5894H54.441C55.7384 67.5923 56.9817 68.1098 57.898 69.0282C58.8144 69.9467 59.3291 71.1911 59.3291 72.4885V74.8057C59.3291 74.926 59.3054 75.0451 59.2594 75.1562C59.2134 75.2673 59.1459 75.3682 59.0608 75.4533C58.9758 75.5383 58.8748 75.6058 58.7637 75.6518C58.6526 75.6978 58.5335 75.7215 58.4132 75.7215Z" fill="#3F3F3F"/>
<path d="M32.2848 14.1403V25.4723H48.1297V14.1403H32.2848ZM48.1297 27.304H32.2848C31.799 27.304 31.3331 27.111 30.9896 26.7675C30.6461 26.424 30.4531 25.9581 30.4531 25.4723V14.1403C30.456 13.6564 30.6503 13.1934 30.9935 12.8523C31.3367 12.5112 31.8009 12.3197 32.2848 12.3197H48.1297C48.6136 12.3197 49.0779 12.5112 49.421 12.8523C49.7642 13.1934 49.9585 13.6564 49.9614 14.1403V25.4723C49.9614 25.9581 49.7685 26.424 49.425 26.7675C49.0814 27.111 48.6155 27.304 48.1297 27.304Z" fill="#D40054"/>
<path d="M47.0227 14.1403H46.8131C46.5721 14.1403 46.3408 14.0454 46.1694 13.876C45.9979 13.7066 45.9001 13.4765 45.8972 13.2355C45.8961 13.0186 45.9702 12.8081 46.1069 12.6397V8.22604C46.1069 7.59686 45.857 6.99346 45.4121 6.54857C44.9672 6.10367 44.3638 5.85372 43.7346 5.85372H36.6727C36.0436 5.85372 35.4402 6.10367 34.9953 6.54857C34.5504 6.99346 34.3005 7.59686 34.3005 8.22604V9.02049C34.3005 9.26339 34.204 9.49635 34.0322 9.6681C33.8605 9.83985 33.6275 9.93634 33.3846 9.93634C33.1417 9.93634 32.9088 9.83985 32.737 9.6681C32.5653 9.49635 32.4688 9.26339 32.4688 9.02049V8.22604C32.4673 7.67251 32.5749 7.12415 32.7854 6.61221C32.9959 6.10026 33.3052 5.63477 33.6956 5.24234C34.0859 4.84992 34.5498 4.53824 35.0606 4.32508C35.5714 4.11192 36.1192 4.00145 36.6727 4H43.7346C44.8487 4.00291 45.9163 4.44676 46.704 5.23453C47.4918 6.0223 47.9357 7.08991 47.9386 8.20398V13.2355C47.9357 13.4765 47.8379 13.7066 47.6664 13.876C47.495 14.0454 47.2637 14.1403 47.0227 14.1403Z" fill="#D40054"/>
<path d="M38.3589 17.2409L39.1533 20.2642C39.2197 20.4535 39.2197 20.6598 39.1533 20.849C39.0965 20.9932 39.0666 21.1465 39.065 21.3014C39.065 21.6146 39.1894 21.9149 39.4108 22.1363C39.6322 22.3577 39.9325 22.4821 40.2457 22.4821C40.5588 22.4821 40.8591 22.3577 41.0806 22.1363C41.302 21.9149 41.4263 21.6146 41.4263 21.3014C41.4248 21.1465 41.3949 20.9932 41.3381 20.849C41.2716 20.6598 41.2716 20.4535 41.3381 20.2642L42.1325 17.2409H38.3589ZM40.2015 24.3137C39.7338 24.3157 39.272 24.2083 38.8531 24C38.4342 23.7918 38.0698 23.4885 37.7889 23.1144C37.5081 22.7403 37.3186 22.3057 37.2355 21.8453C37.1525 21.3849 37.1782 20.9115 37.3106 20.4629L36.2955 16.5568C36.2657 16.4244 36.2661 16.287 36.2966 16.1548C36.3271 16.0226 36.3869 15.8989 36.4717 15.7929C36.5565 15.687 36.664 15.6015 36.7863 15.5427C36.9086 15.4839 37.0425 15.4534 37.1782 15.4534H43.2249C43.3606 15.4534 43.4945 15.4839 43.6168 15.5427C43.7391 15.6015 43.8466 15.687 43.9314 15.7929C44.0162 15.8989 44.076 16.0226 44.1065 16.1548C44.137 16.287 44.1374 16.4244 44.1076 16.5568L43.0925 20.4629C43.2249 20.9115 43.2506 21.3849 43.1676 21.8453C43.0845 22.3057 42.895 22.7403 42.6142 23.1144C42.3333 23.4885 41.9689 23.7918 41.55 24C41.1311 24.2083 40.6693 24.3157 40.2015 24.3137Z" fill="#D40054"/>
<path d="M18.2595 58.8725C18.1393 58.8725 18.0202 58.8488 17.9091 58.8028C17.7979 58.7567 17.697 58.6893 17.6119 58.6042C17.5269 58.5192 17.4595 58.4182 17.4135 58.3071C17.3674 58.196 17.3438 58.0769 17.3438 57.9566V31.2873C17.3437 31.0444 17.4402 30.8114 17.6119 30.6397C17.7837 30.4679 18.0166 30.3714 18.2595 30.3714C18.5024 30.3714 18.7354 30.4679 18.9071 30.6397C19.0789 30.8114 19.1754 31.0444 19.1754 31.2873V57.9566C19.1754 58.0769 19.1517 58.196 19.1057 58.3071C19.0596 58.4182 18.9922 58.5192 18.9071 58.6042C18.8221 58.6893 18.7211 58.7567 18.61 58.8028C18.4989 58.8488 18.3798 58.8725 18.2595 58.8725Z" fill="#3F3F3F"/>
<path d="M62.1502 58.8725C62.03 58.8725 61.9109 58.8488 61.7998 58.8028C61.6886 58.7567 61.5877 58.6893 61.5026 58.6042C61.4176 58.5192 61.3501 58.4182 61.3041 58.3071C61.2581 58.196 61.2344 58.0769 61.2344 57.9566V31.2873C61.2344 31.0444 61.3309 30.8114 61.5026 30.6397C61.6744 30.4679 61.9073 30.3714 62.1502 30.3714C62.3931 30.3714 62.6261 30.4679 62.7978 30.6397C62.9696 30.8114 63.066 31.0444 63.066 31.2873V57.9566C63.066 58.0769 63.0423 58.196 62.9963 58.3071C62.9503 58.4182 62.8829 58.5192 62.7978 58.6042C62.7128 58.6893 62.6118 58.7567 62.5007 58.8028C62.3896 58.8488 62.2705 58.8725 62.1502 58.8725Z" fill="#3F3F3F"/>
<path d="M70.5476 75.7215H9.97047C9.72757 75.7215 9.49468 75.625 9.32293 75.4533C9.15118 75.2815 9.05469 75.0486 9.05469 74.8057C9.05469 74.5628 9.15118 74.3299 9.32293 74.1581C9.49468 73.9864 9.72757 73.8899 9.97047 73.8899H70.5476C70.7905 73.8899 71.0234 73.9864 71.1952 74.1581C71.3669 74.3299 71.4634 74.5628 71.4634 74.8057C71.4634 75.0486 71.3669 75.2815 71.1952 75.4533C71.0234 75.625 70.7905 75.7215 70.5476 75.7215Z" fill="#3F3F3F"/>
</g>
</g>
<defs>
<clipPath id="clip0_21_5212">
<rect width="62.4087" height="71.7215" fill="white" transform="translate(9 4)"/>
</clipPath>
</defs>
</svg>
