<svg width="80" height="80" viewBox="0 0 80 80" fill="none" xmlns="http://www.w3.org/2000/svg">
<g clip-path="url(#clip0_2_833)">
<mask id="mask0_2_833" style="mask-type:luminance" maskUnits="userSpaceOnUse" x="3" y="2" width="75" height="76">
<path d="M78 2H3V78H78V2Z" fill="white"/>
</mask>
<g mask="url(#mask0_2_833)">
<path d="M45.4531 20.9209C45.4531 30.2309 40.0781 37.7675 33.4531 37.7675C26.8281 37.7675 21.4688 30.2309 21.4688 20.9209C21.4688 11.6109 26.8438 4.09001 33.3906 4.09001C39.9375 4.09001 45.3906 11.6267 45.3906 20.9367" fill="white"/>
<path d="M33.4531 37.7675C40.0805 37.7675 45.4531 30.225 45.4531 20.9208C45.4531 11.6167 40.0805 4.07417 33.4531 4.07417C26.8257 4.07417 21.4531 11.6167 21.4531 20.9208C21.4531 30.225 26.8257 37.7675 33.4531 37.7675Z" stroke="white" stroke-width="0.75" stroke-miterlimit="10"/>
<path d="M23.0153 45.5734C22.0368 47.3762 20.565 48.8539 18.777 49.8287C16.9889 50.8034 14.9609 51.2337 12.9371 51.0675H11.3746C11.0111 51.0729 10.6541 51.1662 10.3334 51.3397C10.0127 51.5132 9.73755 51.7619 9.5309 52.065C6.8434 55.3742 6.20278 65.6659 6.4059 73.4717C6.40148 73.6638 6.47059 73.8502 6.59874 73.9918C6.72688 74.1335 6.90414 74.2194 7.09341 74.2317H57.6872C57.8764 74.2194 58.0537 74.1335 58.1818 73.9918C58.31 73.8502 58.3791 73.6638 58.3747 73.4717C58.6559 65.6659 58.0309 55.3742 55.3278 52.065C55.1236 51.7631 54.8512 51.5151 54.5332 51.3416C54.2152 51.168 53.8608 51.0741 53.4997 51.0675H51.9372C49.9114 51.2328 47.8816 50.8024 46.0912 49.8278C44.3009 48.8533 42.8259 47.3761 41.8434 45.5734C41.741 45.3908 41.6672 45.1931 41.6247 44.9875C39.1864 47.4674 35.8815 48.8731 32.427 48.8998C28.9725 48.9264 25.6469 47.5719 23.1716 45.13C23.1307 45.2838 23.0729 45.4325 22.9996 45.5734" fill="#3F3F3F"/>
<path d="M23.0153 45.5734C22.0368 47.3762 20.565 48.8539 18.777 49.8287C16.9889 50.8034 14.9609 51.2337 12.9371 51.0675H11.3746C11.0111 51.0729 10.6541 51.1662 10.3334 51.3397C10.0127 51.5132 9.73755 51.7619 9.5309 52.065C6.8434 55.3742 6.20278 65.6659 6.4059 73.4717C6.40148 73.6638 6.47059 73.8502 6.59874 73.9918C6.72688 74.1335 6.90414 74.2194 7.09341 74.2317H57.6872C57.8764 74.2194 58.0537 74.1335 58.1818 73.9918C58.31 73.8502 58.3791 73.6638 58.3747 73.4717C58.6559 65.6659 58.0309 55.3742 55.3278 52.065C55.1236 51.7631 54.8512 51.5151 54.5332 51.3416C54.2152 51.168 53.8608 51.0741 53.4997 51.0675H51.9372C49.9114 51.2328 47.8816 50.8024 46.0912 49.8278C44.3009 48.8533 42.8259 47.3761 41.8434 45.5734C41.741 45.3908 41.6672 45.1931 41.6247 44.9875C39.1864 47.4674 35.8815 48.8731 32.427 48.8998C28.9725 48.9264 25.6469 47.5719 23.1716 45.13C23.1357 45.2832 23.0832 45.4318 23.0153 45.5734Z" stroke="white" stroke-miterlimit="10"/>
</g>
<path d="M43.1719 44.9717H76.0469V61.7233L68.7656 73.1708L60.7656 75.5142L50.4687 73.6617L43.5781 63.9242L43.1719 44.9717Z" fill="#D40054"/>
<mask id="mask1_2_833" style="mask-type:luminance" maskUnits="userSpaceOnUse" x="3" y="2" width="75" height="76">
<path d="M78 2H3V78H78V2Z" fill="white"/>
</mask>
<g mask="url(#mask1_2_833)">
<path d="M43.1719 44.9717H76.0469V61.7233L68.7656 73.1708L60.7656 75.5142L50.4687 73.6617L43.5781 63.9242L43.1719 44.9717Z" stroke="white" stroke-miterlimit="10"/>
<path d="M64.0625 56.6883C64.0625 57.6278 63.7876 58.5462 63.2725 59.3273C62.7575 60.1084 62.0254 60.7172 61.1689 61.0768C60.3124 61.4363 59.3699 61.5303 58.4606 61.3471C57.5513 61.1638 56.716 60.7114 56.0605 60.0471C55.4049 59.3828 54.9584 58.5364 54.7776 57.615C54.5967 56.6936 54.6895 55.7386 55.0443 54.8706C55.3991 54.0027 56 53.2608 56.7708 52.7388C57.5417 52.2169 58.4479 51.9383 59.375 51.9383C60.6182 51.9383 61.8106 52.4388 62.6896 53.3296C63.5687 54.2204 64.0625 55.4286 64.0625 56.6883Z" fill="#3F3F3F"/>
<path d="M64.0625 56.6883C64.0625 57.6278 63.7876 58.5462 63.2725 59.3273C62.7575 60.1084 62.0254 60.7172 61.1689 61.0768C60.3124 61.4363 59.3699 61.5303 58.4606 61.3471C57.5513 61.1638 56.716 60.7114 56.0605 60.0471C55.4049 59.3828 54.9584 58.5364 54.7776 57.615C54.5967 56.6936 54.6895 55.7386 55.0443 54.8706C55.3991 54.0027 56 53.2608 56.7708 52.7388C57.5417 52.2169 58.4479 51.9383 59.375 51.9383C60.6182 51.9383 61.8106 52.4388 62.6896 53.3296C63.5687 54.2204 64.0625 55.4286 64.0625 56.6883Z" stroke="white" stroke-miterlimit="10"/>
<path d="M33.3906 5.79998C28.7031 5.79998 23.1875 8.00081 23.1875 18.4666C23.1875 27.9666 27.875 35.9784 33.3906 35.9784C38.9062 35.9784 43.6093 27.9666 43.6093 18.4666C43.6093 7.93748 38.0625 5.79998 33.3906 5.79998ZM33.3906 39.2558C25.8906 39.2558 20.0156 30.1517 20.0156 18.53C20.0156 4.13749 29.3906 2.58582 33.3906 2.58582C37.3906 2.58582 46.7813 4.16916 46.7813 18.53C46.7813 30.1517 40.9062 39.2558 33.3906 39.2558Z" fill="#3F3F3F"/>
<path d="M33.3906 5.79998C28.7031 5.79998 23.1875 8.00081 23.1875 18.4666C23.1875 27.9666 27.875 35.9784 33.3906 35.9784C38.9062 35.9784 43.6093 27.9666 43.6093 18.4666C43.6718 8.00081 38.0781 5.79998 33.3906 5.79998ZM33.3906 39.2558C25.8906 39.2558 20.0156 30.1517 20.0156 18.53C20.0156 4.13749 29.3906 2.58582 33.3906 2.58582C37.3906 2.58582 46.7813 4.16916 46.7813 18.53C46.8438 30.1517 40.9687 39.2558 33.3906 39.2558Z" stroke="white" stroke-width="0.75" stroke-miterlimit="10"/>
<path d="M59.3281 53.49C58.7101 53.49 58.1059 53.6757 57.592 54.0237C57.0781 54.3716 56.6776 54.8662 56.4411 55.4448C56.2046 56.0235 56.1426 56.6602 56.2632 57.2745C56.3838 57.8887 56.6814 58.453 57.1185 58.8959C57.5555 59.3387 58.1124 59.6403 58.7185 59.7625C59.3247 59.8847 59.953 59.822 60.524 59.5823C61.0951 59.3426 61.5831 58.9367 61.9265 58.416C62.2699 57.8952 62.4531 57.283 62.4531 56.6567C62.4531 55.8168 62.1239 55.0114 61.5379 54.4175C60.9518 53.8236 60.1569 53.49 59.3281 53.49ZM59.3281 67.8667C58.9137 67.8667 58.5163 67.6999 58.2233 67.4029C57.9303 67.106 57.7656 66.7033 57.7656 66.2833V63.4492C57.7656 63.2865 57.7161 63.1278 57.6238 62.9946C57.5316 62.8615 57.4011 62.7603 57.2501 62.705C55.8427 62.2008 54.6565 61.2086 53.9012 59.9039C53.1458 58.5991 52.87 57.0658 53.1224 55.5749C53.3748 54.084 54.1393 52.7315 55.2806 51.7565C56.422 50.7815 57.8666 50.2467 59.3594 50.2467C60.8522 50.2467 62.297 50.7815 63.4383 51.7565C64.5796 52.7315 65.344 54.084 65.5964 55.5749C65.8489 57.0658 65.573 58.5991 64.8177 59.9039C64.0624 61.2086 62.8762 62.2008 61.4688 62.705C61.3178 62.7603 61.1873 62.8615 61.095 62.9946C61.0027 63.1278 60.9533 63.2865 60.9532 63.4492V66.2833C60.9532 66.7033 60.7886 67.106 60.4955 67.4029C60.2025 67.6999 59.8051 67.8667 59.3907 67.8667" fill="white"/>
<path d="M59.3281 53.49C58.7101 53.49 58.1059 53.6757 57.592 54.0237C57.0781 54.3716 56.6776 54.8662 56.4411 55.4448C56.2046 56.0235 56.1426 56.6602 56.2632 57.2745C56.3838 57.8887 56.6814 58.453 57.1185 58.8959C57.5555 59.3387 58.1124 59.6403 58.7185 59.7625C59.3247 59.8847 59.953 59.822 60.524 59.5823C61.0951 59.3426 61.5831 58.9367 61.9265 58.416C62.2699 57.8952 62.4531 57.283 62.4531 56.6567C62.4531 55.8168 62.1239 55.0114 61.5379 54.4175C60.9518 53.8236 60.1569 53.49 59.3281 53.49ZM59.3281 67.8667C58.9137 67.8667 58.5163 67.6999 58.2233 67.4029C57.9303 67.106 57.7656 66.7033 57.7656 66.2833V63.4492C57.7656 63.2865 57.7161 63.1278 57.6238 62.9946C57.5316 62.8615 57.4011 62.7603 57.2501 62.705C55.8427 62.2008 54.6565 61.2086 53.9012 59.9039C53.1458 58.5991 52.87 57.0658 53.1224 55.5749C53.3748 54.084 54.1393 52.7315 55.2806 51.7565C56.422 50.7815 57.8666 50.2467 59.3594 50.2467C60.8522 50.2467 62.297 50.7815 63.4383 51.7565C64.5796 52.7315 65.344 54.084 65.5964 55.5749C65.8489 57.0658 65.573 58.5991 64.8177 59.9039C64.0624 61.2086 62.8762 62.2008 61.4688 62.705C61.3178 62.7603 61.1873 62.8615 61.095 62.9946C61.0027 63.1278 60.9533 63.2865 60.9532 63.4492V66.2833C60.9534 66.4967 60.911 66.7079 60.8286 66.9042C60.7462 67.1006 60.6255 67.2781 60.4737 67.4259C60.3219 67.5738 60.1422 67.6891 59.9454 67.7648C59.7485 67.8405 59.5385 67.8752 59.3281 67.8667Z" stroke="white" stroke-width="0.75" stroke-miterlimit="10"/>
<path d="M74.2499 59.0792C74.3146 61.1029 73.977 63.1191 73.2574 65.008C72.5378 66.8969 71.4508 68.62 70.061 70.0747C68.6711 71.5294 67.0069 72.6862 65.1671 73.4761C63.3273 74.2661 61.3495 74.6731 59.3514 74.6731C57.3533 74.6731 55.3756 74.2661 53.5358 73.4761C51.696 72.6862 50.0317 71.5294 48.6418 70.0747C47.252 68.62 46.165 66.8969 45.4454 65.008C44.7258 63.1191 44.3883 61.1029 44.453 59.0792V47.125C44.453 46.9192 44.5336 46.7219 44.6772 46.5764C44.8208 46.4309 45.0156 46.3492 45.2186 46.3492H73.4842C73.6872 46.3492 73.882 46.4309 74.0256 46.5764C74.1692 46.7219 74.2499 46.9192 74.2499 47.125V59.0792ZM59.3592 34.4108C61.4312 34.4108 63.4183 35.2449 64.8835 36.7296C66.3486 38.2142 67.1717 40.2279 67.1717 42.3275C67.1717 42.5333 67.0911 42.7306 66.9475 42.8761C66.8039 43.0216 66.6092 43.1034 66.4061 43.1034H52.3436C52.2418 43.1055 52.1405 43.0869 52.0458 43.0489C51.9511 43.0109 51.8649 42.954 51.7921 42.8818C51.7193 42.8095 51.6615 42.7233 51.6221 42.6281C51.5826 42.5329 51.5623 42.4307 51.5624 42.3275C51.5624 40.2279 52.3855 38.2142 53.8506 36.7296C55.3157 35.2449 57.3029 34.4108 59.3749 34.4108M75.8592 43.135H71.1717C70.9687 43.135 70.7739 43.0533 70.6303 42.9078C70.4867 42.7623 70.4061 42.565 70.4061 42.3592C70.4061 39.4029 69.2472 36.5677 67.1843 34.4773C65.1214 32.3869 62.3235 31.2125 59.4061 31.2125C56.4888 31.2125 53.6909 32.3869 51.628 34.4773C49.5651 36.5677 48.4061 39.4029 48.4061 42.3592C48.402 42.5664 48.3179 42.7637 48.1719 42.9088C48.0258 43.0538 47.8293 43.135 47.6248 43.135H42.9373C42.5229 43.135 42.1255 43.3018 41.8325 43.5987C41.5395 43.8957 41.3748 44.2984 41.3748 44.7183V59.0475C41.368 62.019 42.0759 64.9474 43.4371 67.5793C44.7984 70.2112 46.7721 72.4674 49.1873 74.1525H19.4998C19.2968 74.1525 19.102 74.0708 18.9584 73.9253C18.8148 73.7798 18.7342 73.5824 18.7342 73.3767V63.8767C18.7342 63.4568 18.5696 63.054 18.2765 62.7571C17.9835 62.4601 17.5861 62.2934 17.1717 62.2934C16.7573 62.2934 16.3599 62.4601 16.0669 62.7571C15.7739 63.054 15.6092 63.4568 15.6092 63.8767V73.3767C15.6092 73.4786 15.5894 73.5794 15.5509 73.6736C15.5125 73.7677 15.4561 73.8532 15.385 73.9253C15.3139 73.9973 15.2295 74.0545 15.1366 74.0935C15.0437 74.1324 14.9441 74.1525 14.8436 74.1525H7.71861C7.51671 74.1527 7.32257 74.0736 7.17692 73.9319C7.03127 73.7902 6.94543 73.5969 6.93736 73.3925C6.68736 65.6025 7.45301 55.3425 10.4843 52.065C10.7306 51.761 11.0408 51.5166 11.3922 51.3496C11.7436 51.1825 12.1273 51.0969 12.5155 51.0992H13.9842C17.5936 51.0992 20.5624 50.6875 23.2499 45.4467C23.3471 45.261 23.4068 45.0575 23.4256 44.8481C23.4444 44.6388 23.4219 44.4277 23.3593 44.2273C23.2968 44.0268 23.1956 43.841 23.0614 43.6807C22.9273 43.5203 22.7629 43.3887 22.578 43.2934C22.3523 43.1699 22.1 43.1047 21.8436 43.1034C21.555 43.1042 21.2724 43.1861 21.0269 43.3398C20.7815 43.4935 20.5828 43.7131 20.4529 43.9742C18.7186 47.3467 17.2186 47.9009 14.2968 47.9009H12.4999C11.6811 47.9094 10.873 48.0912 10.1277 48.4348C9.38234 48.7783 8.71609 49.276 8.1717 49.8958C2.74982 55.77 3.76546 73.8517 3.89046 75.8942C3.91438 76.2974 4.08951 76.6761 4.37999 76.9528C4.67046 77.2295 5.05431 77.3832 5.45296 77.3825H59.8592C64.5818 77.275 69.0757 75.3003 72.3807 71.8802C75.6857 68.4602 77.5398 63.866 77.5467 59.0792V44.75C77.5467 44.3301 77.3821 43.9274 77.0891 43.6304C76.7961 43.3335 76.3986 43.1667 75.9842 43.1667" fill="#3F3F3F"/>
<path d="M74.2499 59.0792C74.3146 61.1029 73.977 63.1191 73.2574 65.008C72.5378 66.8969 71.4508 68.62 70.061 70.0747C68.6711 71.5294 67.0069 72.6862 65.1671 73.4761C63.3273 74.2661 61.3495 74.6731 59.3514 74.6731C57.3533 74.6731 55.3756 74.2661 53.5358 73.4761C51.696 72.6862 50.0317 71.5294 48.6418 70.0747C47.252 68.62 46.165 66.8969 45.4454 65.008C44.7258 63.1191 44.3883 61.1029 44.453 59.0792V47.125C44.453 46.9192 44.5336 46.7219 44.6772 46.5764C44.8208 46.4309 45.0156 46.3492 45.2186 46.3492H73.4842C73.6873 46.3492 73.882 46.4309 74.0256 46.5764C74.1692 46.7219 74.2499 46.9192 74.2499 47.125V59.0792ZM59.3592 34.4108C61.4312 34.4108 63.4184 35.2449 64.8835 36.7296C66.3486 38.2142 67.1717 40.2279 67.1717 42.3275C67.1717 42.5333 67.0911 42.7306 66.9475 42.8761C66.8039 43.0216 66.6092 43.1034 66.4061 43.1034H52.3436C52.2418 43.1055 52.1405 43.0869 52.0458 43.0489C51.9511 43.0109 51.8649 42.954 51.7921 42.8818C51.7194 42.8095 51.6615 42.7233 51.6221 42.6281C51.5826 42.5329 51.5623 42.4307 51.5624 42.3275C51.5624 40.2306 52.3833 38.2194 53.8451 36.7352C55.3068 35.251 57.2899 34.415 59.3592 34.4108ZM75.8436 43.135H71.1561C70.953 43.135 70.7584 43.0533 70.6148 42.9078C70.4712 42.7623 70.3905 42.565 70.3905 42.3592C70.3905 39.4029 69.2316 36.5677 67.1687 34.4773C65.1058 32.3869 62.3079 31.2125 59.3905 31.2125C56.4731 31.2125 53.6752 32.3869 51.6123 34.4773C49.5494 36.5677 48.3904 39.4029 48.3904 42.3592C48.3864 42.5664 48.3023 42.7637 48.1562 42.9088C48.0102 43.0538 47.8137 43.135 47.6092 43.135H42.9217C42.5073 43.135 42.1099 43.3018 41.8169 43.5987C41.5238 43.8957 41.3592 44.2984 41.3592 44.7183V59.0475C41.3524 62.019 42.0603 64.9474 43.4215 67.5793C44.7828 70.2112 46.7564 72.4674 49.1717 74.1525H19.4842C19.2811 74.1525 19.0865 74.0708 18.9429 73.9253C18.7993 73.7798 18.7186 73.5824 18.7186 73.3767V63.8767C18.7186 63.4568 18.5539 63.054 18.2609 62.7571C17.9679 62.4601 17.5705 62.2934 17.1561 62.2934C16.7417 62.2934 16.3443 62.4601 16.0513 62.7571C15.7582 63.054 15.5936 63.4568 15.5936 63.8767V73.3767C15.5936 73.5824 15.513 73.7798 15.3694 73.9253C15.2258 74.0708 15.031 74.1525 14.828 74.1525H7.70298C7.50109 74.1527 7.30694 74.0736 7.1613 73.9319C7.01565 73.7902 6.92981 73.5969 6.92173 73.3925C6.67173 65.6025 7.43739 55.3425 10.4686 52.065C10.715 51.761 11.0251 51.5166 11.3765 51.3496C11.7279 51.1825 12.1117 51.0969 12.4999 51.0992H13.9686C17.578 51.0992 20.5467 50.6875 23.2342 45.4467C23.3315 45.261 23.3912 45.0575 23.41 44.8481C23.4288 44.6388 23.4064 44.4277 23.3438 44.2273C23.2813 44.0268 23.18 43.841 23.0458 43.6807C22.9116 43.5203 22.7473 43.3887 22.5624 43.2934C22.3367 43.1699 22.0844 43.1047 21.8279 43.1034C21.5394 43.1042 21.2568 43.1861 21.0113 43.3398C20.7659 43.4935 20.5672 43.7131 20.4374 43.9742C18.703 47.3467 17.203 47.9009 14.2811 47.9009H12.4842C11.6654 47.9094 10.8574 48.0912 10.1121 48.4348C9.36671 48.7783 8.70047 49.276 8.15607 49.8958C2.7342 55.77 3.74984 73.8517 3.87484 75.8942C3.89876 76.2974 4.07389 76.6761 4.36436 76.9528C4.65483 77.2295 5.03868 77.3832 5.43734 77.3825H59.8436C64.5662 77.275 69.0601 75.3003 72.3651 71.8802C75.6701 68.4602 77.5241 63.866 77.5311 59.0792V44.75C77.5362 44.5283 77.4952 44.3081 77.411 44.1034C77.3267 43.8988 77.201 43.7144 77.0419 43.5621C76.8828 43.4099 76.6939 43.2932 76.4875 43.2196C76.2811 43.146 76.0617 43.1172 75.8436 43.135Z" stroke="white" stroke-width="0.75" stroke-miterlimit="10"/>
</g>
</g>
<defs>
<clipPath id="clip0_2_833">
<rect width="75" height="76" fill="white" transform="translate(3 2)"/>
</clipPath>
</defs>
</svg>
