<svg width="80" height="80" viewBox="0 0 80 80" fill="none" xmlns="http://www.w3.org/2000/svg">
<g clip-path="url(#clip0_13_3186)">
<mask id="mask0_13_3186" style="mask-type:luminance" maskUnits="userSpaceOnUse" x="4" y="15" width="73" height="51">
<path d="M77 15H4V66H77V15Z" fill="white"/>
</mask>
<g mask="url(#mask0_13_3186)">
<path d="M15.9376 53.2371C16.8655 53.2371 17.7726 52.9641 18.5441 52.4527C19.3156 51.9413 19.9169 51.2144 20.272 50.364C20.6271 49.5135 20.72 48.5777 20.539 47.6749C20.3579 46.772 19.9112 45.9427 19.255 45.2918C18.5989 44.6409 17.763 44.1976 16.8529 44.0181C15.9428 43.8385 14.9995 43.9306 14.1422 44.2829C13.2849 44.6352 12.5522 45.2317 12.0367 45.9971C11.5212 46.7625 11.2461 47.6623 11.2461 48.5829C11.2461 49.8172 11.7403 51.0011 12.6202 51.8739C13.5 52.7467 14.6933 53.2371 15.9376 53.2371Z" fill="#D40054"/>
<path d="M59.2856 36.7611L66.5836 32.0345L54.469 22.8708M46.7541 40.9706H36.3285C34.6314 37.6899 31.8715 35.0708 28.4925 33.5343C25.1136 31.9978 21.312 31.6333 17.699 32.4993C14.086 33.3653 10.8715 35.4116 8.57249 38.3091C6.27346 41.2065 5.02344 44.7868 5.02344 48.4742C5.02344 52.1617 6.27346 55.742 8.57249 58.6394C10.8715 61.5369 14.086 63.5831 17.699 64.4492C21.312 65.3152 25.1136 64.9506 28.4925 63.4142C31.8715 61.8777 34.6314 59.2586 36.3285 55.9779H41.8228L46.5143 51.3237L51.5707 56.3296L55.8139 52.1201L59.6818 55.9572L63.8521 51.8201L68.1265 56.0606L75.5183 48.7276L71.004 44.2493M59.2648 16.0343C62.0143 16.0322 64.7026 16.8393 66.9896 18.3535C69.2766 19.8676 71.0595 22.0207 72.1127 24.5404C73.1658 27.06 73.4419 29.8329 72.906 32.5083C72.3701 35.1836 71.0463 37.6412 69.1021 39.5699C67.1579 41.4987 64.6807 42.812 61.9839 43.3436C59.2871 43.8752 56.492 43.6013 53.9521 42.5566C51.4123 41.5118 49.2419 39.7431 47.7157 37.4742C46.1894 35.2054 45.3758 32.5385 45.3779 29.8108C45.3779 27.9999 45.7378 26.2068 46.437 24.534C47.1362 22.8612 48.1609 21.3415 49.4526 20.062C50.7443 18.7825 52.2777 17.7681 53.9649 17.077C55.6522 16.3859 57.4602 16.0316 59.2856 16.0343H59.2648ZM16.3947 43.215C17.4505 43.215 18.4825 43.5256 19.3603 44.1074C20.2382 44.6893 20.9223 45.5163 21.3263 46.4839C21.7304 47.4516 21.836 48.5163 21.6301 49.5436C21.4241 50.5708 20.9157 51.5143 20.1692 52.2549C19.4227 52.9955 18.4715 53.4998 17.4361 53.7042C16.4006 53.9085 15.3274 53.8036 14.352 53.4028C13.3766 53.002 12.543 52.3233 11.9564 51.4525C11.3699 50.5816 11.0568 49.5578 11.0568 48.5105C11.0624 47.1096 11.6272 45.768 12.6276 44.7794C13.6281 43.7907 14.9826 43.2356 16.3947 43.2357V43.215Z" stroke="#3F3F3F" stroke-width="2"/>
</g>
</g>
<defs>
<clipPath id="clip0_13_3186">
<rect width="73" height="51" fill="white" transform="translate(4 15)"/>
</clipPath>
</defs>
</svg>
