<svg width="76" height="77" viewBox="0 0 76 77" fill="none" xmlns="http://www.w3.org/2000/svg">
<g clip-path="url(#clip0_21_6052)">
<mask id="mask0_21_6052" style="mask-type:luminance" maskUnits="userSpaceOnUse" x="0" y="0" width="76" height="77">
<path d="M76 0H0V77H76V0Z" fill="white"/>
</mask>
<g mask="url(#mask0_21_6052)">
<path d="M0.774931 12.888C0.67388 12.8899 0.573446 12.8718 0.479511 12.8345C0.385577 12.7972 0.299999 12.7416 0.227841 12.671C0.155682 12.6003 0.0983334 12.516 0.0592113 12.4229C0.0200892 12.3298 -1.94171e-05 12.2299 1.40691e-08 12.129V0.759056C-1.94171e-05 0.65812 0.0200892 0.558188 0.0592113 0.46512C0.0983334 0.372052 0.155682 0.287686 0.227841 0.217009C0.299999 0.146333 0.385577 0.0907652 0.479511 0.0535096C0.573446 0.016254 0.67388 -0.00192483 0.774931 5.43122e-05H12.3537C12.5258 0.0346051 12.6807 0.127597 12.7919 0.263243C12.9032 0.39889 12.964 0.568825 12.964 0.744159C12.964 0.919494 12.9032 1.08943 12.7919 1.22508C12.6807 1.36072 12.5258 1.45371 12.3537 1.48826H1.4902V12.0992C1.49022 12.2001 1.47011 12.3001 1.43098 12.3931C1.39186 12.4862 1.33451 12.5705 1.26236 12.6412C1.1902 12.7119 1.10462 12.7675 1.01068 12.8048C0.91675 12.842 0.816317 12.8601 0.715265 12.8582" fill="white"/>
<path d="M75.2242 77H63.6455C63.4733 76.9654 63.3185 76.8724 63.2072 76.7368C63.096 76.6011 63.0352 76.4312 63.0352 76.2559C63.0352 76.0805 63.096 75.9106 63.2072 75.775C63.3185 75.6393 63.4733 75.5463 63.6455 75.5118H74.509V64.9008C74.5089 64.7999 74.529 64.7 74.5682 64.6069C74.6073 64.5138 74.6646 64.4295 74.7368 64.3588C74.809 64.2881 74.8945 64.2325 74.9885 64.1953C75.0824 64.158 75.1828 64.1399 75.2839 64.1419C75.3849 64.1399 75.4854 64.158 75.5793 64.1953C75.6732 64.2325 75.7587 64.2881 75.8309 64.3588C75.903 64.4295 75.9604 64.5138 75.9995 64.6069C76.0386 64.7 76.0587 64.7999 76.0587 64.9008V76.2708C76.0587 76.3717 76.0386 76.4716 75.9995 76.5647C75.9604 76.6578 75.903 76.7421 75.8309 76.8128C75.7587 76.8835 75.6732 76.9391 75.5793 76.9763C75.4854 77.0136 75.3849 77.0318 75.2839 77.0298" fill="white"/>
<path d="M27.2414 20.3438V20.7903C27.2414 20.8873 27.2607 20.9834 27.2983 21.0728C27.3359 21.1623 27.3911 21.2434 27.4605 21.3113C27.5299 21.3792 27.6121 21.4326 27.7024 21.4683C27.7927 21.5041 27.8893 21.5215 27.9865 21.5195H50.6672C50.7644 21.5215 50.861 21.5041 50.9513 21.4683C51.0416 21.4326 51.1238 21.3792 51.1932 21.3113C51.2626 21.2434 51.3178 21.1623 51.3554 21.0728C51.393 20.9834 51.4123 20.8873 51.4123 20.7903V20.3438H27.2414ZM50.6225 23.3202H27.9865C27.3211 23.3242 26.6812 23.0651 26.2065 22.5994C25.7318 22.1338 25.461 21.4994 25.4531 20.8349V19.5104C25.4531 19.2736 25.5473 19.0465 25.715 18.879C25.8827 18.7116 26.1101 18.6175 26.3472 18.6175H52.2617C52.4989 18.6175 52.7263 18.7116 52.894 18.879C53.0616 19.0465 53.1558 19.2736 53.1558 19.5104V20.8349C53.148 21.4994 52.8771 22.1338 52.4024 22.5994C51.9278 23.0651 51.2878 23.3242 50.6225 23.3202Z" fill="white"/>
<path d="M29.6254 18.5877H48.998L47.0011 9.65848C46.9219 9.28258 46.757 8.92995 46.5192 8.62798C46.2814 8.32601 45.9772 8.08285 45.6301 7.9173C45.2808 7.75184 44.8991 7.66597 44.5125 7.66597C44.1259 7.66597 43.7441 7.75184 43.3948 7.9173C42.1229 8.52706 40.7301 8.84362 39.3192 8.84362C37.9083 8.84362 36.5154 8.52706 35.2435 7.9173C34.8942 7.75184 34.5125 7.66597 34.1259 7.66597C33.7393 7.66597 33.3575 7.75184 33.0082 7.9173C32.6635 8.08228 32.3609 8.32343 32.1233 8.62253C31.8858 8.92163 31.7195 9.2708 31.6372 9.64359L29.6254 18.5877ZM50.1007 20.3438H28.5078C28.3743 20.343 28.2425 20.3134 28.1216 20.2568C28.0007 20.2003 27.8935 20.1183 27.8074 20.0164C27.7268 19.9121 27.6703 19.7914 27.642 19.6627C27.6137 19.5341 27.6141 19.4007 27.6435 19.2723L29.8787 9.33108C30.0136 8.6888 30.2948 8.08619 30.7005 7.57C31.1063 7.05382 31.6256 6.63794 32.2184 6.35466C32.8079 6.06785 33.4552 5.91879 34.1109 5.91879C34.7667 5.91879 35.4139 6.06785 36.0034 6.35466C37.0351 6.84315 38.1625 7.09658 39.3043 7.09658C40.446 7.09658 41.5735 6.84315 42.6051 6.35466C43.1975 6.06869 43.847 5.92016 44.505 5.92016C45.1631 5.92016 45.8126 6.06869 46.4051 6.35466C46.995 6.63973 47.5115 7.05642 47.9145 7.5725C48.3176 8.08858 48.5965 8.69024 48.7298 9.33108L50.9651 19.2575C50.9944 19.3859 50.9949 19.5192 50.9665 19.6478C50.9382 19.7765 50.8818 19.8973 50.8012 20.0016C50.715 20.1034 50.6078 20.1854 50.4869 20.242C50.366 20.2985 50.2342 20.3282 50.1007 20.329" fill="white"/>
<path d="M31.4885 23.2756C31.4885 23.737 31.4885 24.2132 31.4885 24.7638C31.4885 30.7167 35.0351 35.4938 39.3865 35.4938C43.7378 35.4938 47.2696 30.672 47.2696 24.7638C47.2696 24.2876 47.2696 23.8262 47.2696 23.2756H31.4885ZM39.312 37.1755C33.9771 37.1755 29.6406 31.565 29.6406 24.6894C29.6403 23.8775 29.7001 23.0667 29.8194 22.2636C29.8517 22.0547 29.9584 21.8644 30.12 21.7277C30.2815 21.591 30.4869 21.5171 30.6986 21.5195H47.9104C48.1222 21.5171 48.3276 21.591 48.4891 21.7277C48.6506 21.8644 48.7573 22.0547 48.7896 22.2636C48.9133 23.0664 48.9781 23.8772 48.9833 24.6894C48.9833 31.565 44.632 37.1755 39.312 37.1755Z" fill="white"/>
<path d="M21.2213 59.6772C21.103 59.6795 20.9855 59.6582 20.8755 59.6148C20.7655 59.5714 20.6652 59.5066 20.5805 59.4242L14.6197 53.3821C14.1893 52.9497 13.8728 52.4176 13.6986 51.8333C13.5244 51.249 13.4978 50.6307 13.6213 50.0336C14.2323 47.0572 15.7523 39.7501 16.6017 35.8807C16.8111 34.9768 17.3219 34.1708 18.0502 33.5949C18.7786 33.0189 19.6813 32.7072 20.6103 32.7108H26.3923C26.6255 32.7108 26.8491 32.8033 27.014 32.968C27.1788 33.1327 27.2714 33.356 27.2714 33.5889C27.2714 33.8218 27.1788 34.0451 27.014 34.2097C26.8491 34.3744 26.6255 34.4669 26.3923 34.4669H20.6103C20.0863 34.4587 19.5756 34.6321 19.1652 34.9578C18.7549 35.2834 18.4704 35.7411 18.3601 36.2528C17.5107 40.1072 15.9758 47.4292 15.3797 50.3908C15.3133 50.7037 15.3262 51.0282 15.4173 51.3349C15.5084 51.6416 15.6747 51.9207 15.9012 52.1469L21.862 58.189C21.9449 58.2707 22.0107 58.368 22.0557 58.4753C22.1006 58.5826 22.1238 58.6977 22.1238 58.814C22.1238 58.9303 22.1006 59.0455 22.0557 59.1528C22.0107 59.2601 21.9449 59.3574 21.862 59.4391C21.6922 59.5965 21.4678 59.6818 21.2362 59.6772" fill="white"/>
<path d="M44.4965 45.5839C44.3329 45.5819 44.1731 45.5351 44.0344 45.4487C43.8956 45.3622 43.7831 45.2395 43.7094 45.0937C43.6356 44.9479 43.6033 44.7847 43.616 44.6218C43.6286 44.459 43.6858 44.3027 43.7812 44.1701C46.0612 41.1936 48.0432 38.2172 49.742 35.6129C50.9044 33.8716 51.9922 32.2197 53.0502 30.7613L53.989 29.4517L47.6855 28.8266C47.4508 28.804 47.2344 28.6896 47.0837 28.5084C46.933 28.3272 46.8601 28.0939 46.8809 27.8593C46.9142 27.6278 47.0343 27.4176 47.2168 27.2712C47.3994 27.1248 47.6308 27.0531 47.8644 27.0705L55.822 27.8593C55.9769 27.8742 56.1254 27.9285 56.2533 28.0171C56.3811 28.1057 56.4841 28.2256 56.5522 28.3653C56.6163 28.5065 56.6417 28.6621 56.626 28.8163C56.6103 28.9705 56.554 29.1179 56.4628 29.2433L54.5702 31.803C53.5271 33.2913 52.4392 34.8539 51.2918 36.5802C49.5334 39.2441 47.5217 42.2652 45.2119 45.2565C45.1256 45.363 45.0165 45.449 44.8928 45.5082C44.7691 45.5674 44.6337 45.5983 44.4965 45.5987" fill="white"/>
<path d="M34.0948 45.5839C33.9597 45.5834 33.8265 45.5523 33.7052 45.493C33.5839 45.4337 33.4776 45.3478 33.3943 45.2416C31.0696 42.2652 29.0728 39.2888 27.2995 36.5653C26.152 34.8539 25.0791 33.2168 24.0359 31.7882L22.1881 29.2433C22.1109 29.1099 22.0703 28.9584 22.0703 28.8043C22.0703 28.6502 22.1109 28.4988 22.1881 28.3653C22.2513 28.2249 22.3509 28.104 22.4767 28.015C22.6025 27.9261 22.7498 27.8723 22.9034 27.8593L30.8611 27.0706C31.0953 27.0494 31.3287 27.1198 31.5121 27.2668C31.6955 27.4139 31.8146 27.6263 31.8445 27.8593C31.8653 28.0939 31.7923 28.3273 31.6416 28.5084C31.4909 28.6896 31.2746 28.804 31.0399 28.8266L24.6171 29.4517L25.556 30.7613C26.6289 32.2495 27.7167 33.8717 28.8641 35.6129C30.6226 38.247 32.6045 41.2383 34.8249 44.1701C34.8958 44.2618 34.9477 44.3666 34.9778 44.4784C35.0079 44.5903 35.0156 44.7069 35.0004 44.8218C34.9851 44.9366 34.9473 45.0472 34.8891 45.1474C34.8308 45.2475 34.7533 45.3352 34.661 45.4053C34.5007 45.5214 34.3077 45.5839 34.1097 45.5839" fill="white"/>
<path d="M57.3877 59.6177C57.1563 59.6208 56.9325 59.5356 56.7619 59.3796C56.6789 59.2979 56.613 59.2006 56.5681 59.0933C56.5232 58.986 56.5001 58.8708 56.5001 58.7545C56.5001 58.6382 56.5232 58.5231 56.5681 58.4158C56.613 58.3085 56.6789 58.2112 56.7619 58.1295L62.7226 52.0874C62.9492 51.8612 63.1155 51.5821 63.2066 51.2754C63.2977 50.9688 63.3106 50.6442 63.2442 50.3313C62.4693 46.6108 61.0536 39.8245 60.2638 36.1933C60.1479 35.6817 59.8597 35.2253 59.4475 34.9003C59.0352 34.5753 58.5238 34.4013 57.9986 34.4074H52.4104C52.1772 34.4074 51.9536 34.3149 51.7887 34.1502C51.6239 33.9856 51.5312 33.7622 51.5312 33.5294C51.5312 33.2965 51.6239 33.0732 51.7887 32.9085C51.9536 32.7438 52.1772 32.6513 52.4104 32.6513H57.9986C58.927 32.6504 59.8284 32.9631 60.5562 33.5386C61.284 34.1141 61.7954 34.9186 62.0073 35.8212C62.812 39.4525 64.2277 46.2387 64.9877 49.9741C65.1046 50.5713 65.0748 51.1878 64.9009 51.771C64.727 52.3542 64.4142 52.8865 63.9893 53.3226L58.0285 59.3647C57.9437 59.4471 57.8434 59.5119 57.7334 59.5553C57.6234 59.5987 57.506 59.62 57.3877 59.6177Z" fill="white"/>
<path d="M22.1144 68.1452H56.4932V46.2982C56.4893 46.1074 56.4107 45.9257 56.2742 45.7922C56.1376 45.6586 55.9541 45.5839 55.763 45.5839H22.8446C22.6535 45.5839 22.47 45.6586 22.3334 45.7922C22.1969 45.9257 22.1183 46.1074 22.1144 46.2982V68.1452ZM57.3873 69.9012H21.2203C20.9857 69.9013 20.7605 69.8093 20.5932 69.645C20.426 69.4808 20.3301 69.2574 20.3262 69.0232V46.2982C20.334 45.6377 20.6033 45.0071 21.0752 44.5443C21.5471 44.0814 22.1832 43.8238 22.8446 43.8278H55.763C56.4244 43.8238 57.0605 44.0814 57.5324 44.5443C58.0043 45.0071 58.2736 45.6377 58.2814 46.2982V69.0083C58.2775 69.2425 58.1816 69.4659 58.0144 69.6301C57.8471 69.7944 57.6219 69.8864 57.3873 69.8863" fill="white"/>
<path d="M34.3933 40.7323C34.251 40.7317 34.1107 40.6978 33.9839 40.6332C33.857 40.5685 33.7472 40.4751 33.6632 40.3603L27.7024 32.0709C27.635 31.9768 27.5871 31.8701 27.5619 31.7571C27.5366 31.6442 27.5343 31.5273 27.5551 31.4135C27.576 31.2996 27.6196 31.1911 27.6833 31.0944C27.747 30.9977 27.8294 30.9148 27.9258 30.8506C28.1181 30.7163 28.3556 30.6629 28.587 30.7018C28.8184 30.7408 29.0252 30.8691 29.1627 31.0589L35.1235 39.3483C35.192 39.4427 35.2411 39.5498 35.2677 39.6633C35.2943 39.7769 35.298 39.8946 35.2786 40.0096C35.2592 40.1245 35.217 40.2345 35.1545 40.3331C35.0921 40.4316 35.0106 40.5167 34.9149 40.5835C34.7591 40.6825 34.578 40.7342 34.3933 40.7323Z" fill="white"/>
<path d="M19.9386 69.9012V71.4787C19.9386 71.7126 19.985 71.944 20.0751 72.1599C20.1651 72.3757 20.297 72.5716 20.4633 72.7363C20.6295 72.9009 20.8268 73.0311 21.0436 73.1192C21.2605 73.2073 21.4928 73.2517 21.7269 73.2497H56.8955C57.1296 73.2517 57.3619 73.2073 57.5787 73.1192C57.7956 73.0311 57.9929 72.9009 58.1591 72.7363C58.3254 72.5716 58.4573 72.3757 58.5473 72.1599C58.6374 71.944 58.6838 71.7126 58.6837 71.4787V69.9012H19.9386ZM56.8955 75.0058H21.7269C21.2599 75.0097 20.7967 74.9215 20.3639 74.7462C19.9312 74.5709 19.5373 74.3119 19.205 73.9842C18.8727 73.6565 18.6085 73.2665 18.4275 72.8365C18.2466 72.4065 18.1523 71.9451 18.1504 71.4787V69.0083C18.1504 68.8917 18.1736 68.7763 18.2187 68.6688C18.2638 68.5613 18.3299 68.4638 18.4132 68.3821C18.4964 68.3004 18.5951 68.236 18.7035 68.1927C18.8119 68.1495 18.9279 68.1283 19.0446 68.1303H59.6077C59.7244 68.1283 59.8403 68.1495 59.9487 68.1927C60.0571 68.236 60.1557 68.3004 60.239 68.3821C60.3222 68.4638 60.3883 68.5613 60.4334 68.6688C60.4785 68.7763 60.5018 68.8917 60.5017 69.0083V71.4638C60.4939 72.4046 60.1131 73.3039 59.4428 73.9649C58.7726 74.626 57.8673 74.9948 56.9253 74.9909" fill="white"/>
<path d="M39.3116 52.8612C38.4124 52.8729 37.5366 53.15 36.7946 53.6574C36.0526 54.1649 35.4775 54.8802 35.1414 55.7133C34.8054 56.5463 34.7236 57.46 34.9062 58.3395C35.0889 59.2189 35.5277 60.0247 36.1678 60.6557C36.8078 61.2866 37.6204 61.7145 38.5033 61.8854C39.3862 62.0564 40.2999 61.9628 41.1297 61.6164C41.9595 61.2701 42.6681 60.6864 43.1666 59.9389C43.6651 59.1913 43.9311 58.3132 43.9312 57.4151C43.9273 56.8132 43.8047 56.2179 43.5705 55.6632C43.3362 55.1086 42.9948 54.6055 42.5659 54.1827C42.1369 53.7598 41.6287 53.4254 41.0703 53.1987C40.5119 52.9719 39.9144 52.8573 39.3116 52.8612ZM39.3116 63.74C38.0623 63.7253 36.8452 63.342 35.8135 62.6381C34.7818 61.9342 33.9817 60.9414 33.5137 59.7844C33.0458 58.6275 32.9309 57.3582 33.1836 56.1362C33.4364 54.9142 34.0454 53.7942 34.9341 52.9171C35.8227 52.04 36.9512 51.4449 38.1777 51.2068C39.4041 50.9688 40.6737 51.0983 41.8267 51.5791C42.9796 52.0599 43.9644 52.8706 44.6571 53.909C45.3498 54.9475 45.7193 56.1673 45.7194 57.4151C45.7037 59.1006 45.0212 60.7115 43.8208 61.8964C42.6203 63.0813 40.9994 63.744 39.3116 63.74Z" fill="white"/>
</g>
</g>
<defs>
<clipPath id="clip0_21_6052">
<rect width="76" height="77" fill="white"/>
</clipPath>
</defs>
</svg>
