<svg width="80" height="80" viewBox="0 0 80 80" fill="none" xmlns="http://www.w3.org/2000/svg">
<g clip-path="url(#clip0_21_5215)">
<mask id="mask0_21_5215" style="mask-type:luminance" maskUnits="userSpaceOnUse" x="5" y="28" width="73" height="24">
<path d="M77.5261 28H5V51.5302H77.5261V28Z" fill="white"/>
</mask>
<g mask="url(#mask0_21_5215)">
<path d="M30.1429 37.3547C30.5247 36.8901 31.0069 36.5181 31.5532 36.2667C32.0995 36.0153 32.6957 35.891 33.297 35.9031C35.7223 35.9031 36.9529 37.286 36.9887 40.0518V47.48H34.4349V40.1504C34.466 39.8525 34.4368 39.5514 34.3491 39.2651C34.2613 38.9788 34.1169 38.713 33.9242 38.4837C33.5089 38.1303 32.9718 37.9535 32.4278 37.9909C31.9552 37.9741 31.4878 38.0947 31.0823 38.338C30.6768 38.5813 30.3505 38.9369 30.1429 39.3619V47.48H27.625V31.3512H30.1787L30.1429 37.3547Z" fill="#3F3F3F"/>
<path d="M42.7567 33.3494V36.1182H44.7638V38.0089H42.7567V44.3439C42.7266 44.6786 42.8189 45.0129 43.0165 45.2848C43.1373 45.3934 43.2793 45.4757 43.4335 45.5266C43.5878 45.5775 43.7509 45.5959 43.9126 45.5805C44.2145 45.5803 44.5152 45.5442 44.8086 45.4729V47.4442C44.2636 47.6002 43.6999 47.6816 43.133 47.6862C41.1677 47.6862 40.188 46.605 40.194 44.4425V38.0089H38.375V36.1182H40.2478V33.3494H42.7567Z" fill="#3F3F3F"/>
<path d="M49.912 33.3494V36.1182H51.9191V38.0089H49.912V44.3439C49.8819 44.6786 49.9742 45.0129 50.1718 45.2848C50.2926 45.3934 50.4346 45.4757 50.5889 45.5266C50.7431 45.5775 50.9062 45.5959 51.0679 45.5805C51.3698 45.5803 51.6706 45.5442 51.9639 45.4729V47.4442C51.4189 47.6002 50.8552 47.6816 50.2883 47.6862C48.329 47.6862 47.3493 46.605 47.3493 44.4425V38.0089H45.4766V36.1182H47.3404V33.3494H49.912Z" fill="#3F3F3F"/>
<path d="M63.8144 41.9156C63.8902 43.4107 63.4679 44.8887 62.6137 46.1181C62.2474 46.6211 61.7636 47.027 61.2045 47.3003C60.6453 47.5736 60.0279 47.7061 59.4059 47.6861C58.8479 47.7101 58.2914 47.6127 57.7748 47.4008C57.2581 47.1889 56.7935 46.8674 56.4131 46.4586V51.8348H53.8594V36.1182H56.2159L56.3145 37.2741C56.683 36.8247 57.1508 36.4669 57.681 36.229C58.2112 35.9911 58.7894 35.8796 59.37 35.9031C59.9986 35.8777 60.624 36.0055 61.1922 36.2756C61.7604 36.5456 62.2544 36.9498 62.6317 37.4533C63.4888 38.7176 63.9046 40.2295 63.8144 41.7543V41.9156ZM61.2696 41.6916C61.3178 40.7487 61.0839 39.8128 60.5976 39.0034C60.3897 38.6827 60.102 38.4216 59.7627 38.2456C59.4233 38.0697 59.0441 37.985 58.6622 37.9999C58.2008 37.9699 57.741 38.0773 57.3407 38.3086C56.9404 38.5398 56.6176 38.8845 56.4131 39.2991V44.3349C56.6186 44.7545 56.9433 45.1041 57.3465 45.34C57.7498 45.5758 58.2136 45.6875 58.6801 45.6611C59.0557 45.6723 59.428 45.5878 59.7619 45.4153C60.0959 45.2429 60.3804 44.9882 60.5886 44.6754C61.1079 43.7709 61.3451 42.7318 61.2696 41.6916Z" fill="#3F3F3F"/>
<path d="M72.346 44.3887C72.3542 44.1807 72.3062 43.9743 72.2068 43.7913C72.1075 43.6084 71.9605 43.4556 71.7815 43.3493C71.1987 43.0399 70.5691 42.828 69.9178 42.722C69.1666 42.5768 68.4356 42.3422 67.7404 42.0231C67.1858 41.8236 66.7055 41.4591 66.3643 40.9785C66.0231 40.4979 65.8373 39.9243 65.8318 39.335C65.8297 38.8604 65.9388 38.3919 66.1505 37.9671C66.3621 37.5423 66.6703 37.173 67.0504 36.8888C67.957 36.207 69.071 35.8589 70.2045 35.9031C71.385 35.8486 72.5476 36.2066 73.493 36.9156C73.8939 37.2196 74.2167 37.6146 74.4348 38.068C74.653 38.5214 74.7601 39.0202 74.7475 39.5231H72.1937C72.1984 39.2931 72.1527 39.0648 72.0599 38.8543C71.967 38.6438 71.8292 38.4561 71.6561 38.3045C71.2505 37.9652 70.7328 37.7895 70.2045 37.8117C69.7168 37.7902 69.2353 37.9286 68.8335 38.2059C68.6649 38.3206 68.5281 38.476 68.4357 38.6577C68.3433 38.8395 68.2983 39.0416 68.3049 39.2454C68.301 39.4249 68.3445 39.6022 68.431 39.7595C68.5176 39.9168 68.644 40.0485 68.7977 40.1414C69.4237 40.4591 70.0945 40.6797 70.7869 40.7955C71.6061 40.9552 72.4013 41.2202 73.1525 41.5841C73.6577 41.8382 74.0918 42.2138 74.4159 42.6772C74.7056 43.1446 74.852 43.6867 74.837 44.2364C74.844 44.7226 74.7316 45.203 74.5098 45.6357C74.288 46.0684 73.9635 46.4402 73.5647 46.7184C72.5874 47.3912 71.4164 47.7249 70.2313 47.6682C69.3774 47.6824 68.5307 47.5112 67.7493 47.1664C67.0649 46.8688 66.4758 46.3882 66.0468 45.7776C65.6487 45.2244 65.4354 44.5595 65.4375 43.8779H67.9464C67.9501 44.1463 68.014 44.4105 68.1334 44.6509C68.2528 44.8913 68.4247 45.1017 68.6364 45.2668C69.1183 45.6188 69.7072 45.793 70.303 45.7596C70.8417 45.797 71.3784 45.6621 71.8353 45.3743C71.9935 45.2633 72.1225 45.1157 72.2114 44.9441C72.3003 44.7725 72.3465 44.582 72.346 44.3887Z" fill="#3F3F3F"/>
<path d="M6.55014 37.3547V48.1611H21.5858V37.3547H6.55014ZM21.5858 49.7112H6.55014C6.13974 49.7089 5.74681 49.5448 5.45661 49.2546C5.16641 48.9644 5.00235 48.5715 5 48.1611V37.3547C5.00235 36.9443 5.16641 36.5514 5.45661 36.2612C5.74681 35.971 6.13974 35.8069 6.55014 35.8046H21.5858C21.7894 35.8046 21.991 35.8447 22.1791 35.9226C22.3671 36.0005 22.538 36.1147 22.6819 36.2586C22.8259 36.4026 22.9401 36.5734 23.018 36.7615C23.0959 36.9496 23.136 37.1512 23.136 37.3547V48.1611C23.136 48.3646 23.0959 48.5662 23.018 48.7543C22.9401 48.9424 22.8259 49.1133 22.6819 49.2572C22.538 49.4011 22.3671 49.5153 22.1791 49.5932C21.991 49.6711 21.7894 49.7112 21.5858 49.7112Z" fill="#D40054"/>
<path d="M8.44082 35.8046H19.6952V31.1003C19.6952 30.6892 19.5318 30.2949 19.2411 30.0042C18.9504 29.7135 18.5561 29.5501 18.145 29.5501H9.99097C9.58057 29.5525 9.18764 29.7166 8.89743 30.0068C8.60723 30.297 8.44318 30.6899 8.44082 31.1003V35.8046ZM20.4568 37.3547H7.67018C7.56823 37.3559 7.46709 37.3368 7.37256 37.2986C7.27803 37.2605 7.19201 37.2039 7.1195 37.1322C7.047 37.0606 6.98941 36.9752 6.95013 36.8811C6.91084 36.787 6.89062 36.6861 6.89063 36.5841V31.1003C6.89299 30.2788 7.22042 29.4916 7.80133 28.9107C8.38224 28.3298 9.16944 28.0024 9.99097 28H18.145C18.9672 28 19.7558 28.3266 20.3372 28.9081C20.9187 29.4895 21.2453 30.2781 21.2453 31.1003V36.5841C21.2465 36.6856 21.2274 36.7864 21.1891 36.8804C21.1508 36.9745 21.0941 37.0599 21.0223 37.1317C20.9505 37.2035 20.8651 37.2602 20.771 37.2985C20.677 37.3368 20.5763 37.3559 20.4747 37.3547" fill="#D40054"/>
<path d="M12.2393 40.2131L13.0099 43.1522C13.0577 43.316 13.0577 43.4901 13.0099 43.654C12.9455 43.7977 12.912 43.9534 12.9113 44.1109C12.9113 44.2674 12.9421 44.4224 13.002 44.567C13.0619 44.7116 13.1497 44.843 13.2604 44.9536C13.371 45.0643 13.5024 45.1521 13.647 45.2119C13.7916 45.2718 13.9465 45.3027 14.1031 45.3027C14.2596 45.3027 14.4145 45.2718 14.5591 45.2119C14.7037 45.1521 14.8351 45.0643 14.9458 44.9536C15.0564 44.843 15.1442 44.7116 15.2041 44.567C15.264 44.4224 15.2948 44.2674 15.2948 44.1109C15.2973 43.954 15.2668 43.7983 15.2052 43.654C15.1519 43.4909 15.1519 43.3152 15.2052 43.1522L15.9758 40.2131H12.2393ZM14.0314 46.8528C13.3049 46.8505 12.6089 46.5608 12.0952 46.0472C11.5815 45.5335 11.2919 44.8374 11.2895 44.1109C11.2924 43.8411 11.3316 43.5729 11.406 43.3135L10.4472 39.6397C10.4171 39.5245 10.4138 39.4039 10.4375 39.2873C10.4612 39.1706 10.5113 39.0609 10.5839 38.9667C10.6566 38.8724 10.7499 38.796 10.8567 38.7433C10.9635 38.6907 11.0808 38.6632 11.1999 38.663H16.8719C16.9911 38.6643 17.1086 38.6923 17.2156 38.7451C17.3226 38.7978 17.4164 38.8738 17.4901 38.9676C17.5623 39.062 17.6119 39.1716 17.6352 39.2881C17.6585 39.4045 17.6548 39.5248 17.6246 39.6397L16.6926 43.3403C16.7713 43.5988 16.8106 43.8677 16.8091 44.1378C16.8091 44.865 16.5203 45.5624 16.0061 46.0766C15.4919 46.5908 14.7944 46.8797 14.0672 46.8797" fill="#D40054"/>
</g>
</g>
<defs>
<clipPath id="clip0_21_5215">
<rect width="69.8469" height="23.8438" fill="white" transform="translate(5 28)"/>
</clipPath>
</defs>
</svg>
