<svg width="100" height="100" viewBox="0 0 100 100" fill="none" xmlns="http://www.w3.org/2000/svg">
<g clip-path="url(#clip0_2_1436)">
<path d="M12.1738 47.4252L23.5878 39.2719L22.8824 55.634L12.1738 47.4252Z" fill="#3F3F3F"/>
<path d="M12.1738 47.4252L23.5878 39.2719L22.8824 55.634L12.1738 47.4252Z" stroke="white" stroke-width="0.25" stroke-miterlimit="10"/>
<path d="M52.8926 56.1488H88.5172L89.6035 73.0814L81.5474 85.1025L71.248 88.4556L57.3792 83.906L52.8926 71.37V56.1488Z" fill="#D40054"/>
<path d="M52.8926 56.1488H88.5171L89.6035 73.0814L81.5474 85.1025L71.248 88.4556L57.3792 83.906L52.8926 71.37V56.1488Z" stroke="white" stroke-width="0.25" stroke-miterlimit="10"/>
<mask id="mask0_2_1436" style="mask-type:luminance" maskUnits="userSpaceOnUse" x="9" y="11" width="83" height="79">
<path d="M91.0141 11H9V90H91.0141V11Z" fill="white"/>
</mask>
<g mask="url(#mask0_2_1436)">
<path d="M74.8025 68.0447C74.825 68.8229 74.6113 69.59 74.189 70.2478C73.7666 70.9055 73.1547 71.4239 72.4317 71.7365C71.7087 72.0492 70.9075 72.1419 70.1308 72.0027C69.3541 71.8635 68.6372 71.4988 68.0719 70.9553C67.5067 70.4118 67.1188 69.7143 66.9581 68.9521C66.7973 68.1899 66.871 67.3977 67.1696 66.677C67.4683 65.9564 67.9783 65.34 68.6343 64.907C69.2904 64.4739 70.0626 64.2439 70.8521 64.2463C71.3646 64.239 71.8736 64.3315 72.3498 64.5186C72.8261 64.7057 73.2601 64.9837 73.6272 65.3366C73.9942 65.6895 74.2869 66.1103 74.4886 66.5751C74.6903 67.0398 74.797 67.5392 74.8025 68.0447Z" fill="#D40054"/>
<path d="M70.8103 71.857C72.9998 71.857 74.7748 70.1502 74.7748 68.0447C74.7748 65.9393 72.9998 64.2325 70.8103 64.2325C68.6207 64.2325 66.8457 65.9393 66.8457 68.0447C66.8457 70.1502 68.6207 71.857 70.8103 71.857Z" stroke="white" stroke-width="0.25" stroke-miterlimit="10"/>
<path d="M21.3594 42.3607C21.1646 42.3561 20.9745 42.4202 20.8233 42.5416L14.813 47.1747C14.7096 47.2532 14.6264 47.3545 14.57 47.4705C14.5137 47.5865 14.4857 47.714 14.4885 47.8426C14.4944 47.9736 14.532 48.1014 14.5983 48.2152C14.6646 48.329 14.7576 48.4254 14.8695 48.4965L20.8798 52.3644C21.0241 52.4524 21.1898 52.5004 21.3594 52.5035C21.4987 52.5008 21.6348 52.4624 21.7545 52.3922C21.8906 52.3249 22.0048 52.2216 22.0846 52.0938C22.1644 51.966 22.2063 51.8188 22.2059 51.6687V43.1816C22.2083 43.0258 22.1641 42.8727 22.0787 42.7416C21.9934 42.6105 21.8709 42.507 21.7263 42.4442C21.6123 42.3886 21.4866 42.36 21.3594 42.3607ZM15.9276 89.833C14.1601 89.8516 12.4573 89.1779 11.193 87.9597C9.92859 86.7416 9.20592 85.0785 9.18359 83.3355V48.0652V47.8564C9.19487 47.743 9.2185 47.631 9.25412 47.5225C9.25412 47.3973 9.33881 47.2999 9.38114 47.2025L9.45166 47.0773L9.56456 46.966C9.66851 46.8907 9.78243 46.8299 9.90315 46.7851C9.94695 46.7604 9.98534 46.7272 10.016 46.6877L10.0866 46.6043L21.952 37.4632C22.0497 37.3869 22.1285 37.2895 22.1823 37.1786C22.2361 37.0677 22.2635 36.9461 22.2624 36.8232V15.9531C22.281 14.7009 22.8023 13.5071 23.7121 12.6333C24.6219 11.7596 25.846 11.2773 27.1158 11.2922H73.0398C73.6679 11.2848 74.2913 11.3995 74.8744 11.6298C75.4575 11.8601 75.989 12.2014 76.4384 12.6342C76.8878 13.067 77.2463 13.5829 77.4934 14.1524C77.7406 14.7218 77.8717 15.3337 77.8791 15.9531V33.0527C77.8791 33.5102 77.6948 33.949 77.3667 34.2726C77.0386 34.5961 76.5936 34.7779 76.1296 34.7779C75.6656 34.7779 75.2206 34.5961 74.8925 34.2726C74.5644 33.949 74.3801 33.5102 74.3801 33.0527V15.8419C74.3563 15.5017 74.2066 15.182 73.9595 14.9434C73.7125 14.7049 73.3852 14.5641 73.0398 14.5479H27.0593C26.714 14.5641 26.3867 14.7049 26.1396 14.9434C25.8925 15.182 25.7429 15.5017 25.7191 15.8419V55.0219C25.7191 55.158 25.7541 55.2918 25.8207 55.411C25.8873 55.5302 25.9833 55.6309 26.1 55.7036L43.1716 66.6673C43.3601 66.7884 43.5226 66.945 43.6495 67.1282C43.7765 67.3114 43.8655 67.5175 43.9114 67.7348C43.9573 67.952 43.9591 68.176 43.9169 68.394C43.8747 68.6119 43.7892 68.8195 43.6654 69.0048C43.5071 69.231 43.2968 69.4171 43.0515 69.5477C42.8063 69.6783 42.5331 69.7497 42.2545 69.7561C41.9101 69.7539 41.5732 69.6575 41.281 69.4778L14.0652 52.0026C13.9279 51.9108 13.7655 51.8623 13.5996 51.8635C13.457 51.8609 13.3162 51.8944 13.1905 51.9609C13.0545 52.0282 12.9401 52.1315 12.8604 52.2593C12.7806 52.3871 12.7386 52.5343 12.739 52.6844V83.2938C12.7502 84.1327 13.0979 84.9331 13.7061 85.5198C14.3142 86.1065 15.1333 86.4317 15.984 86.4243H47.4747C47.9275 86.4243 48.3617 86.6016 48.6819 86.9173C49.002 87.2331 49.1819 87.6613 49.1819 88.1078C49.1819 88.5543 49.002 88.9825 48.6819 89.2982C48.3617 89.6139 47.9275 89.7913 47.4747 89.7913L15.9276 89.833Z" fill="#3F3F3F"/>
<path d="M21.3594 42.3607C21.1646 42.3561 20.9745 42.4202 20.8233 42.5416L14.813 47.1747C14.7096 47.2532 14.6264 47.3545 14.57 47.4705C14.5137 47.5865 14.4857 47.714 14.4885 47.8426C14.4944 47.9736 14.532 48.1014 14.5983 48.2152C14.6646 48.329 14.7576 48.4254 14.8695 48.4965L20.8798 52.3644C21.0241 52.4524 21.1898 52.5004 21.3594 52.5035C21.4987 52.5008 21.6348 52.4624 21.7545 52.3922C21.8906 52.3249 22.0048 52.2216 22.0846 52.0938C22.1644 51.966 22.2063 51.8188 22.2059 51.6687V43.1816C22.2083 43.0258 22.1641 42.8727 22.0787 42.7416C21.9934 42.6105 21.8709 42.507 21.7263 42.4442C21.6123 42.3886 21.4866 42.36 21.3594 42.3607ZM15.9276 89.833C14.1601 89.8516 12.4573 89.1779 11.193 87.9597C9.92859 86.7416 9.20592 85.0785 9.18359 83.3355V48.0652V47.8564C9.19487 47.743 9.2185 47.631 9.25412 47.5225C9.25412 47.3973 9.33881 47.2999 9.38114 47.2025L9.45166 47.0773L9.56456 46.966C9.66851 46.8907 9.78243 46.8299 9.90315 46.7851C9.94695 46.7604 9.98534 46.7272 10.016 46.6877L10.0866 46.6043L21.952 37.4632C22.0497 37.3869 22.1285 37.2895 22.1823 37.1786C22.2361 37.0677 22.2635 36.9461 22.2624 36.8232V15.9531C22.281 14.7009 22.8023 13.5071 23.7121 12.6333C24.6219 11.7596 25.846 11.2773 27.1158 11.2922H73.0398C73.6679 11.2848 74.2913 11.3995 74.8744 11.6298C75.4575 11.8601 75.989 12.2014 76.4384 12.6342C76.8878 13.067 77.2463 13.5829 77.4934 14.1524C77.7406 14.7218 77.8717 15.3337 77.8791 15.9531V33.0527C77.8791 33.5102 77.6948 33.949 77.3667 34.2726C77.0386 34.5961 76.5936 34.7779 76.1296 34.7779C75.6656 34.7779 75.2206 34.5961 74.8925 34.2726C74.5644 33.949 74.3801 33.5102 74.3801 33.0527V15.8419C74.3563 15.5017 74.2066 15.182 73.9595 14.9434C73.7125 14.7049 73.3852 14.5641 73.0398 14.5479H27.0593C26.714 14.5641 26.3867 14.7049 26.1396 14.9434C25.8925 15.182 25.7429 15.5017 25.7191 15.8419V55.0219C25.7191 55.1579 25.7541 55.2918 25.8207 55.411C25.8873 55.5302 25.9833 55.6309 26.1 55.7036L43.1716 66.6673C43.3601 66.7884 43.5226 66.945 43.6495 67.1282C43.7765 67.3114 43.8655 67.5175 43.9114 67.7348C43.9573 67.952 43.9591 68.176 43.9169 68.394C43.8747 68.6119 43.7892 68.8195 43.6654 69.0048C43.5071 69.231 43.2968 69.4171 43.0515 69.5477C42.8063 69.6783 42.5331 69.7497 42.2545 69.7561C41.9101 69.7539 41.5732 69.6575 41.281 69.4778L14.0652 52.0026C13.9279 51.9108 13.7655 51.8623 13.5996 51.8635C13.457 51.8609 13.3162 51.8944 13.1905 51.9609C13.0545 52.0282 12.9401 52.1315 12.8604 52.2593C12.7806 52.3871 12.7386 52.5343 12.739 52.6844V83.2938C12.7502 84.1327 13.0979 84.9331 13.7061 85.5198C14.3142 86.1065 15.1333 86.4317 15.984 86.4243H47.4747C47.9275 86.4243 48.3617 86.6016 48.6819 86.9173C49.002 87.2331 49.1819 87.6613 49.1819 88.1078C49.1819 88.5543 49.002 88.9825 48.6819 89.2982C48.3617 89.6139 47.9275 89.7913 47.4747 89.7913L15.9276 89.833Z" stroke="white" stroke-width="0.25" stroke-miterlimit="10"/>
<path d="M44.7655 24.6768C44.2978 24.6768 43.8492 24.4936 43.5185 24.1674C43.1877 23.8413 43.002 23.3989 43.002 22.9376C43.002 22.4764 43.1877 22.034 43.5185 21.7079C43.8492 21.3817 44.2978 21.1985 44.7655 21.1985H55.2483C55.7161 21.1985 56.1646 21.3817 56.4953 21.7079C56.8261 22.034 57.0119 22.4764 57.0119 22.9376C57.0119 23.3989 56.8261 23.8413 56.4953 24.1674C56.1646 24.4936 55.7161 24.6768 55.2483 24.6768H44.7655Z" fill="#3F3F3F"/>
<path d="M44.7655 24.6768C44.2978 24.6768 43.8492 24.4936 43.5185 24.1674C43.1877 23.8413 43.002 23.3989 43.002 22.9376C43.002 22.4764 43.1877 22.034 43.5185 21.7079C43.8492 21.3817 44.2978 21.1985 44.7655 21.1985H55.2483C55.7161 21.1985 56.1646 21.3817 56.4953 21.7079C56.8261 22.034 57.0119 22.4764 57.0119 22.9376C57.0119 23.3989 56.8261 23.8413 56.4953 24.1674C56.1646 24.4936 55.7161 24.6768 55.2483 24.6768H44.7655Z" stroke="white" stroke-width="0.25" stroke-miterlimit="10"/>
<path d="M36.9498 34.6944C36.5111 34.6556 36.103 34.4563 35.8058 34.1358C35.5086 33.8152 35.3438 33.3966 35.3438 32.9622C35.3438 32.5279 35.5086 32.1092 35.8058 31.7887C36.103 31.4681 36.5111 31.2688 36.9498 31.23H63.0651C63.5037 31.2688 63.9119 31.4681 64.2091 31.7887C64.5063 32.1092 64.6711 32.5279 64.6711 32.9622C64.6711 33.3966 64.5063 33.8152 64.2091 34.1358C63.9119 34.4563 63.5037 34.6556 63.0651 34.6944H36.9498Z" fill="#3F3F3F"/>
<path d="M36.9498 34.6944C36.5111 34.6556 36.103 34.4563 35.8058 34.1358C35.5086 33.8152 35.3438 33.3966 35.3438 32.9622C35.3438 32.5279 35.5086 32.1092 35.8058 31.7887C36.103 31.4681 36.5111 31.2688 36.9498 31.23H63.065C63.5037 31.2688 63.9119 31.4681 64.2091 31.7887C64.5063 32.1092 64.6711 32.5279 64.6711 32.9622C64.6711 33.3966 64.5063 33.8152 64.2091 34.1358C63.9119 34.4563 63.5037 34.6556 63.065 34.6944H36.9498Z" stroke="white" stroke-width="0.25" stroke-miterlimit="10"/>
<path d="M36.9628 44.7259C36.4951 44.7259 36.0465 44.5427 35.7158 44.2165C35.3851 43.8904 35.1992 43.448 35.1992 42.9868C35.1992 42.5255 35.3851 42.0832 35.7158 41.757C36.0465 41.4308 36.4951 41.2476 36.9628 41.2476H52.6517C53.1195 41.2476 53.5681 41.4308 53.8988 41.757C54.2295 42.0832 54.4153 42.5255 54.4153 42.9868C54.4153 43.448 54.2295 43.8904 53.8988 44.2165C53.5681 44.5427 53.1195 44.7259 52.6517 44.7259H36.9628Z" fill="#3F3F3F"/>
<path d="M36.9628 44.7259C36.4951 44.7259 36.0465 44.5427 35.7158 44.2165C35.3851 43.8904 35.1992 43.448 35.1992 42.9868C35.1992 42.5255 35.3851 42.0832 35.7158 41.757C36.0465 41.4308 36.4951 41.2476 36.9628 41.2476H52.6517C53.1195 41.2476 53.5681 41.4308 53.8988 41.757C54.2295 42.0832 54.4153 42.5255 54.4153 42.9868C54.4153 43.448 54.2295 43.8904 53.8988 44.2165C53.5681 44.5427 53.1195 44.7259 52.6517 44.7259H36.9628Z" stroke="white" stroke-width="0.25" stroke-miterlimit="10"/>
<path d="M36.9641 54.7436C36.7202 54.7651 36.4745 54.7364 36.2424 54.6592C36.0104 54.5819 35.7973 54.4578 35.6166 54.2949C35.4358 54.1319 35.2915 53.9337 35.1927 53.7127C35.094 53.4917 35.043 53.2529 35.043 53.0114C35.043 52.7699 35.094 52.531 35.1927 52.31C35.2915 52.0891 35.4358 51.8907 35.6166 51.7278C35.7973 51.5648 36.0104 51.4408 36.2424 51.3636C36.4745 51.2863 36.7202 51.2576 36.9641 51.2792H42.2408C42.4847 51.2576 42.7305 51.2863 42.9625 51.3636C43.1945 51.4408 43.4077 51.5648 43.5885 51.7278C43.7692 51.8907 43.9135 52.0891 44.0122 52.31C44.111 52.531 44.162 52.7699 44.162 53.0114C44.162 53.2529 44.111 53.4917 44.0122 53.7127C43.9135 53.9337 43.7692 54.1319 43.5885 54.2949C43.4077 54.4578 43.1945 54.5819 42.9625 54.6592C42.7305 54.7364 42.4847 54.7651 42.2408 54.7436H36.9641Z" fill="#3F3F3F"/>
<path d="M36.9641 54.7436C36.7202 54.7651 36.4745 54.7364 36.2424 54.6592C36.0104 54.5819 35.7973 54.4578 35.6166 54.2949C35.4358 54.1319 35.2915 53.9337 35.1927 53.7127C35.094 53.4917 35.043 53.2529 35.043 53.0114C35.043 52.7699 35.094 52.531 35.1927 52.31C35.2915 52.0891 35.4358 51.8907 35.6166 51.7278C35.7973 51.5648 36.0104 51.4408 36.2424 51.3636C36.4745 51.2863 36.7202 51.2576 36.9641 51.2792H42.2408C42.4847 51.2576 42.7305 51.2863 42.9625 51.3636C43.1945 51.4408 43.4077 51.5648 43.5885 51.7278C43.7692 51.8907 43.9135 52.0891 44.0122 52.31C44.111 52.531 44.162 52.7699 44.162 53.0114C44.162 53.2529 44.111 53.4917 44.0122 53.7127C43.9135 53.9337 43.7692 54.1319 43.5885 54.2949C43.4077 54.4578 43.1945 54.5819 42.9625 54.6592C42.7305 54.7364 42.4847 54.7651 42.2408 54.7436H36.9641Z" stroke="white" stroke-width="0.25" stroke-miterlimit="10"/>
<path d="M70.8245 44.6286C68.5505 44.6026 66.3588 45.4666 64.7297 47.0314C63.1006 48.5963 62.1671 50.7342 62.1336 52.9766C62.1354 53.0862 62.1591 53.1944 62.2033 53.295C62.2476 53.3956 62.3115 53.4866 62.3914 53.5628C62.4713 53.6391 62.5657 53.699 62.6691 53.7393C62.7726 53.7795 62.883 53.7993 62.9942 53.7975H78.6549C78.7654 53.7993 78.8752 53.7794 78.9778 53.739C79.0804 53.6986 79.1739 53.6384 79.2527 53.562C79.3315 53.4856 79.3941 53.3945 79.4368 53.294C79.4795 53.1935 79.5015 53.0856 79.5015 52.9766C79.4717 50.7354 78.5412 48.5975 76.9144 47.0323C75.2875 45.4671 73.0972 44.6026 70.8245 44.6286ZM55.1639 57.1506C54.9394 57.1506 54.7241 57.2385 54.5653 57.3951C54.4066 57.5516 54.3173 57.764 54.3173 57.9854V70.5074C54.3173 74.8247 56.0565 78.9653 59.1522 82.0181C62.2479 85.0709 66.4466 86.786 70.8245 86.786C75.2025 86.786 79.4012 85.0709 82.4969 82.0181C85.5926 78.9653 87.3318 74.8247 87.3318 70.5074V57.9854C87.3318 57.8746 87.3094 57.7649 87.266 57.6627C87.2226 57.5605 87.159 57.4678 87.0789 57.3901C86.9988 57.3124 86.9038 57.2512 86.7994 57.2101C86.6951 57.169 86.5835 57.1487 86.4712 57.1506H55.1639ZM70.8245 89.8052C68.2294 89.8383 65.6531 89.3667 63.2429 88.4174C60.8327 87.4681 58.6358 86.0597 56.7778 84.2727C54.9198 82.4856 53.4372 80.3551 52.4146 78.0027C51.3921 75.6503 50.8497 73.1223 50.8184 70.563V55.4949C50.8258 55.0434 51.0138 54.6132 51.3415 54.2978C51.6692 53.9825 52.11 53.8076 52.5678 53.8114H57.7881C57.8993 53.8132 58.0097 53.7934 58.1132 53.7532C58.2166 53.7129 58.3109 53.653 58.3908 53.5767C58.4707 53.5005 58.5347 53.4095 58.5789 53.3089C58.6232 53.2083 58.6469 53.1001 58.6487 52.9905C58.6487 49.8023 59.933 46.7446 62.2191 44.4902C64.5052 42.2358 67.6057 40.9694 70.8387 40.9694C74.0716 40.9694 77.1722 42.2358 79.4582 44.4902C81.7443 46.7446 83.0286 49.8023 83.0286 52.9905C83.0286 53.0995 83.0506 53.2073 83.0933 53.3079C83.136 53.4084 83.1986 53.4995 83.2774 53.5759C83.3562 53.6523 83.4497 53.7125 83.5523 53.7529C83.6549 53.7934 83.7646 53.8132 83.8751 53.8114H89.0954C89.3226 53.8077 89.5483 53.8484 89.7595 53.9312C89.9707 54.014 90.1631 54.1372 90.3258 54.2937C90.4884 54.4502 90.6181 54.6369 90.7072 54.8431C90.7962 55.0493 90.843 55.2708 90.8449 55.4949V70.563C90.8172 73.1246 90.2775 75.6557 89.2566 78.0113C88.2357 80.3669 86.7537 82.5007 84.8953 84.2907C83.037 86.0806 80.8388 87.4915 78.4268 88.4426C76.0147 89.3936 73.4361 89.8661 70.8387 89.833" fill="#3F3F3F"/>
<path d="M70.8245 44.6286C68.5505 44.6026 66.3588 45.4666 64.7297 47.0314C63.1006 48.5963 62.1671 50.7342 62.1336 52.9766C62.1354 53.0862 62.1591 53.1944 62.2033 53.295C62.2476 53.3956 62.3115 53.4866 62.3914 53.5628C62.4713 53.6391 62.5657 53.699 62.6691 53.7393C62.7726 53.7795 62.883 53.7993 62.9942 53.7975H78.6549C78.7654 53.7993 78.8752 53.7794 78.9778 53.739C79.0804 53.6986 79.1739 53.6384 79.2527 53.562C79.3315 53.4856 79.3941 53.3945 79.4368 53.294C79.4795 53.1935 79.5015 53.0856 79.5015 52.9766C79.4717 50.7354 78.5412 48.5975 76.9144 47.0323C75.2875 45.4671 73.0972 44.6026 70.8245 44.6286ZM55.1639 57.1506C54.9394 57.1506 54.7241 57.2385 54.5653 57.3951C54.4066 57.5516 54.3173 57.764 54.3173 57.9854V70.5074C54.3173 74.8247 56.0565 78.9653 59.1522 82.0181C62.2479 85.071 66.4466 86.786 70.8245 86.786C75.2025 86.786 79.4012 85.071 82.4969 82.0181C85.5926 78.9653 87.3318 74.8247 87.3318 70.5074V57.9854C87.3318 57.8746 87.3094 57.7649 87.266 57.6627C87.2226 57.5605 87.159 57.4678 87.0789 57.3901C86.9988 57.3124 86.9038 57.2512 86.7994 57.2101C86.6951 57.169 86.5835 57.1487 86.4712 57.1506H55.1639ZM70.8245 89.8052C68.2294 89.8383 65.6531 89.3667 63.2429 88.4174C60.8327 87.4681 58.6358 86.0597 56.7778 84.2727C54.9198 82.4856 53.4372 80.3551 52.4146 78.0027C51.3921 75.6503 50.8497 73.1223 50.8184 70.563V55.4949C50.8258 55.0434 51.0138 54.6132 51.3415 54.2978C51.6692 53.9825 52.11 53.8076 52.5678 53.8114H57.7881C57.8993 53.8132 58.0097 53.7934 58.1132 53.7532C58.2166 53.7129 58.3109 53.6529 58.3908 53.5767C58.4707 53.5005 58.5347 53.4095 58.5789 53.3089C58.6232 53.2083 58.6469 53.1001 58.6487 52.9905C58.6487 49.8023 59.933 46.7446 62.2191 44.4902C64.5052 42.2358 67.6057 40.9694 70.8387 40.9694C74.0716 40.9694 77.1722 42.2358 79.4582 44.4902C81.7443 46.7446 83.0286 49.8023 83.0286 52.9905C83.0286 53.0995 83.0506 53.2074 83.0933 53.3079C83.136 53.4084 83.1986 53.4995 83.2774 53.5759C83.3562 53.6523 83.4497 53.7125 83.5523 53.7529C83.6549 53.7934 83.7646 53.8132 83.8751 53.8114H89.0954C89.3226 53.8077 89.5483 53.8484 89.7595 53.9312C89.9707 54.014 90.1631 54.1372 90.3258 54.2937C90.4884 54.4502 90.6181 54.6369 90.7072 54.8431C90.7962 55.0493 90.843 55.2708 90.8449 55.4949V70.563C90.8172 73.1258 90.2771 75.658 89.2553 78.0145C88.2335 80.371 86.7502 82.5055 84.8903 84.2956C83.0305 86.0858 80.8306 87.4964 78.4169 88.4466C76.0033 89.3968 73.4232 89.868 70.8245 89.833V89.8052Z" stroke="white" stroke-width="0.25" stroke-miterlimit="10"/>
<path d="M70.8239 64.5942C70.1455 64.6161 69.4886 64.8344 68.9352 65.222C68.3818 65.6096 67.9563 66.1493 67.7119 66.7738C67.4675 67.3983 67.415 68.0799 67.5609 68.7336C67.7067 69.3874 68.0445 69.9843 68.5322 70.4499C69.0198 70.9156 69.6355 71.2294 70.3028 71.3521C70.9701 71.4749 71.6593 71.4012 72.2844 71.1402C72.9094 70.8793 73.4427 70.4426 73.8178 69.8847C74.1928 69.3268 74.3931 68.6724 74.3934 68.003C74.3861 67.548 74.2879 67.0989 74.1045 66.6814C73.9211 66.2638 73.6562 65.886 73.3247 65.5694C72.9932 65.2529 72.6018 65.0039 72.1727 64.8365C71.7436 64.6692 71.2852 64.5868 70.8239 64.5942ZM70.8239 79.8989C70.5911 79.9044 70.3595 79.8645 70.1425 79.7813C69.9254 79.6981 69.7273 79.5734 69.5594 79.4143C69.3915 79.2552 69.2572 79.0649 69.1643 78.8543C69.0714 78.6438 69.0217 78.4172 69.018 78.1876V75.1545C69.0183 74.9791 68.9625 74.8081 68.8587 74.6658C68.7549 74.5234 68.6082 74.4169 68.4395 74.3614C67.0699 73.9057 65.8753 73.0461 65.0173 71.8989C64.1593 70.7517 63.6795 69.3723 63.6426 67.9473C63.7245 66.1252 64.5162 64.4046 65.8527 63.1438C67.1891 61.883 68.9673 61.1793 70.8168 61.1793C72.6663 61.1793 74.4446 61.883 75.7811 63.1438C77.1175 64.4046 77.9092 66.1252 77.9911 67.9473C77.9675 69.3737 77.4944 70.7575 76.6374 71.9068C75.7803 73.0561 74.5819 73.914 73.2083 74.3614C73.0384 74.415 72.8905 74.5211 72.7864 74.6638C72.6823 74.8066 72.6274 74.9786 72.6298 75.1545V78.1876C72.6187 78.6501 72.4226 79.0896 72.0843 79.4101C71.746 79.7307 71.293 79.9064 70.8239 79.8989Z" fill="white"/>
<path d="M70.8239 64.5942C70.1455 64.6161 69.4886 64.8344 68.9352 65.222C68.3818 65.6096 67.9563 66.1493 67.7119 66.7738C67.4675 67.3983 67.415 68.0799 67.5609 68.7336C67.7067 69.3874 68.0445 69.9843 68.5322 70.4499C69.0198 70.9156 69.6355 71.2294 70.3028 71.3521C70.9701 71.4749 71.6593 71.4012 72.2844 71.1402C72.9094 70.8793 73.4427 70.4426 73.8178 69.8847C74.1928 69.3268 74.3931 68.6724 74.3934 68.003C74.3861 67.548 74.2879 67.0989 74.1045 66.6814C73.9211 66.2638 73.6562 65.886 73.3247 65.5694C72.9932 65.2529 72.6018 65.0039 72.1727 64.8365C71.7436 64.6692 71.2852 64.5868 70.8239 64.5942ZM70.8239 79.8989C70.5911 79.9044 70.3595 79.8645 70.1425 79.7813C69.9254 79.6981 69.7273 79.5734 69.5594 79.4143C69.3915 79.2552 69.2572 79.0649 69.1643 78.8543C69.0714 78.6438 69.0217 78.4172 69.018 78.1876V75.1545C69.0183 74.9791 68.9625 74.8081 68.8587 74.6658C68.7549 74.5234 68.6082 74.4169 68.4395 74.3614C67.0699 73.9057 65.8753 73.0461 65.0173 71.8989C64.1593 70.7517 63.6795 69.3723 63.6426 67.9473C63.7245 66.1252 64.5162 64.4046 65.8527 63.1438C67.1891 61.883 68.9673 61.1793 70.8168 61.1793C72.6663 61.1793 74.4446 61.883 75.7811 63.1438C77.1175 64.4046 77.9092 66.1252 77.9911 67.9473C77.9675 69.3737 77.4944 70.7575 76.6374 71.9068C75.7803 73.0561 74.5819 73.914 73.2083 74.3614C73.0384 74.415 72.8905 74.5211 72.7864 74.6638C72.6823 74.8066 72.6274 74.9786 72.6298 75.1545V78.1876C72.6317 78.4213 72.5862 78.6531 72.4959 78.8692C72.4057 79.0854 72.2726 79.2815 72.1043 79.4462C71.936 79.6108 71.736 79.7406 71.5161 79.8279C71.2963 79.9152 71.0609 79.9583 70.8239 79.9546V79.8989Z" stroke="white" stroke-miterlimit="10"/>
</g>
</g>
<defs>
<clipPath id="clip0_2_1436">
<rect width="82" height="79" fill="white" transform="translate(9 11)"/>
</clipPath>
</defs>
</svg>
