<svg width="80" height="80" viewBox="0 0 80 80" fill="none" xmlns="http://www.w3.org/2000/svg">
<g clip-path="url(#clip0_21_5211)">
<mask id="mask0_21_5211" style="mask-type:luminance" maskUnits="userSpaceOnUse" x="7" y="7" width="66" height="65">
<path d="M72.89 7H7V72H72.89V7Z" fill="white"/>
</mask>
<g mask="url(#mask0_21_5211)">
<path d="M45.6534 24.71L63.8834 38.4L45.6534 52.1V45C44.6534 44.95 27.7734 44.43 16.0234 54.31C20.7234 40.38 35.4934 34.31 45.6534 31.85V24.71Z" fill="#3F3F3F"/>
<path d="M39.9531 68.2C32.7605 68.2163 25.8156 65.5736 20.4531 60.78L61.5531 20.25C66.3997 25.4882 69.0891 32.3636 69.0831 39.5C69.004 47.1583 65.8986 54.4743 60.4448 59.8512C54.9911 65.2282 47.6318 68.2295 39.9731 68.2M10.8631 39.5C10.9638 33.9171 12.6637 28.4801 15.7611 23.8341C18.8585 19.1881 23.2235 15.5281 28.3384 13.288C33.4532 11.048 39.1032 10.322 44.6182 11.1962C50.1332 12.0703 55.2817 14.508 59.4531 18.22L18.3531 58.75C13.5066 53.5118 10.8171 46.6364 10.8231 39.5M39.9531 8C22.3431 8 7.95312 22.14 7.95312 39.5C7.95312 56.86 22.2931 71 39.9531 71C57.6131 71 71.9531 56.86 71.9531 39.5C71.9531 22.14 57.6131 8 39.9531 8Z" fill="#D40054"/>
<path d="M39.9531 68.2C32.7605 68.2163 25.8156 65.5736 20.4531 60.78L61.5531 20.25C66.3997 25.4882 69.0891 32.3636 69.0831 39.5C69.0039 47.1617 65.8958 54.4808 60.4377 59.8583C54.9797 65.2358 47.6152 68.2348 39.9531 68.2ZM10.8431 39.5C10.9405 33.9133 12.6393 28.4719 15.7377 23.8221C18.8362 19.1723 23.2042 15.5095 28.3228 13.2687C33.4413 11.0279 39.0955 10.3034 44.6137 11.1811C50.1319 12.0587 55.2823 14.5018 59.4531 18.22L18.3531 58.75C13.5139 53.5087 10.8317 46.6337 10.8431 39.5ZM39.9531 8C22.3431 8 7.95312 22.14 7.95312 39.5C7.95312 56.86 22.2931 71 39.9531 71C57.6131 71 71.9531 56.86 71.9531 39.5C71.9531 22.14 57.5631 8 39.9531 8Z" stroke="#D40054" stroke-width="2" stroke-linecap="round" stroke-linejoin="round"/>
</g>
</g>
<defs>
<clipPath id="clip0_21_5211">
<rect width="65.89" height="65" fill="white" transform="translate(7 7)"/>
</clipPath>
</defs>
</svg>
