<svg xmlns="http://www.w3.org/2000/svg" width="74" height="37" viewBox="0 0 74 37"><defs><style>.a{fill:#fff;}</style></defs><g transform="translate(-419.752 -342.771)"><g transform="translate(419.752 342.771)"><g transform="translate(0 2.637)"><path class="a" d="M436.233,364.986,419.752,399.35h4.31l12.171-25.377L448.4,399.35h4.31Z" transform="translate(-419.752 -364.986)"/><g transform="translate(13.711 24.406)"><path class="a" d="M541.059,576.058a2.733,2.733,0,1,1-2.733-2.733A2.736,2.736,0,0,1,541.059,576.058Z" transform="translate(-535.594 -573.325)"/></g><path class="a" d="M892.948,486.4l-9.531,20.274h4.166l5.372-11.211,5.308,11.211h4.31Z" transform="translate(-828.573 -472.314)"/></g><path class="a" d="M679.644,359.671h.006l4.667,9.818,4.667-9.818h4.31l-7.211,15.219v4.881h-3.532V374.89L677.06,363.3h-5.679v16.469h-3.563V363.3h-4.363l-1.722-3.631h6.041v-11.48a5.467,5.467,0,0,1,10.934,0H675.1a1.86,1.86,0,0,0-3.72-.012v11.493Z" transform="translate(-633.139 -342.771)"/></g></g></svg>