<?xml version="1.0" encoding="utf-8"?>
<!-- Generator: Adobe Illustrator 19.0.0, SVG Export Plug-In . SVG Version: 6.00 Build 0)  -->
<svg version="1.1" id="Layer_1" xmlns="http://www.w3.org/2000/svg" xmlns:xlink="http://www.w3.org/1999/xlink" x="0px" y="0px"
	 viewBox="0 0 1000 1235" style="enable-background:new 0 0 1000 1235;" xml:space="preserve">
<style type="text/css">
	.st0{fill:#5C5B5C;}
</style>
<g id="XMLID_72_">
	<g id="XMLID_73_">
		<path id="XMLID_89_" class="st0" d="M800.3,94H199.7c-30.4,0-53.4,23-53.4,53.4v940.2c0,30.4,23,53.4,53.4,53.4h600.7
			c30.4,0,53.4-23,53.4-53.4V147.4C853.7,116.9,830.8,94,800.3,94z M849.7,1087.6c0,28.2-21.2,49.4-49.4,49.4H199.7
			c-28.2,0-49.4-21.2-49.4-49.4V147.4c0-28.2,21.2-49.4,49.4-49.4h600.7c28.2,0,49.4,21.2,49.4,49.4V1087.6z"/>
		<path id="XMLID_86_" class="st0" d="M800.3,102.8h-37.9H237.6h-37.9c-12.4,0-23.7,4.5-31.9,12.6c-8.2,8.2-12.8,19.5-12.8,32v940.2
			c0,12.5,4.5,23.8,12.8,32c8.2,8.1,19.5,12.6,31.9,12.6h37.9h524.9h37.9c12.4,0,23.7-4.5,31.9-12.6c8.2-8.2,12.8-19.5,12.8-32
			V147.4c0-12.5-4.5-23.8-12.8-32C824,107.2,812.7,102.8,800.3,102.8z M841,1087.6c0,11.4-4.1,21.7-11.6,29.2
			c-7.4,7.4-17.8,11.5-29.1,11.5h-37.9H237.6h-37.9c-11.3,0-21.6-4.1-29.1-11.5c-7.5-7.4-11.6-17.8-11.6-29.2V147.4
			c0-11.4,4.1-21.7,11.6-29.2c7.4-7.4,17.8-11.5,29.1-11.5h37.9h524.9h37.9c11.3,0,21.6,4.1,29.1,11.5c7.5,7.4,11.6,17.8,11.6,29.2
			V1087.6z"/>
		<path id="XMLID_83_" class="st0" d="M499.8,159c3.9,0,7-3.1,7-7c0-3.9-3.1-7-7-7c-3.9,0-7,3.1-7,7
			C492.8,155.9,495.9,159,499.8,159z M499.8,148.1c2.2,0,4,1.8,4,4c0,2.2-1.8,4-4,4c-2.2,0-4-1.8-4-4
			C495.8,149.8,497.6,148.1,499.8,148.1z"/>
		<path id="XMLID_80_" class="st0" d="M499.7,1063.1c-14.3,0-25.8,11.6-25.8,25.8c0,14.3,11.6,25.8,25.8,25.8
			c14.3,0,25.8-11.6,25.8-25.8C525.5,1074.7,513.9,1063.1,499.7,1063.1z M499.7,1110.8c-12,0-21.8-9.8-21.8-21.8s9.8-21.8,21.8-21.8
			c12,0,21.8,9.8,21.8,21.8S511.7,1110.8,499.7,1110.8z"/>
		<path id="XMLID_77_" class="st0" d="M505.5,1079.5h-11.7c-2.2,0-4.1,1.8-4.1,4.1v11.7c0,2.2,1.8,4.1,4.1,4.1h11.7
			c2.2,0,4.1-1.8,4.1-4.1v-11.7C509.5,1081.3,507.7,1079.5,505.5,1079.5z M505.5,1095.2C505.5,1095.2,505.5,1095.2,505.5,1095.2
			l-11.7,0.1c0,0-0.1,0-0.1-0.1v-11.7c0,0,0-0.1,0.1-0.1h11.7c0,0,0.1,0,0.1,0.1V1095.2z"/>
		<path id="XMLID_74_" class="st0" d="M811,197H189c-2.8,0-5,2.2-5,5v830c0,2.8,2.2,5,5,5h622c2.8,0,5-2.2,5-5V202
			C816,199.2,813.8,197,811,197z M811,1032H189V202h622V1032z"/>
	</g>
</g>
</svg>
