<?xml version="1.0" encoding="utf-8"?>
<!-- Generator: Adobe Illustrator 16.0.0, SVG Export Plug-In . SVG Version: 6.00 Build 0)  -->
<!DOCTYPE svg PUBLIC "-//W3C//DTD SVG 1.1//EN" "http://www.w3.org/Graphics/SVG/1.1/DTD/svg11.dtd">
<svg version="1.1" id="Layer_1" xmlns="http://www.w3.org/2000/svg" xmlns:xlink="http://www.w3.org/1999/xlink" x="0px" y="0px"
	 width="1007.186px" height="577.362px" viewBox="8.977 190.637 1007.186 577.362"
	 enable-background="new 8.977 190.637 1007.186 577.362" xml:space="preserve">
<g id="XMLID_2_">
	<g id="XMLID_4_">
		<path id="XMLID_28_" fill="#5C5B5C" d="M263.396,238.237c-4.36-1.896-9.419-2.907-15.106-2.907h-2.402H87.989h-2.401
			c-5.626,0-10.746,0.947-15.107,2.907c-3.854,1.706-7.143,4.108-9.859,7.206c-4.552,5.246-7.206,12.452-7.206,19.658v11.063
			v410.801v11.063c0,7.204,2.592,14.349,7.206,19.657c2.653,3.098,6.005,5.499,9.859,7.205c4.361,1.896,9.419,2.908,15.107,2.908
			h2.401h157.897h2.402c5.626,0,10.746-0.948,15.106-2.908c3.855-1.706,7.144-4.107,9.86-7.205
			c4.552-5.247,7.206-12.453,7.206-19.657v-11.063V276.099v-11.062c0-7.206-2.592-14.35-7.206-19.658
			C270.538,242.345,267.251,239.881,263.396,238.237z M277.87,276.099v410.802v11.063c0,6.637-2.401,13.146-6.573,17.951
			c-2.402,2.781-5.438,4.994-8.978,6.511c-4.045,1.771-8.785,2.655-14.096,2.655h-2.401H87.989h-2.401
			c-5.311,0-10.051-0.885-14.096-2.655c-3.54-1.517-6.512-3.729-8.977-6.511c-4.172-4.805-6.574-11.378-6.574-17.951v-11.063
			V276.099v-11.062c0-6.638,2.402-13.147,6.574-17.951c2.401-2.781,5.437-4.994,8.977-6.512c4.045-1.771,8.785-2.654,14.096-2.654
			h2.401h157.897h2.402c5.31,0,10.051,0.885,14.096,2.654c3.54,1.518,6.511,3.729,8.976,6.512
			c4.173,4.804,6.574,11.377,6.574,17.951v11.062H277.87z"/>
		<path id="XMLID_21_" fill="#5C5B5C" d="M278.25,241.081c-4.867-5.625-14.033-12.39-29.962-12.39h-0.126v-1.391
			c0-1.58-1.519-3.034-3.099-3.034h-36.155c-1.58,0-3.034,1.518-3.034,3.098v1.327H87.989h-2.401c-15.929,0-25.095,6.7-29.962,12.39
			c-5.625,6.447-8.786,15.171-8.786,23.957v11.062v21.176h-1.453c-1.391,0-2.528,1.139-2.528,2.528v20.859
			c0,1.391,1.139,2.527,2.528,2.527h1.453v10.745h-1.453c-1.391,0-2.781,1.391-2.781,2.781v32.363c0,1.391,1.327,2.78,2.718,2.78
			h1.58v8.66h-1.517c-1.391,0-2.781,1.327-2.781,2.718v32.617c0,1.518,1.58,2.719,2.845,2.719h1.453v268.263v11.188
			c0,8.786,3.225,17.51,8.786,23.956c4.867,5.626,14.033,12.391,29.962,12.391h2.401H245.95h2.401
			c15.929,0,25.094-6.701,29.961-12.391c5.626-6.446,8.786-15.17,8.786-23.956v-11.063V276.164v-11.125
			C287.036,256.252,283.875,247.529,278.25,241.081z M207.834,227.365c0-0.506,0.632-1.2,1.138-1.2h36.156
			c0.506,0,1.201,0.632,1.201,1.138v1.391h-0.381h-38.114V227.365z M45.448,321.295c-0.379,0-0.632-0.253-0.632-0.632v-20.859
			c0-0.38,0.253-0.632,0.632-0.632h1.454v22.123H45.448z M45.322,369.967c-0.379,0-0.821-0.506-0.821-0.886v-32.363
			c0-0.379,0.568-0.885,0.886-0.885h1.453v34.134H45.322z M45.385,416.743c-0.38,0-0.948-0.506-0.948-0.822v-32.616
			c0-0.379,0.506-0.821,0.885-0.821h1.518v34.261L45.385,416.743L45.385,416.743z M284.508,276.164v410.801v11.063
			c0,8.152-2.972,16.308-8.218,22.313c-4.552,5.246-13.084,11.504-28.065,11.504h-2.4H87.989h-2.401
			c-14.918,0-23.515-6.258-28.065-11.504c-5.183-6.005-8.217-14.159-8.217-22.313v-11.063V276.164v-11.125
			c0-8.154,2.971-16.31,8.217-22.313c4.553-5.246,13.085-11.504,28.065-11.504h2.401h157.897h2.402
			c14.918,0,23.514,6.258,28.064,11.504c5.184,6.005,8.217,14.159,8.217,22.313v11.125H284.508z"/>
		<path id="XMLID_18_" fill="#5C5B5C" d="M166.938,259.854c2.972,0,5.372-2.4,5.372-5.372s-2.4-5.373-5.372-5.373
			s-5.373,2.401-5.373,5.373S163.966,259.854,166.938,259.854z M166.938,251.006c1.896,0,3.477,1.58,3.477,3.477
			s-1.58,3.478-3.477,3.478c-1.896,0-3.477-1.581-3.477-3.478S165.041,251.006,166.938,251.006z"/>
		<circle id="XMLID_17_" fill="#5C5B5C" cx="166.938" cy="254.609" r="1.896"/>
		<path id="XMLID_14_" fill="#5C5B5C" d="M149.744,278.375h34.448c2.719,0,4.932-2.213,4.932-4.931c0-2.719-2.213-4.931-4.932-4.931
			h-34.448c-2.719,0-4.932,2.212-4.932,4.931C144.814,276.226,147.027,278.375,149.744,278.375z M149.744,271.106h34.448
			c1.327,0,2.402,1.074,2.402,2.401c0,1.328-1.075,2.401-2.402,2.401h-34.448c-1.327,0-2.402-1.073-2.402-2.401
			C147.342,272.18,148.417,271.106,149.744,271.106z"/>
		<path id="XMLID_11_" fill="#5C5B5C" d="M166.938,674.702c-12.2,0-22.124,9.925-22.124,22.124c0,12.198,9.924,22.123,22.124,22.123
			c12.199,0,22.123-9.925,22.123-22.123C189.061,684.627,179.2,674.702,166.938,674.702z M166.938,716.42
			c-10.81,0-19.596-8.786-19.596-19.595c0-10.81,8.786-19.597,19.596-19.597s19.596,8.787,19.596,19.597
			C186.533,707.634,177.746,716.42,166.938,716.42z"/>
		<path id="XMLID_8_" fill="#5C5B5C" d="M171.362,687.913h-8.849c-2.276,0-4.109,1.833-4.109,4.108v8.85
			c0,2.274,1.833,4.108,4.109,4.108h8.849c2.276,0,4.109-1.834,4.109-4.108v-8.85C175.471,689.746,173.638,687.913,171.362,687.913z
			 M172.943,700.871c0,0.885-0.694,1.58-1.581,1.58h-8.849c-0.886,0-1.581-0.695-1.581-1.58v-8.85c0-0.886,0.695-1.581,1.581-1.581
			h8.849c0.887,0,1.581,0.695,1.581,1.581V700.871z"/>
		<path id="XMLID_5_" fill="#5C5B5C" d="M268.073,299.614H65.801c-1.391,0-2.528,1.139-2.528,2.528v359.032
			c0,1.391,1.139,2.528,2.528,2.528h202.271c1.392,0,2.528-1.139,2.528-2.528V302.142
			C270.602,300.752,269.464,299.614,268.073,299.614z M268.073,661.175H65.801V302.142h202.271V661.175z"/>
	</g>
	
		<rect id="XMLID_3_" x="65.865" y="302.205" opacity="0.1" fill="#FFFFFF" enable-background="new    " width="202.271" height="359.032"/>
</g>
<g id="XMLID_72_">
	<g id="XMLID_73_">
		<path id="XMLID_89_" fill="#5C5B5C" d="M320.727,320.916v379.639c0,19.216,14.538,33.754,33.754,33.754H948.78
			c19.217,0,33.755-14.538,33.755-33.754V320.916c0-19.217-14.538-33.756-33.755-33.756H354.481
			C335.265,287.161,320.727,301.636,320.727,320.916z M948.78,289.689c17.826,0,31.228,13.401,31.228,31.228v379.639
			c0,17.825-13.4,31.227-31.228,31.227H354.481c-17.825,0-31.226-13.4-31.226-31.227v-379.64c0-17.825,13.399-31.228,31.226-31.228
			L948.78,289.689L948.78,289.689z"/>
		<path id="XMLID_86_" fill="#5C5B5C" d="M326.289,320.916v23.956v331.789v23.894c0,7.838,2.845,14.98,7.965,20.164
			c5.183,5.183,12.325,8.091,20.227,8.091H948.78c7.901,0,15.045-2.845,20.229-8.091c5.12-5.184,7.965-12.326,7.965-20.164v-23.957
			V344.872v-23.956c0-7.84-2.845-14.981-7.965-20.164c-5.184-5.185-12.326-8.092-20.229-8.092H354.481
			c-7.9,0-15.044,2.845-20.227,8.092C329.134,305.934,326.289,313.077,326.289,320.916z M948.78,295.189
			c7.206,0,13.717,2.592,18.458,7.332c4.677,4.678,7.27,11.251,7.27,18.396v23.956v331.789v23.894c0,7.144-2.593,13.653-7.27,18.395
			c-4.678,4.74-11.252,7.332-18.458,7.332H354.481c-7.206,0-13.716-2.592-18.457-7.332c-4.678-4.679-7.27-11.251-7.27-18.395
			v-23.957V344.872v-23.956c0-7.145,2.592-13.653,7.27-18.396c4.679-4.74,11.251-7.332,18.457-7.332L948.78,295.189L948.78,295.189z
			"/>
		<path id="XMLID_83_" fill="#5C5B5C" d="M361.876,510.862c0-2.466-1.959-4.426-4.425-4.426s-4.425,1.96-4.425,4.426
			s1.959,4.425,4.425,4.425S361.876,513.328,361.876,510.862z M354.923,510.862c0-1.392,1.138-2.528,2.528-2.528
			c1.39,0,2.528,1.138,2.528,2.528c0,1.39-1.139,2.527-2.528,2.527C356.061,513.389,354.923,512.252,354.923,510.862z"/>
		<path id="XMLID_80_" fill="#5C5B5C" d="M933.357,510.989c0,9.039,7.333,16.308,16.31,16.308c9.039,0,16.308-7.332,16.308-16.308
			c0-9.039-7.332-16.31-16.308-16.31C940.625,494.617,933.357,501.95,933.357,510.989z M963.445,510.989
			c0,7.585-6.194,13.778-13.778,13.778c-7.586,0-13.78-6.193-13.78-13.778c0-7.586,6.193-13.78,13.78-13.78
			C957.25,497.144,963.445,503.34,963.445,510.989z"/>
		<path id="XMLID_77_" fill="#5C5B5C" d="M943.659,507.259v7.396c0,1.391,1.139,2.592,2.593,2.592h7.395
			c1.391,0,2.592-1.139,2.592-2.592v-7.396c0-1.391-1.138-2.592-2.592-2.592h-7.395C944.798,504.73,943.659,505.869,943.659,507.259
			z M953.584,507.259C953.647,507.259,953.647,507.259,953.584,507.259l0.063,7.396c0,0,0,0.063-0.063,0.063h-7.332
			c0,0-0.063,0-0.063-0.063v-7.396c0,0,0-0.063,0.063-0.063h7.332V507.259z"/>
		<path id="XMLID_74_" fill="#5C5B5C" d="M385.833,314.152v393.165c0,1.771,1.391,3.161,3.16,3.161h524.642
			c1.771,0,3.161-1.391,3.161-3.161V314.152c0-1.771-1.392-3.161-3.161-3.161H388.993
			C387.287,310.991,385.833,312.445,385.833,314.152z M913.635,314.152v393.165H388.993V314.152H913.635L913.635,314.152z"/>
	</g>
</g>
</svg>
