<?xml version="1.0" encoding="utf-8"?>
<!-- Generator: Adobe Illustrator 19.0.0, SVG Export Plug-In . SVG Version: 6.00 Build 0)  -->
<svg version="1.1" id="Layer_1" xmlns="http://www.w3.org/2000/svg" xmlns:xlink="http://www.w3.org/1999/xlink" x="0px" y="0px"
	 viewBox="0 0 620 1000" style="enable-background:new 0 0 620 1000;" xml:space="preserve">
<style type="text/css">
	.st0{fill:#5C5B5C;}
	.st1{opacity:0.1;fill:#FFFFFF;}
</style>
<g id="XMLID_2_">
	<g id="XMLID_4_">
		<path id="XMLID_28_" class="st0" d="M465.9,118.6c-6.9-3-14.9-4.6-23.9-4.6h-3.8H188.5h-3.8c-8.9,0-17,1.5-23.9,4.6
			c-6.1,2.7-11.3,6.5-15.6,11.4c-7.2,8.3-11.4,19.7-11.4,31.1v17.5v649.9v17.5c0,11.4,4.1,22.7,11.4,31.1c4.2,4.9,9.5,8.7,15.6,11.4
			c6.9,3,14.9,4.6,23.9,4.6h3.8h249.8h3.8c8.9,0,17-1.5,23.9-4.6c6.1-2.7,11.3-6.5,15.6-11.4c7.2-8.3,11.4-19.7,11.4-31.1v-17.5
			V178.5V161c0-11.4-4.1-22.7-11.4-31.1C477.3,125.1,472,121.2,465.9,118.6z M488.9,178.5v649.9v17.5c0,10.5-3.8,20.8-10.4,28.4
			c-3.8,4.4-8.6,7.9-14.2,10.3c-6.4,2.8-13.9,4.2-22.3,4.2h-3.8H188.5h-3.8c-8.4,0-15.9-1.4-22.3-4.2c-5.6-2.4-10.3-5.9-14.2-10.3
			c-6.6-7.6-10.4-18-10.4-28.4v-17.5V178.5V161c0-10.5,3.8-20.8,10.4-28.4c3.8-4.4,8.6-7.9,14.2-10.3c6.4-2.8,13.9-4.2,22.3-4.2h3.8
			h249.8h3.8c8.4,0,15.9,1.4,22.3,4.2c5.6,2.4,10.3,5.9,14.2,10.3c6.6,7.6,10.4,18,10.4,28.4V178.5z"/>
		<path id="XMLID_21_" class="st0" d="M489.5,123.1c-7.7-8.9-22.2-19.6-47.4-19.6h-0.2v-2.2c0-2.5-2.4-4.8-4.9-4.8h-57.2
			c-2.5,0-4.8,2.4-4.8,4.9v2.1H188.5h-3.8c-25.2,0-39.7,10.6-47.4,19.6c-8.9,10.2-13.9,24-13.9,37.9v17.5V212h-2.3c-2.2,0-4,1.8-4,4
			v33c0,2.2,1.8,4,4,4h2.3v17h-2.3c-2.2,0-4.4,2.2-4.4,4.4v51.2c0,2.2,2.1,4.4,4.3,4.4h2.5v13.7H121c-2.2,0-4.4,2.1-4.4,4.3v51.6
			c0,2.4,2.5,4.3,4.5,4.3h2.3v424.4V846c0,13.9,5.1,27.7,13.9,37.9c7.7,8.9,22.2,19.6,47.4,19.6h3.8h249.8h3.8
			c25.2,0,39.7-10.6,47.4-19.6c8.9-10.2,13.9-24,13.9-37.9v-17.5V178.6V161C503.4,147.1,498.3,133.3,489.5,123.1z M378.1,101.4
			c0-0.8,1-1.9,1.8-1.9H437c0.8,0,1.9,1,1.9,1.8v2.2h-0.6h-60.3V101.4z M121.1,250c-0.6,0-1-0.4-1-1v-33c0-0.6,0.4-1,1-1h2.3v35
			H121.1z M120.9,327c-0.6,0-1.3-0.8-1.3-1.4v-51.2c0-0.6,0.9-1.4,1.4-1.4h2.3v54H120.9z M121.1,401c-0.6,0-1.5-0.8-1.5-1.3v-51.6
			c0-0.6,0.8-1.3,1.4-1.3h2.4V401H121.1z M499.4,178.6v649.9V846c0,12.9-4.7,25.8-13,35.3c-7.2,8.3-20.7,18.2-44.4,18.2h-3.8H188.5
			h-3.8c-23.6,0-37.2-9.9-44.4-18.2c-8.2-9.5-13-22.4-13-35.3v-17.5V178.6V161c0-12.9,4.7-25.8,13-35.3c7.2-8.3,20.7-18.2,44.4-18.2
			h3.8h249.8h3.8c23.6,0,37.2,9.9,44.4,18.2c8.2,9.5,13,22.4,13,35.3V178.6z"/>
		<path id="XMLID_18_" class="st0" d="M313.4,152.8c4.7,0,8.5-3.8,8.5-8.5c0-4.7-3.8-8.5-8.5-8.5s-8.5,3.8-8.5,8.5
			C304.9,149,308.7,152.8,313.4,152.8z M313.4,138.8c3,0,5.5,2.5,5.5,5.5c0,3-2.5,5.5-5.5,5.5s-5.5-2.5-5.5-5.5
			C307.9,141.3,310.4,138.8,313.4,138.8z"/>
		<circle id="XMLID_17_" class="st0" cx="313.4" cy="144.5" r="3"/>
		<path id="XMLID_14_" class="st0" d="M286.1,182.1h54.5c4.3,0,7.8-3.5,7.8-7.8c0-4.3-3.5-7.8-7.8-7.8h-54.5c-4.3,0-7.8,3.5-7.8,7.8
			C278.4,178.7,281.9,182.1,286.1,182.1z M286.1,170.6h54.5c2.1,0,3.8,1.7,3.8,3.8s-1.7,3.8-3.8,3.8h-54.5c-2.1,0-3.8-1.7-3.8-3.8
			S284.1,170.6,286.1,170.6z"/>
		<path id="XMLID_11_" class="st0" d="M313.4,809.1c-19.3,0-35,15.7-35,35c0,19.3,15.7,35,35,35s35-15.7,35-35
			C348.4,824.8,332.7,809.1,313.4,809.1z M313.4,875.1c-17.1,0-31-13.9-31-31c0-17.1,13.9-31,31-31c17.1,0,31,13.9,31,31
			C344.4,861.2,330.5,875.1,313.4,875.1z"/>
		<path id="XMLID_8_" class="st0" d="M320.4,830h-14c-3.6,0-6.5,2.9-6.5,6.5v14c0,3.6,2.9,6.5,6.5,6.5h14c3.6,0,6.5-2.9,6.5-6.5v-14
			C326.9,832.9,324,830,320.4,830z M322.9,850.5c0,1.4-1.1,2.5-2.5,2.5h-14c-1.4,0-2.5-1.1-2.5-2.5v-14c0-1.4,1.1-2.5,2.5-2.5h14
			c1.4,0,2.5,1.1,2.5,2.5V850.5z"/>
		<path id="XMLID_5_" class="st0" d="M473.4,215.7h-320c-2.2,0-4,1.8-4,4v568c0,2.2,1.8,4,4,4h320c2.2,0,4-1.8,4-4v-568
			C477.4,217.5,475.6,215.7,473.4,215.7z M473.4,787.7h-320v-568h320V787.7z"/>
	</g>
	<rect id="XMLID_3_" x="153.4" y="219.8" class="st1" width="320" height="568"/>
</g>
</svg>
