<?xml version="1.0" encoding="utf-8"?>
<!-- Generator: Adobe Illustrator 19.0.0, SVG Export Plug-In . SVG Version: 6.00 Build 0)  -->
<svg version="1.1" id="Layer_1" xmlns="http://www.w3.org/2000/svg" xmlns:xlink="http://www.w3.org/1999/xlink" x="0px" y="0px"
	 viewBox="0 0 1620 1235" style="enable-background:new 0 0 1620 1235;" xml:space="preserve">
<style type="text/css">
	.st0{fill:#5B5B5B;}
</style>
<g>
	<g>
		<path class="st0" d="M817.7,222.2c0-4.2-3.4-7.7-7.7-7.7s-7.7,3.4-7.7,7.7s3.4,7.7,7.7,7.7S817.7,226.5,817.7,222.2z M805.4,222.2
			c0-2.5,2.1-4.6,4.6-4.6c2.5,0,4.6,2.1,4.6,4.6c0,2.5-2.1,4.6-4.6,4.6C807.5,226.8,805.4,224.8,805.4,222.2z"/>
		<path class="st0" d="M253.5,246.4v692.1c0,2.1,1.7,3.8,3.8,3.8h1107.3c2.1,0,3.8-1.7,3.8-3.8V246.4c0-2.1-1.7-3.8-3.8-3.8H257.3
			C255.2,242.6,253.5,244.3,253.5,246.4z M1364.6,938.5H257.3V246.4h1107.3V938.5z"/>
		<path id="XMLID_10_" class="st0" d="M565.9,1033c-1.6-1.1-5.9-1.5-9.1-1.5c-0.4,0-0.8,0-1.2,0c-6.3,0.2-6.8,1.6-7,2.3
			c-0.2,0.6-0.1,1.5,0.9,2.2c1.6,1.1,5.9,1.5,9.1,1.5c0.4,0,0.8,0,1.2,0c6.3-0.2,6.8-1.6,7-2.3C567,1034.5,566.8,1033.6,565.9,1033z
			"/>
		<path id="XMLID_9_" class="st0" d="M1057,1031.5c-0.4,0-0.8,0-1.2,0c-3.2,0-7.5,0.4-9.1,1.5c-0.9,0.6-1.1,1.5-0.9,2.2
			c0.2,0.7,0.6,2.1,7,2.3c0.4,0,0.8,0,1.2,0c0,0,0,0,0,0c3.2,0,7.5-0.4,9.1-1.5c0.9-0.6,1.1-1.5,0.9-2.2
			C1063.7,1033.1,1063.3,1031.7,1057,1031.5z"/>
		<path id="XMLID_8_" class="st0" d="M196.1,1013.3c-1.2-4.1-1.9-8.4-1.9-12.8V230c0-24.6,20-44.6,44.6-44.6h1142.7
			c24.6,0,44.6,20,44.6,44.6v770.5c0,4.5-0.7,8.8-1.9,12.8h3.2c1.1-4.1,1.8-8.4,1.8-12.8V230c0-26.3-21.4-47.7-47.7-47.7H238.8
			c-26.3,0-47.7,21.4-47.7,47.7v770.5c0,4.5,0.6,8.8,1.8,12.8H196.1z"/>
		<path id="XMLID_7_" class="st0" d="M1417.8,1013.3h2.4c1.3-4,2.1-8.4,2.1-12.8V230c0-22.5-18.3-40.8-40.8-40.8H238.8
			c-22.5,0-40.8,18.3-40.8,40.8v770.5c0,4.5,0.7,8.8,2.1,12.8h2.4c-1.4-4-2.2-8.3-2.2-12.8V230c0-21.2,17.2-38.4,38.4-38.4h1142.7
			c21.2,0,38.4,17.2,38.4,38.4v770.5C1420,1005,1419.2,1009.3,1417.8,1013.3z"/>
		<path id="XMLID_6_" class="st0" d="M1413,1001.4c0,8.2-5,11.9-9.6,11.9h-0.3v0h8.2c2.8-2.4,4.8-6.4,4.8-11.9v-18.6V230
			c0-19.1-15.5-34.6-34.6-34.6H238.8c-19.1,0-34.6,15.5-34.6,34.6v752.9v18.6c0,5.5,2.1,9.5,4.8,11.9h7.7v0h-0.1
			c-3.6,0-9.4-3.2-9.4-11.9v-18.6V230c0-17.4,14.1-31.5,31.5-31.5h1142.7c17.4,0,31.5,14.1,31.5,31.5v752.9V1001.4z"/>
		<path class="st0" d="M1567.5,1019.9v-3.5c0-1.7-1.4-3.1-3.1-3.1H930.9c-0.7,0-1.4,0.3-1.9,0.7H682c-0.5-0.4-1.2-0.7-1.9-0.7H55.6
			c-1.7,0-3.1,1.4-3.1,3.1v2.7c0,1.3,0.5,2.4,1.5,3.5l0,0c1.1,1.1,4.4,4.6,27.9,9.9c14.6,3.3,34,6.6,55.9,9.5
			c49.8,6.7,104.4,10.6,149.8,10.6h1011.3c93.4,0,158-6.6,195.7-12.2c37.2-5.5,66.6-12.8,71.6-17.7c0,0,0,0,0-0.1c0,0,0,0,0,0
			c0.1-0.1,0.1-0.1,0.2-0.2c0,0,0-0.1,0.1-0.1C1567.2,1021.7,1567.5,1020.8,1567.5,1019.9z M1564.4,1019.9c0,0.2-0.1,0.4-0.4,0.6
			H934v-3.4v-0.7h630.5C1564.4,1016.5,1564.4,1019.2,1564.4,1019.9z M930.9,1017.1c0,1.2,0,1.8,0,3.4c-1.5,1.5-3.9,2.8-8.4,2.8
			c-3.7,0-46.2,0-83.9,0c0,0-32,0-66.2,0c-37.7,0-78.2,0-81.9,0c-4.5,0-8.9-1.3-10.4-2.8v0c0-1.8,0-2.6,0-3.4H930.9z M55.6,1016.5
			H677v0.7v3.4H56.3c-0.5-0.5-0.7-0.9-0.7-1.4C55.6,1018.3,55.6,1016.5,55.6,1016.5z M1298.9,1049.6c0,0-974.4,0-1011.3,0
			c-90.9,0-199.3-15.2-225.9-26l-0.1,0H679c2.9,1.9,7.7,2.8,11.5,2.8h81.9h66.2h83.9c4.1,0,7.2-0.9,9.6-2.8H1558
			C1535,1032.2,1450.3,1049.6,1298.9,1049.6z"/>
	</g>
</g>
</svg>
