<?xml version="1.0" encoding="utf-8"?>
<!-- Generator: Adobe Illustrator 16.0.0, SVG Export Plug-In . SVG Version: 6.00 Build 0)  -->
<!DOCTYPE svg PUBLIC "-//W3C//DTD SVG 1.1//EN" "http://www.w3.org/Graphics/SVG/1.1/DTD/svg11.dtd">
<svg version="1.1" id="animacoes_com_CSS" xmlns="http://www.w3.org/2000/svg" xmlns:xlink="http://www.w3.org/1999/xlink" x="0px"
	 y="0px" width="304px" height="304px" viewBox="0 0 304 304" enable-background="new 0 0 304 304" xml:space="preserve">
<path fill="#FFFFFF" d="M247,38H57c-10.494,0-19,8.506-19,19v190c0,10.493,8.506,19,19,19h190c10.493,0,19-8.507,19-19V57
	C266,46.506,257.493,38,247,38z M91.186,177.833c3.53,0,6.275-0.588,8.53-1.471l1.764,10.981c-2.647,1.176-7.647,2.156-13.333,2.156
	c-15.49,0-25.392-9.412-25.392-24.51c0-14.021,9.607-25.49,27.451-25.49c3.922,0,8.236,0.686,11.373,1.862l-2.353,11.078
	c-1.765-0.784-4.413-1.471-8.334-1.471c-7.843,0-12.941,5.589-12.843,13.432C78.049,173.225,83.932,177.833,91.186,177.833z
	 M122.459,189.5c-6.275,0-11.862-1.373-15.49-3.334l2.646-10.686c2.745,1.667,8.432,3.627,12.843,3.627
	c4.51,0,6.374-1.567,6.374-4.02c0-2.451-1.472-3.627-7.059-5.49c-9.902-3.333-13.726-8.725-13.627-14.412
	c0-8.921,7.647-15.686,19.509-15.686c5.589,0,10.589,1.273,13.53,2.744l-2.647,10.294c-2.156-1.176-6.274-2.744-10.391-2.744
	c-3.627,0-5.687,1.471-5.687,3.922c0,2.255,1.863,3.431,7.745,5.489c9.119,3.138,12.942,7.745,13.04,14.804
	C143.244,182.931,136.185,189.5,122.459,189.5z M161.931,189.5c-6.274,0-11.861-1.373-15.489-3.334l2.646-10.686
	c2.745,1.667,8.432,3.627,12.843,3.627c4.51,0,6.373-1.567,6.373-4.02c0-2.451-1.471-3.627-7.06-5.49
	c-9.901-3.333-13.726-8.725-13.625-14.412c0-8.921,7.647-15.686,19.507-15.686c5.592,0,10.59,1.273,13.532,2.744l-2.647,10.294
	c-2.158-1.176-6.275-2.744-10.393-2.744c-3.628,0-5.688,1.471-5.688,3.922c0,2.255,1.864,3.431,7.746,5.489
	c9.118,3.138,12.941,7.745,13.039,14.804C182.716,182.931,175.657,189.5,161.931,189.5z M210.305,189.5
	c-9.771,0-18.029-2.455-22.449-5.136l3.605-12.722c3.141,1.561,10.353,4.465,17.563,4.465c9.188,0,13.843-4.251,13.843-9.72
	c0-7.145-7.445-10.388-15.239-10.388H200v-12h7.279c5.933,0,13.493-2.306,13.493-8.444c0-4.354-3.723-7.627-11.167-7.627
	c-6.165,0-12.678,2.549-15.818,4.335l-3.606-12.286c4.537-2.789,13.609-5.474,23.38-5.474c16.166,0,25.203,8.145,25.203,18.077
	c0,7.702-4.764,13.725-13.764,16.85v0.223c9,1.563,16.324,8.149,16.324,17.636C241.324,180.123,229.495,189.5,210.305,189.5z"/>
</svg>
