<?xml version="1.0" encoding="utf-8"?>
<!-- Generator: Adobe Illustrator 16.0.0, SVG Export Plug-In . SVG Version: 6.00 Build 0)  -->
<!DOCTYPE svg PUBLIC "-//W3C//DTD SVG 1.1//EN" "http://www.w3.org/Graphics/SVG/1.1/DTD/svg11.dtd">
<svg version="1.1" id="animacoes_de_entrada" xmlns="http://www.w3.org/2000/svg" xmlns:xlink="http://www.w3.org/1999/xlink"
	 x="0px" y="0px" width="304px" height="304px" viewBox="0 0 304 304" enable-background="new 0 0 304 304" xml:space="preserve">
<g>
	<polygon fill="#FFFFFF" points="265.74,152 212,98.26 212,143 141,143 141,162 212,162 212,205.74 	"/>
	<path fill="#FFFFFF" d="M256,181.973v56.694c0,9.572-7.761,17.333-17.333,17.333H65.333C55.76,256,48,248.239,48,238.667V65.333
		C48,55.76,55.76,48,65.333,48h173.333C248.239,48,256,55.76,256,65.333v56.694l10,10V57c0-10.494-8.507-19-19-19H57
		c-10.494,0-19,8.506-19,19v190c0,10.493,8.506,19,19,19h190c10.493,0,19-8.507,19-19v-75.027L256,181.973z"/>
</g>
</svg>
