<?xml version="1.0" encoding="utf-8"?>
<!-- Generator: Adobe Illustrator 16.0.0, SVG Export Plug-In . SVG Version: 6.00 Build 0)  -->
<!DOCTYPE svg PUBLIC "-//W3C//DTD SVG 1.1//EN" "http://www.w3.org/Graphics/SVG/1.1/DTD/svg11.dtd">
<svg version="1.1" id="glossario" xmlns="http://www.w3.org/2000/svg" xmlns:xlink="http://www.w3.org/1999/xlink" x="0px" y="0px"
	 width="304px" height="304px" viewBox="0 0 304 304" enable-background="new 0 0 304 304" xml:space="preserve">
<g>
	<path fill="#FFFFFF" d="M152,38H38v114v114h114h114V152V38H152z M90.23,65h9.45l20.699,60h-8.37l-6.48-19H84.021l-6.3,19h-8.1
		L90.23,65z M222.994,234.154c-4.229,3.869-11.008,5.67-20.906,5.67c-5.4,0-10.088-0.361-12.088-0.721v-59.668
		c3-0.719,8.758-1.26,14.248-1.26c7.828,0,12.838,1.35,16.618,4.41c3.149,2.34,5.216,5.939,5.216,10.709
		c0,5.85-4.082,10.98-10.082,13.32v0.18c5,1.439,12.316,6.209,12.316,15.209C228.316,227.225,226.055,231.184,222.994,234.154z
		 M152,152v104H48V152H152V48h104v104H152z"/>
	<path fill="#FFFFFF" d="M97.97,82.806C96.62,78.846,95.72,75,94.82,72h-0.18c-0.9,3-1.89,7.025-3.06,10.716L85.64,100h18.27
		L97.97,82.806z"/>
	<path fill="#FFFFFF" d="M204.186,210H198v23.344c1,0.27,3.633,0.359,6.423,0.359c8.1,0,15.495-3.076,15.495-11.896
		C219.918,213.527,212.735,210,204.186,210z"/>
	<path fill="#FFFFFF" d="M217.955,193.968c0-7.109-5.253-9.831-13.172-9.831c-3.601,0-5.783,0.34-6.783,0.609V204h6.815
		C213.095,204,217.955,199.817,217.955,193.968z"/>
</g>
</svg>
