<?xml version="1.0" encoding="utf-8"?>
<!-- Generator: Adobe Illustrator 16.0.0, SVG Export Plug-In . SVG Version: 6.00 Build 0)  -->
<!DOCTYPE svg PUBLIC "-//W3C//DTD SVG 1.1//EN" "http://www.w3.org/Graphics/SVG/1.1/DTD/svg11.dtd">
<svg version="1.1" id="Layer_21" xmlns="http://www.w3.org/2000/svg" xmlns:xlink="http://www.w3.org/1999/xlink" x="0px" y="0px"
	 width="304px" height="304px" viewBox="0 0 304 304" enable-background="new 0 0 304 304" xml:space="preserve">
<path fill="#FFFFFF" d="M190,152V38H38v228h38v-19h76v19h38V162h66v104h10V152H190z M64,216H50v-14h14V216z M64,178H50v-14h14V178z
	 M64,140H50v-14h14V140z M64,102H50V88h14V102z M64,64H50V50h14V64z M102,216H88v-14h14V216z M102,178H88v-14h14V178z M102,140H88
	v-14h14V140z M102,102H88V88h14V102z M102,64H88V50h14V64z M140,216h-14v-14h14V216z M140,178h-14v-14h14V178z M140,140h-14v-14h14
	V140z M140,102h-14V88h14V102z M140,64h-14V50h14V64z M164,50h14v14h-14V50z M164,88h14v14h-14V88z M164,126h14v14h-14V126z
	 M178,216h-14v-14h14V216z M178,178h-14v-14h14V178z"/>
</svg>
