<?xml version="1.0" encoding="utf-8"?>
<!-- Generator: Adobe Illustrator 16.0.0, SVG Export Plug-In . SVG Version: 6.00 Build 0)  -->
<!DOCTYPE svg PUBLIC "-//W3C//DTD SVG 1.1//EN" "http://www.w3.org/Graphics/SVG/1.1/DTD/svg11.dtd">
<svg version="1.1" id="links" xmlns="http://www.w3.org/2000/svg" xmlns:xlink="http://www.w3.org/1999/xlink" x="0px" y="0px"
	 width="304px" height="304px" viewBox="0 0 304 304" enable-background="new 0 0 304 304" xml:space="preserve">
<g>
	<path fill="#FFFFFF" d="M167.739,117.26c-14.839-14.839-38.899-14.84-53.739,0L60.26,171c-14.839,14.84-14.839,38.9,0,53.74
		c14.84,14.84,38.901,14.84,53.74,0L167.739,171C182.579,156.16,182.579,132.1,167.739,117.26z M112.232,212.366
		c-11.911,11.91-30.431,12.702-41.366,1.768c-10.935-10.935-10.143-29.456,1.768-41.366l43.133-43.134
		c11.911-11.911,30.431-12.702,41.365-1.768c10.935,10.935,10.144,29.455-1.768,41.366L112.232,212.366z"/>
	<path fill="#FFFFFF" d="M243.739,79.26C228.9,64.42,204.84,64.42,190,79.26L136.26,133c-14.839,14.84-14.839,38.9,0,53.74
		c14.84,14.84,38.901,14.84,53.74,0L243.739,133C258.579,118.16,258.579,94.1,243.739,79.26z M188.232,174.366
		c-11.911,11.91-30.431,12.702-41.365,1.768c-10.935-10.935-10.143-29.456,1.768-41.366l43.133-43.134
		c11.911-11.911,30.431-12.702,41.366-1.768c10.934,10.935,10.143,29.455-1.768,41.366L188.232,174.366z"/>
</g>
</svg>
