<?xml version="1.0" encoding="utf-8"?>
<!-- Generator: Adobe Illustrator 16.0.0, SVG Export Plug-In . SVG Version: 6.00 Build 0)  -->
<!DOCTYPE svg PUBLIC "-//W3C//DTD SVG 1.1//EN" "http://www.w3.org/Graphics/SVG/1.1/DTD/svg11.dtd">
<svg version="1.1" id="usuar" xmlns="http://www.w3.org/2000/svg" xmlns:xlink="http://www.w3.org/1999/xlink" x="0px" y="0px"
	 width="304px" height="304px" viewBox="0 0 304 304" enable-background="new 0 0 304 304" xml:space="preserve">
<path fill="#FFFFFF" d="M152,38.5c-62.96,0-114,51.04-114,114c0,34.385,15.225,65.214,39.3,86.115c-0.52-3.575-0.8-7.229-0.8-10.948
	c0-41.698,33.802-75.5,75.499-75.5c41.697,0,75.5,33.802,75.5,75.5c0,3.72-0.28,7.374-0.8,10.95
	C250.774,217.715,266,186.886,266,152.5C266,89.54,214.96,38.5,152,38.5z M151.999,132.667c-20.987,0-38-17.013-38-38
	c0-20.987,17.013-38,38-38c20.986,0,38,17.013,38,38C189.999,115.654,172.985,132.667,151.999,132.667z"/>
</svg>
