<?xml version="1.0" encoding="utf-8"?>
<!-- Generator: Adobe Illustrator 16.0.0, SVG Export Plug-In . SVG Version: 6.00 Build 0)  -->
<!DOCTYPE svg PUBLIC "-//W3C//DTD SVG 1.1//EN" "http://www.w3.org/Graphics/SVG/1.1/DTD/svg11.dtd">
<svg version="1.1" id="_x25_" xmlns="http://www.w3.org/2000/svg" xmlns:xlink="http://www.w3.org/1999/xlink" x="0px" y="0px"
	 width="304px" height="304px" viewBox="0 0 304 304" enable-background="new 0 0 304 304" xml:space="preserve">
<g>
	<path fill="#FFFFFF" d="M135.547,110.36c0,39.893-23.295,59.985-49.212,59.985c-26.498,0-48.046-20.384-48.337-56.783
		c0-35.816,20.675-59.404,49.794-59.404C117.785,54.159,135.547,76.29,135.547,110.36z M65.371,112.398
		c-0.292,21.84,7.569,37.855,21.838,37.855c14.269,0,21.258-15.142,21.258-38.147c0-20.966-5.824-37.854-21.258-37.854
		C72.651,74.252,65.371,91.141,65.371,112.398z M86.918,249.841L196.697,54.159h20.385L107.303,249.841H86.918z M266.002,188.981
		c0,39.603-23.004,59.985-49.212,59.985s-48.047-20.383-48.047-57.074c0-35.524,20.675-59.402,49.504-59.402
		C248.239,132.491,266.002,154.913,266.002,188.981z M195.824,191.02c-0.291,21.549,7.571,37.856,21.84,37.856
		c14.56,0,21.257-15.144,21.257-38.146c0-21.258-5.823-37.855-21.257-37.855C203.104,152.874,195.824,169.763,195.824,191.02z"/>
</g>
</svg>
