<?xml version="1.0" encoding="utf-8"?>
<!-- Generator: Adobe Illustrator 24.0.0, SVG Export Plug-In . SVG Version: 6.00 Build 0)  -->
<svg version="1.1" id="Layer_1" xmlns="http://www.w3.org/2000/svg" xmlns:xlink="http://www.w3.org/1999/xlink" x="0px" y="0px"
	 viewBox="0 0 90 77.3" style="enable-background:new 0 0 90 77.3;" xml:space="preserve">
<style type="text/css">
	.st0{fill:#001219;}
</style>
<path class="st0" d="M87.3,43.7h-3V32.4H53.5v11.3H2.7v-41H21V0H0v61.8h16.8v-2.7H2.7V46.3h50.9v12.8H21v2.7h10V69h-4.2v5.6h-2.9
	v2.7h60.5V61.8H90V21h-2.7V43.7z M53.5,74.7H29.4v-3h14.2V69h-10v-7.2h19.9L53.5,74.7L53.5,74.7z M81.7,74.7H56.2v-4.4h25.5
	L81.7,74.7L81.7,74.7z M81.7,67.6H56.2V42.1h25.5L81.7,67.6L81.7,67.6z M81.7,39.5H56.2v-4.4h25.5L81.7,39.5L81.7,39.5z M87.3,59.2
	h-3V46.3h3V59.2z"/>
<path class="st0" d="M25.3,0v2.7h62.1v14.2H90V0H25.3z"/>
<path class="st0" d="M49.1,52c0-2.3-1.9-4.1-4.1-4.1s-4.1,1.9-4.1,4.1s1.9,4.1,4.1,4.1C47.3,56.2,49.1,54.3,49.1,52L49.1,52z
	 M43.5,52c0-0.8,0.7-1.5,1.5-1.5c0.8,0,1.5,0.7,1.5,1.5c0,0.8-0.7,1.5-1.5,1.5C44.2,53.5,43.5,52.9,43.5,52L43.5,52z"/>
<rect x="46.4" y="69" class="st0" width="2.8" height="2.7"/>
<path class="st0" d="M61.8,47.7h5.7v-2.7h-8.4v7h2.7C61.8,52,61.8,47.7,61.8,47.7z"/>
<rect x="59.2" y="54.9" class="st0" width="2.7" height="2.8"/>
<path class="st0" d="M8.3,8.3H14V5.6H5.6v7h2.7V8.3z"/>
<rect x="5.6" y="15.4" class="st0" width="2.7" height="2.8"/>
<rect x="81.6" y="5.6" class="st0" width="2.8" height="2.7"/>
<rect x="81.6" y="11.3" class="st0" width="2.8" height="2.6"/>
<rect x="76" y="5.6" class="st0" width="2.8" height="2.7"/>
</svg>
