<svg width="36" height="36" viewBox="0 0 36 36" fill="none" xmlns="http://www.w3.org/2000/svg">
<path d="M18 0C8.05982 0 0 8.05982 0 18C0 27.9402 8.05982 36 18 36C27.9402 36 36 27.9402 36 18C36 8.05982 27.9402 0 18 0Z" fill="#001219"/>
<path d="M23.4 22.5V24.3C23.4 24.5387 23.4948 24.7676 23.6636 24.9364C23.8324 25.1052 24.0613 25.2 24.3 25.2C24.5387 25.2 24.7676 25.1052 24.9364 24.9364C25.1052 24.7676 25.2 24.5387 25.2 24.3V10.8H12.6V20.7H10.8V9.9C10.8 9.66131 10.8948 9.43239 11.0636 9.2636C11.2324 9.09482 11.4613 9 11.7 9H26.1C26.3387 9 26.5676 9.09482 26.7364 9.2636C26.9052 9.43239 27 9.66131 27 9.9V24.3C27 25.0161 26.7155 25.7028 26.2092 26.2092C25.7028 26.7155 25.0161 27 24.3 27H11.7C10.9839 27 10.2972 26.7155 9.79081 26.2092C9.28446 25.7028 9 25.0161 9 24.3V22.5H23.4Z" fill="white"/>
</svg>
