<?xml version="1.0" encoding="utf-8"?>
<!-- Generator: Adobe Illustrator 24.0.0, SVG Export Plug-In . SVG Version: 6.00 Build 0)  -->
<svg version="1.1" id="Layer_1" xmlns="http://www.w3.org/2000/svg" xmlns:xlink="http://www.w3.org/1999/xlink" x="0px" y="0px"
	 viewBox="0 0 90 90" style="enable-background:new 0 0 90 90;" xml:space="preserve">
<style type="text/css">
	.st0{fill:#001219;}
</style>
<rect x="18" y="6" class="st0" width="3" height="3"/>
<rect x="24" y="6" class="st0" width="3" height="3"/>
<rect x="30" y="6" class="st0" width="3" height="3"/>
<path class="st0" d="M1.5,90H48c0.6,0,1.2-0.4,1.4-0.9c0.2-0.6,0.1-1.2-0.3-1.6L2.6,40.9c-0.4-0.4-1.1-0.6-1.6-0.3
	C0.4,40.8,0,41.4,0,42v46.5C0,89.3,0.7,90,1.5,90L1.5,90z M3,45.6L44.4,87H3V45.6z"/>
<path class="st0" d="M26.6,78.4l-15-15c-0.4-0.4-1.1-0.6-1.6-0.3C9.4,63.3,9,63.9,9,64.5v15c0,0.8,0.7,1.5,1.5,1.5h15
	c0.6,0,1.1-0.4,1.4-0.9C27.1,79.5,27,78.9,26.6,78.4L26.6,78.4z M12,78v-9.9l9.9,9.9H12z"/>
<path class="st0" d="M88.3,12.8c2.2-2.2,2.2-5.9,0-8.1s-5.9-2.2-8.1,0l-2.3,2.3C77.7,3,74.4,0,70.5,0h-51C15.4,0,12,3.4,12,7.5v39h3
	v-39C15,5,17,3,19.5,3h51C73,3,75,5,75,7.5v2.4L60.9,24h-11c-3-7.6-11-11.9-18.9-10.1S17.5,22.9,18,31s6.9,14.6,15,15.4v6.1
	c0,0.8,0.7,1.5,1.5,1.5h33c0.8,0,1.5-0.7,1.5-1.5V32.1l6-6V57H40.5c-0.8,0-1.5,0.7-1.5,1.5v12c0,0.8,0.7,1.5,1.5,1.5H75v1.5
	c0,2.5-2,4.5-4.5,4.5h-24v3h24c4.1,0,7.5-3.4,7.5-7.5V72h10.5c0.8,0,1.5-0.7,1.5-1.5v-12c0-0.8-0.7-1.5-1.5-1.5H78V23.1L88.3,12.8z
	 M82.3,6.8C83,6.1,84,5.8,85,6.1s1.7,1,2,2s0,2-0.8,2.7l-0.7,0.7l-3.9-3.9L82.3,6.8z M48,30c0,6.9-5.2,12.6-12,13.4V27h11.7
	C47.9,28,48,29,48,30L48,30z M33,25.5v17.9c-6.4-0.7-11.5-5.9-12-12.3c-0.5-6.5,3.6-12.4,9.9-14.1c6.2-1.7,12.8,1.2,15.7,7H34.5
	C33.7,24,33,24.7,33,25.5L33,25.5z M66,51H36v-4.6c4.6-0.4,8.9-2.8,11.7-6.5c2.8-3.7,3.9-8.4,3-13h7.2l-3.4,3.4
	c-0.2,0.2-0.3,0.5-0.4,0.8l-1.5,7.5c-0.1,0.4,0,0.9,0.3,1.2c0.3,0.3,0.7,0.5,1.2,0.5c0.1,0,0.2,0,0.3,0l7.5-1.5
	c0.3-0.1,0.6-0.2,0.8-0.4l3.4-3.4V51z M56.4,34.5l2,2l-2.5,0.5L56.4,34.5z M81,60v3h3v-3h3v9H42v-9h3v3h3v-3h3v3h3v-3h3v3h3v-3h3v3
	h3v-3h3v3h3v-3h3v3h3v-3H81z M61.5,35.4l-3.9-3.9L79.5,9.6l3.9,3.9L61.5,35.4z"/>
</svg>
