<svg width="36" height="36" viewBox="0 0 36 36" fill="none" xmlns="http://www.w3.org/2000/svg">
<path d="M23.625 18C23.625 19.4918 23.0324 20.9226 21.9775 21.9775C20.9226 23.0324 19.4918 23.625 18 23.625C16.5082 23.625 15.0774 23.0324 14.0225 21.9775C12.9676 20.9226 12.375 19.4918 12.375 18C12.375 17.6794 12.4087 17.3662 12.4669 17.0625H10.5V24.5569C10.5 25.0781 10.9219 25.5 11.4431 25.5H24.5587C24.8086 25.4995 25.048 25.3999 25.2244 25.2231C25.4009 25.0463 25.5 24.8067 25.5 24.5569V17.0625H23.5331C23.5912 17.3662 23.625 17.6794 23.625 18V18ZM18 21.75C18.4926 21.7499 18.9803 21.6527 19.4353 21.4641C19.8904 21.2755 20.3038 20.9991 20.652 20.6507C21.0003 20.3023 21.2764 19.8887 21.4648 19.4336C21.6532 18.9785 21.7501 18.4907 21.75 17.9981C21.7499 17.5055 21.6527 17.0178 21.4641 16.5628C21.2755 16.1077 20.9991 15.6943 20.6507 15.3461C20.3023 14.9979 19.8887 14.7217 19.4336 14.5333C18.9785 14.3449 18.4907 14.248 17.9981 14.2481C17.0033 14.2484 16.0493 14.6438 15.3461 15.3474C14.6428 16.051 14.2479 17.0052 14.2481 18C14.2484 18.9948 14.6438 19.9488 15.3474 20.652C16.051 21.3553 17.0052 21.7502 18 21.75V21.75ZM22.5 14.0625H24.7481C24.8975 14.0625 25.0407 14.0033 25.1465 13.8979C25.2523 13.7924 25.312 13.6494 25.3125 13.5V11.2519C25.3125 11.1022 25.253 10.9586 25.1472 10.8528C25.0414 10.747 24.8978 10.6875 24.7481 10.6875H22.5C22.3503 10.6875 22.2068 10.747 22.1009 10.8528C21.9951 10.9586 21.9356 11.1022 21.9356 11.2519V13.5C21.9375 13.8094 22.1906 14.0625 22.5 14.0625V14.0625ZM18 0C13.2261 0 8.64773 1.89642 5.27208 5.27208C1.89642 8.64773 0 13.2261 0 18C0 22.7739 1.89642 27.3523 5.27208 30.7279C8.64773 34.1036 13.2261 36 18 36C20.3638 36 22.7044 35.5344 24.8883 34.6298C27.0722 33.7252 29.0565 32.3994 30.7279 30.7279C32.3994 29.0565 33.7252 27.0722 34.6298 24.8883C35.5344 22.7044 36 20.3638 36 18C36 15.6362 35.5344 13.2956 34.6298 11.1117C33.7252 8.92784 32.3994 6.94353 30.7279 5.27208C29.0565 3.60062 27.0722 2.27475 24.8883 1.37017C22.7044 0.465584 20.3638 0 18 0V0ZM27.375 25.2919C27.375 26.4375 26.4375 27.375 25.2919 27.375H10.7081C9.5625 27.375 8.625 26.4375 8.625 25.2919V10.7081C8.625 9.5625 9.5625 8.625 10.7081 8.625H25.2919C26.4375 8.625 27.375 9.5625 27.375 10.7081V25.2919V25.2919Z" fill="#001219"/>
</svg>
