<svg width="36" height="36" viewBox="0 0 36 36" fill="none" xmlns="http://www.w3.org/2000/svg">
<path d="M14.3156 16.3246C14.6652 16.0714 14.8339 15.6536 14.8339 15.079C14.846 14.8058 14.7897 14.5366 14.6692 14.2915C14.5607 14.0946 14.4 13.9299 14.2031 13.8134C13.999 13.6896 13.7723 13.6077 13.5362 13.5723C13.279 13.5241 13.0179 13.5 12.7607 13.504H9.93616V16.7062H12.9937C13.5201 16.7103 13.9661 16.5817 14.3156 16.3246V16.3246ZM14.7897 19.2174C14.396 18.9161 13.8696 18.7674 13.2147 18.7674H9.92813V22.5442H13.1504C13.4518 22.5442 13.729 22.5161 13.9982 22.4598C14.2529 22.41 14.4957 22.3118 14.7134 22.1705C14.9183 22.0379 15.083 21.8571 15.2076 21.6241C15.3281 21.3911 15.3884 21.0937 15.3884 20.7362C15.3884 20.025 15.1875 19.5228 14.7897 19.2174V19.2174ZM18 0C8.05982 0 0 8.05982 0 18C0 27.9402 8.05982 36 18 36C27.9402 36 36 27.9402 36 18C36 8.05982 27.9402 0 18 0ZM21.4754 11.5272H27.0362V12.8813H21.4754V11.5272ZM18 22.6929C17.7399 23.1866 17.3685 23.613 16.9152 23.9384C16.4411 24.2679 15.9147 24.5089 15.3563 24.6496C14.7719 24.8061 14.1692 24.8832 13.5643 24.8786H6.91071V11.1737H13.3795C14.0344 11.1737 14.629 11.2339 15.1714 11.3464C15.7098 11.4589 16.1679 11.6518 16.5536 11.9129C16.9353 12.1741 17.2366 12.5237 17.4496 12.9576C17.6585 13.3875 17.767 13.9259 17.767 14.5647C17.767 15.2558 17.6103 15.8263 17.2969 16.2884C16.9795 16.7504 16.5214 17.1241 15.8987 17.4174C16.7464 17.6585 17.3692 18.0884 17.779 18.6911C18.1969 19.3018 18.4018 20.033 18.4018 20.8929C18.4018 21.592 18.2692 22.1906 18 22.6929ZM29.2018 20.5714H22.0339C22.0339 21.3509 22.3031 22.0982 22.7089 22.5C23.1188 22.8978 23.7054 23.0987 24.4728 23.0987C25.0272 23.0987 25.4973 22.958 25.8991 22.6808C26.2969 22.4036 26.5379 22.1103 26.6263 21.8049H29.029C28.6433 22.9982 28.0567 23.85 27.2612 24.3643C26.4737 24.8786 25.5094 25.1357 24.3884 25.1357C23.6049 25.1357 22.9018 25.0071 22.271 24.7621C21.6643 24.525 21.1179 24.1634 20.6679 23.6973C20.2242 23.2187 19.8812 22.6558 19.6594 22.042C19.4143 21.3629 19.2938 20.6478 19.3018 19.9286C19.3018 19.1853 19.4263 18.4942 19.6674 17.8513C20.1295 16.6018 21.0897 15.6013 22.3152 15.083C22.9701 14.8098 23.6732 14.6732 24.3844 14.6812C25.2281 14.6812 25.9594 14.842 26.5942 15.1714C27.2053 15.486 27.736 15.9369 28.1451 16.4893C28.5509 17.0397 28.8362 17.6665 29.017 18.3737C29.1897 19.0687 29.25 19.8 29.2018 20.5714V20.5714ZM24.3 16.7304C23.8661 16.7304 23.5004 16.8067 23.2192 16.9554C22.9379 17.104 22.7049 17.2888 22.5281 17.5018C22.3598 17.7074 22.2353 17.9453 22.1625 18.2009C22.0982 18.4138 22.054 18.6308 22.0379 18.8518H26.4777C26.4134 18.1567 26.1723 17.6424 25.8509 17.2808C25.5134 16.9232 24.971 16.7304 24.3 16.7304V16.7304Z" fill="#001219"/>
</svg>
