<?xml version="1.0" encoding="utf-8"?>
<!-- Generator: Adobe Illustrator 24.0.0, SVG Export Plug-In . SVG Version: 6.00 Build 0)  -->
<svg version="1.1" id="Layer_1" xmlns="http://www.w3.org/2000/svg" xmlns:xlink="http://www.w3.org/1999/xlink" x="0px" y="0px"
	 viewBox="0 0 90 88.1" style="enable-background:new 0 0 90 88.1;" xml:space="preserve">
<style type="text/css">
	.st0{fill:#001219;}
</style>
<path class="st0" d="M37,78.7L36.7,80L37,78.7c-0.7-0.1-1.4,0.3-1.6,1c-0.1,0.7,0.3,1.4,1,1.6h0c0.1,0,0.2,0,0.3,0
	c0.6,0,1.2-0.4,1.3-1.1C38.2,79.6,37.7,78.9,37,78.7L37,78.7z"/>
<path class="st0" d="M47.1,79.2l0.1,1.3L47.1,79.2c-0.7,0.1-1.3,0.7-1.2,1.4c0.1,0.7,0.6,1.2,1.3,1.2c0,0,0.1,0,0.1,0h0
	c0.7-0.1,1.2-0.7,1.2-1.5C48.4,79.6,47.8,79.1,47.1,79.2L47.1,79.2z"/>
<path class="st0" d="M42,79.3L42,79.3c-0.8,0-1.4,0.5-1.4,1.3c0,0.7,0.5,1.3,1.3,1.4c0,0,0,0,0.1,0c0.7,0,1.3-0.6,1.3-1.3
	C43.3,80,42.7,79.3,42,79.3L42,79.3z"/>
<path class="st0" d="M32.1,77.4L32.1,77.4c-0.7-0.3-1.5,0.1-1.7,0.8s0.1,1.4,0.8,1.7c0.1,0.1,0.3,0.1,0.5,0.1c0.5,0,1-0.3,1.2-0.9
	C33.2,78.4,32.8,77.6,32.1,77.4L32.1,77.4z"/>
<path class="st0" d="M52,78.2l0.3,1.3L52,78.2c-0.7,0.2-1.1,0.9-1,1.6c0.2,0.6,0.7,1,1.3,1c0.1,0,0.2,0,0.3,0c0,0,0,0,0,0
	c0.7-0.2,1.1-0.9,0.9-1.6C53.5,78.5,52.7,78.1,52,78.2L52,78.2z"/>
<path class="st0" d="M56.8,76.6l0.5,1.2L56.8,76.6c-0.7,0.3-1,1.1-0.7,1.7c0.2,0.5,0.7,0.8,1.2,0.8c0.2,0,0.3,0,0.5-0.1c0,0,0,0,0,0
	c0.7-0.3,1-1.1,0.7-1.7C58.2,76.6,57.5,76.3,56.8,76.6L56.8,76.6z"/>
<path class="st0" d="M27.1,16.5c0.2,0,0.4,0,0.6-0.2c0.6-0.3,0.9-1.1,0.5-1.8c-0.3-0.6-1.1-0.9-1.8-0.5l0,0
	c-0.6,0.3-0.9,1.1-0.5,1.8C26.1,16.2,26.6,16.5,27.1,16.5L27.1,16.5z"/>
<path class="st0" d="M11.8,31.2c0.2,0.1,0.4,0.1,0.6,0.1c0.5,0,0.9-0.3,1.2-0.7l0,0c0.3-0.6,0.1-1.4-0.6-1.8
	c-0.6-0.3-1.4-0.1-1.8,0.6C10.9,30.1,11.2,30.9,11.8,31.2L11.8,31.2z"/>
<path class="st0" d="M10,36.2c0.1,0,0.3,0.1,0.4,0.1c0.6,0,1.1-0.3,1.3-0.9l0,0c0.2-0.7-0.2-1.4-0.9-1.7c-0.7-0.2-1.4,0.2-1.6,0.9
	C8.9,35.2,9.3,35.9,10,36.2L10,36.2z"/>
<path class="st0" d="M14.4,26.6c0.2,0.2,0.5,0.3,0.8,0.3c0.4,0,0.8-0.2,1.1-0.5l0,0c0.4-0.6,0.3-1.4-0.3-1.8
	c-0.6-0.4-1.4-0.3-1.8,0.3l1.1,0.8l-1.1-0.8C13.7,25.3,13.8,26.2,14.4,26.6L14.4,26.6z"/>
<path class="st0" d="M22.6,19.3c0.3,0,0.6-0.1,0.8-0.3c0.6-0.4,0.7-1.3,0.3-1.8c-0.4-0.6-1.3-0.7-1.8-0.3l0,0
	c-0.6,0.4-0.7,1.3-0.3,1.9C21.8,19.1,22.2,19.3,22.6,19.3L22.6,19.3z"/>
<path class="st0" d="M8.8,56.2c0.2,0.6,0.7,0.9,1.3,0.9c0.1,0,0.3,0,0.4-0.1c0.7-0.2,1.1-1,0.9-1.6s-0.9-1.1-1.6-0.9
	C9,54.7,8.6,55.4,8.8,56.2C8.8,56.1,8.8,56.1,8.8,56.2L8.8,56.2z"/>
<path class="st0" d="M18.6,22.8c0.3,0,0.7-0.1,0.9-0.4c0.5-0.5,0.5-1.4,0-1.9c-0.5-0.5-1.4-0.5-1.9,0l0,0c-0.5,0.5-0.5,1.4,0,1.9
	C18,22.7,18.3,22.8,18.6,22.8L18.6,22.8z"/>
<path class="st0" d="M10.3,50.4c-0.1-0.7-0.8-1.2-1.5-1.1c-0.7,0.1-1.3,0.7-1.2,1.5l0,0c0.1,0.7,0.7,1.1,1.3,1.1c0.1,0,0.1,0,0.2,0
	C9.9,51.8,10.4,51.1,10.3,50.4L10.3,50.4z"/>
<path class="st0" d="M8.6,46.6C8.6,46.6,8.6,46.6,8.6,46.6c0.8,0,1.3-0.6,1.4-1.3v-0.1c0-0.7-0.6-1.3-1.3-1.3
	c-0.7,0-1.3,0.6-1.3,1.3C7.3,46,7.9,46.6,8.6,46.6L8.6,46.6z"/>
<path class="st0" d="M8.9,41.3c0.1,0,0.2,0,0.2,0c0.6,0,1.2-0.5,1.3-1.1c0,0,0,0,0-0.1c0.1-0.7-0.4-1.4-1.1-1.5
	c-0.7-0.1-1.4,0.4-1.5,1.1C7.7,40.5,8.2,41.2,8.9,41.3L8.9,41.3z"/>
<path class="st0" d="M71.1,27c0.3,0.4,0.7,0.6,1.1,0.6c0.3,0,0.5-0.1,0.8-0.2c0.6-0.4,0.8-1.2,0.3-1.8l-1.1,0.7l1.1-0.7
	c-0.4-0.6-1.2-0.8-1.8-0.4S70.6,26.4,71.1,27L71.1,27z"/>
<path class="st0" d="M77.8,40.3c-0.7,0.1-1.2,0.7-1.2,1.5l0,0.1c0.1,0.7,0.7,1.1,1.3,1.1c0.1,0,0.1,0,0.2,0c0.7-0.1,1.2-0.8,1.1-1.5
	C79.2,40.7,78.5,40.2,77.8,40.3L77.8,40.3z"/>
<path class="st0" d="M75.6,36.5L75.6,36.5c0.2,0.6,0.7,1,1.3,1c0.1,0,0.3,0,0.4,0c0.7-0.2,1.1-0.9,0.9-1.6l0,0
	c-0.2-0.7-0.9-1.1-1.6-0.9C75.8,35.1,75.4,35.8,75.6,36.5L75.6,36.5z"/>
<path class="st0" d="M73.7,31.6c0.2,0.5,0.7,0.7,1.2,0.7c0.2,0,0.4,0,0.6-0.1c0.7-0.3,0.9-1.1,0.6-1.8L74.9,31l1.2-0.6
	c-0.3-0.7-1.1-0.9-1.8-0.6C73.7,30.1,73.4,30.9,73.7,31.6L73.7,31.6z"/>
<path class="st0" d="M67.8,22.9c0.3,0.3,0.6,0.4,0.9,0.4c0.3,0,0.7-0.1,0.9-0.4c0.5-0.5,0.5-1.3,0-1.9c-0.5-0.5-1.3-0.6-1.9-0.1
	S67.2,22.3,67.8,22.9L67.8,22.9z"/>
<path class="st0" d="M78.2,45.8c-0.7,0-1.3,0.5-1.4,1.3s0.5,1.3,1.2,1.4c0,0,0.1,0,0.1,0c0.7,0,1.3-0.5,1.3-1.3v0
	C79.5,46.4,79,45.8,78.2,45.8L78.2,45.8z"/>
<path class="st0" d="M59.3,16.4L59.3,16.4c0.2,0.1,0.4,0.2,0.6,0.2c0.5,0,0.9-0.3,1.2-0.7c0.3-0.6,0.1-1.4-0.5-1.8l-0.6,1.1l0.6-1.2
	c-0.6-0.4-1.4-0.1-1.8,0.5C58.5,15.3,58.7,16.1,59.3,16.4L59.3,16.4z"/>
<path class="st0" d="M63.8,19.3L63.8,19.3c0.3,0.2,0.5,0.3,0.8,0.3c0.4,0,0.8-0.2,1.1-0.5c0.4-0.6,0.3-1.4-0.3-1.9l0,0
	c-0.6-0.4-1.4-0.3-1.8,0.2C63.1,18,63.2,18.9,63.8,19.3L63.8,19.3z"/>
<path class="st0" d="M89.2,65.7L83,59.5c-0.5-0.5-1.2-0.8-2-0.8s-1.4,0.3-2,0.8l-0.1,0.1l-0.4-0.4c-0.5-0.5-0.9-1.1-1.2-1.7
	c0-0.1-0.1-0.2-0.1-0.2c-0.2-0.6-0.3-1.2-0.3-1.8v-1.8c0.1,0.1,0.3,0.1,0.4,0.1c0.1,0,0.2,0,0.2,0c0.6,0,1.2-0.5,1.3-1.1
	c0.1-0.7-0.3-1.4-1-1.5c-0.3-0.1-0.6,0-0.9,0.1c-0.1-1.9-0.8-3.6-2.2-5l-6-6c-1.3-1.3-3.1-2.1-5-2.1c-1.5,0-2.9,0.5-4.1,1.3L59,39
	V23.9c0-1.8-0.7-3.6-1.9-4.9c-0.8-1-1.3-2.2-1.3-3.5v-1.1h0.1c1.5,0,2.8-1.3,2.8-2.8V2.8c0-1.5-1.3-2.8-2.8-2.8H31.3
	c-1.5,0-2.8,1.3-2.8,2.8v8.8c0,1.5,1.3,2.8,2.8,2.8h0.2v0.6c0,1.4-0.5,2.8-1.6,3.8l-2.7,2.7c-1.4,1.4-2.2,3.3-2.2,5.3v8.5
	c0,1.2,0.3,2.3,0.8,3.2c-1.8,0.1-3.4,0.8-4.6,2.1l-6,6c-1.4,1.4-2.2,3.3-2.2,5.3v3.8c0,1.4-0.6,2.8-1.6,3.8l-0.4,0.4l0,0l-0.1-0.1
	c-0.5-0.5-1.2-0.8-2-0.8c-0.7,0-1.4,0.3-2,0.8l-6.2,6.2c-1.1,1.1-1.1,2.9,0,3.9l2.1,2.1c0.5,0.5,1.3,0.5,1.9,0
	c0.5-0.5,0.5-1.3,0-1.9l-2.1-2.1c-0.1-0.1-0.1-0.2,0-0.2l6.2-6.2c0.1-0.1,0.1-0.1,0.2,0l1.1,1.1l0,0l14.7,14.7l1.6,1.7
	c0.1,0.1,0.1,0.2,0,0.2l-6.2,6.2c-0.1,0.1-0.1,0.1-0.2,0L8.5,73.7c-0.5-0.5-1.3-0.5-1.9,0c-0.5,0.5-0.5,1.3,0,1.9l11.6,11.6
	c0.5,0.5,1.2,0.8,2,0.8s1.4-0.3,2-0.8l6.2-6.2c1.1-1.1,1.1-2.9,0-3.9l-0.1-0.1l0.8-0.8c0.9-0.9,2.1-1.5,3.4-1.6
	c1.8-0.1,3.5-0.9,4.8-2.2l5.7-5.7c1.6-0.4,2.9-1.8,3.3-3.4c0.6,0.3,1.2,0.4,1.9,0.4c2.5,0,4.5-2,4.5-4.5v-3.1
	c0.6,0.3,1.2,0.4,1.9,0.4c2.5,0,4.5-2,4.5-4.5v-9.3l4.1,4.1c0.3,0.3,0.6,0.4,0.9,0.4c0.3,0,0.7-0.1,0.9-0.4c0.5-0.5,0.5-1.3,0-1.9
	l-3.4-3.4c0.7-0.4,1.4-0.5,2.2-0.5c1.2,0,2.3,0.5,3.2,1.3l6,6c0.9,0.9,1.4,2.1,1.4,3.4v3.8c0,2.1,0.8,4.1,2.3,5.6l0.4,0.4l-1.9,1.9
	L63.6,75l-0.6-0.7c0,0,0,0,0,0l-0.1-0.1c-1.4-1.4-3.2-2.2-5.1-2.3c-1.2-0.1-2.3-0.6-3.1-1.4l-4.3-4.3c-0.5-0.5-1.3-0.5-1.9,0
	c-0.5,0.5-0.5,1.3,0,1.9l4.3,4.3c1.3,1.3,3,2.1,4.8,2.2c1.3,0.1,2.5,0.6,3.4,1.6l0.1,0.1c0,0,0.1,0.1,0.1,0.1l0.6,0.6L61.6,77
	c-1.1,1.1-1.1,2.9,0,3.9l6.2,6.2c0.5,0.5,1.2,0.8,2,0.8s1.4-0.3,2-0.8l17.4-17.5C90.3,68.6,90.3,66.8,89.2,65.7L89.2,65.7z
	 M77.8,52.6L77.8,52.6l-0.3,0L77.8,52.6z M35.4,70.5c-0.8,0.8-1.9,1.3-3.1,1.4c-1.9,0.1-3.7,0.9-5.1,2.3L26.4,75l-0.7-0.7
	c0,0,0,0,0,0L12.9,61.5l0.4-0.4c1.5-1.5,2.3-3.5,2.3-5.6v-3.8c0-1.3,0.5-2.5,1.4-3.4l6-6c0.9-0.8,2-1.3,3.2-1.3
	c0.8,0,1.5,0.2,2.2,0.6l-3.4,3.4c-0.5,0.5-0.5,1.3,0,1.9c0.3,0.3,0.6,0.4,0.9,0.4s0.7-0.1,0.9-0.4l4-4v16.5c0,2.5,2,4.5,4.5,4.5
	c0.7,0,1.4-0.2,2-0.5c0.3,1.3,1.1,2.4,2.2,3L35.4,70.5z M56.4,52c0,1-0.8,1.9-1.9,1.9S52.7,53,52.7,52V37.3c0-0.7-0.6-1.3-1.3-1.3
	S50,36.5,50,37.3v21.9c0,1-0.8,1.9-1.9,1.9c-0.9,0-1.7-0.7-1.8-1.6V37.3c0-0.7-0.6-1.3-1.3-1.3c-0.2,0-0.5,0.1-0.7,0.2
	c-0.4,0.2-0.7,0.7-0.7,1.2v21.9c0,0.2,0,0.3,0,0.5v2.7c0,1-0.8,1.9-1.9,1.9S40,63.4,40,62.4V37.2c0-0.7-0.6-1.3-1.3-1.3
	s-1.3,0.6-1.3,1.3v22c0,1-0.8,1.9-1.9,1.9s-1.9-0.8-1.9-1.9V34.7c0-0.7-0.6-1.3-1.3-1.3S31,33.9,31,34.7v4.5c-0.1,0-0.2,0.1-0.3,0.2
	c-1.7-0.6-2.9-2.3-2.9-4.2v-8.5c0-1.3,0.5-2.5,1.4-3.4l2.7-2.7c1.5-1.5,2.3-3.5,2.3-5.6v-0.6h2.7c0.7,0,1.3-0.6,1.3-1.3
	c0-0.7-0.6-1.3-1.3-1.3h-5.5c-0.1,0-0.1-0.1-0.1-0.1V2.8c0-0.1,0.1-0.2,0.1-0.2h24.6c0.1,0,0.2,0.1,0.2,0.2v8.8
	c0,0.1-0.1,0.1-0.2,0.1H43c-0.7,0-1.3,0.6-1.3,1.3c0,0.7,0.6,1.3,1.3,1.3h10.2v1.1c0,1.9,0.7,3.8,2,5.3c0.8,0.9,1.2,2,1.2,3.2
	L56.4,52L56.4,52z M87.3,67.8L69.9,85.3c0,0-0.1,0-0.1,0c0,0-0.1,0-0.1,0l-6.2-6.2c-0.1-0.1-0.1-0.2,0-0.2l1-1l0,0l10.1-10.1
	l6.3-6.3c0.1-0.1,0.2-0.1,0.2,0l6.2,6.2C87.4,67.7,87.4,67.8,87.3,67.8L87.3,67.8z"/>
<path class="st0" d="M35.5,5.8c-0.8,0-1.4,0.6-1.4,1.4s0.6,1.4,1.4,1.4s1.4-0.6,1.4-1.4C36.9,6.4,36.3,5.8,35.5,5.8L35.5,5.8z"/>
<path class="st0" d="M81.5,65.9c-0.8,0-1.4,0.6-1.4,1.4c0,0.8,0.6,1.4,1.4,1.4c0.8,0,1.4-0.6,1.4-1.4S82.2,65.9,81.5,65.9L81.5,65.9
	z"/>
<path class="st0" d="M22,79.3c0-0.8-0.6-1.4-1.4-1.4s-1.4,0.6-1.4,1.4c0,0.8,0.6,1.4,1.4,1.4S22,80.1,22,79.3L22,79.3z"/>
</svg>
