<?xml version="1.0" encoding="utf-8"?>
<!-- Generator: Adobe Illustrator 16.0.0, SVG Export Plug-In . SVG Version: 6.00 Build 0)  -->
<!DOCTYPE svg PUBLIC "-//W3C//DTD SVG 1.1//EN" "http://www.w3.org/Graphics/SVG/1.1/DTD/svg11.dtd">
<svg version="1.1" id="Layer_1" xmlns="http://www.w3.org/2000/svg" xmlns:xlink="http://www.w3.org/1999/xlink" x="0px" y="0px"
	 width="40px" height="80px" viewBox="0 -20 40 80" enable-background="new 0 -20 40 80" xml:space="preserve">
<g>
	<path fill="#FFFFFF" d="M37.645,1.99L40,0.002l-2.355-1.988l1.854-2.462L36.76-5.862l1.26-2.813l-2.984-0.769l0.604-3.022
		l-3.083-0.086l-0.085-3.082l-3.023,0.603l-0.769-2.985l-2.813,1.26l-1.414-2.739l-2.461,1.854L20.002-20l-1.988,2.357l-2.462-1.854
		l-1.414,2.739l-2.813-1.26l-0.769,2.985l-3.022-0.603l-0.088,3.082l-3.082,0.086l0.604,3.022L1.982-8.676l1.26,2.813l-2.74,1.414
		l1.855,2.462L0,0.002L2.357,1.99L0.502,4.451l2.74,1.414L1.98,8.679l2.986,0.769l-0.604,3.023l3.082,0.085l0.086,3.082l3.022-0.603
		l0.769,2.984l2.813-1.261l1.414,2.739l2.462-1.854L20,20l1.988-2.356l2.461,1.854l1.414-2.739l2.813,1.261l0.769-2.984l3.023,0.603
		l0.085-3.082l3.082-0.085l-0.603-3.023l2.984-0.769l-1.261-2.813l2.739-1.414L37.645,1.99z M20.029,15.828
		c-8.828,0-15.982-7.156-15.982-15.983c0-8.828,7.156-15.983,15.982-15.983c8.828,0,15.983,7.155,15.983,15.983
		C36.013,8.672,28.857,15.828,20.029,15.828z"/>
	<path fill="#FFFFFF" d="M20.029-14.611c-7.983,0-14.457,6.473-14.457,14.457s6.473,14.456,14.457,14.456S34.486,7.83,34.486-0.154
		S28.014-14.611,20.029-14.611z M28.516-0.403h-0.49c-0.627,0-1.061,0.269-1.293,0.687c-0.162,0.299-0.244,0.943-0.244,1.822v5.016
		c-0.812,0.5-1.84,0.867-2.742,1.102c-0.902,0.232-1.904,0.35-3.01,0.35c-3.166,0-5.57-1.015-7.215-3.045
		c-1.232-1.522-1.849-3.279-1.849-5.271c0-1.442,0.347-2.824,1.04-4.146c0.822-1.572,1.949-2.781,3.384-3.627
		c1.201-0.701,2.619-1.051,4.254-1.051c0.597,0,1.14,0.049,1.626,0.145c0.487,0.098,1.18,0.312,2.073,0.642
		c0.45,0.169,0.753,0.254,0.905,0.254s0.283-0.043,0.394-0.185c0.11-0.141,0.177-0.396,0.199-0.801h0.446l0.425,5.271h-0.425
		c-0.426-1.622-0.979-2.336-1.654-2.988c-0.977-0.943-2.229-1.453-3.76-1.453c-2.086,0-3.674,0.807-4.762,2.457
		c-0.91,1.395-1.367,3.045-1.367,4.971c0,1.563,0.304,2.984,0.908,4.273c0.604,1.289,1.396,2.23,2.375,2.831
		c0.979,0.601,1.983,0.899,3.014,0.899c0.605,0,1.15-0.076,1.715-0.229s1.188-0.38,1.592-0.679V2.107
		c0-0.822-0.021-1.361-0.146-1.615s-0.276-0.446-0.539-0.58c-0.262-0.133-0.529-0.199-1.342-0.199v-0.521h6.488V-0.403z"/>
</g>
<g>
	<path d="M37.645,41.99L40,40.002l-2.355-1.988l1.854-2.463l-2.738-1.414l1.26-2.813l-2.984-0.77l0.604-3.021l-3.083-0.086
		l-0.085-3.082l-3.023,0.602l-0.769-2.984l-2.813,1.26l-1.414-2.74l-2.461,1.855L20.002,20l-1.988,2.358l-2.462-1.855l-1.414,2.74
		l-2.813-1.26l-0.769,2.984l-3.022-0.602l-0.088,3.082l-3.082,0.086l0.604,3.021l-2.984,0.77l1.26,2.813l-2.74,1.414l1.855,2.463
		L0,40.002l2.357,1.988l-1.855,2.461l2.74,1.414L1.98,48.678l2.986,0.77l-0.604,3.023l3.082,0.084l0.086,3.082l3.022-0.602
		l0.769,2.984l2.813-1.262l1.414,2.74l2.462-1.855L20,60l1.988-2.357l2.461,1.855l1.414-2.74l2.813,1.262l0.769-2.984l3.023,0.602
		l0.085-3.082l3.082-0.084l-0.603-3.023l2.984-0.77l-1.261-2.813l2.739-1.414L37.645,41.99z M20.029,55.828
		c-8.828,0-15.982-7.156-15.982-15.984s7.156-15.982,15.982-15.982c8.828,0,15.983,7.154,15.983,15.982S28.857,55.828,20.029,55.828
		z"/>
	<path d="M20.029,25.389c-7.983,0-14.457,6.473-14.457,14.457s6.473,14.455,14.457,14.455s14.457-6.471,14.457-14.455
		S28.014,25.389,20.029,25.389z M28.516,39.596h-0.49c-0.627,0-1.061,0.27-1.293,0.688c-0.162,0.299-0.244,0.943-0.244,1.822v5.016
		c-0.812,0.5-1.84,0.867-2.742,1.102c-0.902,0.232-1.904,0.35-3.01,0.35c-3.166,0-5.57-1.016-7.215-3.045
		c-1.232-1.523-1.849-3.279-1.849-5.271c0-1.441,0.347-2.824,1.04-4.145c0.822-1.572,1.949-2.781,3.384-3.627
		c1.201-0.701,2.619-1.051,4.254-1.051c0.597,0,1.14,0.049,1.626,0.145c0.487,0.098,1.18,0.311,2.073,0.641
		c0.45,0.17,0.753,0.254,0.905,0.254s0.283-0.043,0.394-0.184s0.177-0.396,0.199-0.801h0.446l0.425,5.271h-0.425
		c-0.426-1.623-0.979-2.336-1.654-2.988c-0.977-0.943-2.229-1.453-3.76-1.453c-2.086,0-3.674,0.807-4.762,2.457
		c-0.91,1.395-1.367,3.045-1.367,4.971c0,1.563,0.304,2.984,0.908,4.273c0.604,1.289,1.396,2.23,2.375,2.83
		c0.979,0.602,1.983,0.9,3.014,0.9c0.605,0,1.15-0.076,1.715-0.229s1.188-0.381,1.592-0.68v-4.734c0-0.822-0.021-1.361-0.146-1.615
		s-0.276-0.447-0.539-0.58c-0.262-0.133-0.529-0.199-1.342-0.199v-0.521h6.488V39.596z"/>
</g>
</svg>
