<?xml version="1.0" encoding="utf-8"?>
<!-- Generator: Adobe Illustrator 16.0.0, SVG Export Plug-In . SVG Version: 6.00 Build 0)  -->
<!DOCTYPE svg PUBLIC "-//W3C//DTD SVG 1.1//EN" "http://www.w3.org/Graphics/SVG/1.1/DTD/svg11.dtd">
<svg version="1.1" id="Layer_1" xmlns="http://www.w3.org/2000/svg" xmlns:xlink="http://www.w3.org/1999/xlink" x="0px" y="0px"
	 width="40px" height="80px" viewBox="0 -20 40 80" enable-background="new 0 -20 40 80" xml:space="preserve">
<g>
	<path fill="#FFFFFF" d="M37.645,1.99L40,0.002l-2.355-1.988l1.854-2.462L36.76-5.862l1.26-2.813l-2.984-0.769l0.604-3.022
		l-3.083-0.086l-0.085-3.082l-3.023,0.603l-0.769-2.985l-2.813,1.26l-1.414-2.739l-2.461,1.854L20.002-20l-1.988,2.357l-2.462-1.854
		l-1.414,2.739l-2.813-1.26l-0.769,2.985l-3.022-0.603l-0.088,3.082l-3.082,0.086l0.604,3.022L1.982-8.676l1.26,2.813l-2.74,1.414
		l1.855,2.462L0,0.002L2.357,1.99L0.502,4.451l2.74,1.414L1.98,8.679l2.986,0.769l-0.604,3.023l3.082,0.085l0.086,3.082l3.022-0.603
		l0.769,2.984l2.813-1.261l1.414,2.739l2.462-1.854L20,20l1.988-2.356l2.461,1.854l1.414-2.739l2.813,1.261l0.769-2.984l3.023,0.603
		l0.085-3.082l3.082-0.085l-0.603-3.023l2.984-0.769l-1.261-2.813l2.739-1.414L37.645,1.99z M20.029,15.828
		c-8.828,0-15.982-7.156-15.982-15.983c0-8.828,7.156-15.983,15.982-15.983c8.828,0,15.983,7.155,15.983,15.983
		C36.013,8.672,28.857,15.828,20.029,15.828z"/>
	<path fill="#FFFFFF" d="M20-14.697c-7.95,0-14.395,6.445-14.395,14.395c0,7.951,6.443,14.396,14.395,14.396
		c7.949,0,14.394-6.444,14.394-14.396S27.949-14.697,20-14.697z M24.019,6.951c-0.968,0.901-2.212,1.354-3.733,1.354
		c-0.478,0-0.926-0.037-1.348-0.109c-0.25-0.041-0.771-0.188-1.56-0.442c-0.79-0.255-1.289-0.382-1.5-0.382
		c-0.203,0-0.362,0.102-0.479,0.223c-0.117,0.122-0.205,0.389-0.262,0.794h-0.409V2.711h0.409c0.211,1.217,0.494,2.041,0.85,2.628
		c0.356,0.587,0.901,1.062,1.633,1.45c0.732,0.388,1.537,0.576,2.41,0.576c1.012,0,1.812-0.271,2.398-0.806s0.88-1.167,0.88-1.896
		c0-0.404-0.11-0.813-0.334-1.228c-0.222-0.413-0.567-0.798-1.036-1.153c-0.316-0.242-1.179-0.76-2.586-1.549
		c-1.41-0.789-2.41-1.418-3.005-1.887c-0.595-0.47-1.046-0.988-1.354-1.555c-0.308-0.566-0.461-1.189-0.461-1.869
		c0-1.182,0.453-2.199,1.359-3.053c0.906-0.854,2.059-1.281,3.46-1.281c0.873,0,1.8,0.214,2.779,0.645
		c0.453,0.202,0.772,0.303,0.959,0.303c0.211,0,0.383-0.131,0.517-0.258c0.133-0.125,0.241-0.422,0.321-0.828h0.533v5.678h-0.532
		c-0.146-0.811-0.406-1.885-0.783-2.533c-0.376-0.646-0.912-1.122-1.607-1.503c-0.696-0.38-1.418-0.552-2.162-0.552
		c-0.842,0-1.538,0.268-2.088,0.781c-0.551,0.515-0.825,1.104-0.825,1.758c0,0.502,0.174,0.961,0.521,1.375
		c0.502,0.607,1.696,1.418,3.582,2.43c1.538,0.826,2.588,1.459,3.15,1.9c0.563,0.44,0.996,0.961,1.299,1.56
		c0.305,0.601,0.456,1.228,0.456,1.883C25.47,4.974,24.984,6.049,24.019,6.951z"/>
</g>
<g>
	<path d="M37.645,41.99L40,40.002l-2.355-1.988l1.854-2.462l-2.738-1.414l1.26-2.813l-2.984-0.769l0.604-3.022l-3.083-0.086
		l-0.085-3.082l-3.023,0.603l-0.769-2.985l-2.813,1.26l-1.414-2.739l-2.461,1.854L20.002,20l-1.988,2.357l-2.462-1.854l-1.414,2.739
		l-2.813-1.26l-0.769,2.985l-3.022-0.603l-0.088,3.082l-3.082,0.086l0.604,3.022l-2.984,0.769l1.26,2.813l-2.74,1.414l1.855,2.462
		L0,40.002l2.357,1.988l-1.855,2.461l2.74,1.414L1.98,48.679l2.986,0.769l-0.604,3.023l3.082,0.085l0.086,3.082l3.022-0.603
		l0.769,2.984l2.813-1.261l1.414,2.739l2.462-1.854L20,60l1.988-2.356l2.461,1.854l1.414-2.739l2.813,1.261l0.769-2.984l3.023,0.603
		l0.085-3.082l3.082-0.085l-0.603-3.023l2.984-0.769l-1.261-2.813l2.739-1.414L37.645,41.99z M20.029,55.828
		c-8.828,0-15.982-7.156-15.982-15.983c0-8.828,7.156-15.983,15.982-15.983c8.828,0,15.983,7.155,15.983,15.983
		C36.013,48.672,28.857,55.828,20.029,55.828z"/>
	<path d="M20,25.303c-7.95,0-14.395,6.445-14.395,14.395c0,7.951,6.443,14.396,14.395,14.396c7.949,0,14.394-6.444,14.394-14.396
		S27.949,25.303,20,25.303z M24.019,46.951c-0.968,0.901-2.212,1.354-3.733,1.354c-0.478,0-0.926-0.037-1.348-0.109
		c-0.25-0.041-0.771-0.188-1.56-0.442c-0.79-0.255-1.289-0.382-1.5-0.382c-0.203,0-0.362,0.102-0.479,0.223
		c-0.117,0.122-0.205,0.389-0.262,0.794h-0.409v-5.677h0.409c0.211,1.217,0.494,2.041,0.85,2.628
		c0.356,0.587,0.901,1.062,1.633,1.45c0.732,0.388,1.537,0.576,2.41,0.576c1.012,0,1.812-0.271,2.398-0.806s0.88-1.167,0.88-1.896
		c0-0.404-0.11-0.813-0.334-1.228c-0.222-0.413-0.567-0.798-1.036-1.153c-0.316-0.242-1.179-0.76-2.586-1.549
		c-1.41-0.789-2.41-1.418-3.005-1.887c-0.595-0.47-1.046-0.988-1.354-1.555c-0.308-0.566-0.461-1.189-0.461-1.869
		c0-1.182,0.453-2.199,1.359-3.053c0.906-0.854,2.059-1.281,3.46-1.281c0.873,0,1.8,0.214,2.779,0.645
		c0.453,0.202,0.772,0.303,0.959,0.303c0.211,0,0.383-0.131,0.517-0.258c0.133-0.125,0.241-0.422,0.321-0.828h0.533v5.678h-0.532
		c-0.146-0.811-0.406-1.885-0.783-2.533c-0.376-0.646-0.912-1.122-1.607-1.503c-0.696-0.38-1.418-0.552-2.162-0.552
		c-0.842,0-1.538,0.268-2.088,0.781c-0.551,0.515-0.825,1.104-0.825,1.758c0,0.502,0.174,0.961,0.521,1.375
		c0.502,0.607,1.696,1.418,3.582,2.43c1.538,0.826,2.588,1.459,3.15,1.9c0.563,0.44,0.996,0.961,1.299,1.56
		c0.305,0.601,0.456,1.228,0.456,1.883C25.47,44.974,24.984,46.049,24.019,46.951z"/>
</g>
</svg>
